# https://github.com/mikedh/trimesh
v -0.03115903 -0.09644411 0.14971440
v -0.02819283 -0.09644411 0.14965692
v -0.02819283 -0.09433234 0.14894246
v -0.03115903 -0.09428760 0.14898353
v -0.03412522 -0.09644411 0.14961586
v -0.03412522 -0.09922701 0.14909850
v -0.03115903 -0.09922701 0.14909850
v -0.02819283 -0.09922701 0.14909028
v -0.02522663 -0.09644411 0.14938592
v -0.02522663 -0.09454710 0.14875359
v -0.02522663 -0.09920911 0.14900815
v -0.02225747 -0.09911963 0.14881928
v -0.02819283 -0.09284693 0.14715223
v -0.03115903 -0.09280220 0.14721792
v -0.03412522 -0.09438603 0.14889318
v -0.03624182 -0.09463658 0.14867146
v -0.03717727 -0.09640832 0.14895889
v -0.03883206 -0.09857379 0.14856471
v -0.03709438 -0.09905699 0.14887677
v -0.03709438 -0.10054240 0.14822801
v -0.03412522 -0.10071240 0.14825264
v -0.02819283 -0.10071240 0.14825264
v -0.02522663 -0.10068556 0.14825264
v -0.02225747 -0.10060503 0.14825264
v -0.02230484 -0.09641727 0.14882749
v -0.02332614 -0.09478870 0.14853185
v -0.02003727 -0.09868116 0.14858934
v -0.02003727 -0.09738368 0.14858934
v -0.02527696 -0.09291853 0.14666771
v -0.01929128 -0.10237678 0.14716865
v -0.01914622 -0.09956704 0.14820337
v -0.02629825 -0.09190737 0.14553444
v -0.02819283 -0.09181790 0.14567405
v -0.03115903 -0.09178210 0.14573153
v -0.03412522 -0.09188053 0.14558371
v -0.03412522 -0.09290958 0.14706189
v -0.03565273 -0.09197001 0.14543590
v -0.03693749 -0.09356279 0.14676626
v -0.03822224 -0.09538823 0.14808841
v -0.03883206 -0.09736578 0.14856471
v -0.03979119 -0.09950440 0.14711937
v -0.03959581 -0.10237678 0.14626532
v -0.03900968 -0.10428274 0.14568225
v -0.03709438 -0.10237678 0.14715223
v -0.03709438 -0.10448855 0.14581366
v -0.03412522 -0.10237678 0.14718507
v -0.02225747 -0.10237678 0.14718507
v -0.01998102 -0.09449341 0.14606823
v -0.02230484 -0.09405495 0.14698799
v -0.02432079 -0.09211318 0.14522238
v -0.02134867 -0.09540613 0.14804734
v -0.01658559 -0.09940597 0.14673341
v -0.01711548 -0.09707049 0.14628174
v -0.01901893 -0.09623830 0.14716865
v -0.01674248 -0.10237678 0.14628174
v -0.01929128 -0.10449750 0.14581366
v -0.01732565 -0.10428274 0.14568225
v -0.02546345 -0.08703060 0.13770831
v -0.02661204 -0.08603735 0.13653398
v -0.03115903 -0.09060988 0.14392487
v -0.02819283 -0.08693218 0.13811070
v -0.02936806 -0.08010469 0.12763206
v -0.03324602 -0.08598367 0.13660789
v -0.03412522 -0.07677596 0.12226134
v -0.03467583 -0.08021207 0.12746781
v -0.03569713 -0.05932696 0.09501358
v -0.03595467 -0.06519699 0.10401404
v -0.04006058 -0.04118895 0.06582776
v -0.04212685 -0.04211061 0.06581955
v -0.03763019 -0.09248006 0.14464753
v -0.03948036 -0.09640832 0.14702083
v -0.03898303 -0.09445761 0.14610929
v -0.04141046 -0.09919122 0.14402342
v -0.04108187 -0.10237678 0.14445866
v -0.03709438 -0.10597396 0.14475429
v -0.04001617 -0.10507914 0.14369493
v -0.03864261 -0.12468465 0.12765670
v -0.03412522 -0.10598290 0.14486105
v -0.02225747 -0.10598290 0.14486105
v -0.01800356 -0.09509293 0.14519774
v -0.02057012 -0.09187158 0.14261915
v -0.02225747 -0.09247112 0.14465575
v -0.02332317 -0.08885603 0.13972848
v -0.02358368 -0.05038770 0.08022358
v -0.02522663 -0.05020874 0.08050280
v -0.01506992 -0.09923596 0.14406447
v -0.01525938 -0.10237678 0.14458184
v -0.01654710 -0.09622935 0.14409732
v -0.01735230 -0.09447551 0.14321863
v -0.01929128 -0.10598290 0.14480357
v -0.01929128 -0.10770096 0.14331717
v -0.01726941 -0.10729829 0.14298869
v -0.01630732 -0.10512387 0.14377705
v -0.02654100 -0.05932696 0.09501358
v -0.02713009 -0.05344799 0.08602132
v -0.02819283 -0.04172584 0.06798755
v -0.03115903 -0.08689638 0.13816818
v -0.03269837 -0.08012259 0.12760742
v -0.02819283 -0.04076838 0.06650116
v -0.03115903 -0.04412396 0.07183081
v -0.03115903 -0.04508142 0.07331720
v -0.03412522 -0.07433310 0.11848377
v -0.03412522 -0.04418660 0.07173226
v -0.03412522 -0.04290701 0.06974494
v -0.03713582 -0.04066995 0.06581955
v -0.03412522 -0.07093278 0.11321981
v -0.03412522 -0.06848992 0.10943403
v -0.03412522 -0.06394423 0.10238805
v -0.04006353 -0.04118895 0.06581955
v -0.04309486 -0.04296964 0.06581955
v -0.03871365 -0.09184474 0.14266842
v -0.04079472 -0.09644411 0.14392487
v -0.04394150 -0.04393605 0.06581955
v -0.04163841 -0.10003234 0.14310366
v -0.04162656 -0.10237678 0.14297226
v -0.04152887 -0.09805479 0.14232351
v -0.04156144 -0.10390692 0.14248775
v -0.03709438 -0.12486361 0.12782093
v -0.03412522 -0.12504258 0.12796054
v -0.03412522 -0.10782623 0.14337466
v -0.03921690 -0.12314556 0.12828081
v -0.04003985 -0.12314556 0.12612103
v -0.03884983 -0.12487256 0.12612103
v -0.03927314 -0.13087680 0.09558843
v -0.03709438 -0.12559737 0.12612103
v -0.03412522 -0.12625059 0.12612103
v -0.03115903 -0.10794256 0.14337466
v -0.02819283 -0.10803204 0.14337466
v -0.02522663 -0.10804993 0.14337466
v -0.01765425 -0.09185369 0.13969563
v -0.01771937 -0.08597472 0.13069517
v -0.01778450 -0.08010469 0.12169470
v -0.01787035 -0.07423467 0.11269424
v -0.01796507 -0.06836465 0.10370198
v -0.01810421 -0.08922291 0.13618907
v -0.02008463 -0.08862338 0.13712524
v -0.02015272 -0.05603402 0.08662081
v -0.02026225 -0.05016400 0.07761213
v -0.02076254 -0.05341220 0.08310603
v -0.02068557 -0.08600156 0.13361047
v -0.02134571 -0.08925870 0.13910437
v -0.02225747 -0.09151365 0.14317757
v -0.02091055 -0.04754217 0.07410557
v -0.02204433 -0.04635206 0.07295587
v -0.02289097 -0.04714845 0.07472969
v -0.02383234 -0.04453558 0.07119848
v -0.02522663 -0.04098314 0.06616446
v -0.02580981 -0.04432977 0.07151875
v -0.01472061 -0.10011288 0.14316114
v -0.01487455 -0.09813533 0.14214284
v -0.01479166 -0.10397850 0.14259451
v -0.01471469 -0.10237678 0.14309545
v -0.01693194 -0.09348226 0.14079606
v -0.01526530 -0.09650676 0.14107526
v -0.01604090 -0.08160799 0.12018368
v -0.01660927 -0.09033249 0.13512971
v -0.01720428 -0.09129889 0.13798752
v -0.01709771 -0.07039589 0.10535262
v -0.01738190 -0.06187720 0.09271419
v -0.01740262 -0.08860548 0.13420995
v -0.02225747 -0.10795151 0.14337466
v -0.02225747 -0.12509626 0.12796054
v -0.01929128 -0.12488151 0.12781272
v -0.01776378 -0.12467570 0.12764848
v -0.03293519 -0.05339430 0.08610345
v -0.02747940 -0.04043730 0.06581955
v -0.02819283 -0.04033887 0.06581955
v -0.03115903 -0.04026728 0.06581955
v -0.03115903 -0.04278173 0.06974494
v -0.03412522 -0.04079523 0.06646010
v -0.03412522 -0.04038361 0.06581955
v -0.04471709 -0.04600308 0.06581955
v -0.04329912 -0.12314556 0.09348613
v -0.04476742 -0.04896494 0.06581955
v -0.04315110 -0.12314556 0.09645070
v -0.04298237 -0.12611637 0.09645070
v -0.04119436 -0.12018370 0.12612103
v -0.02996307 -0.12763756 0.12470854
v -0.02819283 -0.12768230 0.12480709
v -0.02819283 -0.12661746 0.12629348
v -0.03115903 -0.12509626 0.12796054
v -0.04208836 -0.12842500 0.09645070
v -0.03927314 -0.13087680 0.09423343
v -0.03412522 -0.13158372 0.09348613
v -0.03709438 -0.13113630 0.09596618
v -0.02819283 -0.12513206 0.12796054
v -0.02522663 -0.12513206 0.12796054
v -0.01748847 -0.05013715 0.07469684
v -0.01775786 -0.05337640 0.08019894
v -0.01783186 -0.04750638 0.07119848
v -0.01806868 -0.06249463 0.09469331
v -0.01994550 -0.06776512 0.10462995
v -0.01981229 -0.04690685 0.07212645
v -0.02038066 -0.04430292 0.06860345
v -0.02081286 -0.08014048 0.12461000
v -0.02160918 -0.04198534 0.06581955
v -0.02217163 -0.04175268 0.06581955
v -0.02225747 -0.04389130 0.06923579
v -0.02225747 -0.04483982 0.07072218
v -0.02298274 -0.04143055 0.06581955
v -0.02324621 -0.04134107 0.06581955
v -0.02369617 -0.04120684 0.06581955
v -0.02522071 -0.04076838 0.06581955
v -0.01461996 -0.09923596 0.14107526
v -0.01497816 -0.09556719 0.13860342
v -0.01476206 -0.09754474 0.14016373
v -0.01483310 -0.08899921 0.12764026
v -0.01484494 -0.08312919 0.11864801
v -0.01488639 -0.09226531 0.13314237
v -0.01463476 -0.10247520 0.14104242
v -0.01725461 -0.12314556 0.12825618
v -0.01551693 -0.12018370 0.12612103
v -0.01674248 -0.07854770 0.11719447
v -0.01678985 -0.04593150 0.06672288
v -0.01517057 -0.08703955 0.12612103
v -0.01532155 -0.09061883 0.13211587
v -0.01599649 -0.05490655 0.07864686
v -0.01700002 -0.04949288 0.07270951
v -0.01726941 -0.04688001 0.06921936
v -0.02496021 -0.12680537 0.12591572
v -0.02225747 -0.12641165 0.12612103
v -0.01929128 -0.12562422 0.12612103
v -0.01762168 -0.12482782 0.12612103
v -0.01661223 -0.12314556 0.12612103
v -0.04405103 -0.10830943 0.06974494
v -0.04385269 -0.11128024 0.07270951
v -0.04316886 -0.12314556 0.09051335
v -0.04291132 -0.12611637 0.09348613
v -0.04405103 -0.10534758 0.06581955
v -0.04408063 -0.10534758 0.06677215
v -0.03412522 -0.13130632 0.09604831
v -0.02577132 -0.12767335 0.12479067
v -0.03115903 -0.13135106 0.09606473
v -0.03115903 -0.13168215 0.09348613
v -0.04203508 -0.12836236 0.09348613
v -0.03707958 -0.13109157 0.09333832
v -0.04018195 -0.12991040 0.09333832
v -0.03805647 -0.13043835 0.09225431
v -0.03607900 -0.13067995 0.09181907
v -0.03412522 -0.13084102 0.09157271
v -0.01744999 -0.04448189 0.06581955
v -0.01760392 -0.04431187 0.06581955
v -0.01840320 -0.04490245 0.06767549
v -0.01926167 -0.04321124 0.06581955
v -0.01453115 -0.09940597 0.13798752
v -0.01454892 -0.09644411 0.13502295
v -0.01455780 -0.09050251 0.12612103
v -0.01462588 -0.09334803 0.13211587
v -0.01469101 -0.09650676 0.13776579
v -0.01490119 -0.08639528 0.12414192
v -0.01463772 -0.08745117 0.12314825
v -0.01465253 -0.08156325 0.11418063
v -0.01474133 -0.05578347 0.07517314
v -0.01483902 -0.05639195 0.07715226
v -0.01536003 -0.11721290 0.12314825
v -0.01576263 -0.12018370 0.12314825
v -0.01553765 -0.11721290 0.12018368
v -0.01640501 -0.04602098 0.06581955
v -0.01687569 -0.04523354 0.06581955
v -0.01491007 -0.05380592 0.07362926
v -0.01515281 -0.06031126 0.08457600
v -0.01529787 -0.06389949 0.09060368
v -0.01542220 -0.05211471 0.07266845
v -0.01528603 -0.04798064 0.06581955
v -0.02602295 -0.13092155 0.09562949
v -0.01760392 -0.12485466 0.12417476
v -0.01703851 -0.12324399 0.12317288
v -0.04378460 -0.10830943 0.06677215
v -0.04342345 -0.11128024 0.06974494
v -0.04348266 -0.10839892 0.06581955
v -0.02819283 -0.13121684 0.09600725
v -0.03115903 -0.13089470 0.09148237
v -0.02895954 -0.13076049 0.09169589
v -0.02805962 -0.13119894 0.09327261
v -0.02602295 -0.13092155 0.09412667
v -0.04173017 -0.12784337 0.09158914
v -0.04100490 -0.12722594 0.08961001
v -0.04003393 -0.12839816 0.09057083
v -0.03707958 -0.12971354 0.09070222
v -0.03902448 -0.12782548 0.08869026
v -0.03831697 -0.12456833 0.08319637
v -0.03709438 -0.12812076 0.08823038
v -0.03633951 -0.12481887 0.08281040
v -0.03532414 -0.11569170 0.06831603
v -0.03486233 -0.12156173 0.07732471
v -0.03412522 -0.12744964 0.08630054
v -0.03288487 -0.12169595 0.07711120
v -0.01536595 -0.10237678 0.09941527
v -0.01536003 -0.09644411 0.09051335
v -0.01453411 -0.07271347 0.09645070
v -0.01452819 -0.06677187 0.08754877
v -0.01452819 -0.09347331 0.12908560
v -0.01452819 -0.08754065 0.12018368
v -0.01454004 -0.07567533 0.10238805
v -0.01454596 -0.06974267 0.09348613
v -0.01455484 -0.06381001 0.08457600
v -0.01462292 -0.06662870 0.09060368
v -0.01463180 -0.06073183 0.08163606
v -0.01489527 -0.05967594 0.08264615
v -0.01464660 -0.05484391 0.07266845
v -0.01475021 -0.04993134 0.06616446
v -0.01485086 -0.05053982 0.06814358
v -0.01539259 -0.11425104 0.11721089
v -0.01537779 -0.10830943 0.10830897
v -0.01571526 -0.11425104 0.11424633
v -0.02339718 -0.12822814 0.09348613
v -0.02263343 -0.12611637 0.09348613
v -0.01578335 -0.09347331 0.08161143
v -0.01573303 -0.08754065 0.07270951
v -0.01567086 -0.10830943 0.10535262
v -0.01562942 -0.10237678 0.09645070
v -0.01559093 -0.09644411 0.08754877
v -0.01551693 -0.08457879 0.06974494
v -0.01550213 -0.11128024 0.11128176
v -0.01505216 -0.04846384 0.06581955
v -0.01517353 -0.04895599 0.06700209
v -0.04247024 -0.11134288 0.06681322
v -0.04221270 -0.11363362 0.06974494
v -0.04230447 -0.11096705 0.06581955
v -0.03115903 -0.12994620 0.08999598
v -0.02805962 -0.12982987 0.09062831
v -0.02698208 -0.13049203 0.09214756
v -0.03013477 -0.12163331 0.07720974
v -0.02953383 -0.11577224 0.06820106
v -0.02511118 -0.12982987 0.09327261
v -0.04152887 -0.12461306 0.08608703
v -0.04181898 -0.11303408 0.06783152
v -0.04137198 -0.11562907 0.07137914
v -0.03856860 -0.11869830 0.07419590
v -0.03986224 -0.11338307 0.06681322
v -0.03918137 -0.11304304 0.06581955
v -0.03709438 -0.12716331 0.08674399
v -0.03709438 -0.11428684 0.06677215
v -0.03738449 -0.11976314 0.07537844
v -0.03658817 -0.11894885 0.07380993
v -0.03709438 -0.11366941 0.06581955
v -0.03579778 -0.11392890 0.06581955
v -0.03419331 -0.11423315 0.06581955
v -0.03424955 -0.11497585 0.06697746
v -0.03397425 -0.12241180 0.07844156
v -0.03412522 -0.12634007 0.08457600
v -0.03211224 -0.12169595 0.07711120
v -0.03334667 -0.11582593 0.06811073
v -0.03115903 -0.11435842 0.06581955
v -0.03115903 -0.11487742 0.06661612
v -0.01538371 -0.08160799 0.06677215
v -0.01535707 -0.09050251 0.08161143
v -0.01452819 -0.06083921 0.07864686
v -0.01453115 -0.05490655 0.06974494
v -0.01461700 -0.05169414 0.06700209
v -0.01463180 -0.05071879 0.06581955
v -0.01473837 -0.04979712 0.06581955
v -0.01546956 -0.10534758 0.10238805
v -0.01544292 -0.09940597 0.09348613
v -0.01541924 -0.09347331 0.08457600
v -0.01539852 -0.08754065 0.07567408
v -0.02363992 -0.12775388 0.09173695
v -0.02324621 -0.12610742 0.09065295
v -0.02258310 -0.12018370 0.08457600
v -0.02276664 -0.11128024 0.06974494
v -0.01589288 -0.08363029 0.06581955
v -0.01548140 -0.08160799 0.06581955
v -0.04074440 -0.11233613 0.06581955
v -0.03115903 -0.12645639 0.08457600
v -0.02792048 -0.12570475 0.08428857
v -0.02674822 -0.12462201 0.08311424
v -0.02829644 -0.11390206 0.06581955
v -0.02624793 -0.12787916 0.08859993
v -0.02524735 -0.12840710 0.09065295
v -0.02963448 -0.11411682 0.06581955
v -0.04072072 -0.11237192 0.06585240
v -0.04063783 -0.11238982 0.06581955
v -0.03808311 -0.11340991 0.06581955
v -0.03222473 -0.11432263 0.06581955
v -0.01537779 -0.08065948 0.06581955
v -0.01462292 -0.05403857 0.06581955
v -0.01460812 -0.05185521 0.06581955
v -0.02427046 -0.12709172 0.08975783
v -0.02385010 -0.12448780 0.08626769
v -0.02378794 -0.11862671 0.07725080
v -0.02373465 -0.11277459 0.06824212
v -0.02356592 -0.11601384 0.07372781
v -0.02360144 -0.12188386 0.08273649
v -0.02331133 -0.11663127 0.07567408
v -0.02319884 -0.12021055 0.08169355
v -0.02315444 -0.11431368 0.07272593
v -0.02326693 -0.11015277 0.06581955
v -0.02268375 -0.10834523 0.06581955
v -0.02248542 -0.10830943 0.06677215
v -0.04071184 -0.11235402 0.06581955
v -0.02660908 -0.11875199 0.07410557
v -0.02755637 -0.11549484 0.06861988
v -0.02609103 -0.11303408 0.06581955
v -0.02615616 -0.12200914 0.07959946
v -0.02417869 -0.12122170 0.08075736
v -0.02409285 -0.11534273 0.07174869
v -0.02465530 -0.11195136 0.06581955
v -0.02345343 -0.11063597 0.06581955
v -0.02607327 -0.11613911 0.07059900
v -0.02533912 -0.11247035 0.06581955
f 1 2 3
f 1 3 4
f 1 4 5
f 1 5 6
f 1 6 7
f 1 7 8
f 1 8 2
f 2 9 10
f 2 10 3
f 2 8 11
f 2 11 12
f 2 12 9
f 3 10 13
f 3 13 14
f 3 14 4
f 4 15 5
f 4 14 15
f 5 15 16
f 5 16 17
f 5 17 18
f 5 18 19
f 5 19 6
f 6 19 20
f 6 20 21
f 6 21 22
f 6 22 7
f 7 22 8
f 8 22 23
f 8 23 24
f 8 24 11
f 9 25 26
f 9 26 10
f 9 12 27
f 9 27 28
f 9 28 25
f 10 26 29
f 10 29 13
f 11 24 12
f 12 24 30
f 12 30 31
f 12 31 27
f 13 32 33
f 13 33 14
f 13 29 32
f 14 33 34
f 14 34 35
f 14 35 36
f 14 36 15
f 15 36 16
f 16 36 37
f 16 37 38
f 16 38 39
f 16 39 17
f 17 39 40
f 17 40 18
f 18 41 42
f 18 42 43
f 18 43 20
f 18 20 19
f 18 40 41
f 20 43 44
f 20 44 21
f 21 44 45
f 21 45 46
f 21 46 47
f 21 47 22
f 22 47 30
f 22 30 23
f 23 30 24
f 25 28 26
f 26 48 49
f 26 49 50
f 26 50 29
f 26 28 51
f 26 51 48
f 27 31 28
f 28 31 52
f 28 52 53
f 28 53 54
f 28 54 51
f 29 50 32
f 30 55 31
f 30 47 56
f 30 56 57
f 30 57 55
f 31 55 52
f 32 50 58
f 32 58 59
f 32 59 33
f 33 60 34
f 33 59 61
f 33 61 62
f 33 62 60
f 34 60 63
f 34 63 35
f 35 37 36
f 35 63 64
f 35 64 65
f 35 65 37
f 37 65 66
f 37 66 67
f 37 67 68
f 37 68 69
f 37 69 70
f 37 70 38
f 38 70 39
f 39 71 40
f 39 70 72
f 39 72 71
f 40 73 41
f 40 71 73
f 41 73 74
f 41 74 42
f 42 74 43
f 43 75 45
f 43 45 44
f 43 74 76
f 43 76 77
f 43 77 75
f 45 75 78
f 45 78 46
f 46 78 79
f 46 79 47
f 47 79 56
f 48 51 54
f 48 54 80
f 48 80 81
f 48 81 82
f 48 82 49
f 49 82 50
f 50 82 83
f 50 83 84
f 50 84 85
f 50 85 58
f 52 86 53
f 52 55 87
f 52 87 86
f 53 86 88
f 53 88 89
f 53 89 80
f 53 80 54
f 55 57 87
f 56 79 90
f 56 90 57
f 57 90 91
f 57 91 92
f 57 92 93
f 57 93 87
f 58 85 59
f 59 85 94
f 59 94 95
f 59 95 96
f 59 96 61
f 60 97 98
f 60 98 63
f 60 62 97
f 61 96 62
f 62 96 99
f 62 99 100
f 62 100 101
f 62 101 97
f 63 98 102
f 63 102 64
f 64 102 66
f 64 66 65
f 66 103 104
f 66 104 105
f 66 105 67
f 66 102 106
f 66 106 107
f 66 107 108
f 66 108 103
f 67 105 68
f 68 105 109
f 68 109 69
f 69 109 105
f 69 105 171
f 69 171 168
f 69 168 167
f 69 167 166
f 69 166 203
f 69 203 202
f 69 202 201
f 69 201 200
f 69 200 197
f 69 197 196
f 69 196 244
f 69 244 242
f 69 242 241
f 69 241 259
f 69 259 258
f 69 258 264
f 69 264 315
f 69 315 352
f 69 352 351
f 69 351 377
f 69 377 376
f 69 376 375
f 69 375 362
f 69 362 361
f 69 361 388
f 69 388 387
f 69 387 398
f 69 398 397
f 69 397 400
f 69 400 393
f 69 393 367
f 69 367 370
f 69 370 344
f 69 344 374
f 69 374 338
f 69 338 337
f 69 337 336
f 69 336 373
f 69 373 331
f 69 331 372
f 69 372 390
f 69 390 363
f 69 363 319
f 69 319 270
f 69 270 229
f 69 229 174
f 69 174 172
f 69 172 113
f 69 113 110
f 69 110 111
f 69 111 70
f 70 111 72
f 71 72 112
f 71 112 73
f 72 111 110
f 72 110 113
f 72 113 112
f 73 114 115
f 73 115 74
f 73 112 116
f 73 116 114
f 74 115 117
f 74 117 76
f 75 77 118
f 75 118 119
f 75 119 120
f 75 120 78
f 76 117 121
f 76 121 77
f 77 121 122
f 77 122 123
f 77 123 124
f 77 124 125
f 77 125 126
f 77 126 118
f 78 120 127
f 78 127 128
f 78 128 129
f 78 129 79
f 79 129 90
f 80 89 130
f 80 130 131
f 80 131 132
f 80 132 133
f 80 133 190
f 80 190 134
f 80 134 135
f 80 135 136
f 80 136 81
f 81 136 137
f 81 137 138
f 81 138 139
f 81 139 140
f 81 140 141
f 81 141 82
f 82 141 142
f 82 142 83
f 83 142 141
f 83 141 84
f 84 143 144
f 84 144 145
f 84 145 146
f 84 146 147
f 84 147 85
f 84 141 143
f 85 147 148
f 85 148 94
f 86 87 149
f 86 149 150
f 86 150 88
f 87 93 151
f 87 151 152
f 87 152 149
f 88 153 89
f 88 150 154
f 88 154 155
f 88 155 156
f 88 156 153
f 89 153 157
f 89 157 158
f 89 158 159
f 89 159 160
f 89 160 130
f 90 129 161
f 90 161 91
f 91 161 162
f 91 162 163
f 91 163 164
f 91 164 92
f 92 164 93
f 93 164 151
f 94 148 95
f 95 148 99
f 95 99 96
f 97 101 98
f 98 101 165
f 98 165 103
f 98 103 108
f 98 108 107
f 98 107 106
f 98 106 102
f 99 148 147
f 99 147 166
f 99 166 167
f 99 167 168
f 99 168 169
f 99 169 100
f 100 169 104
f 100 104 103
f 100 103 101
f 101 103 165
f 104 169 170
f 104 170 105
f 105 170 171
f 112 113 172
f 112 172 116
f 114 173 115
f 114 116 172
f 114 172 174
f 114 174 173
f 115 173 175
f 115 175 176
f 115 176 117
f 117 176 177
f 117 177 122
f 117 122 121
f 118 126 178
f 118 178 119
f 119 178 179
f 119 179 180
f 119 180 181
f 119 181 128
f 119 128 127
f 119 127 120
f 122 177 182
f 122 182 123
f 123 182 124
f 124 182 183
f 124 183 184
f 124 184 185
f 124 185 178
f 124 178 125
f 125 178 126
f 128 181 186
f 128 186 129
f 129 186 187
f 129 187 162
f 129 162 161
f 130 160 131
f 131 160 188
f 131 188 189
f 131 189 132
f 132 189 190
f 132 190 133
f 134 190 191
f 134 191 136
f 134 136 135
f 136 191 192
f 136 192 137
f 137 192 191
f 137 191 138
f 138 191 190
f 138 190 193
f 138 193 194
f 138 194 139
f 139 194 143
f 139 143 195
f 139 195 140
f 140 195 141
f 141 195 143
f 143 194 196
f 143 196 197
f 143 197 198
f 143 198 199
f 143 199 144
f 144 199 145
f 145 199 198
f 145 198 200
f 145 200 146
f 146 200 201
f 146 201 202
f 146 202 203
f 146 203 147
f 147 203 166
f 149 204 150
f 149 152 204
f 150 205 154
f 150 204 206
f 150 206 207
f 150 207 208
f 150 208 209
f 150 209 205
f 151 210 152
f 151 164 211
f 151 211 212
f 151 212 210
f 152 210 204
f 153 156 213
f 153 213 214
f 153 214 158
f 153 158 157
f 154 205 215
f 154 215 216
f 154 216 155
f 155 213 156
f 155 216 217
f 155 217 214
f 155 214 213
f 158 214 218
f 158 218 219
f 158 219 159
f 159 219 188
f 159 188 160
f 162 187 180
f 162 180 220
f 162 220 221
f 162 221 163
f 163 221 164
f 164 221 222
f 164 222 223
f 164 223 224
f 164 224 211
f 168 171 169
f 169 171 170
f 173 225 226
f 173 226 227
f 173 227 228
f 173 228 176
f 173 176 175
f 173 174 225
f 174 229 230
f 174 230 225
f 176 228 182
f 176 182 177
f 178 185 231
f 178 231 179
f 179 232 180
f 179 231 233
f 179 233 234
f 179 234 232
f 180 232 220
f 180 187 186
f 180 186 181
f 182 228 235
f 182 235 183
f 183 236 184
f 183 235 237
f 183 237 238
f 183 238 236
f 184 234 231
f 184 231 185
f 184 236 239
f 184 239 240
f 184 240 234
f 188 219 241
f 188 241 190
f 188 190 189
f 190 241 242
f 190 242 243
f 190 243 194
f 190 194 193
f 194 243 244
f 194 244 196
f 197 200 198
f 204 210 245
f 204 245 246
f 204 246 247
f 204 247 248
f 204 248 249
f 204 249 206
f 205 209 250
f 205 250 215
f 206 249 251
f 206 251 252
f 206 252 253
f 206 253 254
f 206 254 207
f 207 254 208
f 208 254 209
f 209 254 250
f 210 212 255
f 210 255 245
f 211 224 212
f 212 224 256
f 212 256 257
f 212 257 255
f 214 217 258
f 214 258 259
f 214 259 219
f 214 219 218
f 215 250 260
f 215 260 261
f 215 261 262
f 215 262 216
f 216 262 217
f 217 262 263
f 217 263 264
f 217 264 258
f 219 259 241
f 220 232 221
f 221 232 222
f 222 232 265
f 222 265 223
f 223 266 224
f 223 265 266
f 224 266 267
f 224 267 256
f 225 230 229
f 225 229 268
f 225 268 226
f 226 268 228
f 226 228 227
f 228 268 269
f 228 269 235
f 229 270 268
f 231 234 233
f 232 234 271
f 232 271 265
f 234 240 272
f 234 272 273
f 234 273 274
f 234 274 275
f 234 275 265
f 234 265 271
f 235 276 237
f 235 269 276
f 236 238 239
f 237 276 277
f 237 277 278
f 237 278 238
f 238 279 239
f 238 278 280
f 238 280 281
f 238 281 279
f 239 279 282
f 239 282 283
f 239 283 284
f 239 284 285
f 239 285 240
f 240 285 286
f 240 286 287
f 240 287 272
f 242 244 243
f 245 288 289
f 245 289 290
f 245 290 291
f 245 291 292
f 245 292 246
f 245 255 288
f 246 292 293
f 246 293 294
f 246 294 295
f 246 295 247
f 247 295 296
f 247 296 297
f 247 297 248
f 248 297 298
f 248 298 251
f 248 251 249
f 250 254 299
f 250 299 260
f 251 298 300
f 251 300 252
f 252 300 253
f 253 300 301
f 253 301 254
f 254 301 302
f 254 302 299
f 255 257 303
f 255 303 304
f 255 304 288
f 256 305 257
f 256 267 306
f 256 306 307
f 256 307 308
f 256 308 309
f 256 309 305
f 257 305 310
f 257 310 311
f 257 311 312
f 257 312 313
f 257 313 314
f 257 314 303
f 260 299 302
f 260 302 315
f 260 315 261
f 261 315 316
f 261 316 262
f 262 316 263
f 263 316 264
f 264 316 315
f 265 275 266
f 266 275 306
f 266 306 267
f 268 270 269
f 269 270 317
f 269 317 318
f 269 318 276
f 270 319 317
f 272 320 273
f 272 287 320
f 273 321 322
f 273 322 274
f 273 320 323
f 273 323 324
f 273 324 321
f 274 322 275
f 275 322 325
f 275 325 306
f 276 326 277
f 276 318 327
f 276 327 326
f 277 280 278
f 277 326 328
f 277 328 280
f 279 281 282
f 280 329 281
f 280 328 330
f 280 330 331
f 280 331 329
f 281 283 332
f 281 332 282
f 281 329 333
f 281 333 334
f 281 334 283
f 282 332 283
f 283 334 333
f 283 333 335
f 283 335 284
f 284 333 336
f 284 336 337
f 284 337 338
f 284 338 339
f 284 339 340
f 284 340 285
f 284 335 333
f 285 340 341
f 285 341 286
f 286 341 287
f 287 342 320
f 287 341 340
f 287 340 343
f 287 343 344
f 287 344 345
f 287 345 342
f 288 304 346
f 288 346 289
f 289 346 347
f 289 347 291
f 289 291 290
f 291 347 346
f 291 346 348
f 291 348 293
f 291 293 292
f 293 348 349
f 293 349 294
f 294 349 295
f 295 349 296
f 296 349 350
f 296 350 298
f 296 298 297
f 298 350 351
f 298 351 300
f 300 351 352
f 300 352 301
f 301 352 302
f 302 352 315
f 303 314 353
f 303 353 354
f 303 354 355
f 303 355 356
f 303 356 346
f 303 346 304
f 305 311 310
f 305 309 311
f 306 325 357
f 306 357 358
f 306 358 307
f 307 359 308
f 307 358 360
f 307 360 359
f 308 359 360
f 308 360 309
f 309 361 313
f 309 313 312
f 309 312 311
f 309 360 361
f 313 361 362
f 313 362 346
f 313 346 356
f 313 356 355
f 313 355 354
f 313 354 353
f 313 353 314
f 317 319 327
f 317 327 318
f 319 363 327
f 320 342 364
f 320 364 323
f 321 365 366
f 321 366 322
f 321 324 367
f 321 367 365
f 322 368 369
f 322 369 325
f 322 366 368
f 323 364 345
f 323 345 324
f 324 345 344
f 324 344 370
f 324 370 367
f 325 369 357
f 326 327 328
f 327 363 371
f 327 371 328
f 328 371 372
f 328 372 330
f 329 331 373
f 329 373 333
f 330 372 331
f 333 373 336
f 338 374 343
f 338 343 339
f 339 343 340
f 342 345 364
f 343 374 344
f 346 362 375
f 346 375 349
f 346 349 348
f 349 376 377
f 349 377 351
f 349 351 350
f 349 375 376
f 357 369 378
f 357 378 379
f 357 379 380
f 357 380 381
f 357 381 382
f 357 382 383
f 357 383 358
f 358 383 382
f 358 382 384
f 358 384 385
f 358 385 360
f 360 385 386
f 360 386 387
f 360 387 388
f 360 388 389
f 360 389 361
f 361 389 388
f 363 390 371
f 365 367 366
f 366 391 368
f 366 367 392
f 366 392 391
f 367 393 392
f 368 378 369
f 368 391 394
f 368 394 395
f 368 395 378
f 371 390 372
f 378 395 379
f 379 395 380
f 380 395 396
f 380 396 381
f 381 396 397
f 381 397 398
f 381 398 382
f 382 398 384
f 384 398 387
f 384 387 386
f 384 386 385
f 391 392 393
f 391 393 399
f 391 399 394
f 393 400 399
f 394 399 395
f 395 399 396
f 396 399 397
f 397 399 400

