# https://github.com/mikedh/trimesh
v 0.04896074 0.08246385 -0.07859761
v 0.04896074 0.08333789 -0.07977908
v 0.00264027 0.08246385 -0.07859761
v 0.05193040 0.08236222 -0.07859761
v 0.00264027 0.08333789 -0.07977908
v 0.05193040 0.08327691 -0.07985598
v 0.05124589 0.09203764 -0.09191537
v 0.05054593 0.11573839 -0.12462602
v 0.04896074 0.12703993 -0.14025079
v 0.00264027 -0.07531072 -0.07859761
v 0.05214142 0.08232156 -0.07859761
v 0.05351559 0.08317528 -0.08000279
v 0.05322738 0.09195634 -0.09202024
v 0.00264027 0.12703993 -0.14025079
v 0.05330458 0.13055644 -0.14542410
v 0.05193040 0.10183504 -0.10553374
v 0.05193040 0.12549513 -0.13827236
v 0.05132309 0.13061741 -0.14531923
v 0.04896074 0.13065805 -0.14527729
v 0.00264027 0.13000761 -0.14436846
v 0.00264027 -0.07531072 -0.07864654
v 0.00267629 -0.07533105 -0.07859761
v 0.05400967 0.08138654 -0.07859761
v 0.05387586 0.08656981 -0.08532290
v 0.05367514 0.08927323 -0.08867157
v 0.05357735 0.09807462 -0.10069600
v 0.05352589 0.12175505 -0.13339967
v 0.05346412 0.10685569 -0.11271345
v 0.05368029 0.12785300 -0.14207543
v 0.05406114 0.12852378 -0.14392104
v 0.05385528 0.13102393 -0.14740254
v 0.05216200 0.13120688 -0.14660557
v 0.04896074 0.13149144 -0.14689220
v 0.00264027 0.13098328 -0.14590647
v 0.00264027 0.13065805 -0.14527729
v 0.00264027 -0.07055431 -0.14689220
v 0.00445706 -0.07616444 -0.07859761
v 0.05406629 0.08128491 -0.07859761
v 0.05420525 0.08754548 -0.08762992
v 0.05391189 0.10146915 -0.10601612
v 0.05384498 0.11027054 -0.11803356
v 0.05380381 0.09537120 -0.09734734
v 0.05372146 0.10417259 -0.10936478
v 0.05388101 0.12516990 -0.13872677
v 0.05435451 0.12937749 -0.14660557
v 0.05421040 0.12614557 -0.14103378
v 0.05496182 0.12610492 -0.14392104
v 0.05385528 0.13102393 -0.14879374
v 0.05193040 0.13130851 -0.14908036
v 0.04896074 0.13138983 -0.14915028
v 0.00264027 0.13149144 -0.14689220
v 0.04896074 -0.07055431 -0.14689220
v 0.00264027 -0.06933472 -0.14919222
v 0.03412275 -0.07610345 -0.07864654
v 0.03416392 -0.07610345 -0.07859761
v 0.05502873 0.07858148 -0.07859761
v 0.05502873 0.07862213 -0.07864654
v 0.05482286 0.08158981 -0.08161071
v 0.05439568 0.08474042 -0.08443505
v 0.05433392 0.09358246 -0.09639657
v 0.05425672 0.10242450 -0.10835808
v 0.05430304 0.11730353 -0.12907227
v 0.05393762 0.11636851 -0.12670234
v 0.05510078 0.12610492 -0.14689220
v 0.05482800 0.12016956 -0.13502156
v 0.05511622 0.12313724 -0.14095688
v 0.05492064 0.11126655 -0.12315093
v 0.05496182 0.08752516 -0.09051718
v 0.05499784 0.10236353 -0.11128729
v 0.05502873 0.11720190 -0.13205041
v 0.05413835 0.12907259 -0.14905940
v 0.05193040 0.12907259 -0.14984237
v 0.04896074 0.12907259 -0.14995423
v 0.04599623 0.12907259 -0.14996821
v 0.00264027 0.13049545 -0.14947186
v 0.00264027 0.13138983 -0.14915028
v 0.04896074 -0.06933472 -0.14919222
v 0.05193040 -0.06929406 -0.14916425
v 0.05193040 -0.07049333 -0.14689220
v 0.00264027 -0.06776957 -0.14968858
v 0.03709241 -0.07551398 -0.07864654
v 0.03708726 -0.07551398 -0.07859761
v 0.05193040 -0.07061529 -0.14392104
v 0.05521916 0.07862213 -0.08161071
v 0.05519342 0.08158981 -0.08458186
v 0.05521916 0.07561381 -0.07859761
v 0.05511107 0.08455748 -0.08754602
v 0.05505961 0.09346050 -0.09941666
v 0.05487433 0.09642818 -0.10238082
v 0.05477139 0.10533119 -0.11425146
v 0.05420010 0.12610492 -0.14910832
v 0.05521916 0.12313724 -0.14392104
v 0.05512137 -0.02223813 -0.14689220
v 0.05422069 -0.02223813 -0.14914329
v 0.05516254 0.11423422 -0.12908624
v 0.05519342 0.12016956 -0.13798573
v 0.05193040 0.12610492 -0.14991230
v 0.04896074 0.12610492 -0.14999617
v 0.00264027 0.12907259 -0.14996821
v 0.04599623 0.12610492 -0.15001016
v 0.04896074 -0.06675325 -0.15001016
v 0.05193040 -0.06675325 -0.14996122
v 0.05395306 -0.06892818 -0.14888462
v 0.05426701 -0.06933472 -0.14689220
v 0.00264027 -0.06675325 -0.15001016
v 0.05193040 -0.07061529 -0.09348134
v 0.05406114 -0.06898916 -0.09051718
v 0.03712329 -0.07549365 -0.07859761
v 0.05431333 -0.06937537 -0.14392104
v 0.05521401 0.08752516 -0.09348134
v 0.05521916 0.10236353 -0.11425146
v 0.05520371 0.09642818 -0.10535198
v 0.05518313 0.10533119 -0.11721562
v 0.05517284 0.09049282 -0.09645250
v 0.05521916 -0.04894720 -0.07859761
v 0.05193040 0.12313724 -0.14992627
v 0.05521916 0.11720190 -0.13502156
v 0.05521916 -0.06675325 -0.14392104
v 0.05512137 -0.06675325 -0.14689220
v 0.05422069 -0.06675325 -0.14914329
v 0.05193040 -0.02223813 -0.14996122
v 0.05520886 0.11126655 -0.12611510
v 0.04896074 0.12313724 -0.15001016
v 0.00264027 0.12610492 -0.15001016
v 0.05431333 -0.06937537 -0.09348134
v 0.05496182 -0.06675325 -0.09051718
v 0.05415378 -0.06669227 -0.08767186
v 0.05367514 -0.06850133 -0.08874148
v 0.03878568 -0.07445701 -0.07859761
v 0.05521401 -0.05191488 -0.07859761
v 0.05521916 -0.05488255 -0.08161071
v 0.05521916 -0.06675325 -0.09348134
v 0.05504417 -0.06378557 -0.08754602
v 0.05446259 -0.05803316 -0.07859761
v 0.05436994 -0.06093986 -0.08153381
v 0.05427216 -0.06380590 -0.08460283
v 0.05394792 -0.06000484 -0.07934565
v 0.05387586 -0.06283023 -0.08247759
v 0.05378322 -0.06565561 -0.08560953
v 0.05436480 -0.05831773 -0.07859761
v 0.05518313 -0.05488255 -0.07859761
v 0.05518827 -0.05488255 -0.07864654
v 0.05511107 -0.06081790 -0.08458186
v 0.05516769 -0.05785022 -0.08161071
f 1 2 5
f 1 5 3
f 1 3 10
f 1 10 22
f 1 22 37
f 1 37 55
f 1 55 82
f 1 82 108
f 1 108 129
f 1 129 140
f 1 140 134
f 1 134 141
f 1 141 130
f 1 130 115
f 1 115 86
f 1 86 56
f 1 56 38
f 1 38 23
f 1 23 11
f 1 11 4
f 1 4 2
f 2 4 6
f 2 6 7
f 2 7 8
f 2 8 9
f 2 9 14
f 2 14 5
f 3 5 14
f 3 14 20
f 3 20 35
f 3 35 34
f 3 34 51
f 3 51 76
f 3 76 75
f 3 75 99
f 3 99 124
f 3 124 105
f 3 105 80
f 3 80 53
f 3 53 36
f 3 36 21
f 3 21 10
f 4 11 12
f 4 12 13
f 4 13 6
f 6 13 15
f 6 15 16
f 6 16 8
f 6 8 7
f 8 16 17
f 8 17 18
f 8 18 9
f 9 18 19
f 9 19 20
f 9 20 14
f 10 21 22
f 11 23 12
f 12 23 24
f 12 24 25
f 12 25 26
f 12 26 27
f 12 27 28
f 12 28 13
f 13 28 15
f 15 28 27
f 15 27 29
f 15 29 30
f 15 30 31
f 15 31 32
f 15 32 18
f 15 18 17
f 15 17 16
f 18 32 33
f 18 33 19
f 19 33 34
f 19 34 35
f 19 35 20
f 21 36 22
f 22 36 37
f 23 38 24
f 24 39 40
f 24 40 44
f 24 44 41
f 24 41 42
f 24 42 25
f 24 38 39
f 25 42 43
f 25 43 26
f 26 43 29
f 26 29 27
f 29 44 30
f 29 43 44
f 30 45 31
f 30 44 46
f 30 46 47
f 30 47 45
f 31 48 49
f 31 49 32
f 31 45 48
f 32 49 33
f 33 50 76
f 33 76 51
f 33 51 34
f 33 49 50
f 36 52 37
f 36 53 77
f 36 77 52
f 37 52 54
f 37 54 55
f 38 56 57
f 38 57 58
f 38 58 59
f 38 59 39
f 39 59 60
f 39 60 61
f 39 61 40
f 40 61 62
f 40 62 63
f 40 63 44
f 41 44 43
f 41 43 42
f 44 63 46
f 45 47 64
f 45 64 48
f 46 63 62
f 46 62 65
f 46 65 47
f 47 66 64
f 47 65 67
f 47 67 68
f 47 68 69
f 47 69 70
f 47 70 66
f 48 64 71
f 48 71 72
f 48 72 49
f 49 72 73
f 49 73 50
f 50 73 74
f 50 74 75
f 50 75 76
f 52 77 78
f 52 78 79
f 52 79 54
f 53 80 77
f 54 79 55
f 55 81 82
f 55 79 83
f 55 83 81
f 56 84 85
f 56 85 57
f 56 86 84
f 57 85 87
f 57 87 88
f 57 88 70
f 57 70 69
f 57 69 68
f 57 68 58
f 58 68 89
f 58 89 65
f 58 65 90
f 58 90 62
f 58 62 60
f 58 60 59
f 60 62 61
f 62 90 65
f 64 91 71
f 64 66 92
f 64 92 93
f 64 93 94
f 64 94 91
f 65 89 67
f 66 95 96
f 66 96 92
f 66 70 88
f 66 88 87
f 66 87 95
f 67 89 68
f 71 91 72
f 72 91 97
f 72 97 73
f 73 97 98
f 73 98 100
f 73 100 74
f 74 99 75
f 74 100 124
f 74 124 99
f 77 80 101
f 77 101 78
f 78 101 102
f 78 102 103
f 78 103 79
f 79 103 104
f 79 104 83
f 80 105 101
f 81 83 106
f 81 106 82
f 82 106 107
f 82 107 108
f 83 104 109
f 83 109 125
f 83 125 106
f 84 110 85
f 84 86 115
f 84 115 131
f 84 131 132
f 84 132 118
f 84 118 92
f 84 92 117
f 84 117 111
f 84 111 110
f 85 110 112
f 85 112 96
f 85 96 113
f 85 113 95
f 85 95 114
f 85 114 87
f 87 114 95
f 91 116 97
f 91 94 116
f 92 96 117
f 92 118 119
f 92 119 93
f 93 119 120
f 93 120 94
f 94 120 102
f 94 102 121
f 94 121 116
f 95 113 96
f 96 112 122
f 96 122 117
f 97 116 123
f 97 123 98
f 98 123 100
f 100 123 101
f 100 101 105
f 100 105 124
f 101 123 121
f 101 121 102
f 102 120 103
f 103 120 119
f 103 119 104
f 104 119 118
f 104 118 109
f 106 125 107
f 107 125 126
f 107 126 127
f 107 127 128
f 107 128 129
f 107 129 108
f 109 118 132
f 109 132 125
f 110 111 122
f 110 122 112
f 111 117 122
f 115 130 131
f 116 121 123
f 125 132 126
f 126 132 133
f 126 133 134
f 126 134 135
f 126 135 136
f 126 136 127
f 127 136 137
f 127 137 138
f 127 138 139
f 127 139 128
f 128 139 138
f 128 138 129
f 129 138 137
f 129 137 140
f 130 141 142
f 130 142 131
f 131 142 132
f 132 143 133
f 132 142 144
f 132 144 143
f 133 143 134
f 134 140 135
f 134 143 144
f 134 144 141
f 135 140 137
f 135 137 136
f 141 144 142

