# https://github.com/mikedh/trimesh
v 0.00264027 -0.01109865 0.05092426
v 0.00264027 -0.03183510 0.05092426
v 0.00264027 -0.01386897 0.05475818
v 0.04599623 -0.01386897 0.05475818
v 0.04896074 -0.01131443 0.05122086
v 0.04896074 -0.01110114 0.05092426
v 0.01586734 -0.03643576 0.05092426
v 0.01650038 -0.03643576 0.05193742
v 0.01774589 -0.03643576 0.05376952
v 0.01904286 -0.03643576 0.05509065
v 0.01915609 -0.03643576 0.05519914
v 0.02075672 -0.03643576 0.05653340
v 0.02214119 -0.03643576 0.05751944
v 0.02235735 -0.03643576 0.05765593
v 0.02521893 -0.03643576 0.05906281
v 0.00264027 -0.02702363 0.05359191
v 0.00264027 -0.01496023 0.05624118
v 0.03115824 -0.01496023 0.05624118
v 0.04896074 -0.01496023 0.05624030
v 0.04896074 -0.01386897 0.05475730
v 0.05193040 -0.01392601 0.05468206
v 0.04937248 -0.01111602 0.05092426
v 0.04855415 -0.03643576 0.05092426
v 0.02819373 -0.03643576 0.05973212
v 0.00264027 -0.01929055 0.05765855
v 0.00264027 -0.02136395 0.05670401
v 0.00264027 -0.02284707 0.05589733
v 0.00264027 -0.02522305 0.05458932
v 0.00264027 -0.01644336 0.05733833
v 0.04896074 -0.01644336 0.05733833
v 0.05193040 -0.01651528 0.05726921
v 0.05193040 -0.01503216 0.05616506
v 0.05363911 -0.01160956 0.05092426
v 0.05193040 -0.01121522 0.05092426
v 0.05388101 -0.03056279 0.05092426
v 0.05388101 -0.03055783 0.05093739
v 0.04834828 -0.03643576 0.05125498
v 0.02982524 -0.03643576 0.05980562
v 0.03115824 -0.03643576 0.05986161
v 0.04896074 -0.01929055 0.05763930
v 0.05193040 -0.01929055 0.05752381
v 0.05395306 -0.01699395 0.05692799
v 0.05390159 -0.01426827 0.05420960
v 0.05374205 -0.01168893 0.05092426
v 0.05388615 -0.03054295 0.05092426
v 0.05443685 -0.02802809 0.05092426
v 0.05476110 -0.02522305 0.05193305
v 0.05420525 -0.02212783 0.05496116
v 0.05385528 -0.02522305 0.05389901
v 0.05359794 -0.02105393 0.05653428
v 0.05347442 -0.02679298 0.05346417
v 0.04321701 -0.03643576 0.05710298
v 0.04473529 -0.03643576 0.05544762
v 0.04597565 -0.03643576 0.05408711
v 0.03277946 -0.03643576 0.05976712
v 0.05395821 -0.01929055 0.05690524
v 0.03412275 -0.03643576 0.05968400
v 0.03609395 -0.03643576 0.05939178
v 0.03715417 -0.03643576 0.05923342
v 0.03973782 -0.03643576 0.05866996
v 0.04005692 -0.03643576 0.05859910
v 0.05485889 -0.01929055 0.05489992
v 0.05439053 -0.01613086 0.05507927
v 0.05424128 -0.01331094 0.05188231
v 0.05415893 -0.01247017 0.05092426
v 0.05491550 -0.02522305 0.05092426
v 0.05516254 -0.02225680 0.05193305
v 0.04269719 -0.03643576 0.05744769
v 0.05521916 -0.01929055 0.05193305
v 0.05513166 -0.01632183 0.05193305
v 0.05448317 -0.01332582 0.05092426
v 0.05508019 -0.01531489 0.05092426
v 0.05518313 -0.02225680 0.05092426
v 0.05521916 -0.01929055 0.05092426
v 0.05521916 -0.01828114 0.05092426
v 0.05515739 -0.01632183 0.05092426
f 1 2 16
f 1 16 28
f 1 28 27
f 1 27 26
f 1 26 25
f 1 25 29
f 1 29 17
f 1 17 3
f 1 3 4
f 1 4 5
f 1 5 6
f 1 6 22
f 1 22 34
f 1 34 33
f 1 33 44
f 1 44 65
f 1 65 71
f 1 71 72
f 1 72 76
f 1 76 75
f 1 75 74
f 1 74 73
f 1 73 66
f 1 66 46
f 1 46 45
f 1 45 35
f 1 35 23
f 1 23 7
f 1 7 2
f 2 7 8
f 2 8 9
f 2 9 10
f 2 10 11
f 2 11 12
f 2 12 13
f 2 13 14
f 2 14 15
f 2 15 16
f 3 17 18
f 3 18 4
f 4 18 19
f 4 19 20
f 4 20 5
f 5 20 21
f 5 21 22
f 5 22 6
f 7 23 37
f 7 37 54
f 7 54 53
f 7 53 52
f 7 52 68
f 7 68 61
f 7 61 60
f 7 60 59
f 7 59 58
f 7 58 57
f 7 57 55
f 7 55 39
f 7 39 38
f 7 38 24
f 7 24 15
f 7 15 14
f 7 14 13
f 7 13 12
f 7 12 11
f 7 11 10
f 7 10 9
f 7 9 8
f 15 24 25
f 15 25 26
f 15 26 27
f 15 27 28
f 15 28 16
f 17 29 30
f 17 30 18
f 18 30 19
f 19 30 31
f 19 31 32
f 19 32 21
f 19 21 20
f 21 33 34
f 21 34 22
f 21 32 33
f 23 35 36
f 23 36 37
f 24 38 25
f 25 38 39
f 25 39 29
f 29 39 30
f 30 39 40
f 30 40 31
f 31 41 42
f 31 42 32
f 31 40 41
f 32 42 43
f 32 43 33
f 33 43 44
f 35 45 36
f 36 45 46
f 36 46 47
f 36 47 48
f 36 48 49
f 36 49 50
f 36 50 51
f 36 51 52
f 36 52 53
f 36 53 54
f 36 54 37
f 39 55 41
f 39 41 40
f 41 56 42
f 41 55 57
f 41 57 58
f 41 58 59
f 41 59 60
f 41 60 61
f 41 61 56
f 42 56 62
f 42 62 63
f 42 63 43
f 43 63 64
f 43 64 65
f 43 65 44
f 46 66 47
f 47 66 67
f 47 67 62
f 47 62 48
f 48 56 49
f 48 62 56
f 49 56 50
f 50 56 68
f 50 68 52
f 50 52 51
f 56 61 68
f 62 67 69
f 62 69 70
f 62 70 63
f 63 71 64
f 63 70 72
f 63 72 71
f 64 71 65
f 66 73 67
f 67 73 69
f 69 74 75
f 69 75 70
f 69 73 74
f 70 76 72
f 70 75 76

