# https://github.com/mikedh/trimesh
v -0.05521916 -0.02800773 0.04618519
v -0.05520783 -0.03097373 0.04618519
v -0.05521916 -0.02522971 0.04896621
v -0.05521916 -0.01633171 0.04618519
v -0.05511721 -0.02819571 0.04896621
v -0.05516252 -0.02226371 0.05193366
v -0.05502093 -0.03397106 0.04618519
v -0.05521916 -0.01929771 0.05193366
v -0.05521916 -0.01633171 0.04896621
v -0.05520217 -0.01335526 0.04618519
v -0.04405052 -0.10534308 0.06581955
v -0.05485668 -0.01929771 0.05490111
v -0.04326328 -0.09346862 0.04618519
v -0.04322363 -0.09644507 0.04896621
v -0.04367106 -0.10237707 0.05786664
v -0.04398256 -0.10534308 0.06380153
v -0.05512854 -0.01633171 0.05193366
v -0.05498695 -0.01335526 0.04896621
v -0.05469810 -0.01039971 0.04618519
v -0.04348416 -0.10839262 0.06581955
v -0.04476413 -0.04896816 0.06581955
v -0.05395617 -0.01929771 0.05690375
v -0.05395051 -0.01700010 0.05692681
v -0.05438661 -0.01613328 0.05507985
v -0.04252701 -0.09666439 0.04618519
v -0.04313302 -0.09941107 0.05193366
v -0.04350115 -0.10534308 0.06083408
v -0.05396750 -0.01051459 0.04868945
v -0.05379759 -0.00841541 0.04618519
v -0.05423935 -0.01331349 0.05188177
v -0.04274789 -0.10861193 0.06350555
v -0.04230046 -0.11096176 0.06581955
v -0.04471316 -0.04600216 0.06581955
v -0.05192860 -0.01651970 0.05726892
v -0.05192860 -0.01503670 0.05616573
v -0.05389954 -0.01427431 0.05421114
v -0.04393725 -0.04393432 0.06581955
v -0.04309337 -0.04296306 0.06581955
v -0.04214755 -0.09769831 0.04618519
v -0.04291780 -0.10237707 0.05490111
v -0.04248170 -0.10542662 0.05785895
v -0.04227781 -0.10780778 0.06083408
v -0.05211550 -0.00780968 0.04618519
v -0.05370697 -0.01157984 0.05085931
v -0.05344078 -0.00888538 0.04751516
v -0.04204560 -0.11038736 0.06429546
v -0.04070899 -0.11236121 0.06581955
v -0.04896087 -0.01644659 0.05733810
v -0.04896087 -0.01496359 0.05624069
v -0.04212489 -0.04211712 0.06581955
v -0.04006334 -0.04118764 0.06581955
v -0.03713525 -0.04067589 0.06581955
v -0.03650093 -0.04061323 0.06581955
v -0.03412222 -0.04038348 0.06581955
v -0.05192860 -0.01392967 0.05468393
v -0.04099783 -0.09905599 0.04618519
v -0.04192100 -0.09852336 0.04655997
v -0.04192100 -0.10435092 0.05490111
v -0.04185870 -0.10714982 0.05884297
v -0.05192860 -0.00779923 0.04618519
v -0.05192860 -0.00881227 0.04760742
v -0.04154154 -0.10979208 0.06231781
v -0.03917982 -0.11304005 0.06581955
v 0.00263460 -0.01644659 0.05733810
v -0.03115448 -0.04026859 0.06581955
v 0.00263460 -0.01496359 0.05624069
v 0.00263460 -0.01453540 0.05566411
v -0.04896087 -0.01387745 0.05475889
v -0.04896087 -0.00767391 0.04618519
v -0.04034652 -0.09964083 0.04618519
v -0.04096952 -0.10050766 0.04802447
v -0.04156420 -0.10388096 0.05338856
v -0.04177375 -0.10117605 0.05000213
v -0.03889664 -0.10696184 0.05617726
v -0.03873805 -0.11283119 0.06518339
v -0.03899292 -0.10109250 0.04717306
v -0.03808108 -0.11340559 0.06581955
v -0.02818675 -0.04033125 0.06581955
v -0.02747880 -0.04043569 0.06581955
v -0.02521902 -0.04076989 0.06581955
v -0.02369551 -0.04120852 0.06581955
v -0.02324809 -0.04134429 0.06581955
v -0.02298190 -0.04142784 0.06581955
v -0.02161130 -0.04199180 0.06581955
v -0.01926091 -0.04321371 0.06581955
v -0.01760147 -0.04431029 0.06581955
v -0.01745422 -0.04447739 0.06581955
v -0.01687653 -0.04522933 0.06581955
v -0.01640645 -0.04601261 0.06581955
v -0.01528505 -0.04797602 0.06581955
v -0.01505285 -0.04845643 0.06581955
v 0.00263460 -0.01818024 0.05753414
v 0.00263460 -0.01329260 0.05395744
v 0.00263460 -0.00876005 0.04768429
v 0.00263460 -0.00768435 0.04618519
v -0.03994441 -0.09987060 0.04618519
v -0.03794515 -0.10370342 0.05068633
v -0.03768463 -0.10957276 0.05969054
v -0.03708995 -0.11208969 0.06336333
v -0.03708995 -0.11366668 0.06581955
v -0.03708995 -0.10100895 0.04618519
v -0.01473568 -0.04979321 0.06581955
v 0.00263460 -0.01929771 0.05765907
v 0.00263460 -0.04039392 0.04618519
v -0.03570803 -0.10982341 0.05931192
v -0.03685207 -0.11046047 0.06074183
v -0.03579298 -0.11392776 0.06581955
v -0.03412222 -0.10158335 0.04618519
v -0.03596289 -0.10394362 0.05031732
v -0.01463374 -0.05071226 0.06581955
v 0.00263460 -0.02136556 0.05670387
v -0.01461108 -0.05185062 0.06581955
v -0.01462808 -0.05404379 0.06581955
v -0.01538133 -0.08065424 0.06581955
v -0.01548328 -0.08160462 0.06581955
v -0.01589672 -0.08362024 0.06581955
v -0.02345198 -0.11063801 0.06581955
v -0.02353693 -0.11014716 0.06472405
v -0.02350861 -0.10426738 0.05572946
v -0.02348596 -0.09838760 0.04673294
v -0.02359357 -0.09821004 0.04618519
v 0.00263460 -0.03267605 0.05046339
v -0.02268739 -0.10834041 0.06581955
v -0.02327074 -0.11014716 0.06581955
v -0.03412222 -0.10529086 0.05193366
v -0.03412222 -0.11333248 0.06440309
v -0.03419584 -0.11423063 0.06581955
v -0.03118846 -0.10170868 0.04618519
v -0.03115448 -0.10416293 0.04998483
v 0.00263460 -0.02227415 0.05621186
v 0.00263460 -0.02522971 0.05458976
v 0.00263460 -0.02284856 0.05589858
v -0.02465832 -0.11194348 0.06581955
v -0.02401834 -0.10947876 0.06274639
v -0.02369551 -0.10689918 0.05923312
v -0.02365587 -0.10101940 0.05023084
v -0.02430718 -0.10036144 0.04825126
v -0.02499814 -0.09954683 0.04618519
v -0.03115448 -0.11436640 0.06581955
v -0.03115448 -0.10170868 0.04618519
v -0.03115448 -0.10171912 0.04620057
v -0.02928549 -0.10989651 0.05918892
v -0.02534362 -0.11246565 0.06581955
v -0.02649333 -0.11288340 0.06509883
v -0.02525867 -0.11119152 0.06392261
v -0.02599494 -0.11026203 0.06158555
v -0.02394471 -0.10360942 0.05375180
v -0.02535495 -0.09982882 0.04618519
v -0.02510009 -0.09963039 0.04618519
v -0.02628944 -0.10114472 0.04709426
v -0.02828870 -0.11389643 0.06581955
v -0.02818675 -0.10121782 0.04618519
v -0.02904196 -0.10402717 0.05018471
v -0.02818675 -0.11314449 0.06469138
v -0.02818675 -0.10635611 0.05415348
v -0.02609122 -0.11302961 0.06581955
v -0.02730323 -0.10962498 0.05960789
v -0.02706536 -0.10375563 0.05060561
v -0.02638573 -0.10701406 0.05609462
v -0.02715031 -0.10085230 0.04618519
f 1 2 3
f 1 3 8
f 1 8 9
f 1 9 4
f 1 4 10
f 1 10 19
f 1 19 29
f 1 29 43
f 1 43 60
f 1 60 69
f 1 69 95
f 1 95 104
f 1 104 121
f 1 121 138
f 1 138 149
f 1 149 148
f 1 148 160
f 1 160 152
f 1 152 140
f 1 140 128
f 1 128 108
f 1 108 101
f 1 101 96
f 1 96 70
f 1 70 56
f 1 56 39
f 1 39 25
f 1 25 13
f 1 13 7
f 1 7 2
f 2 5 6
f 2 6 3
f 2 7 5
f 3 6 8
f 4 9 10
f 5 7 11
f 5 11 6
f 6 12 8
f 6 11 12
f 7 13 14
f 7 14 15
f 7 15 16
f 7 16 11
f 8 12 17
f 8 17 9
f 9 17 10
f 10 17 18
f 10 18 19
f 11 16 20
f 11 20 32
f 11 32 47
f 11 47 63
f 11 63 77
f 11 77 100
f 11 100 107
f 11 107 127
f 11 127 139
f 11 139 151
f 11 151 156
f 11 156 143
f 11 143 133
f 11 133 117
f 11 117 124
f 11 124 123
f 11 123 116
f 11 116 115
f 11 115 114
f 11 114 113
f 11 113 112
f 11 112 110
f 11 110 102
f 11 102 91
f 11 91 90
f 11 90 89
f 11 89 88
f 11 88 87
f 11 87 86
f 11 86 85
f 11 85 84
f 11 84 83
f 11 83 82
f 11 82 81
f 11 81 80
f 11 80 79
f 11 79 78
f 11 78 65
f 11 65 54
f 11 54 53
f 11 53 52
f 11 52 51
f 11 51 50
f 11 50 38
f 11 38 37
f 11 37 33
f 11 33 21
f 11 21 22
f 11 22 12
f 12 22 23
f 12 23 24
f 12 24 17
f 13 25 14
f 14 25 26
f 14 26 15
f 15 26 27
f 15 27 16
f 16 27 20
f 17 24 18
f 18 24 19
f 19 28 29
f 19 24 30
f 19 30 28
f 20 27 31
f 20 31 32
f 21 33 23
f 21 23 22
f 23 34 35
f 23 35 36
f 23 36 24
f 23 33 37
f 23 37 38
f 23 38 34
f 24 36 30
f 25 39 40
f 25 40 27
f 25 27 26
f 27 41 42
f 27 42 31
f 27 40 41
f 28 30 36
f 28 36 29
f 29 36 44
f 29 44 45
f 29 45 43
f 31 42 32
f 32 46 47
f 32 42 46
f 34 48 49
f 34 49 35
f 34 38 50
f 34 50 51
f 34 51 52
f 34 52 53
f 34 53 54
f 34 54 48
f 35 49 55
f 35 55 45
f 35 45 44
f 35 44 36
f 39 56 57
f 39 57 40
f 40 57 41
f 41 57 58
f 41 58 42
f 42 58 59
f 42 59 46
f 43 45 61
f 43 61 60
f 45 55 61
f 46 62 47
f 46 59 62
f 47 62 63
f 48 64 66
f 48 66 49
f 48 54 65
f 48 65 64
f 49 66 67
f 49 67 68
f 49 68 55
f 55 68 69
f 55 69 61
f 56 70 57
f 57 70 71
f 57 71 72
f 57 72 73
f 57 73 58
f 58 72 59
f 58 73 72
f 59 72 62
f 60 61 69
f 62 74 75
f 62 75 63
f 62 72 76
f 62 76 74
f 63 75 77
f 64 65 78
f 64 78 79
f 64 79 80
f 64 80 81
f 64 81 82
f 64 82 83
f 64 83 84
f 64 84 85
f 64 85 86
f 64 86 87
f 64 87 88
f 64 88 89
f 64 89 90
f 64 90 91
f 64 91 92
f 64 92 103
f 64 103 111
f 64 111 130
f 64 130 132
f 64 132 131
f 64 131 122
f 64 122 104
f 64 104 95
f 64 95 94
f 64 94 93
f 64 93 67
f 64 67 66
f 67 93 68
f 68 93 69
f 69 94 95
f 69 93 94
f 70 96 76
f 70 76 72
f 70 72 71
f 74 76 97
f 74 97 75
f 75 98 99
f 75 99 100
f 75 100 77
f 75 97 98
f 76 96 101
f 76 101 97
f 91 102 103
f 91 103 92
f 97 101 105
f 97 105 106
f 97 106 98
f 98 106 99
f 99 106 105
f 99 105 100
f 100 105 107
f 101 108 109
f 101 109 105
f 102 110 103
f 103 110 112
f 103 112 113
f 103 113 114
f 103 114 115
f 103 115 116
f 103 116 111
f 104 117 118
f 104 118 119
f 104 119 120
f 104 120 121
f 104 122 116
f 104 116 123
f 104 123 124
f 104 124 117
f 105 109 108
f 105 108 125
f 105 125 126
f 105 126 127
f 105 127 107
f 108 128 129
f 108 129 125
f 111 116 130
f 116 122 131
f 116 131 132
f 116 132 130
f 117 133 118
f 118 133 134
f 118 134 135
f 118 135 136
f 118 136 119
f 119 136 120
f 120 136 121
f 121 136 137
f 121 137 138
f 125 129 126
f 126 139 127
f 126 129 139
f 128 140 141
f 128 141 129
f 129 142 139
f 129 141 142
f 133 143 144
f 133 144 145
f 133 145 134
f 134 145 146
f 134 146 137
f 134 137 147
f 134 147 135
f 135 147 136
f 136 147 137
f 137 148 149
f 137 149 138
f 137 146 150
f 137 150 148
f 139 142 151
f 140 152 141
f 141 152 153
f 141 153 142
f 142 154 151
f 142 153 155
f 142 155 154
f 143 156 144
f 144 156 151
f 144 151 154
f 144 154 157
f 144 157 158
f 144 158 159
f 144 159 146
f 144 146 145
f 146 159 150
f 148 150 160
f 150 159 158
f 150 158 160
f 152 160 158
f 152 158 155
f 152 155 153
f 154 155 157
f 155 158 157

