# https://github.com/mikedh/trimesh
v 0.04896074 -0.01109274 0.05092426
v 0.00264027 -0.00939745 0.04858211
v 0.00264027 -0.01109274 0.05092426
v 0.04937248 -0.01110710 0.05092426
v 0.05109149 0.01488245 0.01489927
v 0.04896074 0.05860066 -0.04553450
v 0.00264027 0.04896053 -0.03218529
v 0.00264027 -0.03182404 0.05092426
v 0.05193040 -0.01120767 0.05092426
v 0.05193040 -0.00880841 0.04760534
v 0.05193040 0.04980817 -0.03351916
v 0.05116868 0.05345734 -0.03849755
v 0.04896074 0.06585590 -0.05558579
v 0.00445191 0.06643057 -0.05637350
v 0.00264027 0.06643057 -0.05637350
v 0.00264027 -0.06676412 0.03155689
v 0.01744738 -0.05084570 0.05092426
v 0.05363911 -0.01159557 0.05092426
v 0.05344354 -0.00886588 0.04751082
v 0.05314503 0.05338550 -0.03860257
v 0.05193040 0.06579843 -0.05565931
v 0.05005700 0.06638747 -0.05637350
v 0.04896074 0.06641620 -0.05637350
v 0.00264027 -0.08034076 -0.05637350
v 0.00264027 -0.07068626 0.02938279
v 0.00264027 -0.07633242 0.02625292
v 0.00264027 -0.08034076 0.02402630
v 0.02841504 -0.08034076 0.03961263
v 0.03115824 -0.08034076 0.04084147
v 0.01829144 -0.05146347 0.05092426
v 0.05374205 -0.01168178 0.05092426
v 0.05370602 -0.01156684 0.05085074
v 0.05361853 0.03580053 -0.01456140
v 0.05356706 0.05949140 -0.04727798
v 0.05344868 0.02969463 -0.00588600
v 0.05371631 0.06558293 -0.05595339
v 0.05193040 0.06630126 -0.05637350
v 0.04074143 -0.08034076 -0.05637350
v 0.03145675 -0.08034076 0.04089398
v 0.01932079 -0.05202378 0.05092426
v 0.05415893 -0.01245758 0.05092426
v 0.05382954 -0.00548968 0.04218584
v 0.05383469 0.03309957 -0.01121098
v 0.05379866 0.05679044 -0.04392755
v 0.05390674 0.06289633 -0.05260296
v 0.05376778 0.06578406 -0.05637350
v 0.05384498 -0.06572971 -0.05637350
v 0.05372146 -0.06853124 -0.05102752
v 0.05365970 -0.08034076 -0.02712289
v 0.03406099 -0.08034076 0.04129309
v 0.02225956 -0.05318749 0.05092426
v 0.05448317 -0.01331959 0.05092426
v 0.05475080 -0.01037440 0.04598789
v 0.05435451 -0.00727116 0.04311009
v 0.05428760 0.00155006 0.03114728
v 0.05419496 0.01040001 0.01919496
v 0.05393248 0.00061621 0.03351043
v 0.05387072 0.00940870 0.02148460
v 0.05425157 0.06384454 -0.05493460
v 0.05412805 0.06510882 -0.05637350
v 0.05393248 0.03920546 -0.01988638
v 0.05420525 -0.06505447 -0.05637350
v 0.05409202 -0.06607452 -0.05489260
v 0.05406629 -0.07196491 -0.04302430
v 0.05403541 -0.07784093 -0.03115601
v 0.05407144 -0.08034076 -0.02587304
v 0.03412275 -0.08034076 0.04129309
v 0.02688132 -0.05377652 0.05092426
v 0.02578507 -0.05376216 0.05092426
v 0.02458073 -0.05367596 0.05092426
v 0.05508019 -0.01530221 0.05092426
v 0.05498755 -0.01334832 0.04896022
v 0.05490520 -0.00445527 0.03709193
v 0.05486403 0.01927870 0.00444887
v 0.05481257 0.04302704 -0.02818368
v 0.05475595 0.02818612 -0.00740892
v 0.05429275 0.04013931 -0.02224954
v 0.05432878 0.05500895 -0.04297179
v 0.05486918 0.05785358 -0.04895845
v 0.05461184 0.06381581 -0.05637350
v 0.05466846 -0.06387639 -0.05637350
v 0.05499270 -0.06379019 -0.05489260
v 0.05498241 -0.06676412 -0.04895845
v 0.05493609 -0.07567154 -0.03115601
v 0.05492064 -0.07863110 -0.02522186
v 0.05421040 -0.08034076 -0.02522186
v 0.03640789 -0.08034076 0.04120907
v 0.03009287 -0.05363286 0.05092426
v 0.02819373 -0.05376216 0.05092426
v 0.05515739 -0.01630789 0.05092426
v 0.05518313 -0.01037440 0.04302607
v 0.05515225 -0.00149571 0.03115778
v 0.05508019 -0.00741483 0.04005375
v 0.05495153 0.01038564 0.01631716
v 0.05502358 0.04005311 -0.02522186
v 0.05495667 0.04896053 -0.03709016
v 0.05491035 0.03411961 -0.01631539
v 0.05506475 0.06230729 -0.05637350
v 0.05510078 -0.06232478 -0.05637350
v 0.05519342 -0.07567154 -0.02818368
v 0.05518827 -0.07863110 -0.02224954
v 0.05502358 -0.08034076 -0.02054807
v 0.05455008 -0.08034076 -0.02355190
v 0.03709241 -0.08034076 0.04117756
v 0.03086488 -0.05348919 0.05092426
v 0.05521916 -0.01630789 0.04896022
v 0.05521916 -0.01334832 0.04598789
v 0.05521916 -0.01827614 0.05092426
v 0.05520886 -0.00445527 0.03411960
v 0.05519342 0.00443778 0.02225131
v 0.05520371 0.05785358 -0.05193077
v 0.05519342 0.04302704 -0.03115601
v 0.05517284 0.05192009 -0.04302430
v 0.05517284 0.01334521 0.01038302
v 0.05515739 0.03709354 -0.02224954
v 0.05511107 0.04598660 -0.03411783
v 0.05505446 0.05489402 -0.04599662
v 0.05513681 0.06082751 -0.05489260
v 0.05517798 0.06082751 -0.05637350
v 0.05520886 -0.06083063 -0.05637350
v 0.05520371 -0.06379019 -0.05193077
v 0.05521916 -0.07863110 -0.01928772
v 0.05519857 -0.08034076 -0.01758624
v 0.04005692 -0.08034076 0.04065241
v 0.04302658 -0.04965325 0.05092426
v 0.04203841 -0.05014172 0.05092426
v 0.04149800 -0.05040033 0.05092426
v 0.04095759 -0.05063019 0.05092426
v 0.04018044 -0.05093190 0.05092426
v 0.03974297 -0.05108993 0.05092426
v 0.03715417 -0.05195194 0.05092426
v 0.03413305 -0.05277085 0.05092426
v 0.03152880 -0.05335989 0.05092426
v 0.05521916 0.02521219 -0.00740892
v 0.05521401 0.04896053 -0.04005197
v 0.05521916 -0.01928182 0.05092426
v 0.05521916 0.05489402 -0.04895845
v 0.05521916 0.05933336 -0.05637350
v 0.05521916 -0.05935085 -0.05637350
v 0.05521916 -0.06083063 -0.05489260
v 0.05521916 -0.07567154 -0.02522186
v 0.05521916 -0.08034076 -0.01461392
v 0.04068996 -0.08034076 0.04044235
v 0.04508012 -0.04831714 0.05092426
v 0.05518313 -0.02225575 0.05092426
v 0.05521916 -0.02521531 0.04896022
v 0.05521916 -0.08034076 0.01631716
v 0.04269204 -0.08034076 0.03944458
v 0.04559994 -0.04768500 0.05092426
v 0.05491550 -0.02521531 0.05092426
v 0.05511622 -0.02818924 0.04896022
v 0.05521916 -0.03114880 0.04598789
v 0.05516769 -0.08034076 0.01927898
v 0.05521916 -0.07863110 0.01927898
v 0.04425150 -0.08034076 0.03861485
v 0.04663443 -0.04637762 0.05092426
v 0.05443685 -0.02801684 0.05092426
v 0.05441627 -0.03137867 0.04921229
v 0.05505961 -0.03412273 0.04598789
v 0.05506475 -0.06083063 0.03115778
v 0.05512137 -0.05489714 0.03411960
v 0.05516769 -0.04896365 0.03709193
v 0.05519342 -0.04301579 0.04005375
v 0.05520886 -0.06379019 0.02818545
v 0.05521916 -0.05785670 0.03115778
v 0.05438024 -0.08034076 0.02226181
v 0.05517284 -0.07567154 0.02225131
v 0.05479198 -0.07863110 0.02225131
v 0.05519342 -0.06972369 0.02522363
v 0.04447280 -0.08034076 0.03837328
v 0.05388101 -0.03055976 0.05092426
v 0.04763289 -0.04485474 0.05092426
v 0.05415893 -0.03412273 0.04844558
v 0.05488977 -0.04598972 0.04005375
v 0.05499270 -0.06676412 0.02818545
v 0.05355162 -0.08034076 0.02370071
v 0.05423099 -0.07557098 0.02529715
v 0.05389130 -0.07863110 0.02425736
v 0.05490520 -0.07269762 0.02522363
v 0.05477654 -0.05192321 0.03709193
v 0.05416408 -0.06083063 0.03363647
v 0.04556391 -0.08034076 0.03673483
v 0.05388615 -0.05728203 0.03610465
v 0.05400453 -0.07269762 0.02736623
v 0.05398909 -0.04598972 0.04218584
v 0.04687118 -0.08034076 0.03471827
v 0.04741673 -0.08034076 0.03384653
v 0.05409202 -0.06676412 0.03049610
f 1 2 3
f 1 3 8
f 1 8 17
f 1 17 30
f 1 30 40
f 1 40 51
f 1 51 70
f 1 70 69
f 1 69 68
f 1 68 89
f 1 89 88
f 1 88 105
f 1 105 133
f 1 133 132
f 1 132 131
f 1 131 130
f 1 130 129
f 1 129 128
f 1 128 127
f 1 127 126
f 1 126 125
f 1 125 144
f 1 144 149
f 1 149 156
f 1 156 172
f 1 172 171
f 1 171 157
f 1 157 150
f 1 150 145
f 1 145 136
f 1 136 108
f 1 108 90
f 1 90 71
f 1 71 52
f 1 52 41
f 1 41 31
f 1 31 18
f 1 18 9
f 1 9 4
f 1 4 5
f 1 5 6
f 1 6 7
f 1 7 2
f 2 7 15
f 2 15 24
f 2 24 27
f 2 27 26
f 2 26 25
f 2 25 16
f 2 16 8
f 2 8 3
f 4 9 5
f 5 9 10
f 5 10 11
f 5 11 12
f 5 12 6
f 6 12 13
f 6 13 14
f 6 14 7
f 7 14 15
f 8 16 17
f 9 18 19
f 9 19 10
f 10 19 20
f 10 20 11
f 11 20 21
f 11 21 12
f 12 21 22
f 12 22 13
f 13 22 23
f 13 23 14
f 14 23 22
f 14 22 37
f 14 37 46
f 14 46 60
f 14 60 80
f 14 80 98
f 14 98 119
f 14 119 138
f 14 138 139
f 14 139 120
f 14 120 99
f 14 99 81
f 14 81 62
f 14 62 47
f 14 47 38
f 14 38 24
f 14 24 15
f 16 25 17
f 17 25 26
f 17 26 27
f 17 27 28
f 17 28 29
f 17 29 30
f 18 31 32
f 18 32 19
f 19 32 33
f 19 33 34
f 19 34 35
f 19 35 20
f 20 35 34
f 20 34 21
f 21 34 36
f 21 36 37
f 21 37 22
f 24 38 49
f 24 49 66
f 24 66 86
f 24 86 103
f 24 103 102
f 24 102 123
f 24 123 142
f 24 142 147
f 24 147 153
f 24 153 166
f 24 166 176
f 24 176 187
f 24 187 186
f 24 186 182
f 24 182 170
f 24 170 155
f 24 155 148
f 24 148 143
f 24 143 124
f 24 124 104
f 24 104 87
f 24 87 67
f 24 67 50
f 24 50 39
f 24 39 29
f 24 29 28
f 24 28 27
f 29 39 40
f 29 40 30
f 31 41 42
f 31 42 32
f 32 42 43
f 32 43 44
f 32 44 36
f 32 36 33
f 33 36 34
f 36 44 45
f 36 45 46
f 36 46 37
f 38 47 48
f 38 48 49
f 39 50 51
f 39 51 40
f 41 52 53
f 41 53 54
f 41 54 55
f 41 55 56
f 41 56 57
f 41 57 42
f 42 57 58
f 42 58 43
f 43 45 44
f 43 58 57
f 43 57 45
f 45 59 60
f 45 60 46
f 45 57 61
f 45 61 59
f 47 62 63
f 47 63 64
f 47 64 65
f 47 65 48
f 48 65 49
f 49 65 66
f 50 67 68
f 50 68 69
f 50 69 70
f 50 70 51
f 52 71 72
f 52 72 53
f 53 55 54
f 53 72 73
f 53 73 74
f 53 74 75
f 53 75 76
f 53 76 77
f 53 77 55
f 55 77 56
f 56 77 61
f 56 61 57
f 59 78 79
f 59 79 80
f 59 80 60
f 59 61 77
f 59 77 78
f 62 81 82
f 62 82 83
f 62 83 63
f 63 83 84
f 63 84 85
f 63 85 64
f 64 85 86
f 64 86 65
f 65 86 66
f 67 87 88
f 67 88 89
f 67 89 68
f 71 90 91
f 71 91 92
f 71 92 93
f 71 93 72
f 72 94 73
f 72 93 95
f 72 95 96
f 72 96 94
f 73 94 96
f 73 96 97
f 73 97 79
f 73 79 74
f 74 79 75
f 75 79 78
f 75 78 76
f 76 78 77
f 79 98 80
f 79 97 96
f 79 96 98
f 81 99 82
f 82 99 100
f 82 100 101
f 82 101 83
f 83 101 84
f 84 101 85
f 85 101 102
f 85 102 103
f 85 103 86
f 87 104 88
f 88 104 105
f 90 106 107
f 90 107 91
f 90 108 106
f 91 107 109
f 91 109 110
f 91 110 111
f 91 111 112
f 91 112 113
f 91 113 114
f 91 114 92
f 92 114 115
f 92 115 93
f 93 115 116
f 93 116 117
f 93 117 95
f 95 117 96
f 96 117 98
f 98 117 118
f 98 118 119
f 99 120 121
f 99 121 100
f 100 122 123
f 100 123 101
f 100 121 122
f 101 123 102
f 104 124 125
f 104 125 126
f 104 126 127
f 104 127 128
f 104 128 129
f 104 129 130
f 104 130 131
f 104 131 132
f 104 132 133
f 104 133 105
f 106 108 136
f 106 136 146
f 106 146 152
f 106 152 165
f 106 165 154
f 106 154 147
f 106 147 142
f 106 142 122
f 106 122 141
f 106 141 140
f 106 140 139
f 106 139 138
f 106 138 137
f 106 137 134
f 106 134 107
f 107 134 135
f 107 135 109
f 109 135 111
f 109 111 110
f 111 135 137
f 111 137 138
f 111 138 119
f 111 119 118
f 111 118 113
f 111 113 112
f 113 118 115
f 113 115 114
f 115 118 116
f 116 118 117
f 120 139 140
f 120 140 121
f 121 140 141
f 121 141 122
f 122 142 123
f 124 143 144
f 124 144 125
f 134 137 135
f 136 145 146
f 143 148 149
f 143 149 144
f 145 150 151
f 145 151 146
f 146 151 152
f 147 154 153
f 148 155 156
f 148 156 149
f 150 157 151
f 151 157 158
f 151 158 159
f 151 159 160
f 151 160 161
f 151 161 167
f 151 167 162
f 151 162 163
f 151 163 152
f 152 163 164
f 152 164 165
f 153 154 167
f 153 167 168
f 153 168 166
f 154 169 167
f 154 165 164
f 154 164 169
f 155 170 171
f 155 171 172
f 155 172 156
f 157 171 173
f 157 173 158
f 158 173 159
f 159 173 174
f 159 174 175
f 159 175 160
f 160 175 167
f 160 167 161
f 162 167 163
f 163 167 169
f 163 169 164
f 166 168 177
f 166 177 178
f 166 178 176
f 167 175 179
f 167 179 168
f 168 179 180
f 168 180 181
f 168 181 177
f 170 182 171
f 171 183 184
f 171 184 185
f 171 185 173
f 171 182 186
f 171 186 187
f 171 187 183
f 173 185 188
f 173 188 181
f 173 181 180
f 173 180 174
f 174 180 179
f 174 179 175
f 176 178 187
f 177 184 178
f 177 181 188
f 177 188 184
f 178 184 187
f 183 187 184
f 184 188 185

