# https://github.com/mikedh/trimesh
v 0.00264026 -0.00766977 0.04616599
v 0.00264026 -0.00753325 0.04599315
v -0.02655314 -0.00757876 0.04606997
v -0.02655314 -0.00766977 0.04616599
v 0.00264026 -0.04036674 0.04616599
v 0.00264026 -0.00255021 0.03911786
v -0.02655314 -0.00255021 0.03911786
v -0.02655314 -0.10050460 0.04616599
v 0.00264026 -0.04152718 0.04553223
v -0.02358980 -0.09820648 0.04616599
v 0.00264026 -0.00066165 0.03650602
v -0.02655314 0.00570936 0.02769105
v -0.02655314 -0.09977648 -0.03702883
v -0.02525007 -0.10048184 -0.03695201
v -0.02427848 -0.10095967 -0.03587655
v -0.02427848 -0.10095967 -0.03553086
v -0.02340405 -0.10095967 -0.03553086
v -0.00863589 -0.10093691 -0.03555007
v 0.00264026 -0.09902561 0.01036840
v 0.00264026 -0.09875256 0.01299945
v -0.02535009 -0.09982199 0.04616599
v 0.00264026 -0.04337022 0.04451438
v -0.02499289 -0.09954894 0.04616599
v 0.00264026 -0.09822923 0.01359479
v 0.00264026 -0.09741010 0.01449741
v 0.00264026 -0.09593112 0.01536163
v 0.00264026 -0.09497546 0.01589936
v 0.00264026 -0.09176720 0.01768540
v 0.00264026 -0.08924155 0.01908734
v 0.00264026 -0.07269966 0.02826720
v 0.00264026 -0.05786429 0.03648681
v 0.00264026 0.01171632 0.01937541
v 0.00264026 0.12448333 -0.13670130
v -0.02655314 0.12448333 -0.13670130
v -0.02655314 -0.07056081 -0.14687980
v -0.02340405 -0.10095967 -0.03587655
v -0.00863589 -0.10093691 -0.03583814
v 0.00264026 -0.09945792 -0.03704804
v 0.00264026 0.13001246 -0.14436397
v -0.02655314 0.13017174 -0.14459443
v -0.02655314 -0.07001473 -0.14791685
v 0.00264026 -0.07056081 -0.14687980
v 0.00264026 0.13064956 -0.14526659
v -0.02655314 0.13064956 -0.14526659
v -0.02655314 -0.06933212 -0.14918436
v 0.00264026 -0.06933212 -0.14918436
v 0.00264026 0.13149144 -0.14687980
v -0.02655314 0.13149144 -0.14687980
v -0.02655314 -0.06676095 -0.15001016
v 0.00264026 -0.06676095 -0.15001016
v 0.00264026 0.13137767 -0.14914594
v -0.02655314 0.13137767 -0.14914594
v -0.02655314 0.12609884 -0.15001016
v 0.00264026 0.12609884 -0.15001016
v 0.00264026 0.13049028 -0.14947243
v -0.02655314 0.12907957 -0.14995255
v -0.02655314 0.12744130 -0.14999095
v 0.00264026 0.12907957 -0.14995255
f 1 2 3
f 1 3 4
f 1 4 8
f 1 8 21
f 1 21 23
f 1 23 10
f 1 10 5
f 1 5 9
f 1 9 22
f 1 22 31
f 1 31 30
f 1 30 29
f 1 29 28
f 1 28 27
f 1 27 26
f 1 26 25
f 1 25 24
f 1 24 20
f 1 20 19
f 1 19 38
f 1 38 42
f 1 42 46
f 1 46 50
f 1 50 54
f 1 54 58
f 1 58 55
f 1 55 51
f 1 51 47
f 1 47 43
f 1 43 39
f 1 39 33
f 1 33 32
f 1 32 11
f 1 11 6
f 1 6 2
f 2 6 3
f 3 6 7
f 3 7 12
f 3 12 34
f 3 34 40
f 3 40 44
f 3 44 48
f 3 48 52
f 3 52 56
f 3 56 57
f 3 57 53
f 3 53 49
f 3 49 45
f 3 45 41
f 3 41 35
f 3 35 13
f 3 13 8
f 3 8 4
f 5 10 9
f 6 11 7
f 7 11 12
f 8 13 14
f 8 14 15
f 8 15 16
f 8 16 17
f 8 17 18
f 8 18 19
f 8 19 20
f 8 20 21
f 9 10 22
f 10 23 20
f 10 20 24
f 10 24 25
f 10 25 26
f 10 26 27
f 10 27 28
f 10 28 29
f 10 29 30
f 10 30 31
f 10 31 22
f 11 32 12
f 12 32 33
f 12 33 34
f 13 35 14
f 14 35 15
f 15 36 17
f 15 17 16
f 15 35 42
f 15 42 36
f 17 36 37
f 17 37 18
f 18 37 38
f 18 38 19
f 20 23 21
f 33 39 34
f 34 39 40
f 35 41 42
f 36 42 37
f 37 42 38
f 39 43 44
f 39 44 40
f 41 45 46
f 41 46 42
f 43 47 48
f 43 48 44
f 45 49 50
f 45 50 46
f 47 51 52
f 47 52 48
f 49 53 54
f 49 54 50
f 51 55 52
f 52 55 56
f 53 57 54
f 54 57 58
f 55 58 56
f 56 58 57

