# https://github.com/mikedh/trimesh
v 0.02820392 -0.08396495 0.09762510
v 0.03116026 -0.08396495 0.09824032
v 0.02524422 -0.08396495 0.09773033
v 0.02580316 -0.08022403 0.09183708
v 0.02665505 -0.05936051 0.05934320
v 0.02679310 -0.05936051 0.05934320
v 0.02819382 -0.08266680 0.09560941
v 0.02819382 -0.08128954 0.09347229
v 0.02986055 -0.08015889 0.09194231
v 0.03116026 -0.08342987 0.09739844
v 0.03315360 -0.08322048 0.09772224
v 0.03413680 -0.08393704 0.09922794
v 0.03402232 -0.08396495 0.09923603
v 0.02225758 -0.08396495 0.09864508
v 0.02382666 -0.08011236 0.09201517
v 0.02522738 -0.08358807 0.09714749
v 0.02522738 -0.08263422 0.09566607
v 0.02467517 -0.05925814 0.05950510
v 0.02458090 -0.05368865 0.05093235
v 0.02578633 -0.05376775 0.05093235
v 0.02688064 -0.05378635 0.05093235
v 0.02819382 -0.05377705 0.05093235
v 0.02819382 -0.05443311 0.05193616
v 0.03009961 -0.05364677 0.05093235
v 0.02877297 -0.05929072 0.05944844
v 0.02794802 -0.06009566 0.06059795
v 0.02819382 -0.06271524 0.06467790
v 0.03020400 -0.07429161 0.08293243
v 0.03116026 -0.06496723 0.06874975
v 0.03252058 -0.06822890 0.07423016
v 0.03412670 -0.07969826 0.09264659
v 0.03281015 -0.06236162 0.06522027
v 0.03420751 -0.08396495 0.09930889
v 0.03413680 -0.08396495 0.09927651
v 0.03513010 -0.08296458 0.09811890
v 0.03708640 -0.08396495 0.10070934
v 0.02172221 -0.08396495 0.09887174
v 0.02225758 -0.08329493 0.09760081
v 0.02353709 -0.07424508 0.08300528
v 0.02287040 -0.05664788 0.05597562
v 0.02225758 -0.05319079 0.05093235
v 0.03086732 -0.05349788 0.05093235
v 0.03116026 -0.05668045 0.05593515
v 0.03116026 -0.05793208 0.05786989
v 0.03116026 -0.06252447 0.06496932
v 0.03538263 -0.07709729 0.08911711
v 0.03305258 -0.05649434 0.05621848
v 0.03393140 -0.06300837 0.06667740
v 0.03623452 -0.08034965 0.09460561
v 0.03826826 -0.05332572 0.05356328
v 0.03821439 -0.07998208 0.09518037
v 0.03877333 -0.08323445 0.10066887
v 0.03907637 -0.08396495 0.10239313
v 0.04005957 -0.05396316 0.05553849
v 0.04188455 -0.05360489 0.05610515
v 0.02076931 -0.08309020 0.09792462
v 0.02225758 -0.08085682 0.09381228
v 0.01949654 -0.08396495 0.10028840
v 0.02225758 -0.07990298 0.09233088
v 0.02109255 -0.06222668 0.06543074
v 0.02089389 -0.05635009 0.05644514
v 0.02225758 -0.05411206 0.05234901
v 0.01932145 -0.05202757 0.05093235
v 0.02011946 -0.05373052 0.05293185
v 0.03153064 -0.05336294 0.05093235
v 0.03407619 -0.05719227 0.05771608
v 0.03503245 -0.05623377 0.05662324
v 0.03605269 -0.05949544 0.06210364
v 0.03188756 -0.05328850 0.05093235
v 0.03412670 -0.05294418 0.05118330
v 0.03720425 -0.05266501 0.05204949
v 0.03715374 -0.05195777 0.05093235
v 0.03974306 -0.05110164 0.05093235
v 0.03938278 -0.08378814 0.10237694
v 0.04453112 -0.05046885 0.05339328
v 0.03956797 -0.08396495 0.10295979
v 0.04005957 -0.05300467 0.05405708
v 0.04096196 -0.05064101 0.05093235
v 0.04149734 -0.05041302 0.05093235
v 0.04302938 -0.04966856 0.05093235
v 0.02006221 -0.08047529 0.09441132
v 0.02063126 -0.07722292 0.08892282
v 0.01826080 -0.08396495 0.10133267
v 0.01879281 -0.08257839 0.09870175
v 0.02023730 -0.05961642 0.06191746
v 0.01829447 -0.05146922 0.05093235
v 0.01919350 -0.05261848 0.05194425
v 0.01813958 -0.05321871 0.05370089
v 0.03628839 -0.05361885 0.05310995
v 0.03413343 -0.05277668 0.05093235
v 0.04508332 -0.04832853 0.05093235
v 0.04527862 -0.04889618 0.05221948
v 0.04492170 -0.05089226 0.05490707
v 0.04143336 -0.08288083 0.10415787
v 0.04071616 -0.08396495 0.10477310
v 0.01784328 -0.06822890 0.07719298
v 0.01766819 -0.08322515 0.10068506
v 0.01808234 -0.07994952 0.09519656
v 0.01734494 -0.08396495 0.10256313
v 0.01744596 -0.05085969 0.05093235
v 0.01769176 -0.05649434 0.05918130
v 0.01775910 -0.06236162 0.06819118
v 0.04559849 -0.04769108 0.05093235
v 0.04663557 -0.04638828 0.05093235
v 0.04693861 -0.04663023 0.05193616
v 0.04653455 -0.04881708 0.05489897
v 0.04172967 -0.08345779 0.10614118
v 0.04180038 -0.08396495 0.10733116
v 0.04733930 -0.04719788 0.05391136
v 0.01724730 -0.08375091 0.10237694
v 0.01736515 -0.08059626 0.09717986
v 0.01754360 -0.07148592 0.08268148
v 0.01712271 -0.08396495 0.10300836
v 0.01738198 -0.05387011 0.05567610
v 0.01720352 -0.05117609 0.05193616
v 0.01626073 -0.04897062 0.05093235
v 0.01742912 -0.05974670 0.06467790
v 0.01748300 -0.06561398 0.07367969
v 0.04763224 -0.04485748 0.05093235
v 0.04191149 -0.08396495 0.10792211
v 0.04759857 -0.04772365 0.05589467
v 0.04783763 -0.04441080 0.05093235
v 0.01699813 -0.08159663 0.09958412
v 0.01710588 -0.07208614 0.08457574
v 0.01630450 -0.08396495 0.10521024
v 0.01594422 -0.08160594 0.10237694
v 0.01704190 -0.06625608 0.07567918
v 0.01703180 -0.05487978 0.05806417
v 0.01664458 -0.05211132 0.05477754
v 0.01587688 -0.04896597 0.05193616
v 0.01511254 -0.04659300 0.05093235
v 0.04199904 -0.08396495 0.10852115
v 0.04796558 -0.04612306 0.05489897
v 0.04228187 -0.08396495 0.11067446
v 0.04864911 -0.04202387 0.05093235
v 0.01684324 -0.06979692 0.08166149
v 0.01530446 -0.08396495 0.10817306
v 0.01536171 -0.07850712 0.09943841
v 0.01598462 -0.05490305 0.06084080
v 0.01609237 -0.06083082 0.06974545
v 0.01670519 -0.05800652 0.06373886
v 0.01538191 -0.05178562 0.05792655
v 0.01512264 -0.04903576 0.05462374
v 0.01499806 -0.04695592 0.05193616
v 0.01487347 -0.04588111 0.05093235
v 0.04810700 -0.04599743 0.05786989
v 0.04244686 -0.08396495 0.11363727
v 0.04886461 -0.03916700 0.05093235
v 0.04852789 -0.04303355 0.05490707
v 0.01486674 -0.08396495 0.11004304
v 0.01496102 -0.08266680 0.10747688
v 0.01514958 -0.08164781 0.10509691
v 0.01517651 -0.07615276 0.09644320
v 0.01530783 -0.07260727 0.09047709
v 0.01525733 -0.06671206 0.08151577
v 0.01521019 -0.06081686 0.07254637
v 0.01516641 -0.05493097 0.06358505
v 0.01494755 -0.05007336 0.05697132
v 0.01513611 -0.07030874 0.08754665
v 0.01496775 -0.05593599 0.06597312
v 0.01484317 -0.04745379 0.05344994
v 0.01467481 -0.04809588 0.05542516
v 0.01470175 -0.04514595 0.05093235
v 0.04238626 -0.08396495 0.11660819
v 0.04855483 -0.03643576 0.05093235
v 0.04174314 -0.08396495 0.12221812
v 0.04212025 -0.08396495 0.11957910
v 0.01477583 -0.08329959 0.10945209
v 0.01467481 -0.08396495 0.11136254
v 0.01493745 -0.07680417 0.09846699
v 0.01491724 -0.07093223 0.08946520
v 0.01501152 -0.06766590 0.08397670
v 0.01483643 -0.07419390 0.09494561
v 0.01462094 -0.04903576 0.05792655
v 0.01465124 -0.04547166 0.05193616
v 0.01468491 -0.08068932 0.10593070
v 0.01461757 -0.07575727 0.09943841
v 0.01460747 -0.06985741 0.09047709
v 0.01453003 -0.04308473 0.05093235
v 0.01586677 -0.03643576 0.05093235
v 0.04834607 -0.03643576 0.05125616
v 0.03896189 -0.08263888 0.12825709
v 0.03950400 -0.08396495 0.12895326
v 0.03963195 -0.08396495 0.12866184
v 0.04093166 -0.08396495 0.12526998
v 0.04129194 -0.08396495 0.12425809
v 0.04135255 -0.08381141 0.12388571
v 0.04141989 -0.08396495 0.12373191
v 0.04168589 -0.08396495 0.12255002
v 0.01466471 -0.08387189 0.11128159
v 0.01465798 -0.08396495 0.11157302
v 0.01453339 -0.07270497 0.09644320
v 0.01463104 -0.08164781 0.10839972
v 0.01446605 -0.04053029 0.05093235
v 0.01452666 -0.06676790 0.08754665
v 0.01649643 -0.03643576 0.05194425
v 0.01495092 -0.03901346 0.05093235
v 0.01491724 -0.08054043 0.11512677
v 0.01514284 -0.08155941 0.11748247
v 0.01604186 -0.08160594 0.12017814
v 0.01689038 -0.08396495 0.12590141
v 0.01745606 -0.08273658 0.12520522
v 0.01778604 -0.08010306 0.12170003
v 0.04597898 -0.03643576 0.05408946
v 0.04453785 -0.03855748 0.05939177
v 0.03816388 -0.08331820 0.13024040
v 0.03906627 -0.08396495 0.12960898
v 0.01461084 -0.08396495 0.11409060
v 0.01453339 -0.08160594 0.11128159
v 0.01464114 -0.08396495 0.11732865
v 0.01465461 -0.08155941 0.11417965
v 0.01478256 -0.08396495 0.11927958
v 0.01484654 -0.08312743 0.11864816
v 0.01760758 -0.03839462 0.05668800
v 0.01774226 -0.03643576 0.05377375
v 0.01775910 -0.05337690 0.08019627
v 0.01783318 -0.04750031 0.07119448
v 0.01499806 -0.08368113 0.12017814
v 0.01510244 -0.08396495 0.12098765
v 0.01581627 -0.08396495 0.12308429
v 0.01794429 -0.08396495 0.12773091
v 0.01821366 -0.08336007 0.12718044
v 0.01787021 -0.07423112 0.11269824
v 0.04322130 -0.03643576 0.05710895
v 0.04302938 -0.03820851 0.05993415
v 0.03820429 -0.07732063 0.12142479
v 0.03712007 -0.08396495 0.13196466
v 0.03718068 -0.08396495 0.13191609
v 0.01497112 -0.08396495 0.12044528
v 0.01793419 -0.04163303 0.06219269
v 0.01915646 -0.03643576 0.05520659
v 0.01796449 -0.06835918 0.10368835
v 0.01922043 -0.08396495 0.12906660
v 0.02019016 -0.08275520 0.12811947
v 0.04292163 -0.03643576 0.05730323
v 0.04269603 -0.03643576 0.05744894
v 0.03618401 -0.08283429 0.13096087
v 0.03414016 -0.08396495 0.13332464
v 0.02026087 -0.05015711 0.07762202
v 0.01806551 -0.06249190 0.09468656
v 0.02052688 -0.03845046 0.05956177
v 0.02075584 -0.03643576 0.05654228
v 0.02090400 -0.04753753 0.07410873
v 0.01928104 -0.08396495 0.12912326
v 0.02098481 -0.08396495 0.13055610
v 0.02150671 -0.08339264 0.13010277
v 0.02080971 -0.08013563 0.12460618
v 0.02041576 -0.07101598 0.11011589
v 0.04005957 -0.03643576 0.05860655
v 0.04005957 -0.03775253 0.06064652
v 0.04005957 -0.03871102 0.06212793
v 0.04176334 -0.04141899 0.06546312
v 0.03622442 -0.07693445 0.12199955
v 0.03467554 -0.08021008 0.12747186
v 0.03326135 -0.08396495 0.13341369
v 0.03412670 -0.08262957 0.13127657
v 0.03269567 -0.08011701 0.12760948
v 0.02075921 -0.05340948 0.08311052
v 0.02213973 -0.03643576 0.05752179
v 0.02245961 -0.04981745 0.07862581
v 0.02358423 -0.05038975 0.08022056
v 0.02288386 -0.04714204 0.07473206
v 0.02235523 -0.03643576 0.05765942
v 0.02218013 -0.08396495 0.13142228
v 0.03715711 -0.03643576 0.05923797
v 0.03854100 -0.03858539 0.06231412
v 0.03618401 -0.07105786 0.11301395
v 0.03412670 -0.07432418 0.11848626
v 0.03412670 -0.07677159 0.12225859
v 0.03386069 -0.07939582 0.12633854
v 0.03569578 -0.05932328 0.09500227
v 0.03116026 -0.08396495 0.13361607
v 0.03116026 -0.06955497 0.11128159
v 0.03116026 -0.07426369 0.11858341
v 0.03116026 -0.07670180 0.12236383
v 0.03116026 -0.07912595 0.12611998
v 0.03116026 -0.08010306 0.12763376
v 0.03116026 -0.08349966 0.13289560
v 0.03412670 -0.07336568 0.11700485
v 0.03412670 -0.06967595 0.11128159
v 0.03412670 -0.06169160 0.09889603
v 0.03294820 -0.05338621 0.08611381
v 0.03116026 -0.04412232 0.07183400
v 0.02348321 -0.08298784 0.13072610
v 0.02522738 -0.04777018 0.07671536
v 0.02522738 -0.04681634 0.07523396
v 0.02522738 -0.04193547 0.06764881
v 0.02383339 -0.04453643 0.07119448
v 0.02365830 -0.07712056 0.12171622
v 0.02390747 -0.07125328 0.11270633
v 0.02417684 -0.03868310 0.06216031
v 0.02521728 -0.03643576 0.05906797
v 0.02257409 -0.08396495 0.13166514
v 0.03609310 -0.03643576 0.05939987
v 0.03412670 -0.03643576 0.05969129
v 0.02936895 -0.08009840 0.12763376
v 0.03020400 -0.08396495 0.13358369
v 0.03277985 -0.03643576 0.05977224
v 0.03116026 -0.03643576 0.05986939
v 0.02819382 -0.04172143 0.06798880
v 0.02525769 -0.08396495 0.13288751
v 0.02615334 -0.03845046 0.06253269
v 0.02819382 -0.03643576 0.05973986
v 0.02738908 -0.08016819 0.12752853
v 0.02819382 -0.08396495 0.13350273
v 0.02982688 -0.03643576 0.05981272
v 0.02819382 -0.03928332 0.06418409
v 0.02715001 -0.05344670 0.08601667
v 0.02756080 -0.08396495 0.13337321
v 0.02620385 -0.06518127 0.10402025
v 0.02654056 -0.05931863 0.09501037
f 1 2 13
f 1 13 34
f 1 34 33
f 1 33 36
f 1 36 53
f 1 53 76
f 1 76 95
f 1 95 108
f 1 108 120
f 1 120 132
f 1 132 134
f 1 134 147
f 1 147 164
f 1 164 167
f 1 167 166
f 1 166 189
f 1 189 188
f 1 188 186
f 1 186 185
f 1 185 184
f 1 184 183
f 1 183 207
f 1 207 228
f 1 228 227
f 1 227 238
f 1 238 255
f 1 255 272
f 1 272 297
f 1 297 305
f 1 305 309
f 1 309 301
f 1 301 293
f 1 293 264
f 1 264 245
f 1 245 244
f 1 244 233
f 1 233 221
f 1 221 201
f 1 201 220
f 1 220 219
f 1 219 229
f 1 229 212
f 1 212 210
f 1 210 208
f 1 208 191
f 1 191 169
f 1 169 150
f 1 150 137
f 1 137 125
f 1 125 113
f 1 113 99
f 1 99 83
f 1 83 58
f 1 58 37
f 1 37 14
f 1 14 3
f 1 3 4
f 1 4 5
f 1 5 6
f 1 6 7
f 1 7 8
f 1 8 9
f 1 9 2
f 2 9 10
f 2 10 11
f 2 11 12
f 2 12 13
f 3 14 15
f 3 15 16
f 3 16 4
f 4 16 17
f 4 17 5
f 5 18 19
f 5 19 20
f 5 20 21
f 5 21 6
f 5 17 18
f 6 21 22
f 6 22 23
f 6 23 24
f 6 24 25
f 6 25 26
f 6 26 27
f 6 27 8
f 6 8 7
f 8 27 9
f 9 27 25
f 9 25 24
f 9 24 28
f 9 28 10
f 10 28 29
f 10 29 30
f 10 30 11
f 11 31 12
f 11 30 32
f 11 32 31
f 12 33 34
f 12 34 13
f 12 31 35
f 12 35 36
f 12 36 33
f 14 37 38
f 14 38 15
f 15 17 16
f 15 38 39
f 15 39 18
f 15 18 17
f 18 39 40
f 18 40 19
f 19 40 41
f 19 41 63
f 19 63 86
f 19 86 100
f 19 100 116
f 19 116 131
f 19 131 145
f 19 145 163
f 19 163 179
f 19 179 194
f 19 194 197
f 19 197 180
f 19 180 165
f 19 165 148
f 19 148 135
f 19 135 122
f 19 122 119
f 19 119 104
f 19 104 103
f 19 103 91
f 19 91 80
f 19 80 79
f 19 79 78
f 19 78 73
f 19 73 72
f 19 72 90
f 19 90 69
f 19 69 65
f 19 65 42
f 19 42 24
f 19 24 22
f 19 22 21
f 19 21 20
f 22 24 23
f 24 42 43
f 24 43 44
f 24 44 45
f 24 45 29
f 24 29 28
f 25 27 26
f 29 45 32
f 29 32 30
f 31 46 35
f 31 32 46
f 32 45 47
f 32 47 48
f 32 48 46
f 35 49 36
f 35 46 50
f 35 50 49
f 36 51 52
f 36 52 53
f 36 49 50
f 36 50 54
f 36 54 55
f 36 55 51
f 37 56 57
f 37 57 38
f 37 58 56
f 38 57 39
f 39 57 59
f 39 59 40
f 40 60 61
f 40 61 62
f 40 62 41
f 40 59 56
f 40 56 60
f 41 62 61
f 41 61 64
f 41 64 63
f 42 65 47
f 42 47 43
f 43 47 44
f 44 47 45
f 46 48 66
f 46 66 67
f 46 67 68
f 46 68 50
f 47 65 69
f 47 69 70
f 47 70 67
f 47 67 66
f 47 66 48
f 50 68 71
f 50 71 72
f 50 72 73
f 50 73 54
f 51 55 52
f 52 74 53
f 52 55 75
f 52 75 74
f 53 74 76
f 54 73 77
f 54 77 78
f 54 78 55
f 55 78 79
f 55 79 80
f 55 80 75
f 56 59 57
f 56 58 81
f 56 81 82
f 56 82 61
f 56 61 60
f 58 83 84
f 58 84 81
f 61 85 64
f 61 82 85
f 63 64 87
f 63 87 88
f 63 88 86
f 64 85 87
f 67 70 89
f 67 89 68
f 68 89 71
f 69 90 70
f 70 90 72
f 70 72 89
f 71 89 72
f 73 78 77
f 74 75 76
f 75 80 91
f 75 91 92
f 75 92 93
f 75 93 94
f 75 94 95
f 75 95 76
f 81 84 96
f 81 96 85
f 81 85 82
f 83 97 98
f 83 98 84
f 83 99 97
f 84 98 96
f 85 96 88
f 85 88 87
f 86 88 100
f 88 101 100
f 88 96 102
f 88 102 101
f 91 103 92
f 92 103 104
f 92 104 105
f 92 105 93
f 93 105 106
f 93 106 94
f 94 107 108
f 94 108 95
f 94 106 109
f 94 109 107
f 96 98 97
f 96 97 102
f 97 99 110
f 97 110 111
f 97 111 112
f 97 112 101
f 97 101 102
f 99 113 110
f 100 101 114
f 100 114 115
f 100 115 116
f 101 117 114
f 101 112 118
f 101 118 117
f 104 119 105
f 105 119 109
f 105 109 106
f 107 109 108
f 108 109 121
f 108 121 120
f 109 119 122
f 109 122 121
f 110 123 111
f 110 113 123
f 111 123 124
f 111 124 117
f 111 117 118
f 111 118 112
f 113 125 126
f 113 126 123
f 114 117 127
f 114 127 128
f 114 128 115
f 115 128 129
f 115 129 116
f 116 129 130
f 116 130 131
f 117 124 127
f 120 121 132
f 121 122 133
f 121 133 134
f 121 134 132
f 122 135 133
f 123 126 136
f 123 136 127
f 123 127 124
f 125 137 126
f 126 137 138
f 126 138 130
f 126 130 139
f 126 139 140
f 126 140 136
f 127 136 128
f 128 141 129
f 128 136 141
f 129 141 130
f 130 142 131
f 130 141 139
f 130 138 142
f 131 142 143
f 131 143 144
f 131 144 145
f 133 135 146
f 133 146 147
f 133 147 134
f 135 148 149
f 135 149 146
f 136 140 141
f 137 150 151
f 137 151 152
f 137 152 138
f 138 153 154
f 138 154 142
f 138 152 153
f 139 141 140
f 142 155 156
f 142 156 157
f 142 157 143
f 142 154 155
f 143 158 144
f 143 157 159
f 143 159 160
f 143 160 158
f 144 158 161
f 144 161 145
f 145 161 162
f 145 162 163
f 146 149 147
f 147 149 164
f 148 165 166
f 148 166 167
f 148 167 149
f 149 167 164
f 150 168 151
f 150 169 168
f 151 168 170
f 151 170 153
f 151 153 152
f 153 170 159
f 153 159 157
f 153 157 156
f 153 156 155
f 153 155 154
f 158 160 170
f 158 170 171
f 158 171 161
f 159 170 172
f 159 172 160
f 160 172 170
f 161 171 173
f 161 173 162
f 162 174 175
f 162 175 163
f 162 173 176
f 162 176 177
f 162 177 178
f 162 178 174
f 163 175 179
f 165 180 196
f 165 196 215
f 165 215 231
f 165 231 242
f 165 242 259
f 165 259 263
f 165 263 292
f 165 292 303
f 165 303 306
f 165 306 299
f 165 299 298
f 165 298 295
f 165 295 294
f 165 294 265
f 165 265 249
f 165 249 236
f 165 236 235
f 165 235 224
f 165 224 204
f 165 204 181
f 165 181 182
f 165 182 183
f 165 183 184
f 165 184 185
f 165 185 186
f 165 186 187
f 165 187 188
f 165 188 189
f 165 189 166
f 168 169 190
f 168 190 176
f 168 176 173
f 168 173 170
f 169 191 190
f 170 173 171
f 174 179 175
f 174 178 192
f 174 192 179
f 176 190 193
f 176 193 177
f 177 192 178
f 177 193 192
f 179 192 195
f 179 195 194
f 180 197 198
f 180 198 199
f 180 199 200
f 180 200 201
f 180 201 202
f 180 202 203
f 180 203 196
f 181 204 205
f 181 205 182
f 182 206 183
f 182 205 206
f 183 206 207
f 186 188 187
f 190 191 193
f 191 208 209
f 191 209 193
f 192 193 209
f 192 209 194
f 192 194 195
f 194 209 210
f 194 210 211
f 194 211 212
f 194 212 213
f 194 213 198
f 194 198 197
f 196 214 215
f 196 203 216
f 196 216 217
f 196 217 214
f 198 213 218
f 198 218 219
f 198 219 199
f 199 219 220
f 199 220 200
f 200 220 201
f 201 221 202
f 202 221 203
f 203 221 222
f 203 222 223
f 203 223 217
f 203 217 216
f 204 224 205
f 205 224 225
f 205 225 226
f 205 226 206
f 206 226 227
f 206 227 228
f 206 228 207
f 208 210 209
f 210 212 211
f 212 229 213
f 213 229 218
f 214 217 230
f 214 230 215
f 215 230 231
f 217 223 232
f 217 232 240
f 217 240 230
f 218 229 219
f 221 233 222
f 222 233 234
f 222 234 232
f 222 232 223
f 224 235 225
f 225 235 236
f 225 236 237
f 225 237 226
f 226 237 227
f 227 237 238
f 230 239 231
f 230 240 239
f 231 241 242
f 231 239 243
f 231 243 241
f 232 234 240
f 233 244 234
f 234 244 245
f 234 245 246
f 234 246 247
f 234 247 248
f 234 248 239
f 234 239 240
f 236 249 250
f 236 250 251
f 236 251 252
f 236 252 237
f 237 253 254
f 237 254 238
f 237 252 253
f 238 254 256
f 238 256 257
f 238 257 255
f 239 258 243
f 239 248 258
f 241 259 242
f 241 243 259
f 243 260 261
f 243 261 262
f 243 262 263
f 243 263 259
f 243 258 247
f 243 247 264
f 243 264 260
f 245 264 246
f 246 264 247
f 247 258 248
f 249 265 266
f 249 266 250
f 250 266 251
f 251 266 267
f 251 267 253
f 251 253 252
f 253 267 254
f 254 268 269
f 254 269 270
f 254 270 256
f 254 267 271
f 254 271 268
f 255 257 272
f 256 270 257
f 257 273 274
f 257 274 275
f 257 275 276
f 257 276 277
f 257 277 278
f 257 278 272
f 257 270 269
f 257 269 268
f 257 268 279
f 257 279 280
f 257 280 281
f 257 281 282
f 257 282 283
f 257 283 273
f 260 264 284
f 260 284 261
f 261 285 286
f 261 286 287
f 261 287 288
f 261 288 263
f 261 263 262
f 261 284 289
f 261 289 290
f 261 290 285
f 263 291 292
f 263 288 291
f 264 293 284
f 265 294 271
f 265 271 266
f 266 271 267
f 268 271 279
f 271 281 280
f 271 280 279
f 271 294 295
f 271 295 281
f 272 278 296
f 272 296 297
f 273 283 296
f 273 296 274
f 274 296 275
f 275 296 276
f 276 296 277
f 277 296 278
f 281 295 282
f 282 295 283
f 283 295 298
f 283 298 299
f 283 299 300
f 283 300 296
f 284 293 301
f 284 301 289
f 285 302 286
f 285 290 301
f 285 301 302
f 286 302 287
f 287 302 292
f 287 292 288
f 288 292 291
f 289 301 290
f 292 302 303
f 296 304 305
f 296 305 297
f 296 300 304
f 299 306 300
f 300 306 307
f 300 307 302
f 300 302 308
f 300 308 304
f 301 309 304
f 301 304 310
f 301 310 302
f 302 307 303
f 302 310 311
f 302 311 308
f 303 307 306
f 304 308 311
f 304 311 310
f 304 309 305

