# https://github.com/mikedh/trimesh
v 0.03116281 -0.13167476 0.09347018
v 0.03412459 -0.13157754 0.09347018
v 0.03412459 -0.13130797 0.09603696
v 0.03116281 -0.13134332 0.09605189
v 0.02819249 -0.13121074 0.09599717
v 0.02602293 -0.13092348 0.09561912
v 0.02602293 -0.13092348 0.09411685
v 0.02806009 -0.13119749 0.09326624
v 0.02896123 -0.13075997 0.09168438
v 0.03116281 -0.13089697 0.09147546
v 0.03412459 -0.13083509 0.09156499
v 0.03607847 -0.13068042 0.09181371
v 0.03707783 -0.13109142 0.09333090
v 0.03927300 -0.13087487 0.09422132
v 0.03927300 -0.13087487 0.09557932
v 0.03709064 -0.13114004 0.09595240
v 0.03709064 -0.13007940 0.09743975
v 0.03412459 -0.13008381 0.09751933
v 0.03116281 -0.13008381 0.09753425
v 0.02819249 -0.13008381 0.09747954
v 0.02522644 -0.12831610 0.09841472
v 0.02353307 -0.12788742 0.09815108
v 0.02331954 -0.12832051 0.09643989
v 0.02339855 -0.12822329 0.09347018
v 0.02511113 -0.12983192 0.09326624
v 0.02697959 -0.13049039 0.09213705
v 0.02806009 -0.12982307 0.09061986
v 0.02674683 -0.12462155 0.08310357
v 0.02860035 -0.10439440 0.05092427
v 0.02929008 -0.10990085 0.05919169
v 0.02953778 -0.11576527 0.06820031
v 0.03014209 -0.12163411 0.07719897
v 0.03116281 -0.12994240 0.08998811
v 0.03211946 -0.12169598 0.07709948
v 0.03288393 -0.12169598 0.07709948
v 0.03412459 -0.12988495 0.09008263
v 0.03634966 -0.12481601 0.08280510
v 0.03707783 -0.12971702 0.09069945
v 0.03806011 -0.13043736 0.09224649
v 0.03485916 -0.12155898 0.07731338
v 0.03532041 -0.11569014 0.06831969
v 0.03570478 -0.10981688 0.05932103
v 0.04018268 -0.12990705 0.09333090
v 0.04203192 -0.12836029 0.09347018
v 0.04208958 -0.12842216 0.09643989
v 0.04018268 -0.12984517 0.09651450
v 0.04005882 -0.12834703 0.09844954
v 0.03709064 -0.12859893 0.09857390
v 0.03412459 -0.12860335 0.09857390
v 0.02819249 -0.12860335 0.09857390
v 0.02641158 -0.12475856 0.10097155
v 0.02587987 -0.12532865 0.10045919
v 0.02255934 -0.12611528 0.09643989
v 0.02534388 -0.12589431 0.09994186
v 0.02324480 -0.12611528 0.09863857
v 0.02263621 -0.12611528 0.09347018
v 0.02324480 -0.12611086 0.09064971
v 0.02363771 -0.12775485 0.09172915
v 0.02524779 -0.12840448 0.09064971
v 0.02624929 -0.12787417 0.08859529
v 0.02661017 -0.11875272 0.07410988
v 0.02638809 -0.10702388 0.05610260
v 0.02736396 -0.10405411 0.05092427
v 0.02994350 -0.10462420 0.05092427
v 0.03116281 -0.10476562 0.05092427
v 0.03116281 -0.12645115 0.08456603
v 0.03412459 -0.10463746 0.05092427
v 0.03397298 -0.12240749 0.07843262
v 0.03412459 -0.12744549 0.08629214
v 0.03832703 -0.12456852 0.08318315
v 0.03640518 -0.10424414 0.05092427
v 0.03701377 -0.10409830 0.05092427
v 0.03774194 -0.10392153 0.05092427
v 0.03902744 -0.12782113 0.08867487
v 0.04003534 -0.12839564 0.09055519
v 0.03412459 -0.12405147 0.08101930
v 0.04100694 -0.12722452 0.08960011
v 0.04172870 -0.12784323 0.09157991
v 0.04291170 -0.12611528 0.09347018
v 0.04342419 -0.11127967 0.06974236
v 0.04298217 -0.12611528 0.09643989
v 0.04180130 -0.12793162 0.09819585
v 0.03998622 -0.12589431 0.10002643
v 0.03951430 -0.12538168 0.10045919
v 0.03894629 -0.12475856 0.10097653
v 0.03790209 -0.12562916 0.10045919
v 0.03709278 -0.12482043 0.10101632
v 0.03412459 -0.12482043 0.10101632
v 0.02943742 -0.12568219 0.10045919
v 0.02819462 -0.12567777 0.10045919
v 0.02819462 -0.12482043 0.10101135
v 0.03116281 -0.12314993 0.10167791
v 0.02819462 -0.12314993 0.10146402
v 0.02620871 -0.12314993 0.10109592
v 0.02513034 -0.12314993 0.10045919
v 0.02472462 -0.12314993 0.10021545
v 0.02252944 -0.12314993 0.09643989
v 0.02227533 -0.12314993 0.09347018
v 0.02326188 -0.12314993 0.09873308
v 0.02240346 -0.12314993 0.09050545
v 0.02258283 -0.12018016 0.08456603
v 0.02270668 -0.10535338 0.06083822
v 0.02276647 -0.11127967 0.06974236
v 0.02319782 -0.12021109 0.08168089
v 0.02331313 -0.11663587 0.07567681
v 0.02353307 -0.11014391 0.06473316
v 0.02356724 -0.11601275 0.07373182
v 0.02385125 -0.12448456 0.08625733
v 0.02427192 -0.12709637 0.08974934
v 0.02369537 -0.10690898 0.05923646
v 0.02373380 -0.11277340 0.06823513
v 0.02378932 -0.11862898 0.07724871
v 0.02615960 -0.12200532 0.07958667
v 0.02592471 -0.10440766 0.05259069
v 0.02649913 -0.10359008 0.05092427
v 0.03858541 -0.11869969 0.07418449
v 0.03818396 -0.10377569 0.05092427
v 0.03889931 -0.10697085 0.05618219
v 0.04154506 -0.10979479 0.06232058
v 0.04137423 -0.11563269 0.07138391
v 0.04152584 -0.12461714 0.08607824
v 0.04182052 -0.11303414 0.06783220
v 0.04221130 -0.11363516 0.06974236
v 0.04317008 -0.12314993 0.09050545
v 0.04330034 -0.12314993 0.09347018
v 0.04378507 -0.10831874 0.06677266
v 0.04385127 -0.11127967 0.07270710
v 0.04247181 -0.11134154 0.06681743
v 0.04349893 -0.10535338 0.06083822
v 0.04315300 -0.12314993 0.09643989
v 0.04215578 -0.12295548 0.09960359
v 0.04217499 -0.12611528 0.09874801
v 0.04092579 -0.12382166 0.10072781
v 0.04056064 -0.12462155 0.10045919
v 0.03998622 -0.12295989 0.10123520
v 0.03709278 -0.12314993 0.10172766
v 0.03412459 -0.12314993 0.10173761
v 0.03412459 -0.12022876 0.10161823
v 0.03116281 -0.12040554 0.10155853
v 0.02819462 -0.12090934 0.10134464
v 0.02633897 -0.12139105 0.10108597
v 0.02517092 -0.12266381 0.10045919
v 0.02329178 -0.12079444 0.09643989
v 0.02255720 -0.11721480 0.08753574
v 0.02238637 -0.11424503 0.08160130
v 0.02236075 -0.12018016 0.09050545
v 0.02355656 -0.12140872 0.09827047
v 0.02228387 -0.11721480 0.08456603
v 0.02227533 -0.09645290 0.05193407
v 0.02226893 -0.10238803 0.06083822
v 0.02226679 -0.10831874 0.06974236
v 0.02228387 -0.12018016 0.08753574
v 0.02236929 -0.11721480 0.08160130
v 0.02244830 -0.10238803 0.05786851
v 0.02248887 -0.10831874 0.06677266
v 0.02253158 -0.11424503 0.07567681
v 0.02265543 -0.09941826 0.05193407
v 0.02287324 -0.09941384 0.05092427
v 0.02307397 -0.10252945 0.05480926
v 0.02311240 -0.10842480 0.06376813
v 0.02331313 -0.10530035 0.05809733
v 0.02350745 -0.10427508 0.05573450
v 0.02417796 -0.12121869 0.08074571
v 0.02355656 -0.10124343 0.05092427
v 0.02394307 -0.10361659 0.05375469
v 0.02441072 -0.10625492 0.05726164
v 0.02511967 -0.10268413 0.05092427
v 0.04005242 -0.10294929 0.05092427
v 0.04005882 -0.10424856 0.05283941
v 0.04156428 -0.10388618 0.05339654
v 0.04186109 -0.10716088 0.05884846
v 0.04228176 -0.10782377 0.06083822
v 0.04405200 -0.10831874 0.06974236
v 0.04396658 -0.10831874 0.07270710
v 0.04398580 -0.10535338 0.06380793
v 0.04248249 -0.10543735 0.05786354
v 0.04292024 -0.10238803 0.05490378
v 0.04313378 -0.09941826 0.05193407
v 0.04367190 -0.10238803 0.05786851
v 0.04387049 -0.10535338 0.06974236
v 0.04353096 -0.10831874 0.07567681
v 0.04298431 -0.12018016 0.09347018
v 0.04227963 -0.11996802 0.09661400
v 0.04186750 -0.12099773 0.09940462
v 0.04166464 -0.12142639 0.10045422
v 0.04157281 -0.12162085 0.10092181
v 0.04177995 -0.12223514 0.10045919
v 0.04157281 -0.12184182 0.10092181
v 0.04006096 -0.12103308 0.10126505
v 0.03709278 -0.12033925 0.10160828
v 0.03412459 -0.11874388 0.10085715
v 0.03116281 -0.11892065 0.10066314
v 0.02819249 -0.11942445 0.09998663
v 0.02665074 -0.11865992 0.09798693
v 0.02607419 -0.12107286 0.10045422
v 0.02359287 -0.11552221 0.08934642
v 0.02332167 -0.11496096 0.08753574
v 0.02267892 -0.10535338 0.06974236
v 0.02261486 -0.11127967 0.07863159
v 0.02249314 -0.09645290 0.05490378
v 0.02245257 -0.10238803 0.06380793
v 0.02241413 -0.10831874 0.07270710
v 0.02233085 -0.09941826 0.05786851
v 0.02229669 -0.11127967 0.07567681
v 0.02550617 -0.12040554 0.09911611
v 0.02449186 -0.11930955 0.09643989
v 0.02381281 -0.11878365 0.09483317
v 0.02230096 -0.09941826 0.05490378
v 0.02273658 -0.09332403 0.05092427
v 0.02232018 -0.09645290 0.05092427
v 0.02231804 -0.10535338 0.06380793
v 0.02233939 -0.11127967 0.07270710
v 0.02341349 -0.10155278 0.05193407
v 0.02429968 -0.10200797 0.05092427
v 0.04188245 -0.10163233 0.05092427
v 0.04192088 -0.10435904 0.05490378
v 0.04408189 -0.10535338 0.06677266
v 0.04398793 -0.10238803 0.06380793
v 0.04400502 -0.10238803 0.06083822
v 0.04213229 -0.10114620 0.05092427
v 0.04283697 -0.09944035 0.05092427
v 0.04316154 -0.09841066 0.05092427
v 0.04364414 -0.09941826 0.05490378
v 0.04332170 -0.10535338 0.07270710
v 0.04362919 -0.10238803 0.06677266
v 0.04181625 -0.11825776 0.09573352
v 0.04141053 -0.11884110 0.09771334
v 0.04016346 -0.12027738 0.10045919
v 0.04027877 -0.11945981 0.09958370
v 0.03709278 -0.11885436 0.10072781
v 0.03412459 -0.11847872 0.10045422
v 0.03116281 -0.11789538 0.09917083
v 0.03116281 -0.11877923 0.10045919
v 0.03485703 -0.11851850 0.10045422
v 0.02819249 -0.11832847 0.09850427
v 0.02743656 -0.11604369 0.09447003
v 0.02677032 -0.11279108 0.08898329
v 0.02661657 -0.09194079 0.05648563
v 0.02651621 -0.09780963 0.06548927
v 0.02642012 -0.10367847 0.07449291
v 0.02632830 -0.10953847 0.08348659
v 0.02623647 -0.11540731 0.09249023
v 0.02597809 -0.11816053 0.09643989
v 0.02362703 -0.10964453 0.08035273
v 0.02336651 -0.10912747 0.07863159
v 0.02327683 -0.09405764 0.05490378
v 0.02274512 -0.09941826 0.06083822
v 0.02298428 -0.09321797 0.05219273
v 0.02371885 -0.09790685 0.06237033
v 0.02366974 -0.10377569 0.07136899
v 0.02337933 -0.09129999 0.05092427
v 0.04381924 -0.09941826 0.05786851
v 0.04370180 -0.09941826 0.06083822
v 0.04348826 -0.09645290 0.05193407
v 0.04339643 -0.09645290 0.05092427
v 0.04321279 -0.09941826 0.06380793
v 0.04232020 -0.09938732 0.06666322
v 0.04262770 -0.10214497 0.06996124
v 0.04216859 -0.10299789 0.07270710
v 0.04234369 -0.10530919 0.07562209
v 0.03943316 -0.11818705 0.09871319
v 0.04177568 -0.10360334 0.07459239
v 0.04139344 -0.10099595 0.07110037
v 0.03740668 -0.11876598 0.10045919
v 0.03740668 -0.11876156 0.10045422
v 0.03887796 -0.11556640 0.09520624
v 0.03709064 -0.11784676 0.09924047
v 0.03709064 -0.11866875 0.10045422
v 0.03412459 -0.11776722 0.09936482
v 0.03259565 -0.09199382 0.05937077
v 0.03116281 -0.11545150 0.09539030
v 0.02958049 -0.10975943 0.08611307
v 0.02941820 -0.11562385 0.09512168
v 0.02738318 -0.08932456 0.05296874
v 0.02620444 -0.08868376 0.05098894
v 0.02354802 -0.09468960 0.05683384
v 0.02342417 -0.09147234 0.05136699
v 0.02378292 -0.09205127 0.05334679
v 0.02365479 -0.09090667 0.05092427
v 0.04342419 -0.09544531 0.05092427
v 0.04350747 -0.09645290 0.05490378
v 0.04298858 -0.09247553 0.05092427
v 0.04324696 -0.09645290 0.05786851
v 0.04207676 -0.09721302 0.06380793
v 0.04205328 -0.08983279 0.05092427
v 0.04175005 -0.08917873 0.05092427
v 0.04216218 -0.09393832 0.05786851
v 0.04197427 -0.10035073 0.06912057
v 0.04171588 -0.09773892 0.06559870
v 0.03941394 -0.10053634 0.07179679
v 0.03877332 -0.10378895 0.07727358
v 0.03988159 -0.10323212 0.07562209
v 0.04118844 -0.09518898 0.06198730
v 0.04060122 -0.09837530 0.06757851
v 0.04000758 -0.09945361 0.06969262
v 0.03862171 -0.09792011 0.06828487
v 0.03709064 -0.10370057 0.07741784
v 0.03412459 -0.11532334 0.09558430
v 0.03581154 -0.09198056 0.05938570
v 0.03412459 -0.09198056 0.05938570
v 0.03412459 -0.08954111 0.05560019
v 0.03412459 -0.08653156 0.05092427
v 0.03116281 -0.08679672 0.05092427
v 0.03116281 -0.08967369 0.05539624
v 0.03412459 -0.11192489 0.09032140
v 0.03023819 -0.09803060 0.06811077
v 0.02984528 -0.10389943 0.07710446
v 0.02936054 -0.08890473 0.05361541
v 0.02815832 -0.08768058 0.05092427
v 0.02625996 -0.08861748 0.05092427
v 0.02617455 -0.08867050 0.05092427
v 0.02609767 -0.08872796 0.05092427
v 0.02459009 -0.08992117 0.05092427
v 0.04317649 -0.09348313 0.05092427
v 0.04230525 -0.09051336 0.05092427
v 0.04184401 -0.09458354 0.06000749
v 0.04158562 -0.08893567 0.05092427
v 0.04154079 -0.09200267 0.05638117
v 0.03893348 -0.08884286 0.05372484
v 0.03920894 -0.09468077 0.06277823
v 0.03979190 -0.09741631 0.06666322
v 0.03709064 -0.09785825 0.06837441
v 0.03709064 -0.10030212 0.07215992
v 0.03709064 -0.08669508 0.05092427
v 0.03709064 -0.09682855 0.06677266
v 0.02991147 -0.08715468 0.05092427
v 0.03061829 -0.09216176 0.05910713
v 0.04006310 -0.08782642 0.05092427
f 1 2 3
f 1 3 4
f 1 4 5
f 1 5 6
f 1 6 7
f 1 7 8
f 1 8 9
f 1 9 10
f 1 10 11
f 1 11 2
f 2 11 12
f 2 12 13
f 2 13 14
f 2 14 15
f 2 15 16
f 2 16 3
f 3 16 17
f 3 17 18
f 3 18 4
f 4 18 19
f 4 19 20
f 4 20 5
f 5 20 6
f 6 20 21
f 6 21 22
f 6 22 23
f 6 23 7
f 7 23 24
f 7 24 25
f 7 25 26
f 7 26 8
f 8 26 9
f 9 26 27
f 9 27 28
f 9 28 29
f 9 29 30
f 9 30 31
f 9 31 32
f 9 32 10
f 10 32 33
f 10 33 34
f 10 34 35
f 10 35 11
f 11 35 36
f 11 36 12
f 12 37 38
f 12 38 39
f 12 39 13
f 12 36 40
f 12 40 41
f 12 41 42
f 12 42 37
f 13 39 14
f 14 39 43
f 14 43 44
f 14 44 45
f 14 45 15
f 15 45 46
f 15 46 47
f 15 47 17
f 15 17 16
f 17 47 48
f 17 48 18
f 18 48 19
f 19 48 49
f 19 49 50
f 19 50 20
f 20 50 21
f 21 50 51
f 21 51 52
f 21 52 22
f 22 53 23
f 22 52 54
f 22 54 55
f 22 55 53
f 23 53 56
f 23 56 24
f 24 56 57
f 24 57 58
f 24 58 25
f 25 58 59
f 25 59 26
f 26 59 60
f 26 60 28
f 26 28 27
f 28 60 61
f 28 61 62
f 28 62 63
f 28 63 29
f 29 63 115
f 29 115 167
f 29 167 214
f 29 214 164
f 29 164 158
f 29 158 210
f 29 210 209
f 29 209 251
f 29 251 279
f 29 279 313
f 29 313 312
f 29 312 311
f 29 311 310
f 29 310 309
f 29 309 326
f 29 326 303
f 29 303 302
f 29 302 324
f 29 324 328
f 29 328 317
f 29 317 286
f 29 286 285
f 29 285 315
f 29 315 282
f 29 282 314
f 29 314 280
f 29 280 255
f 29 255 222
f 29 222 221
f 29 221 220
f 29 220 215
f 29 215 168
f 29 168 117
f 29 117 73
f 29 73 72
f 29 72 71
f 29 71 67
f 29 67 65
f 29 65 64
f 29 64 30
f 30 64 31
f 31 64 65
f 31 65 32
f 32 65 66
f 32 66 33
f 33 66 34
f 34 65 35
f 34 66 65
f 35 65 67
f 35 67 68
f 35 68 69
f 35 69 36
f 36 69 40
f 37 70 38
f 37 42 71
f 37 71 72
f 37 72 73
f 37 73 70
f 38 70 39
f 39 70 74
f 39 74 75
f 39 75 43
f 40 76 68
f 40 68 67
f 40 67 41
f 40 69 76
f 41 67 42
f 42 67 71
f 43 75 77
f 43 77 78
f 43 78 44
f 44 79 45
f 44 78 80
f 44 80 79
f 45 81 82
f 45 82 46
f 45 79 81
f 46 82 47
f 47 83 84
f 47 84 85
f 47 85 48
f 47 82 83
f 48 85 86
f 48 86 87
f 48 87 49
f 49 87 88
f 49 88 50
f 50 88 89
f 50 89 90
f 50 90 51
f 51 91 92
f 51 92 93
f 51 93 94
f 51 94 95
f 51 95 96
f 51 96 55
f 51 55 52
f 51 90 91
f 52 55 54
f 53 55 97
f 53 97 98
f 53 98 56
f 55 96 99
f 55 99 97
f 56 98 100
f 56 100 101
f 56 101 102
f 56 102 103
f 56 103 57
f 57 104 105
f 57 105 106
f 57 106 107
f 57 107 58
f 57 103 104
f 58 108 109
f 58 109 59
f 58 107 106
f 58 106 110
f 58 110 111
f 58 111 112
f 58 112 108
f 59 109 60
f 60 109 113
f 60 113 62
f 60 62 61
f 62 114 63
f 62 113 114
f 63 114 115
f 68 76 69
f 70 73 116
f 70 116 74
f 73 117 118
f 73 118 116
f 74 77 75
f 74 116 119
f 74 119 120
f 74 120 77
f 77 120 121
f 77 121 78
f 78 121 122
f 78 122 123
f 78 123 80
f 79 124 125
f 79 125 81
f 79 80 126
f 79 126 127
f 79 127 124
f 80 123 128
f 80 128 129
f 80 129 126
f 81 130 131
f 81 131 132
f 81 132 82
f 81 125 130
f 82 132 133
f 82 133 134
f 82 134 83
f 83 134 84
f 84 134 133
f 84 133 85
f 85 133 135
f 85 135 136
f 85 136 87
f 85 87 86
f 87 136 137
f 87 137 88
f 88 91 89
f 88 137 91
f 89 91 90
f 91 137 92
f 92 137 138
f 92 138 139
f 92 139 93
f 93 140 141
f 93 141 94
f 93 139 140
f 94 141 142
f 94 142 95
f 95 142 96
f 96 142 99
f 97 143 144
f 97 144 145
f 97 145 146
f 97 146 98
f 97 99 147
f 97 147 143
f 98 146 148
f 98 148 149
f 98 149 150
f 98 150 151
f 98 151 152
f 98 152 100
f 99 142 147
f 100 152 153
f 100 153 154
f 100 154 155
f 100 155 156
f 100 156 101
f 101 156 157
f 101 157 102
f 102 157 158
f 102 158 159
f 102 159 103
f 103 159 160
f 103 160 104
f 104 160 161
f 104 161 105
f 105 161 106
f 106 161 162
f 106 162 110
f 108 112 163
f 108 163 109
f 109 163 113
f 110 162 164
f 110 164 165
f 110 165 111
f 111 165 163
f 111 163 112
f 113 163 166
f 113 166 114
f 114 166 165
f 114 165 167
f 114 167 115
f 116 118 119
f 117 168 169
f 117 169 118
f 118 169 119
f 119 122 120
f 119 169 170
f 119 170 171
f 119 171 122
f 120 122 121
f 122 171 172
f 122 172 123
f 123 172 128
f 124 127 125
f 125 127 173
f 125 173 174
f 125 174 130
f 126 129 175
f 126 175 173
f 126 173 127
f 128 172 129
f 129 172 176
f 129 176 177
f 129 177 178
f 129 178 179
f 129 179 175
f 130 174 180
f 130 180 181
f 130 181 182
f 130 182 183
f 130 183 184
f 130 184 185
f 130 185 186
f 130 186 131
f 131 186 187
f 131 187 132
f 132 187 188
f 132 188 133
f 133 188 135
f 135 189 136
f 135 188 189
f 136 189 190
f 136 190 138
f 136 138 137
f 138 191 139
f 138 190 191
f 139 191 192
f 139 192 140
f 140 192 141
f 141 192 193
f 141 193 194
f 141 194 195
f 141 195 147
f 141 147 142
f 143 196 197
f 143 197 198
f 143 198 199
f 143 199 144
f 143 147 196
f 144 199 200
f 144 200 201
f 144 201 202
f 144 202 145
f 145 202 203
f 145 203 146
f 146 203 204
f 146 204 148
f 147 195 205
f 147 205 206
f 147 206 207
f 147 207 196
f 148 204 149
f 149 208 150
f 149 204 203
f 149 203 200
f 149 200 209
f 149 209 210
f 149 210 208
f 150 208 151
f 151 208 152
f 152 208 211
f 152 211 212
f 152 212 153
f 153 212 154
f 154 208 157
f 154 157 155
f 154 212 211
f 154 211 208
f 155 157 156
f 157 208 210
f 157 210 158
f 158 164 213
f 158 213 159
f 159 213 162
f 159 162 161
f 159 161 160
f 162 213 164
f 163 165 166
f 164 214 165
f 165 214 167
f 168 215 170
f 168 170 169
f 170 215 216
f 170 216 171
f 171 216 172
f 172 216 176
f 173 175 217
f 173 217 174
f 174 217 218
f 174 218 180
f 175 179 219
f 175 219 217
f 176 216 215
f 176 215 220
f 176 220 177
f 177 220 221
f 177 221 178
f 178 221 222
f 178 222 179
f 179 222 223
f 179 223 219
f 180 224 181
f 180 218 225
f 180 225 224
f 181 224 183
f 181 183 182
f 183 224 226
f 183 226 184
f 184 226 227
f 184 227 185
f 185 227 186
f 186 228 189
f 186 189 188
f 186 188 187
f 186 227 229
f 186 229 228
f 189 228 230
f 189 230 190
f 190 230 191
f 191 231 232
f 191 232 233
f 191 233 192
f 191 230 234
f 191 234 231
f 192 233 235
f 192 235 193
f 193 235 194
f 194 236 237
f 194 237 238
f 194 238 239
f 194 239 240
f 194 240 241
f 194 241 242
f 194 242 243
f 194 243 206
f 194 206 205
f 194 205 195
f 194 235 236
f 196 207 244
f 196 244 197
f 197 244 245
f 197 245 246
f 197 246 247
f 197 247 198
f 198 247 200
f 198 200 199
f 200 248 209
f 200 203 201
f 200 247 248
f 201 203 202
f 206 243 207
f 207 243 242
f 207 242 249
f 207 249 250
f 207 250 244
f 209 248 251
f 217 219 218
f 218 219 252
f 218 252 253
f 218 253 225
f 219 223 254
f 219 254 252
f 222 255 223
f 223 255 254
f 224 225 256
f 224 256 257
f 224 257 258
f 224 258 259
f 224 259 260
f 224 260 226
f 225 253 256
f 226 260 227
f 227 261 229
f 227 260 259
f 227 259 262
f 227 262 263
f 227 263 261
f 228 229 230
f 229 261 264
f 229 264 230
f 230 264 265
f 230 265 266
f 230 266 267
f 230 267 268
f 230 268 234
f 231 234 267
f 231 267 269
f 231 269 232
f 232 269 270
f 232 270 271
f 232 271 272
f 232 272 273
f 232 273 233
f 233 273 235
f 234 268 267
f 235 273 236
f 236 273 274
f 236 274 237
f 237 274 238
f 238 274 275
f 238 275 239
f 239 275 240
f 240 275 241
f 241 275 242
f 242 275 249
f 244 250 276
f 244 276 246
f 244 246 245
f 246 276 277
f 246 277 251
f 246 251 248
f 246 248 247
f 249 275 278
f 249 278 276
f 249 276 250
f 251 277 279
f 252 254 280
f 252 280 281
f 252 281 253
f 253 281 282
f 253 282 283
f 253 283 256
f 254 255 280
f 256 284 257
f 256 283 285
f 256 285 286
f 256 286 287
f 256 287 284
f 257 284 288
f 257 288 259
f 257 259 258
f 259 288 262
f 261 265 264
f 261 263 266
f 261 266 265
f 262 288 289
f 262 289 263
f 263 290 291
f 263 291 292
f 263 292 266
f 263 289 293
f 263 293 294
f 263 294 295
f 263 295 290
f 266 292 291
f 266 291 267
f 267 291 296
f 267 296 297
f 267 297 269
f 269 298 270
f 269 297 299
f 269 299 298
f 270 300 301
f 270 301 302
f 270 302 303
f 270 303 304
f 270 304 271
f 270 298 305
f 270 305 300
f 271 304 306
f 271 306 307
f 271 307 272
f 272 307 308
f 272 308 273
f 273 308 274
f 274 308 309
f 274 309 275
f 275 309 310
f 275 310 311
f 275 311 312
f 275 312 278
f 276 278 277
f 277 278 279
f 278 312 313
f 278 313 279
f 280 314 281
f 281 314 282
f 282 315 283
f 283 315 285
f 284 287 316
f 284 316 289
f 284 289 288
f 286 317 318
f 286 318 316
f 286 316 287
f 289 316 318
f 289 318 293
f 290 295 296
f 290 296 291
f 293 318 319
f 293 319 294
f 294 319 320
f 294 320 321
f 294 321 295
f 295 321 296
f 296 322 323
f 296 323 297
f 296 321 320
f 296 320 319
f 296 319 324
f 296 324 299
f 296 299 325
f 296 325 322
f 297 323 299
f 298 299 305
f 299 324 302
f 299 302 301
f 299 301 300
f 299 300 305
f 299 323 322
f 299 322 325
f 303 326 308
f 303 308 327
f 303 327 304
f 304 327 306
f 306 327 308
f 306 308 307
f 308 326 309
f 317 328 318
f 318 328 319
f 319 328 324

