# https://github.com/mikedh/trimesh
v 0.00264027 -0.08032482 -0.06808664
v 0.00272262 -0.08032482 -0.06820843
v 0.00264027 -0.08032482 -0.05637350
v 0.00264027 -0.07532024 -0.07859062
v 0.00288216 -0.08032482 -0.06835413
v 0.00445706 -0.07614903 -0.07859062
v 0.04074143 -0.08032482 -0.05637350
v 0.00264027 0.06641801 -0.05637350
v 0.00264027 0.08246776 -0.07859062
v 0.00445191 -0.08032482 -0.06893914
v 0.00449823 -0.07614903 -0.07859062
v 0.01928990 -0.08032482 -0.06896524
v 0.04055615 -0.08032482 -0.05913542
v 0.05384498 -0.06572545 -0.05637350
v 0.04896074 0.06641801 -0.05637350
v 0.00264027 0.06643395 -0.05638872
v 0.00264027 0.08226056 -0.07829269
v 0.04896074 0.08246776 -0.07859062
v 0.03412790 -0.07611716 -0.07859062
v 0.03412275 -0.08032482 -0.06895001
v 0.04017015 -0.08032482 -0.06210394
v 0.03938785 -0.08032482 -0.06532037
v 0.05436480 -0.05833014 -0.07859062
v 0.05420525 -0.06505605 -0.05637350
v 0.05005700 0.06638614 -0.05637350
v 0.04896074 0.06734243 -0.05764137
v 0.00264027 0.06734243 -0.05764137
v 0.04896074 0.08226056 -0.07829269
v 0.00264027 0.07971044 -0.07475656
v 0.04952688 0.08245182 -0.07859062
v 0.03652627 -0.08032482 -0.06878691
v 0.03622776 -0.08032482 -0.06884127
v 0.03708726 -0.07552744 -0.07859062
v 0.03907904 -0.08032482 -0.06634250
v 0.05446259 -0.05802731 -0.07859062
v 0.05466846 -0.06387662 -0.05637350
v 0.03866730 -0.08032482 -0.06727764
v 0.03878568 -0.07444364 -0.07859062
v 0.05193040 0.06630644 -0.05637350
v 0.05045844 0.07714441 -0.07122044
v 0.04896074 0.06965346 -0.06083607
v 0.00264027 0.06965346 -0.06083607
v 0.04896074 0.07971044 -0.07475656
v 0.00264027 0.07757474 -0.07179674
v 0.05193040 0.08235619 -0.07859062
v 0.03720564 -0.08032482 -0.06841068
v 0.03843056 -0.08003794 -0.06814536
v 0.03816293 -0.08032482 -0.06786917
v 0.05518313 -0.05488749 -0.07859062
v 0.05510078 -0.06231468 -0.05637350
v 0.05376778 0.06578048 -0.05637350
v 0.05345383 0.06828278 -0.05930288
v 0.05193040 0.06727867 -0.05771749
v 0.05193040 0.07964670 -0.07483268
v 0.04896074 0.07822820 -0.07270361
v 0.05193040 0.07198044 -0.06422213
v 0.05214142 0.08234025 -0.07859062
v 0.05521401 -0.05192299 -0.07859062
v 0.05520371 -0.06083243 -0.05786755
v 0.05520886 -0.06083243 -0.05637350
v 0.05412805 0.06511108 -0.05637350
v 0.05383983 0.07167761 -0.06462881
v 0.05362367 0.07437116 -0.06797573
v 0.05376263 0.08047549 -0.07664858
v 0.05243478 0.07706472 -0.07132047
v 0.05400967 0.08139990 -0.07859062
v 0.05521916 -0.04895848 -0.07859062
v 0.05521916 -0.05192299 -0.07270361
v 0.05521916 -0.05488749 -0.06677093
v 0.05521916 -0.05785199 -0.06083607
v 0.05521916 -0.05935018 -0.05637350
v 0.05461184 0.06382009 -0.05637350
v 0.05476625 0.06676865 -0.06083607
v 0.05436480 0.06987659 -0.06370454
v 0.05429789 0.07872228 -0.07566343
v 0.05393762 0.07778194 -0.07329949
v 0.05406629 0.08128834 -0.07859062
v 0.05521916 0.07561434 -0.07859062
v 0.05521916 0.05932552 -0.05637350
v 0.05506475 0.06230596 -0.05637350
v 0.05499270 0.06378821 -0.05786755
v 0.05491550 0.07269765 -0.06973727
v 0.05501329 0.07862666 -0.07859062
v 0.05502873 0.07857883 -0.07859062
v 0.05515739 0.07566215 -0.07567212
v 0.05520886 0.07269765 -0.07270361
v 0.05521916 0.06973315 -0.06973727
v 0.05521916 0.06082371 -0.05786755
v 0.05517798 0.06082371 -0.05637350
v 0.05518313 0.06676865 -0.06380458
v 0.05508534 0.06973315 -0.06677093
v 0.05521916 0.06378821 -0.06083607
f 1 2 5
f 1 5 10
f 1 10 12
f 1 12 20
f 1 20 32
f 1 32 31
f 1 31 46
f 1 46 48
f 1 48 37
f 1 37 34
f 1 34 22
f 1 22 21
f 1 21 13
f 1 13 7
f 1 7 3
f 1 3 8
f 1 8 16
f 1 16 27
f 1 27 42
f 1 42 44
f 1 44 29
f 1 29 17
f 1 17 9
f 1 9 4
f 1 4 2
f 2 4 6
f 2 6 5
f 3 7 14
f 3 14 24
f 3 24 36
f 3 36 50
f 3 50 60
f 3 60 71
f 3 71 79
f 3 79 89
f 3 89 80
f 3 80 72
f 3 72 61
f 3 61 51
f 3 51 39
f 3 39 25
f 3 25 15
f 3 15 8
f 4 9 18
f 4 18 30
f 4 30 45
f 4 45 57
f 4 57 66
f 4 66 77
f 4 77 83
f 4 83 84
f 4 84 78
f 4 78 67
f 4 67 58
f 4 58 49
f 4 49 35
f 4 35 23
f 4 23 38
f 4 38 33
f 4 33 19
f 4 19 11
f 4 11 6
f 5 6 10
f 6 11 12
f 6 12 10
f 7 13 14
f 8 15 16
f 9 17 28
f 9 28 18
f 11 19 20
f 11 20 12
f 13 21 14
f 14 21 22
f 14 22 23
f 14 23 24
f 15 25 26
f 15 26 16
f 16 26 27
f 17 29 43
f 17 43 28
f 18 28 30
f 19 31 32
f 19 32 20
f 19 33 31
f 22 34 23
f 23 35 36
f 23 36 24
f 23 34 37
f 23 37 38
f 25 39 40
f 25 40 26
f 26 41 42
f 26 42 27
f 26 40 41
f 28 43 40
f 28 40 30
f 29 44 43
f 30 40 45
f 31 33 46
f 33 38 47
f 33 47 48
f 33 48 46
f 35 49 50
f 35 50 36
f 37 48 47
f 37 47 38
f 39 51 52
f 39 52 53
f 39 53 40
f 40 54 45
f 40 43 55
f 40 55 41
f 40 53 56
f 40 56 54
f 41 55 44
f 41 44 42
f 43 44 55
f 45 54 57
f 49 58 59
f 49 59 50
f 50 59 60
f 51 61 62
f 51 62 63
f 51 63 52
f 52 63 64
f 52 64 57
f 52 57 65
f 52 65 53
f 53 65 56
f 54 65 57
f 54 56 65
f 57 64 66
f 58 67 68
f 58 68 69
f 58 69 70
f 58 70 60
f 58 60 59
f 60 70 71
f 61 72 73
f 61 73 74
f 61 74 75
f 61 75 76
f 61 76 62
f 62 76 64
f 62 64 63
f 64 76 66
f 66 76 77
f 67 78 87
f 67 87 92
f 67 92 88
f 67 88 79
f 67 79 71
f 67 71 70
f 67 70 69
f 67 69 68
f 72 80 81
f 72 81 73
f 73 81 82
f 73 82 75
f 73 75 74
f 75 82 83
f 75 83 77
f 75 77 76
f 78 84 85
f 78 85 86
f 78 86 87
f 79 88 89
f 80 89 90
f 80 90 85
f 80 85 91
f 80 91 81
f 81 91 84
f 81 84 82
f 82 84 83
f 84 91 85
f 85 90 86
f 86 90 92
f 86 92 87
f 88 92 89
f 89 92 90

