# https://github.com/mikedh/trimesh
v 0.05521916 -0.08034315 0.01631591
v 0.05521916 -0.08457621 0.01631591
v 0.05521916 -0.08034315 -0.01461920
v 0.05516769 -0.08034315 0.01928502
v 0.05520886 -0.09051110 0.01334679
v 0.05521916 -0.09347736 0.01037768
v 0.05512652 -0.08160995 0.01928502
v 0.05521916 -0.08160995 -0.01335175
v 0.05519857 -0.08034315 -0.01758831
v 0.05438024 -0.08034315 0.02225413
v 0.05500299 -0.09347736 0.01334679
v 0.05507505 -0.08754486 0.01631591
v 0.05479198 -0.09644362 0.01037768
v 0.05516769 -0.09347736 0.00740857
v 0.05517798 -0.08754486 -0.00445615
v 0.05518313 -0.08457621 -0.01038264
v 0.05518313 -0.08160995 -0.01632087
v 0.05521916 -0.08457621 -0.00742526
v 0.04316039 -0.09840359 0.05092426
v 0.05502358 -0.08034315 -0.02054569
v 0.05355162 -0.08034315 0.02369761
v 0.04204870 -0.08982989 0.05092426
v 0.04230089 -0.09050872 0.05092426
v 0.04299055 -0.09247108 0.05092426
v 0.04317583 -0.09347736 0.05092426
v 0.04342287 -0.09543734 0.05092426
v 0.04339714 -0.09644362 0.05092426
v 0.05427216 -0.09646991 0.01345241
v 0.05389130 -0.09836296 0.01037768
v 0.05417952 -0.09651293 0.00757287
v 0.05483830 -0.09347736 0.00445119
v 0.05391703 -0.09839642 0.01253703
v 0.05488977 -0.08457621 -0.01335175
v 0.05490520 -0.08160995 -0.01927824
v 0.04283615 -0.09943377 0.05092426
v 0.05455008 -0.08034315 -0.02355001
v 0.04741673 -0.08034315 0.03384893
v 0.04716968 -0.08094070 0.03496381
v 0.04174504 -0.08917259 0.05092426
v 0.05393248 -0.09551143 0.00445119
v 0.03774090 -0.10391303 0.05092426
v 0.05193040 -0.09891271 0.01037768
v 0.03709241 -0.10000265 -0.03709292
v 0.03915110 -0.09869759 -0.03709292
v 0.03885258 -0.09828169 -0.03915839
v 0.05395306 -0.09256908 -0.00148704
v 0.05396851 -0.08962673 -0.00742526
v 0.05400453 -0.08373964 -0.01927824
v 0.05401997 -0.08079490 -0.02521647
v 0.05419496 -0.09355385 0.00161117
v 0.05421040 -0.08034315 -0.02521647
v 0.04213105 -0.10114038 0.05092426
v 0.04188400 -0.10162321 0.05092426
v 0.04005177 -0.10294021 0.05092426
v 0.03818351 -0.10376962 0.05092426
v 0.04687118 -0.08034315 0.03471736
v 0.04556391 -0.08034315 0.03673589
v 0.04447280 -0.08034315 0.03836715
v 0.04158550 -0.08892879 0.05092426
v 0.03640275 -0.10423810 0.05092426
v 0.03412275 -0.10034444 -0.03709292
v 0.03701521 -0.09865935 -0.04010897
v 0.03412275 -0.10463009 0.05092426
v 0.03795191 -0.09764589 -0.04112997
v 0.03834306 -0.09186158 -0.05024855
v 0.03857467 -0.08606293 -0.05934366
v 0.03878053 -0.08928015 -0.05385139
v 0.05365970 -0.08034315 -0.02711764
v 0.05407144 -0.08034315 -0.02587367
v 0.04425150 -0.08034315 0.03861359
v 0.04006207 -0.08781973 0.05092426
v 0.02082877 -0.10090853 -0.03566117
v 0.00613489 -0.10093243 -0.03576680
v 0.00456514 -0.10045917 -0.03688168
v 0.01909948 -0.09880754 -0.04033195
v 0.03395291 -0.09880276 -0.04032021
v 0.03597043 -0.09804267 -0.04171676
v 0.03115824 -0.10475916 0.05092426
v 0.03582632 -0.08910088 -0.05649191
v 0.03780780 -0.08865391 -0.05582297
v 0.03887317 -0.08652423 -0.05786498
v 0.03709241 -0.08637604 -0.05982483
v 0.03709241 -0.08537215 -0.06131525
v 0.03816293 -0.08034315 -0.06786373
v 0.03866730 -0.08034315 -0.06726521
v 0.03880627 -0.08340022 -0.06277047
v 0.03897096 -0.08072558 -0.06616206
v 0.03907904 -0.08034315 -0.06633809
v 0.04269204 -0.08034315 0.03944682
v 0.03709241 -0.08669155 0.05092426
v 0.00563051 -0.10093243 -0.03576680
v 0.00264027 -0.09946245 -0.03702251
v 0.00264027 -0.09874778 -0.03914666
v 0.00264027 -0.09854222 -0.03960434
v 0.00430780 -0.09881710 -0.04030848
v 0.00563051 -0.10093243 -0.03555555
v 0.00264027 -0.09902743 0.01037768
v 0.00519819 -0.09806658 -0.04175196
v 0.00645399 -0.09806658 -0.04175196
v 0.02993847 -0.10461814 0.05092426
v 0.00627385 -0.08912479 -0.05652712
v 0.03572853 -0.08313252 -0.06532883
v 0.03686595 -0.08375397 -0.06376800
v 0.03720564 -0.08034315 -0.06840357
v 0.04068996 -0.08034315 0.04044435
v 0.03412275 -0.08652901 0.05092426
v 0.04005692 -0.08054870 0.04096072
v 0.04005692 -0.08034315 0.04065559
v 0.03709241 -0.08279312 0.04496256
v 0.00321670 -0.09787535 -0.04145857
v 0.00264027 -0.09199543 -0.05047153
v 0.00283070 -0.09210060 -0.05062410
v 0.00342257 -0.08893357 -0.05622199
v 0.00540406 -0.08912479 -0.05652712
v 0.02860032 -0.10438869 0.05092426
v 0.02736511 -0.10404688 0.05092426
v 0.00264027 -0.09892227 0.01141041
v 0.00615548 -0.08315403 -0.06536404
v 0.03412275 -0.08034315 -0.06894340
v 0.03622776 -0.08034315 -0.06883779
v 0.03644907 -0.08043875 -0.06868522
v 0.03652627 -0.08034315 -0.06877911
v 0.03412275 -0.08518571 0.04883532
v 0.03115824 -0.08287916 0.04484521
v 0.03115824 -0.08531718 0.04863581
v 0.03115824 -0.08678955 0.05092426
v 0.03709241 -0.08153586 0.04302618
v 0.03709241 -0.08035031 0.04119543
v 0.03712329 -0.08034315 0.04117195
v 0.00264027 -0.09181616 -0.05076492
v 0.00264027 -0.08633541 -0.05960184
v 0.00267629 -0.08629956 -0.05971920
v 0.00362844 -0.08295325 -0.06509412
v 0.00445191 -0.08558488 -0.06162038
v 0.00445191 -0.08656964 -0.06012995
v 0.00443133 -0.08819260 -0.05765374
v 0.00560992 -0.08315403 -0.06536404
v 0.02650046 -0.10358318 0.05092426
v 0.00264027 -0.09875735 0.01300646
v 0.01928990 -0.08034315 -0.06896687
v 0.03412275 -0.08034315 0.04130105
v 0.03115824 -0.08172469 0.04302618
v 0.02951129 -0.08302735 0.04461049
v 0.02990759 -0.08715047 0.05092426
v 0.03640789 -0.08034315 0.04120716
v 0.00264027 -0.08624218 -0.05974268
v 0.00264027 -0.08042680 -0.06796935
v 0.00272262 -0.08034315 -0.06820406
v 0.00288216 -0.08034315 -0.06834489
v 0.00344316 -0.08034315 -0.06855613
v 0.00445191 -0.08034315 -0.06893167
v 0.00455485 -0.08393563 -0.06397924
v 0.02512114 -0.10267729 0.05092426
v 0.00264027 -0.09823627 0.01359324
v 0.02430281 -0.10200325 0.05092426
v 0.02355654 -0.10123838 0.05092426
v 0.03145675 -0.08034315 0.04089030
v 0.03115824 -0.08045309 0.04101940
v 0.02815770 -0.08767631 0.05092426
v 0.03115824 -0.08034315 0.04084336
v 0.02841504 -0.08034315 0.03961112
v 0.00264027 -0.08034315 0.02402621
v 0.00264027 -0.08034315 -0.06808671
v 0.00264027 -0.09742121 0.01449688
v 0.02287202 -0.09940509 0.05092426
v 0.02625856 -0.08861327 0.05092426
v 0.00264027 -0.08049851 0.02394406
v 0.02232132 -0.09644362 0.05092426
v 0.02273821 -0.09331483 0.05092426
v 0.02338155 -0.09129271 0.05092426
v 0.02365432 -0.09090311 0.05092426
v 0.02459103 -0.08991356 0.05092426
v 0.02609902 -0.08872323 0.05092426
v 0.02617622 -0.08866347 0.05092426
v 0.00264027 -0.09684517 0.01483722
v 0.00264027 -0.08198283 0.02312257
v 0.00264027 -0.09120188 0.01800583
v 0.00264027 -0.09497841 0.01590516
v 0.00264027 -0.09593928 0.01536532
f 1 2 6
f 1 6 18
f 1 18 8
f 1 8 3
f 1 3 9
f 1 9 20
f 1 20 36
f 1 36 51
f 1 51 69
f 1 69 68
f 1 68 88
f 1 88 85
f 1 85 84
f 1 84 104
f 1 104 122
f 1 122 120
f 1 120 119
f 1 119 140
f 1 140 151
f 1 151 150
f 1 150 149
f 1 149 148
f 1 148 163
f 1 163 162
f 1 162 161
f 1 161 160
f 1 160 157
f 1 157 141
f 1 141 145
f 1 145 129
f 1 129 108
f 1 108 105
f 1 105 89
f 1 89 70
f 1 70 58
f 1 58 57
f 1 57 56
f 1 56 37
f 1 37 21
f 1 21 10
f 1 10 4
f 1 4 2
f 2 5 6
f 2 4 7
f 2 7 5
f 3 8 9
f 4 10 7
f 5 11 6
f 5 7 12
f 5 12 11
f 6 11 13
f 6 13 14
f 6 14 15
f 6 15 16
f 6 16 17
f 6 17 9
f 6 9 18
f 7 10 19
f 7 19 12
f 8 18 9
f 9 17 20
f 10 21 22
f 10 22 23
f 10 23 24
f 10 24 25
f 10 25 26
f 10 26 27
f 10 27 19
f 11 28 13
f 11 12 19
f 11 19 28
f 13 29 30
f 13 30 31
f 13 31 14
f 13 28 32
f 13 32 29
f 14 31 33
f 14 33 34
f 14 34 15
f 15 34 16
f 16 34 17
f 17 34 20
f 19 27 26
f 19 26 25
f 19 25 24
f 19 24 23
f 19 23 22
f 19 22 39
f 19 39 59
f 19 59 71
f 19 71 90
f 19 90 106
f 19 106 126
f 19 126 144
f 19 144 159
f 19 159 166
f 19 166 174
f 19 174 173
f 19 173 172
f 19 172 171
f 19 171 170
f 19 170 169
f 19 169 168
f 19 168 165
f 19 165 156
f 19 156 155
f 19 155 153
f 19 153 138
f 19 138 116
f 19 116 115
f 19 115 100
f 19 100 78
f 19 78 63
f 19 63 60
f 19 60 41
f 19 41 55
f 19 55 54
f 19 54 53
f 19 53 52
f 19 52 35
f 19 35 28
f 20 34 36
f 21 37 38
f 21 38 39
f 21 39 22
f 28 35 32
f 29 40 30
f 29 32 41
f 29 41 42
f 29 42 43
f 29 43 44
f 29 44 45
f 29 45 40
f 30 40 46
f 30 46 47
f 30 47 48
f 30 48 49
f 30 49 50
f 30 50 31
f 31 50 49
f 31 49 51
f 31 51 33
f 32 35 52
f 32 52 53
f 32 53 54
f 32 54 55
f 32 55 41
f 33 51 34
f 34 51 36
f 37 56 38
f 38 56 57
f 38 57 58
f 38 58 59
f 38 59 39
f 40 45 46
f 41 60 42
f 42 60 43
f 43 61 62
f 43 62 45
f 43 45 44
f 43 60 63
f 43 63 61
f 45 62 64
f 45 64 65
f 45 65 66
f 45 66 67
f 45 67 68
f 45 68 49
f 45 49 47
f 45 47 46
f 47 49 48
f 49 68 69
f 49 69 51
f 58 70 59
f 59 70 71
f 61 72 73
f 61 73 74
f 61 74 75
f 61 75 76
f 61 76 77
f 61 77 62
f 61 63 78
f 61 78 72
f 62 77 79
f 62 79 64
f 64 79 65
f 65 79 80
f 65 80 66
f 66 81 67
f 66 80 79
f 66 79 82
f 66 82 83
f 66 83 84
f 66 84 85
f 66 85 86
f 66 86 81
f 67 81 68
f 68 81 86
f 68 86 87
f 68 87 88
f 70 89 71
f 71 89 90
f 72 78 73
f 73 91 74
f 73 78 91
f 74 92 93
f 74 93 94
f 74 94 95
f 74 95 75
f 74 91 96
f 74 96 97
f 74 97 92
f 75 95 98
f 75 98 99
f 75 99 76
f 76 99 77
f 77 99 79
f 78 100 91
f 79 101 102
f 79 102 83
f 79 83 82
f 79 99 101
f 83 102 103
f 83 103 84
f 84 103 102
f 84 102 104
f 85 88 87
f 85 87 86
f 89 105 90
f 90 105 107
f 90 107 108
f 90 108 109
f 90 109 106
f 91 100 96
f 92 97 117
f 92 117 139
f 92 139 154
f 92 154 164
f 92 164 175
f 92 175 179
f 92 179 178
f 92 178 177
f 92 177 176
f 92 176 167
f 92 167 162
f 92 162 163
f 92 163 147
f 92 147 146
f 92 146 131
f 92 131 130
f 92 130 111
f 92 111 94
f 92 94 93
f 94 110 95
f 94 111 112
f 94 112 110
f 95 110 113
f 95 113 114
f 95 114 98
f 96 100 115
f 96 115 97
f 97 115 116
f 97 116 117
f 98 114 101
f 98 101 99
f 101 114 137
f 101 137 118
f 101 118 102
f 102 118 119
f 102 119 120
f 102 120 121
f 102 121 122
f 102 122 104
f 105 108 107
f 106 123 124
f 106 124 125
f 106 125 126
f 106 109 127
f 106 127 128
f 106 128 123
f 108 129 128
f 108 128 127
f 108 127 109
f 110 112 113
f 111 130 112
f 112 130 131
f 112 131 132
f 112 132 113
f 113 132 133
f 113 133 134
f 113 134 135
f 113 135 136
f 113 136 114
f 114 136 135
f 114 135 134
f 114 134 137
f 116 138 139
f 116 139 117
f 118 137 140
f 118 140 119
f 120 122 121
f 123 128 141
f 123 141 124
f 124 141 142
f 124 142 143
f 124 143 125
f 125 143 126
f 126 143 144
f 128 129 145
f 128 145 141
f 131 146 132
f 132 146 147
f 132 147 148
f 132 148 149
f 132 149 133
f 133 149 150
f 133 150 151
f 133 151 137
f 133 137 152
f 133 152 134
f 134 152 137
f 137 151 140
f 138 153 139
f 139 153 155
f 139 155 156
f 139 156 154
f 141 157 158
f 141 158 142
f 142 158 143
f 143 159 144
f 143 158 160
f 143 160 161
f 143 161 162
f 143 162 159
f 147 163 148
f 154 156 164
f 156 165 164
f 157 160 158
f 159 162 166
f 162 167 165
f 162 165 168
f 162 168 169
f 162 169 170
f 162 170 171
f 162 171 172
f 162 172 173
f 162 173 174
f 162 174 166
f 164 165 175
f 165 167 176
f 165 176 177
f 165 177 178
f 165 178 179
f 165 179 175

