# https://github.com/mikedh/trimesh
v 0.04244968 -0.08397216 0.11365007
v 0.04228294 -0.08397216 0.11068281
v 0.03656191 -0.08396960 0.10046054
v 0.04238681 -0.08397216 0.11661734
v 0.04170072 -0.09919130 0.14118137
v 0.04162418 -0.10237837 0.14297090
v 0.04165152 -0.10232977 0.14116607
v 0.04155858 -0.10390540 0.14229281
v 0.04187293 -0.08450164 0.10857718
v 0.04199593 -0.08397216 0.10853129
v 0.04155312 -0.10092296 0.13646025
v 0.03326269 -0.08397216 0.13341652
v 0.03413738 -0.08397216 0.13332475
v 0.03711953 -0.08397216 0.13196348
v 0.03718240 -0.08397216 0.13191759
v 0.03906572 -0.08397216 0.12961313
v 0.03950306 -0.08397216 0.12895033
v 0.03963153 -0.08397216 0.12866483
v 0.04093264 -0.08397216 0.12527439
v 0.04129071 -0.08397216 0.12426492
v 0.04141918 -0.08397216 0.12373468
v 0.04168706 -0.08397216 0.12255695
v 0.04174172 -0.08397216 0.12223066
v 0.04211894 -0.08397216 0.11958459
v 0.04191393 -0.08397216 0.10792458
v 0.04179639 -0.08397216 0.10734337
v 0.04071670 -0.08397216 0.10478398
v 0.03956593 -0.08397216 0.10296385
v 0.03907392 -0.08397216 0.10240812
v 0.03708673 -0.08397216 0.10072566
v 0.03606443 -0.08622562 0.10361644
v 0.03420844 -0.08396960 0.09931340
v 0.01930043 -0.08396960 0.10046054
v 0.03115796 -0.08397216 0.13362046
v 0.04164879 -0.09736756 0.14034013
v 0.04163785 -0.10003283 0.14309835
v 0.04141098 -0.09919130 0.14402627
v 0.04108024 -0.10237837 0.14445453
v 0.04155858 -0.10390540 0.14248655
v 0.04082330 -0.10507433 0.14116607
v 0.04144652 -0.10328896 0.14031463
v 0.04156679 -0.08610284 0.10973451
v 0.04121144 -0.10271089 0.13798977
v 0.03324355 -0.08599541 0.13660811
v 0.03412644 -0.09188355 0.14558127
v 0.03522254 -0.08610796 0.13643476
v 0.03565169 -0.09197819 0.14543342
v 0.03762794 -0.09248465 0.14464827
v 0.03823203 -0.08924131 0.13916240
v 0.03867484 -0.08596216 0.13369184
v 0.03907938 -0.08541478 0.13205525
v 0.03898098 -0.09446442 0.14611151
v 0.03934179 -0.09347709 0.14376624
v 0.04033675 -0.09348221 0.14095193
v 0.04079596 -0.09644930 0.14392429
v 0.04133445 -0.09641093 0.14118137
v 0.04153125 -0.09805563 0.14231831
v 0.03909305 -0.08648652 0.10616563
v 0.04107477 -0.08544036 0.10775634
v 0.03874591 -0.10402050 0.13328906
v 0.03804069 -0.08585728 0.10419256
v 0.03569269 -0.09796098 0.12161885
v 0.03586762 -0.09209842 0.11262019
v 0.03488086 -0.08884228 0.10712413
v 0.03413464 -0.08396960 0.09927772
v 0.01949723 -0.08396960 0.10029739
v 0.01947536 -0.08406680 0.10046054
v 0.01825900 -0.08397216 0.10134256
v 0.01734604 -0.08397216 0.10257637
v 0.01712190 -0.08397216 0.10301993
v 0.01630461 -0.08397216 0.10522244
v 0.01530418 -0.08397216 0.10817950
v 0.01486684 -0.08397216 0.11005061
v 0.01467276 -0.08397216 0.11137109
v 0.01465636 -0.08397216 0.11158522
v 0.01460989 -0.08397216 0.11410383
v 0.01463996 -0.08397216 0.11733620
v 0.01478210 -0.08397216 0.11928888
v 0.01497070 -0.08397216 0.12045132
v 0.01510191 -0.08397216 0.12099685
v 0.01581533 -0.08397216 0.12309228
v 0.01688956 -0.08397216 0.12589640
v 0.01794192 -0.08397216 0.12773182
v 0.01921842 -0.08397216 0.12906759
v 0.01927856 -0.08397216 0.12912368
v 0.02098421 -0.08397216 0.13055632
v 0.02218144 -0.08397216 0.13141795
v 0.02257505 -0.08397216 0.13166778
v 0.02525926 -0.08397216 0.13288118
v 0.02755806 -0.08397216 0.13337573
v 0.02819221 -0.08397216 0.13350319
v 0.02819221 -0.08598518 0.13662341
v 0.02819221 -0.09069672 0.14392429
v 0.03115796 -0.08934618 0.14194612
v 0.03947573 -0.09641093 0.14701902
v 0.03883064 -0.09737268 0.14856383
v 0.03979007 -0.09950336 0.14711589
v 0.03959326 -0.10237837 0.14626446
v 0.03901105 -0.10428140 0.14567814
v 0.04001694 -0.10508200 0.14369486
v 0.03923245 -0.10739173 0.14095193
v 0.03904111 -0.10720757 0.14292501
v 0.03898918 -0.10719990 0.13880552
v 0.03974360 -0.10550661 0.13788781
v 0.03115796 -0.09178891 0.14572913
v 0.03115796 -0.09281205 0.14721785
v 0.03412644 -0.09291180 0.14706490
v 0.03624210 -0.09464602 0.14867090
v 0.03693639 -0.09356661 0.14676410
v 0.03822109 -0.09539803 0.14808968
v 0.03871311 -0.09184774 0.14267009
v 0.03865570 -0.08909040 0.10970392
v 0.03816642 -0.10660392 0.13683244
v 0.03619017 -0.10708479 0.13610846
v 0.03548768 -0.10383122 0.13061750
v 0.03412644 -0.08554268 0.10170965
v 0.03462666 -0.09471508 0.11612789
v 0.03264767 -0.09496831 0.11573531
v 0.03115523 -0.08396960 0.09824275
v 0.03289914 -0.08909551 0.10673666
v 0.02172223 -0.08396960 0.09888005
v 0.02018605 -0.08635095 0.10342271
v 0.01923482 -0.08704157 0.10525812
v 0.01820706 -0.08582404 0.10420786
v 0.01773418 -0.08910062 0.10969373
v 0.01740891 -0.08647884 0.10618603
v 0.01708090 -0.08749942 0.10855168
v 0.01668182 -0.08473184 0.10525812
v 0.01541898 -0.08440955 0.10841402
v 0.01519484 -0.08754802 0.11407324
v 0.01505271 -0.08536106 0.11128951
v 0.01487230 -0.08590589 0.11296179
v 0.01470010 -0.08656069 0.11493996
v 0.01459623 -0.08478299 0.11407324
v 0.01467276 -0.08972218 0.12019130
v 0.01460169 -0.09658487 0.13198897
v 0.01452789 -0.08754547 0.12019130
v 0.01461809 -0.08430468 0.11748915
v 0.01463723 -0.08745594 0.12316366
v 0.01469463 -0.08517178 0.12019130
v 0.01475750 -0.08853023 0.12611563
v 0.01476297 -0.09754661 0.14016678
v 0.01483403 -0.08901111 0.12763495
v 0.01489964 -0.08640467 0.12414765
v 0.01517024 -0.08704668 0.12611563
v 0.01538345 -0.08473439 0.12316366
v 0.01667362 -0.08444536 0.12616152
v 0.01702076 -0.08759151 0.13183092
v 0.01728317 -0.08546338 0.12908289
v 0.01771778 -0.08598518 0.13069398
v 0.01923756 -0.08398239 0.12910329
v 0.02068353 -0.08601332 0.13361535
v 0.02133682 -0.08926433 0.13910632
v 0.02240011 -0.08416144 0.13185132
v 0.02331581 -0.08886275 0.13973342
v 0.02463604 -0.08624864 0.13622063
v 0.02661503 -0.08604401 0.13653163
v 0.02819221 -0.09182729 0.14566795
v 0.03717419 -0.09641093 0.14895640
v 0.03883064 -0.09857487 0.14856383
v 0.03708946 -0.10054696 0.14822733
v 0.03708946 -0.10237837 0.14715157
v 0.03708946 -0.10449370 0.14581070
v 0.03708946 -0.10597725 0.14475533
v 0.03708946 -0.10758101 0.14327170
v 0.03708946 -0.10845835 0.14095193
v 0.03276521 -0.10982168 0.13941222
v 0.03714413 -0.10768333 0.13788781
v 0.02819221 -0.09285554 0.14715157
v 0.02819221 -0.09433908 0.14894112
v 0.03115796 -0.09429560 0.14898190
v 0.03412644 -0.09439535 0.14889522
v 0.03412644 -0.09644930 0.14962430
v 0.03389957 -0.10895457 0.13824979
v 0.03412644 -0.10740452 0.13560883
v 0.03351143 -0.10408701 0.13021473
v 0.03115796 -0.09621654 0.11722404
v 0.03115796 -0.09415492 0.11402735
v 0.03115796 -0.08587519 0.10118961
v 0.03197252 -0.10670368 0.13373262
v 0.03115796 -0.10338360 0.12833853
v 0.02820314 -0.08396960 0.09763094
v 0.02927191 -0.08603378 0.10094489
v 0.02225798 -0.08396960 0.09865062
v 0.02225798 -0.08446582 0.09941538
v 0.02100061 -0.08896762 0.10693550
v 0.02031452 -0.09222119 0.11242646
v 0.01780252 -0.09496831 0.11870257
v 0.01758111 -0.10408701 0.13318709
v 0.01746084 -0.09235164 0.11518979
v 0.01714923 -0.10466508 0.13501741
v 0.01708090 -0.09883320 0.12611563
v 0.01681576 -0.09652348 0.12318405
v 0.01674742 -0.09062766 0.11422109
v 0.01616247 -0.09348221 0.12019130
v 0.01605040 -0.08754547 0.11128951
v 0.01528778 -0.09933199 0.13198897
v 0.01523858 -0.09344128 0.12303620
v 0.01515931 -0.10289761 0.13798977
v 0.01500351 -0.09440558 0.12548343
v 0.01498164 -0.08853791 0.11648988
v 0.01491057 -0.09765916 0.13095910
v 0.01481217 -0.09505272 0.12745650
v 0.01479303 -0.08917736 0.11846804
v 0.01473290 -0.09828838 0.13294237
v 0.01470283 -0.10141406 0.13798977
v 0.01468370 -0.09557196 0.12908289
v 0.01453063 -0.09941127 0.13798977
v 0.01452516 -0.09348221 0.12908289
v 0.01454976 -0.09644930 0.13501741
v 0.01455796 -0.09051255 0.12611563
v 0.01462629 -0.09335176 0.13211643
v 0.01469190 -0.09651836 0.13776035
v 0.01461809 -0.09923990 0.14107430
v 0.01487230 -0.09813747 0.14214496
v 0.01497890 -0.09557452 0.13860157
v 0.01512924 -0.09290414 0.13501741
v 0.01526318 -0.09651836 0.14107430
v 0.01532058 -0.09062766 0.13211643
v 0.01654515 -0.09623188 0.14409254
v 0.01660802 -0.09033862 0.13512957
v 0.01693329 -0.09348476 0.14079388
v 0.01720390 -0.09130293 0.13798977
v 0.01735150 -0.09447720 0.14322072
v 0.01740344 -0.08861208 0.13421186
v 0.01765491 -0.09185798 0.13969263
v 0.01800206 -0.09509876 0.14519379
v 0.01810593 -0.08923107 0.13619004
v 0.02008492 -0.08862999 0.13712305
v 0.02056873 -0.09188355 0.14261401
v 0.02226071 -0.09247953 0.14465846
v 0.02431897 -0.09211632 0.14521929
v 0.02630069 -0.09191681 0.14553539
v 0.03708946 -0.09906341 0.14887993
v 0.03412644 -0.09922967 0.14909916
v 0.03412644 -0.10071322 0.14825792
v 0.03412644 -0.10597980 0.14485730
v 0.03412644 -0.10782401 0.14337367
v 0.02819221 -0.10952497 0.14187984
v 0.03115796 -0.10943289 0.14145158
v 0.03389957 -0.10928965 0.14072251
v 0.03276521 -0.10982168 0.13957537
v 0.03115796 -0.10994701 0.13912161
v 0.03115796 -0.10921803 0.13763798
v 0.02527566 -0.09292460 0.14666723
v 0.02522919 -0.09455138 0.14875247
v 0.02819221 -0.09644930 0.14965488
v 0.03115796 -0.09644930 0.14971606
v 0.03105136 -0.10758869 0.13483897
v 0.03034340 -0.10102016 0.12443826
v 0.02999626 -0.10688784 0.13344201
v 0.02524559 -0.08396960 0.09773800
v 0.02729565 -0.08610539 0.10083273
v 0.02635536 -0.08610539 0.10083273
v 0.02819221 -0.08946896 0.10615034
v 0.02819221 -0.10696458 0.13331965
v 0.02819221 -0.09530594 0.11521017
v 0.02437637 -0.08598518 0.10102136
v 0.02297686 -0.08923875 0.10651233
v 0.02057693 -0.10395400 0.13042377
v 0.02172496 -0.10657066 0.13393655
v 0.02001658 -0.10720757 0.13591473
v 0.01803486 -0.10668577 0.13670498
v 0.01730504 -0.10145243 0.12967940
v 0.01734604 -0.10728431 0.13868826
v 0.01659982 -0.10555520 0.13781643
v 0.01688956 -0.10241674 0.13214192
v 0.01561306 -0.10209956 0.13528762
v 0.01483130 -0.10092296 0.13645516
v 0.01502811 -0.10026815 0.13447698
v 0.01548185 -0.10512037 0.14104371
v 0.01492970 -0.10353451 0.14012090
v 0.01479030 -0.10398214 0.14209397
v 0.01463450 -0.10247812 0.14104371
v 0.01471376 -0.10237837 0.14309835
v 0.01472196 -0.10011468 0.14316464
v 0.01506911 -0.09923990 0.14406195
v 0.01711643 -0.09707085 0.14627975
v 0.01998104 -0.09449767 0.14607072
v 0.01901888 -0.09624467 0.14716177
v 0.02230991 -0.09406028 0.14698843
v 0.02332674 -0.09479438 0.14853323
v 0.03115796 -0.09922967 0.14909916
v 0.03115796 -0.10071322 0.14825792
v 0.02226071 -0.10597980 0.14485730
v 0.02522919 -0.10804654 0.14337367
v 0.02819221 -0.10804142 0.14337367
v 0.03115796 -0.10794934 0.14337367
v 0.02522919 -0.10953008 0.14185435
v 0.02819221 -0.11009792 0.14039621
v 0.03115796 -0.10994701 0.13996285
v 0.02819221 -0.11009792 0.13876982
v 0.02819221 -0.10940476 0.13728620
v 0.02522919 -0.09644930 0.14938977
v 0.02226071 -0.09912224 0.14882384
v 0.02522919 -0.09920665 0.14900228
v 0.02819221 -0.09922711 0.14908895
v 0.02819221 -0.10805677 0.13501741
v 0.02476451 -0.08567057 0.10046054
v 0.02370122 -0.10683924 0.13351848
v 0.02522919 -0.10798515 0.13501741
v 0.02253132 -0.10575984 0.13233566
v 0.02253132 -0.10745312 0.13496643
v 0.02215137 -0.10918222 0.13808664
v 0.01913096 -0.10787772 0.13781643
v 0.01929223 -0.10873204 0.14095193
v 0.01705903 -0.10752218 0.14095193
v 0.01479030 -0.10398214 0.14259361
v 0.01525771 -0.10237837 0.14458199
v 0.01658615 -0.09941127 0.14672841
v 0.02003571 -0.09738803 0.14858932
v 0.02134775 -0.09541338 0.14804379
v 0.02230991 -0.09642116 0.14882384
v 0.02522919 -0.10069020 0.14825792
v 0.02819221 -0.10071066 0.14825792
v 0.02226071 -0.10237837 0.14718216
v 0.01929223 -0.10597980 0.14480121
v 0.01929223 -0.10449626 0.14581070
v 0.02226071 -0.10794934 0.14337367
v 0.02215137 -0.10946102 0.14097233
v 0.02306706 -0.10994190 0.13999344
v 0.02522919 -0.11007747 0.14037071
v 0.01929223 -0.10770379 0.14332269
v 0.02522919 -0.11007747 0.13882081
v 0.02522919 -0.10936895 0.13734228
v 0.02003571 -0.09867973 0.14858932
v 0.01914462 -0.09956474 0.14820184
v 0.01929223 -0.10237837 0.14716686
v 0.02226071 -0.10060579 0.14825792
v 0.02306706 -0.10994190 0.13914201
v 0.01726950 -0.10729965 0.14298619
v 0.01630734 -0.10512293 0.14377644
v 0.01732417 -0.10428396 0.14567814
v 0.01674195 -0.10237837 0.14627975
f 1 2 3
f 1 3 4
f 1 4 5
f 1 5 6
f 1 6 7
f 1 7 8
f 1 8 2
f 2 9 10
f 2 10 3
f 2 8 11
f 2 11 9
f 3 12 13
f 3 13 14
f 3 14 15
f 3 15 16
f 3 16 17
f 3 17 18
f 3 18 19
f 3 19 20
f 3 20 21
f 3 21 22
f 3 22 23
f 3 23 24
f 3 24 4
f 3 10 25
f 3 25 26
f 3 26 27
f 3 27 28
f 3 28 29
f 3 29 30
f 3 30 31
f 3 31 32
f 3 32 65
f 3 65 119
f 3 119 182
f 3 182 252
f 3 252 184
f 3 184 121
f 3 121 66
f 3 66 33
f 3 33 34
f 3 34 12
f 4 24 35
f 4 35 36
f 4 36 5
f 5 36 6
f 6 36 37
f 6 37 38
f 6 38 39
f 6 39 7
f 7 39 8
f 8 39 40
f 8 40 41
f 8 41 11
f 9 42 26
f 9 26 25
f 9 25 10
f 9 11 42
f 11 41 43
f 11 43 42
f 12 34 44
f 12 44 13
f 13 44 45
f 13 45 46
f 13 46 14
f 14 46 47
f 14 47 15
f 15 47 48
f 15 48 49
f 15 49 50
f 15 50 16
f 16 50 17
f 17 50 51
f 17 51 52
f 17 52 18
f 18 52 53
f 18 53 19
f 19 53 20
f 20 53 54
f 20 54 55
f 20 55 21
f 21 55 22
f 22 55 56
f 22 56 57
f 22 57 23
f 23 57 24
f 24 57 35
f 26 42 27
f 27 58 28
f 27 42 59
f 27 59 60
f 27 60 58
f 28 58 29
f 29 58 61
f 29 61 30
f 30 61 31
f 31 61 62
f 31 62 63
f 31 63 64
f 31 64 65
f 31 65 32
f 33 66 67
f 33 67 68
f 33 68 69
f 33 69 70
f 33 70 71
f 33 71 72
f 33 72 73
f 33 73 74
f 33 74 75
f 33 75 76
f 33 76 77
f 33 77 78
f 33 78 79
f 33 79 80
f 33 80 81
f 33 81 82
f 33 82 83
f 33 83 84
f 33 84 85
f 33 85 86
f 33 86 87
f 33 87 88
f 33 88 89
f 33 89 90
f 33 90 91
f 33 91 34
f 34 92 93
f 34 93 94
f 34 94 44
f 34 91 92
f 35 57 36
f 36 57 37
f 37 57 55
f 37 55 95
f 37 95 96
f 37 96 97
f 37 97 38
f 38 98 99
f 38 99 100
f 38 100 39
f 38 97 98
f 39 101 40
f 39 100 102
f 39 102 101
f 40 101 103
f 40 103 104
f 40 104 43
f 40 43 41
f 42 43 104
f 42 104 103
f 42 103 59
f 44 94 105
f 44 105 45
f 45 105 106
f 45 106 107
f 45 107 47
f 45 47 46
f 47 107 108
f 47 108 109
f 47 109 48
f 48 109 110
f 48 110 52
f 48 52 111
f 48 111 49
f 49 111 50
f 50 111 51
f 51 111 52
f 52 110 95
f 52 95 55
f 52 55 53
f 53 55 54
f 55 57 56
f 58 112 61
f 58 60 112
f 59 103 60
f 60 103 113
f 60 113 112
f 61 112 114
f 61 114 115
f 61 115 62
f 62 115 64
f 62 64 63
f 64 116 65
f 64 115 117
f 64 117 118
f 64 118 116
f 65 116 120
f 65 120 119
f 66 121 122
f 66 122 67
f 67 122 123
f 67 123 124
f 67 124 68
f 68 124 125
f 68 125 126
f 68 126 69
f 69 126 70
f 70 126 127
f 70 127 128
f 70 128 71
f 71 128 129
f 71 129 72
f 72 129 130
f 72 130 131
f 72 131 73
f 73 131 132
f 73 132 133
f 73 133 74
f 74 133 75
f 75 134 76
f 75 133 135
f 75 135 136
f 75 136 134
f 76 134 137
f 76 137 138
f 76 138 77
f 77 138 139
f 77 139 140
f 77 140 78
f 78 140 139
f 78 139 141
f 78 141 142
f 78 142 143
f 78 143 144
f 78 144 79
f 79 144 80
f 80 144 145
f 80 145 146
f 80 146 81
f 81 146 147
f 81 147 82
f 82 147 148
f 82 148 149
f 82 149 83
f 83 149 150
f 83 150 84
f 84 150 151
f 84 151 85
f 85 151 152
f 85 152 86
f 86 152 87
f 87 152 153
f 87 153 154
f 87 154 88
f 88 154 155
f 88 155 156
f 88 156 89
f 89 156 157
f 89 157 90
f 90 157 91
f 91 157 92
f 92 157 93
f 93 158 105
f 93 105 94
f 93 157 158
f 95 110 96
f 96 159 160
f 96 160 97
f 96 110 159
f 97 160 98
f 98 160 99
f 99 160 161
f 99 161 162
f 99 162 163
f 99 163 164
f 99 164 165
f 99 165 102
f 99 102 100
f 101 102 166
f 101 166 103
f 102 165 166
f 103 166 167
f 103 167 168
f 103 168 113
f 105 158 106
f 106 169 170
f 106 170 171
f 106 171 172
f 106 172 107
f 106 158 169
f 107 172 108
f 108 172 173
f 108 173 159
f 108 159 110
f 108 110 109
f 112 113 114
f 113 168 114
f 114 168 174
f 114 174 175
f 114 175 115
f 115 175 117
f 116 118 120
f 117 175 176
f 117 176 118
f 118 177 178
f 118 178 179
f 118 179 120
f 118 176 180
f 118 180 181
f 118 181 177
f 119 120 179
f 119 179 183
f 119 183 182
f 121 184 185
f 121 185 186
f 121 186 122
f 122 186 187
f 122 187 188
f 122 188 123
f 123 188 124
f 124 188 125
f 125 188 189
f 125 189 190
f 125 190 126
f 126 190 191
f 126 191 192
f 126 192 127
f 127 192 193
f 127 193 194
f 127 194 128
f 128 194 195
f 128 195 196
f 128 196 129
f 129 196 197
f 129 197 198
f 129 198 130
f 130 198 199
f 130 199 200
f 130 200 201
f 130 201 131
f 131 201 132
f 132 201 202
f 132 202 203
f 132 203 204
f 132 204 133
f 133 204 203
f 133 203 205
f 133 205 206
f 133 206 207
f 133 207 135
f 134 136 208
f 134 208 209
f 134 209 137
f 135 207 136
f 136 207 206
f 136 206 208
f 137 209 210
f 137 210 211
f 137 211 138
f 138 211 139
f 139 211 212
f 139 212 213
f 139 213 142
f 139 142 141
f 142 214 215
f 142 215 143
f 142 213 214
f 143 215 144
f 144 215 216
f 144 216 145
f 145 216 217
f 145 217 218
f 145 218 219
f 145 219 146
f 146 219 220
f 146 220 221
f 146 221 147
f 147 221 222
f 147 222 148
f 148 222 223
f 148 223 149
f 149 223 224
f 149 224 225
f 149 225 150
f 150 225 224
f 150 224 226
f 150 226 227
f 150 227 228
f 150 228 151
f 151 228 229
f 151 229 152
f 152 229 230
f 152 230 153
f 153 230 231
f 153 231 155
f 153 155 154
f 155 231 232
f 155 232 156
f 156 232 157
f 157 232 233
f 157 233 158
f 158 233 169
f 159 173 160
f 160 173 234
f 160 234 161
f 161 234 235
f 161 235 236
f 161 236 162
f 162 236 163
f 163 237 164
f 163 236 237
f 164 237 238
f 164 238 165
f 165 238 239
f 165 239 240
f 165 240 241
f 165 241 166
f 166 241 242
f 166 242 167
f 167 242 291
f 167 291 243
f 167 243 244
f 167 244 174
f 167 174 168
f 169 233 245
f 169 245 246
f 169 246 170
f 170 246 247
f 170 247 248
f 170 248 171
f 171 248 173
f 171 173 172
f 173 248 235
f 173 235 234
f 174 244 175
f 175 244 249
f 175 249 180
f 175 180 176
f 177 181 250
f 177 250 178
f 178 250 179
f 179 250 183
f 180 249 251
f 180 251 181
f 181 251 250
f 182 183 253
f 182 253 254
f 182 254 252
f 183 255 253
f 183 250 251
f 183 251 256
f 183 256 257
f 183 257 255
f 184 252 258
f 184 258 259
f 184 259 185
f 185 259 186
f 186 260 187
f 186 259 261
f 186 261 260
f 187 260 262
f 187 262 188
f 188 262 263
f 188 263 189
f 189 264 190
f 189 263 265
f 189 265 191
f 189 191 264
f 190 264 191
f 191 265 266
f 191 266 267
f 191 267 192
f 192 267 193
f 193 267 195
f 193 195 194
f 195 267 266
f 195 266 268
f 195 268 196
f 196 268 197
f 197 268 199
f 197 199 198
f 199 269 270
f 199 270 200
f 199 268 266
f 199 266 271
f 199 271 272
f 199 272 269
f 200 202 201
f 200 270 202
f 202 270 269
f 202 269 203
f 203 269 205
f 205 269 206
f 206 269 272
f 206 272 273
f 206 273 274
f 206 274 208
f 208 214 210
f 208 210 209
f 208 274 214
f 210 214 211
f 211 214 212
f 212 214 213
f 214 275 276
f 214 276 215
f 214 274 275
f 215 276 277
f 215 277 220
f 215 220 218
f 215 218 216
f 216 218 217
f 218 220 219
f 220 224 222
f 220 222 221
f 220 277 278
f 220 278 224
f 222 224 223
f 224 278 227
f 224 227 226
f 227 279 230
f 227 230 229
f 227 229 228
f 227 278 280
f 227 280 279
f 230 279 231
f 231 279 281
f 231 281 232
f 232 281 282
f 232 282 245
f 232 245 233
f 235 248 283
f 235 283 284
f 235 284 236
f 236 284 285
f 236 285 237
f 237 285 286
f 237 286 287
f 237 287 288
f 237 288 238
f 238 288 239
f 239 289 290
f 239 290 240
f 239 288 287
f 239 287 286
f 239 286 289
f 240 290 291
f 240 291 241
f 241 291 242
f 243 291 290
f 243 290 292
f 243 292 293
f 243 293 244
f 244 293 249
f 245 282 246
f 246 282 294
f 246 294 247
f 247 294 295
f 247 295 296
f 247 296 297
f 247 297 248
f 248 297 283
f 249 293 298
f 249 298 251
f 251 298 256
f 252 254 299
f 252 299 258
f 253 255 257
f 253 257 256
f 253 256 298
f 253 298 254
f 254 300 258
f 254 258 299
f 254 298 301
f 254 301 300
f 258 300 259
f 259 300 302
f 259 302 261
f 260 261 262
f 261 303 262
f 261 302 303
f 262 303 304
f 262 304 305
f 262 305 263
f 263 305 265
f 265 306 307
f 265 307 271
f 265 271 266
f 265 305 306
f 271 308 273
f 271 273 272
f 271 307 308
f 273 308 274
f 274 308 275
f 275 309 276
f 275 308 309
f 276 309 277
f 277 309 310
f 277 310 278
f 278 310 311
f 278 311 280
f 279 280 312
f 279 312 282
f 279 282 281
f 280 311 312
f 282 311 313
f 282 313 294
f 282 312 311
f 283 297 314
f 283 314 315
f 283 315 284
f 284 315 316
f 284 316 285
f 285 317 286
f 285 316 318
f 285 318 317
f 286 317 319
f 286 319 289
f 289 320 321
f 289 321 322
f 289 322 290
f 289 319 323
f 289 323 320
f 290 322 324
f 290 324 292
f 292 324 293
f 293 325 298
f 293 324 325
f 294 313 311
f 294 311 326
f 294 326 295
f 295 326 327
f 295 327 328
f 295 328 329
f 295 329 296
f 296 329 297
f 297 329 314
f 298 325 301
f 300 301 325
f 300 325 303
f 300 303 302
f 303 325 304
f 304 325 330
f 304 330 305
f 305 330 306
f 306 330 321
f 306 321 320
f 306 320 323
f 306 323 331
f 306 331 307
f 307 331 308
f 308 331 332
f 308 332 309
f 309 332 333
f 309 333 334
f 309 334 310
f 310 334 327
f 310 327 311
f 311 327 326
f 314 329 328
f 314 328 316
f 314 316 315
f 316 328 318
f 317 318 333
f 317 333 323
f 317 323 319
f 318 328 333
f 321 330 324
f 321 324 322
f 323 333 331
f 324 330 325
f 327 334 328
f 328 334 333
f 331 333 332

