# https://github.com/mikedh/trimesh
v -0.02655314 -0.00766463 0.04616599
v -0.02655314 -0.00752767 0.04599315
v -0.04930974 -0.00766463 0.04616599
v -0.02655314 -0.10050384 0.04616599
v -0.04896460 -0.00752767 0.04599315
v -0.02655314 -0.00558734 0.04332370
v -0.05193053 -0.00764181 0.04599315
v -0.05193053 -0.00777877 0.04616599
v -0.04896460 -0.00510796 0.04265152
v -0.02715363 -0.10084624 0.04616599
v -0.02655314 -0.09977336 -0.03702883
v -0.02655314 0.00000539 0.03558419
v -0.04896460 0.00000539 0.03558419
v -0.05193053 0.00975270 0.02192964
v -0.05307258 0.01482040 0.01478549
v -0.05350470 0.00603183 0.02680763
v -0.05211854 -0.00780160 0.04616599
v -0.05109435 0.01488888 0.01490072
v -0.02819184 -0.10121148 0.04616599
v -0.03116058 -0.10171369 0.04616599
v -0.03798476 -0.10105169 -0.03641428
v -0.02655314 -0.07055423 -0.14687980
v -0.02655314 0.12448342 -0.13670130
v -0.04896460 0.12448342 -0.13670130
v -0.05054718 0.11574050 -0.12462153
v -0.05124868 0.09204563 -0.09189670
v -0.05216063 0.12973373 -0.14415273
v -0.05330547 0.13055552 -0.14542023
v -0.05344858 0.02970389 -0.00589799
v -0.05366464 0.01212676 0.01812711
v -0.05375443 0.00333819 0.03014926
v -0.05361413 -0.00277956 0.03882978
v -0.05345699 0.06828226 -0.05928710
v -0.05357485 0.09807207 -0.10067325
v -0.05380213 -0.00839511 0.04616599
v -0.04006399 -0.10112018 -0.03666394
v -0.03412932 -0.10157672 0.04616599
v -0.04006399 -0.10077776 -0.03814270
v -0.04896460 -0.07055423 -0.14687980
v -0.02655314 -0.07000637 -0.14791685
v -0.02655314 0.13016745 -0.14459443
v -0.04896460 0.12704009 -0.14025417
v -0.05132725 0.13062400 -0.14530500
v -0.05216063 0.13119468 -0.14659172
v -0.05385825 0.13101206 -0.14739832
v -0.05406309 0.12852388 -0.14392227
v -0.05368147 0.12786188 -0.14207862
v -0.05352434 0.12174412 -0.13339808
v -0.05346261 0.10686063 -0.11269540
v -0.05386948 0.00943312 0.02148793
v -0.05383300 -0.00547320 0.04217141
v -0.05371795 0.06558862 -0.05594548
v -0.05380494 0.09537844 -0.09733164
v -0.05385264 -0.00832663 0.04599315
v -0.05469724 -0.01038110 0.04616599
v -0.04181774 -0.10102886 -0.03622223
v -0.03709526 -0.10100603 0.04616599
v -0.05193053 -0.09890592 0.01036840
v -0.04181774 -0.10102886 -0.03541564
v -0.05193053 -0.07048575 -0.14687980
v -0.05193053 -0.06929872 -0.14916515
v -0.04896460 -0.06932155 -0.14918436
v -0.02655314 -0.06932155 -0.14918436
v -0.02655314 0.13064683 -0.14526659
v -0.04896460 0.13064683 -0.14526659
v -0.04896460 0.13149144 -0.14687980
v -0.05193053 0.13130882 -0.14906914
v -0.05385825 0.13101206 -0.14878106
v -0.05435491 0.12936849 -0.14659172
v -0.05496381 0.12610416 -0.14392227
v -0.05421461 0.12612699 -0.14102236
v -0.05388070 0.12516825 -0.13871779
v -0.05372356 0.10416699 -0.10935379
v -0.05393121 0.00064456 0.03351008
v -0.05414446 -0.00446879 0.03990525
v -0.05435772 -0.00727657 0.04311244
v -0.05475336 -0.01038110 0.04599315
v -0.05520232 -0.01334867 0.04616599
v -0.05389193 -0.09835806 0.01036840
v -0.05427073 -0.06932155 -0.14687980
v -0.03994895 -0.09986466 0.04616599
v -0.05391437 -0.09838088 0.01251933
v -0.05395366 -0.06893349 -0.14887709
v -0.05193053 -0.06676488 -0.14995255
v -0.04896460 -0.06676488 -0.15001016
v -0.02655314 -0.06676488 -0.15001016
v -0.02655314 0.13149144 -0.14687980
v -0.04896460 0.13137730 -0.14914594
v -0.04896460 0.12907174 -0.14995255
v -0.05193053 0.12907174 -0.14983732
v -0.05413885 0.12907174 -0.14904993
v -0.05509850 0.12610416 -0.14687980
v -0.05511534 0.12313660 -0.14094554
v -0.05503116 0.11720147 -0.13205376
v -0.05499749 0.10236363 -0.11127425
v -0.05496101 0.08752580 -0.09049475
v -0.05492172 0.11126633 -0.12314276
v -0.05482632 0.12016903 -0.13501128
v -0.05430160 0.11729277 -0.12905782
v -0.05425671 0.10243211 -0.10833593
v -0.05393963 0.11637968 -0.12669564
v -0.05428757 0.00158048 0.03114791
v -0.05425390 0.06385374 -0.05492762
v -0.05480948 0.00445674 0.02521365
v -0.05490769 -0.00444597 0.03708216
v -0.05507886 -0.00741353 0.04005889
v -0.05518268 -0.01038110 0.04301642
v -0.05429879 0.07871440 -0.07564951
v -0.05476459 0.06675282 -0.06082347
v -0.05482351 0.08159066 -0.08160298
v -0.05521635 -0.01334867 0.04599315
v -0.05521635 -0.01631623 0.04616599
v -0.05479545 -0.09644055 0.01036840
v -0.05512376 -0.06676488 -0.14687980
v -0.04035021 -0.09963639 0.04616599
v -0.04100120 -0.09904288 0.04616599
v -0.04214885 -0.09769605 0.04616599
v -0.04253046 -0.09666882 0.04616599
v -0.05427073 -0.09646338 0.01344116
v -0.05422303 -0.06676488 -0.14914594
v -0.05193053 -0.02225137 -0.14995255
v -0.04896460 0.12313660 -0.15001016
v -0.02655314 0.12610416 -0.15001016
v -0.02655314 0.13137730 -0.14914594
v -0.02655314 0.12742816 -0.14999095
v -0.04599586 0.12610416 -0.15001016
v -0.04896460 0.12610416 -0.14999095
v -0.05193053 0.12610416 -0.14991414
v -0.02655314 0.12907174 -0.14995255
v -0.05420058 0.12610416 -0.14910754
v -0.05510131 0.12313660 -0.14687980
v -0.05521635 0.12313660 -0.14392227
v -0.05519671 0.12016903 -0.13798801
v -0.05516023 0.11423390 -0.12907703
v -0.05513778 0.09939606 -0.10829753
v -0.05513778 0.06081769 -0.05488921
v -0.05509008 0.10829877 -0.12018524
v -0.05502835 0.07862309 -0.07862624
v -0.05501993 0.00148917 0.02819038
v -0.05495259 0.01039187 0.01630266
v -0.05487402 0.09642849 -0.10236326
v -0.05477020 0.10533119 -0.11425099
v -0.05510692 0.00742430 0.01927939
v -0.05515462 -0.00147840 0.03114791
v -0.05517146 0.01335944 0.01036840
v -0.05517426 0.05191499 -0.04303991
v -0.05517426 0.09049336 -0.09642902
v -0.05519391 0.00445674 0.02225612
v -0.05520793 -0.00444597 0.03412463
v -0.05521355 0.01039187 0.01334513
v -0.05521635 0.04894742 -0.04006318
v -0.05521635 -0.02798105 0.04616599
v -0.05500590 -0.09347298 0.01334513
v -0.05521635 -0.09347298 0.01036840
v -0.05517146 -0.09347298 0.00741088
v -0.05521635 -0.06676488 -0.14392227
v -0.05512376 -0.02521893 -0.14687980
v -0.04326563 -0.09347298 0.04616599
v -0.05422303 -0.02225137 -0.14914594
v -0.05521635 0.11720147 -0.13501128
v -0.05521074 0.11126633 -0.12611950
v -0.05519671 0.08159066 -0.08456049
v -0.05516023 0.07565552 -0.07566871
v -0.05521074 0.07268796 -0.07269198
v -0.05521635 0.08752580 -0.09347149
v -0.05521635 -0.03115407 0.04599315
v -0.05521074 -0.03094862 0.04616599
v -0.05521074 -0.09050542 0.01334513
v -0.05479545 -0.07863514 0.02225612
v -0.05490489 -0.07270001 0.02521365
v -0.05499468 -0.06676488 0.02819038
v -0.05505922 -0.03412164 0.04599315
v -0.05507605 -0.08753785 0.01630266
v -0.05521635 -0.08457028 0.01630266
v -0.05499187 -0.03412164 0.04616599
v -0.05498626 -0.04005677 0.04301642
v -0.05489366 -0.04599190 0.04005889
v -0.05521074 -0.06379731 0.02819038
v -0.05520793 -0.03708920 0.04301642
v -0.05502274 -0.03396184 0.04616599
v -0.05512937 -0.08160271 0.01927939
v -0.05517426 -0.07566758 0.02225612
v -0.05519391 -0.06973245 0.02521365
v -0.05519391 -0.04302434 0.04005889
v -0.05516865 -0.04895947 0.03708216
v -0.05512376 -0.05489461 0.03412463
f 1 2 5
f 1 5 3
f 1 3 8
f 1 8 17
f 1 17 35
f 1 35 55
f 1 55 78
f 1 78 112
f 1 112 152
f 1 152 167
f 1 167 180
f 1 180 175
f 1 175 158
f 1 158 118
f 1 118 117
f 1 117 116
f 1 116 115
f 1 115 81
f 1 81 57
f 1 57 37
f 1 37 20
f 1 20 19
f 1 19 10
f 1 10 4
f 1 4 11
f 1 11 22
f 1 22 40
f 1 40 63
f 1 63 86
f 1 86 123
f 1 123 125
f 1 125 129
f 1 129 124
f 1 124 87
f 1 87 64
f 1 64 41
f 1 41 23
f 1 23 12
f 1 12 6
f 1 6 2
f 2 6 5
f 3 7 8
f 3 5 9
f 3 9 7
f 4 10 11
f 5 6 9
f 6 12 13
f 6 13 9
f 7 14 15
f 7 15 16
f 7 16 17
f 7 17 8
f 7 9 18
f 7 18 14
f 9 13 18
f 10 19 11
f 11 19 20
f 11 20 21
f 11 21 22
f 12 23 24
f 12 24 13
f 13 24 25
f 13 25 18
f 14 18 25
f 14 25 26
f 14 26 27
f 14 27 28
f 14 28 15
f 15 29 16
f 15 28 29
f 16 30 31
f 16 31 32
f 16 32 17
f 16 29 33
f 16 33 34
f 16 34 30
f 17 32 35
f 20 36 21
f 20 37 36
f 21 36 38
f 21 38 22
f 22 39 40
f 22 38 39
f 23 41 24
f 24 41 42
f 24 42 43
f 24 43 25
f 25 43 27
f 25 27 26
f 27 43 28
f 28 43 44
f 28 44 45
f 28 45 46
f 28 46 47
f 28 47 48
f 28 48 49
f 28 49 33
f 28 33 29
f 30 34 31
f 31 50 51
f 31 51 32
f 31 34 52
f 31 52 53
f 31 53 50
f 32 51 35
f 33 49 34
f 34 49 47
f 34 47 52
f 35 54 55
f 35 51 54
f 36 37 56
f 36 56 38
f 37 57 58
f 37 58 59
f 37 59 56
f 38 56 60
f 38 60 39
f 39 60 61
f 39 61 62
f 39 62 40
f 40 62 63
f 41 64 65
f 41 65 42
f 42 65 43
f 43 65 66
f 43 66 44
f 44 66 67
f 44 67 45
f 45 67 68
f 45 68 69
f 45 69 46
f 46 70 71
f 46 71 72
f 46 72 47
f 46 69 70
f 47 49 48
f 47 72 53
f 47 53 73
f 47 73 52
f 50 74 51
f 50 53 72
f 50 72 74
f 51 74 75
f 51 75 76
f 51 76 54
f 52 73 53
f 54 76 55
f 55 76 77
f 55 77 78
f 56 59 58
f 56 58 79
f 56 79 80
f 56 80 60
f 57 81 82
f 57 82 58
f 58 82 79
f 60 80 83
f 60 83 61
f 61 83 84
f 61 84 85
f 61 85 62
f 62 85 86
f 62 86 63
f 64 87 66
f 64 66 65
f 66 87 124
f 66 124 88
f 66 88 67
f 67 88 89
f 67 89 90
f 67 90 68
f 68 90 91
f 68 91 92
f 68 92 69
f 69 92 70
f 70 92 93
f 70 93 94
f 70 94 95
f 70 95 96
f 70 96 97
f 70 97 98
f 70 98 71
f 71 98 99
f 71 99 100
f 71 100 101
f 71 101 72
f 72 101 74
f 74 102 75
f 74 101 103
f 74 103 102
f 75 102 76
f 76 102 77
f 77 104 105
f 77 105 106
f 77 106 107
f 77 107 78
f 77 102 108
f 77 108 99
f 77 99 109
f 77 109 98
f 77 98 110
f 77 110 104
f 78 107 111
f 78 111 112
f 79 82 113
f 79 113 80
f 80 114 83
f 80 113 114
f 81 115 82
f 82 115 116
f 82 116 117
f 82 117 118
f 82 118 119
f 82 119 113
f 83 114 120
f 83 120 84
f 84 120 159
f 84 159 121
f 84 121 122
f 84 122 85
f 85 122 126
f 85 126 123
f 85 123 86
f 88 124 129
f 88 129 89
f 89 125 126
f 89 126 127
f 89 127 128
f 89 128 90
f 89 129 125
f 90 128 130
f 90 130 91
f 91 130 92
f 92 130 131
f 92 131 132
f 92 132 93
f 93 132 133
f 93 133 134
f 93 134 135
f 93 135 136
f 93 136 137
f 93 137 94
f 94 137 138
f 94 138 95
f 95 138 139
f 95 139 96
f 96 139 140
f 96 140 105
f 96 105 97
f 97 105 141
f 97 141 98
f 98 141 110
f 98 109 142
f 98 142 99
f 99 142 109
f 99 108 103
f 99 103 100
f 100 103 101
f 102 103 108
f 104 110 141
f 104 141 105
f 105 140 139
f 105 139 106
f 106 143 144
f 106 144 107
f 106 139 138
f 106 138 137
f 106 137 143
f 107 144 145
f 107 145 146
f 107 146 147
f 107 147 148
f 107 148 149
f 107 149 111
f 111 149 150
f 111 150 151
f 111 151 165
f 111 165 160
f 111 160 132
f 111 132 156
f 111 156 154
f 111 154 174
f 111 174 166
f 111 166 152
f 111 152 112
f 113 119 153
f 113 153 154
f 113 154 155
f 113 155 156
f 113 156 114
f 114 156 132
f 114 132 157
f 114 157 159
f 114 159 120
f 118 158 153
f 118 153 119
f 121 159 128
f 121 128 122
f 122 128 127
f 122 127 126
f 123 126 125
f 128 159 130
f 130 159 131
f 131 159 157
f 131 157 132
f 132 160 133
f 133 160 161
f 133 161 164
f 133 164 162
f 133 162 147
f 133 147 134
f 134 147 163
f 134 163 136
f 134 136 135
f 136 163 144
f 136 144 143
f 136 143 137
f 144 163 145
f 145 163 147
f 145 147 146
f 147 162 148
f 148 162 164
f 148 164 149
f 149 164 151
f 149 151 150
f 151 164 165
f 152 166 167
f 153 168 154
f 153 158 169
f 153 169 170
f 153 170 177
f 153 177 171
f 153 171 172
f 153 172 173
f 153 173 168
f 154 168 174
f 154 156 155
f 158 175 172
f 158 172 176
f 158 176 177
f 158 177 169
f 160 165 161
f 161 165 164
f 166 178 179
f 166 179 167
f 166 174 168
f 166 168 178
f 167 179 172
f 167 172 180
f 168 173 181
f 168 181 182
f 168 182 183
f 168 183 184
f 168 184 178
f 169 177 170
f 171 177 176
f 171 176 172
f 172 175 180
f 172 179 184
f 172 184 185
f 172 185 186
f 172 186 173
f 173 186 181
f 178 184 179
f 181 186 182
f 182 186 185
f 182 185 184
f 182 184 183

