# https://github.com/mikedh/trimesh
v -0.06260673 -0.02210740 -0.11883715
v -0.06205797 -0.02359048 -0.11883715
v -0.06250917 -0.02210740 -0.05552975
v -0.06260673 -0.02183179 -0.05552975
v -0.06260673 0.02155817 -0.11883715
v -0.00207327 -0.06669170 -0.11946377
v -0.06077755 -0.02672727 -0.11883715
v -0.06196042 -0.02359048 -0.05552975
v -0.00207327 -0.06709857 -0.05544829
v -0.06260673 0.02074445 -0.05552975
v -0.06253356 0.02096757 -0.05552975
v -0.06185067 0.02357936 -0.11883715
v -0.00207327 0.06669371 -0.11946377
v -0.00156110 -0.06669170 -0.11946377
v -0.01191422 -0.06673108 -0.11883715
v -0.01506040 -0.06671795 -0.11883715
v -0.01729199 -0.06669170 -0.11883715
v -0.02043817 -0.06665233 -0.11883715
v -0.02358435 -0.06657359 -0.11883715
v -0.02595008 -0.06627172 -0.11883715
v -0.04374185 -0.05006282 -0.11883715
v -0.04542469 -0.04848787 -0.11883715
v -0.04654658 -0.04742478 -0.11883715
v -0.04698558 -0.04699167 -0.11883715
v -0.04742458 -0.04654543 -0.11883715
v -0.04846112 -0.04541671 -0.11883715
v -0.05003420 -0.04369739 -0.11883715
v -0.05041223 -0.04325115 -0.11883715
v -0.05133901 -0.04212243 -0.11883715
v -0.05246091 -0.04071810 -0.11883715
v -0.05291210 -0.04014062 -0.11883715
v -0.05407058 -0.03857879 -0.11883715
v -0.05563147 -0.03624261 -0.11883715
v -0.05666801 -0.03466766 -0.11883715
v -0.05761918 -0.03301396 -0.11883715
v -0.05870449 -0.03100589 -0.11883715
v -0.05913129 -0.03020529 -0.11883715
v -0.05936299 -0.02975905 -0.11883715
v -0.05991174 -0.02864346 -0.11883715
v -0.06055805 -0.02700289 -0.05552975
v -0.06067999 -0.02672727 -0.05552975
v -0.05986297 -0.02853846 -0.05552975
v -0.05919227 -0.02986405 -0.05552975
v -0.05907032 -0.03010029 -0.05552975
v -0.05735090 -0.03327645 -0.05552975
v -0.05704603 -0.03380143 -0.05552975
v -0.05609486 -0.03536326 -0.05552975
v -0.05553392 -0.03620324 -0.05552975
v -0.05399741 -0.03847379 -0.05552975
v -0.05283894 -0.04004875 -0.05552975
v -0.05126585 -0.04204369 -0.05552975
v -0.04996104 -0.04360552 -0.05552975
v -0.04971715 -0.04388113 -0.05552975
v -0.04838795 -0.04533797 -0.05552975
v -0.04692461 -0.04691292 -0.05552975
v -0.04533932 -0.04840913 -0.05552975
v -0.04364429 -0.04998408 -0.05552975
v -0.02595008 -0.06632422 -0.05552975
v -0.02358435 -0.06669170 -0.05552975
v -0.02043817 -0.06680983 -0.05552975
v -0.00156110 -0.06711169 -0.05544829
v -0.00207327 0.06656246 -0.05544829
v -0.06154581 0.02357936 -0.05552975
v -0.06054586 0.02672927 -0.11883715
v -0.04875378 0.04474936 -0.11883715
v -0.04830258 0.04524810 -0.11883715
v -0.04787578 0.04570746 -0.11883715
v -0.04682705 0.04682305 -0.11883715
v -0.04570516 0.04789927 -0.11883715
v -0.04476618 0.04877862 -0.11883715
v -0.04357112 0.04989421 -0.11883715
v -0.04199804 0.05121980 -0.11883715
v -0.04143709 0.05167916 -0.11883715
v -0.04003472 0.05279475 -0.11883715
v -0.03892502 0.05364785 -0.11883715
v -0.03847383 0.05398909 -0.11883715
v -0.03620565 0.05556404 -0.11883715
v -0.03462037 0.05662713 -0.11883715
v -0.03301069 0.05757210 -0.11883715
v -0.03224244 0.05801834 -0.11883715
v -0.03026693 0.05912081 -0.11883715
v -0.02870604 0.05993453 -0.11883715
v -0.02674272 0.06084013 -0.11883715
v -0.02358435 0.06217884 -0.11883715
v -0.02187712 0.06284820 -0.11883715
v -0.02031623 0.06338631 -0.11883715
v -0.01729199 0.06431816 -0.11883715
v -0.01638960 0.06455440 -0.11883715
v -0.01415801 0.06511876 -0.11883715
v -0.01324342 0.06530250 -0.11883715
v -0.01079233 0.06578811 -0.11883715
v -0.00937777 0.06602436 -0.11883715
v -0.00854854 0.06614248 -0.11883715
v -0.00801199 0.06620810 -0.11883715
v -0.00185377 0.06671996 -0.11946377
v -0.05980199 0.02839610 -0.11883715
v -0.05957030 0.02885546 -0.11883715
v -0.05899715 0.02997105 -0.11883715
v -0.05742406 0.03287159 -0.11883715
v -0.05716798 0.03333095 -0.11883715
v -0.05652167 0.03444654 -0.11883715
v -0.05571683 0.03568026 -0.11883715
v -0.05391205 0.03837080 -0.11883715
v -0.05275358 0.03993263 -0.11883715
v -0.05118049 0.04194069 -0.11883715
v -0.04987568 0.04350252 -0.11883715
v -0.01099964 -0.06673108 -0.11883715
v 0.00157288 -0.06662608 -0.11946377
v 0.00157288 -0.06709857 -0.05544829
v -0.00785346 -0.06703295 -0.05552975
v -0.01415801 -0.06695420 -0.05552975
v -0.01729199 -0.06688857 -0.05552975
v -0.05659484 -0.03456266 -0.05621903
v -0.00156110 0.06658871 -0.05544829
v -0.00207327 0.06665434 -0.06449042
v -0.00471947 0.06640497 -0.05552975
v -0.00720715 0.06615560 -0.05552975
v -0.00745104 0.06612935 -0.05552975
v -0.00878024 0.06594561 -0.05552975
v -0.01068258 0.06564374 -0.05552975
v -0.01099964 0.06559124 -0.05552975
v -0.01367023 0.06505313 -0.05552975
v -0.01415801 0.06494814 -0.05552975
v -0.01729199 0.06414754 -0.05552975
v -0.01963334 0.06342568 -0.05552975
v -0.02030403 0.06320256 -0.05552975
v -0.02162104 0.06274320 -0.05552975
v -0.02358435 0.06198198 -0.05552975
v -0.02674272 0.06063014 -0.05552975
v -0.02819387 0.05993453 -0.05552975
v -0.02870604 0.05968517 -0.05552975
v -0.03003524 0.05898956 -0.05552975
v -0.03280339 0.05741461 -0.05552975
v -0.03438867 0.05646964 -0.05552975
v -0.03588859 0.05544592 -0.05552975
v -0.03821774 0.05380534 -0.05552975
v -0.03979083 0.05258475 -0.05552975
v -0.04172976 0.05102292 -0.05552975
v -0.04330284 0.04964484 -0.05552975
v -0.04498568 0.04809614 -0.05552975
v -0.04655877 0.04653431 -0.05552975
v -0.04780261 0.04520872 -0.05552975
v -0.04960740 0.04318753 -0.05552975
v -0.05071709 0.04184882 -0.05552975
v -0.05091221 0.04161258 -0.05552975
v -0.05248530 0.03957827 -0.05552975
v -0.05366816 0.03801644 -0.05552975
v -0.05386327 0.03772769 -0.05552975
v -0.05492419 0.03615274 -0.05552975
v -0.05627778 0.03405280 -0.05552975
v -0.05721676 0.03249097 -0.05552975
v -0.05880204 0.02957731 -0.05552975
v -0.05960688 0.02800236 -0.05552975
v -0.06032635 0.02642741 -0.05552975
v -0.03026693 0.05912081 -0.11793482
v -0.02862068 0.05990829 -0.09592167
v -0.02674272 0.06081388 -0.09592167
v -0.02358435 0.06219197 -0.09592167
v -0.02358435 0.06219197 -0.09906729
v -0.02195029 0.06286132 -0.09592167
v -0.02035281 0.06341256 -0.10221293
v -0.01729199 0.06439690 -0.09592167
v -0.01729199 0.06437065 -0.10535856
v -0.01415801 0.06522375 -0.09592167
v -0.01415801 0.06519750 -0.10221293
v -0.01415801 0.06513188 -0.11793482
v -0.01069477 0.06581436 -0.11769043
v -0.00957288 0.06606373 -0.10849792
v -0.00785346 0.06637872 -0.09592167
v -0.00471947 0.06673308 -0.09592167
v -0.00471947 0.06666746 -0.10535856
v -0.00471947 0.06658871 -0.11478919
v -0.00471947 0.06654934 -0.11883715
v -0.00156110 0.06673308 -0.11946377
v -0.00207327 0.06685121 -0.10221293
v -0.00156110 0.06690370 -0.09906103
v -0.00156110 0.06674621 -0.11794108
v 0.00471906 -0.06700670 -0.05544829
v 0.00430445 -0.06701982 -0.05544829
v 0.00471906 -0.06645546 -0.11946377
v 0.00157288 0.06660184 -0.05544829
v 0.00157288 0.06677246 -0.07077541
v -0.00156110 0.06677246 -0.07393358
v -0.00471947 0.06652309 -0.06764232
v -0.00207327 0.06674621 -0.07392104
v -0.00471947 0.06669371 -0.08713645
v -0.00785346 0.06636559 -0.08963040
v -0.00942655 0.06603748 -0.07559412
v -0.00887779 0.06595873 -0.05819915
v -0.01099964 0.06564374 -0.06135105
v -0.01415801 0.06500063 -0.06135105
v -0.01415801 0.06522375 -0.09278230
v -0.01729199 0.06439690 -0.09278230
v -0.02035281 0.06341256 -0.09278230
v -0.02192590 0.06286132 -0.09278230
v -0.02358435 0.06217884 -0.09278230
v -0.02674272 0.06080076 -0.09278230
v -0.02036501 0.06341256 -0.09592167
v -0.01135328 0.06581436 -0.09592167
v -0.01124353 0.06580123 -0.10221293
v -0.00976799 0.06610310 -0.09592167
v -0.00978019 0.06610310 -0.09278230
v -0.00785346 0.06637872 -0.09278230
v -0.00471947 0.06673308 -0.09278230
v -0.00207327 0.06689058 -0.09592167
v 0.00157288 0.06696932 -0.09592167
v 0.00157288 0.06682496 -0.11164355
v 0.00157288 0.06674621 -0.11946377
v -0.00156110 0.06691683 -0.09592167
v 0.00786524 -0.06679670 -0.05544829
v 0.00770671 -0.06619297 -0.11946377
v 0.00786524 -0.06677045 -0.05819915
v 0.00197530 0.06658871 -0.05544829
v 0.00157288 0.06692995 -0.08963040
v 0.00471906 0.06671996 -0.07706667
v 0.00157288 0.06695620 -0.09277604
v -0.00156110 0.06691683 -0.09277604
v -0.00207327 0.06682496 -0.08336420
v -0.00207327 0.06679870 -0.08021231
v -0.00408536 0.06673308 -0.08714273
v -0.01135328 0.06581436 -0.09278230
v -0.00207327 0.06689058 -0.09277604
v 0.00471906 0.06683808 -0.09277604
v 0.00471906 0.06683808 -0.09592167
v 0.00471906 0.06682496 -0.09906103
v 0.00471906 0.06677246 -0.10535856
v 0.00471906 0.06670683 -0.11164355
v 0.00471906 0.06661496 -0.11946377
v 0.01101142 -0.06644234 -0.05544829
v 0.00927980 -0.06602235 -0.11946377
v 0.00471906 0.06650996 -0.05819915
v 0.00471906 0.06647059 -0.05544829
v 0.00786524 0.06633934 -0.06448415
v 0.00786524 0.06660184 -0.09277604
v 0.00786524 0.06660184 -0.09592167
v 0.00786524 0.06649684 -0.10850419
v 0.00786524 0.06645747 -0.11164355
v 0.00786524 0.06633934 -0.11946377
v 0.01303571 -0.06612735 -0.05544829
v 0.01101142 -0.06574674 -0.11946377
v 0.00512148 0.06644434 -0.05544829
v 0.00786524 0.06626059 -0.05819915
v 0.00974319 0.06608998 -0.06135105
v 0.00998708 0.06612935 -0.06763604
v 0.01076753 0.06623435 -0.09277604
v 0.01076753 0.06623435 -0.09592167
v 0.01068217 0.06623435 -0.09906103
v 0.01041389 0.06618185 -0.10850419
v 0.01026756 0.06616872 -0.11164355
v 0.00990172 0.06610310 -0.11946377
v 0.01415760 -0.06514300 -0.11946377
v 0.01442588 -0.06578611 -0.06135105
v 0.01460880 -0.06579923 -0.05544829
v 0.00809694 0.06619497 -0.05544829
v 0.00948711 0.06605060 -0.05601852
v 0.01145042 0.06586686 -0.06448415
v 0.01185284 0.06593248 -0.07706667
v 0.01234062 0.06599810 -0.09277604
v 0.01234062 0.06599810 -0.09592167
v 0.01208454 0.06595873 -0.10535856
v 0.01198698 0.06594561 -0.10850419
v 0.01185284 0.06593248 -0.11164355
v 0.01070656 0.06598498 -0.11946377
v 0.01577947 -0.06476239 -0.11946377
v 0.01729158 -0.06511675 -0.06448415
v 0.01729158 -0.06519550 -0.05819915
v 0.01729158 -0.06520863 -0.05544829
v 0.00946272 0.06603748 -0.05544829
v 0.01017000 0.06593248 -0.05544829
v 0.01116995 0.06581436 -0.05819915
v 0.01121873 0.06576186 -0.05544829
v 0.01415760 0.06522375 -0.05544829
v 0.01415760 0.06535500 -0.06448415
v 0.01415760 0.06543375 -0.07077541
v 0.01415760 0.06561749 -0.08963040
v 0.01415760 0.06564374 -0.09277604
v 0.01415760 0.06564374 -0.09592167
v 0.01415760 0.06556499 -0.10535856
v 0.01415760 0.06552562 -0.10850419
v 0.01415760 0.06548625 -0.11164355
v 0.01415760 0.06539437 -0.11794108
v 0.01415760 0.06536812 -0.11946377
v 0.01147481 0.06586686 -0.11946377
v 0.01729158 -0.06438178 -0.11946377
v 0.02043776 -0.06428990 -0.06448415
v 0.02043776 -0.06438178 -0.05544829
v 0.01729158 0.06448878 -0.05544829
v 0.01729158 0.06463314 -0.06448415
v 0.01729158 0.06471189 -0.07077541
v 0.01729158 0.06489564 -0.08963040
v 0.01729158 0.06492189 -0.09277604
v 0.01729158 0.06492189 -0.09592167
v 0.01729158 0.06489564 -0.09906103
v 0.01729158 0.06483001 -0.10535856
v 0.01729158 0.06475127 -0.11164355
v 0.01729158 0.06469877 -0.11478919
v 0.01729158 0.06462002 -0.11946377
v 0.02043776 -0.06344992 -0.11946377
v 0.02338883 -0.06335805 -0.06448415
v 0.02409611 -0.06325306 -0.05544829
v 0.02043776 0.06360943 -0.05544829
v 0.02043776 0.06375380 -0.06448415
v 0.02043776 0.06379317 -0.06763604
v 0.02043776 0.06385879 -0.07393358
v 0.02043776 0.06400316 -0.08963040
v 0.02043776 0.06402941 -0.09277604
v 0.02043776 0.06402941 -0.09592167
v 0.02043776 0.06397691 -0.10221293
v 0.02043776 0.06391129 -0.10850419
v 0.02043776 0.06385879 -0.11164355
v 0.02043776 0.06371442 -0.11946377
v 0.02208402 -0.06292494 -0.11946377
v 0.02488875 -0.06279370 -0.06763604
v 0.02502289 -0.06284620 -0.06135105
v 0.02514484 -0.06288557 -0.05544829
v 0.02235230 0.06301882 -0.05544829
v 0.02262058 0.06311069 -0.06763604
v 0.02268155 0.06312382 -0.07077541
v 0.02279130 0.06317631 -0.08021231
v 0.02296202 0.06322881 -0.09277604
v 0.02296202 0.06322881 -0.09592167
v 0.02286447 0.06320256 -0.10221293
v 0.02277910 0.06316319 -0.10850419
v 0.02269374 0.06313694 -0.11164355
v 0.02140113 0.06341256 -0.11946377
v 0.02366930 -0.06233434 -0.11946377
v 0.02673012 -0.06211122 -0.06448415
v 0.02647404 -0.06234746 -0.05544829
v 0.02391319 0.06245446 -0.05544829
v 0.02419367 0.06254633 -0.06763604
v 0.02425464 0.06257258 -0.07077541
v 0.02452292 0.06266445 -0.09277604
v 0.02452292 0.06266445 -0.09592167
v 0.02448633 0.06265133 -0.09906103
v 0.02432781 0.06259883 -0.10850419
v 0.02426683 0.06257258 -0.11164355
v 0.02248644 0.06305819 -0.11946377
v 0.02524239 -0.06169123 -0.11946377
v 0.02673012 -0.06220309 -0.05819915
v 0.02673012 -0.06106125 -0.11946377
v 0.02790079 -0.06054939 -0.11946377
v 0.02987630 -0.06072001 -0.06448415
v 0.02987630 -0.06085125 -0.05544829
v 0.02673012 0.06149636 -0.06448415
v 0.02673012 0.06154886 -0.06763604
v 0.02673012 0.06133887 -0.05544829
v 0.02673012 0.06161449 -0.07393358
v 0.02673012 0.06177198 -0.09277604
v 0.02673012 0.06177198 -0.09592167
v 0.02673012 0.06166698 -0.10535856
v 0.02673012 0.06162761 -0.10850419
v 0.02673012 0.06157511 -0.11164355
v 0.02673012 0.06141762 -0.11946377
v 0.02404733 0.06249383 -0.11946377
v 0.02897391 -0.06006378 -0.11946377
v 0.03168108 -0.05986691 -0.06448415
v 0.03155914 -0.06005065 -0.05544829
v 0.02929096 0.06021015 -0.05544829
v 0.02940071 0.06026265 -0.06135105
v 0.02951046 0.06031515 -0.06763604
v 0.02955924 0.06034140 -0.07077541
v 0.02958363 0.06035452 -0.07393358
v 0.02971777 0.06043327 -0.09277604
v 0.02971777 0.06043327 -0.09592167
v 0.02968119 0.06042015 -0.09906103
v 0.02962021 0.06038077 -0.10535856
v 0.02958363 0.06035452 -0.10850419
v 0.02944949 0.06030202 -0.11478919
v 0.02935194 0.06024953 -0.11946377
v 0.03054700 -0.05928942 -0.11946377
v 0.03325417 -0.05904006 -0.06448415
v 0.03201033 -0.05981441 -0.05544829
v 0.03083966 0.05944893 -0.05544829
v 0.03107136 0.05956704 -0.06763604
v 0.03110794 0.05958017 -0.07077541
v 0.03129086 0.05967204 -0.09277604
v 0.03129086 0.05967204 -0.09592167
v 0.03118111 0.05961955 -0.10535856
v 0.03113233 0.05959329 -0.10850419
v 0.03107136 0.05956704 -0.11164355
v 0.03093722 0.05950142 -0.11794108
v 0.03090064 0.05947517 -0.11946377
v 0.03301028 -0.05795071 -0.11946377
v 0.03601013 -0.05746510 -0.06448415
v 0.03608329 -0.05751760 -0.05819915
v 0.03337612 -0.05909256 -0.05544829
v 0.03331515 0.05814959 -0.05544829
v 0.03301028 0.05849083 -0.06448415
v 0.03301028 0.05854333 -0.06763604
v 0.03301028 0.05856957 -0.07077541
v 0.03301028 0.05862208 -0.07706667
v 0.03301028 0.05874020 -0.09277604
v 0.03301028 0.05872707 -0.09592167
v 0.03301028 0.05866145 -0.10221293
v 0.03301028 0.05862208 -0.10535856
v 0.03301028 0.05856957 -0.10850419
v 0.03301028 0.05851708 -0.11164355
v 0.03301028 0.05833333 -0.11946377
v 0.03494921 -0.05680888 -0.11946377
v 0.03752225 -0.05646763 -0.06763604
v 0.03758322 -0.05649388 -0.06448415
v 0.03761980 -0.05653326 -0.06135105
v 0.03769297 -0.05655951 -0.05544829
v 0.03632719 -0.05739948 -0.05544829
v 0.03576624 -0.05772760 -0.05544829
v 0.03530285 0.05702087 -0.05544829
v 0.03535163 0.05706024 -0.05819915
v 0.03544918 0.05711274 -0.06448415
v 0.03548577 0.05713899 -0.06763604
v 0.03551015 0.05715212 -0.07077541
v 0.03560771 0.05721774 -0.08650983
v 0.03563210 0.05724399 -0.09277604
v 0.03561991 0.05723086 -0.09592167
v 0.03551015 0.05717837 -0.10535856
v 0.03547357 0.05715212 -0.10850419
v 0.03530285 0.05704712 -0.11794108
v 0.03526627 0.05702087 -0.11946377
v 0.03652230 -0.05579828 -0.11946377
v 0.03930264 -0.05527330 -0.06763604
v 0.03930264 -0.05548329 -0.05544829
v 0.03686374 0.05606277 -0.05544829
v 0.03696130 0.05612840 -0.06135105
v 0.03701008 0.05615465 -0.06448415
v 0.03705885 0.05618090 -0.06763604
v 0.03709544 0.05622027 -0.07393358
v 0.03718080 0.05625964 -0.08650983
v 0.03720519 0.05625964 -0.09277604
v 0.03719299 0.05625964 -0.09592167
v 0.03708324 0.05619402 -0.10535856
v 0.03699788 0.05612840 -0.11164355
v 0.03693691 0.05608902 -0.11478919
v 0.03608329 0.05650901 -0.11946377
v 0.03881486 -0.05423645 -0.11946377
v 0.04140009 -0.05385584 -0.06448415
v 0.04143668 -0.05388208 -0.06135105
v 0.04149765 -0.05390834 -0.05544829
v 0.03922948 0.05448782 -0.05544829
v 0.03930264 0.05464532 -0.06448415
v 0.03930264 0.05468469 -0.06763604
v 0.03930264 0.05478969 -0.08021231
v 0.03930264 0.05480281 -0.08336420
v 0.03930264 0.05482906 -0.09277604
v 0.03930264 0.05481594 -0.09592167
v 0.03930264 0.05460594 -0.10850419
v 0.03921728 0.05451407 -0.11478919
v 0.03913192 0.05444845 -0.11946377
v 0.03682716 0.05602340 -0.11946377
v 0.04038795 -0.05306836 -0.11946377
v 0.04298538 -0.05263525 -0.06448415
v 0.04307074 -0.05270087 -0.05544829
v 0.04079037 0.05341160 -0.05544829
v 0.04087573 0.05346410 -0.05986596
v 0.04094890 0.05350348 -0.06448415
v 0.04099768 0.05355597 -0.07077541
v 0.04104645 0.05358222 -0.08021231
v 0.04104645 0.05359535 -0.08336420
v 0.04105865 0.05359535 -0.09277604
v 0.04104645 0.05359535 -0.09592167
v 0.04102206 0.05356910 -0.09906103
v 0.04087573 0.05346410 -0.11013340
v 0.04083915 0.05343785 -0.11223258
v 0.04072940 0.05335910 -0.11794108
v 0.04069281 0.05333285 -0.11946377
v 0.04236346 -0.05149341 -0.11946377
v 0.04393655 -0.05023345 -0.11946377
v 0.04485114 -0.05100780 -0.06763604
v 0.04488772 -0.05106029 -0.06448415
v 0.04497308 -0.05112592 -0.05544829
v 0.04244882 0.05213852 -0.05544829
v 0.04252199 0.05229601 -0.06448415
v 0.04255857 0.05232226 -0.06763604
v 0.04257077 0.05233538 -0.07077541
v 0.04258296 0.05234851 -0.07393358
v 0.04261954 0.05236163 -0.08021231
v 0.04263174 0.05236163 -0.09277604
v 0.04261954 0.05234851 -0.09592167
v 0.04252199 0.05225664 -0.10535856
v 0.04214396 0.05241413 -0.11137411
v 0.04244882 0.05191540 -0.11946377
v 0.04720467 -0.04720166 -0.11946377
v 0.04642422 -0.04962971 -0.06763604
v 0.04646081 -0.04965596 -0.06448415
v 0.04653398 -0.04972158 -0.05544829
v 0.04437555 0.05061606 -0.05544829
v 0.04450969 0.05072106 -0.06448415
v 0.04454627 0.05074731 -0.06763604
v 0.04458286 0.05078668 -0.07706667
v 0.04458286 0.05079981 -0.08336420
v 0.04458286 0.05079981 -0.09277604
v 0.04455847 0.05077356 -0.09592167
v 0.04444871 0.05068169 -0.10535856
v 0.04441213 0.05064231 -0.10850419
v 0.04436335 0.05060294 -0.11164355
v 0.04421702 0.05047169 -0.11946377
v 0.05024110 -0.04393363 -0.11946377
v 0.04964357 -0.04646668 -0.06763604
v 0.04807048 -0.04806788 -0.06763604
v 0.04811926 -0.04809413 -0.06448415
v 0.04818023 -0.04815976 -0.05544829
v 0.04575353 0.04942172 -0.05544829
v 0.04608278 0.04935610 -0.06448415
v 0.04610717 0.04938235 -0.06763604
v 0.04613155 0.04939547 -0.07077541
v 0.04615594 0.04940860 -0.08021231
v 0.04615594 0.04940860 -0.08336420
v 0.04615594 0.04939547 -0.09277604
v 0.04614375 0.04938235 -0.09592167
v 0.04598522 0.04922485 -0.10850419
v 0.04581450 0.04906736 -0.11794108
v 0.04577791 0.04902798 -0.11946377
v 0.05103374 -0.04482610 -0.07155869
v 0.05091180 -0.04313303 -0.11946377
v 0.05266781 -0.04306741 -0.06763604
v 0.05109471 -0.04489173 -0.06763604
v 0.04969235 -0.04649293 -0.06448415
v 0.04975332 -0.04657168 -0.05544829
v 0.04618033 0.04904111 -0.05544829
v 0.04770465 0.04766302 -0.05544829
v 0.04781439 0.04778115 -0.06448415
v 0.04782659 0.04780740 -0.06763604
v 0.04785098 0.04782052 -0.07077541
v 0.04787537 0.04783364 -0.08021231
v 0.04786317 0.04783364 -0.08336420
v 0.04783878 0.04782052 -0.09277604
v 0.04782659 0.04780740 -0.09592167
v 0.04779001 0.04776802 -0.09906103
v 0.04766806 0.04764990 -0.10850419
v 0.04754612 0.04754490 -0.11478919
v 0.04746075 0.04745303 -0.11946377
v 0.04659495 0.04826676 -0.11946377
v 0.05311900 -0.04041623 -0.11946377
v 0.05270439 -0.04309366 -0.06448415
v 0.05393603 -0.04149245 -0.06763604
v 0.05113130 -0.04491798 -0.06448415
v 0.05116788 -0.04498360 -0.05819915
v 0.05118007 -0.04499673 -0.05544829
v 0.04926554 0.04611432 -0.05544829
v 0.04938749 0.04623244 -0.06448415
v 0.04941187 0.04625869 -0.06763604
v 0.04942407 0.04627182 -0.07077541
v 0.04943626 0.04627182 -0.07706667
v 0.04943626 0.04627182 -0.08336420
v 0.04941187 0.04623244 -0.09277604
v 0.04939968 0.04620619 -0.09592167
v 0.04936310 0.04616682 -0.09906103
v 0.04922896 0.04602245 -0.10850419
v 0.04918018 0.04595682 -0.11164355
v 0.04911921 0.04589120 -0.11478919
v 0.04974113 0.04503810 -0.11946377
v 0.05426528 -0.03882816 -0.11946377
v 0.05566765 -0.03899878 -0.07051223
v 0.05397262 -0.04151870 -0.06448415
v 0.05275317 -0.04315928 -0.05544829
v 0.05550912 -0.03932689 -0.06763604
v 0.05554570 -0.03937939 -0.06448415
v 0.05080205 0.04453937 -0.05544829
v 0.05086302 0.04461812 -0.06135105
v 0.05088741 0.04465749 -0.06448415
v 0.05092399 0.04468374 -0.06763604
v 0.05093619 0.04469686 -0.08021231
v 0.05092399 0.04469686 -0.08336420
v 0.05088741 0.04465749 -0.09277604
v 0.05086302 0.04463124 -0.09592167
v 0.05082643 0.04459186 -0.09906103
v 0.05069230 0.04444750 -0.10850419
v 0.05064352 0.04438187 -0.11164355
v 0.05052157 0.04425063 -0.11794108
v 0.05048499 0.04422437 -0.11946377
v 0.05583837 -0.03657073 -0.11946377
v 0.05657004 -0.03767319 -0.07138950
v 0.05663101 -0.03775194 -0.06763604
v 0.05402139 -0.04158432 -0.05544829
v 0.05555790 -0.03940564 -0.06135105
v 0.05665540 -0.03779131 -0.06448415
v 0.05670418 -0.03785694 -0.05544829
v 0.05237514 0.04274130 -0.05544829
v 0.05247269 0.04285942 -0.06448415
v 0.05248489 0.04288566 -0.06763604
v 0.05250927 0.04289879 -0.07393358
v 0.05250927 0.04289879 -0.08021231
v 0.05249708 0.04288566 -0.08336420
v 0.05248489 0.04287254 -0.08650983
v 0.05246050 0.04283317 -0.09277604
v 0.05243611 0.04279379 -0.09592167
v 0.05239953 0.04274130 -0.09906103
v 0.05226539 0.04257068 -0.10850419
v 0.05220441 0.04250505 -0.11164355
v 0.05194833 0.04245255 -0.11946377
v 0.05686271 -0.03498265 -0.11946377
v 0.05742366 -0.03632136 -0.07155869
v 0.05738707 -0.03642635 -0.07051223
v 0.05763096 -0.03615074 -0.06763604
v 0.05769194 -0.03615074 -0.06448415
v 0.05559448 -0.03943189 -0.05544829
v 0.05777730 -0.03615074 -0.05544829
v 0.05370434 0.04117947 -0.05544829
v 0.05380189 0.04128446 -0.06448415
v 0.05381409 0.04131071 -0.06763604
v 0.05382628 0.04132384 -0.07077541
v 0.05382628 0.04132384 -0.08021231
v 0.05380189 0.04129759 -0.08650983
v 0.05376531 0.04125821 -0.09277604
v 0.05374092 0.04121884 -0.09592167
v 0.05360678 0.04106134 -0.10535856
v 0.05355800 0.04100885 -0.10850419
v 0.05349703 0.04093010 -0.11164355
v 0.05333850 0.04073323 -0.11946377
v 0.05742366 -0.03405080 -0.11946377
v 0.05915527 -0.03352581 -0.07077541
v 0.05919186 -0.03359144 -0.06763604
v 0.05921624 -0.03363081 -0.06448415
v 0.05922844 -0.03368331 -0.06135105
v 0.05925283 -0.03369644 -0.05544829
v 0.05530182 0.03931577 -0.06448415
v 0.05511890 0.03931577 -0.05544829
v 0.05533840 0.03931577 -0.06763604
v 0.05535059 0.03931577 -0.07077541
v 0.05535059 0.03931577 -0.08021231
v 0.05532620 0.03931577 -0.08336420
v 0.05528962 0.03931577 -0.08650983
v 0.05520426 0.03931577 -0.09277604
v 0.05514329 0.03931577 -0.09592167
v 0.05488720 0.03931577 -0.10535856
v 0.05478965 0.03931577 -0.10850419
v 0.05467990 0.03931577 -0.11164355
v 0.05389945 0.03997200 -0.11946377
v 0.05802119 -0.03301396 -0.11946377
v 0.05986255 -0.03163587 -0.08336420
v 0.05994791 -0.03180649 -0.07707921
v 0.06006986 -0.03202961 -0.06763604
v 0.06008206 -0.03208211 -0.06448415
v 0.06011864 -0.03212148 -0.05819915
v 0.06011864 -0.03212148 -0.05544829
v 0.05648468 0.03755707 -0.05819915
v 0.05653346 0.03763582 -0.06448415
v 0.05655785 0.03766207 -0.06763604
v 0.05628957 0.03774082 -0.05544829
v 0.05655785 0.03767520 -0.07706667
v 0.05655785 0.03766207 -0.08021231
v 0.05654565 0.03764895 -0.08336420
v 0.05648468 0.03754395 -0.09277604
v 0.05643590 0.03750458 -0.09592167
v 0.05631396 0.03729458 -0.10535856
v 0.05620421 0.03713709 -0.11164355
v 0.05615543 0.03704521 -0.11478919
v 0.05530182 0.03799019 -0.11946377
v 0.05450917 0.03919765 -0.11794108
v 0.05866750 -0.03184586 -0.11946377
v 0.05933819 -0.03062528 -0.11946377
v 0.05974061 -0.02982467 -0.11946377
v 0.06082592 -0.02987717 -0.08021231
v 0.06091128 -0.02987717 -0.07707921
v 0.06099664 -0.02987717 -0.07392731
v 0.06115517 -0.02987717 -0.06763604
v 0.06026497 -0.03145213 -0.07155869
v 0.06120395 -0.02987717 -0.06448415
v 0.06125272 -0.02987717 -0.05544829
v 0.05644810 0.03751770 -0.05544829
v 0.05658223 0.03732083 -0.05544829
v 0.05749682 0.03594275 -0.05544829
v 0.05752121 0.03598212 -0.05819915
v 0.05756999 0.03606087 -0.06448415
v 0.05758218 0.03608712 -0.06763604
v 0.05758218 0.03610024 -0.07706667
v 0.05756999 0.03608712 -0.08021231
v 0.05755779 0.03606087 -0.08336420
v 0.05752121 0.03600837 -0.08963040
v 0.05749682 0.03598212 -0.09277604
v 0.05744804 0.03592962 -0.09592167
v 0.05732610 0.03571963 -0.10535856
v 0.05727732 0.03565401 -0.10850419
v 0.05707002 0.03532589 -0.11946377
v 0.05605787 0.03690084 -0.11946377
v 0.06011864 -0.02906345 -0.11946377
v 0.06194781 -0.02746225 -0.08021231
v 0.06128931 -0.02937844 -0.07155869
v 0.06194781 -0.02813160 -0.06763604
v 0.06194781 -0.02824972 -0.06448415
v 0.06194781 -0.02835472 -0.05544829
v 0.05906991 0.03343595 -0.05544829
v 0.05911869 0.03351470 -0.06135105
v 0.05915527 0.03358032 -0.06763604
v 0.05915527 0.03358032 -0.07077541
v 0.05915527 0.03356719 -0.07706667
v 0.05915527 0.03355407 -0.08021231
v 0.05913088 0.03352782 -0.08336420
v 0.05909430 0.03343595 -0.08963040
v 0.05906991 0.03338345 -0.09277604
v 0.05902114 0.03333095 -0.09592167
v 0.05889919 0.03308158 -0.10535856
v 0.05870408 0.03302908 -0.11164355
v 0.05841141 0.03302908 -0.11946377
v 0.06119175 -0.02672727 -0.11946377
v 0.06194781 -0.02672727 -0.09146013
v 0.06194781 0.02793673 -0.05544829
v 0.05998450 0.03186099 -0.05544829
v 0.06005767 0.03197912 -0.06448415
v 0.06006986 0.03200536 -0.06763604
v 0.06006986 0.03200536 -0.07077541
v 0.06005767 0.03200536 -0.07706667
v 0.06005767 0.03199224 -0.08021231
v 0.06003328 0.03195286 -0.08336420
v 0.06000889 0.03191349 -0.08650983
v 0.05996011 0.03182162 -0.09277604
v 0.05987475 0.03167725 -0.09906103
v 0.05975280 0.03145413 -0.10700657
v 0.05900894 0.03271409 -0.10823475
v 0.05971622 0.03138851 -0.10909321
v 0.05955769 0.03106039 -0.11794108
v 0.05952111 0.03100789 -0.11946377
v 0.06177709 -0.02529668 -0.11946377
v 0.06194781 -0.02486357 -0.11946377
v 0.06194781 0.02821235 -0.06448415
v 0.06115517 0.02987918 -0.06448415
v 0.06102103 0.02987918 -0.05544829
v 0.06117956 0.02987918 -0.06763604
v 0.06116736 0.02987918 -0.07393358
v 0.06115517 0.02987918 -0.07706667
v 0.06113078 0.02987918 -0.08021231
v 0.06109420 0.02987918 -0.08336420
v 0.06093567 0.02987918 -0.09277604
v 0.06086250 0.02987918 -0.09592167
v 0.06035034 0.03015479 -0.10823475
v 0.06044789 0.02972168 -0.11164355
v 0.06030155 0.02943294 -0.11946377
v 0.06194781 0.02567930 -0.11946377
v 0.06194781 0.02826485 -0.06763604
v 0.06194781 0.02821235 -0.07508656
v 0.06194781 0.02817298 -0.07821966
v 0.06194781 0.02814673 -0.08021231
v 0.06194781 0.02805486 -0.08336420
v 0.06194781 0.02767424 -0.09277604
v 0.06056983 0.02987918 -0.10535856
v 0.06194781 0.02763487 -0.09353424
v 0.06194781 0.02750362 -0.09592167
v 0.06194781 0.02746425 -0.09657962
v 0.06194781 0.02666365 -0.10837887
v 0.06094786 0.02801548 -0.11946377
v 0.06152100 0.02672927 -0.11946377
v 0.06158198 0.02672927 -0.11794108
v 0.06194781 0.02592867 -0.11682570
v 0.06194781 0.02642741 -0.11115479
f 1 2 8
f 1 8 3
f 1 3 4
f 1 4 10
f 1 10 5
f 1 5 13
f 1 13 6
f 1 6 2
f 2 7 41
f 2 41 8
f 2 6 7
f 3 8 9
f 3 9 4
f 4 9 62
f 4 62 10
f 5 10 11
f 5 11 12
f 5 12 13
f 6 14 107
f 6 107 15
f 6 15 16
f 6 16 17
f 6 17 18
f 6 18 19
f 6 19 20
f 6 20 21
f 6 21 22
f 6 22 23
f 6 23 24
f 6 24 25
f 6 25 26
f 6 26 27
f 6 27 28
f 6 28 29
f 6 29 30
f 6 30 31
f 6 31 32
f 6 32 33
f 6 33 34
f 6 34 35
f 6 35 36
f 6 36 37
f 6 37 38
f 6 38 39
f 6 39 7
f 6 13 95
f 6 95 174
f 6 174 208
f 6 208 228
f 6 228 238
f 6 238 250
f 6 250 263
f 6 263 283
f 6 283 282
f 6 282 297
f 6 297 311
f 6 311 325
f 6 325 337
f 6 337 354
f 6 354 353
f 6 353 369
f 6 369 382
f 6 382 398
f 6 398 417
f 6 417 432
f 6 432 447
f 6 447 446
f 6 446 463
f 6 463 479
f 6 479 494
f 6 494 510
f 6 510 530
f 6 530 529
f 6 529 549
f 6 549 568
f 6 568 588
f 6 588 607
f 6 607 626
f 6 626 646
f 6 646 673
f 6 673 672
f 6 672 692
f 6 692 710
f 6 710 725
f 6 725 738
f 6 738 739
f 6 739 726
f 6 726 712
f 6 712 711
f 6 711 693
f 6 693 674
f 6 674 650
f 6 650 649
f 6 649 648
f 6 648 627
f 6 627 608
f 6 608 589
f 6 589 569
f 6 569 550
f 6 550 531
f 6 531 512
f 6 512 495
f 6 495 480
f 6 480 465
f 6 465 464
f 6 464 448
f 6 448 433
f 6 433 418
f 6 418 399
f 6 399 383
f 6 383 370
f 6 370 355
f 6 355 341
f 6 341 340
f 6 340 338
f 6 338 326
f 6 326 312
f 6 312 298
f 6 298 284
f 6 284 264
f 6 264 251
f 6 251 240
f 6 240 230
f 6 230 211
f 6 211 180
f 6 180 108
f 6 108 14
f 7 39 40
f 7 40 41
f 8 41 9
f 9 41 40
f 9 40 42
f 9 42 43
f 9 43 44
f 9 44 45
f 9 45 46
f 9 46 47
f 9 47 48
f 9 48 49
f 9 49 50
f 9 50 51
f 9 51 52
f 9 52 53
f 9 53 54
f 9 54 55
f 9 55 56
f 9 56 57
f 9 57 58
f 9 58 59
f 9 59 60
f 9 60 61
f 9 61 109
f 9 109 179
f 9 179 178
f 9 178 210
f 9 210 229
f 9 229 239
f 9 239 253
f 9 253 267
f 9 267 286
f 9 286 300
f 9 300 315
f 9 315 328
f 9 328 343
f 9 343 357
f 9 357 372
f 9 372 386
f 9 386 405
f 9 405 404
f 9 404 403
f 9 403 420
f 9 420 436
f 9 436 450
f 9 450 468
f 9 468 483
f 9 483 499
f 9 499 516
f 9 516 536
f 9 536 553
f 9 553 572
f 9 572 594
f 9 594 575
f 9 575 595
f 9 595 613
f 9 613 633
f 9 633 657
f 9 657 679
f 9 679 695
f 9 695 715
f 9 715 696
f 9 696 680
f 9 680 660
f 9 660 659
f 9 659 658
f 9 658 637
f 9 637 615
f 9 615 596
f 9 596 576
f 9 576 556
f 9 556 537
f 9 537 518
f 9 518 517
f 9 517 500
f 9 500 484
f 9 484 469
f 9 469 451
f 9 451 437
f 9 437 421
f 9 421 406
f 9 406 387
f 9 387 373
f 9 373 358
f 9 358 346
f 9 346 329
f 9 329 316
f 9 316 301
f 9 301 287
f 9 287 272
f 9 272 271
f 9 271 269
f 9 269 268
f 9 268 254
f 9 254 241
f 9 241 232
f 9 232 213
f 9 213 181
f 9 181 114
f 9 114 62
f 10 62 11
f 11 63 12
f 11 62 63
f 12 63 64
f 12 64 13
f 13 65 66
f 13 66 67
f 13 67 68
f 13 68 69
f 13 69 70
f 13 70 71
f 13 71 72
f 13 72 73
f 13 73 74
f 13 74 75
f 13 75 76
f 13 76 77
f 13 77 78
f 13 78 79
f 13 79 80
f 13 80 81
f 13 81 82
f 13 82 83
f 13 83 84
f 13 84 85
f 13 85 86
f 13 86 87
f 13 87 88
f 13 88 89
f 13 89 90
f 13 90 91
f 13 91 92
f 13 92 93
f 13 93 94
f 13 94 95
f 13 64 96
f 13 96 97
f 13 97 98
f 13 98 99
f 13 99 100
f 13 100 101
f 13 101 102
f 13 102 103
f 13 103 104
f 13 104 105
f 13 105 106
f 13 106 65
f 14 108 109
f 14 109 61
f 14 61 107
f 15 107 61
f 15 61 16
f 16 61 17
f 17 61 110
f 17 110 111
f 17 111 18
f 18 111 112
f 18 112 60
f 18 60 19
f 19 60 59
f 19 59 20
f 20 59 58
f 20 58 21
f 21 58 57
f 21 57 56
f 21 56 22
f 22 56 55
f 22 55 23
f 23 55 24
f 24 55 25
f 25 55 54
f 25 54 26
f 26 54 27
f 27 54 53
f 27 53 52
f 27 52 28
f 28 52 51
f 28 51 29
f 29 51 30
f 30 51 50
f 30 50 31
f 31 50 32
f 32 50 49
f 32 49 48
f 32 48 33
f 33 48 47
f 33 47 34
f 34 47 113
f 34 113 46
f 34 46 45
f 34 45 35
f 35 45 44
f 35 44 36
f 36 44 37
f 37 44 38
f 38 44 43
f 38 43 42
f 38 42 39
f 39 42 40
f 46 113 47
f 60 112 61
f 61 112 111
f 61 111 110
f 62 114 115
f 62 115 116
f 62 116 117
f 62 117 118
f 62 118 119
f 62 119 120
f 62 120 121
f 62 121 122
f 62 122 123
f 62 123 124
f 62 124 125
f 62 125 126
f 62 126 127
f 62 127 128
f 62 128 129
f 62 129 130
f 62 130 131
f 62 131 132
f 62 132 133
f 62 133 134
f 62 134 135
f 62 135 136
f 62 136 137
f 62 137 138
f 62 138 139
f 62 139 140
f 62 140 141
f 62 141 142
f 62 142 143
f 62 143 144
f 62 144 145
f 62 145 146
f 62 146 147
f 62 147 148
f 62 148 149
f 62 149 150
f 62 150 151
f 62 151 152
f 62 152 153
f 62 153 154
f 62 154 63
f 63 154 64
f 64 154 96
f 65 142 66
f 65 106 142
f 66 142 67
f 67 142 141
f 67 141 68
f 68 141 140
f 68 140 69
f 69 140 70
f 70 140 71
f 71 140 139
f 71 139 138
f 71 138 72
f 72 138 73
f 73 138 137
f 73 137 74
f 74 137 136
f 74 136 75
f 75 136 76
f 76 136 135
f 76 135 77
f 77 135 134
f 77 134 78
f 78 134 133
f 78 133 79
f 79 133 80
f 80 133 132
f 80 132 155
f 80 155 81
f 81 155 82
f 82 155 156
f 82 156 157
f 82 157 83
f 83 157 158
f 83 158 159
f 83 159 84
f 84 159 160
f 84 160 85
f 85 160 161
f 85 161 86
f 86 161 162
f 86 162 163
f 86 163 87
f 87 163 88
f 88 163 164
f 88 164 165
f 88 165 166
f 88 166 89
f 89 166 90
f 90 166 91
f 91 166 167
f 91 167 92
f 92 167 168
f 92 168 93
f 93 168 169
f 93 169 94
f 94 169 170
f 94 170 171
f 94 171 172
f 94 172 173
f 94 173 95
f 95 173 172
f 95 172 175
f 95 175 176
f 95 176 177
f 95 177 174
f 96 154 153
f 96 153 97
f 97 153 152
f 97 152 98
f 98 152 99
f 99 152 151
f 99 151 100
f 100 151 101
f 101 151 150
f 101 150 149
f 101 149 102
f 102 149 103
f 103 149 148
f 103 148 147
f 103 147 104
f 104 147 146
f 104 146 145
f 104 145 105
f 105 145 144
f 105 144 143
f 105 143 106
f 106 143 142
f 108 178 179
f 108 179 109
f 108 180 178
f 114 181 182
f 114 182 183
f 114 183 115
f 115 184 116
f 115 183 185
f 115 185 184
f 116 184 117
f 117 184 186
f 117 186 118
f 118 186 187
f 118 187 188
f 118 188 189
f 118 189 119
f 119 189 120
f 120 189 188
f 120 188 121
f 121 188 190
f 121 190 122
f 122 190 191
f 122 191 123
f 123 191 124
f 124 191 192
f 124 192 193
f 124 193 125
f 125 193 194
f 125 194 126
f 126 194 127
f 127 194 195
f 127 195 128
f 128 195 196
f 128 196 129
f 129 197 130
f 129 196 197
f 130 197 156
f 130 156 131
f 131 156 132
f 132 156 155
f 156 197 157
f 157 197 196
f 157 196 158
f 158 196 195
f 158 195 160
f 158 160 159
f 160 195 194
f 160 194 198
f 160 198 161
f 161 198 162
f 162 198 193
f 162 193 192
f 162 192 164
f 162 164 163
f 164 192 221
f 164 221 199
f 164 199 165
f 165 199 166
f 166 199 200
f 166 200 167
f 167 200 201
f 167 201 168
f 168 201 169
f 169 201 202
f 169 202 203
f 169 203 204
f 169 204 170
f 170 204 222
f 170 222 205
f 170 205 176
f 170 176 175
f 170 175 171
f 171 175 172
f 174 177 206
f 174 206 207
f 174 207 208
f 176 209 206
f 176 206 177
f 176 205 209
f 178 180 210
f 180 211 212
f 180 212 210
f 181 213 182
f 182 214 183
f 182 213 215
f 182 215 214
f 183 214 216
f 183 216 217
f 183 217 218
f 183 218 219
f 183 219 185
f 184 185 186
f 185 219 220
f 185 220 186
f 186 220 204
f 186 204 187
f 187 203 202
f 187 202 188
f 187 204 203
f 188 202 190
f 190 202 221
f 190 221 191
f 191 221 192
f 193 198 194
f 199 221 202
f 199 202 201
f 199 201 200
f 204 220 222
f 205 222 217
f 205 217 209
f 206 209 217
f 206 217 216
f 206 216 223
f 206 223 224
f 206 224 225
f 206 225 226
f 206 226 207
f 207 226 208
f 208 226 227
f 208 227 228
f 210 212 229
f 211 230 212
f 212 230 229
f 213 231 215
f 213 232 231
f 214 215 216
f 215 231 233
f 215 233 234
f 215 234 223
f 215 223 216
f 217 222 218
f 218 222 220
f 218 220 219
f 223 234 235
f 223 235 224
f 224 235 225
f 225 235 226
f 226 235 236
f 226 236 227
f 227 236 228
f 228 236 237
f 228 237 238
f 229 230 239
f 230 240 239
f 231 232 241
f 231 241 233
f 233 241 242
f 233 242 243
f 233 243 244
f 233 244 234
f 234 244 245
f 234 245 246
f 234 246 235
f 235 246 247
f 235 247 236
f 236 247 248
f 236 248 249
f 236 249 237
f 237 249 250
f 237 250 238
f 239 240 251
f 239 251 252
f 239 252 253
f 241 254 242
f 242 254 255
f 242 255 243
f 243 255 256
f 243 256 244
f 244 256 257
f 244 257 258
f 244 258 245
f 245 258 259
f 245 259 246
f 246 259 247
f 247 259 260
f 247 260 261
f 247 261 248
f 248 261 262
f 248 262 249
f 249 262 263
f 249 263 250
f 251 264 265
f 251 265 266
f 251 266 252
f 252 266 253
f 253 266 267
f 254 268 255
f 255 268 269
f 255 269 256
f 256 269 270
f 256 270 271
f 256 271 272
f 256 272 273
f 256 273 274
f 256 274 257
f 257 274 258
f 258 274 275
f 258 275 276
f 258 276 277
f 258 277 259
f 259 277 278
f 259 278 260
f 260 278 261
f 261 278 262
f 262 278 279
f 262 279 280
f 262 280 281
f 262 281 282
f 262 282 283
f 262 283 263
f 264 284 265
f 265 284 285
f 265 285 266
f 266 285 286
f 266 286 267
f 269 271 270
f 272 287 288
f 272 288 273
f 273 288 289
f 273 289 274
f 274 289 290
f 274 290 275
f 275 290 291
f 275 291 276
f 276 291 292
f 276 292 277
f 277 292 278
f 278 292 293
f 278 293 294
f 278 294 279
f 279 294 295
f 279 295 280
f 280 295 281
f 281 295 296
f 281 296 297
f 281 297 282
f 284 298 285
f 285 298 299
f 285 299 300
f 285 300 286
f 287 301 302
f 287 302 288
f 288 302 289
f 289 302 303
f 289 303 304
f 289 304 290
f 290 304 305
f 290 305 306
f 290 306 291
f 291 306 307
f 291 307 292
f 292 307 308
f 292 308 293
f 293 308 294
f 294 308 309
f 294 309 295
f 295 309 296
f 296 309 310
f 296 310 297
f 297 310 311
f 298 312 299
f 299 312 313
f 299 313 314
f 299 314 300
f 300 314 315
f 301 316 302
f 302 316 317
f 302 317 303
f 303 317 304
f 304 317 318
f 304 318 319
f 304 319 305
f 305 319 320
f 305 320 306
f 306 320 321
f 306 321 307
f 307 321 308
f 308 321 322
f 308 322 309
f 309 322 323
f 309 323 310
f 310 323 324
f 310 324 325
f 310 325 311
f 312 326 313
f 313 326 327
f 313 327 314
f 314 327 315
f 315 327 328
f 316 329 330
f 316 330 317
f 317 330 331
f 317 331 318
f 318 331 319
f 319 331 320
f 320 331 332
f 320 332 333
f 320 333 321
f 321 333 334
f 321 334 322
f 322 334 323
f 323 334 335
f 323 335 336
f 323 336 324
f 324 336 337
f 324 337 325
f 326 338 327
f 327 339 328
f 327 338 340
f 327 340 341
f 327 341 342
f 327 342 339
f 328 339 343
f 329 344 345
f 329 345 330
f 329 346 344
f 330 345 331
f 331 345 347
f 331 347 332
f 332 347 348
f 332 348 349
f 332 349 333
f 333 349 334
f 334 349 350
f 334 350 335
f 335 350 351
f 335 351 336
f 336 351 352
f 336 352 353
f 336 353 354
f 336 354 337
f 339 342 343
f 341 355 342
f 342 355 356
f 342 356 343
f 343 356 357
f 344 346 358
f 344 358 359
f 344 359 345
f 345 359 360
f 345 360 361
f 345 361 347
f 347 361 348
f 348 361 362
f 348 362 363
f 348 363 364
f 348 364 349
f 349 364 365
f 349 365 366
f 349 366 350
f 350 366 351
f 351 366 367
f 351 367 352
f 352 367 368
f 352 368 353
f 353 368 369
f 355 370 356
f 356 370 371
f 356 371 372
f 356 372 357
f 358 373 374
f 358 374 359
f 359 374 360
f 360 374 361
f 361 374 375
f 361 375 376
f 361 376 362
f 362 376 363
f 363 376 377
f 363 377 364
f 364 377 365
f 365 377 366
f 366 377 378
f 366 378 367
f 367 378 379
f 367 379 380
f 367 380 368
f 368 380 381
f 368 381 369
f 369 381 382
f 370 383 371
f 371 383 384
f 371 384 385
f 371 385 386
f 371 386 372
f 373 387 388
f 373 388 374
f 374 388 389
f 374 389 375
f 375 389 376
f 376 389 390
f 376 390 391
f 376 391 392
f 376 392 377
f 377 392 393
f 377 393 394
f 377 394 378
f 378 394 395
f 378 395 396
f 378 396 397
f 378 397 379
f 379 397 380
f 380 397 381
f 381 397 398
f 381 398 382
f 383 399 384
f 384 399 400
f 384 400 401
f 384 401 402
f 384 402 385
f 385 402 403
f 385 403 404
f 385 404 405
f 385 405 386
f 387 406 407
f 387 407 388
f 388 407 408
f 388 408 389
f 389 408 409
f 389 409 410
f 389 410 390
f 390 410 391
f 391 410 411
f 391 411 392
f 392 412 393
f 392 411 412
f 393 412 413
f 393 413 394
f 394 413 414
f 394 414 395
f 395 414 415
f 395 415 396
f 396 415 397
f 397 415 416
f 397 416 398
f 398 416 417
f 399 418 400
f 400 418 419
f 400 419 401
f 401 419 402
f 402 419 420
f 402 420 403
f 406 421 407
f 407 421 422
f 407 422 423
f 407 423 408
f 408 423 424
f 408 424 409
f 409 424 425
f 409 425 410
f 410 425 411
f 411 425 426
f 411 426 412
f 412 426 427
f 412 427 428
f 412 428 413
f 413 428 414
f 414 428 429
f 414 429 415
f 415 429 430
f 415 430 416
f 416 430 431
f 416 431 432
f 416 432 417
f 418 433 419
f 419 433 434
f 419 434 420
f 420 434 435
f 420 435 436
f 421 437 438
f 421 438 422
f 422 438 423
f 423 438 424
f 424 438 439
f 424 439 425
f 425 439 440
f 425 440 426
f 426 440 441
f 426 441 442
f 426 442 427
f 427 442 428
f 428 442 443
f 428 443 429
f 429 443 444
f 429 444 430
f 430 444 445
f 430 445 431
f 431 445 446
f 431 446 447
f 431 447 432
f 433 448 434
f 434 448 449
f 434 449 435
f 435 449 450
f 435 450 436
f 437 451 452
f 437 452 438
f 438 452 453
f 438 453 454
f 438 454 439
f 439 454 440
f 440 454 455
f 440 455 456
f 440 456 441
f 441 456 442
f 442 456 457
f 442 457 458
f 442 458 443
f 443 458 459
f 443 459 444
f 444 459 460
f 444 460 445
f 445 460 461
f 445 461 446
f 446 461 462
f 446 462 463
f 448 464 449
f 449 464 465
f 449 465 466
f 449 466 467
f 449 467 468
f 449 468 450
f 451 469 452
f 452 469 470
f 452 470 453
f 453 470 471
f 453 471 454
f 454 471 472
f 454 472 473
f 454 473 455
f 455 473 474
f 455 474 456
f 456 474 457
f 457 475 458
f 457 474 475
f 458 475 476
f 458 476 459
f 459 476 477
f 459 477 460
f 460 477 478
f 460 478 461
f 461 478 462
f 462 478 479
f 462 479 463
f 465 480 481
f 465 481 466
f 466 481 467
f 467 481 482
f 467 482 468
f 468 482 483
f 469 484 470
f 470 484 485
f 470 485 486
f 470 486 471
f 471 486 472
f 472 486 487
f 472 487 473
f 473 487 474
f 474 487 488
f 474 488 475
f 475 488 489
f 475 489 476
f 476 489 490
f 476 490 477
f 477 490 491
f 477 491 492
f 477 492 478
f 478 492 493
f 478 493 479
f 479 493 494
f 480 495 496
f 480 496 497
f 480 497 481
f 481 497 498
f 481 498 482
f 482 498 483
f 483 498 499
f 484 500 485
f 485 500 501
f 485 501 486
f 486 501 502
f 486 502 503
f 486 503 487
f 487 503 504
f 487 504 488
f 488 504 505
f 488 505 489
f 489 505 506
f 489 506 507
f 489 507 490
f 490 507 491
f 491 507 492
f 492 507 508
f 492 508 493
f 493 508 509
f 493 509 494
f 494 509 510
f 495 511 496
f 495 512 513
f 495 513 511
f 496 511 514
f 496 514 515
f 496 515 498
f 496 498 497
f 498 515 516
f 498 516 499
f 500 517 501
f 501 517 518
f 501 518 519
f 501 519 502
f 502 519 520
f 502 520 521
f 502 521 503
f 503 521 522
f 503 522 504
f 504 522 505
f 505 522 506
f 506 522 523
f 506 523 524
f 506 524 525
f 506 525 507
f 507 525 526
f 507 526 508
f 508 526 527
f 508 527 509
f 509 527 528
f 509 528 529
f 509 529 530
f 509 530 510
f 511 513 514
f 512 531 513
f 513 532 534
f 513 534 514
f 513 531 533
f 513 533 552
f 513 552 532
f 514 534 515
f 515 534 535
f 515 535 516
f 516 535 536
f 518 537 538
f 518 538 519
f 519 538 539
f 519 539 520
f 520 539 521
f 521 539 540
f 521 540 522
f 522 540 541
f 522 541 542
f 522 542 523
f 523 542 524
f 524 542 543
f 524 543 525
f 525 543 544
f 525 544 545
f 525 545 526
f 526 545 527
f 527 545 546
f 527 546 528
f 528 546 547
f 528 547 529
f 529 547 548
f 529 548 549
f 531 550 551
f 531 551 533
f 532 552 572
f 532 572 553
f 532 553 535
f 532 535 534
f 533 551 554
f 533 554 555
f 533 555 552
f 535 553 536
f 537 556 538
f 538 556 557
f 538 557 558
f 538 558 559
f 538 559 539
f 539 559 540
f 540 559 560
f 540 560 541
f 541 560 542
f 542 560 561
f 542 561 543
f 543 561 562
f 543 562 544
f 544 562 563
f 544 563 564
f 544 564 545
f 545 564 565
f 545 565 546
f 546 565 566
f 546 566 547
f 547 566 549
f 547 549 548
f 549 566 567
f 549 567 568
f 550 569 570
f 550 570 551
f 551 570 571
f 551 571 554
f 552 555 572
f 554 571 555
f 555 573 572
f 555 571 574
f 555 574 575
f 555 575 573
f 556 576 577
f 556 577 557
f 557 577 559
f 557 559 558
f 559 577 578
f 559 578 579
f 559 579 560
f 560 580 561
f 560 579 580
f 561 580 581
f 561 581 582
f 561 582 562
f 562 582 583
f 562 583 563
f 563 583 584
f 563 584 564
f 564 584 585
f 564 585 565
f 565 585 586
f 565 586 566
f 566 586 567
f 567 586 587
f 567 587 568
f 568 587 588
f 569 589 570
f 570 589 571
f 571 589 590
f 571 590 591
f 571 591 592
f 571 592 593
f 571 593 574
f 572 573 594
f 573 575 594
f 574 593 575
f 575 593 595
f 576 596 577
f 577 596 597
f 577 597 598
f 577 598 578
f 578 598 599
f 578 599 579
f 579 599 600
f 579 600 580
f 580 600 581
f 581 600 601
f 581 601 582
f 582 601 583
f 583 601 602
f 583 602 603
f 583 603 584
f 584 603 585
f 585 603 604
f 585 604 586
f 586 604 605
f 586 605 587
f 587 605 588
f 588 605 606
f 588 606 607
f 589 608 609
f 589 609 590
f 590 609 591
f 591 609 592
f 592 609 610
f 592 610 593
f 593 610 611
f 593 611 612
f 593 612 595
f 595 612 613
f 596 614 597
f 596 615 614
f 597 614 616
f 597 616 598
f 598 616 599
f 599 616 617
f 599 617 618
f 599 618 600
f 600 618 601
f 601 618 619
f 601 619 602
f 602 619 620
f 602 620 621
f 602 621 603
f 603 621 622
f 603 622 604
f 604 622 623
f 604 623 605
f 605 623 624
f 605 624 625
f 605 625 606
f 606 625 626
f 606 626 607
f 608 627 609
f 609 627 628
f 609 628 629
f 609 629 630
f 609 630 610
f 610 630 611
f 611 630 612
f 612 630 631
f 612 631 632
f 612 632 613
f 613 632 633
f 614 615 634
f 614 634 635
f 614 635 636
f 614 636 616
f 615 637 634
f 616 636 617
f 617 636 638
f 617 638 618
f 618 638 639
f 618 639 640
f 618 640 619
f 619 640 620
f 620 640 621
f 621 640 641
f 621 641 622
f 622 641 642
f 622 642 623
f 623 642 643
f 623 643 624
f 624 643 625
f 625 643 644
f 625 644 645
f 625 645 646
f 625 646 647
f 625 647 626
f 626 647 646
f 627 648 628
f 628 648 649
f 628 649 650
f 628 650 651
f 628 651 652
f 628 652 629
f 629 652 653
f 629 653 654
f 629 654 655
f 629 655 630
f 630 655 654
f 630 654 656
f 630 656 631
f 631 656 632
f 632 656 657
f 632 657 633
f 634 637 658
f 634 658 659
f 634 659 660
f 634 660 661
f 634 661 662
f 634 662 635
f 635 662 636
f 636 662 663
f 636 663 664
f 636 664 638
f 638 664 639
f 639 664 640
f 640 664 665
f 640 665 666
f 640 666 667
f 640 667 668
f 640 668 641
f 641 668 642
f 642 668 669
f 642 669 670
f 642 670 643
f 643 670 671
f 643 671 644
f 644 671 645
f 645 671 672
f 645 672 673
f 645 673 646
f 650 674 651
f 651 674 675
f 651 675 652
f 652 675 653
f 653 675 676
f 653 676 654
f 654 676 677
f 654 677 678
f 654 678 656
f 656 678 657
f 657 678 679
f 660 680 661
f 661 680 681
f 661 681 662
f 662 681 682
f 662 682 663
f 663 682 664
f 664 682 683
f 664 683 684
f 664 684 685
f 664 685 665
f 665 685 666
f 666 685 667
f 667 685 686
f 667 686 668
f 668 686 687
f 668 687 688
f 668 688 689
f 668 689 669
f 669 689 670
f 670 689 671
f 671 689 690
f 671 690 691
f 671 691 672
f 672 691 692
f 674 693 675
f 675 677 676
f 675 693 694
f 675 694 712
f 675 712 726
f 675 726 741
f 675 741 742
f 675 742 737
f 675 737 736
f 675 736 735
f 675 735 734
f 675 734 732
f 675 732 731
f 675 731 730
f 675 730 729
f 675 729 728
f 675 728 727
f 675 727 713
f 675 713 695
f 675 695 679
f 675 679 678
f 675 678 677
f 680 696 681
f 681 696 697
f 681 697 682
f 682 697 698
f 682 698 699
f 682 699 683
f 683 699 684
f 684 699 700
f 684 700 701
f 684 701 685
f 685 701 686
f 686 701 687
f 687 701 702
f 687 702 703
f 687 703 704
f 687 704 688
f 688 704 689
f 689 704 705
f 689 705 690
f 690 705 706
f 690 706 707
f 690 707 691
f 691 707 692
f 692 707 708
f 692 708 709
f 692 709 710
f 693 711 694
f 694 711 712
f 695 713 714
f 695 714 715
f 696 715 697
f 697 715 714
f 697 714 698
f 698 714 716
f 698 716 699
f 699 716 717
f 699 717 700
f 700 717 701
f 701 717 718
f 701 718 719
f 701 719 720
f 701 720 702
f 702 720 703
f 703 720 704
f 704 720 721
f 704 721 722
f 704 722 705
f 705 722 706
f 706 722 723
f 706 723 708
f 706 708 707
f 708 723 724
f 708 724 709
f 709 724 725
f 709 725 710
f 713 727 714
f 714 727 716
f 716 727 717
f 717 727 728
f 717 728 718
f 718 728 729
f 718 729 730
f 718 730 719
f 719 730 720
f 720 730 731
f 720 731 721
f 721 731 732
f 721 732 722
f 722 724 733
f 722 733 723
f 722 732 734
f 722 734 735
f 722 735 736
f 722 736 724
f 723 733 724
f 724 736 737
f 724 737 738
f 724 738 725
f 726 739 740
f 726 740 741
f 737 742 740
f 737 740 738
f 738 740 739
f 740 742 741

