# https://github.com/mikedh/trimesh
v -0.06782065 -0.07391258 -0.14293285
v -0.06782768 -0.07409080 -0.14293285
v -0.06824401 -0.07077035 -0.14293285
v -0.06818068 -0.07079497 0.14449967
v -0.06791447 -0.07391258 0.14449967
v -0.06796372 -0.07524803 0.14449967
v -0.06817247 -0.07705833 -0.14293285
v -0.06805285 -0.07710406 0.14449967
v -0.06892654 -0.06892722 -0.14293285
v -0.06838825 -0.06985348 0.14449967
v -0.06819123 -0.07715916 -0.14293285
v -0.06876001 -0.07886746 0.14449967
v -0.06886556 -0.07886511 -0.14293285
v -0.07077009 -0.06824367 -0.14293285
v -0.06985418 -0.06838671 0.14449967
v -0.06888784 -0.06888853 0.14449967
v -0.06974981 -0.07918989 0.14449967
v -0.07077009 -0.07945018 -0.14293285
v -0.07391304 -0.06781923 -0.14293285
v -0.07079472 -0.06818153 0.14449967
v -0.07077009 -0.07944548 0.14449967
v -0.07391304 -0.07979723 -0.14293285
v -0.07252569 -0.07964833 0.14449967
v -0.07409012 -0.06782861 -0.14293285
v -0.07710407 -0.06805255 0.14449967
v -0.07524879 -0.06796462 0.14449967
v -0.07391304 -0.06791303 0.14449967
v -0.07705834 -0.07962839 -0.14293285
v -0.07391304 -0.07979723 -0.03930971
v -0.07705834 -0.07962956 -0.07703945
v -0.07391304 -0.07978668 0.14449967
v -0.07391304 -0.07978785 0.14309289
v -0.07391304 -0.07979137 0.08963539
v -0.07391304 -0.07979254 0.07075646
v -0.07391304 -0.07979606 -0.00157998
v -0.07705834 -0.06817098 -0.14293285
v -0.07886670 -0.06876073 0.14449967
v -0.07715919 -0.06819091 -0.14293285
v -0.07886553 -0.06886508 -0.14293285
v -0.07893707 -0.07908085 -0.14293285
v -0.07705834 -0.07962956 0.06760528
v -0.07885732 -0.07910430 0.00815492
v -0.07566863 -0.07969757 0.14449967
v -0.07705834 -0.07962722 0.13994171
v -0.07919389 -0.06974913 0.14449967
v -0.07945072 -0.07077035 -0.14293285
v -0.07904847 -0.07904802 -0.14293285
v -0.07904847 -0.07904802 0.13679053
v -0.07816892 -0.07930479 0.14449967
v -0.07705834 -0.07962605 0.14449967
v -0.07945190 -0.07077035 0.14449967
v -0.07980020 -0.07391258 -0.14293285
v -0.07965713 -0.07252554 0.14449967
v -0.07963250 -0.07705833 -0.14293285
v -0.07904730 -0.07904802 0.14449967
v -0.07962898 -0.07705833 0.14449967
v -0.07963015 -0.07705833 0.12421396
v -0.07963133 -0.07705833 0.05187752
v -0.07963250 -0.07705833 -0.05503747
v -0.07980020 -0.07391258 0.00815492
v -0.07979786 -0.07391258 0.14449967
v -0.07979903 -0.07391258 0.10218384
f 1 2 7
f 1 7 11
f 1 11 13
f 1 13 18
f 1 18 22
f 1 22 28
f 1 28 40
f 1 40 47
f 1 47 54
f 1 54 52
f 1 52 46
f 1 46 39
f 1 39 38
f 1 38 36
f 1 36 24
f 1 24 19
f 1 19 14
f 1 14 9
f 1 9 3
f 1 3 4
f 1 4 5
f 1 5 6
f 1 6 2
f 2 6 8
f 2 8 7
f 3 9 10
f 3 10 4
f 4 10 16
f 4 16 15
f 4 15 20
f 4 20 27
f 4 27 26
f 4 26 25
f 4 25 37
f 4 37 45
f 4 45 51
f 4 51 53
f 4 53 61
f 4 61 56
f 4 56 55
f 4 55 49
f 4 49 50
f 4 50 43
f 4 43 31
f 4 31 23
f 4 23 21
f 4 21 17
f 4 17 12
f 4 12 8
f 4 8 6
f 4 6 5
f 7 8 11
f 8 12 13
f 8 13 11
f 9 14 15
f 9 15 16
f 9 16 10
f 12 17 13
f 13 17 18
f 14 19 20
f 14 20 15
f 17 21 18
f 18 21 23
f 18 23 22
f 19 24 25
f 19 25 26
f 19 26 27
f 19 27 20
f 22 23 29
f 22 29 41
f 22 41 30
f 22 30 28
f 23 31 32
f 23 32 33
f 23 33 34
f 23 34 35
f 23 35 29
f 24 36 25
f 25 36 38
f 25 38 39
f 25 39 37
f 28 30 40
f 29 35 41
f 30 42 40
f 30 41 42
f 31 43 32
f 32 44 33
f 32 43 44
f 33 44 34
f 34 44 35
f 35 44 41
f 37 39 45
f 39 46 45
f 40 42 48
f 40 48 47
f 41 44 49
f 41 49 48
f 41 48 42
f 43 50 44
f 44 50 49
f 45 46 51
f 46 52 53
f 46 53 51
f 47 48 59
f 47 59 54
f 48 49 55
f 48 55 56
f 48 56 57
f 48 57 58
f 48 58 59
f 52 60 53
f 52 54 59
f 52 59 60
f 53 60 62
f 53 62 61
f 56 61 57
f 57 62 58
f 57 61 62
f 58 62 60
f 58 60 59

