# https://github.com/mikedh/trimesh
v 0.03021885 0.05983092 0.08962066
v 0.02932986 0.06026570 0.08647990
v 0.02933570 0.06026817 0.08962066
v 0.02933570 0.06026406 0.09276142
v 0.03021300 0.05983092 0.09138222
v 0.03015451 0.05983092 0.07873725
v 0.02931231 0.06025830 0.08018473
v 0.02673305 0.06145497 0.08647990
v 0.02673305 0.06143689 0.07707128
v 0.02673305 0.06144347 0.08018473
v 0.02673305 0.06144922 0.08332549
v 0.02673305 0.06145826 0.08962066
v 0.03020715 0.05983092 0.09276142
v 0.02673305 0.06144922 0.09276142
v 0.02673305 0.06143278 0.09591584
v 0.02673305 0.06141635 0.09905660
v 0.02673305 0.06139909 0.10219736
v 0.02929476 0.06024762 0.09905660
v 0.03017206 0.05983092 0.09591584
v 0.03014282 0.05983092 0.07707128
v 0.02930061 0.06025337 0.07707128
v 0.02413625 0.06251932 0.08018473
v 0.02414210 0.06252097 0.08332549
v 0.02414795 0.06252261 0.08647990
v 0.02927722 0.06024269 0.07391686
v 0.02673305 0.06141470 0.07391686
v 0.02412456 0.06251686 0.07707128
v 0.02414210 0.06252343 0.08962066
v 0.02413041 0.06251850 0.09276142
v 0.02404268 0.06248562 0.10535177
v 0.02401928 0.06247741 0.10849253
v 0.02400174 0.06246672 0.11163329
v 0.02673305 0.06138101 0.10535177
v 0.02927137 0.06023858 0.10219736
v 0.02924797 0.06022872 0.10535177
v 0.03007848 0.05983092 0.10219736
v 0.03009603 0.05983092 0.07391686
v 0.02256297 0.06310862 0.08018473
v 0.02256882 0.06311108 0.08332549
v 0.02257467 0.06311273 0.08647990
v 0.02901403 0.05983092 0.00816575
v 0.02873329 0.05996242 0.00816575
v 0.02408947 0.06250617 0.07391686
v 0.02854613 0.06004461 0.00816575
v 0.02673305 0.06081555 0.00816575
v 0.02255127 0.06310451 0.07707128
v 0.02256882 0.06311191 0.08962066
v 0.02255712 0.06310615 0.09276142
v 0.02245184 0.06306752 0.10849253
v 0.02242845 0.06305931 0.11163329
v 0.02673305 0.06136046 0.10849253
v 0.02239336 0.06304779 0.11478771
v 0.02209508 0.06293602 0.14309551
v 0.02366251 0.06234344 0.14309551
v 0.02673305 0.06109334 0.14309551
v 0.02896139 0.06008406 0.14309551
v 0.02946437 0.05983092 0.14309551
v 0.02043991 0.06380887 0.08018473
v 0.02043991 0.06381626 0.08332549
v 0.02043991 0.06382120 0.08647990
v 0.02043991 0.06382037 0.08962066
v -0.02820914 0.05983092 0.00816575
v 0.02251618 0.06308971 0.07391686
v 0.02358648 0.06202537 0.00816575
v 0.02043991 0.06379736 0.07707128
v 0.02043991 0.06381051 0.09276142
v 0.02043991 0.06379489 0.09591584
v 0.02043991 0.06374805 0.10535177
v 0.02043991 0.06371599 0.11163329
v 0.02043991 0.06369627 0.11478771
v 0.02043991 0.06347271 0.14309551
v 0.02205999 0.06292369 0.14482976
v 0.02872744 0.05996654 0.14623627
v 0.02896139 0.05983092 0.14623627
v 0.01729334 0.06471623 0.08018473
v 0.01729334 0.06472774 0.08332549
v 0.01729334 0.06473842 0.08647990
v 0.01729334 0.06474335 0.08962066
v 0.01729334 0.06473596 0.09276142
v -0.02844309 0.05983092 0.01401029
v -0.02844894 0.05983339 0.01416050
v -0.02699263 0.06038652 0.00816575
v 0.02338763 0.06209440 0.00816575
v 0.02149267 0.06274452 0.00816575
v 0.01729334 0.06469815 0.07707128
v 0.01991938 0.06322779 0.00816575
v 0.01729334 0.06472034 0.09591584
v 0.01729334 0.06467349 0.10535177
v 0.01729334 0.06464144 0.11163329
v 0.01729334 0.06462500 0.11478771
v 0.01729334 0.06460281 0.11792847
v 0.01729334 0.06440556 0.14309551
v 0.00551416 0.06778599 0.14765644
v 0.02051594 0.06323683 0.14601778
v 0.02847595 0.05984243 0.14765644
v 0.02723019 0.05983092 0.14765644
v 0.01415261 0.06549292 0.08647990
v 0.01415261 0.06550607 0.08962066
v -0.02844894 0.05983092 0.01416050
v -0.02903965 0.05983092 0.02989161
v -0.02868873 0.05995256 0.02673719
v -0.02672944 0.06084431 0.02673719
v -0.02672944 0.06073007 0.02045568
v -0.02358871 0.06183387 0.00816575
v -0.02672944 0.06067254 0.01730126
v -0.02672944 0.06055747 0.01101974
v 0.01415261 0.06542799 0.07707128
v 0.01415261 0.06545183 0.08018473
v 0.01415261 0.06547237 0.08332549
v 0.01966789 0.06329847 0.00816575
v 0.01729334 0.06395270 0.00816575
v 0.01698921 0.06402502 0.00816575
v 0.01415261 0.06469404 0.00816575
v -0.00010639 0.06822734 0.14767009
v 0.01967959 0.06310944 0.14765644
v 0.00471874 0.06796270 0.14765644
v 0.02161549 0.06260151 0.14691904
v -0.00010639 0.05983092 0.14767009
v -0.02912153 0.05983092 0.03303237
v -0.02874722 0.05998215 0.02989161
v -0.02672944 0.06090102 0.02989161
v -0.02133698 0.06267795 0.00816575
v -0.02358871 0.06198920 0.01730126
v -0.02185751 0.06285466 0.02989161
v -0.02140717 0.06270178 0.01101974
v 0.01100604 0.06528991 0.00816575
v -0.00156855 0.06822734 0.14767009
v 0.00157217 0.06822652 0.14765644
v -0.00156855 0.06620796 0.00816575
v 0.00786532 0.06572551 0.00816575
v 0.00532115 0.06597783 0.00816575
v -0.02847233 0.05983092 0.14767009
v -0.02945491 0.05983092 0.08963432
v -0.02895777 0.06008817 0.08963432
v -0.02878816 0.06000187 0.03303237
v -0.02672944 0.06094047 0.03303237
v -0.02358871 0.06220125 0.02989161
v -0.02358871 0.06214865 0.02673719
v -0.02358871 0.06209605 0.02359643
v -0.02118492 0.06272890 0.00816575
v -0.02191015 0.06287191 0.03303237
v -0.02028423 0.06336751 0.02989161
v -0.01998594 0.06327300 0.01730126
v -0.01983388 0.06322533 0.01101974
v -0.01976370 0.06320396 0.00816575
v -0.00379689 0.06805146 0.14767009
v -0.00397820 0.06610934 0.00816575
v -0.00554563 0.06599674 0.00816575
v 0.00389993 0.06608385 0.00816575
v 0.00374787 0.06609454 0.00816575
v 0.00351977 0.06610605 0.00816575
v 0.00157217 0.06619317 0.00816575
v 0.00126804 0.06619481 0.00816575
v -0.00010054 0.06620139 0.00816575
v -0.02838460 0.05986955 0.14767009
v -0.02871213 0.05995996 0.14624993
v -0.02893438 0.05983092 0.14624993
v -0.02946660 0.05983092 0.09277508
v -0.02953094 0.05983092 0.12108288
v -0.02899286 0.06010214 0.12108288
v -0.02672944 0.06112376 0.09277508
v -0.02672944 0.06111882 0.08963432
v -0.02358871 0.06223741 0.03303237
v -0.02376417 0.06236481 0.08963432
v -0.02033686 0.06338313 0.03303237
v -0.02219089 0.06297383 0.08963432
v -0.02044214 0.06356312 0.08963432
v -0.01729557 0.06425515 0.02989161
v -0.01729557 0.06420995 0.02673719
v -0.01729557 0.06416475 0.02359643
v -0.01729557 0.06402831 0.01416050
v -0.01729557 0.06393955 0.00816575
v -0.00471513 0.06796270 0.14767009
v -0.00621823 0.06604523 0.01615420
v -0.00786170 0.06576003 0.00816575
v -0.02012046 0.06294342 0.14767009
v -0.02161187 0.06259740 0.14689173
v -0.02051232 0.06323354 0.14600413
v -0.02205052 0.06291958 0.14480244
v -0.02672944 0.06107115 0.14310917
v -0.02894022 0.06007338 0.14310917
v -0.02905720 0.05983092 0.14564908
v -0.02941981 0.05983092 0.14310917
v -0.02672944 0.06113855 0.12108288
v -0.02672944 0.06113773 0.11794212
v -0.02377002 0.06236727 0.09277508
v -0.01729557 0.06428638 0.03303237
v -0.01729557 0.06452555 0.08963432
v -0.02219674 0.06297547 0.09277508
v -0.02044214 0.06356723 0.09277508
v -0.01414900 0.06502691 0.02989161
v -0.01414900 0.06498335 0.02673719
v -0.01414900 0.06485020 0.01730126
v -0.01414900 0.06471952 0.00816575
v -0.00741720 0.06712437 0.14767009
v -0.00856938 0.06595564 0.02989161
v -0.01100827 0.06561538 0.02989161
v -0.01414900 0.06505650 0.03303237
v -0.01729557 0.06452966 0.09277508
v -0.01729557 0.06450419 0.11794212
v -0.01729557 0.06449268 0.12108288
v -0.01729557 0.06439734 0.14310917
v -0.00816583 0.06571812 0.00816575
v -0.01967012 0.06310862 0.14767009
v -0.02044214 0.06345874 0.14310917
v -0.02206806 0.06292698 0.14310917
v -0.02364135 0.06233193 0.14310917
v -0.02375248 0.06236974 0.12108288
v -0.02375832 0.06236974 0.11794212
v -0.02218504 0.06297136 0.11794212
v -0.02044214 0.06355244 0.11794212
v -0.01100827 0.06557264 0.02673719
v -0.01100827 0.06544443 0.01730126
v -0.01100827 0.06535895 0.01101974
v -0.01100827 0.06531950 0.00816575
v -0.02044214 0.06354422 0.12108288
v -0.02217919 0.06296807 0.12108288
f 1 2 3
f 1 3 4
f 1 4 5
f 1 5 13
f 1 13 19
f 1 19 36
f 1 36 57
f 1 57 74
f 1 74 96
f 1 96 118
f 1 118 132
f 1 132 157
f 1 157 182
f 1 182 183
f 1 183 159
f 1 159 158
f 1 158 133
f 1 133 119
f 1 119 100
f 1 100 99
f 1 99 80
f 1 80 62
f 1 62 41
f 1 41 37
f 1 37 20
f 1 20 6
f 1 6 7
f 1 7 2
f 2 8 3
f 2 7 9
f 2 9 10
f 2 10 11
f 2 11 8
f 3 8 12
f 3 12 4
f 4 13 5
f 4 12 14
f 4 14 15
f 4 15 16
f 4 16 17
f 4 17 18
f 4 18 19
f 4 19 13
f 6 20 21
f 6 21 7
f 7 21 9
f 8 11 22
f 8 22 23
f 8 23 24
f 8 24 12
f 9 21 25
f 9 25 26
f 9 26 27
f 9 27 22
f 9 22 10
f 10 22 11
f 12 24 28
f 12 28 14
f 14 28 29
f 14 29 15
f 15 29 16
f 16 29 30
f 16 30 17
f 17 30 31
f 17 31 32
f 17 32 33
f 17 33 18
f 18 33 34
f 18 34 19
f 19 34 35
f 19 35 36
f 20 37 25
f 20 25 21
f 22 27 38
f 22 38 39
f 22 39 23
f 23 39 40
f 23 40 24
f 24 40 28
f 25 37 41
f 25 41 42
f 25 42 26
f 26 43 27
f 26 42 44
f 26 44 45
f 26 45 43
f 27 43 46
f 27 46 38
f 28 40 47
f 28 47 29
f 29 47 48
f 29 48 49
f 29 49 30
f 30 49 50
f 30 50 31
f 31 50 32
f 32 51 33
f 32 50 52
f 32 52 53
f 32 53 54
f 32 54 55
f 32 55 51
f 33 51 35
f 33 35 34
f 35 51 56
f 35 56 57
f 35 57 36
f 38 46 58
f 38 58 59
f 38 59 60
f 38 60 39
f 39 60 40
f 40 60 61
f 40 61 47
f 41 62 82
f 41 82 104
f 41 104 122
f 41 122 140
f 41 140 145
f 41 145 172
f 41 172 194
f 41 194 215
f 41 215 203
f 41 203 175
f 41 175 148
f 41 148 147
f 41 147 129
f 41 129 154
f 41 154 153
f 41 153 152
f 41 152 151
f 41 151 150
f 41 150 149
f 41 149 131
f 41 131 130
f 41 130 126
f 41 126 113
f 41 113 112
f 41 112 111
f 41 111 110
f 41 110 86
f 41 86 84
f 41 84 83
f 41 83 64
f 41 64 45
f 41 45 44
f 41 44 42
f 43 63 46
f 43 45 64
f 43 64 63
f 46 63 65
f 46 65 58
f 47 61 48
f 48 61 66
f 48 66 49
f 49 67 68
f 49 68 50
f 49 66 67
f 50 68 69
f 50 69 70
f 50 70 52
f 51 55 56
f 52 70 53
f 53 70 71
f 53 71 72
f 53 72 54
f 54 72 55
f 55 72 73
f 55 73 56
f 56 73 57
f 57 73 74
f 58 65 75
f 58 75 76
f 58 76 77
f 58 77 59
f 59 77 78
f 59 78 60
f 60 78 61
f 61 78 79
f 61 79 66
f 62 80 81
f 62 81 82
f 63 64 83
f 63 83 84
f 63 84 65
f 65 85 75
f 65 84 86
f 65 86 85
f 66 79 87
f 66 87 67
f 67 87 88
f 67 88 68
f 68 88 89
f 68 89 69
f 69 89 90
f 69 90 70
f 70 91 92
f 70 92 71
f 70 90 91
f 71 92 93
f 71 93 72
f 72 93 94
f 72 94 95
f 72 95 73
f 73 95 74
f 74 95 96
f 75 97 98
f 75 98 76
f 75 85 97
f 76 98 93
f 76 93 77
f 77 93 78
f 78 93 79
f 79 93 87
f 80 99 81
f 81 99 100
f 81 100 101
f 81 101 102
f 81 102 103
f 81 103 82
f 82 103 105
f 82 105 106
f 82 106 104
f 85 107 108
f 85 108 109
f 85 109 97
f 85 86 110
f 85 110 111
f 85 111 112
f 85 112 113
f 85 113 107
f 87 93 88
f 88 93 89
f 89 93 90
f 90 93 91
f 91 93 92
f 93 114 115
f 93 115 94
f 93 98 97
f 93 97 116
f 93 116 114
f 94 117 95
f 94 115 117
f 95 117 115
f 95 115 114
f 95 114 118
f 95 118 96
f 97 109 116
f 100 119 120
f 100 120 101
f 101 120 121
f 101 121 102
f 102 121 104
f 102 104 103
f 103 104 105
f 104 106 105
f 104 121 123
f 104 123 124
f 104 124 125
f 104 125 122
f 107 113 126
f 107 126 116
f 107 116 108
f 108 116 109
f 114 127 146
f 114 146 173
f 114 173 195
f 114 195 204
f 114 204 176
f 114 176 155
f 114 155 132
f 114 132 118
f 114 116 128
f 114 128 129
f 114 129 127
f 116 126 130
f 116 130 131
f 116 131 128
f 119 133 134
f 119 134 135
f 119 135 120
f 120 135 136
f 120 136 121
f 121 136 137
f 121 137 138
f 121 138 139
f 121 139 123
f 122 125 140
f 123 139 124
f 124 138 137
f 124 137 141
f 124 141 142
f 124 142 143
f 124 143 144
f 124 144 145
f 124 145 125
f 124 139 138
f 125 145 140
f 127 129 147
f 127 147 148
f 127 148 146
f 128 131 149
f 128 149 150
f 128 150 151
f 128 151 152
f 128 152 153
f 128 153 154
f 128 154 129
f 132 155 156
f 132 156 157
f 133 158 134
f 134 158 159
f 134 159 160
f 134 160 161
f 134 161 162
f 134 162 135
f 135 162 136
f 136 163 137
f 136 162 164
f 136 164 163
f 137 163 141
f 141 165 142
f 141 163 166
f 141 166 167
f 141 167 165
f 142 165 168
f 142 168 169
f 142 169 170
f 142 170 171
f 142 171 143
f 143 171 144
f 144 171 172
f 144 172 145
f 146 148 174
f 146 174 173
f 148 175 174
f 155 176 177
f 155 177 178
f 155 178 179
f 155 179 156
f 156 179 180
f 156 180 181
f 156 181 182
f 156 182 157
f 159 183 181
f 159 181 160
f 160 181 184
f 160 184 185
f 160 185 161
f 161 186 164
f 161 164 162
f 161 185 186
f 163 164 166
f 164 186 166
f 165 187 168
f 165 167 188
f 165 188 187
f 166 186 189
f 166 189 190
f 166 190 167
f 167 190 199
f 167 199 188
f 168 191 192
f 168 192 193
f 168 193 194
f 168 194 169
f 168 187 191
f 169 194 170
f 170 194 171
f 171 194 172
f 173 174 175
f 173 175 196
f 173 196 197
f 173 197 191
f 173 191 198
f 173 198 187
f 173 187 188
f 173 188 199
f 173 199 200
f 173 200 201
f 173 201 202
f 173 202 179
f 173 179 195
f 175 203 196
f 176 204 178
f 176 178 177
f 178 204 195
f 178 195 179
f 179 202 205
f 179 205 206
f 179 206 207
f 179 207 180
f 180 207 208
f 180 208 184
f 180 184 181
f 181 183 182
f 184 208 209
f 184 209 186
f 184 186 185
f 186 209 189
f 187 198 191
f 189 209 210
f 189 210 190
f 190 210 211
f 190 211 199
f 191 197 212
f 191 212 213
f 191 213 214
f 191 214 192
f 192 214 215
f 192 215 193
f 193 215 194
f 196 203 197
f 197 203 212
f 199 211 200
f 200 211 216
f 200 216 201
f 201 216 205
f 201 205 202
f 203 215 214
f 203 214 213
f 203 213 212
f 205 216 206
f 206 216 217
f 206 217 207
f 207 217 208
f 208 217 210
f 208 210 209
f 210 217 211
f 211 217 216

