# https://github.com/mikedh/trimesh
v 0.06791111 0.00154884 0.00820565
v 0.06777886 0.00470924 0.00816978
v 0.06739534 0.00164102 0.08960469
v 0.06739534 -0.00157205 0.08960469
v 0.06784498 -0.00157205 0.01103973
v 0.06785820 -0.00157205 0.00820565
v 0.06196000 -0.02834329 -0.05543555
v 0.06196000 0.02792503 -0.05543555
v 0.06748791 0.00785648 0.00816978
v 0.06722342 0.00470924 0.09276164
v 0.06736889 0.00154884 0.09362263
v 0.06736889 -0.00157205 0.09276164
v 0.06732922 -0.00242800 0.09362263
v 0.06722342 -0.00470612 0.09276164
v 0.06784498 -0.00187493 0.00820565
v 0.06124586 -0.02987082 -0.05543555
v -0.00206072 -0.06709772 -0.05552524
v 0.06768628 -0.00470612 0.00820565
v 0.06765983 -0.00503533 0.00820565
v 0.06738212 -0.00785335 0.00820565
v 0.06734244 -0.00816939 0.00820565
v 0.06694570 -0.01100059 0.00820565
v 0.06636381 -0.01409515 0.00820565
v 0.06601997 -0.01566218 0.00820565
v 0.06559678 -0.01729505 0.00820565
v 0.06471073 -0.02044229 0.00820565
v 0.06196000 -0.02836963 -0.05367771
v -0.00206072 0.06654778 -0.05552524
v 0.06102104 0.02986078 -0.05543555
v 0.06196000 0.02803038 -0.00888850
v 0.06311054 0.02533087 0.00816978
v 0.06377177 0.02357948 0.00816978
v 0.06486943 0.02043224 0.00816978
v 0.06496200 0.02015571 0.00816978
v 0.06570258 0.01764056 0.00816978
v 0.06612577 0.01607352 0.00816978
v 0.06652251 0.01415094 0.00816978
v 0.06709117 0.01100371 0.00816978
v 0.06713085 0.01070084 0.00816978
v 0.06691925 0.00785648 0.09276164
v 0.06706472 0.00470924 0.10533562
v 0.06722342 0.00164102 0.10533562
v 0.06734244 0.00164102 0.09590065
v 0.06726309 -0.00157205 0.10219661
v 0.06711762 -0.00470612 0.10219661
v 0.06694570 -0.00785335 0.09276164
v 0.06767306 -0.00470612 0.01103973
v 0.06010854 -0.03212261 -0.05543555
v 0.06125908 -0.02987082 -0.05188398
v 0.00784457 -0.06679485 -0.05543555
v 0.00469709 -0.06699237 -0.05543555
v 0.00156284 -0.06709772 -0.05543555
v 0.00156284 -0.06769029 -0.01414410
v -0.00216652 -0.06709772 -0.05552524
v 0.05924893 -0.03370281 -0.05543555
v 0.05776777 -0.03615212 -0.05543555
v 0.05669657 -0.03786400 -0.05543555
v 0.05558569 -0.03944420 -0.05543555
v 0.05401196 -0.04157748 -0.05543555
v 0.05274239 -0.04313134 -0.05543555
v 0.05116865 -0.04498807 -0.05543555
v 0.04975361 -0.04655511 -0.05543555
v 0.04817987 -0.04816165 -0.05543555
v 0.04652678 -0.04972868 -0.05543555
v 0.04471500 -0.05132205 -0.05543555
v 0.04306191 -0.05266522 -0.05543555
v 0.04148818 -0.05392938 -0.05543555
v 0.03769269 -0.05657622 -0.05543555
v 0.03631732 -0.05739265 -0.05543555
v 0.03576189 -0.05772186 -0.05543555
v 0.03336822 -0.05906503 -0.05543555
v 0.03199285 -0.05981563 -0.05543555
v 0.03154321 -0.06003949 -0.05543555
v 0.02987690 -0.06084276 -0.05543555
v 0.02946694 -0.06102711 -0.05543555
v 0.02646493 -0.06234395 -0.05543555
v 0.02514246 -0.06288385 -0.05543555
v 0.02408449 -0.06323940 -0.05543555
v 0.02043447 -0.06438504 -0.05543555
v 0.01728700 -0.06521465 -0.05543555
v 0.01460239 -0.06580722 -0.05543555
v 0.01302865 -0.06609693 -0.05543555
v 0.01099205 -0.06642613 -0.05543555
v 0.01059530 -0.06647881 -0.05543555
v 0.06736889 -0.00785335 0.01103973
v 0.06687958 -0.01100059 0.02361371
v 0.06633737 -0.01397663 0.02047470
v 0.06599353 -0.01549099 0.02677066
v 0.06553066 -0.01729505 0.02677066
v 0.06366598 -0.02358952 0.00820565
v 0.06196000 -0.02838280 -0.05188398
v 0.06463138 -0.02044229 0.02990967
v 0.06361308 -0.02358952 0.02677066
v -0.00430892 0.06642926 -0.05552524
v -0.00163753 0.06658728 -0.05543555
v 0.00156284 0.06661362 -0.05543555
v 0.00469709 0.06648194 -0.05543555
v 0.00874385 0.06612639 -0.05543555
v 0.00945798 0.06603421 -0.05543555
v 0.01055563 0.06587619 -0.05543555
v 0.01078045 0.06583669 -0.05543555
v 0.01415275 0.06520460 -0.05543555
v 0.01454949 0.06512559 -0.05543555
v 0.01728700 0.06449351 -0.05543555
v 0.02043447 0.06359807 -0.05543555
v 0.02235205 0.06300549 -0.05543555
v 0.02426963 0.06229440 -0.05543555
v 0.02672942 0.06133311 -0.05543555
v 0.02928179 0.06018747 -0.05543555
v 0.03063071 0.05955539 -0.05543555
v 0.03301115 0.05829123 -0.05543555
v 0.03529902 0.05701390 -0.05543555
v 0.03685954 0.05605261 -0.05543555
v 0.03922676 0.05448558 -0.05543555
v 0.04078727 0.05339260 -0.05543555
v 0.04270485 0.05191775 -0.05543555
v 0.04437116 0.05061408 -0.05543555
v 0.04616971 0.04902071 -0.05543555
v 0.04770378 0.04763804 -0.05543555
v 0.04926429 0.04611051 -0.05543555
v 0.05079836 0.04454348 -0.05543555
v 0.05237210 0.04272625 -0.05543555
v 0.05369456 0.04115921 -0.05543555
v 0.05644530 0.03751158 -0.05543555
v 0.05749005 0.03593138 -0.05543555
v 0.05906379 0.03341623 -0.05543555
v 0.05997629 0.03186236 -0.05543555
v 0.06001597 0.03190187 -0.00157012
v 0.06107394 0.02986078 0.00156889
v 0.06196000 0.02803038 0.00470790
v 0.06296507 0.02567324 0.00816978
v 0.06267413 0.02461978 0.09276164
v 0.06326924 0.02303958 0.09276164
v 0.06416851 0.02043224 0.09276164
v 0.06512070 0.01728501 0.09276164
v 0.06578193 0.01459867 0.09276164
v 0.06611255 0.01301847 0.09276164
v 0.06646961 0.01100371 0.09276164
v 0.06676056 0.00785648 0.10533562
v 0.06677378 0.00470924 0.12293202
v 0.06686635 0.00154884 0.12768538
v 0.06714407 0.00154884 0.11073472
v 0.06722342 0.00154884 0.10533562
v 0.06730277 0.00154884 0.09905759
v 0.06717052 -0.00157205 0.10849256
v 0.06685313 -0.00188809 0.12768538
v 0.06670766 -0.00470612 0.12768538
v 0.06678701 -0.00785335 0.10533562
v 0.06644316 -0.01100059 0.09905759
v 0.06653574 -0.01100059 0.08960469
v 0.06012176 -0.03212261 -0.05188398
v 0.06127231 -0.02977864 -0.02368670
v 0.06010854 -0.03212261 -0.02357907
v 0.01099205 -0.06705821 -0.01414410
v 0.00784457 -0.06740059 -0.01414410
v 0.00469709 -0.06761128 -0.01414410
v 0.00156284 -0.06780881 -0.00472707
v -0.00155818 -0.06769029 -0.01414410
v -0.00470566 -0.06707138 -0.05552524
v -0.00206072 -0.06772980 -0.01100509
v 0.05926216 -0.03370281 -0.05188398
v 0.05779422 -0.03615212 -0.05188398
v 0.05670979 -0.03787717 -0.05188398
v 0.05559892 -0.03945737 -0.05188398
v 0.05402518 -0.04160381 -0.05188398
v 0.05275561 -0.04317084 -0.05502300
v 0.05118187 -0.04498807 -0.05502300
v 0.05119510 -0.04500124 -0.05188398
v 0.04984618 -0.04666045 -0.02368670
v 0.04828566 -0.04830650 -0.02044006
v 0.04819309 -0.04820115 -0.04872703
v 0.04656645 -0.04975501 -0.05188398
v 0.04654001 -0.04972868 -0.05502300
v 0.04499272 -0.05113769 -0.05188398
v 0.04308837 -0.05270472 -0.05188398
v 0.04172622 -0.05411374 -0.02044006
v 0.03955737 -0.05566760 -0.02368670
v 0.03801008 -0.05678691 -0.02044006
v 0.03615863 -0.05790622 -0.02357907
v 0.03383108 -0.05931523 -0.02044006
v 0.03225734 -0.06017117 -0.02044006
v 0.02987690 -0.06132999 -0.02357907
v 0.02741711 -0.06252831 -0.01730105
v 0.02590949 -0.06319989 -0.01414410
v 0.02359517 -0.06400316 -0.01730105
v 0.02044770 -0.06499079 -0.01730105
v 0.01761761 -0.06572821 -0.01730105
v 0.01576616 -0.06607059 -0.02368670
v 0.01415275 -0.06653148 -0.01414410
v 0.06616544 -0.01318653 0.08960469
v 0.06551744 -0.01729505 0.02990967
v 0.06582160 -0.01468772 0.09276164
v 0.06521327 -0.01729505 0.08960469
v 0.06300475 -0.02543309 0.00820565
v 0.06196000 -0.02827745 -0.02044006
v 0.06431399 -0.02044229 0.08960469
v 0.06336181 -0.02331298 0.08960469
v 0.06296507 -0.02534091 0.03306662
v -0.00470566 0.06640292 -0.05552524
v -0.00470566 0.06640292 -0.05502300
v -0.00396508 0.06610005 0.00816978
v -0.00155818 0.06658728 -0.05502300
v -0.00155818 0.06620540 0.00816978
v 0.00156284 0.06617906 0.00816978
v 0.00352010 0.06610005 0.00816978
v 0.00531865 0.06595520 0.00816978
v 0.00784457 0.06571817 0.00816978
v 0.01099205 0.06528362 0.00816978
v 0.01415275 0.06520460 -0.05502300
v 0.01415275 0.06467787 0.00816978
v 0.02043447 0.06359807 -0.05502300
v 0.01698283 0.06400628 0.00816978
v 0.02971820 0.05981875 0.12293202
v 0.02973143 0.05981875 0.12235803
v 0.03006205 0.05981875 0.10219661
v 0.03015462 0.05981875 0.09591858
v 0.03019429 0.05981875 0.09276164
v 0.03019429 0.05981875 0.08822353
v 0.03088198 0.05946321 0.08646567
v 0.03301115 0.05830439 0.08962262
v 0.03301115 0.05830439 0.09276164
v 0.03521967 0.05700073 0.09276164
v 0.03679341 0.05598676 0.09276164
v 0.03906806 0.05441973 0.09276164
v 0.04065502 0.05328726 0.08962262
v 0.04244035 0.05185191 0.08962262
v 0.04417279 0.05044289 0.08962262
v 0.04761121 0.04757220 0.00470790
v 0.04919817 0.04607101 0.00156889
v 0.05075868 0.04447764 0.00156889
v 0.05233242 0.04272625 0.00470790
v 0.05372101 0.04115921 0.00156889
v 0.05517573 0.03930248 0.00156889
v 0.05648497 0.03752475 0.00156889
v 0.05752972 0.03599722 0.00156889
v 0.05910346 0.03346890 0.00156889
v 0.06001597 0.03190187 0.00156889
v 0.06106071 0.02986078 0.00470790
v 0.06039948 0.02961058 0.09591858
v 0.06177485 0.02672671 0.09276164
v 0.06170872 0.02672671 0.09905759
v 0.06266090 0.02456710 0.09591858
v 0.06324279 0.02294740 0.09905759
v 0.06410239 0.02043224 0.09905759
v 0.06500167 0.01728501 0.10219661
v 0.06575548 0.01442748 0.09905759
v 0.06608609 0.01284728 0.09905759
v 0.06600675 0.01237322 0.11161363
v 0.06631092 0.01100371 0.10533562
v 0.06625802 0.01079302 0.11161363
v 0.06616544 0.01021361 0.12293202
v 0.06646961 0.00785648 0.12293202
v 0.06686635 -0.00157205 0.12768538
v 0.06685313 0.00164102 0.12768538
v -0.00061923 0.00164102 0.12772125
v -0.00061923 -0.05870948 0.12772125
v 0.06641671 -0.00785335 0.12768538
v 0.06631092 -0.01100059 0.10849256
v 0.06640349 -0.01100059 0.10219661
v 0.06613900 -0.01007880 0.12768538
v 0.06609932 -0.01285732 0.10219661
v 0.06615222 -0.01310752 0.09360469
v 0.05926216 -0.03370281 -0.02368670
v 0.06196000 -0.02821161 -0.01292437
v 0.06116651 -0.02985765 -0.00784814
v 0.06008209 -0.03206993 -0.00784814
v 0.01099205 -0.06709772 -0.01100509
v 0.00784457 -0.06744010 -0.01100509
v 0.00469709 -0.06772980 -0.00472707
v -0.00155818 -0.06780881 -0.00472707
v 0.00156284 -0.06787465 0.00156889
v -0.01462418 -0.06695287 -0.05552524
v -0.01100061 -0.06762445 -0.01100509
v -0.00206072 -0.06776931 -0.00786608
v -0.00785314 -0.06770346 -0.00786608
v 0.05786034 -0.03607311 -0.02368670
v 0.05672302 -0.03787717 -0.02368670
v 0.05562537 -0.03948371 -0.02368670
v 0.05405163 -0.04164332 -0.02368670
v 0.05282174 -0.04323669 -0.02368670
v 0.05131412 -0.04502758 -0.02368670
v 0.04987263 -0.04667362 -0.01100509
v 0.04828566 -0.04830650 -0.00472707
v 0.04672515 -0.04987353 -0.00784814
v 0.04668548 -0.04987353 -0.02044006
v 0.04511174 -0.05128254 -0.02368670
v 0.04327351 -0.05284958 -0.02368670
v 0.04333963 -0.05288908 -0.01100509
v 0.04176590 -0.05415324 -0.00784814
v 0.03964995 -0.05573344 -0.00784814
v 0.03963672 -0.05572027 -0.01100509
v 0.03807621 -0.05682641 -0.01100509
v 0.03615863 -0.05806424 -0.00784814
v 0.03393688 -0.05936790 -0.01100509
v 0.03389721 -0.05935473 -0.01414410
v 0.03232347 -0.06021068 -0.01414410
v 0.02987690 -0.06147484 -0.01100509
v 0.02750968 -0.06255464 -0.01100509
v 0.02359517 -0.06413484 -0.00157012
v 0.02359517 -0.06404266 -0.01414410
v 0.02761548 -0.06260732 0.00156889
v 0.02606819 -0.06326573 0.00470790
v 0.02044770 -0.06512247 -0.00472707
v 0.01784243 -0.06579405 -0.00784814
v 0.01612322 -0.06612326 -0.01414410
v 0.01626870 -0.06616277 -0.00784814
v 0.01415275 -0.06666317 -0.00157012
v 0.06575548 -0.01443752 0.10219661
v 0.06563646 -0.01541198 0.09362263
v 0.06518682 -0.01729505 0.09276164
v 0.06493555 -0.01816416 0.09362263
v 0.06427432 -0.02044229 0.09362263
v 0.06334859 -0.02328665 0.09276164
v 0.06277992 -0.02488002 0.08960469
v 0.06276670 -0.02484051 0.09362263
v 0.06230384 -0.02692111 0.02990967
v 0.06201289 -0.02673675 0.08960469
v -0.00744317 0.06612639 -0.05552524
v -0.00553882 0.06598154 0.00816978
v -0.00539334 0.06599471 0.00816978
v -0.02951517 0.05981875 0.12293202
v 0.03064393 0.05933153 0.12293202
v 0.03067038 0.05934469 0.12108448
v 0.03084230 0.05945004 0.09905759
v 0.03086875 0.05946321 0.09591858
v 0.03088198 0.05946321 0.09276164
v 0.03518000 0.05698756 0.09905759
v 0.03301115 0.05805420 0.12293202
v 0.03502130 0.05688221 0.12293202
v 0.03678019 0.05598676 0.09591858
v 0.03905483 0.05440656 0.09591858
v 0.04061535 0.05326092 0.09905759
v 0.04244035 0.05183874 0.09276164
v 0.04413311 0.05040339 0.10219661
v 0.04574653 0.04900754 0.08962262
v 0.04743929 0.04742734 0.09276164
v 0.05074546 0.04447764 0.00470790
v 0.05049419 0.04422743 0.09276164
v 0.05516250 0.03930248 0.00470790
v 0.05198858 0.04243654 0.09276164
v 0.05336395 0.04075100 0.09591858
v 0.05645853 0.03752475 0.00816978
v 0.05751650 0.03598406 0.00470790
v 0.05909024 0.03346890 0.00470790
v 0.06000274 0.03190187 0.00470790
v 0.05961922 0.03121712 0.09276164
v 0.05956633 0.03111177 0.10219661
v 0.06035981 0.02954474 0.10219661
v 0.06166905 0.02672671 0.10219661
v 0.06262123 0.02446176 0.10219661
v 0.06318989 0.02284205 0.10533562
v 0.06406272 0.02043224 0.10219661
v 0.06469750 0.01728501 0.12108448
v 0.06541164 0.01542827 0.10533562
v 0.06570258 0.01422996 0.10533562
v 0.06605965 0.01276827 0.10219661
v 0.06542486 0.01415094 0.12293202
v 0.06590095 0.01178064 0.12293202
v 0.06465783 0.01728501 0.12293202
v 0.06371888 0.02043224 0.12293202
v 0.06304442 0.02244700 0.12293202
v 0.06244931 0.02402720 0.12293202
v 0.06132521 0.02672671 0.12293202
v 0.06018788 0.02921553 0.12293202
v 0.05939440 0.03076939 0.12293202
v 0.05816451 0.03302118 0.12293202
v 0.05693461 0.03510178 0.12293202
v 0.05632628 0.03603673 0.12293202
v 0.05590309 0.03666881 0.12293202
v 0.05432935 0.03892060 0.12293202
v 0.05317880 0.04050080 0.12293202
v 0.05075868 0.04346367 0.12293202
v 0.05030905 0.04400357 0.12293202
v 0.04725414 0.04724298 0.12293202
v 0.04398764 0.05027171 0.12293202
v 0.04240068 0.05156220 0.12293202
v 0.04044343 0.05314240 0.12293202
v 0.03980864 0.05360330 0.12293202
v 0.03886969 0.05427488 0.12293202
v 0.03658182 0.05585508 0.12293202
v 0.03594703 0.05627647 0.12293202
v 0.03160933 0.05881796 0.12293202
v -0.06659720 0.00164102 0.12772125
v 0.03199285 -0.05870948 0.12768538
v 0.03302438 -0.05815641 0.12768538
v 0.03512710 -0.05693176 0.12768538
v 0.03652892 -0.05603631 0.12768538
v 0.03693888 -0.05575978 0.12768538
v 0.03898871 -0.05435076 0.12768538
v 0.04056245 -0.05320512 0.12768538
v 0.04265195 -0.05153274 0.12768538
v 0.04409344 -0.05036076 0.12768538
v 0.04583910 -0.04874105 0.12768538
v 0.04733349 -0.04733204 0.12768538
v 0.04906592 -0.04548847 0.12768538
v 0.05037517 -0.04409263 0.12768538
v 0.05172408 -0.04244658 0.12768538
v 0.05323170 -0.04057668 0.12768538
v 0.05436902 -0.03899648 0.12768538
v 0.05604856 -0.03657350 0.12768538
v 0.05696106 -0.03515132 0.12768538
v 0.05821741 -0.03300488 0.12768538
v 0.05930183 -0.03102963 0.12768538
v 0.06021434 -0.02922557 0.12768538
v 0.06123264 -0.02698695 0.12768538
v 0.06246253 -0.02399774 0.12768538
v 0.06304442 -0.02243071 0.12768538
v 0.06370565 -0.02044229 0.12768538
v 0.06461816 -0.01729505 0.12768538
v 0.06539841 -0.01414782 0.12768538
v 0.06588772 -0.01164583 0.12768538
v -0.03172370 -0.05870948 0.12772125
v 0.00156284 -0.06791416 0.00786485
v 0.06613900 -0.01194871 0.11073472
v 0.06603320 -0.01259396 0.11016072
v 0.06571581 -0.01422683 0.10849256
v 0.05923571 -0.03365013 -0.01100509
v 0.05778099 -0.03615212 -0.01100509
v 0.06095492 -0.02985765 0.03306662
v 0.05996307 -0.03184607 0.03618769
v 0.05914313 -0.03346578 0.02677066
v 0.01394115 -0.06672901 0.00137158
v 0.01099205 -0.06725574 0.00470790
v 0.00784457 -0.06762445 0.00470790
v 0.00784457 -0.06747960 -0.00784814
v 0.00469709 -0.06780881 0.00470790
v -0.00206072 -0.06788782 0.00422360
v -0.00206072 -0.06783515 -0.00157012
v -0.00470566 -0.06780881 -0.00157012
v 0.00469709 -0.06783515 0.00786485
v -0.01728234 -0.06688703 -0.05552524
v -0.01610534 -0.06746643 -0.01611720
v -0.01610534 -0.06692653 -0.05502300
v -0.01100061 -0.06766396 -0.00786608
v -0.01414809 -0.06765079 -0.00470913
v 0.05670979 -0.03787717 -0.01100509
v 0.05672302 -0.03787717 -0.02357907
v 0.05562537 -0.03948371 -0.02044006
v 0.05405163 -0.04164332 -0.02044006
v 0.05282174 -0.04321035 -0.00784814
v 0.05124800 -0.04510659 -0.00784814
v 0.05124800 -0.04510659 -0.01414410
v 0.04987263 -0.04667362 -0.00784814
v 0.04984618 -0.04664728 0.00820565
v 0.04821954 -0.04824066 0.02990967
v 0.04667226 -0.04982086 0.02677066
v 0.04512497 -0.05130888 0.01103973
v 0.04515142 -0.05132205 -0.00472707
v 0.04515142 -0.05132205 -0.00784814
v 0.04333963 -0.05288908 0.00470790
v 0.04176590 -0.05415324 0.00816978
v 0.03967639 -0.05573344 0.00786485
v 0.03808943 -0.05683958 -0.00784814
v 0.03810266 -0.05685275 0.00820565
v 0.03615863 -0.05810374 0.00786485
v 0.03515355 -0.05870948 0.00820565
v 0.03398978 -0.05940741 0.00786485
v 0.03396333 -0.05939424 -0.00157012
v 0.03238959 -0.06025018 -0.00472707
v 0.03234992 -0.06022385 -0.01100509
v 0.02987690 -0.06156702 0.00470790
v 0.02359517 -0.06416118 0.00470790
v 0.02044770 -0.06520148 0.00470790
v 0.02762870 -0.06260732 0.00470790
v 0.02748323 -0.06267316 0.00816978
v 0.02606819 -0.06326573 0.00786485
v 0.01809370 -0.06584673 0.00470790
v 0.01646707 -0.06620227 0.00156889
v 0.01394115 -0.06675534 0.00451059
v 0.06497522 -0.01729505 0.10849256
v 0.06411562 -0.02044229 0.10533562
v 0.06325601 -0.02302328 0.10533562
v 0.06268735 -0.02459031 0.10533562
v 0.06194677 -0.02673675 0.09590065
v 0.06198644 -0.02673675 0.09276164
v 0.06185419 -0.02673675 0.10219661
v 0.06059785 -0.02985765 0.08960469
v -0.00877886 0.06595520 -0.05552524
v -0.00785314 0.06573134 0.00816978
v -0.03054670 0.05927885 0.12293202
v -0.01100061 0.06530995 0.00816978
v -0.01414809 0.06469104 0.00816978
v -0.01728234 0.06391411 0.00816978
v -0.01728234 0.06413797 -0.05502300
v -0.02004630 0.06329519 -0.05502300
v -0.02162004 0.06274212 -0.05552524
v -0.02951517 0.05981875 0.11792753
v -0.03054670 0.05929202 0.12108448
v 0.03664794 0.05589459 0.11478853
v 0.03904161 0.05439339 0.09905759
v 0.04244035 0.05179923 0.09905759
v 0.04053600 0.05319507 0.11161363
v 0.04244035 0.05173339 0.10533562
v 0.04244035 0.05162805 0.11478853
v 0.04409344 0.05036389 0.10847463
v 0.04568040 0.04895487 0.10533562
v 0.04901302 0.04580764 0.08962262
v 0.04739961 0.04738784 0.10219661
v 0.05196213 0.04243654 0.09591858
v 0.04897335 0.04576813 0.09905759
v 0.05045452 0.04417476 0.10219661
v 0.05454095 0.03919713 0.09276164
v 0.05331105 0.04068515 0.10533562
v 0.05447482 0.03910495 0.10533562
v 0.05608823 0.03694534 0.09905759
v 0.05713298 0.03543098 0.09276164
v 0.05846868 0.03302118 0.10533562
v 0.05953987 0.03107226 0.10533562
v 0.06028046 0.02941305 0.11161363
v 0.06259478 0.02440908 0.10533562
v 0.06136488 0.02672671 0.12108448
v 0.06251543 0.02421156 0.11478853
v 0.06517359 0.01542827 0.11977506
v 0.05942085 0.03080890 0.12108448
v 0.05841578 0.03302118 0.10847463
v 0.05706686 0.03532564 0.10533562
v 0.05604856 0.03689267 0.10533562
v 0.05181666 0.04243654 0.10847463
v 0.04894690 0.04572863 0.10533562
v 0.04913205 0.04528090 0.12121004
v 0.04735994 0.04734834 0.10847463
v 0.03890936 0.05430122 0.11792753
v -0.06661042 0.00154884 0.12772125
v -0.03200142 0.05848875 0.12293202
v -0.03300649 0.05793568 0.12293202
v -0.03492407 0.05681637 0.12293202
v -0.03649781 0.05578924 0.12293202
v -0.03877246 0.05420904 0.12293202
v -0.04033297 0.05305022 0.12293202
v -0.04149674 0.05211527 0.12293202
v -0.04293823 0.05094329 0.12293202
v -0.04386396 0.05017952 0.12293202
v -0.04486904 0.04925774 0.12293202
v -0.04713046 0.04712447 0.12293202
v -0.04859840 0.04555744 0.12293202
v -0.05015891 0.04385872 0.12293202
v -0.05145493 0.04229169 0.12293202
v -0.05302867 0.04031644 0.12293202
v -0.05417922 0.03874941 0.12293202
v -0.05482723 0.03781445 0.12293202
v -0.05575296 0.03644495 0.12293202
v -0.05678448 0.03487791 0.12293202
v -0.05784246 0.03302118 0.12293202
v -0.05924428 0.03045335 0.12293202
v -0.06002453 0.02888632 0.12293202
v -0.06042127 0.02800404 0.12293202
v -0.06098993 0.02672671 0.12293202
v -0.06151892 0.02543621 0.12293202
v -0.06227273 0.02357948 0.12293202
v -0.06288107 0.02197294 0.12293202
v -0.06338360 0.02040591 0.12293202
v -0.06430933 0.01728501 0.12293202
v -0.06477219 0.01542827 0.12293202
v -0.06508959 0.01415094 0.12293202
v -0.06568470 0.01100371 0.12293202
v -0.06598887 0.00897579 0.12293202
v 0.03213832 -0.05870948 0.12420556
v 0.00186701 -0.06788782 0.00816978
v 0.00469709 -0.06783515 0.00816978
v 0.00784457 -0.06762445 0.00816978
v 0.01099205 -0.06725574 0.00816978
v 0.01415275 -0.06672901 0.00816978
v 0.01653319 -0.06621544 0.00816978
v 0.01810693 -0.06584673 0.00816978
v 0.02044770 -0.06520148 0.00816978
v 0.02359517 -0.06416118 0.00816978
v 0.02605497 -0.06326573 0.00816978
v 0.03303760 -0.05851196 0.11073472
v 0.03541804 -0.05711612 0.11163157
v 0.03704468 -0.05615483 0.10849256
v 0.03900194 -0.05436393 0.12736250
v 0.04057568 -0.05321829 0.12736250
v 0.04086662 -0.05344215 0.11073472
v 0.04414634 -0.05041343 0.12420556
v 0.04591845 -0.04913610 0.11163157
v 0.04734671 -0.04733204 0.12736250
v 0.04915850 -0.04593619 0.11073472
v 0.05061321 -0.04435599 0.11073472
v 0.05106285 -0.04381609 0.11073472
v 0.05237210 -0.04222272 0.11073472
v 0.05349619 -0.04090589 0.10849256
v 0.05443514 -0.03951004 0.11073472
v 0.05622048 -0.03713974 0.10533562
v 0.05718588 -0.03550687 0.10849256
v 0.05865382 -0.03300488 0.10849256
v 0.05943408 -0.03080577 0.12736250
v 0.05967212 -0.03129300 0.10533562
v 0.06161615 -0.02672359 0.11478853
v 0.06041271 -0.02963379 0.10849256
v 0.06180130 -0.02673675 0.10533562
v 0.06321634 -0.02289160 0.11073472
v 0.06463138 -0.01729505 0.12736250
v 0.06406272 -0.02044229 0.10849256
v 0.06493555 -0.01729505 0.11073472
v 0.06557033 -0.01414782 0.11790961
v -0.03506954 -0.05668156 0.12772125
v -0.02644705 -0.06672901 0.00816978
v -0.02357729 -0.06747960 0.00816978
v -0.02013887 -0.06758495 0.00816978
v -0.01610534 -0.06770346 0.00816978
v -0.01414809 -0.06774297 0.00816978
v -0.01069644 -0.06780881 0.00816978
v -0.00785314 -0.06784832 0.00816978
v -0.00470566 -0.06787465 0.00816978
v -0.00206072 -0.06788782 0.00816978
v 0.05755617 -0.03612578 0.03306662
v 0.05737103 -0.03646816 0.02971236
v 0.05660400 -0.03771915 0.03062716
v 0.05977792 -0.03149052 0.09276164
v 0.05891832 -0.03308389 0.08960469
v 0.01394115 -0.06676851 0.00786485
v -0.00785314 -0.06784832 0.00786485
v -0.00785314 -0.06783515 0.00472584
v -0.02042981 -0.06680802 -0.05552524
v -0.01728234 -0.06754544 -0.00786608
v -0.01728234 -0.06750594 -0.01100509
v -0.01100061 -0.06772980 -0.00157012
v -0.01414809 -0.06772980 0.00472584
v -0.01610534 -0.06769029 0.00472584
v 0.05561214 -0.03945737 -0.00784814
v 0.05403840 -0.04164332 -0.01100509
v 0.05278206 -0.04314450 0.01103973
v 0.05120832 -0.04506709 0.01103973
v 0.04981973 -0.04660778 0.02047470
v 0.04979328 -0.04658144 0.02990967
v 0.04820632 -0.04822749 0.03306662
v 0.04664580 -0.04979452 0.03306662
v 0.04509852 -0.05128254 0.02677066
v 0.04333963 -0.05287591 0.01103973
v 0.04175267 -0.05415324 0.01733569
v 0.03967639 -0.05573344 0.00816978
v 0.03968962 -0.05572027 0.01417874
v 0.03810266 -0.05685275 0.01417874
v 0.03615863 -0.05810374 0.00816978
v 0.03515355 -0.05870948 0.00971238
v 0.03241604 -0.06027652 0.00470790
v 0.03398978 -0.05940741 0.00816978
v 0.02987690 -0.06156702 0.00816978
v 0.01810693 -0.06584673 0.00786485
v 0.02762870 -0.06260732 0.00816978
v 0.03303760 -0.05870948 0.10129974
v 0.03275988 -0.05870948 0.10849256
v 0.01651997 -0.06621544 0.00470790
v 0.01415275 -0.06672901 0.00786485
v 0.06055818 -0.02985765 0.09276164
v 0.06046560 -0.02976547 0.10219661
v -0.01100061 0.06558649 -0.05552524
v -0.01100061 0.06558649 -0.05502300
v -0.01365877 0.06505975 -0.05552524
v -0.01414809 0.06495441 -0.05502300
v -0.01610534 0.06445401 -0.05502300
v -0.01728234 0.06413797 -0.05552524
v -0.02004630 0.06329519 -0.05552524
v -0.02357729 0.06197836 -0.05552524
v -0.02944905 0.05981875 0.08962262
v -0.03052025 0.05926568 0.08962262
v -0.03300649 0.05793568 0.11792753
v -0.06659720 -0.00157205 0.12772125
v -0.06616079 0.00739559 0.12293202
v -0.06641205 0.00470924 0.12293202
v -0.06692782 0.00470924 0.04876167
v -0.06711297 0.00164102 0.04886930
v -0.06717909 -0.00112433 0.04291415
v -0.06716586 -0.00157205 0.04562266
v -0.03492407 0.05681637 0.12108448
v -0.03649781 0.05578924 0.12108448
v -0.03877246 0.05420904 0.12108448
v -0.04033297 0.05305022 0.12108448
v -0.04229023 0.05147003 0.12108448
v -0.04386396 0.05017952 0.12108448
v -0.04541125 0.04846764 0.03932670
v -0.04699822 0.04700596 0.04562266
v -0.04849260 0.04542575 0.04246572
v -0.05007956 0.04375338 0.04562266
v -0.05140203 0.04218634 0.04562266
v -0.05297577 0.04026377 0.04562266
v -0.05416599 0.03869673 0.04562266
v -0.05573973 0.03647128 0.04562266
v -0.05681093 0.03490425 0.04562266
v -0.05681093 0.03490425 0.04876167
v -0.05793503 0.03302118 0.04876167
v -0.05929718 0.03062454 0.04876167
v -0.06011710 0.02904434 0.04876167
v -0.06120153 0.02672671 0.04876167
v -0.06117508 0.02672671 0.05817871
v -0.06240498 0.02389552 0.05505763
v -0.06239175 0.02388235 0.06133565
v -0.06301331 0.02230215 0.06133565
v -0.06364810 0.02043224 0.05817871
v -0.06363487 0.02043224 0.06133565
v -0.06460028 0.01728501 0.06133565
v -0.06547310 0.01415094 0.04876167
v -0.06593597 0.01199134 0.04876167
v -0.06593597 0.01191233 0.05190068
v -0.06621368 0.01041114 0.04876167
v -0.06658398 0.00785648 0.04876167
v 0.01653319 -0.06621544 0.00786485
v 0.03573544 -0.05730047 0.09360469
v 0.03721660 -0.05626017 0.09905759
v 0.03864487 -0.05500918 0.11073472
v 0.03929288 -0.05467998 0.10533562
v 0.04099886 -0.05354750 0.10219661
v 0.04261228 -0.05232284 0.09905759
v 0.04216264 -0.05244136 0.10879750
v 0.04438438 -0.05063729 0.10849256
v 0.04593167 -0.04914927 0.11073472
v 0.04762443 -0.04762174 0.10849256
v 0.04923785 -0.04601520 0.10533562
v 0.05071901 -0.04448768 0.10219661
v 0.05229275 -0.04257827 0.10219661
v 0.05356232 -0.04099807 0.10219661
v 0.05477899 -0.03929935 0.10219661
v 0.05471286 -0.03929935 0.10533562
v 0.05628660 -0.03723192 0.09905759
v 0.05722555 -0.03555954 0.10533562
v 0.05871995 -0.03300488 0.10533562
v 0.05975147 -0.03141151 0.09704863
v -0.03647136 -0.05574661 0.12772125
v -0.02644705 -0.06672901 0.00786485
v -0.03874601 -0.05417958 0.12772125
v -0.03891793 -0.05406106 0.12772125
v -0.04030652 -0.05302076 0.12772125
v -0.04244892 -0.05130888 0.12772125
v -0.04385074 -0.05016323 0.12772125
v -0.04436650 -0.05062412 0.03304868
v -0.04437972 -0.05063729 0.02989173
v -0.02357729 -0.06747960 0.00786485
v -0.02357729 -0.06746643 0.00472584
v -0.01610534 -0.06770346 0.00786485
v -0.01414809 -0.06774297 0.00786485
v 0.05734458 -0.03577024 0.08960469
v 0.05633950 -0.03731093 0.09276164
v 0.05547990 -0.03929935 0.03618769
v 0.05550634 -0.03929935 0.03306662
v 0.05882574 -0.03300488 0.09905759
v 0.05890509 -0.03304439 0.09276164
v -0.02091913 -0.06679485 -0.05552524
v -0.02042981 -0.06751911 -0.00157012
v -0.02357729 -0.06725574 -0.01416204
v 0.05394583 -0.04148530 0.03306662
v 0.05271594 -0.04305233 0.03618769
v 0.05116865 -0.04500124 0.02990967
v 0.05114220 -0.04497490 0.03618769
v 0.05083803 -0.04461936 0.08960469
v 0.04940976 -0.04618639 0.08960469
v 0.04780958 -0.04780610 0.09360469
v 0.04504562 -0.05122987 0.03618769
v 0.04508529 -0.05126937 0.02990967
v 0.04615649 -0.04937313 0.09362263
v 0.04328674 -0.05283641 0.02990967
v 0.04331318 -0.05286274 0.02047470
v 0.04172622 -0.05412690 0.02677066
v 0.03959705 -0.05566760 0.03306662
v 0.03803653 -0.05680008 0.03306662
v 0.03615863 -0.05809057 0.01417874
v 0.03512710 -0.05870948 0.01582897
v 0.03241604 -0.06027652 0.00816978
v 0.03500808 -0.05870948 0.02990967
v 0.03499486 -0.05870948 0.03141640
v 0.03494196 -0.05870948 0.03450160
v 0.03322275 -0.05870948 0.09590065
v -0.01414809 0.06495441 -0.05552524
v -0.01610534 0.06445401 -0.05552524
v -0.02672477 0.06062202 -0.05552524
v -0.02910521 0.05981875 0.03304868
v -0.03034833 0.05918667 0.03304868
v -0.03300649 0.05786984 0.08962262
v -0.03300649 0.05771182 0.03304868
v -0.06643851 -0.00471929 0.12772125
v -0.06703362 -0.00471929 0.04876167
v -0.06694104 0.00470924 0.04562266
v -0.06712619 0.00165419 0.04562266
v -0.06717909 -0.00157205 0.04291415
v -0.06719231 -0.00157205 0.03304868
v -0.03475215 0.05669785 0.03304868
v -0.03631267 0.05564439 0.03304868
v -0.03861376 0.05409052 0.03616976
v -0.04016105 0.05291854 0.03616976
v -0.04211830 0.05133834 0.03616976
v -0.04370527 0.05003467 0.03932670
v -0.04539803 0.04846764 0.03616976
v -0.04697176 0.04699279 0.03616976
v -0.04698499 0.04699279 0.03932670
v -0.04846615 0.04541259 0.03616976
v -0.05003989 0.04371387 0.03616976
v -0.05136236 0.04213367 0.03616976
v -0.05294933 0.04022426 0.03932670
v -0.05248646 0.03959218 -0.05502300
v -0.05366346 0.03801198 -0.05552524
v -0.05572651 0.03644495 0.04246572
v -0.05793503 0.03302118 0.04562266
v -0.05511817 0.03581287 -0.05552524
v -0.05628194 0.03404831 -0.05552524
v -0.05929718 0.03061137 0.04562266
v -0.06011710 0.02903117 0.04562266
v -0.06240498 0.02392186 0.04876167
v -0.06118830 0.02672671 0.04562266
v -0.06302654 0.02234165 0.04876167
v -0.06366132 0.02043224 0.05190068
v -0.06463995 0.01728501 0.04876167
v -0.06461350 0.01728501 0.05817871
v -0.06547310 0.01415094 0.04562266
v -0.06593597 0.01199134 0.04562266
v -0.06621368 0.01042431 0.04562266
v -0.06659720 0.00785648 0.04562266
v 0.03729595 -0.05631285 0.09362263
v 0.03615863 -0.05794572 0.03618769
v 0.03785139 -0.05593097 0.09362263
v 0.03929288 -0.05482483 0.09905759
v 0.03929288 -0.05494334 0.09276164
v 0.04115756 -0.05366601 0.08960469
v 0.04267840 -0.05237551 0.09362263
v 0.04458275 -0.05079531 0.09362263
v 0.04605069 -0.04926779 0.10219661
v 0.04937009 -0.04616005 0.09362263
v 0.05081158 -0.04457986 0.09362263
v 0.05239854 -0.04268362 0.09276164
v 0.05364166 -0.04110341 0.09362263
v 0.05496413 -0.03929935 0.09276164
v 0.05733135 -0.03573073 0.09276164
v -0.02647350 -0.06668950 -0.00157012
v -0.04437972 -0.05063729 0.01731775
v -0.04714369 -0.04713451 0.12772125
v -0.04595346 -0.04918878 0.03304868
v -0.04595346 -0.04920195 0.02361371
v -0.02655285 -0.06657099 -0.02044006
v -0.02653962 -0.06654465 -0.02357907
v -0.02639415 -0.06647881 -0.03301404
v -0.02594451 -0.06632079 -0.05552524
v 0.05500381 -0.03929935 0.08960469
v 0.05393261 -0.04147213 0.03618769
v -0.02357729 -0.06670267 -0.05502300
v -0.02357729 -0.06668950 -0.05552524
v 0.05366812 -0.04115609 0.08960469
v 0.05241177 -0.04272312 0.08960469
v 0.04462243 -0.05083482 0.08960469
v 0.04324706 -0.05281007 0.03618769
v 0.04169977 -0.05410057 0.03306662
v 0.03957060 -0.05565443 0.03618769
v 0.03797041 -0.05674740 0.03934464
v 0.03615863 -0.05798523 0.03306662
v -0.02845720 0.05980558 -0.05552524
v -0.03003094 0.05898915 -0.05552524
v -0.03238493 0.05765915 -0.05552524
v -0.03304617 0.05727726 -0.05552524
v -0.06618724 -0.00753731 0.12772125
v -0.06679557 -0.00786652 0.04562266
v -0.06708651 -0.00471929 0.03304868
v -0.06683525 -0.00786652 0.03616976
v -0.06691460 0.00470924 0.03616976
v -0.06712619 0.00165419 0.03304868
v -0.06716586 -0.00157205 0.02989173
v -0.03438186 0.05646083 -0.05552524
v -0.03615397 0.05526251 -0.05552524
v -0.03821702 0.05381399 -0.05552524
v -0.03846829 0.05362963 -0.05552524
v -0.04210508 0.05133834 0.03304868
v -0.03979076 0.05258933 -0.05502300
v -0.04369204 0.05003467 0.03616976
v -0.04538480 0.04845447 0.03304868
v -0.04497483 0.04808576 -0.05552524
v -0.04654857 0.04653189 -0.05502300
v -0.04802974 0.04496487 -0.05552524
v -0.04959025 0.04317397 -0.05552524
v -0.05091272 0.04160694 -0.05552524
v -0.05116399 0.04130407 -0.05552524
v -0.05720767 0.03246811 -0.05552524
v -0.05864917 0.02986078 -0.05502300
v -0.05960134 0.02797770 -0.05552524
v -0.06034192 0.02646334 -0.05188398
v -0.06239175 0.02389552 0.04562266
v -0.06301331 0.02231532 0.04562266
v -0.06364810 0.02043224 0.04562266
v -0.06366132 0.02043224 0.04876167
v -0.06463995 0.01728501 0.04562266
v -0.06458705 0.01728501 0.03932670
v -0.06536730 0.01415094 0.03304868
v -0.06589629 0.01176748 0.03304868
v -0.06618724 0.01020044 0.03304868
v -0.06654430 0.00785648 0.03304868
v 0.04162042 -0.05403473 0.04248365
v -0.04595346 -0.04920195 0.01731775
v -0.04436650 -0.05062412 0.01417874
v -0.05017214 -0.04384243 0.12772125
v -0.05064823 -0.04439550 0.03304868
v -0.04916706 -0.04594936 0.03616976
v -0.04760655 -0.04759541 0.03616976
v -0.04761977 -0.04760857 0.03304868
v -0.04763300 -0.04763491 0.02361371
v -0.04406233 -0.05034759 -0.02044006
v -0.04595346 -0.04916244 0.01417874
v -0.04365237 -0.04997888 -0.05552524
v -0.06598887 -0.00910434 0.12772125
v -0.06647818 -0.01055286 0.04291415
v -0.06683525 -0.00786652 0.03304868
v -0.06702039 -0.00471929 0.02675272
v -0.06678235 -0.00786652 0.02675272
v -0.06643851 -0.01100059 0.03616976
v -0.06690137 0.00470924 0.03304868
v -0.06709974 0.00165419 0.02989173
v -0.06686170 0.00154884 0.01417874
v -0.06687492 -0.00157205 0.01102179
v -0.06674267 -0.00471929 0.00820565
v -0.03977754 0.05258933 -0.05552524
v -0.04172156 0.05102230 -0.05552524
v -0.04367882 0.05002151 0.03304868
v -0.04329530 0.04965279 -0.05552524
v -0.04654857 0.04651873 -0.05552524
v -0.05863594 0.02986078 -0.05552524
v -0.06022290 0.02663453 -0.05552524
v -0.06032870 0.02641067 -0.05502300
v -0.06153215 0.02356631 -0.05552524
v -0.06157182 0.02356631 -0.05188398
v -0.06356875 0.02043224 0.03616976
v -0.06362165 0.02043224 0.04246572
v -0.06260335 0.02086680 -0.05156111
v -0.06453415 0.01728501 0.03304868
v -0.06501024 0.01542827 0.03120115
v -0.06260335 0.02076145 -0.05502300
v -0.06532763 0.01415094 0.02989173
v -0.06588307 0.01168847 0.02989173
v -0.06614756 0.00996341 0.02675272
v -0.06651786 0.00785648 0.02989173
v -0.04763300 -0.04762174 0.01731775
v -0.04763300 -0.04763491 0.02047470
v -0.05130946 -0.04245975 0.12772125
v -0.05351798 -0.04094539 0.03304868
v -0.05219551 -0.04251242 0.03616976
v -0.05220874 -0.04252559 0.03304868
v -0.05066145 -0.04440867 0.02989173
v -0.04920673 -0.04597570 0.02361371
v -0.04567575 -0.04889907 -0.01730105
v -0.04563607 -0.04887274 -0.02044006
v -0.04534513 -0.04841184 -0.05502300
v -0.04732883 -0.04733204 -0.01730105
v -0.04691887 -0.04689749 -0.05552524
v -0.06571115 -0.01100059 0.12772125
v -0.06639883 -0.01100059 0.04562266
v -0.06643851 -0.01100059 0.03304868
v -0.06642528 -0.01100059 0.02989173
v -0.06666333 -0.00786652 0.01731775
v -0.06624014 -0.01130346 0.01715632
v -0.06612111 -0.01297584 0.03616976
v -0.06616079 -0.01263346 0.04291415
v -0.06687492 0.00470924 0.02989173
v -0.06695427 0.00165419 0.02045676
v -0.06680879 0.00165419 0.01112942
v -0.06675590 0.00165419 0.00816978
v -0.06682202 -0.00157205 0.00820565
v -0.06651786 -0.00786652 0.00820565
v -0.06260335 -0.02179863 -0.05552524
v -0.06260335 0.02073512 -0.05552524
v -0.06585662 0.01154361 0.02675272
v -0.06602854 0.00929183 0.01358682
v -0.06646495 0.00785648 0.02675272
v -0.06651786 0.00470924 0.00816978
v -0.04920673 -0.04597570 0.02047470
v -0.05066145 -0.04440867 0.01731775
v -0.04915384 -0.04590986 0.01102179
v -0.05164008 -0.04205154 0.12772125
v -0.05472143 -0.03928618 0.03304868
v -0.05353121 -0.04097173 0.02047470
v -0.05223519 -0.04253876 0.02047470
v -0.05304189 -0.04031331 0.12772125
v -0.05437759 -0.03848291 0.12772125
v -0.05067468 -0.04440867 0.02047470
v -0.04726271 -0.04726620 -0.02357907
v -0.05035728 -0.04406629 -0.01730105
v -0.04838681 -0.04533045 -0.05552524
v -0.06518216 -0.01380544 0.12772125
v -0.06608144 -0.01281782 0.04876167
v -0.06612111 -0.01297584 0.03304868
v -0.06612111 -0.01292316 0.02989173
v -0.06604177 -0.01255445 0.01597246
v -0.06605499 -0.01262029 0.01807112
v -0.06621368 -0.01056603 0.00820565
v -0.06579050 -0.01454287 0.03616976
v -0.06606821 -0.01312069 0.04291415
v -0.06579050 -0.01455604 0.03304868
v -0.06674267 0.00186488 0.00816978
v -0.06195534 -0.02356318 -0.05552524
v -0.06260335 -0.02183813 -0.05502300
v -0.06485154 -0.01730822 0.00820565
v -0.06557890 -0.01416099 0.00820565
v -0.06564502 -0.01387128 0.00820565
v -0.06597564 -0.01213306 0.00820565
v -0.06620046 0.00738242 0.00816978
v -0.06597564 0.00896262 0.00816978
v -0.06621368 0.00809351 0.01446574
v -0.05351798 -0.04095856 0.01731775
v -0.05622904 -0.03716608 0.03304868
v -0.05473466 -0.03928618 0.02047470
v -0.05621582 -0.03715291 0.03616976
v -0.05576618 -0.03644182 0.12772125
v -0.05162686 -0.04243342 -0.02044006
v -0.05125656 -0.04202520 -0.05552524
v -0.04996054 -0.04361857 -0.05502300
v -0.04994732 -0.04359223 -0.05552524
v -0.06510281 -0.01416099 0.12772125
v -0.06576405 -0.01447703 0.04562266
v -0.06583017 -0.01387128 0.02047470
v -0.06575082 -0.01387128 0.01450161
v -0.06579050 -0.01387128 0.01712044
v -0.06600209 -0.01229108 0.01102179
v -0.06511604 -0.01730822 0.03616976
v -0.06510281 -0.01730822 0.04291415
v -0.06575082 -0.01434534 0.02361371
v -0.06511604 -0.01730822 0.02989173
v -0.06067254 -0.02671042 -0.05552524
v -0.06196856 -0.02356318 -0.05502300
v -0.06269592 -0.02462982 0.01731775
v -0.06323813 -0.02299694 0.01417874
v -0.06411096 -0.02044229 0.01731775
v -0.06499702 -0.01730822 0.01731775
v -0.05470820 -0.03928618 0.01731775
v -0.05472143 -0.03906232 0.00820565
v -0.05427179 -0.03883846 -0.02671809
v -0.05314770 -0.04045817 -0.02357907
v -0.05724735 -0.03559905 0.03304868
v -0.05622904 -0.03716608 0.02047470
v -0.05720767 -0.03553321 0.04291415
v -0.05678448 -0.03487479 0.12772125
v -0.05301545 -0.03981292 -0.05552524
v -0.05015891 -0.04335520 -0.05552524
v -0.05284352 -0.04004995 -0.05502300
v -0.06442835 -0.01693951 0.12772125
v -0.06422998 -0.02044229 0.03616976
v -0.06420353 -0.02044229 0.04246572
v -0.06432256 -0.01730822 0.12772125
v -0.06422998 -0.02044229 0.02989173
v -0.05985261 -0.02851448 -0.05552524
v -0.05986583 -0.02852765 -0.05502300
v -0.06182309 -0.02672359 0.01731775
v -0.06273559 -0.02474833 0.02989173
v -0.06327781 -0.02308912 0.02047470
v -0.05621582 -0.03712657 0.01731775
v -0.05613647 -0.03702123 0.00816978
v -0.05584553 -0.03657350 -0.02671809
v -0.05398085 -0.03846975 -0.05552524
v -0.05878141 -0.03300488 0.03304868
v -0.05724735 -0.03559905 0.02989173
v -0.05876819 -0.03300488 0.03616976
v -0.05722090 -0.03559905 0.02047470
v -0.05722090 -0.03555954 0.01731775
v -0.05871529 -0.03300488 0.04246572
v -0.05785568 -0.03300488 0.12772125
v -0.06331748 -0.02318130 0.03616976
v -0.06331748 -0.02319447 0.03304868
v -0.06327781 -0.02310229 0.04562266
v -0.06313233 -0.02121922 0.12772125
v -0.06329103 -0.02071882 0.12772125
v -0.05905913 -0.03009468 -0.05552524
v -0.05933685 -0.03063458 -0.02357907
v -0.06011710 -0.02906755 -0.02357907
v -0.06044772 -0.02972597 0.01731775
v -0.06046094 -0.02975230 0.02047470
v -0.06190244 -0.02672359 0.02989173
v -0.06191566 -0.02672359 0.03304868
v -0.06273559 -0.02477467 0.03304868
v -0.05685061 -0.03499330 -0.02671809
v -0.05661256 -0.03459825 -0.05409026
v -0.05573973 -0.03590192 -0.05552524
v -0.05969392 -0.03135884 0.03616976
v -0.05878141 -0.03300488 0.02989173
v -0.05876819 -0.03300488 0.02361371
v -0.05966746 -0.03127983 0.04562266
v -0.05872851 -0.03300488 0.01731775
v -0.05728702 -0.03521717 0.00820565
v -0.05925750 -0.03046339 0.12772125
v -0.06273559 -0.02476150 0.03616976
v -0.06272237 -0.02469566 0.04291415
v -0.06257689 -0.02282576 0.12772125
v -0.05882108 -0.03054240 -0.05552524
v -0.05794825 -0.03300488 -0.02985710
v -0.05960134 -0.03113498 0.00786485
v -0.05966746 -0.03129300 0.01731775
v -0.05968069 -0.03131934 0.02047470
v -0.05969392 -0.03133250 0.02361371
v -0.06048740 -0.02979181 0.02989173
v -0.06048740 -0.02979181 0.03304868
v -0.06048740 -0.02977864 0.03616976
v -0.06190244 -0.02672359 0.03616976
v -0.05733992 -0.03325508 -0.05552524
v -0.05703575 -0.03378182 -0.05552524
v -0.05608357 -0.03536202 -0.05552524
v -0.05969392 -0.03135884 0.02989173
v -0.06003776 -0.02888319 0.12772125
v -0.06183631 -0.02673675 0.04562266
v -0.06101638 -0.02672359 0.12772125
v -0.06239175 -0.02332615 0.12772125
f 1 2 3
f 1 3 4
f 1 4 5
f 1 5 6
f 1 6 7
f 1 7 8
f 1 8 2
f 2 8 9
f 2 9 10
f 2 10 3
f 3 10 11
f 3 11 4
f 4 11 12
f 4 12 13
f 4 13 14
f 4 14 5
f 5 15 6
f 5 14 15
f 6 15 7
f 7 16 17
f 7 17 28
f 7 28 8
f 7 15 18
f 7 18 19
f 7 19 20
f 7 20 21
f 7 21 22
f 7 22 23
f 7 23 24
f 7 24 25
f 7 25 26
f 7 26 27
f 7 27 16
f 8 28 29
f 8 29 30
f 8 30 31
f 8 31 32
f 8 32 33
f 8 33 34
f 8 34 35
f 8 35 36
f 8 36 37
f 8 37 38
f 8 38 39
f 8 39 9
f 9 39 40
f 9 40 10
f 10 40 139
f 10 139 41
f 10 41 42
f 10 42 43
f 10 43 11
f 11 43 44
f 11 44 12
f 12 44 13
f 13 44 45
f 13 45 14
f 14 45 46
f 14 46 19
f 14 19 47
f 14 47 15
f 15 47 18
f 16 48 17
f 16 27 49
f 16 49 151
f 16 151 48
f 17 50 51
f 17 51 52
f 17 52 53
f 17 53 158
f 17 158 54
f 17 54 159
f 17 159 272
f 17 272 431
f 17 431 614
f 17 614 737
f 17 737 833
f 17 833 829
f 17 829 892
f 17 892 936
f 17 936 969
f 17 969 998
f 17 998 1024
f 17 1024 996
f 17 996 1023
f 17 1023 1039
f 17 1039 1062
f 17 1062 1085
f 17 1085 1084
f 17 1084 1083
f 17 1083 1073
f 17 1073 1052
f 17 1052 1031
f 17 1031 1009
f 17 1009 981
f 17 981 951
f 17 951 952
f 17 952 912
f 17 912 910
f 17 910 869
f 17 869 909
f 17 909 867
f 17 867 793
f 17 793 792
f 17 792 789
f 17 789 866
f 17 866 865
f 17 865 864
f 17 864 863
f 17 863 908
f 17 908 861
f 17 861 907
f 17 907 905
f 17 905 904
f 17 904 856
f 17 856 855
f 17 855 854
f 17 854 853
f 17 853 845
f 17 845 844
f 17 844 843
f 17 843 842
f 17 842 764
f 17 764 654
f 17 654 486
f 17 486 653
f 17 653 652
f 17 652 763
f 17 763 762
f 17 762 649
f 17 649 647
f 17 647 478
f 17 478 318
f 17 318 199
f 17 199 94
f 17 94 28
f 17 48 55
f 17 55 56
f 17 56 57
f 17 57 58
f 17 58 59
f 17 59 60
f 17 60 61
f 17 61 62
f 17 62 63
f 17 63 64
f 17 64 65
f 17 65 66
f 17 66 67
f 17 67 68
f 17 68 69
f 17 69 70
f 17 70 71
f 17 71 72
f 17 72 73
f 17 73 74
f 17 74 75
f 17 75 76
f 17 76 77
f 17 77 78
f 17 78 79
f 17 79 80
f 17 80 81
f 17 81 82
f 17 82 83
f 17 83 84
f 17 84 50
f 18 47 19
f 19 46 85
f 19 85 20
f 20 85 21
f 21 85 46
f 21 46 86
f 21 86 22
f 22 86 87
f 22 87 23
f 23 87 88
f 23 88 24
f 24 88 89
f 24 89 25
f 25 89 26
f 26 90 91
f 26 91 27
f 26 89 92
f 26 92 93
f 26 93 90
f 27 91 49
f 28 94 95
f 28 95 96
f 28 96 97
f 28 97 98
f 28 98 99
f 28 99 100
f 28 100 101
f 28 101 102
f 28 102 103
f 28 103 104
f 28 104 105
f 28 105 106
f 28 106 107
f 28 107 108
f 28 108 109
f 28 109 110
f 28 110 111
f 28 111 112
f 28 112 113
f 28 113 114
f 28 114 115
f 28 115 116
f 28 116 117
f 28 117 118
f 28 118 119
f 28 119 120
f 28 120 121
f 28 121 122
f 28 122 123
f 28 123 124
f 28 124 125
f 28 125 126
f 28 126 127
f 28 127 29
f 29 127 128
f 29 128 129
f 29 129 30
f 30 129 130
f 30 130 131
f 30 131 31
f 31 131 132
f 31 132 32
f 32 132 133
f 32 133 33
f 33 133 134
f 33 134 34
f 34 134 135
f 34 135 35
f 35 135 36
f 36 135 136
f 36 136 137
f 36 137 37
f 37 137 38
f 38 137 138
f 38 138 40
f 38 40 39
f 40 138 249
f 40 249 139
f 41 139 252
f 41 252 140
f 41 140 141
f 41 141 142
f 41 142 42
f 42 143 44
f 42 44 144
f 42 144 43
f 42 142 143
f 43 144 44
f 44 143 142
f 44 142 145
f 44 145 45
f 45 145 146
f 45 146 147
f 45 147 148
f 45 148 46
f 46 148 149
f 46 149 150
f 46 150 86
f 48 151 161
f 48 161 55
f 49 91 152
f 49 152 153
f 49 153 151
f 50 84 154
f 50 154 155
f 50 155 156
f 50 156 51
f 51 156 52
f 52 156 53
f 53 156 269
f 53 269 157
f 53 157 270
f 53 270 274
f 53 274 160
f 53 160 158
f 54 158 160
f 54 160 159
f 55 161 162
f 55 162 56
f 56 162 57
f 57 162 163
f 57 163 164
f 57 164 58
f 58 164 165
f 58 165 59
f 59 165 166
f 59 166 60
f 60 166 61
f 61 166 167
f 61 167 62
f 62 167 168
f 62 168 169
f 62 169 170
f 62 170 171
f 62 171 63
f 63 171 172
f 63 172 173
f 63 173 64
f 64 173 65
f 65 173 174
f 65 174 175
f 65 175 66
f 66 175 67
f 67 175 176
f 67 176 177
f 67 177 178
f 67 178 68
f 68 178 179
f 68 179 69
f 69 179 70
f 70 179 180
f 70 180 71
f 71 180 72
f 72 180 181
f 72 181 182
f 72 182 73
f 73 182 74
f 74 182 75
f 75 182 183
f 75 183 76
f 76 183 184
f 76 184 77
f 77 184 185
f 77 185 78
f 78 185 79
f 79 185 186
f 79 186 80
f 80 186 187
f 80 187 188
f 80 188 81
f 81 188 189
f 81 189 82
f 82 189 154
f 82 154 83
f 83 154 84
f 86 150 190
f 86 190 87
f 87 190 88
f 88 191 89
f 88 190 192
f 88 192 193
f 88 193 191
f 89 191 92
f 90 194 91
f 90 93 194
f 91 195 152
f 91 194 195
f 92 191 193
f 92 193 196
f 92 196 93
f 93 196 197
f 93 197 198
f 93 198 194
f 94 199 200
f 94 200 201
f 94 201 95
f 95 202 96
f 95 201 203
f 95 203 202
f 96 202 203
f 96 203 204
f 96 204 205
f 96 205 97
f 97 205 206
f 97 206 98
f 98 206 207
f 98 207 99
f 99 207 208
f 99 208 100
f 100 208 101
f 101 208 209
f 101 209 102
f 102 209 103
f 103 209 210
f 103 210 104
f 104 211 105
f 104 210 212
f 104 212 213
f 104 213 214
f 104 214 211
f 105 211 106
f 106 211 215
f 106 215 216
f 106 216 217
f 106 217 107
f 107 217 108
f 108 217 218
f 108 218 109
f 109 218 110
f 110 218 219
f 110 219 111
f 111 219 220
f 111 220 112
f 112 220 221
f 112 221 222
f 112 222 113
f 113 222 223
f 113 223 114
f 114 223 224
f 114 224 115
f 115 224 225
f 115 225 116
f 116 225 117
f 117 225 226
f 117 226 227
f 117 227 118
f 118 227 228
f 118 228 119
f 119 228 229
f 119 229 120
f 120 229 230
f 120 230 121
f 121 230 231
f 121 231 232
f 121 232 122
f 122 232 123
f 123 232 233
f 123 233 124
f 124 233 234
f 124 234 235
f 124 235 125
f 125 235 126
f 126 235 236
f 126 236 127
f 127 236 128
f 128 236 237
f 128 237 129
f 129 237 345
f 129 345 238
f 129 238 130
f 130 238 239
f 130 239 240
f 130 240 131
f 131 240 132
f 132 240 241
f 132 241 242
f 132 242 243
f 132 243 133
f 133 243 134
f 134 243 244
f 134 244 135
f 135 244 245
f 135 245 246
f 135 246 136
f 136 246 247
f 136 247 137
f 137 247 138
f 138 247 248
f 138 248 249
f 139 249 250
f 139 250 251
f 139 251 252
f 140 252 141
f 141 253 142
f 141 252 251
f 141 251 254
f 141 254 255
f 141 255 256
f 141 256 253
f 142 253 145
f 145 253 146
f 146 253 256
f 146 256 147
f 147 256 257
f 147 257 148
f 148 258 259
f 148 259 149
f 148 257 260
f 148 260 258
f 149 259 261
f 149 261 262
f 149 262 150
f 150 262 190
f 151 153 263
f 151 263 161
f 152 195 264
f 152 264 265
f 152 265 266
f 152 266 153
f 153 266 263
f 154 189 267
f 154 267 268
f 154 268 155
f 155 268 269
f 155 269 156
f 157 269 271
f 157 271 270
f 159 160 273
f 159 273 272
f 160 274 275
f 160 275 273
f 161 263 276
f 161 276 162
f 162 276 163
f 163 276 277
f 163 277 278
f 163 278 164
f 164 278 279
f 164 279 165
f 165 279 280
f 165 280 166
f 166 280 281
f 166 281 168
f 166 168 167
f 168 281 169
f 169 281 282
f 169 282 170
f 170 282 443
f 170 443 283
f 170 283 284
f 170 284 285
f 170 285 171
f 171 285 172
f 172 285 286
f 172 286 174
f 172 174 173
f 174 286 287
f 174 287 175
f 175 287 176
f 176 287 288
f 176 288 289
f 176 289 290
f 176 290 291
f 176 291 177
f 177 291 292
f 177 292 178
f 178 292 293
f 178 293 179
f 179 293 294
f 179 294 295
f 179 295 180
f 180 295 296
f 180 296 181
f 181 296 182
f 182 296 297
f 182 297 183
f 183 297 298
f 183 298 184
f 184 299 300
f 184 300 185
f 184 298 301
f 184 301 302
f 184 302 299
f 185 300 186
f 186 300 303
f 186 303 304
f 186 304 187
f 187 304 305
f 187 305 188
f 188 305 189
f 189 305 306
f 189 306 307
f 189 307 267
f 190 262 192
f 192 262 261
f 192 261 308
f 192 308 309
f 192 309 310
f 192 310 193
f 193 310 311
f 193 311 196
f 194 198 195
f 195 198 264
f 196 311 312
f 196 312 313
f 196 313 197
f 197 314 198
f 197 313 315
f 197 315 314
f 198 316 264
f 198 314 317
f 198 317 316
f 199 318 200
f 200 318 319
f 200 319 320
f 200 320 201
f 201 320 321
f 201 321 203
f 203 321 213
f 203 213 204
f 204 213 205
f 205 213 206
f 206 213 207
f 207 213 208
f 208 210 209
f 208 213 210
f 210 213 212
f 211 214 215
f 213 322 323
f 213 323 214
f 213 321 383
f 213 383 255
f 213 255 254
f 213 254 322
f 214 323 324
f 214 324 325
f 214 325 215
f 215 325 216
f 216 325 217
f 217 325 326
f 217 326 219
f 217 219 218
f 219 326 221
f 219 221 220
f 221 327 222
f 221 326 325
f 221 325 328
f 221 328 329
f 221 329 327
f 222 327 330
f 222 330 223
f 223 330 224
f 224 330 331
f 224 331 332
f 224 332 225
f 225 332 333
f 225 333 226
f 226 333 227
f 227 333 334
f 227 334 335
f 227 335 228
f 228 335 336
f 228 336 229
f 229 337 230
f 229 336 337
f 230 337 231
f 231 337 338
f 231 338 232
f 232 339 233
f 232 338 340
f 232 340 341
f 232 341 339
f 233 339 342
f 233 342 234
f 234 342 235
f 235 342 343
f 235 343 344
f 235 344 236
f 236 344 345
f 236 345 237
f 238 345 346
f 238 346 239
f 239 346 347
f 239 347 348
f 239 348 241
f 239 241 240
f 241 348 349
f 241 349 242
f 242 349 350
f 242 350 243
f 243 350 510
f 243 510 351
f 243 351 352
f 243 352 244
f 244 352 245
f 245 352 353
f 245 353 354
f 245 354 246
f 246 354 355
f 246 355 248
f 246 248 356
f 246 356 247
f 247 356 248
f 248 357 358
f 248 358 251
f 248 251 250
f 248 250 249
f 248 355 357
f 251 358 254
f 254 358 357
f 254 357 359
f 254 359 360
f 254 360 361
f 254 361 362
f 254 362 363
f 254 363 364
f 254 364 365
f 254 365 366
f 254 366 367
f 254 367 368
f 254 368 369
f 254 369 370
f 254 370 371
f 254 371 372
f 254 372 373
f 254 373 374
f 254 374 375
f 254 375 376
f 254 376 377
f 254 377 378
f 254 378 379
f 254 379 380
f 254 380 381
f 254 381 329
f 254 329 328
f 254 328 382
f 254 382 322
f 255 383 523
f 255 523 658
f 255 658 769
f 255 769 846
f 255 846 893
f 255 893 937
f 255 937 970
f 255 970 999
f 255 999 1026
f 255 1026 1029
f 255 1029 1051
f 255 1051 1050
f 255 1050 1072
f 255 1072 1090
f 255 1090 1089
f 255 1089 1087
f 255 1087 1069
f 255 1069 1046
f 255 1046 1022
f 255 1022 994
f 255 994 965
f 255 965 964
f 255 964 960
f 255 960 926
f 255 926 884
f 255 884 823
f 255 823 724
f 255 724 723
f 255 723 722
f 255 722 721
f 255 721 720
f 255 720 718
f 255 718 596
f 255 596 412
f 255 412 256
f 256 384 385
f 256 385 386
f 256 386 387
f 256 387 388
f 256 388 389
f 256 389 390
f 256 390 391
f 256 391 392
f 256 392 393
f 256 393 394
f 256 394 395
f 256 395 396
f 256 396 397
f 256 397 398
f 256 398 399
f 256 399 400
f 256 400 401
f 256 401 402
f 256 402 403
f 256 403 404
f 256 404 405
f 256 405 406
f 256 406 407
f 256 407 408
f 256 408 409
f 256 409 410
f 256 410 411
f 256 411 260
f 256 260 257
f 256 412 413
f 256 413 384
f 258 260 414
f 258 414 259
f 259 414 261
f 260 411 414
f 261 414 415
f 261 415 416
f 261 416 308
f 263 266 417
f 263 417 418
f 263 418 276
f 264 316 419
f 264 419 265
f 265 419 266
f 266 419 420
f 266 420 421
f 266 421 417
f 267 307 422
f 267 422 423
f 267 423 424
f 267 424 425
f 267 425 268
f 268 425 269
f 269 425 424
f 269 424 426
f 269 426 271
f 270 271 427
f 270 427 428
f 270 428 429
f 270 429 274
f 271 426 430
f 271 430 413
f 271 413 427
f 272 273 432
f 272 432 433
f 272 433 431
f 273 275 434
f 273 434 435
f 273 435 432
f 274 429 275
f 275 429 613
f 275 613 617
f 275 617 434
f 276 418 436
f 276 436 437
f 276 437 277
f 277 437 438
f 277 438 278
f 278 438 439
f 278 439 279
f 279 439 280
f 280 439 440
f 280 440 441
f 280 441 442
f 280 442 281
f 281 442 282
f 282 442 441
f 282 441 443
f 283 443 444
f 283 444 445
f 283 445 446
f 283 446 284
f 284 447 448
f 284 448 449
f 284 449 285
f 284 446 447
f 285 449 286
f 286 449 288
f 286 288 287
f 288 449 448
f 288 448 450
f 288 450 451
f 288 451 289
f 289 451 631
f 289 631 452
f 289 452 290
f 290 453 292
f 290 292 291
f 290 452 454
f 290 454 453
f 292 453 293
f 293 453 455
f 293 455 456
f 293 456 457
f 293 457 458
f 293 458 294
f 294 459 460
f 294 460 296
f 294 296 295
f 294 458 636
f 294 636 459
f 296 460 297
f 297 460 459
f 297 459 461
f 297 461 301
f 297 301 298
f 299 302 462
f 299 462 463
f 299 463 300
f 300 463 303
f 301 461 464
f 301 464 302
f 302 464 465
f 302 465 466
f 302 466 566
f 302 566 462
f 303 463 467
f 303 467 304
f 304 306 305
f 304 467 468
f 304 468 306
f 306 468 307
f 307 468 469
f 307 469 422
f 308 416 470
f 308 470 309
f 309 470 310
f 310 470 311
f 311 470 471
f 311 471 312
f 312 471 313
f 313 471 472
f 313 472 473
f 313 473 315
f 314 315 317
f 315 474 475
f 315 475 317
f 315 473 476
f 315 476 474
f 316 317 419
f 317 477 419
f 317 475 477
f 318 478 479
f 318 479 319
f 319 479 321
f 319 321 320
f 321 480 383
f 321 479 481
f 321 481 482
f 321 482 483
f 321 483 484
f 321 484 485
f 321 485 486
f 321 486 487
f 321 487 488
f 321 488 480
f 322 382 323
f 323 382 324
f 324 382 328
f 324 328 325
f 327 329 330
f 329 381 330
f 330 381 489
f 330 489 522
f 330 522 490
f 330 490 331
f 331 490 332
f 332 491 333
f 332 490 492
f 332 492 491
f 333 491 334
f 334 491 493
f 334 493 494
f 334 494 495
f 334 495 496
f 334 496 336
f 334 336 335
f 336 497 337
f 336 496 498
f 336 498 500
f 336 500 497
f 337 497 338
f 338 499 340
f 338 497 500
f 338 500 501
f 338 501 499
f 339 341 342
f 340 499 341
f 341 502 342
f 341 499 501
f 341 501 503
f 341 503 504
f 341 504 502
f 342 502 505
f 342 505 343
f 343 505 506
f 343 506 344
f 344 506 507
f 344 507 345
f 345 507 346
f 346 507 347
f 347 507 508
f 347 508 348
f 348 508 509
f 348 509 349
f 349 510 350
f 349 509 511
f 349 511 510
f 351 510 512
f 351 512 362
f 351 362 361
f 351 361 352
f 352 361 360
f 352 360 353
f 353 360 359
f 353 359 357
f 353 357 513
f 353 513 354
f 354 513 355
f 355 513 357
f 362 512 511
f 362 511 363
f 363 511 364
f 364 511 509
f 364 509 514
f 364 514 365
f 365 514 366
f 366 514 515
f 366 515 367
f 367 515 507
f 367 507 516
f 367 516 517
f 367 517 368
f 368 517 369
f 369 517 370
f 370 517 504
f 370 504 371
f 371 504 503
f 371 503 372
f 372 503 518
f 372 518 373
f 373 518 501
f 373 501 519
f 373 519 520
f 373 520 374
f 374 520 519
f 374 519 521
f 374 521 496
f 374 496 375
f 375 496 495
f 375 495 376
f 376 495 494
f 376 494 377
f 377 494 492
f 377 492 378
f 378 492 522
f 378 522 379
f 379 522 380
f 380 522 489
f 380 489 381
f 383 480 524
f 383 524 525
f 383 525 526
f 383 526 527
f 383 527 528
f 383 528 529
f 383 529 530
f 383 530 531
f 383 531 532
f 383 532 533
f 383 533 534
f 383 534 535
f 383 535 536
f 383 536 537
f 383 537 538
f 383 538 539
f 383 539 540
f 383 540 541
f 383 541 542
f 383 542 543
f 383 543 544
f 383 544 545
f 383 545 546
f 383 546 547
f 383 547 548
f 383 548 549
f 383 549 550
f 383 550 551
f 383 551 552
f 383 552 553
f 383 553 554
f 383 554 555
f 383 555 556
f 383 556 523
f 384 557 385
f 384 413 558
f 384 558 559
f 384 559 560
f 384 560 561
f 384 561 562
f 384 562 563
f 384 563 564
f 384 564 565
f 384 565 566
f 384 566 567
f 384 567 466
f 384 466 465
f 384 465 557
f 385 557 568
f 385 568 569
f 385 569 386
f 386 569 570
f 386 570 387
f 387 570 388
f 388 571 389
f 388 570 571
f 389 571 572
f 389 572 390
f 390 572 391
f 391 572 573
f 391 573 574
f 391 574 392
f 392 574 393
f 393 574 575
f 393 575 576
f 393 576 394
f 394 576 395
f 395 576 396
f 396 576 577
f 396 577 578
f 396 578 579
f 396 579 580
f 396 580 397
f 397 580 581
f 397 581 398
f 398 581 399
f 399 581 582
f 399 582 583
f 399 583 400
f 400 583 401
f 401 583 584
f 401 584 585
f 401 585 402
f 402 586 403
f 402 585 587
f 402 587 586
f 403 586 404
f 404 588 405
f 404 586 587
f 404 587 589
f 404 589 590
f 404 590 588
f 405 588 406
f 406 588 473
f 406 473 591
f 406 591 407
f 407 591 408
f 408 592 409
f 408 591 593
f 408 593 592
f 409 592 410
f 410 592 594
f 410 594 470
f 410 470 595
f 410 595 415
f 410 415 411
f 411 415 414
f 412 596 597
f 412 597 598
f 412 598 599
f 412 599 600
f 412 600 601
f 412 601 602
f 412 602 603
f 412 603 604
f 412 604 605
f 412 605 413
f 413 430 559
f 413 559 558
f 413 605 604
f 413 604 427
f 415 595 416
f 416 595 470
f 417 421 418
f 418 421 606
f 418 606 607
f 418 607 608
f 418 608 436
f 419 477 420
f 420 477 609
f 420 609 421
f 421 609 610
f 421 610 606
f 422 469 423
f 423 469 611
f 423 611 561
f 423 561 560
f 423 560 424
f 424 560 559
f 424 559 430
f 424 430 426
f 427 604 612
f 427 612 613
f 427 613 428
f 428 613 429
f 431 433 614
f 432 435 615
f 432 615 616
f 432 616 614
f 432 614 433
f 434 617 435
f 435 617 618
f 435 618 619
f 435 619 615
f 436 620 438
f 436 438 437
f 436 608 620
f 438 620 621
f 438 621 439
f 439 621 440
f 440 621 622
f 440 622 623
f 440 623 441
f 441 623 444
f 441 444 443
f 444 623 624
f 444 624 445
f 445 624 625
f 445 625 626
f 445 626 446
f 446 626 627
f 446 627 628
f 446 628 447
f 447 629 448
f 447 628 629
f 448 629 450
f 450 629 630
f 450 630 451
f 451 630 632
f 451 632 631
f 452 631 633
f 452 633 454
f 453 454 455
f 454 633 634
f 454 634 455
f 455 634 635
f 455 635 456
f 456 635 637
f 456 637 457
f 457 636 458
f 457 637 757
f 457 757 636
f 459 636 461
f 461 636 757
f 461 757 638
f 461 638 640
f 461 640 464
f 462 566 565
f 462 565 463
f 463 565 564
f 463 564 639
f 463 639 467
f 464 640 465
f 465 640 641
f 465 641 642
f 465 642 557
f 466 567 566
f 467 643 468
f 467 639 697
f 467 697 643
f 468 643 469
f 469 643 644
f 469 644 611
f 470 593 471
f 470 594 593
f 471 593 591
f 471 591 472
f 472 591 473
f 473 590 476
f 473 588 590
f 474 645 475
f 474 476 646
f 474 646 645
f 475 645 477
f 476 590 646
f 477 645 609
f 478 647 648
f 478 648 481
f 478 481 479
f 480 488 524
f 481 648 482
f 482 648 649
f 482 649 650
f 482 650 483
f 483 650 651
f 483 651 484
f 484 651 763
f 484 763 652
f 484 652 653
f 484 653 485
f 485 653 486
f 486 654 487
f 487 654 655
f 487 655 488
f 488 655 656
f 488 656 657
f 488 657 525
f 488 525 524
f 490 522 492
f 491 492 493
f 492 494 493
f 496 521 498
f 498 521 519
f 498 519 500
f 500 519 501
f 501 518 503
f 502 504 505
f 504 517 505
f 505 517 516
f 505 516 506
f 506 516 507
f 507 515 514
f 507 514 508
f 508 514 509
f 510 511 512
f 523 556 659
f 523 659 660
f 523 660 661
f 523 661 662
f 523 662 663
f 523 663 664
f 523 664 658
f 525 657 665
f 525 665 526
f 526 665 666
f 526 666 527
f 527 666 667
f 527 667 528
f 528 667 668
f 528 668 529
f 529 668 530
f 530 668 669
f 530 669 531
f 531 669 670
f 531 670 532
f 532 670 533
f 533 670 671
f 533 671 672
f 533 672 534
f 534 672 673
f 534 673 674
f 534 674 535
f 535 674 536
f 536 674 675
f 536 675 537
f 537 675 676
f 537 676 538
f 538 676 677
f 538 677 539
f 539 677 678
f 539 678 540
f 540 678 679
f 540 679 680
f 540 680 541
f 541 680 542
f 542 680 681
f 542 681 543
f 543 681 682
f 543 682 544
f 544 682 683
f 544 683 545
f 545 683 684
f 545 684 546
f 546 684 685
f 546 685 547
f 547 685 686
f 547 686 687
f 547 687 548
f 548 687 549
f 549 687 688
f 549 688 550
f 550 688 689
f 550 689 690
f 550 690 551
f 551 690 691
f 551 691 552
f 552 691 692
f 552 692 553
f 553 692 554
f 554 692 693
f 554 693 694
f 554 694 555
f 555 694 695
f 555 695 556
f 556 695 696
f 556 696 661
f 556 661 659
f 557 642 568
f 561 611 562
f 562 611 644
f 562 644 697
f 562 697 563
f 563 697 639
f 563 639 564
f 568 642 641
f 568 641 569
f 569 641 698
f 569 698 699
f 569 699 570
f 570 699 700
f 570 700 571
f 571 700 701
f 571 701 573
f 571 573 572
f 573 701 702
f 573 702 703
f 573 703 704
f 573 704 574
f 574 704 705
f 574 705 706
f 574 706 575
f 575 706 707
f 575 707 576
f 576 707 577
f 577 707 708
f 577 708 578
f 578 708 709
f 578 709 579
f 579 709 710
f 579 710 580
f 580 710 581
f 581 710 711
f 581 711 712
f 581 712 713
f 581 713 582
f 582 713 583
f 583 713 712
f 583 712 714
f 583 714 715
f 583 715 584
f 584 715 585
f 585 715 716
f 585 716 587
f 587 646 589
f 587 716 717
f 587 717 646
f 589 646 590
f 592 593 594
f 596 718 597
f 597 719 727
f 597 727 598
f 597 718 720
f 597 720 721
f 597 721 722
f 597 722 723
f 597 723 724
f 597 724 725
f 597 725 726
f 597 726 822
f 597 822 719
f 598 727 599
f 599 727 728
f 599 728 619
f 599 619 729
f 599 729 600
f 600 729 730
f 600 730 601
f 601 730 602
f 602 730 618
f 602 618 613
f 602 613 612
f 602 612 603
f 603 612 604
f 606 610 731
f 606 731 608
f 606 608 607
f 608 731 732
f 608 732 733
f 608 733 734
f 608 734 620
f 609 645 646
f 609 646 717
f 609 717 735
f 609 735 736
f 609 736 610
f 610 736 820
f 610 820 731
f 613 618 617
f 614 616 737
f 615 619 738
f 615 738 739
f 615 739 616
f 616 739 737
f 618 730 729
f 618 729 619
f 619 728 738
f 620 734 740
f 620 740 621
f 621 740 622
f 622 740 741
f 622 741 742
f 622 742 623
f 623 742 624
f 624 742 625
f 625 742 743
f 625 743 744
f 625 744 745
f 625 745 626
f 626 745 746
f 626 746 627
f 627 747 748
f 627 748 628
f 627 746 749
f 627 749 747
f 628 748 750
f 628 750 751
f 628 751 629
f 629 751 630
f 630 751 750
f 630 750 752
f 630 752 632
f 631 632 633
f 632 752 753
f 632 753 754
f 632 754 633
f 633 755 634
f 633 754 755
f 634 755 635
f 635 755 756
f 635 756 637
f 637 756 758
f 637 758 759
f 637 759 757
f 638 757 760
f 638 760 761
f 638 761 640
f 640 761 641
f 641 761 698
f 643 697 644
f 647 649 648
f 649 762 650
f 650 762 763
f 650 763 651
f 654 764 655
f 655 764 765
f 655 765 766
f 655 766 656
f 656 767 657
f 656 766 768
f 656 768 767
f 657 767 665
f 658 664 770
f 658 770 769
f 659 661 660
f 661 696 805
f 661 805 771
f 661 771 772
f 661 772 662
f 662 772 663
f 663 773 664
f 663 772 774
f 663 774 773
f 664 773 770
f 665 767 775
f 665 775 666
f 666 775 776
f 666 776 777
f 666 777 667
f 667 777 668
f 668 777 778
f 668 778 779
f 668 779 669
f 669 779 670
f 670 779 780
f 670 780 671
f 671 780 859
f 671 859 781
f 671 781 672
f 672 781 782
f 672 782 783
f 672 783 673
f 673 783 782
f 673 782 784
f 673 784 674
f 674 784 785
f 674 785 675
f 675 785 786
f 675 786 676
f 676 786 787
f 676 787 677
f 677 787 788
f 677 788 789
f 677 789 678
f 678 789 790
f 678 790 679
f 679 791 681
f 679 681 680
f 679 790 789
f 679 789 792
f 679 792 793
f 679 793 791
f 681 791 682
f 682 791 794
f 682 794 795
f 682 795 683
f 683 795 684
f 684 796 686
f 684 686 685
f 684 795 797
f 684 797 796
f 686 796 798
f 686 798 688
f 686 688 687
f 688 798 689
f 689 798 799
f 689 799 800
f 689 800 801
f 689 801 691
f 689 691 690
f 691 801 692
f 692 801 800
f 692 800 875
f 692 875 802
f 692 802 803
f 692 803 693
f 693 803 804
f 693 804 695
f 693 695 694
f 695 804 805
f 695 805 696
f 698 806 699
f 698 761 760
f 698 760 807
f 698 807 806
f 699 806 808
f 699 808 809
f 699 809 700
f 700 809 701
f 701 809 702
f 702 809 810
f 702 810 811
f 702 811 703
f 703 705 704
f 703 811 812
f 703 812 813
f 703 813 705
f 705 813 749
f 705 749 814
f 705 814 706
f 706 814 707
f 707 814 746
f 707 746 708
f 708 746 815
f 708 815 709
f 709 815 816
f 709 816 817
f 709 817 710
f 710 817 711
f 711 817 818
f 711 818 819
f 711 819 712
f 712 819 714
f 714 819 732
f 714 732 820
f 714 820 715
f 715 820 735
f 715 735 716
f 716 735 717
f 719 821 727
f 719 822 821
f 724 823 824
f 724 824 725
f 725 824 726
f 726 824 825
f 726 825 882
f 726 882 822
f 727 821 728
f 728 821 826
f 728 826 827
f 728 827 828
f 728 828 829
f 728 829 739
f 728 739 738
f 731 820 732
f 732 819 830
f 732 830 733
f 733 830 831
f 733 831 734
f 734 831 740
f 735 820 736
f 737 832 833
f 737 739 832
f 739 829 832
f 740 831 741
f 741 743 742
f 741 831 834
f 741 834 835
f 741 835 743
f 743 835 744
f 744 835 817
f 744 817 816
f 744 816 745
f 745 816 815
f 745 815 746
f 746 814 749
f 747 836 837
f 747 837 748
f 747 749 836
f 748 837 750
f 749 813 836
f 750 837 838
f 750 838 752
f 752 838 753
f 753 838 839
f 753 839 754
f 754 839 840
f 754 840 807
f 754 807 841
f 754 841 755
f 755 841 759
f 755 759 758
f 755 758 756
f 757 759 760
f 759 841 760
f 760 841 807
f 764 842 765
f 765 842 766
f 766 842 843
f 766 843 768
f 767 768 775
f 768 843 844
f 768 844 845
f 768 845 775
f 769 770 847
f 769 847 846
f 770 773 848
f 770 848 849
f 770 849 847
f 771 805 850
f 771 850 851
f 771 851 772
f 772 851 774
f 773 774 848
f 774 851 900
f 774 900 852
f 774 852 848
f 775 845 853
f 775 853 776
f 776 853 854
f 776 854 777
f 777 854 855
f 777 855 856
f 777 856 778
f 778 857 779
f 778 856 858
f 778 858 857
f 779 857 859
f 779 859 780
f 781 859 906
f 781 906 860
f 781 860 782
f 782 860 861
f 782 861 862
f 782 862 863
f 782 863 784
f 784 863 785
f 785 863 864
f 785 864 865
f 785 865 786
f 786 865 866
f 786 866 787
f 787 866 788
f 788 866 789
f 791 793 867
f 791 867 794
f 794 867 868
f 794 868 795
f 795 868 869
f 795 869 870
f 795 870 797
f 796 797 871
f 796 871 872
f 796 872 798
f 797 870 871
f 798 872 873
f 798 873 874
f 798 874 799
f 799 874 875
f 799 875 800
f 802 875 876
f 802 876 877
f 802 877 878
f 802 878 803
f 803 878 879
f 803 879 804
f 804 879 880
f 804 880 805
f 805 880 850
f 806 807 840
f 806 840 808
f 808 840 810
f 808 810 809
f 810 840 811
f 811 840 839
f 811 839 881
f 811 881 812
f 812 881 837
f 812 837 836
f 812 836 813
f 817 835 834
f 817 834 818
f 818 834 819
f 819 834 830
f 821 822 826
f 822 882 883
f 822 883 826
f 823 884 885
f 823 885 886
f 823 886 887
f 823 887 824
f 824 888 889
f 824 889 825
f 824 887 888
f 825 889 925
f 825 925 882
f 826 883 827
f 827 890 828
f 827 883 891
f 827 891 890
f 828 890 892
f 828 892 829
f 829 833 832
f 830 834 831
f 837 881 838
f 838 881 839
f 846 847 894
f 846 894 893
f 847 849 894
f 848 895 849
f 848 852 896
f 848 896 897
f 848 897 895
f 849 898 894
f 849 895 939
f 849 939 898
f 850 880 899
f 850 899 851
f 851 899 945
f 851 945 900
f 852 900 901
f 852 901 902
f 852 902 903
f 852 903 896
f 856 904 858
f 857 858 905
f 857 905 859
f 858 904 905
f 859 905 906
f 860 906 907
f 860 907 861
f 861 908 862
f 862 908 863
f 867 909 868
f 868 909 869
f 869 910 870
f 870 910 911
f 870 911 912
f 870 912 913
f 870 913 871
f 871 913 872
f 872 914 915
f 872 915 873
f 872 913 916
f 872 916 914
f 873 915 875
f 873 875 874
f 875 915 914
f 875 914 876
f 876 914 917
f 876 917 877
f 877 917 918
f 877 918 919
f 877 919 920
f 877 920 921
f 877 921 878
f 878 921 879
f 879 921 922
f 879 922 923
f 879 923 880
f 880 923 945
f 880 945 899
f 882 924 891
f 882 891 883
f 882 925 924
f 884 926 927
f 884 927 928
f 884 928 885
f 885 928 929
f 885 929 930
f 885 930 886
f 886 930 888
f 886 888 887
f 888 930 931
f 888 931 889
f 889 931 957
f 889 957 925
f 890 932 933
f 890 933 934
f 890 934 892
f 890 891 932
f 891 924 935
f 891 935 932
f 892 934 936
f 893 894 938
f 893 938 937
f 894 898 938
f 895 897 940
f 895 940 939
f 896 941 897
f 896 903 941
f 897 941 942
f 897 942 940
f 898 943 944
f 898 944 938
f 898 939 972
f 898 972 943
f 900 945 946
f 900 946 901
f 901 946 947
f 901 947 902
f 902 947 948
f 902 948 949
f 902 949 903
f 903 950 941
f 903 949 951
f 903 951 950
f 905 907 906
f 910 912 911
f 912 952 919
f 912 919 916
f 912 916 913
f 914 916 917
f 916 919 917
f 917 919 918
f 919 952 920
f 920 952 921
f 921 953 922
f 921 952 953
f 922 953 954
f 922 954 923
f 923 954 955
f 923 955 956
f 923 956 945
f 924 925 957
f 924 957 958
f 924 958 959
f 924 959 935
f 926 960 927
f 927 961 962
f 927 962 963
f 927 963 930
f 927 930 929
f 927 929 928
f 927 960 964
f 927 964 965
f 927 965 961
f 930 963 966
f 930 966 931
f 931 966 957
f 932 935 933
f 933 935 967
f 933 967 934
f 934 967 936
f 935 968 967
f 935 959 958
f 935 958 968
f 936 967 969
f 937 938 944
f 937 944 971
f 937 971 970
f 939 940 973
f 939 973 972
f 940 942 974
f 940 974 975
f 940 975 973
f 941 950 976
f 941 976 942
f 942 976 974
f 943 977 978
f 943 978 944
f 943 972 979
f 943 979 977
f 944 978 971
f 945 956 947
f 945 947 946
f 947 956 980
f 947 980 948
f 948 980 952
f 948 952 949
f 949 952 951
f 950 951 976
f 951 981 982
f 951 982 983
f 951 983 984
f 951 984 985
f 951 985 986
f 951 986 976
f 952 980 956
f 952 956 987
f 952 987 988
f 952 988 954
f 952 954 953
f 954 988 987
f 954 987 989
f 954 989 955
f 955 989 987
f 955 987 956
f 957 966 958
f 958 966 963
f 958 963 990
f 958 990 968
f 961 991 992
f 961 992 962
f 961 965 993
f 961 993 991
f 962 992 990
f 962 990 963
f 965 994 993
f 967 968 969
f 968 995 996
f 968 996 997
f 968 997 969
f 968 990 995
f 969 997 998
f 970 971 1000
f 970 1000 999
f 971 978 1000
f 972 973 979
f 973 975 1001
f 973 1001 979
f 974 1002 1003
f 974 1003 975
f 974 976 1004
f 974 1004 985
f 974 985 1002
f 975 1003 1001
f 976 986 1004
f 977 1005 1006
f 977 1006 1000
f 977 1000 978
f 977 979 1005
f 979 1001 1007
f 979 1007 1008
f 979 1008 1005
f 981 1009 1010
f 981 1010 982
f 982 1010 1011
f 982 1011 1012
f 982 1012 1013
f 982 1013 1014
f 982 1014 983
f 983 1014 1002
f 983 1002 984
f 984 1002 985
f 985 1004 986
f 990 992 1015
f 990 1015 1016
f 990 1016 1017
f 990 1017 1018
f 990 1018 995
f 991 1019 1041
f 991 1041 1020
f 991 1020 992
f 991 993 1019
f 992 1020 1015
f 993 1021 1019
f 993 994 1021
f 994 1022 1021
f 995 1018 996
f 996 1024 997
f 996 1018 1025
f 996 1025 1023
f 997 1024 998
f 999 1000 1006
f 999 1006 1026
f 1001 1003 1014
f 1001 1014 1007
f 1002 1014 1003
f 1005 1027 1006
f 1005 1008 1030
f 1005 1030 1027
f 1006 1027 1028
f 1006 1028 1029
f 1006 1029 1026
f 1007 1014 1008
f 1008 1014 1013
f 1008 1013 1030
f 1009 1031 1032
f 1009 1032 1033
f 1009 1033 1011
f 1009 1011 1010
f 1011 1033 1034
f 1011 1034 1035
f 1011 1035 1012
f 1012 1035 1013
f 1013 1035 1030
f 1015 1020 1036
f 1015 1036 1016
f 1016 1037 1038
f 1016 1038 1017
f 1016 1036 1037
f 1017 1038 1039
f 1017 1039 1023
f 1017 1023 1018
f 1018 1023 1025
f 1019 1040 1064
f 1019 1064 1041
f 1019 1021 1042
f 1019 1042 1040
f 1020 1043 1044
f 1020 1044 1036
f 1020 1041 1043
f 1021 1045 1042
f 1021 1022 1045
f 1022 1046 1045
f 1027 1047 1028
f 1027 1030 1048
f 1027 1048 1047
f 1028 1049 1050
f 1028 1050 1051
f 1028 1051 1029
f 1028 1047 1049
f 1030 1035 1048
f 1031 1052 1032
f 1032 1052 1053
f 1032 1053 1054
f 1032 1054 1033
f 1033 1055 1056
f 1033 1056 1057
f 1033 1057 1034
f 1033 1054 1055
f 1034 1057 1058
f 1034 1058 1059
f 1034 1059 1048
f 1034 1048 1035
f 1036 1044 1037
f 1037 1044 1038
f 1038 1060 1061
f 1038 1061 1062
f 1038 1062 1039
f 1038 1044 1060
f 1040 1042 1063
f 1040 1063 1086
f 1040 1086 1064
f 1041 1064 1065
f 1041 1065 1043
f 1042 1045 1066
f 1042 1066 1063
f 1043 1065 1067
f 1043 1067 1044
f 1044 1067 1068
f 1044 1068 1060
f 1045 1046 1066
f 1046 1069 1066
f 1047 1070 1071
f 1047 1071 1049
f 1047 1048 1059
f 1047 1059 1070
f 1049 1071 1072
f 1049 1072 1050
f 1052 1073 1053
f 1053 1073 1074
f 1053 1074 1075
f 1053 1075 1054
f 1054 1075 1055
f 1055 1076 1077
f 1055 1077 1056
f 1055 1075 1076
f 1056 1077 1078
f 1056 1078 1079
f 1056 1079 1057
f 1057 1079 1058
f 1058 1080 1081
f 1058 1081 1082
f 1058 1082 1070
f 1058 1070 1059
f 1058 1079 1080
f 1060 1074 1061
f 1060 1068 1067
f 1060 1067 1074
f 1061 1083 1084
f 1061 1084 1085
f 1061 1085 1062
f 1061 1074 1083
f 1063 1081 1080
f 1063 1080 1079
f 1063 1079 1086
f 1063 1066 1081
f 1064 1086 1065
f 1065 1078 1067
f 1065 1086 1078
f 1066 1069 1087
f 1066 1087 1081
f 1067 1078 1077
f 1067 1077 1076
f 1067 1076 1075
f 1067 1075 1074
f 1070 1082 1071
f 1071 1088 1089
f 1071 1089 1090
f 1071 1090 1072
f 1071 1082 1088
f 1073 1083 1074
f 1078 1086 1079
f 1081 1087 1088
f 1081 1088 1082
f 1087 1089 1088

