# https://github.com/mikedh/trimesh
v -0.07979970 -0.07389655 -0.14625851
v -0.07978407 -0.07389655 -0.15254532
v -0.07962785 -0.07705239 -0.15254532
v -0.07979970 -0.07389655 -0.14293665
v -0.07978407 0.06850715 -0.15254346
v -0.07920603 -0.05188373 -0.15511060
v -0.07920603 -0.07389655 -0.15511060
v -0.07912792 -0.07705239 -0.15498234
v -0.07889358 -0.07889591 -0.15460498
v -0.07903419 -0.07903651 -0.15254532
v -0.07962785 -0.07705239 -0.14293665
v -0.07390994 0.06850715 -0.14000516
v -0.07705010 0.06850715 -0.14089558
v -0.07895607 0.06850715 -0.14408545
v -0.07925290 0.06850715 -0.14544617
v -0.07973720 0.06850715 -0.14851893
v -0.07978407 0.06850715 -0.14940377
v -0.06259911 0.07977134 -0.15254346
v -0.07920603 0.06850715 -0.15510131
v -0.07798746 -0.06761610 -0.15668324
v -0.07873735 0.03808916 -0.15570917
v -0.07798746 0.05816472 -0.15667579
v -0.07798746 -0.07074070 -0.15668324
v -0.07787810 -0.07389655 -0.15668324
v -0.07597213 -0.07597440 -0.15752532
v -0.07705010 -0.07911463 -0.15498048
v -0.07705010 -0.07961457 -0.15254532
v -0.07903419 -0.07903651 -0.14293665
v -0.06425511 -0.01759123 -0.14028771
v -0.06434885 -0.01726315 -0.14028771
v -0.06512999 -0.01412292 -0.14028771
v -0.06573927 -0.01102957 -0.14028771
v -0.06608297 -0.00895171 -0.14028771
v 0.06717860 -0.00154641 -0.14293665
v 0.06717860 -0.00014034 -0.14293665
v 0.07961427 0.07702169 -0.14331959
v 0.07902060 0.07902144 -0.14331959
v 0.07717713 0.07956824 -0.14331959
v 0.07705214 0.07959948 -0.14331959
v 0.07389636 0.07977134 -0.14331959
v -0.06259911 0.07919329 -0.14697976
v -0.06331775 -0.02070021 -0.14028771
v -0.06289594 -0.02199692 -0.14028771
v -0.06261473 -0.02274682 -0.14028771
v -0.06259911 0.07977134 -0.14940377
v 0.06192938 0.07980258 -0.14940377
v 0.07389636 0.07977134 -0.15254159
v 0.06192938 0.07967760 -0.15305652
v -0.00206117 0.07930265 -0.15469607
v -0.06259911 0.07919329 -0.15510131
v -0.07833116 0.06850715 -0.15622966
v -0.07640957 0.06850715 -0.15786178
v -0.07798746 0.06850715 -0.15667208
v -0.07640957 -0.06446025 -0.15786178
v -0.07640957 -0.06761610 -0.15785992
v -0.07640957 -0.07074070 -0.15785621
v -0.07631583 -0.07389655 -0.15775396
v -0.07390994 -0.07630248 -0.15775953
v -0.07390994 -0.07788041 -0.15668137
v -0.07390994 -0.07389655 -0.15848451
v -0.07390994 -0.07919274 -0.15510689
v -0.07390994 -0.07977080 -0.15254532
v -0.07390994 -0.07978641 -0.14311324
v -0.07705010 -0.07961457 -0.14293665
v 0.06706924 -0.00468663 -0.14293665
v 0.07978611 -0.07391217 -0.14332144
v 0.07978611 0.07388146 -0.14331959
v 0.07961427 0.07702169 -0.15254159
v 0.07902060 0.07902144 -0.15254159
v 0.07705214 0.07959948 -0.15254159
v -0.07390994 -0.07978641 -0.14293665
v 0.07705214 -0.07961457 -0.14332144
v 0.07889562 -0.07906776 -0.14332144
v 0.07902060 -0.07902089 -0.14332144
v 0.07906747 -0.07891153 -0.14332144
v 0.07961427 -0.07705239 -0.14332144
v 0.07705214 0.07911517 -0.15498048
v 0.07389636 0.07919329 -0.15510874
v 0.06192938 0.07920891 -0.15511060
v 0.04558804 0.07920891 -0.15511060
v 0.00471908 0.07920891 -0.15510689
v -0.00206117 0.07920891 -0.15510502
v -0.06259911 0.07847463 -0.15603075
v -0.06259911 0.07795907 -0.15667208
v -0.06259911 0.07639677 -0.15785621
v -0.07390994 0.06850715 -0.15872802
v -0.07390994 0.06760101 -0.15872989
v -0.07390994 -0.03930721 -0.15872616
v -0.07390994 -0.06761610 -0.15872245
v -0.07390994 0.06444517 -0.15872989
v -0.07390994 -0.07074070 -0.15871874
v -0.07076978 -0.07641185 -0.15786178
v -0.07076978 -0.07389655 -0.15872616
v -0.07076978 -0.07797415 -0.15668137
v -0.07076978 -0.07074070 -0.15898641
v 0.06194500 -0.07920837 -0.15510874
v -0.06261473 -0.07870843 -0.15575006
v -0.06261473 -0.07977080 -0.15254532
v 0.06761604 -0.07980204 -0.14940377
v 0.07962989 -0.07681805 -0.14332144
v 0.07978611 -0.07391217 -0.15254159
v 0.07980174 0.04871280 -0.14940377
v 0.07980174 0.06760101 -0.14940377
v 0.07978611 0.07388146 -0.15254159
v 0.07911434 0.07702169 -0.15498048
v 0.07889562 0.07886521 -0.15460498
v 0.07389636 -0.07975517 -0.14332144
v 0.07389636 -0.07977080 -0.14940377
v 0.07705214 -0.07961457 -0.15254159
v 0.07902060 -0.07902089 -0.15254159
v 0.07961427 -0.07705239 -0.15254159
v 0.07595856 0.07595932 -0.15752532
v 0.07389636 0.07786533 -0.15668324
v 0.07075620 0.07795907 -0.15668324
v 0.06192938 0.07799032 -0.15668137
v 0.05816431 0.07799032 -0.15668137
v -0.00206117 0.07799032 -0.15667951
v -0.05816226 0.07639677 -0.15785807
v -0.06259911 0.07389709 -0.15872245
v -0.07076978 0.06850715 -0.15899012
v -0.07076978 0.00006276 -0.15899012
v -0.06761399 -0.07641185 -0.15786735
v -0.06761399 -0.07389655 -0.15872989
v 0.06194500 -0.07798977 -0.15667951
v -0.06259911 -0.07074070 -0.15898827
v -0.06261473 -0.07261546 -0.15883585
v -0.06261473 -0.03749494 -0.15899012
v 0.07389636 -0.07920837 -0.15510874
v 0.07389636 -0.07977080 -0.15254159
v 0.07911434 -0.07705239 -0.15498048
v 0.07919245 -0.07391217 -0.15510874
v 0.07919245 0.07388146 -0.15510874
v 0.07786453 0.07388146 -0.15668137
v 0.07705214 -0.07911463 -0.15498048
v 0.07889562 -0.07889591 -0.15460498
v 0.07630226 0.07388146 -0.15775211
v 0.07389636 0.07388146 -0.15848451
v 0.07389636 0.07628741 -0.15775582
v 0.07075620 0.07638114 -0.15786178
v 0.06192938 0.07767785 -0.15691931
v 0.06761604 0.07639677 -0.15786363
v -0.00206117 0.07641239 -0.15786363
v 0.02041988 0.07391271 -0.15872802
v -0.06259911 0.07075687 -0.15899200
v -0.06850449 0.06850715 -0.15899200
v -0.06259911 0.06260166 -0.15899385
v 0.06194500 -0.07391217 -0.15872616
v -0.06261473 -0.07641185 -0.15786735
v 0.07075620 -0.07075632 -0.15899385
v -0.06261473 -0.07389655 -0.15872989
v 0.06761604 -0.07798977 -0.15667951
v -0.05816226 0.05814910 -0.15899385
v -0.01413752 0.01410785 -0.15899385
v 0.07075620 -0.07795853 -0.15667951
v 0.07389636 -0.07788041 -0.15667951
v 0.07597418 -0.07595878 -0.15752532
v 0.07788015 -0.07391217 -0.15667951
v 0.07798951 -0.07075632 -0.15667951
v 0.07798951 0.06760101 -0.15668137
v 0.07797388 0.07074124 -0.15668137
v 0.07641161 0.07074124 -0.15785433
v 0.07389636 0.07074124 -0.15871874
v 0.07075620 0.07074124 -0.15898641
v 0.07075620 0.07388146 -0.15872616
v 0.06192938 0.07641239 -0.15786549
v 0.03929209 0.07641239 -0.15786549
v 0.06192938 0.07391271 -0.15872802
v -0.02671378 0.07075687 -0.15899200
v 0.02041988 0.07075687 -0.15899012
v 0.02671583 0.06447642 -0.15899012
v 0.01413956 -0.01410730 -0.15899385
v 0.06761604 -0.07391217 -0.15872616
v 0.06761604 -0.07641185 -0.15785807
v 0.06192938 -0.06189808 -0.15899385
v 0.06192938 0.02923092 -0.15899012
v 0.07389636 -0.06444463 -0.15873175
v 0.07389636 -0.06761610 -0.15873175
v 0.07389636 -0.07075632 -0.15872802
v 0.07389636 -0.07391217 -0.15848451
v 0.07075620 -0.07391217 -0.15871874
v 0.07075620 -0.07641185 -0.15785433
v 0.07389636 -0.07631811 -0.15775396
v 0.07630226 -0.07391217 -0.15776140
v 0.07641161 -0.07075632 -0.15786363
v 0.07641161 -0.06761610 -0.15786549
v 0.07641161 0.03833913 -0.15786178
v 0.07641161 0.06760101 -0.15785621
v 0.07641161 -0.05503958 -0.15786549
v 0.07389636 0.06128932 -0.15872059
v 0.06192938 0.07075687 -0.15898641
v 0.06761604 0.07388146 -0.15872802
v 0.07389636 -0.04243181 -0.15872989
f 1 2 3
f 1 3 11
f 1 11 4
f 1 4 17
f 1 17 5
f 1 5 2
f 2 5 6
f 2 6 7
f 2 7 8
f 2 8 3
f 3 8 9
f 3 9 10
f 3 10 28
f 3 28 11
f 4 11 12
f 4 12 13
f 4 13 14
f 4 14 15
f 4 15 16
f 4 16 17
f 5 17 45
f 5 45 18
f 5 18 19
f 5 19 6
f 6 20 23
f 6 23 7
f 6 19 21
f 6 21 22
f 6 22 20
f 7 23 24
f 7 24 8
f 8 24 25
f 8 25 9
f 9 26 27
f 9 27 10
f 9 25 26
f 10 27 64
f 10 64 28
f 11 28 29
f 11 29 30
f 11 30 31
f 11 31 32
f 11 32 33
f 11 33 12
f 12 34 35
f 12 35 36
f 12 36 37
f 12 37 38
f 12 38 39
f 12 39 40
f 12 40 41
f 12 41 13
f 12 33 32
f 12 32 31
f 12 31 30
f 12 30 29
f 12 29 42
f 12 42 43
f 12 43 44
f 12 44 34
f 13 41 14
f 14 41 45
f 14 45 15
f 15 45 16
f 16 45 17
f 18 45 46
f 18 46 47
f 18 47 48
f 18 48 49
f 18 49 50
f 18 50 19
f 19 50 51
f 19 51 22
f 19 22 21
f 20 22 52
f 20 52 54
f 20 54 23
f 22 51 53
f 22 53 52
f 23 54 55
f 23 55 56
f 23 56 24
f 24 56 57
f 24 57 25
f 25 58 59
f 25 59 26
f 25 57 60
f 25 60 58
f 26 61 62
f 26 62 27
f 26 59 61
f 27 62 63
f 27 63 71
f 27 71 64
f 28 64 44
f 28 44 43
f 28 43 42
f 28 42 29
f 34 44 65
f 34 65 66
f 34 66 67
f 34 67 35
f 35 67 36
f 36 68 69
f 36 69 37
f 36 67 104
f 36 104 68
f 37 69 38
f 38 69 70
f 38 70 39
f 39 70 47
f 39 47 40
f 40 47 46
f 40 46 45
f 40 45 41
f 44 64 71
f 44 71 72
f 44 72 73
f 44 73 74
f 44 74 75
f 44 75 76
f 44 76 65
f 47 70 77
f 47 77 78
f 47 78 48
f 48 78 79
f 48 79 80
f 48 80 49
f 49 80 81
f 49 81 82
f 49 82 50
f 50 82 83
f 50 83 53
f 50 53 51
f 52 53 84
f 52 84 85
f 52 85 86
f 52 86 87
f 52 87 90
f 52 90 54
f 53 83 84
f 54 88 89
f 54 89 55
f 54 90 88
f 55 89 91
f 55 91 56
f 56 91 57
f 57 91 60
f 58 92 59
f 58 60 93
f 58 93 92
f 59 92 94
f 59 94 61
f 60 91 95
f 60 95 93
f 61 96 62
f 61 94 97
f 61 97 96
f 62 98 99
f 62 99 63
f 62 96 128
f 62 128 98
f 63 99 71
f 65 76 100
f 65 100 66
f 66 100 101
f 66 101 102
f 66 102 67
f 67 102 103
f 67 103 104
f 68 104 105
f 68 105 106
f 68 106 69
f 69 106 70
f 70 106 77
f 71 99 107
f 71 107 72
f 72 107 108
f 72 108 129
f 72 129 109
f 72 109 73
f 73 109 110
f 73 110 74
f 74 110 75
f 75 110 111
f 75 111 76
f 76 111 100
f 77 106 112
f 77 112 113
f 77 113 78
f 78 113 114
f 78 114 115
f 78 115 79
f 79 115 116
f 79 116 80
f 80 116 117
f 80 117 81
f 81 117 82
f 82 117 83
f 83 117 84
f 84 117 85
f 85 118 119
f 85 119 86
f 85 117 118
f 86 120 87
f 86 119 120
f 87 120 121
f 87 121 90
f 88 95 89
f 88 90 121
f 88 121 95
f 89 95 91
f 92 122 94
f 92 93 122
f 93 95 123
f 93 123 122
f 94 124 97
f 94 122 124
f 95 125 126
f 95 126 123
f 95 121 127
f 95 127 125
f 96 97 124
f 96 124 151
f 96 151 128
f 98 129 99
f 98 128 129
f 99 129 108
f 99 108 107
f 100 111 101
f 101 111 130
f 101 130 131
f 101 131 132
f 101 132 104
f 101 104 103
f 101 103 102
f 104 132 105
f 105 132 133
f 105 133 112
f 105 112 106
f 109 129 134
f 109 134 135
f 109 135 110
f 110 135 111
f 111 135 130
f 112 133 136
f 112 136 137
f 112 137 138
f 112 138 113
f 113 138 139
f 113 139 114
f 114 140 115
f 114 139 141
f 114 141 140
f 115 140 116
f 116 140 117
f 117 140 142
f 117 142 118
f 118 142 119
f 119 142 143
f 119 143 144
f 119 144 120
f 120 144 145
f 120 145 121
f 121 145 146
f 121 146 127
f 122 123 147
f 122 147 172
f 122 172 148
f 122 148 151
f 122 151 124
f 123 126 149
f 123 149 150
f 123 150 172
f 123 172 147
f 125 149 126
f 125 127 149
f 127 146 152
f 127 152 153
f 127 153 149
f 128 134 129
f 128 151 154
f 128 154 155
f 128 155 134
f 130 156 157
f 130 157 131
f 130 135 156
f 131 157 158
f 131 158 159
f 131 159 132
f 132 159 160
f 132 160 133
f 133 160 161
f 133 161 136
f 134 155 156
f 134 156 135
f 136 161 162
f 136 162 137
f 137 162 163
f 137 163 164
f 137 164 138
f 138 164 139
f 139 164 141
f 140 165 166
f 140 166 142
f 140 141 165
f 141 164 167
f 141 167 165
f 142 166 143
f 143 166 165
f 143 165 167
f 143 167 168
f 143 168 144
f 144 168 146
f 144 146 145
f 146 168 169
f 146 169 170
f 146 170 171
f 146 171 174
f 146 174 149
f 146 149 153
f 146 153 152
f 148 172 173
f 148 173 151
f 149 174 175
f 149 175 163
f 149 163 176
f 149 176 177
f 149 177 178
f 149 178 179
f 149 179 180
f 149 180 172
f 149 172 150
f 151 173 181
f 151 181 154
f 154 181 155
f 155 181 182
f 155 182 156
f 156 182 179
f 156 179 183
f 156 183 157
f 157 183 184
f 157 184 158
f 158 184 185
f 158 185 159
f 159 186 187
f 159 187 161
f 159 161 160
f 159 185 188
f 159 188 186
f 161 187 162
f 162 187 189
f 162 189 163
f 163 169 190
f 163 190 167
f 163 167 191
f 163 191 164
f 163 189 192
f 163 192 176
f 163 175 170
f 163 170 169
f 164 191 167
f 167 190 169
f 167 169 168
f 170 175 174
f 170 174 171
f 172 181 173
f 172 180 181
f 176 192 186
f 176 186 188
f 176 188 185
f 176 185 177
f 177 185 184
f 177 184 178
f 178 184 183
f 178 183 179
f 179 182 180
f 180 182 181
f 186 189 187
f 186 192 189

