# https://github.com/mikedh/trimesh
v -0.06760064 0.07979968 0.15254720
v -0.07389657 0.07978795 0.14626176
v -0.07389657 0.07979186 0.15254720
v -0.07389657 0.07975081 0.15569116
v -0.07074079 0.07975472 0.15569116
v 0.07390954 0.07975472 0.15568992
v 0.07390954 0.07979381 0.15254720
v 0.07390954 0.07979773 0.14940199
v 0.07389392 0.07979577 0.14626052
v -0.07705235 0.07962376 0.14626176
v -0.07703673 0.07962376 0.15254720
v -0.07703673 0.07958662 0.15569116
v -0.07703673 0.07909014 0.15780126
v -0.07389657 0.07917028 0.15789468
v -0.06760064 0.07917028 0.15789717
v 0.01729297 0.07917419 0.15789841
v 0.03702441 0.07933447 0.15729180
v 0.07390954 0.07917419 0.15789841
v 0.07704970 0.07909210 0.15780375
v 0.07704970 0.07959248 0.15568992
v 0.07704970 0.07962767 0.15254720
v 0.07704970 0.07962767 0.14626052
v 0.07075376 0.07947716 0.14626052
v 0.06844161 0.07889467 0.14626052
v -0.07902080 0.07904518 0.14626176
v -0.07902080 0.07904518 0.15254720
v -0.07900518 0.07902564 0.15569116
v -0.07886458 0.07888099 0.15756085
v -0.07703673 0.07705534 0.15854988
v -0.07389657 0.07705534 0.15875291
v -0.05188422 0.07705534 0.15875666
v -0.07074079 0.07705534 0.15875417
v 0.03702441 0.07705729 0.15875666
v 0.05189720 0.07705729 0.15875666
v 0.07390954 0.07705729 0.15875541
v 0.07704970 0.07705729 0.15854988
v 0.07887755 0.07888294 0.15756085
v 0.07901816 0.07902759 0.15568992
v 0.07903377 0.07904713 0.15254720
v 0.07904941 0.07904322 0.14626052
v 0.06728553 0.07716089 0.14626052
v -0.07961447 0.07705534 0.14626176
v -0.07961447 0.07705534 0.15254720
v -0.07958322 0.07705534 0.15569116
v -0.07906767 0.07705534 0.15780375
v -0.07703673 0.07391226 0.15875417
v -0.07389657 0.07391226 0.15897962
v -0.06760064 0.07391226 0.15898461
v -0.03930797 0.07391226 0.15898585
v 0.07390954 0.07391226 0.15897962
v 0.07704970 0.07391226 0.15875417
v 0.07908064 0.07705729 0.15780375
v 0.07958058 0.07705729 0.15568992
v 0.07962745 0.07705729 0.15254720
v 0.07962745 0.07705729 0.14940199
v 0.07962745 0.07705143 0.14626052
v 0.06692621 0.07418786 0.14626052
v -0.07977069 0.07391226 0.14626176
v -0.07978633 0.07391226 0.15254720
v 0.06691058 0.07391226 0.14626052
v -0.07975508 0.07391226 0.15569116
v -0.07916141 0.07391226 0.15789967
v -0.07703673 0.05983092 0.15875417
v -0.07539635 0.05983092 0.15886875
v -0.07389657 0.05983092 0.15897340
v 0.07390954 0.05983092 0.15898336
v 0.07390954 0.06762413 0.15898461
v 0.07704970 0.07076722 0.15875541
v 0.07915876 0.07391226 0.15789592
v 0.07975242 0.07391226 0.15568992
v 0.07978367 0.07391226 0.15254720
v 0.07978367 0.07390639 0.14626052
v -0.07945825 0.07076722 0.14626176
v -0.07919266 0.05983092 0.14956392
v -0.07950512 0.05983092 0.15112221
v -0.07978633 0.05983092 0.15254720
v 0.06734802 0.07082195 0.14626052
v -0.07975508 0.05983092 0.15569116
v -0.07916141 0.05983092 0.15789967
v 0.07704970 0.05983092 0.15875541
v 0.07815891 0.05983092 0.15830699
v 0.07915876 0.06447909 0.15789717
v 0.07947121 0.05983092 0.15674371
v 0.07975242 0.05983092 0.15568992
v 0.07978367 0.05983092 0.15254720
v 0.07948684 0.05983092 0.15098892
v 0.07920563 0.05983092 0.14956392
v 0.07947121 0.07076135 0.14626052
v -0.07888021 0.06846463 0.14626176
v -0.07850526 0.05983092 0.14881156
v 0.06737927 0.07070858 0.14626052
v 0.07915876 0.05983092 0.15789717
v 0.07889317 0.06845877 0.14626052
v 0.07844012 0.05983092 0.14874306
v -0.07884896 0.06843336 0.14626176
v -0.07773975 0.05983092 0.14798945
v 0.06850410 0.06852718 0.14626052
v 0.07773710 0.05983092 0.14799194
v 0.07714344 0.06730162 0.14626052
v -0.07727107 0.06732311 0.14626176
v -0.07616186 0.05983092 0.14777894
v 0.07070689 0.06738762 0.14626052
v 0.07690910 0.05983092 0.14787859
v 0.07615921 0.05983092 0.14777645
v 0.07417513 0.06694000 0.14626052
v 0.07081625 0.06736221 0.14626052
v -0.07714609 0.06730357 0.14626176
v -0.07389657 0.06691655 0.14626176
v -0.07389657 0.05983092 0.14772662
v 0.07498751 0.05983092 0.14774905
v 0.07390954 0.05983092 0.14772413
v 0.07390954 0.06691655 0.14626052
v -0.00011069 0.05983092 0.14766932
v -0.02845021 0.05983092 0.14767306
v 0.02722899 0.05983092 0.14766932
f 1 2 3
f 1 3 4
f 1 4 5
f 1 5 6
f 1 6 7
f 1 7 8
f 1 8 9
f 1 9 2
f 2 10 3
f 2 9 10
f 3 10 11
f 3 11 12
f 3 12 4
f 4 12 13
f 4 13 14
f 4 14 5
f 5 14 15
f 5 15 16
f 5 16 17
f 5 17 6
f 6 17 18
f 6 18 19
f 6 19 20
f 6 20 7
f 7 20 21
f 7 21 8
f 8 21 22
f 8 22 9
f 9 22 40
f 9 40 56
f 9 56 72
f 9 72 88
f 9 88 93
f 9 93 99
f 9 99 105
f 9 105 112
f 9 112 106
f 9 106 102
f 9 102 97
f 9 97 91
f 9 91 77
f 9 77 60
f 9 60 57
f 9 57 41
f 9 41 24
f 9 24 23
f 9 23 10
f 10 23 24
f 10 24 25
f 10 25 26
f 10 26 11
f 11 26 27
f 11 27 12
f 12 27 28
f 12 28 13
f 13 29 30
f 13 30 14
f 13 28 29
f 14 30 15
f 15 31 16
f 15 30 32
f 15 32 31
f 16 31 33
f 16 33 34
f 16 34 18
f 16 18 17
f 18 34 35
f 18 35 19
f 19 35 36
f 19 36 37
f 19 37 20
f 20 37 38
f 20 38 21
f 21 38 39
f 21 39 40
f 21 40 22
f 24 41 25
f 25 42 43
f 25 43 26
f 25 41 42
f 26 43 27
f 27 43 44
f 27 44 28
f 28 44 45
f 28 45 29
f 29 46 47
f 29 47 30
f 29 45 46
f 30 47 48
f 30 48 32
f 31 32 48
f 31 48 49
f 31 49 33
f 33 49 34
f 34 49 50
f 34 50 35
f 35 50 36
f 36 50 51
f 36 51 52
f 36 52 37
f 37 52 53
f 37 53 38
f 38 53 54
f 38 54 39
f 39 54 40
f 40 54 55
f 40 55 56
f 41 57 42
f 42 58 59
f 42 59 43
f 42 57 60
f 42 60 58
f 43 59 61
f 43 61 44
f 44 61 45
f 45 61 62
f 45 62 46
f 46 63 47
f 46 62 79
f 46 79 63
f 47 63 64
f 47 64 65
f 47 65 48
f 48 65 66
f 48 66 49
f 49 66 67
f 49 67 50
f 50 67 51
f 51 67 68
f 51 68 69
f 51 69 52
f 52 69 70
f 52 70 53
f 53 70 54
f 54 70 71
f 54 71 55
f 55 71 72
f 55 72 56
f 58 60 73
f 58 73 74
f 58 74 75
f 58 75 76
f 58 76 59
f 59 76 78
f 59 78 61
f 60 77 73
f 61 78 79
f 61 79 62
f 63 79 78
f 63 78 76
f 63 76 75
f 63 75 74
f 63 74 90
f 63 90 96
f 63 96 101
f 63 101 109
f 63 109 114
f 63 114 113
f 63 113 115
f 63 115 111
f 63 111 110
f 63 110 104
f 63 104 103
f 63 103 98
f 63 98 94
f 63 94 87
f 63 87 86
f 63 86 85
f 63 85 84
f 63 84 83
f 63 83 92
f 63 92 81
f 63 81 80
f 63 80 66
f 63 66 65
f 63 65 64
f 66 80 67
f 67 80 68
f 68 80 81
f 68 81 69
f 69 81 82
f 69 82 83
f 69 83 70
f 70 84 85
f 70 85 71
f 70 83 84
f 71 85 72
f 72 85 86
f 72 86 87
f 72 87 88
f 73 77 89
f 73 89 74
f 74 89 90
f 77 91 89
f 81 92 82
f 82 92 83
f 87 93 88
f 87 94 93
f 89 95 96
f 89 96 90
f 89 91 97
f 89 97 95
f 93 94 98
f 93 98 99
f 95 100 96
f 95 97 100
f 96 100 101
f 97 102 100
f 98 103 99
f 99 103 104
f 99 104 105
f 100 102 106
f 100 106 107
f 100 107 101
f 101 108 109
f 101 107 108
f 104 110 105
f 105 110 111
f 105 111 112
f 106 112 107
f 107 112 108
f 108 113 114
f 108 114 109
f 108 112 113
f 111 115 112
f 112 115 113

