# https://github.com/mikedh/trimesh
v 0.03516639 -0.05873096 0.00955349
v 0.03515934 -0.05873096 0.00818050
v 0.03515934 -0.05873096 0.01102983
v 0.00207181 -0.07979824 0.15252192
v 0.03421479 -0.05930843 0.00818050
v 0.00207181 -0.05873096 0.00818050
v 0.03513820 -0.05873096 0.01417442
v 0.03499017 -0.05873096 0.03138851
v 0.03496902 -0.05873096 0.03304200
v 0.00207181 -0.07979206 0.15302387
v -0.03684515 -0.07980031 0.15252192
v 0.00156429 -0.06791477 0.00818050
v 0.00186740 -0.06790858 0.00818050
v 0.00471515 -0.06783640 0.00818050
v 0.00785896 -0.06763841 0.00818050
v 0.00816206 -0.06760335 0.00818050
v 0.01100277 -0.06727131 0.00818050
v 0.01131292 -0.06722181 0.00818050
v 0.01415362 -0.06673921 0.00818050
v 0.01653615 -0.06624423 0.00818050
v 0.01810806 -0.06586888 0.00818050
v 0.02044124 -0.06522541 0.00818050
v 0.02358505 -0.06420866 0.00818050
v 0.02605921 -0.06327852 0.00818050
v 0.02748309 -0.06268456 0.00818050
v 0.02763112 -0.06262268 0.00818050
v 0.02987267 -0.06158324 0.00818050
v 0.03011938 -0.06145950 0.00818050
v 0.03243847 -0.06029425 0.00818050
v 0.03385530 -0.05951673 0.00818050
v 0.03400332 -0.05943423 0.00818050
v 0.03511705 -0.05873096 0.01730426
v 0.03508885 -0.05873096 0.02046362
v 0.03500427 -0.05873096 0.02989741
v -0.03279909 -0.05873302 0.00818050
v -0.03283433 -0.05873302 0.01102983
v -0.03290482 -0.05873302 0.01731902
v -0.03291187 -0.05873302 0.02046362
v 0.00207181 -0.05873096 0.14766477
v 0.03494083 -0.05873096 0.03448882
v 0.00207181 -0.07975700 0.15566650
v -0.02044237 -0.07975700 0.15566650
v -0.03684515 -0.07975494 0.15566650
v -0.03684515 -0.07921459 0.14953971
v -0.02645508 -0.06674127 0.00818050
v -0.02358617 -0.06749610 0.00818050
v -0.02044237 -0.06760747 0.00818050
v -0.01729856 -0.06768378 0.00818050
v -0.01415475 -0.06775390 0.00818050
v -0.01100389 -0.06781165 0.00818050
v -0.01070784 -0.06781577 0.00818050
v -0.00786008 -0.06785084 0.00818050
v -0.00157247 -0.06790858 0.00818050
v -0.03684515 -0.07889905 0.14920015
v -0.03684515 -0.07774411 0.14797479
v -0.03684515 -0.07740794 0.14791574
v -0.03684515 -0.07617257 0.14775335
v -0.03684515 -0.07568791 0.14773858
v -0.03684515 -0.07391219 0.14769429
v -0.03684515 -0.07200861 0.14775335
v -0.03684515 -0.07167038 0.14788621
v -0.03684515 -0.07043501 0.14838817
v -0.03684515 -0.06886759 0.14998261
v -0.03684515 -0.06853967 0.15252192
v -0.03291187 -0.05873302 0.02065555
v -0.03285548 -0.05873302 0.03304200
v -0.03282728 -0.05873302 0.03618660
v -0.03172060 -0.05873302 0.14310289
v -0.03098752 -0.05873302 0.14629177
v -0.02922529 -0.05873302 0.14801909
v -0.02672998 -0.05873302 0.14827006
v -0.02358617 -0.05873302 0.14841770
v -0.01729856 -0.05873302 0.14847675
v 0.02948498 -0.05873096 0.14766477
v -0.03290482 -0.05873302 0.02360822
v 0.03489853 -0.05873096 0.03618660
v 0.00207181 -0.07966419 0.15602083
v -0.03684515 -0.07929708 0.15742335
v 0.03321384 -0.05873096 0.09591918
v 0.03159965 -0.05873096 0.14308812
v 0.03138113 -0.05873096 0.14412156
v 0.03088066 -0.05873096 0.14630654
v -0.03684515 -0.06854380 0.15320102
v -0.03684515 -0.06856442 0.15566650
v -0.03684515 -0.06863454 0.15610941
v -0.03684515 -0.06889440 0.15765957
v -0.02044237 -0.06889234 0.15765957
v 0.00207181 -0.05873302 0.14847675
v 0.00207181 -0.06889234 0.15765957
v 0.00207181 -0.07076705 0.15853061
v 0.00207181 -0.07340690 0.15889969
v 0.00207181 -0.07391219 0.15895874
v 0.00207181 -0.07705733 0.15875205
v 0.00207181 -0.07917334 0.15788101
v 0.02868140 -0.05972297 0.14766477
v -0.02672998 -0.07917334 0.15788101
v -0.03684515 -0.07917128 0.15788101
v -0.03684515 -0.06929245 0.15785149
v -0.03684515 -0.07076705 0.15853061
v -0.03301760 -0.07391219 0.15898827
v -0.03684515 -0.07705733 0.15875205
v -0.03684515 -0.07391219 0.15898827
f 1 2 6
f 1 6 39
f 1 39 74
f 1 74 82
f 1 82 81
f 1 81 80
f 1 80 79
f 1 79 76
f 1 76 40
f 1 40 9
f 1 9 8
f 1 8 34
f 1 34 33
f 1 33 32
f 1 32 7
f 1 7 3
f 1 3 4
f 1 4 2
f 2 4 5
f 2 5 31
f 2 31 30
f 2 30 29
f 2 29 28
f 2 28 27
f 2 27 26
f 2 26 25
f 2 25 24
f 2 24 23
f 2 23 22
f 2 22 21
f 2 21 20
f 2 20 19
f 2 19 18
f 2 18 17
f 2 17 16
f 2 16 15
f 2 15 14
f 2 14 13
f 2 13 12
f 2 12 53
f 2 53 52
f 2 52 51
f 2 51 50
f 2 50 49
f 2 49 48
f 2 48 47
f 2 47 46
f 2 46 45
f 2 45 35
f 2 35 6
f 3 7 4
f 4 8 9
f 4 9 10
f 4 10 11
f 4 11 12
f 4 12 13
f 4 13 14
f 4 14 15
f 4 15 16
f 4 16 17
f 4 17 18
f 4 18 19
f 4 19 20
f 4 20 21
f 4 21 22
f 4 22 23
f 4 23 24
f 4 24 25
f 4 25 26
f 4 26 27
f 4 27 28
f 4 28 29
f 4 29 30
f 4 30 31
f 4 31 5
f 4 7 32
f 4 32 33
f 4 33 34
f 4 34 8
f 6 35 36
f 6 36 37
f 6 37 38
f 6 38 65
f 6 65 39
f 9 40 41
f 9 41 10
f 10 41 11
f 11 41 42
f 11 42 43
f 11 43 78
f 11 78 97
f 11 97 101
f 11 101 102
f 11 102 99
f 11 99 98
f 11 98 86
f 11 86 85
f 11 85 84
f 11 84 83
f 11 83 64
f 11 64 63
f 11 63 62
f 11 62 61
f 11 61 60
f 11 60 59
f 11 59 58
f 11 58 57
f 11 57 56
f 11 56 55
f 11 55 54
f 11 54 44
f 11 44 35
f 11 35 45
f 11 45 46
f 11 46 47
f 11 47 48
f 11 48 49
f 11 49 50
f 11 50 51
f 11 51 52
f 11 52 53
f 11 53 12
f 35 44 54
f 35 54 55
f 35 55 56
f 35 56 57
f 35 57 58
f 35 58 59
f 35 59 60
f 35 60 61
f 35 61 62
f 35 62 63
f 35 63 64
f 35 64 36
f 36 64 37
f 37 64 38
f 38 64 65
f 39 66 67
f 39 67 68
f 39 68 69
f 39 69 70
f 39 70 71
f 39 71 72
f 39 72 73
f 39 73 88
f 39 88 74
f 39 65 75
f 39 75 66
f 40 76 41
f 41 77 78
f 41 78 42
f 41 76 79
f 41 79 80
f 41 80 81
f 41 81 82
f 41 82 77
f 42 78 43
f 64 83 75
f 64 75 65
f 66 84 67
f 66 75 84
f 67 84 68
f 68 84 85
f 68 85 86
f 68 86 69
f 69 86 70
f 70 86 71
f 71 86 72
f 72 86 73
f 73 86 87
f 73 87 89
f 73 89 88
f 74 88 89
f 74 89 90
f 74 90 91
f 74 91 92
f 74 92 93
f 74 93 94
f 74 94 95
f 74 95 82
f 75 83 84
f 77 94 78
f 77 82 94
f 78 94 96
f 78 96 97
f 82 95 94
f 86 98 87
f 87 98 89
f 89 98 90
f 90 99 102
f 90 102 100
f 90 100 91
f 90 98 99
f 91 100 92
f 92 100 93
f 93 100 102
f 93 102 101
f 93 101 96
f 93 96 94
f 96 101 97

