# https://github.com/mikedh/trimesh
v 0.06196062 -0.02838593 -0.05190655
v 0.06196062 -0.02836930 -0.05505808
v 0.06246558 -0.02726582 -0.05505808
v 0.06247042 -0.02727136 -0.05190655
v 0.06196062 -0.02828612 -0.02046559
v 0.06196001 -0.00015561 0.00816575
v 0.06196001 -0.00015561 -0.14370226
v 0.06196062 -0.02824176 -0.06449780
v 0.06243773 -0.02720482 -0.06449780
v 0.06312554 -0.02569099 -0.05505808
v 0.06312918 -0.02570208 -0.05190655
v 0.06310193 -0.02563000 -0.06449780
v 0.06244742 -0.02721036 -0.02046559
v 0.06244136 -0.02720482 -0.01731406
v 0.06196062 -0.02825839 -0.01608021
v 0.06196062 -0.02822513 -0.01294355
v 0.06196062 -0.02820294 -0.01102588
v 0.06196062 -0.02818631 -0.00983662
v 0.06196062 -0.02815304 -0.00787435
v 0.06196062 -0.02787023 0.00815088
v 0.06789122 -0.00015561 0.00816575
v 0.06196001 0.02794717 0.00816575
v 0.06196001 0.02463117 -0.14370226
v 0.06754731 -0.00015561 -0.14370226
v 0.06196062 -0.02457642 -0.14292924
v 0.06196062 -0.02813640 -0.06763446
v 0.06241412 -0.02714937 -0.06763446
v 0.06308074 -0.02558009 -0.06763446
v 0.06391145 -0.02358384 -0.05505808
v 0.06386907 -0.02358384 -0.06449780
v 0.06391750 -0.02358384 -0.05190655
v 0.06310133 -0.02563000 -0.01731406
v 0.06243591 -0.02718264 -0.01417740
v 0.06242986 -0.02716046 -0.01102588
v 0.06241957 -0.02713273 -0.00787435
v 0.06223187 -0.02727136 0.00815088
v 0.06235659 -0.02698856 0.00815088
v 0.06301293 -0.02541928 0.00815088
v 0.06368016 -0.02358384 0.00815088
v 0.06472278 -0.02043974 0.00815088
v 0.06561101 -0.01729565 0.00815088
v 0.06599367 -0.01581510 0.00815088
v 0.06603484 -0.01565429 0.00815088
v 0.06606754 -0.01550457 0.00815088
v 0.06637451 -0.01408501 0.00815088
v 0.06695637 -0.01100746 0.00815088
v 0.06735659 -0.00816280 0.00815088
v 0.06739776 -0.00786336 0.00815088
v 0.06767446 -0.00501870 0.00815088
v 0.06770292 -0.00471927 0.00815088
v 0.06785974 -0.00187461 0.00815088
v 0.06787609 -0.00157517 0.00815088
v 0.06789183 -0.00016116 0.00815088
v 0.06790696 0.00126949 0.00816575
v 0.06196001 0.02795826 0.00785357
v 0.06237052 0.02708767 0.00816575
v 0.06237355 0.02709321 0.00785357
v 0.06234752 0.02368295 -0.14370226
v 0.06196001 0.02750356 -0.09590903
v 0.06227243 0.02682705 -0.09590903
v 0.06294754 0.02525778 -0.09590903
v 0.06679047 -0.00809626 -0.14292924
v 0.06612566 -0.01100746 -0.14292924
v 0.06541786 -0.01390202 -0.14292924
v 0.06531978 -0.01429573 -0.14292924
v 0.06346219 -0.02043974 -0.14292924
v 0.06293058 -0.02208111 -0.14292924
v 0.06233782 -0.02365038 -0.14292924
v 0.06754731 0.00157447 -0.14370226
v 0.06813281 0.00157447 -0.06764933
v 0.06811040 -0.00157517 -0.06763446
v 0.06792997 -0.00471927 -0.06763446
v 0.06382850 -0.02358384 -0.06763446
v 0.06496315 -0.02043974 -0.05505808
v 0.06493046 -0.02043974 -0.06449780
v 0.06489534 -0.02043974 -0.06763446
v 0.06496618 -0.02043974 -0.05190655
v 0.06385756 -0.02358384 -0.01731406
v 0.06309164 -0.02561336 -0.01417740
v 0.06383698 -0.02358384 -0.01417740
v 0.06490261 -0.02043974 -0.01731406
v 0.06571818 -0.01760063 -0.01731406
v 0.06611900 -0.01598700 -0.01417740
v 0.06650711 -0.01415155 -0.01102588
v 0.06648410 -0.01415155 -0.00787435
v 0.06708534 -0.01100746 -0.00787435
v 0.06751885 -0.00786336 -0.00787435
v 0.06770534 -0.00471927 0.00785357
v 0.06790333 -0.00157517 0.00470204
v 0.06787850 -0.00157517 0.00785357
v 0.06789425 -0.00016116 0.00785357
v 0.06791302 0.00157447 0.00785357
v 0.06790999 0.00157447 0.00816575
v 0.06239353 0.02713758 0.00471690
v 0.06196001 0.02798599 0.00684270
v 0.06306015 0.02551840 0.00816575
v 0.06306318 0.02552394 0.00785357
v 0.06246619 0.02338352 -0.14370226
v 0.06196001 0.02763109 -0.09353051
v 0.06230937 0.02691577 -0.09275749
v 0.06298508 0.02534650 -0.09275749
v 0.06363414 0.02358314 -0.09275749
v 0.06356149 0.02358314 -0.09590903
v 0.06294512 0.02210813 -0.14370226
v 0.06761997 -0.00786336 -0.06763446
v 0.06717737 -0.01100746 -0.06763446
v 0.06657553 -0.01415155 -0.06763446
v 0.06604816 -0.01571528 -0.07850129
v 0.06613959 -0.01605908 -0.06763446
v 0.06571878 -0.01763390 -0.06763446
v 0.06753944 0.00238961 -0.14370226
v 0.06799536 0.00471857 -0.06764933
v 0.06814491 0.00157447 -0.06449780
v 0.06813462 -0.00016116 -0.06449780
v 0.06812554 -0.00157517 -0.06449780
v 0.06743409 0.00552261 -0.14370226
v 0.06794450 -0.00471927 -0.06449780
v 0.06763753 -0.00786336 -0.06449780
v 0.06574906 -0.01772263 -0.05505808
v 0.06573513 -0.01768381 -0.06449780
v 0.06574966 -0.01771708 -0.05190655
v 0.06490987 -0.02043974 -0.02046559
v 0.06572181 -0.01761727 -0.02046559
v 0.06612990 -0.01602581 -0.01731406
v 0.06710532 -0.01100746 -0.01102588
v 0.06652588 -0.01415155 -0.01417740
v 0.06753823 -0.00786336 -0.01102588
v 0.06781796 -0.00471927 -0.00787435
v 0.06797659 -0.00157517 -0.00473768
v 0.06795237 -0.00157517 -0.00158616
v 0.06793784 0.00157447 0.00471690
v 0.06779313 0.00471857 0.00785357
v 0.06780161 0.00441358 0.00816575
v 0.06196001 0.02804144 0.00471690
v 0.06308074 0.02556276 0.00471690
v 0.06308377 0.02557385 0.00156537
v 0.06239716 0.02714312 0.00156537
v 0.06196001 0.02805807 0.00156537
v 0.06380610 0.02358314 0.00816575
v 0.06381155 0.02358314 0.00785357
v 0.06384606 0.02358314 0.00471690
v 0.06196001 0.02766991 -0.09275749
v 0.06233722 0.02698786 -0.08962084
v 0.06307166 0.02554612 -0.08333265
v 0.06381397 0.02358314 -0.08333265
v 0.06469190 0.02043905 -0.09275749
v 0.06461985 0.02043905 -0.09590903
v 0.06488202 0.02043905 -0.08333265
v 0.06568912 0.01386251 -0.14370226
v 0.06719977 -0.01100746 -0.06449780
v 0.06660096 -0.01415155 -0.06449780
v 0.06615291 -0.01611453 -0.06449780
v 0.06772108 0.00786266 -0.06764933
v 0.06800202 0.00471857 -0.06449780
v 0.06728333 0.00802902 -0.14370226
v 0.06789061 0.00471857 -0.01101101
v 0.06802806 0.00157447 -0.01101101
v 0.06801655 -0.00016116 -0.01102588
v 0.06800626 -0.00157517 -0.01102588
v 0.06784157 -0.00471927 -0.01417740
v 0.06784823 -0.00471927 -0.01731406
v 0.06755518 -0.00786336 -0.01731406
v 0.06756124 -0.00786336 -0.02046559
v 0.06762179 -0.00786336 -0.05505808
v 0.06719796 -0.01100746 -0.05505808
v 0.06616138 -0.01614781 -0.05505808
v 0.06616017 -0.01614781 -0.05190655
v 0.06613353 -0.01604245 -0.02046559
v 0.06654223 -0.01415155 -0.01731406
v 0.06655191 -0.01415155 -0.02046559
v 0.06711622 -0.01100746 -0.01417740
v 0.06712590 -0.01100746 -0.01731406
v 0.06754792 -0.00786336 -0.01417740
v 0.06783370 -0.00471927 -0.01102588
v 0.06799657 -0.00157517 -0.00787435
v 0.06798749 -0.00016116 -0.00473768
v 0.06795903 0.00157447 0.00156537
v 0.06781735 0.00471857 0.00471690
v 0.06755276 0.00786266 0.00471690
v 0.06752491 0.00786266 0.00785357
v 0.06754731 0.00755768 0.00816575
v 0.06778950 0.00471857 0.00816575
v 0.06385211 0.02358314 0.00156537
v 0.06394051 0.02358314 -0.06764933
v 0.06312857 0.02567366 -0.06764933
v 0.06244136 0.02724848 -0.06764933
v 0.06196001 0.02825215 -0.06764933
v 0.06391145 0.02328370 0.00816575
v 0.06490624 0.02043905 0.00785357
v 0.06493833 0.02043905 0.00471690
v 0.06494499 0.02043905 0.00156537
v 0.06196001 0.02776418 -0.09048305
v 0.06239353 0.02712094 -0.08333265
v 0.06309406 0.02560157 -0.08018111
v 0.06386059 0.02358314 -0.08018111
v 0.06493349 0.02043905 -0.08018111
v 0.06573755 0.01768311 -0.08018111
v 0.06715436 0.00909368 -0.14370226
v 0.06661186 -0.01415155 -0.05505808
v 0.06730512 0.01100676 -0.06764933
v 0.06772411 0.00786266 -0.06449780
v 0.06761694 0.00786266 -0.01101101
v 0.06760786 0.00786266 -0.00787435
v 0.06759696 0.00786266 -0.00472282
v 0.06787790 0.00471857 -0.00787435
v 0.06801716 0.00157447 -0.00787435
v 0.06800626 -0.00016116 -0.00787435
v 0.06801110 -0.00016116 -0.00930145
v 0.06713498 -0.01100746 -0.02046559
v 0.06660762 -0.01415155 -0.05190655
v 0.06800021 0.00157447 -0.00472282
v 0.06783491 0.00471857 0.00156537
v 0.06715012 0.01100676 0.00471690
v 0.06756850 0.00786266 0.00156537
v 0.06711985 0.01100676 0.00785357
v 0.06715496 0.01070732 0.00816575
v 0.06752067 0.00786266 0.00816575
v 0.06503157 0.02043905 -0.06764933
v 0.06392598 0.02358314 -0.07074139
v 0.06312313 0.02566257 -0.07074139
v 0.06243773 0.02723739 -0.07074139
v 0.06196001 0.02822997 -0.07193065
v 0.06196001 0.02824661 -0.06879399
v 0.06490079 0.02043905 0.00816575
v 0.06572908 0.01765538 0.00785357
v 0.06498314 0.02016179 0.00816575
v 0.06572666 0.01764984 0.00816575
v 0.06574421 0.01771083 0.00471690
v 0.06574785 0.01772747 0.00156537
v 0.06579144 0.01790491 -0.06764933
v 0.06196001 0.02800816 -0.08435838
v 0.06196001 0.02804698 -0.08333265
v 0.06241533 0.02717085 -0.08018111
v 0.06310556 0.02562930 -0.07705932
v 0.06388723 0.02358314 -0.07705932
v 0.06496376 0.02043905 -0.07705932
v 0.06575390 0.01774965 -0.07705932
v 0.06615049 0.01610829 -0.08018111
v 0.06616926 0.01618038 -0.07705932
v 0.06668997 0.01415085 -0.07074139
v 0.06671721 0.01415085 -0.06764933
v 0.06730452 0.01100676 -0.06449780
v 0.06719735 0.01100676 -0.00787435
v 0.06718706 0.01100676 -0.00472282
v 0.06716405 0.01100676 0.00156537
v 0.06758364 0.00786266 -0.00158616
v 0.06786458 0.00471857 -0.00472282
v 0.06785065 0.00471857 -0.00158616
v 0.06659067 0.01415085 0.00471690
v 0.06656039 0.01415085 0.00785357
v 0.06661004 0.01385142 0.00816575
v 0.06711561 0.01100676 0.00816575
v 0.06501159 0.02043905 -0.07074139
v 0.06242562 0.02719857 -0.07705932
v 0.06196001 0.02818561 -0.07705932
v 0.06614443 0.01608611 0.00785357
v 0.06614262 0.01607502 0.00816575
v 0.06615957 0.01614156 0.00471690
v 0.06616320 0.01615819 0.00156537
v 0.06621285 0.01633564 -0.06764933
v 0.06577994 0.01786055 -0.07074139
v 0.06196001 0.02814125 -0.08018111
v 0.06619953 0.01628573 -0.07074139
v 0.06671418 0.01415085 -0.06449780
v 0.06662215 0.01415085 -0.00787435
v 0.06661549 0.01415085 -0.00472282
v 0.06660096 0.01415085 0.00156537
v 0.06655616 0.01415085 0.00816575
f 1 2 3
f 1 3 4
f 1 4 5
f 1 5 6
f 1 6 7
f 1 7 2
f 2 8 9
f 2 9 3
f 2 7 8
f 3 10 11
f 3 11 4
f 3 9 12
f 3 12 10
f 4 11 13
f 4 13 5
f 5 13 14
f 5 14 15
f 5 15 6
f 6 15 16
f 6 16 17
f 6 17 18
f 6 18 19
f 6 19 20
f 6 20 21
f 6 21 54
f 6 54 93
f 6 93 133
f 6 133 182
f 6 182 181
f 6 181 217
f 6 217 216
f 6 216 252
f 6 252 251
f 6 251 268
f 6 268 257
f 6 257 227
f 6 227 226
f 6 226 224
f 6 224 188
f 6 188 139
f 6 139 96
f 6 96 56
f 6 56 22
f 6 22 55
f 6 55 95
f 6 95 134
f 6 134 138
f 6 138 187
f 6 187 223
f 6 223 222
f 6 222 255
f 6 255 262
f 6 262 232
f 6 232 231
f 6 231 192
f 6 192 142
f 6 142 99
f 6 99 59
f 6 59 23
f 6 23 7
f 7 23 58
f 7 58 98
f 7 98 104
f 7 104 149
f 7 149 198
f 7 198 155
f 7 155 116
f 7 116 111
f 7 111 69
f 7 69 24
f 7 24 25
f 7 25 26
f 7 26 8
f 8 26 9
f 9 26 27
f 9 27 28
f 9 28 12
f 10 29 11
f 10 12 30
f 10 30 29
f 11 29 31
f 11 31 32
f 11 32 13
f 12 28 30
f 13 32 14
f 14 32 33
f 14 33 16
f 14 16 15
f 16 33 34
f 16 34 17
f 17 34 18
f 18 34 35
f 18 35 19
f 19 35 36
f 19 36 20
f 20 36 21
f 21 36 37
f 21 37 38
f 21 38 39
f 21 39 40
f 21 40 41
f 21 41 42
f 21 42 43
f 21 43 44
f 21 44 45
f 21 45 46
f 21 46 47
f 21 47 48
f 21 48 49
f 21 49 50
f 21 50 51
f 21 51 52
f 21 52 53
f 21 53 54
f 22 56 57
f 22 57 55
f 23 59 60
f 23 60 61
f 23 61 58
f 24 62 63
f 24 63 64
f 24 64 65
f 24 65 66
f 24 66 67
f 24 67 68
f 24 68 25
f 24 69 70
f 24 70 71
f 24 71 72
f 24 72 62
f 25 68 28
f 25 28 27
f 25 27 26
f 28 73 30
f 28 68 67
f 28 67 73
f 29 74 31
f 29 30 75
f 29 75 74
f 30 73 76
f 30 76 75
f 31 74 77
f 31 77 78
f 31 78 32
f 32 78 79
f 32 79 34
f 32 34 33
f 34 79 35
f 35 79 38
f 35 38 37
f 35 37 36
f 38 79 80
f 38 80 39
f 39 80 81
f 39 81 40
f 40 81 82
f 40 82 41
f 41 82 83
f 41 83 42
f 42 83 43
f 43 83 84
f 43 84 85
f 43 85 44
f 44 85 45
f 45 85 86
f 45 86 46
f 46 86 47
f 47 86 87
f 47 87 48
f 48 87 49
f 49 87 88
f 49 88 50
f 50 88 51
f 51 88 89
f 51 89 90
f 51 90 52
f 52 90 91
f 52 91 53
f 53 91 92
f 53 92 54
f 54 92 93
f 55 57 94
f 55 94 95
f 56 96 97
f 56 97 57
f 57 97 94
f 58 61 98
f 59 99 60
f 60 99 100
f 60 100 101
f 60 101 61
f 61 101 102
f 61 102 103
f 61 103 104
f 61 104 98
f 62 72 105
f 62 105 106
f 62 106 107
f 62 107 63
f 63 108 64
f 63 107 109
f 63 109 108
f 64 108 65
f 65 108 110
f 65 110 76
f 65 76 66
f 66 76 67
f 67 76 73
f 69 111 70
f 70 112 113
f 70 113 114
f 70 114 115
f 70 115 71
f 70 111 116
f 70 116 112
f 71 115 72
f 72 115 117
f 72 117 118
f 72 118 105
f 74 119 77
f 74 75 120
f 74 120 119
f 75 76 110
f 75 110 120
f 77 121 122
f 77 122 78
f 77 119 121
f 78 122 81
f 78 81 80
f 78 80 79
f 81 122 123
f 81 123 82
f 82 123 168
f 82 168 124
f 82 124 83
f 83 124 84
f 84 125 86
f 84 86 85
f 84 124 126
f 84 126 125
f 86 125 87
f 87 125 127
f 87 127 128
f 87 128 88
f 88 128 129
f 88 129 130
f 88 130 89
f 89 131 91
f 89 91 90
f 89 130 131
f 91 131 92
f 92 131 132
f 92 132 93
f 93 132 133
f 94 134 95
f 94 97 135
f 94 135 136
f 94 136 137
f 94 137 138
f 94 138 134
f 96 139 140
f 96 140 97
f 97 140 141
f 97 141 135
f 99 142 100
f 100 142 143
f 100 143 101
f 101 143 144
f 101 144 145
f 101 145 102
f 102 146 147
f 102 147 103
f 102 145 148
f 102 148 146
f 103 147 104
f 104 147 149
f 105 118 150
f 105 150 106
f 106 150 151
f 106 151 107
f 107 151 152
f 107 152 109
f 108 109 110
f 109 152 120
f 109 120 110
f 112 153 154
f 112 154 113
f 112 116 155
f 112 155 153
f 113 154 156
f 113 156 157
f 113 157 114
f 114 157 115
f 115 157 158
f 115 158 159
f 115 159 160
f 115 160 161
f 115 161 117
f 117 161 162
f 117 162 163
f 117 163 164
f 117 164 118
f 118 164 165
f 118 165 150
f 119 166 121
f 119 120 152
f 119 152 166
f 121 167 123
f 121 123 122
f 121 166 167
f 123 167 168
f 124 169 126
f 124 168 170
f 124 170 169
f 125 126 169
f 125 169 171
f 125 171 127
f 127 171 172
f 127 172 173
f 127 173 174
f 127 174 128
f 128 174 175
f 128 175 129
f 129 175 176
f 129 176 177
f 129 177 131
f 129 131 130
f 131 178 132
f 131 177 178
f 132 178 179
f 132 179 180
f 132 180 181
f 132 181 182
f 132 182 133
f 135 141 136
f 136 141 183
f 136 183 184
f 136 184 185
f 136 185 186
f 136 186 137
f 137 186 138
f 138 186 187
f 139 188 140
f 140 189 141
f 140 188 189
f 141 189 190
f 141 190 191
f 141 191 183
f 142 192 143
f 143 192 193
f 143 193 144
f 144 193 194
f 144 194 195
f 144 195 145
f 145 195 196
f 145 196 148
f 146 149 147
f 146 148 149
f 148 196 197
f 148 197 198
f 148 198 149
f 150 165 199
f 150 199 151
f 151 199 166
f 151 166 152
f 153 200 201
f 153 201 154
f 153 155 198
f 153 198 200
f 154 201 202
f 154 202 156
f 156 202 203
f 156 203 204
f 156 204 205
f 156 205 206
f 156 206 157
f 157 206 207
f 157 207 208
f 157 208 158
f 158 208 175
f 158 175 159
f 159 175 174
f 159 174 160
f 160 173 162
f 160 162 161
f 160 174 173
f 162 173 209
f 162 209 163
f 163 209 165
f 163 165 164
f 165 209 170
f 165 170 210
f 165 210 199
f 166 199 167
f 167 210 168
f 167 199 210
f 168 210 170
f 169 170 172
f 169 172 171
f 170 209 172
f 172 209 173
f 175 208 207
f 175 207 211
f 175 211 176
f 176 211 177
f 177 211 178
f 178 211 212
f 178 212 179
f 179 213 180
f 179 212 248
f 179 248 214
f 179 214 213
f 180 213 215
f 180 215 216
f 180 216 217
f 180 217 181
f 183 191 184
f 184 218 219
f 184 219 220
f 184 220 185
f 184 191 218
f 185 220 221
f 185 221 186
f 186 221 222
f 186 222 223
f 186 223 187
f 188 224 189
f 189 225 190
f 189 224 226
f 189 226 227
f 189 227 225
f 190 225 228
f 190 228 229
f 190 229 191
f 191 229 230
f 191 230 218
f 192 231 193
f 193 231 232
f 193 232 233
f 193 233 194
f 194 233 234
f 194 234 235
f 194 235 195
f 195 235 236
f 195 236 196
f 196 236 237
f 196 237 197
f 197 238 198
f 197 237 239
f 197 239 238
f 198 238 239
f 198 239 240
f 198 240 241
f 198 241 200
f 200 241 242
f 200 242 201
f 201 242 243
f 201 243 202
f 202 243 203
f 203 243 244
f 203 244 204
f 204 244 245
f 204 245 246
f 204 246 247
f 204 247 205
f 205 247 206
f 206 247 248
f 206 248 212
f 206 212 211
f 206 211 207
f 213 249 250
f 213 250 215
f 213 214 246
f 213 246 245
f 213 245 249
f 214 248 246
f 215 250 251
f 215 251 252
f 215 252 216
f 218 230 253
f 218 253 235
f 218 235 219
f 219 235 234
f 219 234 220
f 220 234 254
f 220 254 221
f 221 254 255
f 221 255 222
f 225 256 258
f 225 258 228
f 225 227 256
f 227 257 256
f 228 258 259
f 228 259 229
f 229 259 260
f 229 260 230
f 230 260 261
f 230 261 236
f 230 236 253
f 232 262 233
f 233 262 254
f 233 254 234
f 235 253 236
f 236 261 237
f 237 261 263
f 237 263 239
f 239 263 241
f 239 241 240
f 241 260 264
f 241 264 242
f 241 263 260
f 242 264 265
f 242 265 243
f 243 265 266
f 243 266 267
f 243 267 249
f 243 249 244
f 244 249 245
f 246 248 247
f 249 258 256
f 249 256 250
f 249 267 258
f 250 256 257
f 250 257 268
f 250 268 251
f 254 262 255
f 258 267 266
f 258 266 259
f 259 266 265
f 259 265 264
f 259 264 260
f 260 263 261

