# https://github.com/mikedh/trimesh
v 0.07977057 0.00166742 0.15254129
v 0.07978619 -0.07390617 0.15254436
v 0.07980181 -0.07390617 0.14940250
v 0.07980181 -0.07390617 0.14634945
v 0.07975495 0.00166742 0.15244637
v 0.07973932 0.00166742 0.15568622
v 0.07975495 -0.07390617 0.15568622
v 0.07961434 -0.07705606 0.15254436
v 0.07919254 0.00166742 0.14956480
v 0.07961434 -0.07705606 0.14634945
v 0.06667896 -0.00505501 0.12770655
v 0.06685080 -0.00190512 0.12770655
v 0.06685080 0.00165148 0.12770655
v 0.07917692 0.00166742 0.15782672
v 0.07916129 -0.03617918 0.15790021
v 0.07916129 -0.07390617 0.15790021
v 0.07906756 -0.07705606 0.15780222
v 0.07956747 -0.07705606 0.15568622
v 0.07900507 -0.07902575 0.15568622
v 0.07903631 -0.07904169 0.15254436
v 0.07959872 -0.07711189 0.14634945
v 0.06653835 0.00165945 0.12770655
v 0.07914567 0.00166742 0.14951274
v 0.06461679 -0.01731170 0.12770655
v 0.06530418 -0.01448875 0.12770655
v 0.06538229 -0.01416180 0.12770655
v 0.06583534 -0.01192896 0.12770655
v 0.06591346 -0.01149834 0.12770655
v 0.06613217 -0.01008687 0.12770655
v 0.06641337 -0.00786998 0.12770655
v 0.07914567 0.00166742 0.15789715
v 0.07703664 -0.00157816 0.15875764
v 0.07703664 -0.07390617 0.15876069
v 0.07886447 -0.07887423 0.15755725
v 0.07703664 -0.07705606 0.15855247
v 0.07703664 -0.07959193 0.15568622
v 0.07703664 -0.07962383 0.15254436
v 0.07903631 -0.07904169 0.14634945
v 0.00000232 0.00166742 0.14449986
v 0.06697578 0.00166742 0.14450292
v 0.07772403 0.00166742 0.14799081
v -0.00062257 0.00165945 0.12770655
v 0.06369507 -0.02045362 0.12770655
v 0.07703664 0.00166742 0.15875458
v 0.07400589 0.00166742 0.15896894
v 0.07389653 -0.07390617 0.15897812
v 0.07703664 -0.07908955 0.15780222
v 0.07389653 -0.07705606 0.15876069
v 0.07389653 -0.07975142 0.15568622
v 0.07389653 -0.07979130 0.15254436
v 0.07389653 -0.07979926 0.14940250
v 0.07703664 -0.07962383 0.14634945
v 0.03198148 -0.05872287 0.12770655
v 0.03301257 -0.05815669 0.12770655
v 0.03510598 -0.05694457 0.12770655
v 0.03654324 -0.05603549 0.12770655
v 0.03693380 -0.05577233 0.12770655
v 0.03898035 -0.05436086 0.12770655
v 0.04055821 -0.05322052 0.12770655
v 0.04265162 -0.05153791 0.12770655
v 0.04407327 -0.05036568 0.12770655
v 0.04563551 -0.04893825 0.12770655
v 0.04733836 -0.04734337 0.12770655
v 0.04890060 -0.04566874 0.12770655
v 0.05036911 -0.04408981 0.12770655
v 0.05158766 -0.04261454 0.12770655
v 0.05322802 -0.04058106 0.12770655
v 0.05436846 -0.03901807 0.12770655
v 0.05577448 -0.03697662 0.12770655
v 0.05604006 -0.03657790 0.12770655
v 0.05696179 -0.03516643 0.12770655
v 0.05821158 -0.03302131 0.12770655
v 0.05943014 -0.03081239 0.12770655
v 0.05950825 -0.03065291 0.12770655
v 0.06019564 -0.02924143 0.12770655
v 0.06133607 -0.02674544 0.12770655
v 0.06244527 -0.02401819 0.12770655
v 0.06303892 -0.02244723 0.12770655
v -0.06692426 0.00166742 0.14449986
v -0.00062257 -0.05872287 0.12770655
v -0.06661181 0.00155578 0.12774636
v -0.06659619 0.00165945 0.12774636
v 0.07389653 0.00166742 0.15897505
v 0.07075642 -0.07390617 0.15898118
v 0.07389653 -0.07916131 0.15790021
v 0.06760068 -0.07390617 0.15898424
v -0.03681980 -0.07389820 0.15898731
v 0.06132045 -0.07705606 0.15876069
v 0.00206449 -0.07966370 0.15604143
v 0.00206449 -0.07975142 0.15568622
v 0.00206449 -0.07979130 0.15254436
v 0.07389653 -0.07979926 0.14634945
v -0.06759603 -0.07979130 0.15254129
v -0.07389188 -0.07977534 0.14449986
v -0.07773500 0.00166742 0.14799081
v -0.03171125 -0.05872287 0.12774636
v -0.03508570 -0.05668939 0.12774636
v -0.03647610 -0.05577233 0.12774636
v -0.03875698 -0.05420137 0.12774636
v -0.04031923 -0.05303711 0.12774636
v -0.04227203 -0.05146614 0.12774636
v -0.04384990 -0.05017429 0.12774636
v -0.04574022 -0.04843586 0.12774636
v -0.04713061 -0.04713604 0.12774636
v -0.04859912 -0.04556508 0.12774636
v -0.05017699 -0.04386652 0.12774636
v -0.05164550 -0.04207228 0.12774636
v -0.05303590 -0.04032588 0.12774636
v -0.05419196 -0.03876289 0.12774636
v -0.05575421 -0.03646626 0.12774636
v -0.05680091 -0.03489530 0.12774636
v -0.05787887 -0.03302131 0.12774636
v -0.05803509 -0.03274220 0.12774636
v -0.05925364 -0.03047747 0.12774636
v -0.06003476 -0.02890651 0.12774636
v -0.06101898 -0.02674544 0.12774636
v -0.06259684 -0.02283797 0.12774636
v -0.06331548 -0.02072475 0.12774636
v -0.06433094 -0.01731170 0.12774636
v -0.06511206 -0.01416180 0.12774636
v -0.06573696 -0.01082052 0.12774636
v -0.06600254 -0.00912197 0.12774636
v -0.06619001 -0.00755100 0.12774636
v -0.06643997 -0.00472806 0.12774636
v -0.06661181 -0.00158614 0.12774636
v -0.07976592 -0.07389820 0.14449986
v -0.07920351 0.00166742 0.14956173
v -0.00774641 0.00166742 0.15898118
v -0.01099588 -0.00472009 0.15899037
v 0.03616830 -0.07916131 0.15790021
v -0.06759603 -0.07389820 0.15898731
v 0.00206449 -0.07705606 0.15875764
v -0.04242826 -0.07916131 0.15789408
v -0.07389188 -0.07916131 0.15789102
v -0.07389188 -0.07974344 0.15568622
v -0.07389188 -0.07977534 0.15254129
v -0.07703199 -0.07961586 0.14449986
v -0.07901604 -0.07902575 0.14449986
v -0.07960969 -0.07704809 0.14449986
v -0.07976592 -0.07389820 0.15254129
v -0.07979717 0.00166742 0.15254436
v -0.00784015 0.00166742 0.15898118
v -0.07389188 0.00166742 0.15897199
v -0.07389188 -0.07389820 0.15898118
v -0.07075177 -0.07704809 0.15875151
v -0.05816007 -0.07704809 0.15875458
v -0.07389188 -0.07704809 0.15874845
v -0.07703199 -0.07907359 0.15779609
v -0.07703199 -0.07957598 0.15568622
v -0.07703199 -0.07961586 0.15254129
v -0.07901604 -0.07902575 0.15254129
v -0.07960969 -0.07704809 0.15254129
v -0.07975030 -0.07389820 0.15568622
v -0.07975030 0.00166742 0.15568622
v -0.07703199 0.00166742 0.15875458
v -0.07703199 -0.01101190 0.15875764
v -0.07703199 -0.07389820 0.15875764
v -0.07703199 -0.07704809 0.15854634
v -0.07885982 -0.07887423 0.15755725
v -0.07901604 -0.07901777 0.15568622
v -0.07956282 -0.07704809 0.15568622
v -0.07906291 -0.07704809 0.15779916
v -0.07915664 -0.07389820 0.15789715
v -0.07926600 -0.05870692 0.15751743
v -0.07915664 0.00166742 0.15789715
f 1 2 3
f 1 3 4
f 1 4 5
f 1 5 9
f 1 9 23
f 1 23 41
f 1 41 40
f 1 40 39
f 1 39 79
f 1 79 95
f 1 95 127
f 1 127 141
f 1 141 154
f 1 154 165
f 1 165 155
f 1 155 143
f 1 143 142
f 1 142 128
f 1 128 83
f 1 83 45
f 1 45 44
f 1 44 31
f 1 31 14
f 1 14 6
f 1 6 2
f 2 6 7
f 2 7 8
f 2 8 3
f 3 8 10
f 3 10 4
f 4 9 5
f 4 10 11
f 4 11 12
f 4 12 13
f 4 13 9
f 6 14 7
f 7 14 15
f 7 15 16
f 7 16 17
f 7 17 18
f 7 18 8
f 8 18 19
f 8 19 20
f 8 20 21
f 8 21 10
f 9 13 22
f 9 22 23
f 10 21 24
f 10 24 25
f 10 25 26
f 10 26 27
f 10 27 28
f 10 28 29
f 10 29 30
f 10 30 11
f 11 30 29
f 11 29 28
f 11 28 27
f 11 27 26
f 11 26 25
f 11 25 24
f 11 24 43
f 11 43 78
f 11 78 77
f 11 77 76
f 11 76 75
f 11 75 74
f 11 74 73
f 11 73 72
f 11 72 71
f 11 71 70
f 11 70 69
f 11 69 68
f 11 68 67
f 11 67 66
f 11 66 65
f 11 65 64
f 11 64 63
f 11 63 62
f 11 62 61
f 11 61 60
f 11 60 59
f 11 59 58
f 11 58 57
f 11 57 56
f 11 56 55
f 11 55 54
f 11 54 53
f 11 53 80
f 11 80 42
f 11 42 22
f 11 22 13
f 11 13 12
f 14 31 15
f 15 31 32
f 15 32 33
f 15 33 16
f 16 33 17
f 17 34 18
f 17 33 35
f 17 35 34
f 18 34 19
f 19 34 36
f 19 36 37
f 19 37 20
f 20 37 52
f 20 52 38
f 20 38 21
f 21 38 24
f 22 39 40
f 22 40 41
f 22 41 23
f 22 42 79
f 22 79 39
f 24 38 43
f 31 44 32
f 32 44 45
f 32 45 33
f 33 45 46
f 33 46 35
f 34 35 47
f 34 47 36
f 35 46 48
f 35 48 47
f 36 47 49
f 36 49 50
f 36 50 37
f 37 50 51
f 37 51 92
f 37 92 52
f 38 52 53
f 38 53 54
f 38 54 55
f 38 55 56
f 38 56 57
f 38 57 58
f 38 58 59
f 38 59 60
f 38 60 61
f 38 61 62
f 38 62 63
f 38 63 64
f 38 64 65
f 38 65 66
f 38 66 67
f 38 67 68
f 38 68 69
f 38 69 70
f 38 70 71
f 38 71 72
f 38 72 73
f 38 73 74
f 38 74 75
f 38 75 76
f 38 76 77
f 38 77 78
f 38 78 43
f 42 80 125
f 42 125 81
f 42 81 82
f 42 82 79
f 45 83 46
f 46 84 48
f 46 83 84
f 47 48 85
f 47 85 49
f 48 84 86
f 48 86 87
f 48 87 131
f 48 131 88
f 48 88 130
f 48 130 85
f 49 85 89
f 49 89 90
f 49 90 91
f 49 91 50
f 50 91 51
f 51 91 93
f 51 93 92
f 52 92 53
f 53 92 94
f 53 94 80
f 79 82 95
f 80 94 96
f 80 96 97
f 80 97 98
f 80 98 99
f 80 99 100
f 80 100 101
f 80 101 102
f 80 102 103
f 80 103 104
f 80 104 105
f 80 105 106
f 80 106 107
f 80 107 108
f 80 108 109
f 80 109 110
f 80 110 111
f 80 111 112
f 80 112 113
f 80 113 114
f 80 114 115
f 80 115 116
f 80 116 117
f 80 117 118
f 80 118 119
f 80 119 120
f 80 120 121
f 80 121 122
f 80 122 123
f 80 123 124
f 80 124 125
f 81 125 126
f 81 126 127
f 81 127 82
f 82 127 95
f 83 86 84
f 83 128 129
f 83 129 86
f 85 130 89
f 86 129 87
f 87 129 131
f 88 132 130
f 88 131 132
f 89 130 133
f 89 133 134
f 89 134 135
f 89 135 90
f 90 135 93
f 90 93 91
f 92 93 94
f 93 135 136
f 93 136 94
f 94 136 150
f 94 150 137
f 94 137 96
f 96 137 138
f 96 138 97
f 97 138 98
f 98 138 99
f 99 138 100
f 100 138 101
f 101 138 102
f 102 138 103
f 103 138 104
f 104 138 105
f 105 138 106
f 106 138 107
f 107 138 108
f 108 138 109
f 109 138 110
f 110 138 111
f 111 138 112
f 112 138 113
f 113 138 114
f 114 138 115
f 115 138 116
f 116 138 117
f 117 138 118
f 118 138 139
f 118 139 119
f 119 139 120
f 120 139 121
f 121 139 122
f 122 139 123
f 123 139 124
f 124 139 125
f 125 139 126
f 126 139 152
f 126 152 140
f 126 140 141
f 126 141 127
f 128 142 129
f 129 142 143
f 129 143 131
f 130 132 133
f 131 143 144
f 131 144 145
f 131 145 146
f 131 146 132
f 132 146 134
f 132 134 133
f 134 145 147
f 134 147 148
f 134 148 135
f 134 146 145
f 135 148 149
f 135 149 150
f 135 150 136
f 137 150 151
f 137 151 138
f 138 151 152
f 138 152 139
f 140 152 153
f 140 153 141
f 141 153 154
f 143 155 156
f 143 156 144
f 144 156 157
f 144 157 158
f 144 158 147
f 144 147 145
f 147 158 148
f 148 158 159
f 148 159 149
f 149 159 160
f 149 160 150
f 150 160 151
f 151 160 152
f 152 161 153
f 152 160 161
f 153 161 162
f 153 162 163
f 153 163 164
f 153 164 154
f 154 164 165
f 155 165 156
f 156 165 163
f 156 163 157
f 157 163 162
f 157 162 158
f 158 162 159
f 159 162 161
f 159 161 160
f 163 165 164

