# https://github.com/mikedh/trimesh
v 0.07391346 0.05983092 0.15898448
v 0.07391346 0.02988113 0.15898096
v 0.07705739 0.00167334 0.15875522
v 0.07705739 0.05983092 0.15875522
v 0.07076698 0.05983092 0.15852948
v 0.07076698 0.02044817 0.15852948
v 0.07391346 0.00167334 0.15897743
v 0.07712623 0.00167334 0.15873053
v 0.07816401 0.05983092 0.15830729
v 0.06889031 0.05983092 0.15766889
v 0.06895151 0.00167334 0.15769710
v 0.07076698 0.00167334 0.15852596
v 0.07917374 0.00167334 0.15789815
v 0.07917374 0.05983092 0.15789815
v 0.06856138 0.05983092 0.15569022
v 0.05375202 0.03896683 0.14625539
v 0.05375202 0.03815276 0.14800480
v 0.05375202 0.03616598 0.14822348
v 0.05375202 0.02988113 0.14848448
v 0.06889031 0.00167334 0.15766889
v 0.07975255 0.00167334 0.15569022
v 0.07975510 0.05503759 0.15569022
v 0.07975510 0.05983092 0.15569022
v 0.06854863 0.05983092 0.15418770
v 0.05375202 0.03974674 0.12295576
v 0.05375202 0.03945641 0.14310927
v 0.05375202 0.00167334 0.14848448
v 0.07975510 0.00167334 0.15558793
v 0.07979845 0.05983092 0.15254410
v 0.06853588 0.05983092 0.15254410
v 0.06886481 0.05983092 0.14998347
v 0.06961446 0.05983092 0.14923221
v 0.07043550 0.05983092 0.14841394
v 0.07118770 0.05983092 0.14810708
v 0.07200874 0.05983092 0.14777555
v 0.07391346 0.05983092 0.14772263
v 0.07499203 0.05983092 0.14774732
v 0.07617260 0.05983092 0.14777555
v 0.07692480 0.05983092 0.14787782
v 0.07774584 0.05983092 0.14799069
v 0.05434103 0.03894406 0.12295576
v 0.05375202 0.00167334 0.12295576
v 0.07979335 0.00167334 0.15254410
v 0.07921709 0.05983092 0.14956023
v 0.07921454 0.01415764 0.14956023
v 0.07844704 0.05983092 0.14873843
v 0.06545315 0.01415764 0.12295576
v 0.06513697 0.01544421 0.12295576
v 0.06467801 0.01730006 0.12295576
v 0.06373967 0.02044817 0.12295576
v 0.06306652 0.02245204 0.12295576
v 0.06271719 0.02337996 0.12295576
v 0.06247241 0.02402325 0.12295576
v 0.06134794 0.02673871 0.12295576
v 0.06021071 0.02922077 0.12295576
v 0.05974410 0.03014869 0.12295576
v 0.05942282 0.03078629 0.12295576
v 0.05817851 0.03302355 0.12295576
v 0.05766854 0.03388886 0.12295576
v 0.05694694 0.03511281 0.12295576
v 0.05591427 0.03668402 0.12295576
v 0.06694480 0.00167334 0.12295576
v 0.07921199 0.00167334 0.14956023
v 0.06688360 0.00286313 0.12295576
v 0.06678671 0.00471899 0.12295576
v 0.06666686 0.00600556 0.12295576
v 0.06648838 0.00786710 0.12295576
v 0.06617985 0.01022392 0.12295576
v 0.06602941 0.01115184 0.12295576
v 0.06592487 0.01179513 0.12295576
f 1 2 3
f 1 3 4
f 1 4 9
f 1 9 14
f 1 14 23
f 1 23 29
f 1 29 44
f 1 44 46
f 1 46 40
f 1 40 39
f 1 39 38
f 1 38 37
f 1 37 36
f 1 36 35
f 1 35 34
f 1 34 33
f 1 33 32
f 1 32 31
f 1 31 30
f 1 30 24
f 1 24 15
f 1 15 10
f 1 10 5
f 1 5 6
f 1 6 2
f 2 6 7
f 2 7 3
f 3 7 12
f 3 12 11
f 3 11 20
f 3 20 27
f 3 27 42
f 3 42 62
f 3 62 63
f 3 63 43
f 3 43 28
f 3 28 21
f 3 21 13
f 3 13 8
f 3 8 4
f 4 8 9
f 5 10 11
f 5 11 6
f 6 11 12
f 6 12 7
f 8 13 14
f 8 14 9
f 10 15 16
f 10 16 17
f 10 17 18
f 10 18 19
f 10 19 27
f 10 27 20
f 10 20 11
f 13 21 22
f 13 22 23
f 13 23 14
f 15 24 25
f 15 25 26
f 15 26 16
f 16 26 25
f 16 25 42
f 16 42 27
f 16 27 19
f 16 19 18
f 16 18 17
f 21 28 22
f 22 29 23
f 22 28 29
f 24 30 25
f 25 30 31
f 25 31 32
f 25 32 33
f 25 33 34
f 25 34 35
f 25 35 36
f 25 36 37
f 25 37 38
f 25 38 39
f 25 39 40
f 25 40 41
f 25 41 61
f 25 61 60
f 25 60 59
f 25 59 58
f 25 58 57
f 25 57 56
f 25 56 55
f 25 55 54
f 25 54 53
f 25 53 52
f 25 52 51
f 25 51 50
f 25 50 49
f 25 49 48
f 25 48 47
f 25 47 70
f 25 70 69
f 25 69 68
f 25 68 67
f 25 67 66
f 25 66 65
f 25 65 64
f 25 64 62
f 25 62 42
f 28 43 29
f 29 43 45
f 29 45 44
f 40 46 47
f 40 47 48
f 40 48 49
f 40 49 50
f 40 50 51
f 40 51 52
f 40 52 53
f 40 53 54
f 40 54 55
f 40 55 56
f 40 56 57
f 40 57 58
f 40 58 59
f 40 59 60
f 40 60 61
f 40 61 41
f 43 63 45
f 44 45 62
f 44 62 64
f 44 64 65
f 44 65 66
f 44 66 67
f 44 67 68
f 44 68 69
f 44 69 70
f 44 70 47
f 44 47 46
f 45 63 62

