# https://github.com/mikedh/trimesh
v -0.06261892 -0.02444672 0.00815116
v -0.06263172 -0.02441443 0.00815116
v -0.06261892 -0.02277706 -0.14028301
v -0.06261892 0.00007699 0.00816575
v -0.06680331 0.00007699 0.00816575
v -0.06314734 -0.02298923 0.00815116
v -0.06290666 -0.02201603 -0.14028301
v -0.06678350 0.00007699 -0.14088118
v -0.06261892 0.00007699 -0.14088118
v -0.06261892 0.02155658 0.00816575
v -0.06677400 0.00157139 0.00816575
v -0.06683056 -0.00126980 0.00815116
v -0.06683634 -0.00156960 0.00815116
v -0.06675666 -0.00441079 0.00815116
v -0.06674799 -0.00471982 0.00815116
v -0.06652837 -0.00786081 0.00815116
v -0.06624930 -0.01029150 0.00815116
v -0.06621751 -0.01056824 0.00815116
v -0.06619522 -0.01072045 0.00815116
v -0.06598551 -0.01214105 0.00815116
v -0.06563048 -0.01397214 0.00815116
v -0.06559498 -0.01415202 0.00815116
v -0.06486717 -0.01729301 0.00815116
v -0.06406670 -0.02013881 0.00815116
v -0.06398124 -0.02043861 0.00815116
v -0.06327903 -0.02260179 0.00815116
v -0.06320183 -0.02283702 0.00815116
v -0.06332361 -0.02072458 -0.14028301
v -0.06678226 0.00157139 -0.14088118
v -0.06425577 -0.01761587 -0.14028301
v -0.06435072 -0.01729301 -0.14028301
v -0.06513756 -0.01415202 -0.14028301
v -0.06574112 -0.01104331 -0.14028301
v -0.06608706 -0.00897238 -0.14028301
v -0.06625302 -0.00757485 -0.14028301
v -0.06652136 -0.00471982 -0.14028301
v -0.06261892 0.02267276 -0.14088118
v -0.06268250 0.02139515 0.00816575
v -0.06653539 0.00471699 0.00816575
v -0.06663158 0.00471699 -0.14088118
v -0.06288726 0.02195785 -0.14088118
v -0.06273658 0.02124755 0.00816575
v -0.06621091 0.00738752 0.00816575
v -0.06635292 0.00763659 -0.14088118
v -0.06644993 0.00665417 -0.14088118
v -0.06324972 0.02084167 -0.14088118
v -0.06324559 0.01982234 0.00816575
v -0.06598055 0.00896033 0.00816575
v -0.06576423 0.01109583 -0.14088118
v -0.06339792 0.02038505 -0.14088118
v -0.06406092 0.01729479 0.00816575
v -0.06560901 0.01100820 0.00816575
v -0.06535017 0.01324056 -0.14088118
v -0.06431976 0.01729479 -0.14088118
v -0.06483992 0.01445360 0.00816575
v -0.06458438 0.01637694 -0.14088118
v -0.06492166 0.01414919 0.00816575
v -0.06513715 0.01414919 -0.14088118
f 1 2 3
f 1 3 9
f 1 9 37
f 1 37 10
f 1 10 4
f 1 4 5
f 1 5 2
f 2 5 6
f 2 6 7
f 2 7 3
f 3 8 9
f 3 7 8
f 4 10 38
f 4 38 42
f 4 42 47
f 4 47 51
f 4 51 55
f 4 55 57
f 4 57 52
f 4 52 48
f 4 48 43
f 4 43 39
f 4 39 11
f 4 11 5
f 5 11 12
f 5 12 13
f 5 13 14
f 5 14 15
f 5 15 16
f 5 16 17
f 5 17 18
f 5 18 19
f 5 19 20
f 5 20 21
f 5 21 22
f 5 22 23
f 5 23 24
f 5 24 25
f 5 25 26
f 5 26 27
f 5 27 6
f 6 27 7
f 7 27 26
f 7 26 25
f 7 25 28
f 7 28 8
f 8 29 40
f 8 40 45
f 8 45 44
f 8 44 49
f 8 49 53
f 8 53 58
f 8 58 56
f 8 56 54
f 8 54 50
f 8 50 46
f 8 46 41
f 8 41 37
f 8 37 9
f 8 28 30
f 8 30 31
f 8 31 32
f 8 32 33
f 8 33 34
f 8 34 35
f 8 35 36
f 8 36 15
f 8 15 14
f 8 14 13
f 8 13 29
f 10 37 38
f 11 39 40
f 11 40 29
f 11 29 12
f 12 29 13
f 15 36 16
f 16 36 35
f 16 35 17
f 17 35 18
f 18 35 34
f 18 34 19
f 19 34 20
f 20 34 33
f 20 33 21
f 21 33 32
f 21 32 22
f 22 32 23
f 23 32 31
f 23 31 24
f 24 31 25
f 25 31 30
f 25 30 28
f 37 41 38
f 38 41 42
f 39 43 44
f 39 44 45
f 39 45 40
f 41 46 47
f 41 47 42
f 43 48 44
f 44 48 49
f 46 50 47
f 47 50 51
f 48 52 49
f 49 52 53
f 50 54 51
f 51 54 56
f 51 56 55
f 52 57 53
f 53 57 58
f 55 56 57
f 56 58 57

