# https://github.com/mikedh/trimesh
v 0.07980124 -0.07391350 0.00815005
v 0.07979997 -0.07391223 0.14634837
v 0.07979613 -0.07400544 0.14634837
v 0.07963397 -0.07705722 0.14634837
v 0.07980124 -0.07391350 0.00783816
v 0.07978592 -0.07370665 -0.14331801
v 0.07948457 -0.07076978 0.14634837
v 0.07904915 -0.07904918 0.14634837
v 0.07963397 -0.07705722 0.11479014
v 0.07979997 -0.07391350 -0.08646788
v 0.07963269 -0.07705722 0.00815005
v 0.07946414 -0.07076978 -0.14331801
v 0.07979868 -0.07391350 -0.13994387
v 0.07979741 -0.07391350 -0.14331801
v 0.07890486 -0.06842540 0.14634837
v 0.07943605 -0.07056803 -0.14331801
v 0.07705847 -0.07963272 0.14634837
v 0.07904915 -0.07904918 -0.00469439
v 0.07904915 -0.07904791 -0.14331801
v 0.07964163 -0.07685037 -0.14331801
v 0.07963141 -0.07705850 -0.06446502
v 0.07963014 -0.07705850 -0.14309119
v 0.07886017 -0.06833730 0.14634837
v 0.07888954 -0.06878293 -0.14331801
v 0.07391219 -0.07980128 0.14634837
v 0.07705847 -0.07963272 0.13364568
v 0.07705719 -0.07962762 -0.14331801
v 0.07962886 -0.07705850 -0.14331801
v 0.07705847 -0.07963145 0.03301667
v 0.07705719 -0.07963145 0.00783816
v 0.07705719 -0.07963017 -0.06761233
v 0.07724489 -0.06727875 0.14634837
v 0.07705719 -0.06801552 -0.14331801
v 0.07076974 -0.07948461 0.14634837
v 0.07391219 -0.07980128 0.14623495
v 0.07391219 -0.07978850 -0.14331801
v 0.07391219 -0.07980000 0.07075610
v 0.07391219 -0.07979745 0.00815005
v 0.07391219 -0.07979490 -0.05187576
v 0.07391219 -0.07979361 -0.07390697
v 0.07391219 -0.07979106 -0.11161804
v 0.07716572 -0.06726343 0.14634837
v 0.07391219 -0.06765033 -0.14331801
v 0.07391219 -0.06675777 0.14634837
v 0.06842536 -0.07890490 0.14634837
v 0.07056800 -0.07942842 -0.14331801
v 0.07076974 -0.07945652 -0.14331801
v 0.07370533 -0.07977830 -0.14331801
v 0.07109919 -0.06803467 -0.14331801
v 0.07357126 -0.06679353 0.14634837
v 0.06833598 -0.07886020 0.14634837
v 0.06878289 -0.07888829 -0.14331801
v 0.07076974 -0.06808192 -0.14331801
v 0.07082721 -0.06732344 0.14634837
v 0.06727743 -0.07724365 0.14634837
v 0.06801548 -0.07705850 -0.14331801
v 0.06908169 -0.06872164 -0.14331801
v 0.06939963 -0.06804106 0.14634837
v 0.06726211 -0.07716576 0.14634837
v 0.06765029 -0.07391350 -0.14331801
v 0.06675646 -0.07391223 0.14634837
v 0.06884291 -0.06884295 -0.14331801
v 0.06849559 -0.06849563 0.14634837
v 0.06679349 -0.07357130 0.14634837
v 0.06803463 -0.07110050 -0.14331801
v 0.06872160 -0.06908045 -0.14331801
v 0.06732212 -0.07082724 0.14634837
v 0.06808060 -0.07076978 -0.14331801
f 1 2 3
f 1 3 4
f 1 4 9
f 1 9 5
f 1 5 6
f 1 6 2
f 2 7 15
f 2 15 23
f 2 23 32
f 2 32 42
f 2 42 44
f 2 44 50
f 2 50 54
f 2 54 58
f 2 58 63
f 2 63 67
f 2 67 64
f 2 64 61
f 2 61 59
f 2 59 55
f 2 55 51
f 2 51 45
f 2 45 34
f 2 34 25
f 2 25 17
f 2 17 8
f 2 8 4
f 2 4 3
f 2 6 7
f 4 8 18
f 4 18 9
f 5 10 6
f 5 9 11
f 5 11 10
f 6 12 7
f 6 10 13
f 6 13 14
f 6 14 20
f 6 20 28
f 6 28 19
f 6 19 27
f 6 27 36
f 6 36 48
f 6 48 47
f 6 47 46
f 6 46 52
f 6 52 56
f 6 56 60
f 6 60 65
f 6 65 68
f 6 68 66
f 6 66 62
f 6 62 57
f 6 57 53
f 6 53 49
f 6 49 43
f 6 43 33
f 6 33 24
f 6 24 16
f 6 16 12
f 7 12 16
f 7 16 15
f 8 17 26
f 8 26 18
f 9 18 19
f 9 19 11
f 10 11 20
f 10 20 13
f 11 19 21
f 11 21 22
f 11 22 20
f 13 20 14
f 15 16 24
f 15 24 23
f 17 25 35
f 17 35 26
f 18 26 19
f 19 28 22
f 19 22 21
f 19 26 29
f 19 29 30
f 19 30 31
f 19 31 27
f 20 22 28
f 23 24 32
f 24 33 32
f 25 34 35
f 26 35 30
f 26 30 29
f 27 31 37
f 27 37 38
f 27 38 39
f 27 39 40
f 27 40 41
f 27 41 36
f 30 35 37
f 30 37 31
f 32 33 42
f 33 43 44
f 33 44 42
f 34 45 46
f 34 46 47
f 34 47 48
f 34 48 35
f 35 48 37
f 36 41 48
f 37 48 38
f 38 48 39
f 39 48 40
f 40 48 41
f 43 49 50
f 43 50 44
f 45 51 52
f 45 52 46
f 49 53 50
f 50 53 54
f 51 55 52
f 52 55 56
f 53 57 54
f 54 57 58
f 55 59 56
f 56 59 61
f 56 61 60
f 57 62 63
f 57 63 58
f 60 61 64
f 60 64 65
f 62 66 63
f 63 66 67
f 64 67 68
f 64 68 65
f 66 68 67

