# https://github.com/mikedh/trimesh
v -0.06262060 0.07391421 -0.14548807
v -0.06262060 0.07262917 -0.14572711
v -0.06262060 0.07705807 -0.14578687
v -0.06691712 0.07391295 0.14623107
v -0.06262060 0.07077034 -0.14608567
v -0.06262060 0.07921072 -0.14695219
v -0.06730053 0.07716147 0.14623107
v -0.06694066 0.07368091 0.14623107
v -0.06262060 0.06851050 -0.14757967
v -0.06262060 0.06880685 -0.14725099
v -0.06262060 0.06996326 -0.14656375
v -0.06262060 0.07978955 -0.14937248
v -0.06732575 0.07728506 0.14623107
v -0.06736275 0.07082583 0.14623107
v -0.06262060 0.06851050 -0.15896397
v -0.06849615 0.06857481 0.14623107
v -0.06852306 0.06852311 0.14623107
v -0.07082687 0.06736292 0.14623107
v -0.07368057 0.06694046 0.14623107
v -0.06262060 0.07978955 -0.15250988
v -0.07391263 0.07979838 -0.14623507
v -0.07391263 0.07978955 0.14623107
v -0.07077138 0.07947555 0.14623107
v -0.06845916 0.07889546 0.14623107
v -0.06845243 0.07889293 0.14623107
v -0.07076970 0.06851050 -0.15896397
v -0.06262060 0.07077034 -0.15896397
v -0.07391263 0.06691524 0.14623107
v -0.07391263 0.07978955 -0.15250988
v -0.07391263 0.07979460 -0.14937248
v -0.06262060 0.07944781 -0.15403377
v -0.07705725 0.07962814 -0.15250988
v -0.07705725 0.07962814 -0.11793864
v -0.07705893 0.07962687 0.01099387
v -0.07705893 0.07962562 0.13995626
v -0.07391767 0.07978955 0.14623107
v -0.07076970 0.07077034 -0.15896397
v -0.07165254 0.06851050 -0.15890422
v -0.06262060 0.07205664 -0.15887434
v -0.07716319 0.06729987 0.14623107
v -0.07978651 0.06851050 -0.15250988
v -0.07937115 0.06851050 -0.15436245
v -0.07920803 0.06851050 -0.15507957
v -0.07798886 0.06851050 -0.15666321
v -0.07641655 0.06851050 -0.15785840
v -0.07391263 0.06851050 -0.15872494
v -0.07391263 0.07920946 -0.15507957
v -0.07705725 0.07912876 -0.15496005
v -0.06262060 0.07920946 -0.15507957
v -0.07890702 0.07890806 -0.15460149
v -0.07904660 0.07904804 -0.15250988
v -0.07904660 0.07904804 -0.07389542
v -0.07904492 0.07904804 -0.01099786
v -0.07904492 0.07904678 0.07075401
v -0.07904155 0.07904552 0.14623107
v -0.07706230 0.07962435 0.14623107
v -0.07391263 0.07077034 -0.15869506
v -0.07391263 0.07391421 -0.15848589
v -0.07076970 0.07391421 -0.15869506
v -0.06262060 0.07391421 -0.15869506
v -0.07728595 0.06732383 0.14623107
v -0.07978819 0.07391421 -0.15250988
v -0.07978819 0.06851050 -0.15164336
v -0.07920803 0.07391421 -0.15507957
v -0.07798718 0.07077034 -0.15666321
v -0.07641488 0.07077034 -0.15785840
v -0.06448046 0.07798496 -0.15666321
v -0.06762508 0.07798370 -0.15666321
v -0.07076970 0.07797991 -0.15666321
v -0.07391263 0.07788407 -0.15666321
v -0.07597597 0.07597481 -0.15749984
v -0.06262060 0.07798496 -0.15666321
v -0.07912731 0.07705807 -0.15496005
v -0.07962675 0.07705807 -0.15250988
v -0.07962844 0.07705807 -0.14937248
v -0.07957295 0.07724975 0.00815526
v -0.07962844 0.07705807 0.05817450
v -0.07904323 0.07904552 0.12737674
v -0.07962340 0.07705807 0.14623107
v -0.07631566 0.07391421 -0.15773891
v -0.07391263 0.07631151 -0.15773891
v -0.07076970 0.07640735 -0.15782854
v -0.06762508 0.07641114 -0.15782854
v -0.06262060 0.07641240 -0.15782854
v -0.07885490 0.06842979 0.14623107
v -0.07978651 0.06851050 -0.14937248
v -0.07979324 0.07391421 -0.14937248
v -0.07979828 0.07391421 -0.07703282
v -0.07979659 0.07391421 -0.14623507
v -0.07978987 0.07391295 0.14623107
v -0.07979155 0.07391295 0.14309366
v -0.07979659 0.07391295 0.06134179
v -0.07788797 0.07391421 -0.15666321
v -0.07962507 0.07705807 0.12737674
v -0.07889357 0.06845753 0.14623107
v -0.07889525 0.06846258 0.14623107
v -0.07947373 0.07077034 0.14623107
f 1 2 5
f 1 5 11
f 1 11 10
f 1 10 9
f 1 9 15
f 1 15 27
f 1 27 39
f 1 39 60
f 1 60 84
f 1 84 72
f 1 72 49
f 1 49 31
f 1 31 20
f 1 20 12
f 1 12 6
f 1 6 3
f 1 3 4
f 1 4 2
f 2 4 5
f 3 6 4
f 4 7 13
f 4 13 25
f 4 25 24
f 4 24 23
f 4 23 22
f 4 22 36
f 4 36 56
f 4 56 55
f 4 55 79
f 4 79 90
f 4 90 97
f 4 97 96
f 4 96 95
f 4 95 85
f 4 85 61
f 4 61 40
f 4 40 28
f 4 28 19
f 4 19 18
f 4 18 17
f 4 17 16
f 4 16 14
f 4 14 8
f 4 8 9
f 4 9 10
f 4 10 11
f 4 11 5
f 4 6 12
f 4 12 7
f 7 12 13
f 8 14 9
f 9 14 16
f 9 16 17
f 9 17 18
f 9 18 19
f 9 19 15
f 12 20 21
f 12 21 22
f 12 22 23
f 12 23 24
f 12 24 25
f 12 25 13
f 15 26 37
f 15 37 27
f 15 19 28
f 15 28 26
f 20 29 30
f 20 30 21
f 20 31 29
f 21 30 32
f 21 32 33
f 21 33 34
f 21 34 35
f 21 35 36
f 21 36 22
f 26 28 38
f 26 38 37
f 27 37 39
f 28 40 41
f 28 41 42
f 28 42 43
f 28 43 44
f 28 44 45
f 28 45 46
f 28 46 38
f 29 31 47
f 29 47 48
f 29 48 32
f 29 32 30
f 31 49 47
f 32 48 50
f 32 50 51
f 32 51 52
f 32 52 33
f 33 52 34
f 34 52 53
f 34 53 35
f 35 53 54
f 35 54 55
f 35 55 56
f 35 56 36
f 37 38 46
f 37 46 57
f 37 57 58
f 37 58 59
f 37 59 39
f 39 59 60
f 40 61 41
f 41 62 42
f 41 61 63
f 41 63 62
f 42 62 64
f 42 64 43
f 43 64 44
f 44 64 65
f 44 65 66
f 44 66 45
f 45 66 46
f 46 66 57
f 47 49 72
f 47 72 67
f 47 67 68
f 47 68 69
f 47 69 70
f 47 70 48
f 48 70 71
f 48 71 50
f 50 71 73
f 50 73 74
f 50 74 51
f 51 74 75
f 51 75 76
f 51 76 52
f 52 76 54
f 52 54 53
f 54 76 77
f 54 77 78
f 54 78 55
f 55 78 94
f 55 94 79
f 57 66 80
f 57 80 58
f 58 80 71
f 58 71 81
f 58 81 59
f 59 81 82
f 59 82 83
f 59 83 84
f 59 84 60
f 61 85 86
f 61 86 63
f 62 87 74
f 62 74 73
f 62 73 64
f 62 63 87
f 63 88 89
f 63 89 87
f 63 86 90
f 63 90 91
f 63 91 92
f 63 92 88
f 64 73 93
f 64 93 65
f 65 93 66
f 66 93 80
f 67 72 84
f 67 84 83
f 67 83 68
f 68 83 82
f 68 82 69
f 69 82 70
f 70 82 81
f 70 81 71
f 71 80 93
f 71 93 73
f 74 87 89
f 74 89 75
f 75 89 88
f 75 88 77
f 75 77 76
f 77 92 94
f 77 94 78
f 77 88 92
f 79 91 90
f 79 94 91
f 85 95 86
f 86 95 96
f 86 96 97
f 86 97 90
f 91 94 92

