# https://github.com/mikedh/trimesh
v 0.07391328 0.06691602 0.14626052
v 0.07418931 0.06693997 0.14626052
v 0.07082530 0.06736368 0.14626052
v 0.07077110 0.06808247 -0.14331501
v 0.07391328 0.06765246 -0.14331501
v 0.07716008 0.06730189 0.14626052
v 0.07673280 0.06797780 -0.14331501
v 0.07705799 0.06801690 -0.14331501
v 0.07071312 0.06738890 0.14626052
v 0.06884395 0.06884413 -0.14331501
v 0.07885910 0.06843304 0.14626052
v 0.07869399 0.06866255 -0.14331501
v 0.07888935 0.06878235 -0.14331501
v 0.06857170 0.06849735 0.14626052
v 0.06808393 0.07076973 -0.14331501
v 0.06852507 0.06852383 0.14623217
v 0.06851877 0.06852762 0.14626052
v 0.06738819 0.07071298 0.14626052
v 0.07889439 0.06845826 0.14626052
v 0.07945905 0.07076973 -0.14331501
v 0.06765161 0.07391348 -0.14331501
v 0.06736424 0.07082521 0.14626052
v 0.06691805 0.07391348 0.14626052
v 0.07947291 0.07076469 0.14626052
v 0.07979179 0.07391348 -0.14331501
v 0.07947418 0.07077099 0.14623217
v 0.06797805 0.07673315 -0.14331501
v 0.06694074 0.07418965 0.14626052
v 0.07978927 0.07390844 0.14626052
v 0.07962794 0.07705850 -0.14331501
v 0.07962921 0.07705850 -0.12735661
v 0.07979306 0.07391348 -0.06448674
v 0.07979054 0.07391348 0.10850460
v 0.07979306 0.07391348 -0.06134041
v 0.06801713 0.07705850 -0.14331501
v 0.06729996 0.07716317 0.14626052
v 0.07978927 0.07391348 0.14623217
v 0.07962794 0.07705346 0.14626052
v 0.07959139 0.07718712 -0.14331501
v 0.07904816 0.07904841 -0.09277534
v 0.07910488 0.07885799 0.00813390
v 0.07962921 0.07705850 -0.02043816
v 0.07962794 0.07705850 0.12735421
v 0.06866245 0.07869405 -0.14331501
v 0.06843180 0.07885926 0.14626052
v 0.06878219 0.07888951 -0.14331501
v 0.07904942 0.07904463 0.14626052
v 0.07962669 0.07705850 0.14623217
v 0.07904690 0.07904967 -0.14331501
v 0.07904816 0.07904967 0.00816225
v 0.07904816 0.07904967 0.01728943
v 0.06845701 0.07889582 0.14626052
v 0.07077110 0.07946076 -0.14331501
v 0.07705295 0.07962849 0.14626052
v 0.07904816 0.07904715 0.14623217
v 0.07705799 0.07963101 -0.14331501
v 0.07705799 0.07963101 -0.12735661
v 0.07705799 0.07962849 0.14623217
v 0.07076480 0.07947842 0.14626052
v 0.07391328 0.07979241 -0.14331501
v 0.07390824 0.07979620 0.14626052
v 0.07391328 0.07979872 0.14623217
f 1 2 6
f 1 6 11
f 1 11 19
f 1 19 24
f 1 24 29
f 1 29 38
f 1 38 47
f 1 47 54
f 1 54 61
f 1 61 59
f 1 59 52
f 1 52 45
f 1 45 36
f 1 36 28
f 1 28 23
f 1 23 22
f 1 22 18
f 1 18 17
f 1 17 14
f 1 14 9
f 1 9 3
f 1 3 4
f 1 4 5
f 1 5 2
f 2 5 7
f 2 7 8
f 2 8 6
f 3 9 4
f 4 10 15
f 4 15 21
f 4 21 27
f 4 27 35
f 4 35 44
f 4 44 46
f 4 46 53
f 4 53 60
f 4 60 56
f 4 56 49
f 4 49 39
f 4 39 30
f 4 30 25
f 4 25 20
f 4 20 13
f 4 13 12
f 4 12 8
f 4 8 7
f 4 7 5
f 4 9 10
f 6 8 12
f 6 12 13
f 6 13 11
f 9 14 10
f 10 14 16
f 10 16 17
f 10 17 18
f 10 18 15
f 11 13 19
f 13 20 19
f 14 17 16
f 15 18 22
f 15 22 23
f 15 23 21
f 19 20 24
f 20 25 26
f 20 26 24
f 21 23 28
f 21 28 27
f 24 26 29
f 25 30 31
f 25 31 32
f 25 32 26
f 26 33 29
f 26 32 34
f 26 34 33
f 27 28 35
f 28 36 35
f 29 33 37
f 29 37 38
f 30 39 31
f 31 40 41
f 31 41 42
f 31 42 34
f 31 34 32
f 31 39 40
f 33 38 37
f 33 34 38
f 34 42 43
f 34 43 38
f 35 36 44
f 36 45 46
f 36 46 44
f 38 43 48
f 38 48 47
f 39 49 40
f 40 49 50
f 40 50 41
f 41 50 51
f 41 51 47
f 41 47 42
f 42 47 43
f 43 47 48
f 45 52 46
f 46 52 53
f 47 51 55
f 47 55 54
f 49 56 50
f 50 56 57
f 50 57 51
f 51 57 58
f 51 58 55
f 52 59 53
f 53 59 60
f 54 55 58
f 54 58 62
f 54 62 61
f 56 60 62
f 56 62 57
f 57 62 58
f 59 61 62
f 59 62 60

