# https://github.com/mikedh/trimesh
v 0.02972178 0.05983092 0.12295224
v 0.02944725 0.05983092 0.14310687
v 0.03053229 0.05929011 0.14310687
v 0.03064994 0.05935842 0.12295224
v -0.02951081 0.05983092 0.12295224
v 0.02895048 0.05983092 0.14624611
v 0.03480707 0.05675112 0.14570292
v 0.03301611 0.05793522 0.14310687
v 0.03301611 0.05805477 0.12424321
v 0.03301611 0.05806046 0.12295224
v -0.03054356 0.05929580 0.12295224
v -0.07774922 0.05983092 0.14798504
v 0.02844065 0.05983092 0.14777693
v 0.03457176 0.05659172 0.14779104
v 0.03597055 0.05581750 0.14654593
v 0.03855895 0.05404704 0.14624611
v 0.03878119 0.05422921 0.14310687
v 0.03649345 0.05580042 0.14310687
v 0.03492473 0.05682512 0.14310687
v 0.03502931 0.05689344 0.12295224
v -0.03200771 0.05849881 0.12295224
v -0.04229595 0.05148529 0.12295224
v -0.04386468 0.05019302 0.12295224
v -0.04556414 0.04861612 0.12295224
v -0.04713287 0.04714738 0.12295224
v -0.04925065 0.04487595 0.12295224
v -0.05016574 0.04386833 0.12295224
v -0.05147302 0.04229712 0.12295224
v -0.05304174 0.04033310 0.12295224
v -0.05340778 0.03984352 0.12295577
v -0.05419215 0.03875051 0.12295577
v -0.05483271 0.03781689 0.12295577
v -0.05576087 0.03645631 0.12295577
v -0.05679362 0.03487941 0.12295577
v -0.05786558 0.03301786 0.12295577
v -0.05925130 0.03046180 0.12295577
v -0.06003566 0.02889059 0.12295577
v -0.06042784 0.02802528 0.12295577
v -0.06100304 0.02674440 0.12295577
v -0.06228417 0.02359629 0.12295577
v -0.06288552 0.02197954 0.12295577
v -0.06339536 0.02040832 0.12295577
v -0.06377446 0.01914452 0.12295577
v -0.06431045 0.01730006 0.12295577
v -0.06463726 0.01601349 0.12295577
v -0.06509481 0.01415764 0.12295577
v -0.07921337 0.05983092 0.14955818
v -0.03301431 0.05794661 0.12295224
v -0.03492293 0.05683082 0.12295224
v -0.03649165 0.05579473 0.12295224
v -0.03785122 0.05486111 0.12295224
v -0.03876631 0.05421783 0.12295224
v -0.04034812 0.05306219 0.12295224
v 0.02837528 0.05983092 0.14787922
v 0.02842757 0.05981384 0.14787569
v 0.03246705 0.05701868 0.14804148
v 0.03814062 0.05373963 0.14800973
v 0.04014075 0.05282309 0.14624611
v 0.04036299 0.05307358 0.14310687
v 0.03888577 0.05429184 0.12295224
v 0.03753927 0.05522545 0.12295224
v 0.04045450 0.05314758 0.12295224
v 0.03659804 0.05585735 0.12295224
v -0.05339471 0.03984352 0.12295224
v -0.06568308 0.01100952 0.12295577
v -0.07921337 0.05189517 0.14955818
v -0.07980165 0.05983092 0.15254222
v -0.06599683 0.00898289 0.12295577
v -0.06617985 0.00740598 0.12295577
v -0.06641516 0.00471899 0.12295577
v -0.06648052 0.00347796 0.12295577
v -0.06657203 0.00167334 0.12295577
v 0.02672812 0.05983092 0.14806969
v 0.03615356 0.05445123 0.14812613
v -0.07390584 0.05983092 0.15897237
v 0.00785108 0.01100952 0.15890537
v 0.03923873 0.05184393 0.14819314
v 0.04148724 0.05077938 0.14804148
v 0.04363117 0.04994254 0.14624611
v 0.04206244 0.05125188 0.14624611
v 0.04232390 0.05150236 0.14310687
v 0.04241541 0.05157637 0.12295224
v -0.05339471 0.00167334 0.12295224
v -0.07921337 0.01100952 0.14956172
v -0.07978857 0.00167334 0.15254222
v -0.07974936 0.00167334 0.15568852
v -0.07977549 0.05983092 0.15418591
v -0.07920030 0.00167334 0.14956172
v -0.07705637 0.05983092 0.15875368
v -0.07390584 0.00167334 0.15897591
v -0.00787543 0.00167334 0.15898649
v -0.00472489 0.01100952 0.15898296
v 0.00785108 0.00786710 0.15896884
v 0.00470055 0.01100952 0.15896532
v 0.01100161 0.00786710 0.15890184
v 0.04569666 0.04571280 0.14821431
v 0.04249385 0.04879829 0.14821431
v 0.04471621 0.04779635 0.14804148
v 0.04689936 0.04691397 0.14624611
v 0.04389263 0.05021010 0.14310687
v 0.04334357 0.05081923 0.12295224
v 0.05374948 0.00167334 0.12295224
v -0.07922644 0.00167334 0.14965694
v -0.07973627 0.00167334 0.15575907
v -0.07974936 0.05983092 0.15568852
v -0.07705637 0.00167334 0.15875368
v -0.07917415 0.05983092 0.15789657
v -0.07910878 0.00167334 0.15792479
v 0.00795566 0.00167334 0.15896884
v 0.01100161 0.00167334 0.15896532
v 0.01100161 0.00471899 0.15896180
v 0.01415214 0.00167334 0.15878544
v 0.05374948 0.03616598 0.14821431
v 0.05373640 0.03814138 0.14800973
v 0.05182778 0.03924578 0.14819314
v 0.04879490 0.04250775 0.14821431
v 0.04778830 0.04473363 0.14804148
v 0.04716081 0.04717015 0.14310687
v 0.05076889 0.04150582 0.14804148
v 0.04991916 0.04364062 0.14624611
v 0.04862496 0.04559894 0.14310687
v 0.04398414 0.05028411 0.12295224
v 0.04627186 0.04817208 0.12295224
v 0.05374948 0.03974105 0.12295224
v 0.05374948 0.00167334 0.14847885
v -0.07917415 0.00167334 0.15789657
v 0.05374948 0.02989252 0.14847885
v 0.05374948 0.03814138 0.14799562
v 0.05029827 0.04402203 0.12295224
v 0.04893870 0.04547370 0.12295224
v 0.04725232 0.04725554 0.12295224
v 0.05019369 0.04389679 0.14310687
v 0.05123951 0.04206371 0.14624611
v 0.05374948 0.03945641 0.14310687
v 0.05316120 0.04051527 0.12295224
v 0.05374948 0.03896114 0.14624611
v 0.05280824 0.04014524 0.14624611
v 0.05148789 0.04233127 0.14310687
v 0.05148789 0.04258176 0.12295224
v 0.05305662 0.04036157 0.14310687
f 1 2 3
f 1 3 4
f 1 4 10
f 1 10 20
f 1 20 63
f 1 63 61
f 1 61 60
f 1 60 62
f 1 62 82
f 1 82 101
f 1 101 122
f 1 122 123
f 1 123 131
f 1 131 130
f 1 130 129
f 1 129 139
f 1 139 135
f 1 135 124
f 1 124 102
f 1 102 83
f 1 83 64
f 1 64 29
f 1 29 28
f 1 28 27
f 1 27 26
f 1 26 25
f 1 25 24
f 1 24 23
f 1 23 22
f 1 22 53
f 1 53 52
f 1 52 51
f 1 51 50
f 1 50 49
f 1 49 48
f 1 48 21
f 1 21 11
f 1 11 5
f 1 5 12
f 1 12 47
f 1 47 67
f 1 67 87
f 1 87 105
f 1 105 107
f 1 107 89
f 1 89 75
f 1 75 73
f 1 73 54
f 1 54 13
f 1 13 6
f 1 6 2
f 2 6 3
f 3 6 7
f 3 7 8
f 3 8 4
f 4 8 9
f 4 9 10
f 5 11 12
f 6 13 14
f 6 14 7
f 7 15 16
f 7 16 17
f 7 17 18
f 7 18 19
f 7 19 8
f 7 14 15
f 8 19 20
f 8 20 9
f 9 20 10
f 11 21 12
f 12 22 23
f 12 23 24
f 12 24 25
f 12 25 26
f 12 26 27
f 12 27 28
f 12 28 29
f 12 29 30
f 12 30 31
f 12 31 32
f 12 32 33
f 12 33 34
f 12 34 35
f 12 35 36
f 12 36 37
f 12 37 38
f 12 38 39
f 12 39 40
f 12 40 41
f 12 41 42
f 12 42 43
f 12 43 44
f 12 44 45
f 12 45 46
f 12 46 47
f 12 21 48
f 12 48 49
f 12 49 50
f 12 50 51
f 12 51 52
f 12 52 53
f 12 53 22
f 13 54 55
f 13 55 14
f 14 56 57
f 14 57 58
f 14 58 16
f 14 16 15
f 14 55 56
f 16 58 59
f 16 59 17
f 17 60 61
f 17 61 18
f 17 59 62
f 17 62 60
f 18 61 63
f 18 63 20
f 18 20 19
f 29 64 30
f 30 64 31
f 31 64 32
f 32 64 33
f 33 64 34
f 34 64 35
f 35 64 36
f 36 64 37
f 37 64 38
f 38 64 39
f 39 64 40
f 40 64 41
f 41 64 42
f 42 64 43
f 43 64 44
f 44 64 45
f 45 64 46
f 46 64 65
f 46 65 47
f 47 66 67
f 47 65 68
f 47 68 69
f 47 69 70
f 47 70 71
f 47 71 72
f 47 72 66
f 54 56 55
f 54 73 56
f 56 74 57
f 56 73 75
f 56 75 74
f 57 74 76
f 57 76 77
f 57 77 78
f 57 78 79
f 57 79 80
f 57 80 58
f 58 80 81
f 58 81 59
f 59 81 82
f 59 82 62
f 64 83 72
f 64 72 71
f 64 71 70
f 64 70 69
f 64 69 68
f 64 68 65
f 66 84 67
f 66 72 84
f 67 85 86
f 67 86 87
f 67 84 85
f 72 88 84
f 72 83 102
f 72 102 125
f 72 125 112
f 72 112 110
f 72 110 109
f 72 109 91
f 72 91 90
f 72 90 106
f 72 106 108
f 72 108 126
f 72 126 104
f 72 104 86
f 72 86 85
f 72 85 103
f 72 103 88
f 74 75 76
f 75 89 90
f 75 90 91
f 75 91 92
f 75 92 93
f 75 93 94
f 75 94 76
f 76 94 93
f 76 93 95
f 76 95 96
f 76 96 97
f 76 97 77
f 77 97 78
f 78 97 98
f 78 98 79
f 79 98 99
f 79 99 100
f 79 100 80
f 80 100 81
f 81 100 101
f 81 101 82
f 84 88 103
f 84 103 85
f 86 104 105
f 86 105 87
f 89 106 90
f 89 107 108
f 89 108 106
f 91 109 92
f 92 109 93
f 93 109 110
f 93 110 111
f 93 111 95
f 95 111 112
f 95 112 113
f 95 113 114
f 95 114 115
f 95 115 116
f 95 116 96
f 96 116 117
f 96 117 98
f 96 98 97
f 98 117 99
f 99 118 100
f 99 117 119
f 99 119 120
f 99 120 121
f 99 121 118
f 100 122 101
f 100 118 123
f 100 123 122
f 102 124 134
f 102 134 136
f 102 136 128
f 102 128 113
f 102 113 127
f 102 127 125
f 104 126 107
f 104 107 105
f 107 126 108
f 110 112 111
f 112 125 127
f 112 127 113
f 113 128 114
f 114 119 115
f 114 128 119
f 115 119 116
f 116 119 117
f 118 121 129
f 118 129 130
f 118 130 131
f 118 131 123
f 119 128 120
f 120 132 121
f 120 128 133
f 120 133 132
f 121 132 129
f 124 135 134
f 128 136 137
f 128 137 133
f 129 132 138
f 129 138 139
f 132 133 138
f 133 137 138
f 134 135 140
f 134 140 136
f 135 139 138
f 135 138 140
f 136 140 137
f 137 140 138

