# https://github.com/mikedh/trimesh
v -0.06260673 -0.02283663 -0.14366196
v -0.06242381 -0.02333912 -0.14366196
v -0.06260673 -0.02273084 -0.13681672
v -0.06260673 0.02273115 -0.14366196
v -0.06231406 -0.02361681 -0.14366196
v -0.06228967 -0.02357714 -0.13681672
v -0.06260673 -0.02269117 -0.13509509
v -0.06260673 0.02269148 -0.14172422
v -0.06249697 0.02304852 -0.14366196
v -0.06100925 -0.02672431 -0.13681672
v -0.06104583 -0.02672431 -0.14366196
v -0.06225309 -0.02357714 -0.13367213
v -0.06260673 -0.02265150 -0.13367213
v -0.06260673 0.02261214 -0.13868405
v -0.06231406 0.02353778 -0.14366196
v -0.06260673 0.02255925 -0.13681672
v -0.06097266 -0.02672431 -0.13367213
v -0.06087511 -0.02712101 -0.14366196
v -0.06004588 -0.02890616 -0.13996130
v -0.06002149 -0.02885327 -0.13367213
v -0.06209455 -0.02357714 -0.12109620
v -0.06260673 -0.02258539 -0.13181937
v -0.06221650 0.02357745 -0.13681672
v -0.06093608 0.02672462 -0.13681672
v -0.06097266 0.02672462 -0.13996130
v -0.06127753 0.02607667 -0.14366196
v -0.06260673 0.02241379 -0.13367213
v -0.06216772 0.02357745 -0.13367213
v -0.05992394 -0.02865492 -0.11885736
v -0.06081413 -0.02672431 -0.12109620
v -0.06005807 -0.02891939 -0.14366196
v -0.05941177 -0.03021528 -0.14366196
v -0.05925324 -0.03047975 -0.13996130
v -0.05924105 -0.03045330 -0.13681672
v -0.05922885 -0.03041363 -0.13367213
v -0.05921666 -0.03037396 -0.13053240
v -0.06169214 -0.02448955 -0.11885736
v -0.06205797 -0.02357714 -0.11885736
v -0.06260673 -0.02209612 -0.11885736
v -0.06260673 -0.02218869 -0.12109620
v -0.06260673 -0.02230770 -0.12424079
v -0.06087511 0.02672462 -0.13367213
v -0.05997271 0.02874780 -0.13367213
v -0.05999710 0.02880069 -0.13681672
v -0.06002149 0.02884036 -0.13996130
v -0.06100925 0.02672462 -0.14366196
v -0.06260673 0.02218899 -0.12975050
v -0.06185067 0.02357745 -0.11885736
v -0.06203358 0.02357745 -0.12738781
v -0.06081413 0.02672462 -0.13053240
v -0.05913129 -0.03022850 -0.11885736
v -0.06077755 -0.02672431 -0.11885736
v -0.05926543 -0.03049297 -0.14366196
v -0.05787526 -0.03301864 -0.13996130
v -0.05785087 -0.03301864 -0.13681672
v -0.05781429 -0.03301864 -0.13367213
v -0.05774112 -0.03301864 -0.12738781
v -0.05870449 -0.03102190 -0.11885736
v -0.06260673 0.02154105 -0.11885736
v -0.05980199 0.02840399 -0.11885736
v -0.05918007 0.03030815 -0.13367213
v -0.05920446 0.03037427 -0.13681672
v -0.06003369 0.02886681 -0.14366196
v -0.05922885 0.03041394 -0.13996130
v -0.05924105 0.03044039 -0.14310589
v -0.06260673 0.02166006 -0.12076353
v -0.06092389 0.02582543 -0.11885736
v -0.06054586 0.02672462 -0.11885736
v -0.05788746 -0.03301864 -0.14366196
v -0.05680215 -0.03489636 -0.14366196
v -0.05678995 -0.03488314 -0.13996130
v -0.05677776 -0.03486991 -0.13681672
v -0.05676556 -0.03484346 -0.13367213
v -0.05670459 -0.03475090 -0.12424079
v -0.05666801 -0.03468478 -0.11885736
v -0.05761918 -0.03301864 -0.11885736
v -0.05899715 0.02997757 -0.11885736
v -0.05742406 0.03288671 -0.11885736
v -0.05763137 0.03301895 -0.13053240
v -0.05770454 0.03301895 -0.13367213
v -0.05780210 0.03301895 -0.13996130
v -0.05924105 0.03044039 -0.14366196
v -0.05783868 0.03301895 -0.14366196
v -0.05596073 -0.03619225 -0.14366196
v -0.05575342 -0.03644349 -0.13681672
v -0.05574122 -0.03641705 -0.13367213
v -0.05568025 -0.03632448 -0.12424079
v -0.05593634 -0.03580877 -0.11885736
v -0.05652167 0.03446030 -0.11885736
v -0.05663142 0.03463220 -0.12738781
v -0.05670459 0.03475121 -0.13367213
v -0.05674117 0.03480411 -0.13681672
v -0.05677776 0.03485700 -0.14366196
v -0.05577781 -0.03646994 -0.14366196
v -0.05419253 -0.03875759 -0.13996130
v -0.05416814 -0.03873114 -0.13367213
v -0.05407058 -0.03858568 -0.11885736
v -0.05519247 -0.03693276 -0.11885736
v -0.05541197 0.03616611 -0.11885736
v -0.05559489 0.03620578 -0.12738781
v -0.05566806 0.03632479 -0.13367213
v -0.05570464 0.03637769 -0.13681672
v -0.05575342 0.03643058 -0.14366196
v -0.05549734 -0.03687987 -0.14366196
v -0.05420472 -0.03875759 -0.14366196
v -0.05304624 -0.04033117 -0.13996130
v -0.05303405 -0.04031795 -0.13681672
v -0.05302185 -0.04029150 -0.13367213
v -0.05291210 -0.04015926 -0.11885736
v -0.05391205 0.03837442 -0.11885736
v -0.05398522 0.03846698 -0.12424079
v -0.05410717 0.03862566 -0.13367213
v -0.05413155 0.03867856 -0.13681672
v -0.05415594 0.03870500 -0.13996130
v -0.05416814 0.03873145 -0.14366196
v -0.05304624 -0.04033117 -0.14366196
v -0.05147315 -0.04228823 -0.14310589
v -0.05146096 -0.04228823 -0.13681672
v -0.05144877 -0.04226178 -0.13367213
v -0.05133901 -0.04214277 -0.11885736
v -0.05275358 0.03994800 -0.11885736
v -0.05294869 0.04019925 -0.13367213
v -0.05297308 0.04025214 -0.13681672
v -0.05299746 0.04027859 -0.13996130
v -0.05302185 0.04030503 -0.14366196
v -0.05147315 -0.04228823 -0.14366196
v -0.05041223 -0.04359735 -0.14366196
v -0.05016834 -0.04386182 -0.13681672
v -0.05005859 -0.04372958 -0.12109620
v -0.05041223 -0.04325354 -0.11885736
v -0.05118049 0.04194473 -0.11885736
v -0.05137560 0.04218275 -0.13367213
v -0.05142438 0.04224887 -0.13996130
v -0.05121707 0.04253979 -0.14366196
v -0.05018054 -0.04387504 -0.14366196
v -0.05018054 -0.04387504 -0.14310589
v -0.04860745 -0.04556763 -0.13996130
v -0.04858306 -0.04554118 -0.13367213
v -0.04853428 -0.04550151 -0.12738781
v -0.05003420 -0.04370313 -0.11885736
v -0.04850989 -0.04547506 -0.12424079
v -0.04848550 -0.04544862 -0.12109620
v -0.04958301 -0.04420562 -0.11885736
v -0.04987568 0.04351832 -0.11885736
v -0.05008298 0.04375634 -0.13367213
v -0.05010737 0.04379601 -0.13681672
v -0.05013176 0.04382245 -0.13996130
v -0.05014396 0.04383568 -0.14310589
v -0.05014396 0.04383568 -0.14366196
v -0.04860745 -0.04556763 -0.14366196
v -0.04714411 -0.04714121 -0.14310589
v -0.04713192 -0.04714121 -0.13996130
v -0.04713192 -0.04712799 -0.13681672
v -0.04711972 -0.04711477 -0.13367213
v -0.04704656 -0.04704865 -0.12424079
v -0.04742458 -0.04654616 -0.11885736
v -0.04830258 0.04525058 -0.11885736
v -0.04832697 0.04529025 -0.12109620
v -0.04846112 0.04542248 -0.13053240
v -0.04849770 0.04546215 -0.13367213
v -0.04853428 0.04550182 -0.13681672
v -0.04855867 0.04552827 -0.13996130
v -0.04886353 0.04525058 -0.14366196
v -0.04714411 -0.04714121 -0.14366196
v -0.02645006 -0.06672505 -0.14366196
v -0.04542469 -0.04849000 -0.11885736
v -0.04654658 -0.04743213 -0.11885736
v -0.04699777 -0.04699575 -0.11885736
v -0.04787578 0.04571340 -0.11885736
v -0.04686364 0.04686383 -0.12109620
v -0.04703436 0.04703574 -0.13367213
v -0.04707094 0.04707541 -0.13681672
v -0.04709533 0.04710186 -0.13996130
v -0.04711972 0.04711508 -0.14366196
v -0.02358435 -0.06749200 -0.14366196
v -0.02595008 -0.06628867 -0.11885736
v -0.04374185 -0.05006358 -0.11885736
v -0.04682705 0.04682416 -0.11885736
v -0.04525396 0.04834485 -0.11885736
v -0.04532713 0.04841097 -0.12424079
v -0.04546127 0.04851675 -0.13367213
v -0.04549785 0.04855643 -0.13681672
v -0.04552224 0.04856965 -0.13996130
v -0.04581491 0.04833163 -0.14366196
v -0.02043817 -0.06754489 -0.14366196
v -0.01819439 -0.06669860 -0.11885736
v -0.02043817 -0.06665893 -0.11885736
v -0.02358435 -0.06657959 -0.11885736
v -0.04357112 0.04991844 -0.11885736
v -0.04376624 0.05009034 -0.13367213
v -0.04380282 0.05013001 -0.13681672
v -0.04382721 0.05014323 -0.13996130
v -0.04383940 0.05015646 -0.14310589
v -0.04383940 0.05015646 -0.14366196
v -0.01729199 -0.06757134 -0.14366196
v -0.01415801 -0.06673827 -0.11885736
v -0.01729199 -0.06671182 -0.11885736
v -0.04199804 0.05124077 -0.11885736
v -0.04214437 0.05137301 -0.13053240
v -0.04219314 0.05139946 -0.13367213
v -0.04222973 0.05142590 -0.13681672
v -0.04225412 0.05145235 -0.13996130
v -0.04227850 0.05145235 -0.14366196
v -0.01099964 -0.06758456 -0.14366196
v -0.01099964 -0.06673827 -0.11885736
v -0.04004692 0.05281435 -0.11885736
v -0.04024203 0.05297304 -0.13367213
v -0.04027861 0.05299948 -0.13681672
v -0.04030300 0.05302593 -0.13996130
v -0.04031520 0.05302593 -0.14366196
v -0.00207327 -0.06755812 -0.14366196
v -0.00247569 -0.06671182 -0.11885736
v -0.03892502 0.05366065 -0.11885736
v -0.03853480 0.05405735 -0.12424079
v -0.03870552 0.05416314 -0.13681672
v -0.03872991 0.05417637 -0.13996130
v -0.03902258 0.05399124 -0.14366196
v 0.06194781 -0.02456889 -0.14356240
v 0.06108200 -0.02672431 -0.14356240
v 0.06021619 -0.02861525 -0.14356240
v 0.05996011 -0.02917063 -0.14356240
v 0.05927722 -0.03050619 -0.14356240
v 0.05791143 -0.03301864 -0.14356240
v 0.05682612 -0.03492280 -0.14356240
v 0.05578959 -0.03649639 -0.14356240
v 0.05444820 -0.03845345 -0.14356240
v 0.05421650 -0.03877081 -0.14356240
v 0.05305803 -0.04034439 -0.14356240
v 0.05171663 -0.04202376 -0.14356240
v 0.05130202 -0.04253947 -0.14356240
v 0.05019232 -0.04387504 -0.14356240
v 0.04861923 -0.04558085 -0.14356240
v 0.04715589 -0.04715444 -0.14356240
v 0.04581450 -0.04841066 -0.14356240
v 0.04388777 -0.05019582 -0.14356240
v 0.04231468 -0.05149171 -0.14356240
v 0.04035137 -0.05306529 -0.14356240
v 0.03877828 -0.05421572 -0.14356240
v 0.03648571 -0.05577608 -0.14356240
v 0.03492482 -0.05680751 -0.14356240
v 0.03301028 -0.05790505 -0.14356240
v 0.03265664 -0.05810340 -0.14356240
v 0.03051041 -0.05926706 -0.14356240
v 0.02894952 -0.06006046 -0.14356240
v 0.02673012 -0.06106544 -0.14356240
v 0.02365711 -0.06232166 -0.14356240
v 0.02208402 -0.06291671 -0.14356240
v 0.02043776 -0.06345887 -0.14356240
v 0.01366982 -0.06554816 -0.14356240
v 0.01271865 -0.06582585 -0.14356240
v 0.00803596 -0.06718787 -0.14356240
v 0.00471906 -0.06737299 -0.14356240
v 0.00157288 -0.06746556 -0.14356240
v 0.00157288 -0.06664571 -0.11947170
v -0.00207327 0.06750553 -0.14366196
v -0.00207327 -0.06669860 -0.11885736
v -0.03847383 0.05399124 -0.11885736
v -0.03620565 0.05557804 -0.11885736
v -0.03631540 0.05565738 -0.12738781
v -0.03638857 0.05571028 -0.13367213
v -0.03642515 0.05573673 -0.13681672
v -0.03646174 0.05576317 -0.14366196
v -0.03874210 0.05418959 -0.14366196
v 0.06194781 0.02460887 -0.14356240
v 0.06194781 -0.02484659 -0.11947170
v 0.06177709 -0.02528296 -0.11947170
v 0.06119175 -0.02672431 -0.11947170
v 0.06011864 -0.02905162 -0.11947170
v 0.05974061 -0.02981858 -0.11947170
v 0.05933819 -0.03062520 -0.11947170
v 0.05802119 -0.03301864 -0.11947170
v 0.05687490 -0.03500215 -0.11947170
v 0.05583837 -0.03657573 -0.11947170
v 0.05426528 -0.03883693 -0.11947170
v 0.05371653 -0.03960388 -0.11947170
v 0.05311900 -0.04041051 -0.11947170
v 0.05154591 -0.04236757 -0.11947170
v 0.05091180 -0.04313453 -0.11947170
v 0.05024110 -0.04394115 -0.11947170
v 0.04946065 -0.04478745 -0.11947170
v 0.04774123 -0.04663873 -0.11947170
v 0.04720467 -0.04720733 -0.11947170
v 0.04574133 -0.04856934 -0.11947170
v 0.04393655 -0.05023549 -0.11947170
v 0.04236346 -0.05151815 -0.11947170
v 0.04141229 -0.05228511 -0.11947170
v 0.04038795 -0.05309173 -0.11947170
v 0.03958312 -0.05368679 -0.11947170
v 0.03881486 -0.05424217 -0.11947170
v 0.03652230 -0.05580253 -0.11947170
v 0.03494921 -0.05682073 -0.11947170
v 0.03402243 -0.05736289 -0.11947170
v 0.03301028 -0.05794472 -0.11947170
v 0.03571746 -0.05633147 -0.11947170
v 0.03181522 -0.05860589 -0.11947170
v 0.03054700 -0.05929350 -0.11947170
v 0.02897391 -0.06007368 -0.11947170
v 0.02790079 -0.06056295 -0.11947170
v 0.02673012 -0.06109189 -0.11947170
v 0.02365711 -0.06233488 -0.11947170
v 0.02208402 -0.06291671 -0.11947170
v 0.02129138 -0.06318118 -0.11947170
v 0.02285227 -0.06263902 -0.11947170
v 0.02043776 -0.06345887 -0.11947170
v 0.01729158 -0.06438451 -0.11947170
v 0.01891345 -0.06390847 -0.11947170
v 0.01415760 -0.06515146 -0.11947170
v 0.01101142 -0.06575974 -0.11947170
v 0.00927980 -0.06602421 -0.11947170
v 0.00770671 -0.06620934 -0.11947170
v 0.00471906 -0.06648703 -0.11947170
v 0.00319475 -0.06656636 -0.11947170
v -0.00471947 0.06742620 -0.14366196
v -0.00207327 0.06671213 -0.11885736
v -0.00156110 0.06673858 -0.11947170
v 0.00157288 0.06675180 -0.11947170
v 0.00219480 0.06745264 -0.14356240
v 0.00534098 0.06734686 -0.14356240
v 0.00803596 0.06718818 -0.14356240
v 0.00892616 0.06706916 -0.14356240
v 0.01386493 0.06557492 -0.14356240
v 0.02209621 0.06293024 -0.14356240
v 0.02366930 0.06233519 -0.14356240
v 0.02673012 0.06107897 -0.14356240
v 0.02897391 0.06007399 -0.14356240
v 0.03031530 0.05939960 -0.14356240
v 0.03090064 0.05909546 -0.14356240
v 0.03301028 0.05793180 -0.14356240
v 0.03329076 0.05777313 -0.14356240
v 0.03494921 0.05682104 -0.14356240
v 0.03629060 0.05596152 -0.14356240
v 0.03880267 0.05422926 -0.14356240
v 0.04014406 0.05325073 -0.14356240
v 0.04037576 0.05307882 -0.14356240
v 0.04233907 0.05150524 -0.14356240
v 0.04391216 0.05020935 -0.14356240
v 0.04564378 0.04860932 -0.14356240
v 0.04718028 0.04716797 -0.14356240
v 0.04835095 0.04591175 -0.14356240
v 0.04994843 0.04419271 -0.14356240
v 0.05021671 0.04390179 -0.14356240
v 0.05150933 0.04232821 -0.14356240
v 0.05308242 0.04037115 -0.14356240
v 0.05422870 0.03881079 -0.14356240
v 0.05558229 0.03685373 -0.14356240
v 0.05580179 0.03652314 -0.14356240
v 0.05683832 0.03494956 -0.14356240
v 0.05794802 0.03301895 -0.14356240
v 0.05910650 0.03090321 -0.14356240
v 0.05930160 0.03053295 -0.14356240
v 0.06008206 0.02895937 -0.14356240
v 0.06094786 0.02704198 -0.14356240
v 0.06109420 0.02671139 -0.14356240
v -0.03463256 0.05663591 -0.11885736
v -0.03481548 0.05675493 -0.13367213
v -0.03485206 0.05676815 -0.13681672
v -0.03487645 0.05678137 -0.13996130
v -0.03515692 0.05662269 -0.14366196
v 0.06171612 0.02624857 -0.11947170
v 0.06194781 0.02566675 -0.11947170
v -0.00801199 0.06724107 -0.14366196
v 0.05952111 0.03099577 -0.11947170
v 0.05841141 0.03301895 -0.11947170
v 0.05707002 0.03531982 -0.11947170
v 0.05654565 0.03613967 -0.11947170
v 0.05605787 0.03689340 -0.11947170
v 0.05530182 0.03799094 -0.11947170
v 0.05448478 0.03915460 -0.11947170
v 0.05389945 0.03997445 -0.11947170
v 0.05335070 0.04071496 -0.11947170
v 0.05265561 0.04157448 -0.11947170
v 0.05194833 0.04244722 -0.11947170
v 0.05048499 0.04421915 -0.11947170
v 0.04903385 0.04579274 -0.11947170
v 0.04746075 0.04745888 -0.11947170
v 0.04579011 0.04903247 -0.11947170
v 0.04421702 0.05047382 -0.11947170
v 0.04329024 0.05124077 -0.11947170
v 0.04070501 0.05333007 -0.11947170
v 0.03994895 0.05387223 -0.11947170
v 0.03913192 0.05445406 -0.11947170
v 0.03794905 0.05527391 -0.11947170
v 0.03683935 0.05601442 -0.11947170
v 0.03608329 0.05650368 -0.11947170
v 0.03526627 0.05701939 -0.11947170
v 0.03409559 0.05770701 -0.11947170
v 0.03301028 0.05832851 -0.11947170
v 0.03091283 0.05947894 -0.11947170
v 0.02933974 0.06024590 -0.11947170
v 0.02673012 0.06140955 -0.11947170
v 0.02404733 0.06248065 -0.11947170
v 0.02247424 0.06306248 -0.11947170
v 0.02140113 0.06340629 -0.11947170
v 0.02043776 0.06371042 -0.11947170
v 0.01881590 0.06418647 -0.11947170
v 0.01729158 0.06462284 -0.11947170
v 0.01566972 0.06500631 -0.11947170
v 0.01415760 0.06536335 -0.11947170
v 0.01147481 0.06586584 -0.11947170
v 0.01070656 0.06598485 -0.11947170
v 0.00990172 0.06610386 -0.11947170
v 0.00881641 0.06623609 -0.11947170
v 0.00786524 0.06634188 -0.11947170
v 0.00623118 0.06648733 -0.11947170
v 0.00471906 0.06661957 -0.11947170
v -0.00395122 0.06660635 -0.11885736
v 0.06152100 0.02671139 -0.11947170
v 0.06094786 0.02799406 -0.11947170
v 0.06030155 0.02942219 -0.11947170
v 0.04718028 0.04718119 -0.14310832
v -0.03301069 0.05758800 -0.11885736
v -0.03301069 0.05766734 -0.12424079
v -0.03301069 0.05779957 -0.13367213
v -0.03301069 0.05783924 -0.13681672
v -0.03455939 0.05699295 -0.14366196
v -0.03488864 0.05679459 -0.14310589
v -0.03301069 0.05786569 -0.13996130
v -0.03488864 0.05679459 -0.14366196
v -0.00471947 0.06655345 -0.11885736
v -0.01237761 0.06593195 -0.14366196
v -0.01729199 0.06431870 -0.11885736
v -0.01638960 0.06455672 -0.11885736
v -0.01415801 0.06512533 -0.11885736
v -0.01324342 0.06531045 -0.11885736
v -0.01079233 0.06579972 -0.11885736
v -0.00937777 0.06603774 -0.11885736
v -0.00854854 0.06614353 -0.11885736
v -0.00801199 0.06620964 -0.11885736
v -0.03025474 0.05913513 -0.11885736
v -0.03042546 0.05922770 -0.13367213
v -0.03046204 0.05924092 -0.13681672
v -0.03301069 0.05787891 -0.14310589
v -0.03301069 0.05787891 -0.14366196
v -0.03048643 0.05926737 -0.14310589
v -0.01358487 0.06556170 -0.14366196
v -0.02030403 0.06339306 -0.11885736
v -0.02914504 0.05971696 -0.11885736
v -0.02877920 0.05999465 -0.12738781
v -0.02885237 0.06002110 -0.13367213
v -0.02890115 0.06004755 -0.13996130
v -0.03048643 0.05926737 -0.14366196
v -0.02891334 0.06006077 -0.14366196
v -0.02043817 0.06343273 -0.14366196
v -0.02204785 0.06291702 -0.14366196
v -0.02193809 0.06287735 -0.12738781
v -0.02187712 0.06285091 -0.11885736
v -0.02869384 0.05994176 -0.11885736
v -0.02673053 0.06085417 -0.11885736
v -0.02673053 0.06095996 -0.13053240
v -0.02673053 0.06098641 -0.13367213
v -0.02673053 0.06101286 -0.13681672
v -0.02673053 0.06105253 -0.14366196
v -0.02362093 0.06232197 -0.14366196
v -0.02358435 0.06228230 -0.13367213
v -0.02358435 0.06218973 -0.11885736
f 1 2 3
f 1 3 7
f 1 7 13
f 1 13 22
f 1 22 41
f 1 41 40
f 1 40 39
f 1 39 59
f 1 59 66
f 1 66 47
f 1 47 27
f 1 27 16
f 1 16 14
f 1 14 8
f 1 8 4
f 1 4 9
f 1 9 15
f 1 15 26
f 1 26 46
f 1 46 63
f 1 63 82
f 1 82 83
f 1 83 93
f 1 93 103
f 1 103 115
f 1 115 125
f 1 125 134
f 1 134 149
f 1 149 163
f 1 163 174
f 1 174 184
f 1 184 194
f 1 194 203
f 1 203 210
f 1 210 217
f 1 217 263
f 1 263 262
f 1 262 358
f 1 358 418
f 1 418 415
f 1 415 433
f 1 433 441
f 1 441 442
f 1 442 452
f 1 452 453
f 1 453 444
f 1 444 443
f 1 443 435
f 1 435 420
f 1 420 361
f 1 361 313
f 1 313 255
f 1 255 211
f 1 211 204
f 1 204 195
f 1 195 185
f 1 185 175
f 1 175 165
f 1 165 164
f 1 164 150
f 1 150 135
f 1 135 127
f 1 127 126
f 1 126 116
f 1 116 105
f 1 105 104
f 1 104 94
f 1 94 84
f 1 84 70
f 1 70 69
f 1 69 53
f 1 53 32
f 1 32 31
f 1 31 18
f 1 18 11
f 1 11 5
f 1 5 2
f 2 5 6
f 2 6 3
f 3 6 7
f 4 8 9
f 5 10 6
f 5 11 10
f 6 10 17
f 6 17 12
f 6 12 13
f 6 13 7
f 8 14 9
f 9 14 16
f 9 16 15
f 10 11 18
f 10 18 19
f 10 19 20
f 10 20 17
f 12 21 13
f 12 17 30
f 12 30 21
f 13 21 22
f 15 16 23
f 15 23 24
f 15 24 25
f 15 25 26
f 16 27 28
f 16 28 23
f 17 20 29
f 17 29 30
f 18 31 19
f 19 31 32
f 19 32 33
f 19 33 34
f 19 34 20
f 20 34 35
f 20 35 36
f 20 36 29
f 21 30 37
f 21 37 38
f 21 38 39
f 21 39 40
f 21 40 41
f 21 41 22
f 23 28 24
f 24 28 42
f 24 42 43
f 24 43 44
f 24 44 45
f 24 45 25
f 25 46 26
f 25 45 46
f 27 47 48
f 27 48 49
f 27 49 28
f 28 49 50
f 28 50 42
f 29 36 51
f 29 51 58
f 29 58 76
f 29 76 75
f 29 75 88
f 29 88 98
f 29 98 97
f 29 97 109
f 29 109 120
f 29 120 130
f 29 130 140
f 29 140 143
f 29 143 156
f 29 156 168
f 29 168 167
f 29 167 166
f 29 166 177
f 29 177 176
f 29 176 188
f 29 188 187
f 29 187 186
f 29 186 197
f 29 197 196
f 29 196 205
f 29 205 212
f 29 212 256
f 29 256 314
f 29 314 406
f 29 406 419
f 29 419 428
f 29 428 427
f 29 427 426
f 29 426 425
f 29 425 424
f 29 424 423
f 29 423 422
f 29 422 421
f 29 421 436
f 29 436 446
f 29 446 455
f 29 455 448
f 29 448 447
f 29 447 437
f 29 437 429
f 29 429 411
f 29 411 354
f 29 354 258
f 29 258 257
f 29 257 213
f 29 213 206
f 29 206 198
f 29 198 189
f 29 189 179
f 29 179 178
f 29 178 169
f 29 169 157
f 29 157 144
f 29 144 131
f 29 131 121
f 29 121 110
f 29 110 99
f 29 99 89
f 29 89 78
f 29 78 77
f 29 77 60
f 29 60 68
f 29 68 67
f 29 67 48
f 29 48 59
f 29 59 39
f 29 39 38
f 29 38 37
f 29 37 52
f 29 52 30
f 30 52 37
f 32 53 33
f 33 53 54
f 33 54 55
f 33 55 34
f 34 55 35
f 35 55 36
f 36 55 56
f 36 56 57
f 36 57 58
f 36 58 51
f 42 50 43
f 43 50 60
f 43 60 61
f 43 61 62
f 43 62 44
f 44 62 64
f 44 64 45
f 45 63 46
f 45 64 65
f 45 65 63
f 47 66 48
f 48 67 50
f 48 50 49
f 48 66 59
f 50 67 68
f 50 68 60
f 53 69 54
f 54 69 70
f 54 70 71
f 54 71 72
f 54 72 55
f 55 72 73
f 55 73 56
f 56 73 57
f 57 73 74
f 57 74 75
f 57 75 76
f 57 76 58
f 60 77 61
f 61 78 79
f 61 79 80
f 61 80 62
f 61 77 78
f 62 80 81
f 62 81 64
f 63 65 82
f 64 81 83
f 64 83 65
f 65 83 82
f 70 84 71
f 71 84 85
f 71 85 72
f 72 85 86
f 72 86 73
f 73 86 87
f 73 87 74
f 74 87 88
f 74 88 75
f 78 89 90
f 78 90 79
f 79 90 80
f 80 90 91
f 80 91 92
f 80 92 81
f 81 92 83
f 83 92 93
f 84 94 85
f 85 94 95
f 85 95 96
f 85 96 86
f 86 96 87
f 87 96 97
f 87 97 98
f 87 98 88
f 89 99 90
f 90 99 100
f 90 100 101
f 90 101 91
f 91 101 102
f 91 102 92
f 92 102 103
f 92 103 93
f 94 104 95
f 95 104 105
f 95 105 106
f 95 106 107
f 95 107 96
f 96 107 108
f 96 108 97
f 97 108 109
f 99 110 111
f 99 111 100
f 100 111 101
f 101 111 112
f 101 112 102
f 102 112 113
f 102 113 114
f 102 114 103
f 103 114 115
f 105 116 106
f 106 116 126
f 106 126 117
f 106 117 118
f 106 118 107
f 107 118 119
f 107 119 108
f 108 119 120
f 108 120 109
f 110 121 111
f 111 121 122
f 111 122 112
f 112 122 123
f 112 123 113
f 113 123 124
f 113 124 114
f 114 124 125
f 114 125 115
f 117 126 127
f 117 127 118
f 118 127 128
f 118 128 119
f 119 128 129
f 119 129 120
f 120 129 130
f 121 131 122
f 122 131 132
f 122 132 123
f 123 132 133
f 123 133 124
f 124 133 125
f 125 133 134
f 127 135 136
f 127 136 128
f 128 136 137
f 128 137 138
f 128 138 139
f 128 139 129
f 129 140 130
f 129 139 141
f 129 141 142
f 129 142 143
f 129 143 140
f 131 144 145
f 131 145 132
f 132 145 146
f 132 146 133
f 133 146 147
f 133 147 134
f 134 147 148
f 134 148 149
f 135 150 137
f 135 137 136
f 137 150 164
f 137 164 151
f 137 151 152
f 137 152 153
f 137 153 154
f 137 154 138
f 138 154 139
f 139 154 155
f 139 155 141
f 141 155 142
f 142 155 156
f 142 156 143
f 144 157 145
f 145 157 158
f 145 158 159
f 145 159 160
f 145 160 161
f 145 161 146
f 146 161 162
f 146 162 147
f 147 162 163
f 147 163 148
f 148 163 149
f 151 164 165
f 151 165 152
f 152 165 153
f 153 165 154
f 154 165 155
f 155 166 167
f 155 167 168
f 155 168 156
f 155 165 166
f 157 169 158
f 158 169 159
f 159 169 170
f 159 170 171
f 159 171 160
f 160 171 172
f 160 172 161
f 161 172 173
f 161 173 162
f 162 173 163
f 163 173 174
f 165 175 176
f 165 176 177
f 165 177 166
f 169 178 170
f 170 178 179
f 170 179 171
f 171 179 180
f 171 180 181
f 171 181 182
f 171 182 172
f 172 182 173
f 173 182 183
f 173 183 174
f 174 183 184
f 175 185 186
f 175 186 187
f 175 187 188
f 175 188 176
f 179 189 180
f 180 189 181
f 181 189 190
f 181 190 191
f 181 191 182
f 182 191 192
f 182 192 183
f 183 192 184
f 184 192 193
f 184 193 194
f 185 195 196
f 185 196 197
f 185 197 186
f 189 198 190
f 190 198 191
f 191 198 199
f 191 199 200
f 191 200 201
f 191 201 202
f 191 202 192
f 192 202 193
f 193 202 203
f 193 203 194
f 195 204 196
f 196 204 205
f 198 206 199
f 199 206 207
f 199 207 200
f 200 207 208
f 200 208 201
f 201 208 209
f 201 209 202
f 202 209 203
f 203 209 210
f 204 211 205
f 205 211 212
f 206 213 207
f 207 213 214
f 207 214 215
f 207 215 208
f 208 215 209
f 209 215 216
f 209 216 217
f 209 217 210
f 211 218 219
f 211 219 220
f 211 220 221
f 211 221 222
f 211 222 223
f 211 223 224
f 211 224 225
f 211 225 226
f 211 226 227
f 211 227 228
f 211 228 229
f 211 229 230
f 211 230 231
f 211 231 232
f 211 232 233
f 211 233 234
f 211 234 235
f 211 235 236
f 211 236 237
f 211 237 238
f 211 238 239
f 211 239 240
f 211 240 241
f 211 241 242
f 211 242 243
f 211 243 244
f 211 244 245
f 211 245 246
f 211 246 247
f 211 247 248
f 211 248 249
f 211 249 250
f 211 250 251
f 211 251 252
f 211 252 253
f 211 253 254
f 211 254 212
f 211 255 264
f 211 264 218
f 212 254 256
f 213 257 214
f 214 258 259
f 214 259 215
f 214 257 258
f 215 259 260
f 215 260 261
f 215 261 216
f 216 261 262
f 216 262 263
f 216 263 217
f 218 264 360
f 218 360 265
f 218 265 266
f 218 266 219
f 219 266 267
f 219 267 220
f 220 267 268
f 220 268 221
f 221 268 269
f 221 269 270
f 221 270 222
f 222 270 223
f 223 270 271
f 223 271 224
f 224 271 272
f 224 272 273
f 224 273 225
f 225 273 226
f 226 273 274
f 226 274 275
f 226 275 227
f 227 275 228
f 228 276 229
f 228 275 276
f 229 276 277
f 229 277 230
f 230 277 278
f 230 278 231
f 231 278 279
f 231 279 280
f 231 280 232
f 232 280 281
f 232 281 233
f 233 281 282
f 233 282 234
f 234 282 283
f 234 283 235
f 235 283 284
f 235 284 236
f 236 284 285
f 236 285 286
f 236 286 237
f 237 287 288
f 237 288 238
f 237 286 287
f 238 289 290
f 238 290 239
f 238 288 289
f 239 290 240
f 240 291 292
f 240 292 293
f 240 293 241
f 240 290 294
f 240 294 291
f 241 293 242
f 242 293 295
f 242 295 296
f 242 296 243
f 243 296 244
f 244 297 298
f 244 298 245
f 244 296 297
f 245 298 299
f 245 299 246
f 246 299 300
f 246 300 247
f 247 301 302
f 247 302 248
f 247 300 303
f 247 303 301
f 248 302 304
f 248 304 249
f 249 305 250
f 249 304 306
f 249 306 305
f 250 305 251
f 251 305 307
f 251 307 308
f 251 308 309
f 251 309 310
f 251 310 311
f 251 311 252
f 252 311 312
f 252 312 254
f 252 254 253
f 254 312 256
f 255 313 314
f 255 314 315
f 255 315 316
f 255 316 317
f 255 317 318
f 255 318 319
f 255 319 320
f 255 320 321
f 255 321 322
f 255 322 323
f 255 323 324
f 255 324 325
f 255 325 326
f 255 326 327
f 255 327 328
f 255 328 329
f 255 329 330
f 255 330 331
f 255 331 332
f 255 332 333
f 255 333 334
f 255 334 335
f 255 335 336
f 255 336 337
f 255 337 338
f 255 338 339
f 255 339 340
f 255 340 341
f 255 341 342
f 255 342 343
f 255 343 344
f 255 344 345
f 255 345 346
f 255 346 347
f 255 347 348
f 255 348 349
f 255 349 350
f 255 350 351
f 255 351 352
f 255 352 353
f 255 353 264
f 256 312 311
f 256 311 310
f 256 310 309
f 256 309 308
f 256 308 307
f 256 307 305
f 256 305 306
f 256 306 304
f 256 304 302
f 256 302 301
f 256 301 303
f 256 303 300
f 256 300 299
f 256 299 298
f 256 298 297
f 256 297 296
f 256 296 295
f 256 295 293
f 256 293 292
f 256 292 291
f 256 291 294
f 256 294 290
f 256 290 289
f 256 289 288
f 256 288 287
f 256 287 286
f 256 286 285
f 256 285 284
f 256 284 283
f 256 283 282
f 256 282 281
f 256 281 280
f 256 280 279
f 256 279 278
f 256 278 277
f 256 277 276
f 256 276 275
f 256 275 274
f 256 274 273
f 256 273 272
f 256 272 271
f 256 271 270
f 256 270 269
f 256 269 268
f 256 268 267
f 256 267 266
f 256 266 265
f 256 265 360
f 256 360 314
f 258 354 259
f 259 354 355
f 259 355 260
f 260 355 261
f 261 355 356
f 261 356 357
f 261 357 262
f 262 357 358
f 264 353 359
f 264 359 360
f 313 361 314
f 314 362 363
f 314 363 364
f 314 364 365
f 314 365 366
f 314 366 367
f 314 367 368
f 314 368 369
f 314 369 370
f 314 370 371
f 314 371 372
f 314 372 373
f 314 373 374
f 314 374 375
f 314 375 376
f 314 376 377
f 314 377 378
f 314 378 379
f 314 379 380
f 314 380 381
f 314 381 382
f 314 382 383
f 314 383 384
f 314 384 385
f 314 385 386
f 314 386 387
f 314 387 388
f 314 388 389
f 314 389 390
f 314 390 391
f 314 391 392
f 314 392 393
f 314 393 394
f 314 394 395
f 314 395 396
f 314 396 397
f 314 397 398
f 314 398 399
f 314 399 400
f 314 400 401
f 314 401 402
f 314 402 403
f 314 403 404
f 314 404 405
f 314 405 316
f 314 316 315
f 314 361 406
f 314 360 359
f 314 359 407
f 314 407 408
f 314 408 409
f 314 409 362
f 316 405 318
f 316 318 317
f 318 405 319
f 319 405 404
f 319 404 403
f 319 403 402
f 319 402 401
f 319 401 320
f 320 401 400
f 320 400 399
f 320 399 398
f 320 398 397
f 320 397 396
f 320 396 395
f 320 395 394
f 320 394 321
f 321 394 393
f 321 393 392
f 321 392 322
f 322 392 391
f 322 391 323
f 323 391 390
f 323 390 324
f 324 390 389
f 324 389 325
f 325 389 388
f 325 388 326
f 326 388 327
f 327 388 387
f 327 387 328
f 328 387 329
f 329 387 386
f 329 386 330
f 330 386 385
f 330 385 384
f 330 384 331
f 331 384 383
f 331 383 382
f 331 382 332
f 332 382 381
f 332 381 380
f 332 380 379
f 332 379 333
f 333 379 334
f 334 379 335
f 335 379 378
f 335 378 336
f 336 378 377
f 336 377 376
f 336 376 337
f 337 376 410
f 337 410 338
f 338 410 339
f 339 410 374
f 339 374 340
f 340 374 373
f 340 373 341
f 341 373 372
f 341 372 342
f 342 372 371
f 342 371 370
f 342 370 343
f 343 370 369
f 343 369 344
f 344 369 368
f 344 368 367
f 344 367 345
f 345 367 366
f 345 366 346
f 346 366 347
f 347 366 365
f 347 365 364
f 347 364 363
f 347 363 348
f 348 363 362
f 348 362 349
f 349 362 350
f 350 362 409
f 350 409 351
f 351 409 408
f 351 408 352
f 352 408 407
f 352 407 353
f 353 407 359
f 354 411 355
f 355 411 412
f 355 412 413
f 355 413 414
f 355 414 356
f 356 414 357
f 357 415 416
f 357 416 358
f 357 414 417
f 357 417 415
f 358 416 418
f 361 419 406
f 361 420 421
f 361 421 422
f 361 422 423
f 361 423 424
f 361 424 425
f 361 425 426
f 361 426 427
f 361 427 428
f 361 428 419
f 374 410 375
f 375 410 376
f 411 429 412
f 412 429 413
f 413 429 414
f 414 429 430
f 414 430 431
f 414 431 417
f 415 418 416
f 415 417 432
f 415 432 433
f 417 431 434
f 417 434 432
f 420 435 421
f 421 435 436
f 429 437 430
f 430 437 438
f 430 438 439
f 430 439 431
f 431 439 440
f 431 440 434
f 432 434 441
f 432 441 433
f 434 440 442
f 434 442 441
f 435 443 436
f 436 443 444
f 436 444 445
f 436 445 446
f 437 447 438
f 438 448 439
f 438 447 448
f 439 448 449
f 439 449 450
f 439 450 451
f 439 451 440
f 440 451 452
f 440 452 442
f 444 453 445
f 445 453 454
f 445 454 446
f 446 454 455
f 448 455 449
f 449 455 450
f 450 455 451
f 451 455 454
f 451 454 452
f 452 454 453

