# https://github.com/mikedh/trimesh
v -0.01417216 -0.09493691 0.09090213
v -0.01326604 -0.09660545 0.09050504
v -0.01177129 -0.09660545 0.09050504
v -0.01079026 -0.09462004 0.09072726
v -0.01397595 -0.09174344 0.09078919
v -0.01591662 -0.09226826 0.09046860
v -0.01591662 -0.09403086 0.09046860
v -0.01321253 -0.09657574 0.08852688
v -0.01476435 -0.09590238 0.08852688
v -0.01121478 -0.09657574 0.08852688
v -0.00776510 -0.09520428 0.08542303
v -0.00966296 -0.09574890 0.08852688
v -0.00547839 -0.09386748 0.08542303
v -0.00593858 -0.09352585 0.08727733
v -0.00918136 -0.09350109 0.09017717
v -0.00918136 -0.09294161 0.09017717
v -0.01086874 -0.09224846 0.09057061
v -0.01086874 -0.09069876 0.08984201
v -0.01397595 -0.09018879 0.09003509
v -0.01864925 -0.08994618 0.08700046
v -0.01636968 -0.08630216 0.08740119
v -0.01843878 -0.08787662 0.08676002
v -0.01633044 -0.09435269 0.08852688
v -0.01864925 -0.09012443 0.08700046
v -0.01263461 -0.09636283 0.08684381
v -0.01379045 -0.09526368 0.08565255
v -0.01620915 -0.09383776 0.08542303
v -0.01146450 -0.09636283 0.08684381
v -0.00776510 -0.09446161 0.08231554
v -0.00528575 -0.09376350 0.08231554
v 0.00390032 -0.08756469 0.07610420
v 0.00351148 -0.08736170 0.07804229
v -0.00574595 -0.09163452 0.08739755
v -0.00586010 -0.08949564 0.08723726
v -0.00779364 -0.08849055 0.08767442
v -0.00884602 -0.08670815 0.08714253
v -0.01086874 -0.08852521 0.08869446
v -0.01397595 -0.08852521 0.08908062
v -0.02190630 -0.08049450 0.08090934
v -0.01397595 -0.08601994 0.08757605
v -0.01397595 -0.08446529 0.08658151
v -0.01549567 -0.08076185 0.08386747
v -0.01844948 -0.07773176 0.08070898
v -0.02019037 -0.07984589 0.08138657
v -0.01873487 -0.09026306 0.08542303
v -0.01875628 -0.09027296 0.08342666
v -0.02190630 -0.08116289 0.08090934
v -0.02215601 -0.08155899 0.07920805
v -0.01397595 -0.09369914 0.08298950
v -0.01213160 -0.09310995 0.08088748
v -0.01100430 -0.09406057 0.08207875
v -0.01006251 -0.09336741 0.08045760
v -0.00776510 -0.09347139 0.08025360
v -0.01575252 -0.09334265 0.08360517
v -0.01834959 -0.08979270 0.08135743
v -0.00568530 -0.09338722 0.08038839
v -0.00068023 -0.08987687 0.07545575
v 0.00004752 -0.09010957 0.07752863
v 0.00375763 -0.08737160 0.07352859
v 0.01003983 -0.08128172 0.06678902
v 0.00985789 -0.08121240 0.06889468
v 0.01258696 -0.07800903 0.06571433
v 0.00626195 -0.08406920 0.07464700
v 0.00362920 -0.08542086 0.07813700
v -0.00263873 -0.08852521 0.08434834
v -0.00280997 -0.08647545 0.08411519
v -0.00677693 -0.08742606 0.08676730
v -0.01086874 -0.08632196 0.08738298
v -0.00572454 -0.08350478 0.08408969
v -0.00776510 -0.08300471 0.08443578
v -0.00776510 -0.08145006 0.08343031
v -0.01086874 -0.08476731 0.08639572
v -0.02019037 -0.07829124 0.08026817
v -0.02203472 -0.07717724 0.07808964
v -0.02224877 -0.07936069 0.07915705
v -0.01227073 -0.08072224 0.08390026
v -0.01342657 -0.08072224 0.08390026
v -0.01426848 -0.08200459 0.08481465
v -0.01426848 -0.07949437 0.08293850
v -0.01397595 -0.07714753 0.08115342
v -0.01397595 -0.07559783 0.07992573
v -0.01638038 -0.07734558 0.08100770
v -0.01728294 -0.07622662 0.07981279
v -0.01708316 -0.07406793 0.07806415
v -0.01885973 -0.07441451 0.07776906
v -0.02213104 -0.08142035 0.07672352
v -0.02339390 -0.06989414 0.06678902
v -0.01397595 -0.09274852 0.08143393
v -0.01304486 -0.09037198 0.07722626
v -0.01086874 -0.08973329 0.07506594
v -0.01086874 -0.09075322 0.07661787
v -0.01100430 -0.09243659 0.07933556
v -0.00889597 -0.09002540 0.07463243
v -0.00782218 -0.09089680 0.07584191
v -0.00776510 -0.09259504 0.07869803
v -0.00466145 -0.09021849 0.07430456
v -0.00466145 -0.09118396 0.07610420
v -0.00274932 -0.09018879 0.07434827
v -0.01628050 -0.09060468 0.08002044
v -0.01511395 -0.08987192 0.07795121
v -0.01403660 -0.09114436 0.07907691
v -0.01863142 -0.08697056 0.07766342
v -0.01745774 -0.08879752 0.07884375
v -0.02106082 -0.08240067 0.07585284
v 0.00185263 -0.08792118 0.07269434
v 0.00309052 -0.08697056 0.07145936
v 0.00974017 -0.08100446 0.06467607
v 0.01246567 -0.07770701 0.06202031
v 0.01257625 -0.07795952 0.06368153
v 0.01029311 -0.07920720 0.06925170
v 0.01305072 -0.07588004 0.06345566
v 0.01263333 -0.07610285 0.06572890
v 0.01164873 -0.07610285 0.06728083
v 0.00626195 -0.08353944 0.07464700
v 0.01009334 -0.07610285 0.06902947
v 0.00340089 -0.08305917 0.07791479
v 0.00034719 -0.08542086 0.08110606
v 0.00012601 -0.08366321 0.08086562
v -0.00166483 -0.08249970 0.08140843
v -0.00365901 -0.08440588 0.08360517
v -0.00277073 -0.08042518 0.08096035
v -0.00466145 -0.07985085 0.08137929
v -0.00466145 -0.07830114 0.08035924
v -0.00673768 -0.07781098 0.08064704
v -0.00776866 -0.07899430 0.08172173
v -0.01019807 -0.08100941 0.08369625
v -0.01108992 -0.08215312 0.08466528
v -0.02001200 -0.07612760 0.07857053
v -0.02162090 -0.06531435 0.06825351
v -0.02249849 -0.06738392 0.06912055
v -0.02294084 -0.06652242 0.06704403
v -0.01086874 -0.07571666 0.07988929
v -0.01086874 -0.07368175 0.07833373
v -0.00881035 -0.07750401 0.08087291
v -0.00776510 -0.07399862 0.07806779
v -0.00776510 -0.07244397 0.07690567
v -0.01086874 -0.07213205 0.07711332
v -0.01159649 -0.06514106 0.07152493
v -0.01278444 -0.06514106 0.07152493
v -0.01397595 -0.07368175 0.07837016
v -0.01485353 -0.06541337 0.07129543
v -0.01708316 -0.07251329 0.07674902
v -0.01708316 -0.07069127 0.07519345
v -0.01708316 -0.06579461 0.07096027
v -0.01708316 -0.06401716 0.06940470
v -0.01899529 -0.07112697 0.07482186
v -0.01955181 -0.06463605 0.06887646
v -0.02169225 -0.08064798 0.07465064
v -0.02243427 -0.06990404 0.06375439
v -0.02326191 -0.06678979 0.06368153
v -0.02193127 -0.06272492 0.05534995
v -0.02235579 -0.06685910 0.06048661
v -0.01221365 -0.08690124 0.07154680
v -0.01105425 -0.08809447 0.07274534
v -0.00682330 -0.09015413 0.07442113
v -0.01014099 -0.08723297 0.07109142
v -0.00776510 -0.08753994 0.07059232
v -0.00466145 -0.08675766 0.06865060
v -0.00466145 -0.08778254 0.07020616
v -0.00466145 -0.08933225 0.07274899
v -0.00155424 -0.08676261 0.06871253
v -0.00155424 -0.08767362 0.07026445
v 0.00155297 -0.08510894 0.06678902
v 0.00317614 -0.08389096 0.06519338
v 0.00101786 -0.08732704 0.07073805
v -0.01565977 -0.08706463 0.07442113
v -0.01397595 -0.08643584 0.07220254
v -0.01937344 -0.08481682 0.07610420
v -0.01884189 -0.08410386 0.07424627
v -0.01808204 -0.08328693 0.07217704
v -0.01600937 -0.08425734 0.07094934
v -0.01958748 -0.08227690 0.07312422
v 0.00672928 -0.08097475 0.06174709
v 0.00776382 -0.08145997 0.06365603
v 0.00879837 -0.08053905 0.06260684
v 0.00977227 -0.07795457 0.05847566
v 0.01083179 -0.07835561 0.06082176
v 0.01305072 -0.07567705 0.06035182
v 0.01248707 -0.07461256 0.05577983
v 0.01305072 -0.07352826 0.05495651
v 0.01305072 -0.07391445 0.05586726
v 0.01305072 -0.07290937 0.06364510
v 0.01253701 -0.07415210 0.06541196
v 0.01218741 -0.07207758 0.06493108
v 0.00300134 -0.08098466 0.07757963
v 0.00959390 -0.07402338 0.06859596
v 0.00232710 -0.07920720 0.07714247
v 0.00077171 -0.07920720 0.07816615
v -0.00070163 -0.08159365 0.08034467
v 0.00009747 -0.07754858 0.07771806
v -0.00155424 -0.07695444 0.07816251
v -0.00155424 -0.07540474 0.07712425
v -0.00360193 -0.07476109 0.07749948
v -0.00464718 -0.07591966 0.07867617
v -0.00567103 -0.07432044 0.07782371
v -0.00776866 -0.07632070 0.07978001
v -0.01953754 -0.06145247 0.06587462
v -0.01934490 -0.05833822 0.06281449
v -0.01925928 -0.05528338 0.05968514
v -0.02161020 -0.06223970 0.06503673
v -0.02230228 -0.06431423 0.06618064
v -0.02181711 -0.05572898 0.05613685
v -0.02185635 -0.05420404 0.05368510
v -0.00776510 -0.07041401 0.07535010
v -0.00776510 -0.06886431 0.07413698
v -0.01086874 -0.07019616 0.07556140
v -0.01086874 -0.06864151 0.07430820
v -0.00952383 -0.06525989 0.07142657
v -0.00831091 -0.06196244 0.06848302
v -0.01086874 -0.06183371 0.06860688
v -0.01086874 -0.06027906 0.06719704
v -0.01341587 -0.06190303 0.06854859
v -0.01548853 -0.06214068 0.06833001
v -0.01708316 -0.06246251 0.06803857
v -0.01777881 -0.05938291 0.06488372
v -0.01915226 -0.07828134 0.06759048
v -0.01903097 -0.08121735 0.07089834
v -0.02203115 -0.06886926 0.06146657
v -0.02155669 -0.06793845 0.05939370
v -0.02086818 -0.06990404 0.06048661
v -0.02194911 -0.05484273 0.05368510
v -0.02225233 -0.05747177 0.05436270
v -0.02219169 -0.05743712 0.05368510
v -0.02203115 -0.06022460 0.05368510
v -0.02135335 -0.06241300 0.05368510
v -0.02157096 -0.06479448 0.05630443
v -0.02197764 -0.06586888 0.05837366
v -0.02176717 -0.06119502 0.05368510
v -0.00846431 -0.08357409 0.06560868
v -0.00756175 -0.08473265 0.06670159
v -0.00776510 -0.08645564 0.06903676
v -0.01381185 -0.08475741 0.06990744
v -0.01266671 -0.08399989 0.06817700
v -0.01011959 -0.07492943 0.05543010
v -0.00776510 -0.07449868 0.05368510
v -0.00776510 -0.07539979 0.05482536
v -0.00155424 -0.08552978 0.06678902
v -0.00639165 -0.08393057 0.06515331
v -0.00466145 -0.08406426 0.06496023
v -0.00103340 -0.07779613 0.05571426
v -0.00155424 -0.08044993 0.05944835
v -0.00155424 -0.08155899 0.06100027
v 0.00155297 -0.07682076 0.05400568
v -0.00155424 -0.08311363 0.06321522
v -0.00155424 -0.08418803 0.06477079
v 0.00465661 -0.07784069 0.05563775
v 0.00155297 -0.08308393 0.06339738
v 0.00155297 -0.08405435 0.06494930
v 0.00640821 -0.07771692 0.05581990
v -0.01473938 -0.08342061 0.06888011
v -0.01826041 -0.08035586 0.06882911
v -0.01713667 -0.08232146 0.06988922
v -0.01619131 -0.08135103 0.06760141
v -0.01509969 -0.08050439 0.06553218
v 0.00757118 -0.07827639 0.05745197
v 0.00848087 -0.07738519 0.05640643
v 0.00776382 -0.07996968 0.06065782
v 0.01017896 -0.07490963 0.05368510
v 0.01163089 -0.07412240 0.05371060
v 0.01305072 -0.07284501 0.05368510
v 0.01305072 -0.06989414 0.06253034
v 0.01305072 -0.06881975 0.06211868
v 0.01305072 -0.06726014 0.06141922
v 0.01262263 -0.06786418 0.06238826
v 0.00361850 -0.07685047 0.07497851
v 0.00289788 -0.07478090 0.07442842
v 0.00901598 -0.07195380 0.06809322
v 0.00632259 -0.07436005 0.07153951
v 0.00082522 -0.07390455 0.07503316
v -0.00079438 -0.07183498 0.07426084
v -0.00171834 -0.07291928 0.07541932
v -0.00286348 -0.07132997 0.07463971
v -0.00466145 -0.07091407 0.07494937
v -0.00464718 -0.07316683 0.07663609
v -0.00466145 -0.06935942 0.07376175
v -0.01789296 -0.05626865 0.06175437
v -0.01795361 -0.05321381 0.05858495
v -0.01795718 -0.05018372 0.05539367
v -0.01917010 -0.05225824 0.05651572
v -0.01933776 -0.04993122 0.05368510
v -0.02135335 -0.05351583 0.05436270
v -0.02149961 -0.05326827 0.05368510
v -0.00776510 -0.06696308 0.07258505
v -0.00466145 -0.06740868 0.07221347
v -0.00624181 -0.06213573 0.06833730
v -0.00776510 -0.06540842 0.07130271
v -0.00747257 -0.06337351 0.06955407
v -0.00747257 -0.06078407 0.06735733
v -0.00776510 -0.05866004 0.06556132
v -0.00776510 -0.05710539 0.06415512
v -0.01086874 -0.05858083 0.06564511
v -0.01086874 -0.05535764 0.06264691
v -0.01086874 -0.05213942 0.05964871
v -0.01086874 -0.05058476 0.05819150
v -0.01397595 -0.05234736 0.05945563
v -0.01397595 -0.05875411 0.06548846
v -0.01426134 -0.06074942 0.06729540
v -0.01570971 -0.05895216 0.06530267
v -0.01687982 -0.06048206 0.06627535
v -0.01582387 -0.05578344 0.06225347
v -0.01588095 -0.05261472 0.05920791
v -0.01588451 -0.04946086 0.05614413
v -0.01856364 -0.07447393 0.06222068
v -0.01929852 -0.06971590 0.05772156
v -0.01923431 -0.07222117 0.06057404
v -0.01870633 -0.07152306 0.05892739
v -0.01841737 -0.07741984 0.06551761
v -0.02101444 -0.06685910 0.05739005
v -0.01938771 -0.06665116 0.05452663
v -0.01881336 -0.06855734 0.05567054
v -0.02067911 -0.06369533 0.05368510
v -0.02103228 -0.06372999 0.05433355
v -0.00705162 -0.08105397 0.06175073
v -0.01388320 -0.08225709 0.06685459
v -0.01218868 -0.07442937 0.05606034
v -0.01103998 -0.07360748 0.05438091
v -0.01098647 -0.07305295 0.05368510
v -0.00898872 -0.07396396 0.05368510
v -0.00525008 -0.07534038 0.05368510
v 0.00155297 -0.08153423 0.06097841
v -0.00462935 -0.07551862 0.05368510
v -0.00310250 -0.07765255 0.05591462
v -0.00186461 -0.07683066 0.05455213
v -0.00175402 -0.07620187 0.05368510
v 0.00155297 -0.07659301 0.05368510
v 0.00465661 -0.07651874 0.05368510
v 0.00155297 -0.07790010 0.05556125
v 0.00155297 -0.08049450 0.05942285
v 0.00465661 -0.07679105 0.05408583
v 0.00764610 -0.07593946 0.05368510
v 0.00757118 -0.07656825 0.05461407
v -0.01730434 -0.07939535 0.06655951
v -0.01634471 -0.07843483 0.06430812
v -0.01538151 -0.07756343 0.06223889
v 0.01162019 -0.07411250 0.05368510
v 0.01305072 -0.05529823 0.05368510
v 0.01305072 -0.06367058 0.05946656
v 0.01291873 -0.06368048 0.05964143
v 0.01208752 -0.06579461 0.06182723
v 0.00557700 -0.07229048 0.07101491
v 0.00615136 -0.06839395 0.06830816
v 0.00350434 -0.07110222 0.07170344
v 0.00694332 -0.07046847 0.06894204
v 0.00951542 -0.06807213 0.06539739
v 0.00155297 -0.07046352 0.07219889
v -0.00014868 -0.06841375 0.07139379
v 0.00317257 -0.06208622 0.06526988
v -0.00222135 -0.06792359 0.07177266
v -0.00155424 -0.06457168 0.06888739
v -0.01686555 -0.04830725 0.05419148
v -0.01711527 -0.04802008 0.05368510
v -0.01814625 -0.04884197 0.05368510
v -0.00466145 -0.06585402 0.07094934
v -0.00465075 -0.06037313 0.06637736
v -0.00567460 -0.05883333 0.06539739
v -0.00466145 -0.06397260 0.06939742
v -0.00524651 -0.05562501 0.06240283
v -0.00776510 -0.05540716 0.06260320
v -0.00776510 -0.05385250 0.06115692
v -0.00776510 -0.05218893 0.05960499
v -0.00776510 -0.05063427 0.05814779
v -0.00776510 -0.04899545 0.05659222
v -0.01086874 -0.04895584 0.05663958
v -0.01397595 -0.05079766 0.05798021
v -0.01397595 -0.04917369 0.05642829
v -0.01397595 -0.04761904 0.05483629
v -0.01397595 -0.04653475 0.05368510
v -0.01640892 -0.04752002 0.05368510
v -0.01745417 -0.07645438 0.06326258
v -0.01782518 -0.07063186 0.05685452
v -0.01785016 -0.07377582 0.06057404
v -0.01916653 -0.06618080 0.05368510
v -0.01807490 -0.06750275 0.05368510
v -0.01785016 -0.06776021 0.05368510
v -0.01309837 -0.07181022 0.05368510
v -0.01165714 -0.07268162 0.05368510
v -0.00274932 -0.07596917 0.05368510
v -0.01629833 -0.07529581 0.06057404
v -0.01558842 -0.07460266 0.05896018
v -0.01369056 -0.07213205 0.05453756
v 0.01302575 -0.05526852 0.05368510
v 0.01284381 -0.05851151 0.05630078
v 0.01305072 -0.05832832 0.05597291
v 0.01305072 -0.06271996 0.05888368
v 0.01305072 -0.06119502 0.05794742
v 0.01251561 -0.06200205 0.05911319
v 0.01098162 -0.06344283 0.06133543
v 0.01001842 -0.06431918 0.06269792
v 0.00919079 -0.06224961 0.06205310
v 0.00711812 -0.06146238 0.06263598
v 0.00524167 -0.06283879 0.06470886
v 0.00493487 -0.06667096 0.06770342
v 0.00408226 -0.06762653 0.06886918
v 0.00564835 -0.05938786 0.06183816
v 0.00357569 -0.05875411 0.06236276
v 0.00155297 -0.06018499 0.06427534
v 0.00155297 -0.06173964 0.06555768
v -0.00155424 -0.06301703 0.06761963
v -0.00360907 -0.05920467 0.06508045
v -0.00317741 -0.05593692 0.06210775
v -0.00278500 -0.05269889 0.05912412
v -0.00155424 -0.06113561 0.06606770
v -0.00466145 -0.05246124 0.05934999
v -0.00466145 -0.04926281 0.05633357
v -0.00466145 -0.04770816 0.05486179
v -0.00466145 -0.05090659 0.05788549
v -0.00776510 -0.04744080 0.05509495
v -0.01086874 -0.04740614 0.05509130
v -0.01086874 -0.04604458 0.05368510
v -0.01122191 -0.04609905 0.05368510
v -0.01684771 -0.06964163 0.05464686
v -0.01575252 -0.07164189 0.05569240
v -0.01641963 -0.06920594 0.05368510
v -0.01447539 -0.07082495 0.05368510
v 0.01143468 -0.05378814 0.05368510
v 0.01187348 -0.05644194 0.05553211
v 0.01159522 -0.05992753 0.05837001
v 0.00952612 -0.05883828 0.05917148
v 0.00799927 -0.06048701 0.06137914
v 0.00776382 -0.05819464 0.05969607
v 0.00598725 -0.05603100 0.05892739
v 0.00155297 -0.05678852 0.06135000
v 0.00155297 -0.05833822 0.06272342
v 0.00629048 -0.05276326 0.05595834
v 0.00391816 -0.05553589 0.05936456
v 0.00155297 -0.05174828 0.05685816
v -0.00155424 -0.05958095 0.06475986
v -0.00155424 -0.05778370 0.06320794
v -0.00155424 -0.05622904 0.06185273
v -0.00071233 -0.05306528 0.05879989
v -0.00039840 -0.04981734 0.05581626
v -0.00247107 -0.04953017 0.05607856
v -0.00314174 -0.04686152 0.05368510
v -0.00466145 -0.04649018 0.05368510
v -0.00531786 -0.04638126 0.05368510
v -0.00776510 -0.04602973 0.05368510
v -0.00805762 -0.04602973 0.05368510
v -0.01468587 -0.07065166 0.05368510
v 0.01035733 -0.05290684 0.05368510
v 0.01096379 -0.05428820 0.05442463
v 0.00980081 -0.05551608 0.05624249
v 0.00776382 -0.05663999 0.05842101
v 0.00835958 -0.05344651 0.05538639
v 0.00772458 -0.05109473 0.05368510
v 0.00705391 -0.05072835 0.05368510
v 0.00576251 -0.05007480 0.05368510
v 0.00465661 -0.05085212 0.05485815
v 0.00465661 -0.05240678 0.05627893
v 0.00155297 -0.05019363 0.05547018
v 0.00155297 -0.04853995 0.05391461
v 0.00155297 -0.04830229 0.05368510
v -0.00084433 -0.04746061 0.05368510
v -0.00134020 -0.04808940 0.05441734
v -0.00183250 -0.04719820 0.05368510
v 0.00975087 -0.05243153 0.05368510
v 0.00465661 -0.04958959 0.05368510
v 0.00411080 -0.04935689 0.05368510
v 0.00271594 -0.04877760 0.05368510
f 1 2 3
f 1 3 4
f 1 4 5
f 1 5 6
f 1 6 7
f 1 7 2
f 2 8 10
f 2 10 3
f 2 7 9
f 2 9 8
f 3 10 11
f 3 11 12
f 3 12 13
f 3 13 14
f 3 14 15
f 3 15 4
f 4 15 16
f 4 16 17
f 4 17 5
f 5 17 18
f 5 18 19
f 5 19 6
f 6 20 24
f 6 24 7
f 6 19 21
f 6 21 22
f 6 22 20
f 7 23 9
f 7 24 23
f 8 9 25
f 8 25 28
f 8 28 10
f 9 26 25
f 9 23 27
f 9 27 26
f 10 28 11
f 11 28 29
f 11 29 30
f 11 30 13
f 11 13 12
f 13 30 31
f 13 31 32
f 13 32 14
f 14 33 15
f 14 32 33
f 15 33 16
f 16 33 34
f 16 34 35
f 16 35 17
f 17 35 18
f 18 35 36
f 18 36 37
f 18 37 19
f 19 37 38
f 19 38 21
f 20 22 39
f 20 39 47
f 20 47 24
f 21 38 40
f 21 40 41
f 21 41 42
f 21 42 43
f 21 43 44
f 21 44 39
f 21 39 22
f 23 24 45
f 23 45 46
f 23 46 27
f 24 47 48
f 24 48 45
f 25 26 49
f 25 49 50
f 25 50 51
f 25 51 52
f 25 52 53
f 25 53 29
f 25 29 28
f 26 27 54
f 26 54 49
f 27 46 55
f 27 55 54
f 29 53 56
f 29 56 30
f 30 56 57
f 30 57 58
f 30 58 31
f 31 58 59
f 31 59 60
f 31 60 61
f 31 61 32
f 32 61 62
f 32 62 63
f 32 63 64
f 32 64 33
f 33 65 34
f 33 64 65
f 34 65 66
f 34 66 67
f 34 67 35
f 35 67 36
f 36 68 37
f 36 67 69
f 36 69 70
f 36 70 71
f 36 71 72
f 36 72 68
f 37 68 38
f 38 68 40
f 39 44 73
f 39 73 74
f 39 74 75
f 39 75 47
f 40 68 72
f 40 72 41
f 41 72 76
f 41 76 77
f 41 77 78
f 41 78 42
f 42 78 77
f 42 77 79
f 42 79 80
f 42 80 81
f 42 81 82
f 42 82 43
f 43 82 83
f 43 83 84
f 43 84 85
f 43 85 73
f 43 73 44
f 45 48 46
f 46 48 86
f 46 86 55
f 47 75 48
f 48 75 87
f 48 87 86
f 49 54 88
f 49 88 50
f 50 88 89
f 50 89 90
f 50 90 91
f 50 91 92
f 50 92 52
f 50 52 51
f 52 92 93
f 52 93 94
f 52 94 95
f 52 95 53
f 53 95 96
f 53 96 97
f 53 97 98
f 53 98 56
f 54 55 99
f 54 99 100
f 54 100 101
f 54 101 88
f 55 102 103
f 55 103 99
f 55 86 104
f 55 104 102
f 56 98 57
f 57 98 105
f 57 105 59
f 57 59 58
f 59 105 106
f 59 106 107
f 59 107 60
f 60 107 108
f 60 108 109
f 60 109 62
f 60 62 61
f 62 110 63
f 62 109 111
f 62 111 112
f 62 112 113
f 62 113 110
f 63 114 64
f 63 110 114
f 64 114 110
f 64 110 113
f 64 113 115
f 64 115 116
f 64 116 117
f 64 117 65
f 65 117 66
f 66 117 116
f 66 116 118
f 66 118 119
f 66 119 120
f 66 120 67
f 67 120 69
f 69 120 121
f 69 121 122
f 69 122 70
f 70 122 71
f 71 122 123
f 71 123 124
f 71 124 125
f 71 125 126
f 71 126 72
f 72 126 127
f 72 127 76
f 73 85 128
f 73 128 74
f 74 128 129
f 74 129 130
f 74 130 75
f 75 130 131
f 75 131 87
f 76 132 133
f 76 133 80
f 76 80 77
f 76 127 126
f 76 126 134
f 76 134 135
f 76 135 136
f 76 136 132
f 77 80 79
f 80 133 137
f 80 137 81
f 81 137 138
f 81 138 139
f 81 139 140
f 81 140 82
f 82 140 139
f 82 139 141
f 82 141 84
f 82 84 83
f 84 141 142
f 84 142 85
f 85 142 143
f 85 143 144
f 85 144 145
f 85 145 146
f 85 146 147
f 85 147 129
f 85 129 128
f 86 148 104
f 86 87 149
f 86 149 148
f 87 131 150
f 87 150 151
f 87 151 152
f 87 152 149
f 88 101 89
f 89 101 100
f 89 100 153
f 89 153 90
f 90 154 93
f 90 93 91
f 90 153 154
f 91 93 92
f 93 155 94
f 93 154 156
f 93 156 157
f 93 157 158
f 93 158 159
f 93 159 155
f 94 155 95
f 95 155 160
f 95 160 96
f 96 160 98
f 96 98 97
f 98 160 161
f 98 161 162
f 98 162 163
f 98 163 164
f 98 164 165
f 98 165 106
f 98 106 105
f 99 103 166
f 99 166 100
f 100 166 167
f 100 167 153
f 102 168 169
f 102 169 170
f 102 170 171
f 102 171 103
f 102 104 168
f 103 171 166
f 104 148 172
f 104 172 168
f 106 165 164
f 106 164 173
f 106 173 174
f 106 174 175
f 106 175 107
f 107 175 176
f 107 176 177
f 107 177 108
f 108 178 109
f 108 177 179
f 108 179 180
f 108 180 181
f 108 181 178
f 109 178 111
f 111 178 181
f 111 181 180
f 111 180 260
f 111 260 336
f 111 336 383
f 111 383 385
f 111 385 384
f 111 384 337
f 111 337 263
f 111 263 262
f 111 262 261
f 111 261 182
f 111 182 112
f 112 182 183
f 112 183 113
f 113 183 184
f 113 184 115
f 115 185 116
f 115 184 186
f 115 186 185
f 116 185 118
f 118 185 187
f 118 187 188
f 118 188 189
f 118 189 119
f 119 189 190
f 119 190 121
f 119 121 120
f 121 190 191
f 121 191 123
f 121 123 122
f 123 191 192
f 123 192 193
f 123 193 194
f 123 194 124
f 124 194 195
f 124 195 135
f 124 135 196
f 124 196 134
f 124 134 125
f 125 134 126
f 129 147 197
f 129 197 198
f 129 198 199
f 129 199 200
f 129 200 130
f 130 200 201
f 130 201 131
f 131 201 202
f 131 202 203
f 131 203 150
f 132 136 133
f 133 136 204
f 133 204 205
f 133 205 137
f 134 196 135
f 135 195 136
f 136 195 204
f 137 205 206
f 137 206 138
f 138 206 207
f 138 207 208
f 138 208 209
f 138 209 210
f 138 210 139
f 139 210 211
f 139 211 212
f 139 212 213
f 139 213 141
f 141 213 142
f 142 213 143
f 143 213 144
f 144 213 145
f 145 213 214
f 145 214 147
f 145 147 146
f 147 214 215
f 147 215 197
f 148 216 217
f 148 217 172
f 148 149 218
f 148 218 219
f 148 219 220
f 148 220 216
f 149 152 218
f 150 203 221
f 150 221 222
f 150 222 223
f 150 223 224
f 150 224 151
f 151 225 226
f 151 226 227
f 151 227 152
f 151 224 228
f 151 228 225
f 152 227 218
f 153 229 230
f 153 230 231
f 153 231 156
f 153 156 154
f 153 167 232
f 153 232 233
f 153 233 234
f 153 234 235
f 153 235 236
f 153 236 229
f 155 159 160
f 156 231 157
f 157 231 158
f 158 237 159
f 158 231 238
f 158 238 239
f 158 239 240
f 158 240 241
f 158 241 242
f 158 242 243
f 158 243 244
f 158 244 245
f 158 245 237
f 159 237 161
f 159 161 160
f 161 237 246
f 161 246 247
f 161 247 248
f 161 248 162
f 162 248 163
f 163 248 164
f 164 248 249
f 164 249 173
f 166 171 167
f 167 171 250
f 167 250 232
f 168 172 169
f 169 172 217
f 169 217 170
f 170 217 251
f 170 251 252
f 170 252 171
f 171 252 253
f 171 253 254
f 171 254 250
f 173 249 255
f 173 255 256
f 173 256 257
f 173 257 175
f 173 175 174
f 175 257 176
f 176 179 177
f 176 257 256
f 176 256 258
f 176 258 259
f 176 259 179
f 179 259 260
f 179 260 180
f 182 261 183
f 183 261 262
f 183 262 263
f 183 263 264
f 183 264 184
f 184 264 186
f 185 265 266
f 185 266 187
f 185 186 267
f 185 267 268
f 185 268 265
f 186 264 267
f 187 266 188
f 188 266 190
f 188 190 189
f 190 266 269
f 190 269 191
f 191 269 192
f 192 269 270
f 192 270 271
f 192 271 193
f 193 271 272
f 193 272 273
f 193 273 274
f 193 274 195
f 193 195 194
f 195 274 273
f 195 273 275
f 195 275 204
f 197 215 276
f 197 276 277
f 197 277 198
f 198 277 199
f 199 277 278
f 199 278 200
f 200 278 279
f 200 279 280
f 200 280 281
f 200 281 201
f 201 281 202
f 202 281 282
f 202 282 203
f 203 282 280
f 203 280 352
f 203 352 351
f 203 351 368
f 203 368 367
f 203 367 410
f 203 410 409
f 203 409 437
f 203 437 436
f 203 436 435
f 203 435 434
f 203 434 433
f 203 433 454
f 203 454 452
f 203 452 451
f 203 451 458
f 203 458 457
f 203 457 456
f 203 456 446
f 203 446 445
f 203 445 444
f 203 444 455
f 203 455 439
f 203 439 415
f 203 415 381
f 203 381 336
f 203 336 260
f 203 260 335
f 203 335 258
f 203 258 330
f 203 330 326
f 203 326 325
f 203 325 324
f 203 324 377
f 203 377 321
f 203 321 319
f 203 319 235
f 203 235 318
f 203 318 317
f 203 317 376
f 203 376 375
f 203 375 414
f 203 414 438
f 203 438 413
f 203 413 374
f 203 374 373
f 203 373 372
f 203 372 311
f 203 311 225
f 203 225 228
f 203 228 224
f 203 224 223
f 203 223 221
f 204 275 205
f 205 283 208
f 205 208 207
f 205 207 206
f 205 275 284
f 205 284 285
f 205 285 283
f 208 283 286
f 208 286 287
f 208 287 209
f 209 287 285
f 209 285 288
f 209 288 289
f 209 289 210
f 210 289 290
f 210 290 211
f 211 291 212
f 211 290 358
f 211 358 291
f 212 291 292
f 212 292 293
f 212 293 294
f 212 294 295
f 212 295 296
f 212 296 297
f 212 297 213
f 213 297 298
f 213 298 214
f 214 298 299
f 214 299 215
f 215 299 298
f 215 298 300
f 215 300 301
f 215 301 302
f 215 302 276
f 216 303 217
f 216 220 304
f 216 304 305
f 216 305 306
f 216 306 303
f 217 303 307
f 217 307 251
f 218 227 226
f 218 226 219
f 219 226 308
f 219 308 309
f 219 309 310
f 219 310 304
f 219 304 220
f 221 223 222
f 225 311 312
f 225 312 226
f 226 312 311
f 226 311 308
f 229 238 230
f 229 236 313
f 229 313 238
f 230 238 231
f 232 250 233
f 233 250 314
f 233 314 315
f 233 315 234
f 234 315 316
f 234 316 317
f 234 317 318
f 234 318 235
f 235 319 236
f 236 319 313
f 237 245 320
f 237 320 246
f 238 313 319
f 238 319 321
f 238 321 322
f 238 322 239
f 239 322 323
f 239 323 240
f 240 323 324
f 240 324 325
f 240 325 241
f 241 325 242
f 242 325 243
f 243 325 326
f 243 326 327
f 243 327 244
f 244 327 245
f 245 327 328
f 245 328 320
f 246 320 328
f 246 328 327
f 246 327 329
f 246 329 249
f 246 249 248
f 246 248 247
f 249 329 326
f 249 326 330
f 249 330 331
f 249 331 256
f 249 256 255
f 250 254 314
f 251 332 253
f 251 253 252
f 251 307 332
f 253 332 333
f 253 333 334
f 253 334 254
f 254 334 315
f 254 315 314
f 256 331 330
f 256 330 258
f 258 335 259
f 259 335 260
f 263 337 264
f 264 337 338
f 264 338 339
f 264 339 267
f 265 268 340
f 265 340 266
f 266 340 341
f 266 341 342
f 266 342 269
f 267 343 268
f 267 339 344
f 267 344 343
f 268 343 340
f 269 342 345
f 269 345 270
f 270 346 272
f 270 272 271
f 270 345 347
f 270 347 346
f 272 346 348
f 272 348 275
f 272 275 273
f 275 348 347
f 275 347 349
f 275 349 284
f 276 302 277
f 277 302 278
f 278 302 350
f 278 350 351
f 278 351 352
f 278 352 279
f 279 352 280
f 280 282 281
f 283 285 286
f 284 349 353
f 284 353 285
f 285 354 355
f 285 355 288
f 285 287 286
f 285 353 356
f 285 356 354
f 288 355 289
f 289 355 290
f 290 357 358
f 290 355 357
f 291 358 292
f 292 358 359
f 292 359 293
f 293 359 360
f 293 360 361
f 293 361 294
f 294 361 362
f 294 362 363
f 294 363 364
f 294 364 295
f 295 364 298
f 295 298 296
f 296 298 297
f 298 364 300
f 300 364 365
f 300 365 301
f 301 365 302
f 302 365 366
f 302 366 367
f 302 367 368
f 302 368 350
f 303 369 307
f 303 306 370
f 303 370 371
f 303 371 369
f 304 306 305
f 304 310 306
f 306 310 370
f 307 369 333
f 307 333 332
f 308 372 309
f 308 311 372
f 309 372 310
f 310 372 373
f 310 373 374
f 310 374 370
f 315 334 375
f 315 375 376
f 315 376 317
f 315 317 316
f 321 377 322
f 322 377 324
f 322 324 323
f 326 329 327
f 333 369 371
f 333 371 370
f 333 370 378
f 333 378 379
f 333 379 334
f 334 379 380
f 334 380 375
f 336 381 382
f 336 382 383
f 337 384 338
f 338 384 385
f 338 385 386
f 338 386 339
f 339 387 388
f 339 388 344
f 339 386 387
f 340 343 341
f 341 388 389
f 341 389 390
f 341 390 391
f 341 391 392
f 341 392 393
f 341 393 342
f 341 343 388
f 342 393 347
f 342 347 345
f 343 344 388
f 346 347 348
f 347 390 394
f 347 394 395
f 347 395 396
f 347 396 397
f 347 397 349
f 347 393 391
f 347 391 390
f 349 398 353
f 349 397 398
f 350 368 351
f 353 398 402
f 353 402 356
f 354 399 355
f 354 356 399
f 355 399 400
f 355 400 401
f 355 401 357
f 356 402 399
f 357 401 403
f 357 403 360
f 357 360 359
f 357 359 358
f 360 403 361
f 361 404 405
f 361 405 362
f 361 403 406
f 361 406 404
f 362 405 407
f 362 407 363
f 363 365 364
f 363 407 408
f 363 408 365
f 365 408 366
f 366 408 409
f 366 409 410
f 366 410 367
f 370 374 411
f 370 411 412
f 370 412 379
f 370 379 378
f 374 413 411
f 375 380 414
f 379 412 414
f 379 414 380
f 381 415 416
f 381 416 382
f 382 417 386
f 382 386 383
f 382 416 389
f 382 389 417
f 383 386 385
f 386 417 389
f 386 389 387
f 387 389 388
f 389 416 418
f 389 418 419
f 389 419 390
f 390 419 394
f 391 393 392
f 394 419 420
f 394 420 421
f 394 421 395
f 395 422 423
f 395 423 396
f 395 421 424
f 395 424 425
f 395 425 426
f 395 426 422
f 396 402 398
f 396 398 397
f 396 423 402
f 399 402 427
f 399 427 423
f 399 423 428
f 399 428 400
f 400 428 423
f 400 423 429
f 400 429 430
f 400 430 401
f 401 430 431
f 401 431 432
f 401 432 403
f 402 423 427
f 403 432 406
f 404 406 432
f 404 432 405
f 405 433 434
f 405 434 435
f 405 435 407
f 405 432 433
f 407 435 436
f 407 436 408
f 408 436 437
f 408 437 409
f 411 413 412
f 412 413 438
f 412 438 414
f 415 439 440
f 415 440 418
f 415 418 416
f 418 440 441
f 418 441 442
f 418 442 420
f 418 420 419
f 420 442 421
f 421 442 443
f 421 443 424
f 422 426 431
f 422 431 430
f 422 430 423
f 423 430 429
f 424 443 444
f 424 444 445
f 424 445 446
f 424 446 447
f 424 447 448
f 424 448 425
f 425 448 449
f 425 449 426
f 426 449 431
f 431 449 450
f 431 450 451
f 431 451 452
f 431 452 453
f 431 453 432
f 432 453 454
f 432 454 433
f 439 455 441
f 439 441 440
f 441 455 443
f 441 443 442
f 443 455 444
f 446 456 447
f 447 456 457
f 447 457 449
f 447 449 448
f 449 457 458
f 449 458 450
f 450 458 451
f 452 454 453

