# https://github.com/mikedh/trimesh
v 0.08852876 0.04082023 0.02242625
v 0.09094259 0.04055657 0.02214821
v 0.09094259 0.04055657 0.02129884
v 0.08827705 0.04074699 0.02023559
v 0.07931082 0.04063274 0.01695876
v 0.08614794 0.04078801 0.02224904
v 0.10095277 0.03787015 0.02847882
v 0.09784573 0.03891015 0.02640274
v 0.09473870 0.03984761 0.02329701
v 0.09184210 0.03969528 0.02023559
v 0.08914356 0.04010249 0.01923039
v 0.08707220 0.04040716 0.01859641
v 0.09803141 0.03866114 0.02307397
v 0.07834115 0.04050970 0.01528598
v 0.07727659 0.04050970 0.01528598
v 0.07722295 0.04056829 0.01708556
v 0.08915181 0.03784964 0.02520506
v 0.09610447 0.03738091 0.02801289
v 0.09784573 0.03764750 0.02821607
v 0.07921179 0.04060051 0.01890805
v 0.07746227 0.04050384 0.01877820
v 0.08523604 0.03901561 0.02293649
v 0.10095277 0.03571985 0.02902267
v 0.10303649 0.03767680 0.02836425
v 0.10095277 0.03846485 0.02640274
v 0.09163579 0.03799905 0.01787994
v 0.09711952 0.03789945 0.02120412
v 0.09459841 0.03837404 0.02017754
v 0.08838434 0.03884863 0.01716805
v 0.08542172 0.03801956 0.01468408
v 0.08233532 0.03838869 0.01380721
v 0.07928193 0.03905956 0.01341613
v 0.07931082 0.03956637 0.01414176
v 0.10095277 0.03787015 0.02414639
v 0.07616664 0.03932908 0.01341613
v 0.07618728 0.03970114 0.01414176
v 0.07303898 0.03858204 0.01341613
v 0.06971738 0.03751860 0.01341613
v 0.08708046 0.03700886 0.02480787
v 0.09450763 0.03571985 0.02755765
v 0.09606320 0.03571985 0.02802358
v 0.09784573 0.03571985 0.02846507
v 0.08828118 0.03587218 0.02542809
v 0.09163579 0.03571985 0.02664258
v 0.06632152 0.03522768 0.01341613
v 0.06366837 0.03266430 0.01341613
v 0.06805040 0.03446306 0.01573053
v 0.07452854 0.03730181 0.01865446
v 0.07629868 0.03853224 0.01906693
v 0.09617462 0.03391523 0.02798845
v 0.09796539 0.03277270 0.02818246
v 0.09907946 0.03097101 0.02800067
v 0.10077534 0.03248853 0.02841772
v 0.10306538 0.03344064 0.02837953
v 0.10332120 0.03571985 0.02857965
v 0.10367606 0.03571985 0.02640274
v 0.10294572 0.03761528 0.02640274
v 0.08969235 0.03697077 0.01573817
v 0.08762099 0.03759477 0.01520501
v 0.09346370 0.03748638 0.01845740
v 0.10256198 0.03732818 0.02480023
v 0.09919087 0.03698835 0.02189004
v 0.08208775 0.03817483 0.01341613
v 0.08668847 0.03494058 0.02496216
v 0.07910863 0.03596886 0.02133550
v 0.08007416 0.03509877 0.02205961
v 0.08852876 0.03261450 0.02563891
v 0.09163579 0.03261450 0.02658453
v 0.08660182 0.03261450 0.02499118
v 0.06358997 0.03257348 0.01341613
v 0.06590065 0.03261450 0.01503239
v 0.06745210 0.03261450 0.01605134
v 0.07610888 0.03571985 0.01996672
v 0.07407053 0.03571985 0.01889431
v 0.09497802 0.03277270 0.02751946
v 0.09701223 0.03184402 0.02785249
v 0.09961999 0.03097101 0.02800067
v 0.09473870 0.02950915 0.02674799
v 0.09163579 0.02543705 0.02463982
v 0.09473870 0.02662938 0.02555183
v 0.09473870 0.02507964 0.02470093
v 0.10273941 0.03073371 0.02544337
v 0.10323455 0.03248853 0.02644857
v 0.10169135 0.03136943 0.02751487
v 0.09978092 0.02757271 0.02523408
v 0.10299523 0.03261450 0.02411431
v 0.10286319 0.03571985 0.02442442
v 0.09174719 0.03585168 0.01629882
v 0.09078579 0.03490250 0.01509655
v 0.08860715 0.03585168 0.01446104
v 0.08653992 0.03585754 0.01341613
v 0.08564041 0.03639658 0.01341613
v 0.08268605 0.03791409 0.01341613
v 0.09553505 0.03646103 0.01913415
v 0.09984281 0.03491714 0.02139050
v 0.09646345 0.03438982 0.01850781
v 0.07810183 0.03261450 0.02154632
v 0.07965329 0.03261450 0.02222154
v 0.08231882 0.03261450 0.02333062
v 0.08505036 0.03261450 0.02440456
v 0.07293995 0.03231275 0.01912193
v 0.07144214 0.03107354 0.01864071
v 0.08676274 0.03070735 0.02492549
v 0.06199312 0.02950915 0.01341613
v 0.06368074 0.02950915 0.01444730
v 0.06536424 0.02950915 0.01546013
v 0.07020015 0.03231275 0.01767523
v 0.07186301 0.03314475 0.01841157
v 0.09163579 0.02950915 0.02601319
v 0.09784573 0.02698972 0.02554572
v 0.08960157 0.02752876 0.02497743
v 0.09163579 0.02698972 0.02523866
v 0.08620158 0.02152314 0.02187935
v 0.09163579 0.02329846 0.02343297
v 0.08413434 0.02186883 0.02170061
v 0.09473870 0.02329846 0.02332757
v 0.09163579 0.02133272 0.02208864
v 0.10273941 0.03073371 0.02438776
v 0.09629427 0.02174579 0.02174491
v 0.10013165 0.02950915 0.02095664
v 0.10177388 0.03261450 0.02256068
v 0.10021830 0.03261450 0.02102997
v 0.09459841 0.03554407 0.01796091
v 0.08949841 0.03279906 0.01341613
v 0.08862366 0.03385371 0.01341613
v 0.09285715 0.03349923 0.01575039
v 0.09835325 0.03261450 0.01947634
v 0.09680180 0.03261450 0.01823741
v 0.09335230 0.03142802 0.01541889
v 0.07144214 0.03093293 0.01864071
v 0.07271301 0.02974059 0.01918609
v 0.07610888 0.02950915 0.02064806
v 0.07824625 0.02950915 0.02151729
v 0.08231882 0.02950915 0.02311369
v 0.06691569 0.02950915 0.01629423
v 0.06533123 0.02640088 0.01548610
v 0.08753021 0.02863614 0.02470398
v 0.08854938 0.02960583 0.02519283
v 0.08026809 0.02693406 0.02193129
v 0.08077561 0.02486578 0.02174033
v 0.06159701 0.02714206 0.01341613
v 0.06152687 0.02640088 0.01341613
v 0.06368074 0.02640088 0.01460159
v 0.08542172 0.02640088 0.02352616
v 0.08854938 0.02645654 0.02437707
v 0.08852876 0.02134736 0.02201225
v 0.08231882 0.01777622 0.01918456
v 0.08284284 0.02394004 0.02206572
v 0.08201348 0.02306116 0.02152035
v 0.07921179 0.02019311 0.01970244
v 0.07761081 0.01861114 0.01865294
v 0.07921179 0.01825667 0.01886681
v 0.09473870 0.02156415 0.02192212
v 0.08542172 0.01766489 0.01934496
v 0.08542172 0.01611222 0.01811673
v 0.09972728 0.02715964 0.02129273
v 0.09629427 0.02174579 0.02173880
v 0.09703699 0.02320764 0.02049987
v 0.08783968 0.01511031 0.01615216
v 0.08780667 0.01504879 0.01397983
v 0.08542172 0.01471481 0.01656310
v 0.09862146 0.02950915 0.01940301
v 0.09662850 0.02418319 0.01829394
v 0.09694209 0.02640088 0.01797618
v 0.09707000 0.02950915 0.01793188
v 0.09521734 0.02950915 0.01637978
v 0.09174719 0.03252368 0.01470853
v 0.09118191 0.02939197 0.01341613
v 0.09366589 0.02950915 0.01517752
v 0.09125618 0.02919569 0.01341613
v 0.07148752 0.02886172 0.01862085
v 0.07020015 0.02974059 0.01799452
v 0.07177223 0.02640088 0.01850934
v 0.07332782 0.02640088 0.01914942
v 0.07610888 0.02640088 0.02025239
v 0.06179507 0.02413339 0.01341613
v 0.06195599 0.02329846 0.01341613
v 0.06368074 0.02329846 0.01430064
v 0.06688681 0.02640088 0.01624535
v 0.07922417 0.02609913 0.02138286
v 0.07404990 0.02329846 0.01883473
v 0.07610888 0.02329846 0.01961689
v 0.07452029 0.02170184 0.01865141
v 0.07921179 0.02329846 0.02072749
v 0.08231882 0.01622354 0.01817020
v 0.07921179 0.01670399 0.01799299
v 0.07610888 0.01451267 0.01614911
v 0.07610888 0.01296000 0.01518974
v 0.07553946 0.01963064 0.01834740
v 0.07273364 0.01680946 0.01638284
v 0.07151641 0.01559076 0.01551055
v 0.07358776 0.01499312 0.01583594
v 0.07921179 0.01272856 0.01523862
v 0.09608384 0.02211198 0.01966883
v 0.09060424 0.01775278 0.01478491
v 0.07872489 0.01113781 0.01341613
v 0.08071372 0.01171493 0.01341613
v 0.08191858 0.01208699 0.01341613
v 0.08542172 0.01379200 0.01397983
v 0.08509163 0.01360158 0.01341613
v 0.08735279 0.01492867 0.01341613
v 0.08762925 0.01512788 0.01341613
v 0.07921179 0.01142783 0.01368499
v 0.09534937 0.02640088 0.01642408
v 0.09010084 0.01880157 0.01341613
v 0.09320788 0.02171356 0.01550902
v 0.09095909 0.02086692 0.01341613
v 0.09345544 0.02329846 0.01526459
v 0.09190399 0.02329846 0.01371249
v 0.09160278 0.02329846 0.01341613
v 0.09379792 0.02640088 0.01501100
v 0.09185861 0.02640088 0.01345890
v 0.09180496 0.02640088 0.01341613
v 0.09179258 0.02646826 0.01341613
v 0.06989481 0.02640088 0.01766912
v 0.07249845 0.02329846 0.01821450
v 0.06731180 0.02329846 0.01599787
v 0.06989481 0.02329846 0.01712681
v 0.06256254 0.02160810 0.01341613
v 0.06576035 0.02329846 0.01529820
v 0.06847952 0.01887481 0.01547694
v 0.07329068 0.02047728 0.01781884
v 0.07921179 0.01428124 0.01644089
v 0.07047660 0.01199324 0.01341613
v 0.07303073 0.01112023 0.01341613
v 0.07054675 0.01766196 0.01590163
v 0.06966374 0.01680946 0.01526154
v 0.06563656 0.01590422 0.01341613
v 0.06718389 0.01432518 0.01341613
v 0.06760889 0.01392969 0.01341613
v 0.06989481 0.01397949 0.01425176
v 0.06989481 0.01232135 0.01341613
v 0.07562199 0.01089465 0.01341613
v 0.08936225 0.01686512 0.01384082
v 0.08906516 0.01690613 0.01341613
v 0.09064550 0.01993531 0.01341613
v 0.06368074 0.02019311 0.01365139
v 0.06683729 0.02002320 0.01503544
v 0.06791010 0.02094601 0.01572442
v 0.06318560 0.02019311 0.01341613
v 0.06437807 0.01791977 0.01341613
v 0.06479069 0.01721960 0.01341613
v 0.06678778 0.01708484 0.01425939
v 0.06881374 0.01298051 0.01341613
v 0.06335477 0.01985035 0.01341613
v 0.06366837 0.01924393 0.01341613
f 1 2 3
f 1 3 4
f 1 4 5
f 1 5 6
f 1 6 7
f 1 7 8
f 1 8 2
f 2 8 9
f 2 9 3
f 3 10 11
f 3 11 12
f 3 12 4
f 3 9 13
f 3 13 10
f 4 12 14
f 4 14 5
f 5 14 15
f 5 15 16
f 5 16 6
f 6 17 18
f 6 18 19
f 6 19 7
f 6 16 20
f 6 20 21
f 6 21 22
f 6 22 17
f 7 23 24
f 7 24 8
f 7 19 23
f 8 24 25
f 8 25 9
f 9 25 13
f 10 26 11
f 10 13 27
f 10 27 28
f 10 28 26
f 11 29 12
f 11 26 29
f 12 29 30
f 12 30 31
f 12 31 32
f 12 32 33
f 12 33 14
f 13 25 34
f 13 34 27
f 14 33 32
f 14 32 35
f 14 35 15
f 15 35 36
f 15 36 37
f 15 37 38
f 15 38 16
f 16 21 20
f 16 38 21
f 17 22 39
f 17 39 18
f 18 40 41
f 18 41 42
f 18 42 23
f 18 23 19
f 18 39 43
f 18 43 44
f 18 44 40
f 21 38 45
f 21 45 46
f 21 46 47
f 21 47 48
f 21 48 49
f 21 49 39
f 21 39 22
f 23 42 50
f 23 50 51
f 23 51 52
f 23 52 53
f 23 53 54
f 23 54 55
f 23 55 24
f 24 55 56
f 24 56 57
f 24 57 25
f 25 57 34
f 26 58 59
f 26 59 29
f 26 28 27
f 26 27 60
f 26 60 58
f 27 34 61
f 27 61 62
f 27 62 60
f 29 59 30
f 30 59 63
f 30 63 31
f 31 63 32
f 32 63 93
f 32 93 92
f 32 92 91
f 32 91 125
f 32 125 124
f 32 124 168
f 32 168 170
f 32 170 214
f 32 214 213
f 32 213 210
f 32 210 207
f 32 207 236
f 32 236 205
f 32 205 235
f 32 235 202
f 32 202 201
f 32 201 200
f 32 200 198
f 32 198 197
f 32 197 196
f 32 196 233
f 32 233 225
f 32 225 224
f 32 224 232
f 32 232 244
f 32 244 230
f 32 230 229
f 32 229 228
f 32 228 242
f 32 242 241
f 32 241 246
f 32 246 245
f 32 245 240
f 32 240 219
f 32 219 177
f 32 177 176
f 32 176 142
f 32 142 141
f 32 141 104
f 32 104 70
f 32 70 46
f 32 46 45
f 32 45 38
f 32 38 37
f 32 37 35
f 34 57 61
f 35 37 36
f 39 64 43
f 39 49 48
f 39 48 65
f 39 65 66
f 39 66 64
f 40 44 67
f 40 67 68
f 40 68 41
f 41 68 50
f 41 50 42
f 43 64 44
f 44 64 69
f 44 69 67
f 46 70 47
f 47 70 71
f 47 71 72
f 47 72 48
f 48 73 65
f 48 72 74
f 48 74 73
f 50 75 76
f 50 76 51
f 50 68 75
f 51 76 52
f 52 77 53
f 52 76 78
f 52 78 79
f 52 79 80
f 52 80 81
f 52 81 77
f 53 77 54
f 54 82 83
f 54 83 56
f 54 56 55
f 54 77 84
f 54 84 85
f 54 85 82
f 56 83 86
f 56 86 87
f 56 87 61
f 56 61 57
f 58 60 88
f 58 88 89
f 58 89 90
f 58 90 91
f 58 91 59
f 59 91 92
f 59 92 93
f 59 93 63
f 60 62 94
f 60 94 88
f 61 87 95
f 61 95 62
f 62 95 96
f 62 96 94
f 64 66 97
f 64 97 98
f 64 98 99
f 64 99 100
f 64 100 69
f 65 73 66
f 66 73 101
f 66 101 102
f 66 102 97
f 67 69 103
f 67 103 68
f 68 103 75
f 69 100 103
f 70 104 71
f 71 104 72
f 72 104 105
f 72 105 106
f 72 106 102
f 72 102 107
f 72 107 108
f 72 108 74
f 73 74 108
f 73 108 101
f 75 103 109
f 75 109 76
f 76 109 78
f 77 81 110
f 77 110 84
f 78 109 111
f 78 111 112
f 78 112 79
f 79 113 114
f 79 114 81
f 79 81 80
f 79 112 115
f 79 115 113
f 81 116 110
f 81 114 117
f 81 117 116
f 82 118 83
f 82 85 119
f 82 119 157
f 82 157 118
f 83 118 86
f 84 110 85
f 85 110 119
f 86 118 120
f 86 120 121
f 86 121 87
f 87 121 122
f 87 122 95
f 88 94 123
f 88 123 89
f 89 124 125
f 89 125 90
f 89 123 96
f 89 96 126
f 89 126 124
f 90 125 91
f 94 96 123
f 95 122 127
f 95 127 96
f 96 128 129
f 96 129 126
f 96 127 128
f 97 102 130
f 97 130 98
f 98 130 131
f 98 131 132
f 98 132 99
f 99 132 133
f 99 133 100
f 100 133 134
f 100 134 103
f 101 108 102
f 102 108 107
f 102 106 135
f 102 135 136
f 102 136 130
f 103 137 138
f 103 138 109
f 103 134 139
f 103 139 140
f 103 140 137
f 104 141 105
f 105 141 106
f 106 141 142
f 106 142 143
f 106 143 135
f 109 138 137
f 109 137 111
f 110 116 119
f 111 137 144
f 111 144 145
f 111 145 112
f 112 145 115
f 113 146 114
f 113 115 147
f 113 147 146
f 114 146 117
f 115 148 149
f 115 149 150
f 115 150 151
f 115 151 152
f 115 152 147
f 115 145 148
f 116 153 119
f 116 117 153
f 117 146 154
f 117 154 155
f 117 155 153
f 118 156 120
f 118 157 158
f 118 158 156
f 119 159 160
f 119 160 157
f 119 153 161
f 119 161 159
f 120 162 121
f 120 156 163
f 120 163 164
f 120 164 162
f 121 162 122
f 122 162 165
f 122 165 166
f 122 166 127
f 124 126 167
f 124 167 168
f 126 129 167
f 127 166 128
f 128 166 169
f 128 169 129
f 129 169 170
f 129 170 168
f 129 168 167
f 130 171 131
f 130 136 172
f 130 172 171
f 131 171 132
f 132 171 173
f 132 173 174
f 132 174 133
f 133 174 175
f 133 175 134
f 134 175 139
f 135 143 136
f 136 143 176
f 136 176 177
f 136 177 178
f 136 178 179
f 136 179 171
f 136 171 172
f 137 140 144
f 139 175 180
f 139 180 140
f 140 180 175
f 140 175 181
f 140 181 182
f 140 182 183
f 140 183 184
f 140 184 150
f 140 150 149
f 140 149 148
f 140 148 144
f 142 176 143
f 144 148 145
f 146 147 185
f 146 185 154
f 147 152 186
f 147 186 187
f 147 187 188
f 147 188 185
f 150 184 189
f 150 189 151
f 151 189 190
f 151 190 191
f 151 191 192
f 151 192 152
f 152 187 186
f 152 192 187
f 153 155 161
f 154 185 155
f 155 185 193
f 155 193 161
f 156 158 194
f 156 194 163
f 157 194 158
f 157 160 195
f 157 195 194
f 159 161 196
f 159 196 197
f 159 197 198
f 159 198 199
f 159 199 200
f 159 200 160
f 160 200 201
f 160 201 202
f 160 202 195
f 161 193 203
f 161 203 196
f 162 164 204
f 162 204 165
f 163 194 195
f 163 195 205
f 163 205 206
f 163 206 207
f 163 207 208
f 163 208 164
f 164 208 209
f 164 209 210
f 164 210 204
f 165 204 211
f 165 211 166
f 166 211 212
f 166 212 213
f 166 213 169
f 169 213 214
f 169 214 170
f 171 179 215
f 171 215 173
f 173 216 174
f 173 215 217
f 173 217 218
f 173 218 216
f 174 216 181
f 174 181 175
f 177 219 178
f 178 219 220
f 178 220 179
f 179 220 215
f 181 183 182
f 181 216 183
f 183 216 221
f 183 221 222
f 183 222 189
f 183 189 184
f 185 188 223
f 185 223 193
f 187 192 224
f 187 224 225
f 187 225 188
f 188 193 223
f 188 225 193
f 189 222 226
f 189 226 190
f 190 226 191
f 191 226 227
f 191 227 228
f 191 228 229
f 191 229 230
f 191 230 231
f 191 231 192
f 192 231 232
f 192 232 224
f 193 225 233
f 193 233 196
f 193 196 203
f 195 202 234
f 195 234 235
f 195 235 205
f 198 200 199
f 202 235 234
f 204 210 211
f 205 236 206
f 206 236 207
f 207 210 209
f 207 209 208
f 210 213 212
f 210 212 211
f 215 220 217
f 216 218 221
f 217 220 237
f 217 237 238
f 217 238 239
f 217 239 218
f 218 239 221
f 219 240 220
f 220 240 237
f 221 239 238
f 221 238 241
f 221 241 242
f 221 242 243
f 221 243 226
f 221 226 222
f 226 243 228
f 226 228 227
f 228 243 242
f 230 244 231
f 231 244 232
f 237 240 245
f 237 245 246
f 237 246 238
f 238 246 241

