# https://github.com/mikedh/trimesh
v 0.05605477 0.00082573 0.03323255
v 0.05642015 -0.00044662 0.03323255
v 0.05605477 -0.00155430 0.03202711
v 0.05605477 -0.01231714 0.03323255
v 0.05671411 -0.00156587 0.03323255
v 0.05657317 -0.00155430 0.03297514
v 0.05675210 -0.00187592 0.03323255
v 0.05702759 -0.00465990 0.03323255
v 0.05605477 -0.00256034 0.03184835
v 0.05605477 -0.01087111 0.03266693
v 0.05641329 -0.01087111 0.03323255
v 0.05702130 -0.00522725 0.03323255
v 0.05674467 -0.00465990 0.03273735
v 0.05605477 -0.00465990 0.03154806
v 0.05605477 -0.00906230 0.03213677
v 0.05643405 -0.01075919 0.03323255
v 0.05693437 -0.00776551 0.03323255
v 0.05605477 -0.00541894 0.03159209
v 0.05605477 -0.00776551 0.03177728
v 0.05688161 -0.00813473 0.03323255
v 0.05670754 -0.00776551 0.03285311
f 1 2 3
f 1 3 9
f 1 9 14
f 1 14 18
f 1 18 19
f 1 19 15
f 1 15 10
f 1 10 4
f 1 4 11
f 1 11 16
f 1 16 20
f 1 20 17
f 1 17 12
f 1 12 8
f 1 8 7
f 1 7 5
f 1 5 2
f 2 5 6
f 2 6 3
f 3 6 7
f 3 7 8
f 3 8 9
f 4 10 11
f 5 7 6
f 8 12 13
f 8 13 9
f 9 13 14
f 10 15 11
f 11 15 16
f 12 17 18
f 12 18 14
f 12 14 13
f 15 19 20
f 15 20 16
f 17 20 21
f 17 21 18
f 18 21 19
f 19 21 20

