# https://github.com/mikedh/trimesh
v -0.01488750 0.06826130 0.01341613
v -0.01705657 0.06814168 0.01341613
v -0.01396418 0.06823472 0.01341613
v 0.00168829 0.06068512 -0.00723772
v -0.00137479 0.06072499 -0.00723772
v -0.00459908 0.06060537 -0.00723772
v -0.01783333 0.06803535 0.01341613
v -0.00519997 0.06056549 -0.00723772
v -0.01129681 0.06784927 0.01341613
v 0.00271420 0.06056549 -0.00723772
v 0.05592965 -0.00053578 -0.00969446
v -0.05791712 -0.00053578 -0.00969446
v -0.00849754 0.05980788 -0.00723772
v -0.02016361 0.06749039 0.01341613
v -0.01084248 0.06776952 0.01341613
v 0.08207571 0.03816923 0.01341613
v 0.08267660 0.03790339 0.01341613
v 0.08336543 0.03697299 0.01265377
v 0.07918851 0.03472671 0.00886233
v 0.07452794 0.03415518 0.00621330
v 0.06355070 0.02288394 -0.00723772
v 0.06632066 0.01726161 -0.00723772
v 0.06648187 0.01641095 -0.00723772
v 0.06410762 0.00734611 -0.00723772
v 0.06303774 0.00466122 -0.00723772
v 0.06217305 0.00329219 -0.00723772
v 0.06252479 0.00268078 -0.00661787
v 0.04663783 -0.04665747 0.01237778
v 0.03645200 -0.02390233 -0.00969446
v -0.05790247 -0.00082819 -0.00969446
v -0.05758004 0.02329598 0.01341613
v -0.05743348 0.02668532 0.01341613
v -0.05697915 0.02903793 0.01341613
v -0.05639291 0.03067279 0.01341613
v -0.05560150 0.03258677 0.01341613
v -0.05523510 0.03321148 0.01341613
v -0.03627041 0.03882051 -0.00723772
v -0.03437981 0.04191745 -0.00723772
v -0.03260644 0.04441626 -0.00723772
v -0.03062790 0.04699482 -0.00723772
v -0.02957268 0.04813789 -0.00723772
v -0.02775535 0.04986579 -0.00723772
v -0.02637770 0.05104874 -0.00723772
v -0.02614321 0.05124812 -0.00723772
v -0.01947479 0.05504950 -0.00723772
v -0.01477025 0.05745527 -0.00723772
v -0.01323139 0.05818631 -0.00723772
v -0.02051535 0.06738406 0.01341613
v 0.08562244 0.03638816 0.01341613
v 0.08653110 0.03584320 0.01341613
v 0.08569571 0.03585650 0.01299536
v 0.08081531 0.03420834 0.00928310
v 0.08692681 0.03412859 0.01243660
v 0.08862689 0.03290577 0.01291844
v 0.08949158 0.03279944 0.01341613
v 0.08972607 0.03019430 0.01263567
v 0.09117701 0.02939680 0.01341613
v 0.09125029 0.02919743 0.01341613
v 0.09013644 0.02812081 0.01238457
v 0.09029765 0.02640620 0.01224883
v 0.09180721 0.02640620 0.01341613
v 0.09034163 0.02329598 0.01219002
v 0.08527069 0.02019905 0.00813616
v 0.08165069 0.01708882 0.00545094
v 0.07449863 0.01272919 0.00003298
v 0.07087863 0.01086838 -0.00266130
v 0.06552924 0.00830311 -0.00642106
v 0.06520681 0.00622962 -0.00620389
v 0.06319896 0.00466122 -0.00710198
v 0.04734131 -0.04728217 0.01341613
v 0.06838714 0.00611000 -0.00317255
v 0.04584641 -0.04897020 0.01341613
v 0.04561192 -0.04873095 0.01307680
v 0.04405840 -0.04411878 0.00890079
v 0.03494245 -0.02565681 -0.00969446
v -0.05785850 -0.00154594 -0.00969446
v -0.05756538 0.02310990 0.01341613
v -0.05763866 -0.00465616 -0.00969446
v -0.05393073 0.03533813 0.01341613
v -0.05378417 0.03552421 0.01341613
v -0.05359364 0.03575016 0.01341613
v -0.05267033 0.03684007 0.01341613
v -0.03200555 0.05996738 0.01341613
v -0.03014426 0.06173515 0.01341613
v -0.02958734 0.06224023 0.01341613
v -0.02875195 0.06295797 0.01341613
v -0.02703721 0.06412763 0.01341613
v -0.02652426 0.06444663 0.01341613
v -0.02478021 0.06549666 0.01341613
v -0.02318272 0.06633403 0.01341613
v -0.02299219 0.06642707 0.01341613
v -0.02288961 0.06646694 0.01341613
v 0.08861222 0.03384947 0.01341613
v 0.09160203 0.02329598 0.01341613
v 0.09019506 0.02140858 0.01230765
v 0.08682422 0.02019905 0.00944824
v 0.07797207 0.01397860 0.00282679
v 0.08320422 0.01708882 0.00681052
v 0.07773758 0.01225070 0.00302134
v 0.07271061 0.01086838 -0.00110943
v 0.06879750 0.00775815 -0.00351414
v 0.07212438 0.00831640 -0.00065247
v 0.08905190 0.01691603 0.01341613
v 0.07140624 0.00624291 0.00003524
v 0.07512883 0.00866198 0.00243317
v 0.08077134 0.01239690 0.00618163
v 0.08720526 0.01530775 0.01211536
v 0.04424892 -0.05047214 0.01341613
v 0.04353078 -0.04974111 0.01238909
v 0.04298852 -0.04619226 0.00957492
v 0.03331564 -0.02717205 -0.00969446
v -0.05733089 -0.00776638 -0.00969446
v -0.05696449 -0.01086331 -0.00969446
v -0.05629032 -0.01631285 -0.00969446
v -0.04604587 -0.05435328 0.01341613
v 0.09095716 0.02086362 0.01341613
v 0.08982867 0.01933510 0.01271032
v 0.08644316 0.01708882 0.00997759
v 0.08488964 0.01708882 0.00836464
v 0.07424948 0.01086838 0.00029766
v 0.09009247 0.01880343 0.01341613
v 0.08434738 0.01489572 0.00882387
v 0.08774753 0.01708882 0.01153172
v 0.04215313 -0.05197409 0.01341613
v 0.04191864 -0.05213359 0.01341613
v 0.04191864 -0.05028606 0.01197285
v 0.03165953 -0.02836829 -0.00969446
v -0.05605583 -0.01778821 -0.00969446
v -0.04496134 -0.05751667 0.01341613
v -0.05592393 -0.01842621 -0.00969446
v -0.05536701 -0.02031361 -0.00969446
v 0.09063474 0.01993321 0.01341613
v 0.04055565 -0.05295767 0.01341613
v 0.03977888 -0.05250576 0.01265603
v 0.02950512 -0.02960441 -0.00969446
v -0.04490272 -0.05764959 0.01341613
v -0.05522045 -0.02073894 -0.00969446
v -0.05325656 -0.02533782 -0.00969446
v 0.03928058 -0.05363553 0.01341613
v 0.03856245 -0.05398111 0.01341613
v 0.03771240 -0.05299754 0.01225336
v 0.03717014 -0.04964807 0.00935096
v 0.02743864 -0.03062785 -0.00969446
v -0.04305608 -0.06073323 0.01341613
v -0.05187891 -0.02843475 -0.00969446
v -0.05029607 -0.03177093 -0.00969446
v -0.04707178 -0.03779200 -0.00969446
v 0.03590973 -0.05505773 0.01341613
v -0.02639235 -0.05379503 -0.00969446
v -0.04210344 -0.06191617 0.01341613
v -0.04541567 -0.03978574 -0.00969446
v 0.03570455 -0.05513748 0.01341613
v 0.03352083 -0.05581535 0.01341613
v 0.03261216 -0.05608118 0.01341613
v 0.03123451 -0.05638689 0.01341613
v -0.02949940 -0.06752521 0.01341613
v -0.03260644 -0.06733913 0.01341613
v -0.03561089 -0.06651505 0.01341613
v -0.02949940 -0.05289121 -0.00969446
v -0.04012490 -0.06384345 0.01341613
v -0.04192757 -0.04337445 -0.00969446
v -0.03884984 -0.04647139 -0.00969446
v -0.03572814 -0.06646189 0.01341613
v -0.03260644 -0.05165509 -0.00969446
v -0.03898175 -0.06469411 0.01341613
v -0.03571349 -0.04936895 -0.00969446
v -0.03317802 -0.05124306 -0.00969446
f 1 2 7
f 1 7 14
f 1 14 48
f 1 48 92
f 1 92 91
f 1 91 90
f 1 90 89
f 1 89 88
f 1 88 87
f 1 87 86
f 1 86 85
f 1 85 84
f 1 84 83
f 1 83 82
f 1 82 81
f 1 81 80
f 1 80 79
f 1 79 36
f 1 36 35
f 1 35 34
f 1 34 33
f 1 33 32
f 1 32 31
f 1 31 77
f 1 77 115
f 1 115 129
f 1 129 136
f 1 136 144
f 1 144 150
f 1 150 160
f 1 160 165
f 1 165 163
f 1 163 158
f 1 158 157
f 1 157 156
f 1 156 155
f 1 155 154
f 1 154 153
f 1 153 152
f 1 152 148
f 1 148 140
f 1 140 139
f 1 139 133
f 1 133 125
f 1 125 124
f 1 124 108
f 1 108 72
f 1 72 70
f 1 70 103
f 1 103 121
f 1 121 132
f 1 132 116
f 1 116 94
f 1 94 61
f 1 61 58
f 1 58 57
f 1 57 55
f 1 55 93
f 1 93 50
f 1 50 49
f 1 49 17
f 1 17 16
f 1 16 15
f 1 15 9
f 1 9 3
f 1 3 4
f 1 4 5
f 1 5 6
f 1 6 2
f 2 6 8
f 2 8 7
f 3 9 10
f 3 10 4
f 4 10 11
f 4 11 5
f 5 11 12
f 5 12 6
f 6 12 8
f 7 8 13
f 7 13 14
f 8 12 13
f 9 15 10
f 10 15 16
f 10 16 17
f 10 17 18
f 10 18 19
f 10 19 20
f 10 20 21
f 10 21 11
f 11 21 22
f 11 22 23
f 11 23 24
f 11 24 25
f 11 25 26
f 11 26 27
f 11 27 28
f 11 28 29
f 11 29 75
f 11 75 111
f 11 111 127
f 11 127 135
f 11 135 143
f 11 143 149
f 11 149 159
f 11 159 164
f 11 164 167
f 11 167 166
f 11 166 162
f 11 162 161
f 11 161 151
f 11 151 147
f 11 147 146
f 11 146 145
f 11 145 138
f 11 138 137
f 11 137 131
f 11 131 130
f 11 130 128
f 11 128 114
f 11 114 113
f 11 113 112
f 11 112 78
f 11 78 76
f 11 76 30
f 11 30 12
f 12 30 31
f 12 31 32
f 12 32 33
f 12 33 34
f 12 34 35
f 12 35 36
f 12 36 37
f 12 37 38
f 12 38 39
f 12 39 40
f 12 40 41
f 12 41 42
f 12 42 43
f 12 43 44
f 12 44 45
f 12 45 46
f 12 46 47
f 12 47 13
f 13 47 48
f 13 48 14
f 17 49 18
f 18 49 50
f 18 50 51
f 18 51 52
f 18 52 19
f 19 52 21
f 19 21 20
f 21 52 53
f 21 53 54
f 21 54 55
f 21 55 56
f 21 56 22
f 22 56 57
f 22 57 58
f 22 58 59
f 22 59 60
f 22 60 23
f 23 60 61
f 23 61 62
f 23 62 63
f 23 63 64
f 23 64 65
f 23 65 66
f 23 66 67
f 23 67 24
f 24 67 68
f 24 68 25
f 25 68 69
f 25 69 27
f 25 27 26
f 27 70 28
f 27 69 68
f 27 68 71
f 27 71 70
f 28 70 72
f 28 72 73
f 28 73 74
f 28 74 75
f 28 75 29
f 30 76 31
f 31 76 78
f 31 78 77
f 36 79 38
f 36 38 37
f 38 79 39
f 39 79 40
f 40 79 80
f 40 80 81
f 40 81 82
f 40 82 83
f 40 83 41
f 41 83 42
f 42 83 84
f 42 84 85
f 42 85 86
f 42 86 43
f 43 86 44
f 44 86 87
f 44 87 88
f 44 88 89
f 44 89 45
f 45 89 90
f 45 90 46
f 46 90 91
f 46 91 47
f 47 91 92
f 47 92 48
f 50 53 52
f 50 52 51
f 50 93 53
f 53 93 55
f 53 55 54
f 55 57 56
f 58 61 59
f 59 61 60
f 61 94 62
f 62 94 95
f 62 95 96
f 62 96 63
f 63 96 64
f 64 97 65
f 64 96 98
f 64 98 97
f 65 97 99
f 65 99 100
f 65 100 66
f 66 100 68
f 66 68 67
f 68 100 101
f 68 101 102
f 68 102 71
f 70 71 104
f 70 104 105
f 70 105 106
f 70 106 107
f 70 107 103
f 71 102 104
f 72 108 73
f 73 108 109
f 73 109 110
f 73 110 74
f 74 110 75
f 75 110 111
f 77 78 112
f 77 112 113
f 77 113 114
f 77 114 115
f 94 116 95
f 95 116 117
f 95 117 118
f 95 118 119
f 95 119 96
f 96 119 98
f 97 98 99
f 98 119 99
f 99 106 102
f 99 102 120
f 99 120 100
f 99 119 118
f 99 118 106
f 100 120 101
f 101 120 102
f 102 106 105
f 102 105 104
f 103 107 121
f 106 118 122
f 106 122 107
f 107 122 123
f 107 123 121
f 108 124 109
f 109 124 125
f 109 125 126
f 109 126 127
f 109 127 111
f 109 111 110
f 114 128 115
f 115 128 130
f 115 130 131
f 115 131 129
f 116 132 117
f 117 132 121
f 117 121 123
f 117 123 118
f 118 123 122
f 125 133 134
f 125 134 126
f 126 134 127
f 127 134 135
f 129 131 137
f 129 137 138
f 129 138 136
f 133 139 134
f 134 139 140
f 134 140 141
f 134 141 142
f 134 142 143
f 134 143 135
f 136 138 145
f 136 145 146
f 136 146 147
f 136 147 144
f 140 148 141
f 141 148 149
f 141 149 143
f 141 143 142
f 144 147 150
f 147 151 150
f 148 152 149
f 149 152 153
f 149 153 154
f 149 154 155
f 149 155 156
f 149 156 157
f 149 157 158
f 149 158 159
f 150 151 161
f 150 161 162
f 150 162 160
f 158 163 164
f 158 164 159
f 160 162 166
f 160 166 165
f 163 165 164
f 164 165 167
f 165 166 167

