# https://github.com/mikedh/trimesh
v -0.02031104 -0.06373833 0.01435060
v -0.02031104 -0.06320590 0.01631321
v -0.02031104 -0.06347211 0.01341613
v 0.03305727 -0.07579625 0.03322966
v 0.03260512 -0.07573361 0.03322966
v 0.02950250 -0.07499761 0.03322966
v -0.00631024 -0.06098223 0.03734226
v -0.00646615 -0.06091959 0.03734226
v -0.00776021 -0.06032452 0.03734226
v -0.00924136 -0.05960418 0.03734226
v -0.00975587 -0.05933797 0.03734226
v -0.01150207 -0.05832010 0.03734226
v -0.01224265 -0.05780332 0.03734226
v -0.01348994 -0.05686374 0.03734226
v -0.01511921 -0.05551702 0.03734226
v -0.01541544 -0.05521948 0.03734226
v -0.01656138 -0.05390408 0.03734226
v -0.01750464 -0.05268263 0.03734226
v -0.01801135 -0.05200926 0.03734226
v -0.01854924 -0.05116364 0.03734226
v -0.01897020 -0.05038066 0.03734226
v -0.01974196 -0.04804737 0.03734226
v -0.02031104 -0.06171823 0.01809315
v -0.02020970 -0.06342514 0.01341613
v 0.03928591 -0.05363786 0.01342081
v 0.03856872 -0.05396671 0.01342081
v 0.03590264 -0.05504723 0.01342081
v 0.03570775 -0.05512553 0.01342081
v 0.03351720 -0.05579889 0.01342081
v 0.03260512 -0.05606510 0.01342081
v 0.03123311 -0.05637830 0.01342081
v 0.02946352 -0.05667583 0.01342081
v 0.02862160 -0.05680111 0.01342081
v 0.03006378 -0.05889950 0.01560358
v 0.03260512 -0.06192181 0.01881450
v 0.03260512 -0.06510072 0.02186616
v 0.03570775 -0.06962635 0.02668839
v 0.03570775 -0.07117666 0.02820368
v 0.03881817 -0.07563966 0.03305635
v 0.03881817 -0.07579625 0.03322966
v 0.03626903 -0.07598417 0.03322966
v 0.03570775 -0.07601549 0.03322966
v -0.02031104 0.06744246 0.01341613
v 0.04039287 -0.07549872 0.03322966
v 0.04165575 -0.07524817 0.03322966
v 0.04192080 -0.07518553 0.03322966
v 0.04406458 -0.07449650 0.03322966
v 0.04507020 -0.07416765 0.03322966
v 0.04599787 -0.07380748 0.03322966
v 0.04781423 -0.07293054 0.03322966
v 0.04789999 -0.07288355 0.03322966
v 0.04995021 -0.07169342 0.03322966
v 0.05084670 -0.07109836 0.03322966
v 0.05178997 -0.07042499 0.03322966
v 0.05343482 -0.06899996 0.03322966
v 0.05495496 -0.06734005 0.03322966
v 0.05613988 -0.06566447 0.03323200
v 0.05649847 -0.06497544 0.03323200
v 0.05688045 -0.06412981 0.03323200
v 0.05712211 -0.06350343 0.03323200
v 0.05785490 -0.06131108 0.03323200
v 0.05798742 -0.06055943 0.03323200
v 0.05829924 -0.05833575 0.03323200
v 0.05932046 0.04813413 0.03323200
v -0.00631024 0.03266240 0.03734226
v -0.02029545 -0.04502506 0.03734226
v -0.02031104 -0.05960418 0.01904870
v -0.01900139 -0.06265782 0.01341613
v 0.04214687 -0.05197794 0.01342081
v 0.04192080 -0.05211888 0.01342081
v 0.04056437 -0.05294884 0.01342081
v 0.04303557 -0.06190615 0.02192236
v 0.04343314 -0.06519467 0.02486395
v 0.04381512 -0.06848320 0.02781022
v 0.03810099 -0.05625302 0.01520543
v 0.03881817 -0.05944758 0.01823367
v 0.04192080 -0.06882771 0.02748467
v 0.03881817 -0.06433340 0.02254300
v 0.03570775 -0.05825745 0.01619845
v 0.03570775 -0.06153032 0.01916814
v 0.03260512 -0.05869593 0.01581905
v 0.03260512 -0.06037151 0.01737415
v 0.03570775 -0.06801341 0.02513796
v 0.03881817 -0.07252338 0.03002812
v 0.03881817 -0.07405803 0.03150359
v -0.02031104 0.06755207 0.01348639
v -0.02018631 0.06748944 0.01341613
v 0.03881817 -0.07086346 0.02847535
v 0.03881817 -0.06931316 0.02704203
v 0.04192080 -0.07366654 0.03183616
v 0.04192080 -0.07211623 0.03043094
v 0.04627071 -0.07128627 0.03117337
v 0.04813385 -0.07076951 0.03158556
v 0.04813385 -0.06921920 0.03031384
v 0.05010613 -0.06862414 0.03081035
v 0.04970855 -0.06524166 0.02793903
v 0.05217194 -0.06780983 0.03143801
v 0.05326332 -0.06574276 0.03067217
v 0.05291252 -0.06225066 0.02785940
v 0.05252274 -0.05866461 0.02505599
v 0.05533693 -0.06438037 0.03157619
v 0.05321655 -0.05659753 0.02439320
v 0.05600736 -0.06228198 0.03093448
v 0.05604633 -0.06237594 0.03103518
v 0.05634256 -0.06055943 0.03042158
v 0.05604633 -0.05633131 0.02773527
v 0.05604633 -0.05628434 0.02771653
v 0.05623343 -0.05434254 0.02733244
v 0.05710652 -0.05434254 0.02950818
v 0.05622563 0.03881664 0.02403956
v 0.05808097 0.04501786 0.02950584
v 0.05871241 0.04813413 0.03169798
v 0.05878257 0.05092154 0.03323200
v 0.05850193 0.05181414 0.03323200
v 0.05734039 0.05425705 0.03323200
v -0.02031104 0.07608658 0.03696754
v -0.00734705 0.03203602 0.03734226
v -0.02031104 -0.02133203 0.03041689
v -0.02031104 -0.02319553 0.02987120
v -0.01915730 0.01706540 0.03734226
v -0.02031104 -0.01707261 0.03109608
v -0.02031104 -0.01863857 0.03091340
v -0.02031104 -0.02017321 0.03070027
v -0.01646783 -0.06001133 0.01341613
v 0.04584196 -0.04897129 0.01342081
v 0.04423608 -0.05044330 0.01342081
v 0.04644222 -0.05579889 0.01872316
v 0.04436860 -0.05648792 0.01816107
v 0.04503122 -0.05976078 0.02112608
v 0.04263799 -0.05857064 0.01899015
v 0.03881817 -0.06605595 0.02408874
v 0.03570775 -0.06478753 0.02214954
v 0.03570775 -0.06646311 0.02369762
v -0.02031104 0.06930595 0.01477216
v -0.02018631 0.06932162 0.01475811
v -0.01784764 0.06803752 0.01341613
v 0.05178217 -0.06431773 0.02859948
v 0.05044133 -0.05971380 0.02430420
v 0.05002037 -0.05625302 0.02149846
v 0.04959942 -0.05266696 0.01871379
v 0.05565655 -0.05838273 0.02825989
v 0.04914727 -0.04889299 0.01597362
v 0.04981769 -0.04681026 0.01540216
v 0.05277220 -0.05272960 0.02176545
v 0.05317757 -0.05067819 0.02122210
v 0.05273322 -0.04616821 0.01873721
v 0.05604633 -0.05335599 0.02672586
v 0.05564876 -0.05124194 0.02544711
v 0.05624902 -0.05124194 0.02700456
v 0.05467431 0.03568471 0.02019629
v 0.05604633 0.03881664 0.02361565
v 0.05700518 0.04191725 0.02640032
v 0.05611649 0.04191725 0.02444941
v 0.05631917 0.04755472 0.02730902
v 0.05654525 0.04482994 0.02632303
v 0.05587483 0.04963745 0.02798587
v 0.05610869 0.05312955 0.03081504
v 0.05656863 0.05561944 0.03323200
v -0.02031104 0.07920285 0.03684341
v -0.01879870 0.01908550 0.03734226
v -0.01811270 0.02069844 0.03734226
v -0.01673288 0.02312568 0.03734226
v -0.01555576 0.02487956 0.03734226
v -0.01411358 0.02646119 0.03734226
v -0.01258565 0.02808979 0.03734226
v -0.01084725 0.02945218 0.03734226
v -0.00901529 0.03084589 0.03734226
v -0.01490093 -0.05756843 0.01341613
v 0.04763493 -0.04681026 0.01342081
v 0.04733091 -0.04728005 0.01342081
v 0.04707366 -0.05020841 0.01515391
v 0.04601346 -0.05230680 0.01587291
v -0.02031104 0.06936859 0.01481900
v -0.02018631 0.07088758 0.01597596
v -0.01708368 0.06813149 0.01341613
v 0.04873411 -0.04508770 0.01342081
v 0.04961501 -0.04328684 0.01342081
v 0.05018408 -0.04502506 0.01491737
v 0.05240581 -0.04811001 0.01909554
v 0.05019188 -0.04131373 0.01342081
v 0.05288134 -0.04408549 0.01848661
v 0.05339585 0.03259976 0.01718679
v 0.05274102 0.03259976 0.01563637
v 0.05555521 0.03881664 0.02249148
v 0.05595278 0.04365547 0.02476090
v 0.05604633 0.04382773 0.02499979
v 0.05341923 0.03568471 0.01752170
v 0.05556301 0.04572255 0.02523867
v 0.05281118 0.04970009 0.02482179
v 0.05278779 0.04036695 0.01864821
v 0.05507968 0.04840034 0.02632069
v 0.05333348 0.04813413 0.02427610
v 0.05535253 0.05518096 0.03157385
v 0.05560978 0.05695050 0.03322966
v 0.05604633 0.05633978 0.03323200
v 0.04800912 0.06312040 0.03322966
v 0.04561589 0.06424789 0.03322966
v 0.04470381 0.06463939 0.03322966
v -0.02031104 0.08216251 0.03603775
v 0.05483802 0.05792140 0.03322966
v 0.05383240 0.05893928 0.03322966
v 0.05264747 0.06001979 0.03322966
v 0.05157169 0.06091239 0.03322966
v 0.05073757 0.06147614 0.03322966
v -0.01482297 -0.05744316 0.01341613
v -0.02031104 0.07095022 0.01605091
v -0.02031104 0.07276673 0.01758727
v -0.01708368 0.06946256 0.01453093
v -0.01490093 0.06824110 0.01341613
v -0.01355230 -0.05484365 0.01341613
v -0.01313914 -0.05399803 0.01341613
v -0.00631024 -0.03901176 0.01341613
v 0.05023085 -0.04087525 0.01342081
v 0.05034779 -0.03880818 0.01342081
v 0.05157169 0.02949916 0.01342081
v 0.05172760 0.03259976 0.01398290
v 0.05247597 0.03568471 0.01596659
v 0.05313079 0.03828421 0.01810486
v 0.05123648 0.05046741 0.02423394
v 0.05123648 0.05201772 0.02546116
v 0.05306064 0.05308257 0.02771888
v 0.04973973 0.04044524 0.01547945
v 0.05006714 0.04389036 0.01829691
v 0.04874970 0.04251231 0.01622656
v 0.04905373 0.04598876 0.01910725
v 0.05058165 0.03538718 0.01342081
v 0.05022306 0.03881664 0.01497592
v 0.05313859 0.04401564 0.02138136
v 0.04813385 0.06138218 0.03170501
v 0.04616937 0.06191461 0.03122723
v 0.04409576 0.06238440 0.03079864
v 0.04192080 0.06559462 0.03322966
v -0.00715216 0.06637760 0.01341613
v -0.00770564 0.06661250 0.01341613
v -0.01087063 0.06900843 0.01479324
v -0.02031104 0.08288286 0.03557403
v 0.05327891 0.05640241 0.03063938
v 0.05212517 0.05846949 0.03149890
v 0.04987226 0.05604224 0.02783129
v 0.05005935 0.05925247 0.03082675
v -0.02031104 0.07433270 0.01896439
v -0.01708368 0.07101285 0.01591273
v -0.01397326 0.06824110 0.01341613
v -0.00631024 0.06584517 0.01341613
v 0.05136901 0.03259976 0.01342081
v 0.04965398 0.05276938 0.02486629
v 0.05193808 0.05514964 0.02857137
v 0.04832874 0.03897324 0.01342081
v 0.04820401 0.03912983 0.01342081
v 0.04788439 0.04165104 0.01495250
v 0.04667608 0.04356151 0.01546774
v 0.05019188 0.03606054 0.01342081
v 0.04813385 0.05655901 0.02736055
v 0.04583416 0.05549415 0.02521759
v 0.04376835 0.05604224 0.02470235
v 0.04393205 0.05922115 0.02774698
v -0.01154105 0.07185848 0.01807910
v -0.01708368 0.07713577 0.02250787
v -0.02018631 0.08037732 0.02540027
v -0.02031104 0.08159877 0.02700924
v -0.02031104 0.08300814 0.02954800
v -0.02031104 0.08396338 0.03261371
v 0.03881817 0.04905804 0.01611180
v 0.03881817 0.04747642 0.01468785
v 0.03881817 0.04606706 0.01342081
v 0.04162457 0.04464202 0.01342081
v 0.04236515 0.04420356 0.01342081
v -0.01087063 0.06775566 0.01341613
v -0.01397326 0.07095022 0.01609775
v -0.01397326 0.07229695 0.01765051
v 0.04316809 0.04639590 0.01569023
v 0.04563927 0.05226827 0.02221746
v -0.02031104 0.07594564 0.02050544
v -0.02018631 0.07425440 0.01889412
v -0.01708368 0.07264146 0.01746783
v -0.01397326 0.06938425 0.01449580
v -0.01130718 0.06784961 0.01341613
v 0.04517155 0.04216780 0.01342081
v 0.04539761 0.04199555 0.01342081
v 0.04698791 0.04691268 0.01834843
v 0.04503122 0.04573820 0.01620782
v 0.04503122 0.04418789 0.01491971
v 0.04109447 0.04699097 0.01518670
v 0.04356567 0.05284768 0.02170221
v 0.04129716 0.05016988 0.01818215
v -0.01397326 0.07386291 0.01962015
v -0.02031104 0.08043996 0.02543072
v 0.04198317 0.04504918 0.01394777
v -0.02018631 0.07743331 0.02198091
v -0.02018631 0.07884268 0.02353602
v -0.01708368 0.07556981 0.02058741
v -0.02031104 0.07751161 0.02204883
v -0.02031104 0.07892097 0.02360628
f 1 2 23
f 1 23 67
f 1 67 119
f 1 119 118
f 1 118 123
f 1 123 122
f 1 122 121
f 1 121 116
f 1 116 159
f 1 159 199
f 1 199 236
f 1 236 262
f 1 262 261
f 1 261 260
f 1 260 287
f 1 287 293
f 1 293 292
f 1 292 273
f 1 273 241
f 1 241 207
f 1 207 206
f 1 206 173
f 1 173 134
f 1 134 86
f 1 86 43
f 1 43 3
f 1 3 4
f 1 4 5
f 1 5 6
f 1 6 2
f 2 7 8
f 2 8 9
f 2 9 10
f 2 10 11
f 2 11 12
f 2 12 13
f 2 13 14
f 2 14 15
f 2 15 16
f 2 16 17
f 2 17 18
f 2 18 19
f 2 19 20
f 2 20 21
f 2 21 22
f 2 22 23
f 2 6 7
f 3 24 25
f 3 25 26
f 3 26 27
f 3 27 28
f 3 28 29
f 3 29 30
f 3 30 31
f 3 31 32
f 3 32 33
f 3 33 34
f 3 34 35
f 3 35 36
f 3 36 37
f 3 37 38
f 3 38 39
f 3 39 40
f 3 40 41
f 3 41 42
f 3 42 4
f 3 43 87
f 3 87 136
f 3 136 175
f 3 175 209
f 3 209 243
f 3 243 277
f 3 277 268
f 3 268 234
f 3 234 233
f 3 233 244
f 3 244 212
f 3 212 211
f 3 211 210
f 3 210 205
f 3 205 168
f 3 168 124
f 3 124 68
f 3 68 24
f 4 42 7
f 4 7 5
f 5 7 6
f 7 42 41
f 7 41 40
f 7 40 44
f 7 44 45
f 7 45 46
f 7 46 47
f 7 47 48
f 7 48 49
f 7 49 50
f 7 50 51
f 7 51 52
f 7 52 53
f 7 53 54
f 7 54 55
f 7 55 56
f 7 56 57
f 7 57 58
f 7 58 59
f 7 59 60
f 7 60 61
f 7 61 62
f 7 62 63
f 7 63 64
f 7 64 65
f 7 65 117
f 7 117 167
f 7 167 166
f 7 166 165
f 7 165 164
f 7 164 163
f 7 163 162
f 7 162 161
f 7 161 160
f 7 160 120
f 7 120 66
f 7 66 22
f 7 22 21
f 7 21 20
f 7 20 19
f 7 19 18
f 7 18 17
f 7 17 16
f 7 16 15
f 7 15 14
f 7 14 13
f 7 13 12
f 7 12 11
f 7 11 10
f 7 10 9
f 7 9 8
f 22 66 23
f 23 66 67
f 24 68 69
f 24 69 70
f 24 70 71
f 24 71 25
f 25 71 72
f 25 72 73
f 25 73 26
f 26 73 74
f 26 74 75
f 26 75 27
f 27 75 28
f 28 75 76
f 28 76 77
f 28 77 78
f 28 78 79
f 28 79 29
f 29 79 30
f 30 79 80
f 30 80 81
f 30 81 31
f 31 81 82
f 31 82 35
f 31 35 32
f 32 35 34
f 32 34 33
f 35 82 133
f 35 133 83
f 35 83 36
f 36 83 37
f 37 83 84
f 37 84 85
f 37 85 38
f 38 85 39
f 39 85 45
f 39 45 44
f 39 44 40
f 43 86 87
f 45 85 84
f 45 84 46
f 46 84 88
f 46 88 89
f 46 89 90
f 46 90 47
f 47 90 48
f 48 90 91
f 48 91 77
f 48 77 74
f 48 74 49
f 49 74 92
f 49 92 50
f 50 92 72
f 50 72 51
f 51 72 93
f 51 93 52
f 52 93 94
f 52 94 95
f 52 95 53
f 53 95 54
f 54 95 96
f 54 96 97
f 54 97 55
f 55 97 98
f 55 98 56
f 56 98 99
f 56 99 100
f 56 100 101
f 56 101 57
f 57 101 102
f 57 102 103
f 57 103 104
f 57 104 58
f 58 104 59
f 59 104 105
f 59 105 60
f 60 105 61
f 61 105 106
f 61 106 107
f 61 107 108
f 61 108 62
f 62 108 63
f 63 108 109
f 63 109 110
f 63 110 111
f 63 111 64
f 64 111 112
f 64 112 113
f 64 113 65
f 65 113 114
f 65 114 115
f 65 115 116
f 65 116 117
f 66 118 119
f 66 119 67
f 66 120 116
f 66 116 121
f 66 121 122
f 66 122 123
f 66 123 118
f 68 124 125
f 68 125 126
f 68 126 69
f 69 126 127
f 69 127 128
f 69 128 70
f 70 128 129
f 70 129 71
f 71 129 130
f 71 130 72
f 72 92 73
f 72 130 93
f 73 92 74
f 74 77 76
f 74 76 75
f 77 91 78
f 78 91 131
f 78 131 79
f 79 131 89
f 79 89 80
f 80 89 81
f 81 89 132
f 81 132 133
f 81 133 82
f 83 88 84
f 83 133 88
f 86 134 135
f 86 135 87
f 87 135 136
f 88 133 89
f 89 133 132
f 89 131 90
f 90 131 91
f 93 130 94
f 94 129 95
f 94 130 129
f 95 129 128
f 95 128 127
f 95 127 96
f 96 127 97
f 97 127 137
f 97 137 99
f 97 99 98
f 99 137 138
f 99 138 139
f 99 139 100
f 100 139 140
f 100 140 102
f 100 102 101
f 102 141 103
f 102 140 142
f 102 142 143
f 102 143 144
f 102 144 141
f 103 141 104
f 104 141 105
f 105 141 106
f 106 141 145
f 106 145 146
f 106 146 107
f 107 146 108
f 108 146 147
f 108 147 109
f 109 147 148
f 109 148 149
f 109 149 110
f 110 150 151
f 110 151 152
f 110 152 111
f 110 149 148
f 110 148 150
f 111 152 153
f 111 153 112
f 112 154 113
f 112 153 155
f 112 155 154
f 113 154 114
f 114 154 156
f 114 156 115
f 115 156 157
f 115 157 158
f 115 158 116
f 116 120 160
f 116 160 161
f 116 161 162
f 116 162 163
f 116 163 164
f 116 164 165
f 116 165 166
f 116 166 167
f 116 167 117
f 116 158 159
f 124 168 169
f 124 169 170
f 124 170 125
f 125 170 171
f 125 171 172
f 125 172 126
f 126 172 127
f 127 138 137
f 127 172 138
f 134 173 135
f 135 173 174
f 135 174 136
f 136 174 175
f 138 172 139
f 139 172 171
f 139 171 140
f 140 171 170
f 140 170 142
f 141 144 145
f 142 170 169
f 142 169 176
f 142 176 143
f 143 176 177
f 143 177 178
f 143 178 144
f 144 178 145
f 145 178 179
f 145 179 146
f 146 179 177
f 146 177 180
f 146 180 181
f 146 181 148
f 146 148 147
f 148 181 182
f 148 182 150
f 150 182 183
f 150 183 184
f 150 184 151
f 151 184 152
f 152 184 153
f 153 185 186
f 153 186 155
f 153 184 187
f 153 187 185
f 154 155 186
f 154 186 185
f 154 185 188
f 154 188 156
f 156 189 157
f 156 188 190
f 156 190 191
f 156 191 192
f 156 192 189
f 157 189 193
f 157 193 158
f 158 193 194
f 158 194 195
f 158 195 159
f 159 196 197
f 159 197 198
f 159 198 199
f 159 195 194
f 159 194 200
f 159 200 201
f 159 201 202
f 159 202 203
f 159 203 204
f 159 204 196
f 168 205 176
f 168 176 169
f 173 206 174
f 174 206 207
f 174 207 208
f 174 208 175
f 175 208 209
f 176 205 177
f 177 179 178
f 177 205 210
f 177 210 211
f 177 211 212
f 177 212 180
f 180 212 213
f 180 213 181
f 181 213 214
f 181 214 215
f 181 215 183
f 181 183 182
f 183 216 217
f 183 217 187
f 183 187 184
f 183 215 216
f 185 187 217
f 185 217 218
f 185 218 190
f 185 190 188
f 189 219 220
f 189 220 221
f 189 221 200
f 189 200 193
f 189 192 222
f 189 222 223
f 189 223 224
f 189 224 225
f 189 225 219
f 190 218 217
f 190 217 226
f 190 226 227
f 190 227 222
f 190 222 228
f 190 228 191
f 191 228 192
f 192 228 222
f 193 200 194
f 196 204 229
f 196 229 230
f 196 230 197
f 197 230 231
f 197 231 198
f 198 232 199
f 198 231 233
f 198 233 234
f 198 234 235
f 198 235 232
f 199 232 236
f 200 221 237
f 200 237 201
f 201 237 238
f 201 238 202
f 202 238 203
f 203 238 239
f 203 239 204
f 204 239 240
f 204 240 229
f 207 241 208
f 208 241 242
f 208 242 209
f 209 242 243
f 212 214 213
f 212 244 215
f 212 215 214
f 215 244 245
f 215 245 216
f 216 245 217
f 217 245 226
f 219 246 220
f 219 225 246
f 220 246 221
f 221 246 247
f 221 247 237
f 222 227 248
f 222 248 249
f 222 249 250
f 222 250 224
f 222 224 223
f 224 251 225
f 224 250 251
f 225 251 246
f 226 252 227
f 226 245 244
f 226 244 252
f 227 252 248
f 229 240 239
f 229 239 253
f 229 253 254
f 229 254 255
f 229 255 230
f 230 255 256
f 230 256 231
f 231 256 233
f 232 235 257
f 232 257 258
f 232 258 259
f 232 259 260
f 232 260 261
f 232 261 262
f 232 262 236
f 233 256 263
f 233 263 264
f 233 264 265
f 233 265 266
f 233 266 267
f 233 267 244
f 234 268 235
f 235 268 269
f 235 269 270
f 235 270 257
f 237 247 238
f 238 247 246
f 238 246 239
f 239 246 271
f 239 271 272
f 239 272 253
f 241 273 274
f 241 274 242
f 242 274 275
f 242 275 276
f 242 276 243
f 243 276 277
f 244 267 278
f 244 278 279
f 244 279 249
f 244 249 248
f 244 248 252
f 246 251 280
f 246 280 281
f 246 281 271
f 249 279 250
f 250 279 251
f 251 279 282
f 251 282 280
f 253 272 254
f 254 272 271
f 254 271 283
f 254 283 284
f 254 284 255
f 255 284 283
f 255 283 285
f 255 285 263
f 255 263 256
f 257 270 286
f 257 286 258
f 258 286 270
f 258 270 287
f 258 287 259
f 259 287 260
f 263 285 283
f 263 283 264
f 264 283 265
f 265 283 266
f 266 288 267
f 266 283 288
f 267 288 271
f 267 271 282
f 267 282 278
f 268 277 269
f 269 289 290
f 269 290 291
f 269 291 270
f 269 277 276
f 269 276 289
f 270 291 287
f 271 281 282
f 271 288 283
f 273 275 274
f 273 292 275
f 275 292 289
f 275 289 276
f 278 282 279
f 280 282 281
f 287 291 290
f 287 290 293
f 289 292 290
f 290 292 293

