# https://github.com/mikedh/trimesh
v 0.01960830 0.00215210 0.05369511
v 0.06387195 0.00215210 0.05369511
v 0.01962391 0.00215210 0.05375515
v 0.01864548 0.00311947 0.05369511
v 0.02450046 0.04310775 0.05369511
v 0.05886530 0.04021690 0.12772843
v 0.06053592 0.03876022 0.12904938
v 0.06408013 0.00215210 0.05429554
v 0.01991536 0.00215210 0.05443564
v 0.01895774 0.00344568 0.05517618
v 0.01651166 0.00530167 0.05369511
v 0.02294954 0.04457567 0.05369511
v 0.05689803 0.04134174 0.12579705
v 0.05569059 0.04329897 0.12790856
v 0.05747572 0.04196041 0.12884924
v 0.05924522 0.04061622 0.12979992
v 0.06114484 0.03914829 0.13201151
v 0.06214409 0.03729792 0.13037033
v 0.06182662 0.03681986 0.12829884
v 0.06494927 0.00215210 0.05747784
v 0.02078970 0.00215210 0.05635703
v 0.01558007 0.00628029 0.05369511
v 0.02104472 0.00241082 0.05747784
v 0.01949380 0.00401372 0.05747784
v 0.02143505 0.04579051 0.05369511
v 0.02166404 0.04653291 0.05610685
v 0.05453001 0.04448569 0.12892930
v 0.05608613 0.04363081 0.12997005
v 0.05857905 0.04307401 0.13511376
v 0.05800657 0.04255095 0.13201151
v 0.05959392 0.04099304 0.13201151
v 0.06223776 0.04053185 0.13933679
v 0.06194112 0.04013816 0.13726530
v 0.05891214 0.04338896 0.13695508
v 0.06251881 0.04086931 0.14132822
v 0.06387195 0.03882771 0.14132822
v 0.06548533 0.00215210 0.06054004
v 0.06503775 0.03669613 0.14132822
v 0.02132055 0.00215210 0.05747784
v 0.01498676 0.00701144 0.05369511
v 0.01803135 0.00557164 0.05747784
v 0.01591315 0.00665711 0.05512614
v 0.02153393 0.00288888 0.05947928
v 0.02156516 0.00602720 0.06562370
v 0.02086256 0.04612796 0.05369511
v 0.02110717 0.04624607 0.05437560
v 0.01901499 0.04989620 0.06148072
v 0.02010792 0.04888383 0.06050001
v 0.05257835 0.04645979 0.13097077
v 0.05416049 0.04563303 0.13200151
v 0.05645044 0.04393451 0.13201151
v 0.06059317 0.04195479 0.13814594
v 0.06113443 0.04242160 0.14132822
v 0.05702293 0.04437883 0.13511376
v 0.05924522 0.04370955 0.13902657
v 0.06154558 0.04289965 0.14443047
v 0.06289352 0.04134737 0.14443047
v 0.06441322 0.03882771 0.14443047
v 0.06534481 0.00215210 0.06382240
v 0.06534481 0.03452518 0.13896653
v 0.06604741 0.02950836 0.13511376
v 0.06621915 0.02640941 0.13511376
v 0.06460578 0.03882771 0.14753269
v 0.06538644 0.03514384 0.14132822
v 0.02263727 0.00215210 0.06001966
v 0.01517933 0.00886743 0.05747784
v 0.01463807 0.00772572 0.05420547
v 0.01305072 0.00951984 0.05369511
v 0.01898897 0.00659524 0.06142067
v 0.01855700 0.00922738 0.06543357
v 0.01552802 0.00931175 0.05904897
v 0.02206479 0.00341756 0.06155077
v 0.02208040 0.00656712 0.06768519
v 0.02119044 0.00870996 0.06990679
v 0.01932205 0.04694348 0.05369511
v 0.01955105 0.04707846 0.05437560
v 0.01825514 0.04958124 0.05940923
v 0.01946257 0.05023365 0.06369231
v 0.01530944 0.05581851 0.07495042
v 0.05299470 0.04671288 0.13303225
v 0.05492555 0.04593111 0.13511376
v 0.01828117 0.05260707 0.06990679
v 0.05731958 0.04575114 0.14114810
v 0.05770991 0.04465441 0.13808589
v 0.05813668 0.04595924 0.14443047
v 0.05958351 0.04401888 0.14132822
v 0.05999986 0.04440133 0.14443047
v 0.06193071 0.04329335 0.14753269
v 0.06211806 0.04347895 0.14910383
v 0.06314334 0.04174107 0.14753269
v 0.05621624 0.00286076 0.09094193
v 0.05624227 0.00215210 0.08794978
v 0.06564146 0.02437344 0.13511376
v 0.06326824 0.01447479 0.11648033
v 0.06532399 0.03510447 0.14341974
v 0.06532399 0.03382777 0.14341974
v 0.06571432 0.02640941 0.13744543
v 0.06545410 0.02464903 0.13696508
v 0.06305486 0.04223599 0.15034472
v 0.06230542 0.04369830 0.15374718
v 0.06217531 0.04354644 0.15536834
v 0.06285710 0.04193229 0.15374718
v 0.06406972 0.03882771 0.15064493
v 0.02386031 0.00215210 0.06229130
v 0.02419860 0.00252893 0.06369231
v 0.01305072 0.00986855 0.05436559
v 0.01305072 0.04806832 0.05369511
v 0.01905142 0.00980668 0.06750505
v 0.01866109 0.01245569 0.07141787
v 0.02162761 0.00918801 0.07168807
v 0.01305072 0.01020600 0.05494601
v 0.01701129 0.01387862 0.07007691
v 0.02469823 0.00297324 0.06552363
v 0.02468782 0.00606094 0.07174811
v 0.02265289 0.00715767 0.06990679
v 0.01774511 0.04747215 0.05369511
v 0.01716742 0.04917067 0.05752787
v 0.01618378 0.04988495 0.05858864
v 0.01527821 0.05274768 0.06541355
v 0.01415926 0.05559917 0.07271881
v 0.01612133 0.05308513 0.06748504
v 0.01573100 0.05606036 0.07702191
v 0.01324328 0.05620659 0.07356942
v 0.01305072 0.05809632 0.08017418
v 0.01305072 0.05879373 0.08295618
v 0.05619022 0.04675788 0.14206876
v 0.05581550 0.04653853 0.13999726
v 0.05548762 0.04633043 0.13821598
v 0.05657535 0.04697722 0.14443047
v 0.05855303 0.04629669 0.14753269
v 0.06037458 0.04473878 0.14753269
v 0.06231063 0.04370392 0.15117532
v 0.05574784 0.00317009 0.09301343
v 0.05541476 0.00215210 0.08994122
v 0.06277382 0.01508783 0.11958257
v 0.06449649 0.03571751 0.14753269
v 0.06274260 0.03904706 0.15358706
v 0.06303925 0.03586374 0.15050484
v 0.06240951 0.03699421 0.15245625
v 0.06241992 0.03391776 0.14937402
v 0.06367939 0.02453092 0.13711519
v 0.06219613 0.01550403 0.12118372
v 0.06087941 0.04473878 0.15034472
v 0.06057235 0.04486251 0.15374718
v 0.06057235 0.04399075 0.15569858
v 0.06057235 0.04193229 0.15591874
v 0.06224817 0.04193229 0.15543838
v 0.06223776 0.04023377 0.15541839
v 0.02646253 0.00215210 0.06698468
v 0.02746698 0.00268078 0.06990679
v 0.01398231 0.04804583 0.05369511
v 0.01305072 0.04867011 0.05501606
v 0.02075847 0.01084716 0.07283890
v 0.01904622 0.01295063 0.07300902
v 0.01787522 0.01450291 0.07300902
v 0.02343875 0.00791131 0.07275884
v 0.02217928 0.00978981 0.07375956
v 0.01305072 0.01146021 0.05703752
v 0.01537189 0.01530718 0.06873594
v 0.02527071 0.00347942 0.06759512
v 0.02791977 0.00307448 0.07152795
v 0.02660825 0.00483486 0.07267878
v 0.02530194 0.00664024 0.07381960
v 0.01708935 0.04762401 0.05369511
v 0.01487747 0.04793897 0.05369511
v 0.01398231 0.04936752 0.05668726
v 0.01398231 0.05003680 0.05824839
v 0.01320685 0.05296703 0.06488317
v 0.01305072 0.05535733 0.07077741
v 0.01305072 0.05553168 0.07127778
v 0.01305072 0.05577352 0.07199829
v 0.01305072 0.05631907 0.07376957
v 0.01305072 0.05922117 0.08542797
v 0.05700211 0.04707846 0.14753269
v 0.01305072 0.05957550 0.08853020
v 0.05644524 0.00593721 0.10011855
v 0.05457164 0.00346817 0.09483475
v 0.05448317 0.00215210 0.09123215
v 0.06057235 0.04009317 0.15552846
v 0.06057235 0.03854088 0.15409743
v 0.06057235 0.03692110 0.15253631
v 0.06057235 0.03536881 0.15097518
v 0.06057235 0.03387276 0.14941405
v 0.06057235 0.03238234 0.14753269
v 0.06057235 0.02464903 0.13694507
v 0.06057235 0.02349043 0.13511376
v 0.06057235 0.02214062 0.13286213
v 0.06151435 0.01550403 0.12118372
v 0.06057235 0.03112252 0.14589151
v 0.06051510 0.01484037 0.11987277
v 0.05746531 0.01238820 0.11501928
v 0.05610175 0.00928363 0.10880480
v 0.06034335 0.01310810 0.11620013
v 0.05765266 0.04646542 0.15093515
v 0.05824597 0.04410324 0.15576862
v 0.05821995 0.04193229 0.15578865
v 0.05872478 0.04014941 0.15548843
v 0.02813835 0.00215210 0.06992680
v 0.01398231 0.04834953 0.05437560
v 0.01305072 0.04959811 0.05710757
v 0.02123208 0.01185953 0.07544077
v 0.01836964 0.01517220 0.07507050
v 0.02153914 0.01528468 0.08115489
v 0.01581947 0.01597646 0.07080744
v 0.02425585 0.00870996 0.07555085
v 0.01305072 0.01206762 0.05801822
v 0.01518974 0.01805180 0.07232853
v 0.01477859 0.01703944 0.06982673
v 0.01305072 0.01579649 0.06371232
v 0.01305072 0.01391799 0.06089029
v 0.02955396 0.00215210 0.07232853
v 0.03060005 0.00274265 0.07527065
v 0.02852348 0.00361440 0.07359945
v 0.02736810 0.00568412 0.07547079
v 0.02824244 0.00959858 0.08344654
v 0.02759709 0.00897429 0.08137505
v 0.01305072 0.05040800 0.05893889
v 0.01305072 0.05304014 0.06501326
v 0.05435826 0.04785460 0.14443047
v 0.05435826 0.04761838 0.14753269
v 0.05674709 0.04688723 0.15009454
v 0.01305072 0.05960924 0.09163244
v 0.05435826 0.00451428 0.09785692
v 0.05367128 0.00284951 0.09385404
v 0.05415529 0.00215210 0.09147232
v 0.05872478 0.03707295 0.15239620
v 0.05877162 0.03401899 0.14924393
v 0.05883927 0.02481213 0.13673492
v 0.05746531 0.02761300 0.14026746
v 0.05746531 0.02027900 0.12889928
v 0.05746531 0.01899105 0.12675774
v 0.05746531 0.01563338 0.12098358
v 0.05944299 0.01556027 0.12109365
v 0.05569059 0.01239383 0.11498926
v 0.05746531 0.03031825 0.14391009
v 0.05517536 0.00928363 0.10880480
v 0.05125122 0.00427806 0.09785692
v 0.05125122 0.00333319 0.09577541
v 0.05435826 0.00632528 0.10225008
v 0.05435826 0.00566725 0.10069896
v 0.05730917 0.04502561 0.15392730
v 0.05435826 0.04693223 0.15001449
v 0.05257315 0.04674663 0.14931398
v 0.05512332 0.04450256 0.15301665
v 0.05666903 0.04193229 0.15464783
v 0.05552926 0.03995256 0.15257633
v 0.05535751 0.03679174 0.14956416
v 0.05670546 0.03472202 0.14853342
v 0.02305363 0.01061095 0.07653156
v 0.02184620 0.01254006 0.07751226
v 0.01892131 0.01592022 0.07714200
v 0.01818228 0.01799556 0.07855301
v 0.01762541 0.01701132 0.07611126
v 0.01620981 0.01703944 0.07321917
v 0.02188263 0.01883920 0.08673891
v 0.02547369 0.01619581 0.08908060
v 0.02452648 0.01827115 0.09064172
v 0.01560609 0.01877733 0.07440003
v 0.02488559 0.00935674 0.07762234
v 0.01305072 0.01666824 0.06499325
v 0.02982979 0.00215210 0.07277885
v 0.03168777 0.00215210 0.07565093
v 0.03225506 0.00215210 0.07644149
v 0.03131826 0.00329945 0.07733213
v 0.03014206 0.00539728 0.07922350
v 0.02932496 0.00449178 0.07640146
v 0.02858593 0.00678647 0.07922350
v 0.03098518 0.00924988 0.08710918
v 0.03057923 0.01194951 0.09085187
v 0.02850787 0.01301812 0.08919067
v 0.01305072 0.05896246 0.09474468
v 0.05125122 0.00215210 0.09296340
v 0.05232333 0.00215210 0.09262315
v 0.05533149 0.03370966 0.14646193
v 0.05544599 0.03076257 0.14324961
v 0.05746531 0.03151621 0.14546120
v 0.05676271 0.02506522 0.13633463
v 0.05766307 0.02414847 0.13522383
v 0.05746531 0.02244995 0.13243182
v 0.05746531 0.02148821 0.13087069
v 0.05766307 0.02594822 0.13794579
v 0.05575305 0.02787171 0.13989720
v 0.05435826 0.01590335 0.12055327
v 0.05435826 0.01496972 0.11899214
v 0.05362444 0.01256255 0.11470906
v 0.05746531 0.01475038 0.11942245
v 0.05309879 0.00934549 0.10867471
v 0.05125122 0.00560538 0.10066894
v 0.04813897 0.00277639 0.09391408
v 0.04813897 0.00215210 0.09257312
v 0.04952855 0.00215210 0.09279327
v 0.04963264 0.04664539 0.14607165
v 0.05051739 0.04503686 0.14813313
v 0.05206311 0.04503686 0.14984436
v 0.01305072 0.05746641 0.09668607
v 0.05502963 0.04193229 0.15309670
v 0.05243783 0.03988506 0.14946409
v 0.05329136 0.03781535 0.14866351
v 0.05221924 0.03663989 0.14659201
v 0.05326533 0.03456454 0.14557128
v 0.02391756 0.01143208 0.07922350
v 0.01872875 0.01876608 0.08061449
v 0.02238225 0.01955910 0.08854021
v 0.02174211 0.02174130 0.09010133
v 0.02753984 0.01508783 0.09075180
v 0.02635323 0.01703382 0.09173250
v 0.02516142 0.01902480 0.09271321
v 0.01509606 0.02085267 0.07556086
v 0.01455480 0.01996967 0.07321917
v 0.01305072 0.02022838 0.06976668
v 0.01305072 0.01824865 0.06713479
v 0.01305072 0.01762999 0.06630419
v 0.01859864 0.02167943 0.08397692
v 0.01854139 0.02465465 0.08721926
v 0.01555405 0.02179192 0.07762234
v 0.03313981 0.00215210 0.07766237
v 0.03355616 0.00266953 0.07922350
v 0.03413906 0.00309135 0.08081464
v 0.03708997 0.00607219 0.09034151
v 0.03488850 0.00680897 0.08854021
v 0.03149521 0.00657837 0.08326641
v 0.03078741 0.00597658 0.08119491
v 0.03269223 0.00851311 0.08830003
v 0.03376954 0.00898554 0.09063171
v 0.03170339 0.00987980 0.08918067
v 0.03126101 0.01261317 0.09292337
v 0.02939782 0.01385613 0.09184258
v 0.05337463 0.03149372 0.14239900
v 0.05242222 0.02768049 0.13701512
v 0.05368169 0.02852975 0.13908662
v 0.05435826 0.02447467 0.13415306
v 0.05367128 0.02201126 0.13007012
v 0.05574264 0.02170193 0.13053045
v 0.05270846 0.02479525 0.13364269
v 0.05277612 0.01863672 0.12425593
v 0.05197464 0.01527343 0.11845175
v 0.05125122 0.01288876 0.11412864
v 0.05125122 0.01200013 0.11256752
v 0.05125122 0.01071781 0.11026586
v 0.05125122 0.00959296 0.10823439
v 0.04813897 0.00593159 0.09993842
v 0.04813897 0.00481236 0.09785692
v 0.05125122 0.00637590 0.10223007
v 0.04813897 0.00354691 0.09546519
v 0.04622374 0.00297324 0.09344374
v 0.04515684 0.00215210 0.09099197
v 0.03973382 0.04735405 0.13427315
v 0.04921629 0.04503686 0.14658202
v 0.04626538 0.04421573 0.14331966
v 0.04902373 0.04193229 0.14678216
v 0.05041851 0.04193229 0.14834328
v 0.05196423 0.04193229 0.14995444
v 0.01305072 0.05435622 0.09700631
v 0.03956207 0.04503686 0.13460339
v 0.04937242 0.03992444 0.14634184
v 0.05129285 0.03886708 0.14750268
v 0.05014268 0.03785472 0.14550123
v 0.04697838 0.03463204 0.13939684
v 0.05010104 0.03458142 0.14248907
v 0.05217240 0.03356906 0.14349980
v 0.02342834 0.02038023 0.09141227
v 0.02439637 0.02109451 0.09398412
v 0.02500529 0.02198314 0.09604561
v 0.02232501 0.02269179 0.09217283
v 0.02169007 0.02476713 0.09329363
v 0.02133616 0.02355792 0.09134222
v 0.01980086 0.02349043 0.08837008
v 0.02820081 0.01579649 0.09282329
v 0.02740453 0.01804056 0.09475469
v 0.02770639 0.02144321 0.09981833
v 0.01305072 0.02315298 0.07308908
v 0.01305072 0.02050397 0.07009692
v 0.01896295 0.02640941 0.08946087
v 0.01820831 0.02640941 0.08789974
v 0.01555405 0.02492461 0.08073458
v 0.02489079 0.02804044 0.10245022
v 0.02174211 0.02795607 0.09630580
v 0.01511687 0.02386164 0.07866309
v 0.01305072 0.02319235 0.07312911
v 0.03428999 0.00215210 0.07921349
v 0.03698068 0.00290575 0.08427713
v 0.03745428 0.00945798 0.09609565
v 0.03663198 0.00879432 0.09402415
v 0.03456062 0.00963795 0.09270320
v 0.03785502 0.00345130 0.08634863
v 0.03894795 0.00554914 0.09148233
v 0.04005129 0.00601033 0.09355381
v 0.03799033 0.00672460 0.09241300
v 0.03987954 0.01206200 0.10311070
v 0.03252048 0.01079092 0.09178254
v 0.03349371 0.01184828 0.09475469
v 0.03410783 0.01237695 0.09638586
v 0.03193759 0.01327683 0.09475469
v 0.03097477 0.01544216 0.09643589
v 0.03040748 0.01482912 0.09475469
v 0.05117315 0.03252857 0.14140828
v 0.05224006 0.03059384 0.14032751
v 0.04926833 0.02760175 0.13399294
v 0.04947130 0.02469965 0.13067056
v 0.05199025 0.02134760 0.12799863
v 0.05070475 0.01904729 0.12368552
v 0.04990327 0.01559964 0.11792137
v 0.05456123 0.02107201 0.12897933
v 0.04991368 0.02187628 0.12717803
v 0.04916945 0.01833302 0.12161403
v 0.05106386 0.01450854 0.11673051
v 0.04939844 0.01232071 0.11200711
v 0.04813897 0.00679772 0.10148954
v 0.04531817 0.00570099 0.09779688
v 0.04415758 0.00337256 0.09270320
v 0.04513081 0.00248393 0.09166246
v 0.04513081 0.00400247 0.09459457
v 0.04295016 0.00283264 0.09063171
v 0.04191968 0.00215210 0.08822998
v 0.04746760 0.04193229 0.14487077
v 0.04343937 0.04359706 0.13983716
v 0.04647876 0.04016065 0.14302946
v 0.01305072 0.05157784 0.09588550
v 0.03418069 0.03729792 0.12423592
v 0.03730856 0.04121801 0.13041036
v 0.03977546 0.04193229 0.13442325
v 0.04343937 0.04323711 0.13983716
v 0.04710329 0.03809094 0.14230893
v 0.04620813 0.03670175 0.14023744
v 0.04394420 0.03493012 0.13612448
v 0.04308547 0.03367029 0.13405299
v 0.04602077 0.03355218 0.13732535
v 0.04904454 0.03355781 0.14041758
v 0.02837776 0.02231497 0.10188983
v 0.02706104 0.02333296 0.10089911
v 0.02764914 0.02439031 0.10303064
v 0.02494283 0.02499773 0.09925793
v 0.02885136 0.01648827 0.09475469
v 0.02863798 0.01937350 0.09840731
v 0.03044912 0.02108889 0.10343093
v 0.03115172 0.02184253 0.10549241
v 0.01305072 0.04814706 0.09361386
v 0.01711017 0.02640941 0.08542797
v 0.01305072 0.04702221 0.09272322
v 0.01305072 0.04531245 0.09136224
v 0.01305072 0.02635879 0.07592112
v 0.02378225 0.02924965 0.10123935
v 0.02536439 0.02618444 0.10123935
v 0.02827887 0.02534643 0.10509213
v 0.02760750 0.02741615 0.10616290
v 0.02827887 0.02850725 0.10823439
v 0.03105804 0.03103815 0.11493922
v 0.02770639 0.03057134 0.10914505
v 0.02503131 0.03156683 0.10528227
v 0.02446923 0.03010453 0.10322078
v 0.02224174 0.02950836 0.09842732
v 0.03585132 0.00215210 0.08130500
v 0.03651748 0.00215210 0.08211558
v 0.03886468 0.00215210 0.08495763
v 0.03700149 0.01219698 0.09976829
v 0.03564314 0.01018350 0.09493481
v 0.03992118 0.00285513 0.08748945
v 0.04087879 0.00338943 0.08956094
v 0.03887509 0.00401372 0.08853020
v 0.04199775 0.00548165 0.09465461
v 0.04308547 0.00598220 0.09671609
v 0.04100890 0.00664024 0.09562531
v 0.04041560 0.00935112 0.09936800
v 0.04080593 0.01270878 0.10517218
v 0.04028028 0.01545341 0.10883483
v 0.03743867 0.01568963 0.10540236
v 0.03380598 0.01518345 0.09988838
v 0.03351453 0.01800681 0.10339090
v 0.05017390 0.03148809 0.13929676
v 0.04817020 0.02953086 0.13509374
v 0.04719697 0.02850162 0.13294219
v 0.04739474 0.02551516 0.12969985
v 0.04633824 0.02464340 0.12762836
v 0.04667653 0.02180879 0.12416586
v 0.04874268 0.02112263 0.12510654
v 0.04645274 0.01544216 0.11506932
v 0.04813897 0.01504846 0.11572979
v 0.04733229 0.01272003 0.11135664
v 0.04792559 0.02005403 0.12288494
v 0.04710329 0.01899105 0.12065333
v 0.04827949 0.01175267 0.11029588
v 0.04446985 0.00660649 0.09878759
v 0.04693675 0.00944673 0.10539235
v 0.04192488 0.00392936 0.09166246
v 0.04626538 0.04193229 0.14331966
v 0.04363194 0.04116739 0.13956695
v 0.04004609 0.03960948 0.13402297
v 0.04291372 0.03882771 0.13743542
v 0.04334049 0.03699984 0.13686502
v 0.01305072 0.05073984 0.09534511
v 0.02467220 0.03363655 0.10593273
v 0.02855471 0.03571751 0.11389848
v 0.03084466 0.03662864 0.11840171
v 0.03351453 0.03571751 0.12217443
v 0.03393609 0.03368154 0.12149394
v 0.03452419 0.03571751 0.12372555
v 0.03612195 0.03559378 0.12598718
v 0.03695986 0.03654990 0.12780849
v 0.03121417 0.03456454 0.11779128
v 0.04087879 0.04193229 0.13597438
v 0.04020742 0.03391213 0.13069057
v 0.04400145 0.03160058 0.13297221
v 0.04103493 0.03184242 0.12965982
v 0.04805570 0.03252295 0.13830606
v 0.04607281 0.03056572 0.13412304
v 0.04706686 0.03148247 0.13618452
v 0.03101640 0.02478401 0.10879480
v 0.03494574 0.01939037 0.10716362
v 0.03334278 0.02094828 0.10716362
v 0.03401415 0.02160069 0.10891488
v 0.03482604 0.02241621 0.11098637
v 0.03669964 0.02423846 0.11567976
v 0.03383720 0.02448592 0.11225729
v 0.02892422 0.02639254 0.10718364
v 0.03101640 0.02788296 0.11190704
v 0.03166175 0.03261294 0.11709077
v 0.03377995 0.03049823 0.11864189
v 0.03449817 0.03161745 0.12071338
v 0.03326471 0.03263543 0.11964260
v 0.02834133 0.03202239 0.11120654
v 0.02742014 0.03287728 0.11021582
v 0.02793538 0.03409773 0.11186701
v 0.02567666 0.03260731 0.10704353
v 0.04599475 0.01210137 0.10928515
v 0.04348621 0.00932862 0.10251027
v 0.04248176 0.00867621 0.10043878
v 0.04175314 0.00765822 0.09804705
v 0.04287209 0.01205075 0.10621294
v 0.04333008 0.01543091 0.11197709
v 0.03715242 0.01851862 0.10887486
v 0.03547660 0.01684822 0.10440163
v 0.04297097 0.01824303 0.11547961
v 0.04361632 0.02185941 0.12099358
v 0.04267953 0.02107764 0.11892209
v 0.04060816 0.02194939 0.11777126
v 0.04002006 0.01830489 0.11226730
v 0.03598663 0.02044773 0.10993561
v 0.04913822 0.03056572 0.13722527
v 0.04620813 0.02758488 0.13088070
v 0.04523490 0.02660626 0.12867912
v 0.04334049 0.02472776 0.12440604
v 0.04175314 0.02253994 0.11981273
v 0.04395981 0.01900792 0.11755110
v 0.04603638 0.01824303 0.11859185
v 0.04392859 0.01270316 0.10828443
v 0.04050408 0.03753976 0.13339252
v 0.04123790 0.03867586 0.13508373
v 0.03977546 0.03571751 0.13128099
v 0.03016288 0.03564440 0.11665045
v 0.03741785 0.03447456 0.12714802
v 0.03812565 0.03559378 0.12886926
v 0.03733978 0.03113939 0.12416586
v 0.04019181 0.03084693 0.12758833
v 0.04311149 0.03066695 0.13090072
v 0.04034794 0.02483463 0.12116370
v 0.04321558 0.02769174 0.12765839
v 0.04413156 0.02860286 0.12972988
v 0.03378516 0.02747239 0.11545960
v 0.03689220 0.02137572 0.11231733
v 0.03770409 0.02216874 0.11438882
v 0.03749591 0.02511021 0.11775125
v 0.03463348 0.02540267 0.11432879
v 0.03455541 0.02842851 0.11753109
v 0.03975984 0.02116200 0.11569977
v 0.03794870 0.02929464 0.12295499
v 0.04026467 0.02783797 0.12438603
f 1 2 8
f 1 8 20
f 1 20 37
f 1 37 59
f 1 59 92
f 1 92 134
f 1 134 178
f 1 178 225
f 1 225 273
f 1 273 272
f 1 272 291
f 1 291 290
f 1 290 346
f 1 346 414
f 1 414 454
f 1 454 453
f 1 453 452
f 1 452 380
f 1 380 316
f 1 316 263
f 1 263 262
f 1 262 261
f 1 261 211
f 1 211 198
f 1 198 149
f 1 149 104
f 1 104 65
f 1 65 39
f 1 39 21
f 1 21 9
f 1 9 3
f 1 3 4
f 1 4 11
f 1 11 22
f 1 22 40
f 1 40 68
f 1 68 107
f 1 107 151
f 1 151 165
f 1 165 164
f 1 164 116
f 1 116 75
f 1 75 45
f 1 45 25
f 1 25 12
f 1 12 5
f 1 5 2
f 2 5 6
f 2 6 7
f 2 7 8
f 3 9 10
f 3 10 4
f 4 10 11
f 5 12 13
f 5 13 6
f 6 13 14
f 6 14 15
f 6 15 16
f 6 16 7
f 7 16 17
f 7 17 18
f 7 18 19
f 7 19 8
f 8 19 18
f 8 18 20
f 9 21 10
f 10 22 11
f 10 21 23
f 10 23 24
f 10 24 22
f 12 25 26
f 12 26 14
f 12 14 13
f 14 27 28
f 14 28 29
f 14 29 30
f 14 30 15
f 14 26 27
f 15 30 16
f 16 31 32
f 16 32 33
f 16 33 17
f 16 30 29
f 16 29 34
f 16 34 31
f 17 33 18
f 18 33 32
f 18 32 35
f 18 35 36
f 18 36 20
f 20 36 38
f 20 38 37
f 21 39 23
f 22 24 41
f 22 41 42
f 22 42 40
f 23 43 24
f 23 39 43
f 24 43 44
f 24 44 41
f 25 45 46
f 25 46 26
f 26 46 47
f 26 47 48
f 26 48 49
f 26 49 27
f 27 49 50
f 27 50 28
f 28 50 51
f 28 51 34
f 28 34 29
f 31 34 52
f 31 52 32
f 32 52 53
f 32 53 35
f 34 51 54
f 34 54 55
f 34 55 53
f 34 53 52
f 35 53 56
f 35 56 57
f 35 57 36
f 36 57 58
f 36 58 38
f 37 38 60
f 37 60 61
f 37 61 62
f 37 62 59
f 38 58 63
f 38 63 64
f 38 64 60
f 39 65 43
f 40 42 66
f 40 66 67
f 40 67 68
f 41 44 69
f 41 69 42
f 42 69 70
f 42 70 71
f 42 71 66
f 43 65 72
f 43 72 44
f 44 72 73
f 44 73 74
f 44 74 69
f 45 75 76
f 45 76 46
f 46 76 77
f 46 77 47
f 47 78 48
f 47 77 79
f 47 79 78
f 48 78 49
f 49 80 81
f 49 81 50
f 49 78 82
f 49 82 79
f 49 79 80
f 50 81 54
f 50 54 51
f 53 55 56
f 54 81 83
f 54 83 84
f 54 84 55
f 55 84 83
f 55 83 85
f 55 85 86
f 55 86 56
f 56 87 88
f 56 88 57
f 56 86 87
f 57 88 89
f 57 89 90
f 57 90 58
f 58 90 63
f 59 91 92
f 59 62 93
f 59 93 94
f 59 94 91
f 60 64 61
f 61 64 95
f 61 95 62
f 62 95 96
f 62 96 97
f 62 97 98
f 62 98 93
f 63 95 64
f 63 90 99
f 63 99 100
f 63 100 101
f 63 101 102
f 63 102 103
f 63 103 95
f 65 104 105
f 65 105 72
f 66 71 106
f 66 106 67
f 67 106 68
f 68 106 111
f 68 111 158
f 68 158 206
f 68 206 210
f 68 210 209
f 68 209 260
f 68 260 312
f 68 312 311
f 68 311 310
f 68 310 372
f 68 372 371
f 68 371 379
f 68 379 441
f 68 441 440
f 68 440 439
f 68 439 437
f 68 437 490
f 68 490 418
f 68 418 353
f 68 353 295
f 68 295 271
f 68 271 222
f 68 222 175
f 68 175 173
f 68 173 125
f 68 125 124
f 68 124 172
f 68 172 171
f 68 171 170
f 68 170 169
f 68 169 218
f 68 218 217
f 68 217 200
f 68 200 152
f 68 152 107
f 69 74 70
f 70 108 109
f 70 109 71
f 70 74 110
f 70 110 108
f 71 111 106
f 71 109 112
f 71 112 111
f 72 105 113
f 72 113 114
f 72 114 73
f 73 114 115
f 73 115 110
f 73 110 74
f 75 116 77
f 75 77 76
f 77 117 118
f 77 118 119
f 77 119 120
f 77 120 121
f 77 121 79
f 77 116 117
f 78 79 82
f 79 122 80
f 79 121 120
f 79 120 123
f 79 123 124
f 79 124 125
f 79 125 122
f 80 126 127
f 80 127 128
f 80 128 81
f 80 122 125
f 80 125 126
f 81 128 83
f 83 128 127
f 83 127 85
f 85 129 130
f 85 130 87
f 85 87 86
f 85 127 126
f 85 126 129
f 87 130 131
f 87 131 89
f 87 89 88
f 89 131 132
f 89 132 90
f 90 132 99
f 91 133 134
f 91 134 92
f 91 94 133
f 93 98 94
f 94 98 135
f 94 135 133
f 95 103 96
f 96 103 136
f 96 136 97
f 97 136 98
f 98 136 137
f 98 137 138
f 98 138 139
f 98 139 140
f 98 140 141
f 98 141 142
f 98 142 135
f 99 132 100
f 100 132 143
f 100 143 144
f 100 144 101
f 101 145 146
f 101 146 147
f 101 147 102
f 101 144 145
f 102 147 103
f 103 147 148
f 103 148 137
f 103 137 136
f 104 149 150
f 104 150 105
f 105 150 113
f 107 152 151
f 108 110 109
f 109 110 153
f 109 153 154
f 109 154 155
f 109 155 112
f 110 115 114
f 110 114 156
f 110 156 157
f 110 157 153
f 111 112 159
f 111 159 158
f 112 155 159
f 113 150 160
f 113 160 114
f 114 160 161
f 114 161 162
f 114 162 163
f 114 163 156
f 116 164 118
f 116 118 117
f 118 164 165
f 118 165 166
f 118 166 167
f 118 167 168
f 118 168 169
f 118 169 119
f 119 169 170
f 119 170 171
f 119 171 120
f 120 171 123
f 123 172 124
f 123 171 172
f 125 173 129
f 125 129 126
f 129 174 130
f 129 173 175
f 129 175 174
f 130 174 144
f 130 144 143
f 130 143 132
f 130 132 131
f 133 176 177
f 133 177 178
f 133 178 134
f 133 135 176
f 135 142 176
f 137 148 138
f 138 148 139
f 139 148 179
f 139 179 180
f 139 180 181
f 139 181 140
f 140 181 182
f 140 182 183
f 140 183 184
f 140 184 141
f 141 185 186
f 141 186 187
f 141 187 188
f 141 188 142
f 141 184 189
f 141 189 185
f 142 188 190
f 142 190 191
f 142 191 192
f 142 192 193
f 142 193 176
f 144 174 194
f 144 194 145
f 145 195 146
f 145 194 195
f 146 196 197
f 146 197 179
f 146 179 148
f 146 148 147
f 146 195 196
f 149 198 150
f 150 198 161
f 150 161 160
f 151 152 199
f 151 199 165
f 152 200 199
f 153 157 201
f 153 201 154
f 154 202 155
f 154 201 203
f 154 203 202
f 155 204 159
f 155 202 204
f 156 163 205
f 156 205 157
f 157 205 201
f 158 159 206
f 159 204 207
f 159 207 208
f 159 208 209
f 159 209 210
f 159 210 206
f 161 198 211
f 161 211 212
f 161 212 213
f 161 213 162
f 162 213 214
f 162 214 163
f 163 214 215
f 163 215 216
f 163 216 205
f 165 199 166
f 166 199 217
f 166 217 218
f 166 218 167
f 167 218 168
f 168 218 169
f 174 175 219
f 174 219 220
f 174 220 221
f 174 221 194
f 175 222 219
f 176 223 224
f 176 224 177
f 176 193 223
f 177 224 178
f 178 224 225
f 179 197 180
f 180 197 181
f 181 197 226
f 181 226 182
f 182 226 227
f 182 227 183
f 183 227 184
f 184 227 189
f 185 228 186
f 185 189 229
f 185 229 228
f 186 228 230
f 186 230 231
f 186 231 187
f 187 231 232
f 187 232 233
f 187 233 188
f 188 233 234
f 188 234 190
f 189 227 235
f 189 235 229
f 190 234 191
f 191 234 236
f 191 236 192
f 192 236 237
f 192 237 238
f 192 238 239
f 192 239 240
f 192 240 223
f 192 223 193
f 194 221 241
f 194 241 195
f 195 241 242
f 195 242 243
f 195 243 244
f 195 244 245
f 195 245 196
f 196 245 197
f 197 245 246
f 197 246 247
f 197 247 248
f 197 248 226
f 199 200 217
f 201 205 249
f 201 249 250
f 201 250 203
f 202 251 252
f 202 252 253
f 202 253 254
f 202 254 204
f 202 203 255
f 202 255 251
f 203 256 257
f 203 257 255
f 203 250 256
f 204 254 258
f 204 258 207
f 205 216 215
f 205 215 259
f 205 259 249
f 207 258 260
f 207 260 208
f 208 260 209
f 211 261 212
f 212 261 262
f 212 262 263
f 212 263 264
f 212 264 265
f 212 265 266
f 212 266 213
f 213 266 214
f 214 266 265
f 214 265 267
f 214 267 215
f 215 267 268
f 215 268 269
f 215 269 270
f 215 270 259
f 219 222 220
f 220 271 242
f 220 242 221
f 220 222 271
f 221 242 241
f 223 240 272
f 223 272 273
f 223 273 224
f 224 273 225
f 226 248 227
f 227 248 274
f 227 274 275
f 227 275 276
f 227 276 235
f 228 277 278
f 228 278 279
f 228 279 280
f 228 280 230
f 228 229 281
f 228 281 277
f 229 282 277
f 229 277 281
f 229 235 282
f 230 280 283
f 230 283 231
f 231 283 284
f 231 284 285
f 231 285 234
f 231 234 232
f 232 286 233
f 232 234 286
f 233 286 234
f 234 285 287
f 234 287 236
f 235 276 282
f 236 287 288
f 236 288 237
f 237 288 289
f 237 289 290
f 237 290 238
f 238 290 291
f 238 291 272
f 238 272 240
f 238 240 239
f 242 271 243
f 243 292 293
f 243 293 294
f 243 294 244
f 243 271 295
f 243 295 292
f 244 296 245
f 244 294 296
f 245 296 246
f 246 296 297
f 246 297 298
f 246 298 247
f 247 298 299
f 247 299 300
f 247 300 274
f 247 274 248
f 249 259 250
f 250 259 301
f 250 301 256
f 251 255 252
f 252 258 253
f 252 255 302
f 252 302 258
f 253 258 254
f 255 257 303
f 255 303 304
f 255 304 302
f 256 270 305
f 256 305 257
f 256 301 270
f 257 305 306
f 257 306 307
f 257 307 303
f 258 308 309
f 258 309 310
f 258 310 311
f 258 311 312
f 258 312 260
f 258 302 313
f 258 313 314
f 258 314 315
f 258 315 308
f 259 270 301
f 263 316 317
f 263 317 264
f 264 317 318
f 264 318 319
f 264 319 320
f 264 320 321
f 264 321 322
f 264 322 265
f 265 322 268
f 265 268 267
f 268 322 321
f 268 321 320
f 268 320 323
f 268 323 324
f 268 324 325
f 268 325 269
f 269 325 326
f 269 326 270
f 270 326 327
f 270 327 305
f 274 300 328
f 274 328 275
f 275 328 329
f 275 329 330
f 275 330 282
f 275 282 276
f 277 331 332
f 277 332 333
f 277 333 279
f 277 279 278
f 277 282 331
f 279 333 280
f 280 333 283
f 282 330 334
f 282 334 331
f 283 335 336
f 283 336 285
f 283 285 284
f 283 333 335
f 285 337 338
f 285 338 339
f 285 339 287
f 285 336 337
f 287 339 340
f 287 340 341
f 287 341 342
f 287 342 343
f 287 343 288
f 288 343 289
f 289 344 345
f 289 345 290
f 289 343 344
f 290 345 346
f 292 295 347
f 292 347 293
f 293 347 348
f 293 348 349
f 293 349 350
f 293 350 351
f 293 351 294
f 294 352 296
f 294 351 352
f 295 353 354
f 295 354 347
f 296 352 355
f 296 355 297
f 297 355 356
f 297 356 298
f 298 356 357
f 298 357 299
f 299 357 358
f 299 358 359
f 299 359 300
f 300 359 360
f 300 360 328
f 302 304 313
f 303 307 361
f 303 361 304
f 304 361 362
f 304 362 363
f 304 363 364
f 304 364 365
f 304 365 366
f 304 366 367
f 304 367 313
f 305 327 368
f 305 368 306
f 306 368 307
f 307 368 369
f 307 369 370
f 307 370 362
f 307 362 361
f 308 315 371
f 308 371 372
f 308 372 309
f 309 372 310
f 313 367 314
f 314 373 374
f 314 374 375
f 314 375 315
f 314 367 365
f 314 365 376
f 314 376 377
f 314 377 373
f 315 378 379
f 315 379 371
f 315 375 378
f 316 380 317
f 317 380 381
f 317 381 318
f 318 381 319
f 319 382 383
f 319 383 384
f 319 384 324
f 319 324 320
f 319 381 385
f 319 385 386
f 319 386 387
f 319 387 388
f 319 388 389
f 319 389 382
f 320 324 323
f 324 390 325
f 324 384 391
f 324 391 390
f 325 390 326
f 326 391 392
f 326 392 393
f 326 393 394
f 326 394 395
f 326 395 368
f 326 368 327
f 326 390 391
f 328 396 397
f 328 397 329
f 328 360 396
f 329 398 399
f 329 399 334
f 329 334 330
f 329 397 398
f 331 334 332
f 332 400 401
f 332 401 402
f 332 402 335
f 332 335 403
f 332 403 333
f 332 334 400
f 333 403 335
f 334 399 404
f 334 404 405
f 334 405 400
f 335 402 336
f 336 402 406
f 336 406 337
f 337 407 338
f 337 406 402
f 337 402 407
f 338 407 408
f 338 408 341
f 338 341 339
f 339 341 340
f 341 408 409
f 341 409 345
f 341 345 342
f 342 345 344
f 342 344 343
f 345 410 411
f 345 411 346
f 345 409 412
f 345 412 410
f 346 411 413
f 346 413 414
f 347 354 349
f 347 349 348
f 349 415 350
f 349 354 416
f 349 416 415
f 350 415 417
f 350 417 355
f 350 355 351
f 351 355 352
f 353 418 419
f 353 419 420
f 353 420 421
f 353 421 354
f 354 421 422
f 354 422 416
f 355 357 356
f 355 417 423
f 355 423 424
f 355 424 358
f 355 358 357
f 358 424 425
f 358 425 426
f 358 426 427
f 358 427 428
f 358 428 359
f 359 428 360
f 360 428 396
f 362 370 363
f 363 370 429
f 363 429 430
f 363 430 431
f 363 431 432
f 363 432 364
f 364 432 376
f 364 376 365
f 365 367 366
f 368 395 433
f 368 433 369
f 369 433 434
f 369 434 370
f 370 434 435
f 370 435 436
f 370 436 429
f 373 377 437
f 373 437 374
f 374 438 375
f 374 437 439
f 374 439 440
f 374 440 438
f 375 438 440
f 375 440 441
f 375 441 379
f 375 379 378
f 376 442 377
f 376 432 443
f 376 443 444
f 376 444 445
f 376 445 446
f 376 446 447
f 376 447 448
f 376 448 449
f 376 449 450
f 376 450 442
f 377 442 450
f 377 450 451
f 377 451 437
f 380 452 381
f 381 452 453
f 381 453 454
f 381 454 385
f 382 455 456
f 382 456 383
f 382 389 455
f 383 456 384
f 384 456 392
f 384 392 391
f 385 454 457
f 385 457 458
f 385 458 459
f 385 459 386
f 386 459 458
f 386 458 387
f 387 460 461
f 387 461 462
f 387 462 463
f 387 463 388
f 387 458 460
f 388 463 389
f 389 464 465
f 389 465 455
f 389 463 464
f 392 455 465
f 392 465 466
f 392 466 467
f 392 467 393
f 392 456 455
f 393 467 468
f 393 468 436
f 393 436 394
f 394 433 395
f 394 436 435
f 394 435 433
f 396 428 469
f 396 469 397
f 397 469 398
f 398 469 470
f 398 470 471
f 398 471 472
f 398 472 399
f 399 472 473
f 399 473 474
f 399 474 475
f 399 475 404
f 400 405 401
f 401 405 402
f 402 405 476
f 402 476 477
f 402 477 478
f 402 478 407
f 404 475 405
f 405 475 479
f 405 479 480
f 405 480 476
f 407 478 481
f 407 481 409
f 407 409 408
f 409 482 461
f 409 461 412
f 409 481 483
f 409 483 478
f 409 478 482
f 410 412 461
f 410 461 413
f 410 413 411
f 413 458 414
f 413 461 484
f 413 484 458
f 414 457 454
f 414 458 457
f 415 416 422
f 415 422 485
f 415 485 417
f 417 485 486
f 417 486 487
f 417 487 488
f 417 488 489
f 417 489 424
f 417 424 423
f 418 490 449
f 418 449 491
f 418 491 492
f 418 492 493
f 418 493 419
f 419 494 495
f 419 495 496
f 419 496 497
f 419 497 498
f 419 498 487
f 419 487 420
f 419 493 499
f 419 499 494
f 420 487 421
f 421 487 500
f 421 500 422
f 422 486 485
f 422 500 486
f 424 489 425
f 425 489 501
f 425 501 426
f 426 502 427
f 426 501 503
f 426 503 502
f 427 504 428
f 427 502 505
f 427 505 506
f 427 506 504
f 428 504 469
f 429 436 507
f 429 507 444
f 429 444 431
f 429 431 430
f 431 444 443
f 431 443 432
f 433 435 434
f 436 468 508
f 436 508 509
f 436 509 510
f 436 510 511
f 436 511 512
f 436 512 513
f 436 513 507
f 437 451 450
f 437 450 449
f 437 449 490
f 444 507 514
f 444 514 445
f 445 514 515
f 445 515 446
f 446 515 447
f 447 516 448
f 447 515 517
f 447 517 518
f 447 518 519
f 447 519 516
f 448 516 499
f 448 499 520
f 448 520 449
f 449 520 499
f 449 499 521
f 449 521 522
f 449 522 523
f 449 523 491
f 458 484 460
f 460 484 461
f 461 482 478
f 461 478 524
f 461 524 525
f 461 525 526
f 461 526 527
f 461 527 462
f 462 527 463
f 463 527 464
f 464 527 526
f 464 526 525
f 464 525 528
f 464 528 529
f 464 529 465
f 465 530 508
f 465 508 531
f 465 531 466
f 465 529 532
f 465 532 533
f 465 533 534
f 465 534 535
f 465 535 536
f 465 536 537
f 465 537 530
f 466 531 467
f 467 531 468
f 468 531 508
f 469 504 506
f 469 506 538
f 469 538 470
f 470 538 506
f 470 506 471
f 471 506 505
f 471 505 539
f 471 539 473
f 471 473 472
f 473 539 540
f 473 540 541
f 473 541 542
f 473 542 533
f 473 533 532
f 473 532 543
f 473 543 474
f 474 544 480
f 474 480 479
f 474 479 475
f 474 543 529
f 474 529 544
f 476 529 545
f 476 545 525
f 476 525 524
f 476 524 478
f 476 478 477
f 476 480 544
f 476 544 529
f 478 483 481
f 486 500 487
f 487 546 547
f 487 547 488
f 487 498 548
f 487 548 546
f 488 547 546
f 488 546 548
f 488 548 489
f 489 548 501
f 491 523 522
f 491 522 549
f 491 549 492
f 492 549 493
f 493 549 499
f 494 499 495
f 495 519 518
f 495 518 550
f 495 550 496
f 495 499 516
f 495 516 519
f 496 550 497
f 497 550 498
f 498 550 551
f 498 551 548
f 499 549 522
f 499 522 521
f 501 548 550
f 501 550 518
f 501 518 552
f 501 552 553
f 501 553 503
f 502 503 553
f 502 553 554
f 502 554 555
f 502 555 556
f 502 556 557
f 502 557 505
f 505 557 539
f 507 513 558
f 507 558 517
f 507 517 515
f 507 515 514
f 508 530 509
f 509 530 510
f 510 530 537
f 510 537 559
f 510 559 560
f 510 560 555
f 510 555 511
f 511 555 512
f 512 555 513
f 513 555 561
f 513 561 562
f 513 562 558
f 517 552 518
f 517 558 563
f 517 563 552
f 525 545 528
f 528 545 529
f 529 543 532
f 533 542 535
f 533 535 534
f 535 564 536
f 535 542 541
f 535 541 555
f 535 555 564
f 536 564 559
f 536 559 537
f 539 557 540
f 540 557 541
f 541 557 556
f 541 556 555
f 548 551 550
f 552 565 553
f 552 563 565
f 553 565 566
f 553 566 554
f 554 566 555
f 555 566 561
f 555 560 564
f 558 562 563
f 559 564 560
f 561 566 562
f 562 566 565
f 562 565 563

