# https://github.com/mikedh/trimesh
v 0.10286271 -0.04193320 0.13813352
v 0.10274046 -0.04297710 0.14019240
v 0.10272416 -0.04503685 0.14019240
v 0.10280567 -0.04510981 0.13834798
v 0.10278121 -0.04197810 0.13497657
v 0.10265896 -0.03894179 0.13484789
v 0.10252040 -0.03723563 0.13362971
v 0.10264266 -0.04005305 0.13703545
v 0.10066219 -0.04193320 0.14044976
v 0.10094744 -0.04503685 0.14132478
v 0.10186840 -0.03798208 0.13569718
v 0.09979014 -0.03700552 0.13691535
v 0.10256116 -0.04668128 0.13992646
v 0.10256116 -0.04668128 0.13947179
v 0.10271602 -0.04412764 0.13592022
v 0.10261005 -0.04097348 0.13313216
v 0.10260191 -0.03881832 0.13308926
v 0.10252040 -0.03723563 0.13334662
v 0.09947228 -0.03410392 0.13363830
v 0.09686426 -0.02368733 0.11958643
v 0.09675831 -0.02406336 0.12197131
v 0.09784227 -0.04503685 0.14105027
v 0.09943153 -0.04035612 0.13978920
v 0.09936634 -0.04035612 0.13978920
v 0.09784227 -0.04755681 0.14052696
v 0.10094744 -0.04733231 0.14049265
v 0.09473709 -0.02350773 0.12250318
v 0.09784227 -0.03394677 0.13379271
v 0.09573955 -0.03393555 0.13379271
v 0.09849428 -0.03700552 0.13691535
v 0.09943153 -0.04972319 0.13682098
v 0.10234926 -0.04619300 0.13739575
v 0.09943153 -0.04972319 0.13653788
v 0.09916258 -0.04942573 0.13447043
v 0.10023839 -0.04829765 0.13534545
v 0.10202326 -0.04510981 0.13497657
v 0.10240631 -0.04304445 0.13385277
v 0.10203956 -0.04197810 0.13206840
v 0.10158315 -0.03881832 0.12890287
v 0.10230851 -0.03881832 0.13152794
v 0.10145275 -0.03571467 0.12890287
v 0.09938263 -0.03129772 0.12121638
v 0.09954564 -0.03073649 0.12328384
v 0.09785857 -0.02640372 0.11958643
v 0.09657085 -0.02414193 0.11648095
v 0.09221056 -0.01708716 0.10715594
v 0.09095546 -0.01434270 0.10715594
v 0.09060501 -0.01496007 0.11027000
v 0.09009970 -0.01551008 0.11183989
v 0.09493269 -0.02207096 0.11986953
v 0.09812752 -0.04223065 0.14020098
v 0.09627745 -0.04347099 0.13978062
v 0.09609815 -0.04503685 0.13992646
v 0.09604925 -0.04699557 0.13997793
v 0.09642416 -0.03733104 0.13663225
v 0.04815942 0.00215210 0.09257221
v 0.09300928 -0.04982983 0.13679524
v 0.09473709 -0.05012728 0.13725849
v 0.09784227 -0.04911144 0.13882839
v 0.09784227 -0.05003748 0.13727565
v 0.05126460 0.00215210 0.09296682
v 0.04954493 0.00215210 0.09279525
v 0.09800527 -0.05031811 0.13534545
v 0.09981459 -0.04726497 0.13200835
v 0.09947228 -0.04672618 0.13027546
v 0.09719027 -0.05039107 0.13200835
v 0.09669311 -0.05005432 0.12965780
v 0.09874692 -0.04881960 0.13200835
v 0.10092299 -0.04503685 0.13200835
v 0.09952118 -0.04374600 0.12706703
v 0.10089039 -0.04193320 0.12890287
v 0.09945599 -0.04054694 0.12409881
v 0.10047474 -0.03881832 0.12579739
v 0.09928483 -0.03649480 0.12143085
v 0.09981459 -0.03556314 0.12255465
v 0.09943153 -0.03442382 0.12101907
v 0.10080074 -0.03571467 0.12579739
v 0.09943153 -0.03336870 0.12101907
v 0.09902403 -0.03244265 0.11982664
v 0.09778522 -0.02950176 0.11648095
v 0.09657085 -0.02640372 0.11394167
v 0.09723916 -0.02640372 0.11648095
v 0.09636710 -0.02467511 0.11464512
v 0.09157486 -0.01708716 0.10405905
v 0.09058870 -0.01460087 0.10405905
v 0.08956995 -0.01304624 0.10405905
v 0.08800513 -0.01186764 0.10405905
v 0.08868158 -0.01281052 0.10731036
v 0.08776063 -0.01210336 0.10637529
v 0.05234041 0.00215210 0.09262368
v 0.04516835 0.00215210 0.09099373
v 0.09454964 -0.04503685 0.13864824
v 0.09267512 -0.04503685 0.13709550
v 0.09112661 -0.04503685 0.13577438
v 0.09115105 -0.04814611 0.13574007
v 0.09270772 -0.04814611 0.13705260
v 0.08977370 -0.04998136 0.13386134
v 0.08291949 -0.05372482 0.12507678
v 0.08555195 -0.05372482 0.12597754
v 0.09473709 -0.05107016 0.13512240
v 0.09473709 -0.05156405 0.13200835
v 0.09784227 -0.04814050 0.12892861
v 0.09685611 -0.04738844 0.12579739
v 0.09641601 -0.04677107 0.12399587
v 0.09899142 -0.04581136 0.12820800
v 0.09983904 -0.04487970 0.12910876
v 0.09015675 -0.05284929 0.12409881
v 0.09415029 -0.05053137 0.12579739
v 0.09354718 -0.05005993 0.12355836
v 0.09617150 -0.04954921 0.12759034
v 0.09840463 -0.04487970 0.12593465
v 0.09648120 -0.04382457 0.12074455
v 0.09598405 -0.04279189 0.11866852
v 0.09904848 -0.04261791 0.12499957
v 0.09979014 -0.04171993 0.12593465
v 0.09965158 -0.03881832 0.12357551
v 0.09844538 -0.04171993 0.12291496
v 0.09643230 -0.04072092 0.11772486
v 0.09667680 -0.03853770 0.11660963
v 0.09630190 -0.03731420 0.11489390
v 0.09653826 -0.03571467 0.11439634
v 0.09744291 -0.03571467 0.11648095
v 0.09901588 -0.03881832 0.12203135
v 0.09881212 -0.03556314 0.11982664
v 0.09790747 -0.03260541 0.11648095
v 0.09681536 -0.02950176 0.11343552
v 0.09613075 -0.02640372 0.11238893
v 0.09321303 -0.02163319 0.10551742
v 0.09064576 -0.01699175 0.10086777
v 0.08996930 -0.01589733 0.09977829
v 0.09027084 -0.01513966 0.10184574
v 0.08705157 -0.01232786 0.09602083
v 0.07780124 -0.00603076 0.07718207
v 0.07441081 -0.00326946 0.07242091
v 0.07455751 -0.00310109 0.07448837
v 0.07462271 -0.00305058 0.07610974
v 0.07463086 -0.00303935 0.07830588
v 0.07441896 -0.00314599 0.08037333
v 0.06836345 0.00000817 0.07459131
v 0.05542929 0.00215210 0.08993855
v 0.05450018 0.00215210 0.09123393
v 0.05415788 0.00215210 0.09147413
v 0.04193277 0.00215210 0.08823998
v 0.08934989 -0.04503685 0.13422164
v 0.08942324 -0.04814611 0.13418733
v 0.08786658 -0.04814611 0.13267748
v 0.08357149 -0.05027882 0.12765896
v 0.08085751 -0.05246765 0.12413313
v 0.08004251 -0.05348349 0.12206567
v 0.08205558 -0.05428045 0.12293211
v 0.08541341 -0.05478556 0.12269191
v 0.09327823 -0.04672618 0.11784496
v 0.09274033 -0.04590677 0.11576893
v 0.09380798 -0.04493021 0.11667826
v 0.09339233 -0.04383580 0.11455934
v 0.09688871 -0.04493021 0.12285490
v 0.08853489 -0.05334879 0.12291496
v 0.08571496 -0.05383707 0.11930333
v 0.08751613 -0.05312991 0.12014405
v 0.08694562 -0.05278194 0.11807659
v 0.08958625 -0.05246765 0.12202278
v 0.08853489 -0.05210284 0.11930333
v 0.09087396 -0.05039107 0.11958643
v 0.09031975 -0.04991401 0.11760476
v 0.09297668 -0.04947063 0.12149089
v 0.09538910 -0.04183217 0.11660963
v 0.09687241 -0.04183217 0.11965506
v 0.09592700 -0.03939079 0.11565740
v 0.09523425 -0.03853770 0.11365858
v 0.09317227 -0.03723563 0.10873442
v 0.09579661 -0.03571467 0.11284360
v 0.09613075 -0.03260541 0.11215731
v 0.09681536 -0.03260541 0.11371005
v 0.09626115 -0.02950176 0.11188279
v 0.09542985 -0.02640372 0.11027000
v 0.09333528 -0.02330007 0.10524290
v 0.09142001 -0.02019642 0.10095356
v 0.09027084 -0.01796831 0.09883463
v 0.08965960 -0.01699175 0.09782235
v 0.08721457 -0.01496007 0.09260652
v 0.08403605 -0.01209775 0.08654997
v 0.08754058 -0.01394984 0.09488845
v 0.08675817 -0.01288909 0.09394479
v 0.07747524 -0.00656955 0.07510603
v 0.07507911 -0.00532921 0.06989878
v 0.07410926 -0.00376897 0.06989878
v 0.08075972 -0.00931400 0.08075937
v 0.06826565 -0.00009846 0.05932986
v 0.06847756 0.00012603 0.06140590
v 0.06868946 0.00028879 0.06368782
v 0.06894211 0.00041787 0.06678472
v 0.07322090 -0.00222556 0.07327020
v 0.07055582 -0.00055307 0.06989878
v 0.06899916 0.00034491 0.06989878
v 0.07022167 -0.00045204 0.07300426
v 0.06866501 0.00012603 0.07300426
v 0.05625245 0.00215210 0.08794830
v 0.08779323 -0.04503685 0.13278901
v 0.03886834 0.00215210 0.08495434
v 0.08329439 -0.04814611 0.12796779
v 0.08317213 -0.04503685 0.12807932
v 0.08464730 -0.04503685 0.12963206
v 0.08621211 -0.04503685 0.13123627
v 0.08632622 -0.04814611 0.13112475
v 0.08057226 -0.05039668 0.12445912
v 0.08476955 -0.04814611 0.12951195
v 0.07763824 -0.04974564 0.12115633
v 0.06488337 -0.04750069 0.10603214
v 0.06812710 -0.05021708 0.10896604
v 0.06856721 -0.05228805 0.10844274
v 0.06780110 -0.05334879 0.10636671
v 0.07063732 -0.05367992 0.10954082
v 0.06970821 -0.05422432 0.10730178
v 0.07298455 -0.05518404 0.10715594
v 0.08230823 -0.05489781 0.11958643
v 0.07298455 -0.05453862 0.10405905
v 0.09066205 -0.04727058 0.11390735
v 0.09006710 -0.04657464 0.11183989
v 0.09055611 -0.04426234 0.11027000
v 0.09008340 -0.04349344 0.10870010
v 0.08407680 -0.04072653 0.09593504
v 0.08675817 -0.03994080 0.09976113
v 0.09278107 -0.04268526 0.11248329
v 0.09378353 -0.04176483 0.11346126
v 0.08485920 -0.05334318 0.11648095
v 0.08418274 -0.05298960 0.11444781
v 0.08641587 -0.05241714 0.11648095
v 0.08702712 -0.04974564 0.11172838
v 0.08860823 -0.05075587 0.11653243
v 0.08970035 -0.04934155 0.11553730
v 0.09367758 -0.03881832 0.11090482
v 0.09350643 -0.03516466 0.10811675
v 0.09422364 -0.03600652 0.10996975
v 0.09329453 -0.04061429 0.11161685
v 0.09281367 -0.03881832 0.10935208
v 0.09051536 -0.03820657 0.10483970
v 0.08388119 -0.03419933 0.09005865
v 0.08710862 -0.03449678 0.09603799
v 0.08658701 -0.03260541 0.09387616
v 0.08744277 -0.03260541 0.09542890
v 0.08689673 -0.03081506 0.09332712
v 0.09009154 -0.03111252 0.09936651
v 0.09520980 -0.03260541 0.11027000
v 0.09122441 -0.02950176 0.10095356
v 0.08979000 -0.02640372 0.09689586
v 0.09050720 -0.02640372 0.09844002
v 0.09164006 -0.02640372 0.10095356
v 0.09554395 -0.02950176 0.11027000
v 0.09276477 -0.02640372 0.10348427
v 0.09342493 -0.02640372 0.10503702
v 0.09427253 -0.02640372 0.10715594
v 0.09168896 -0.02330007 0.10095356
v 0.08987965 -0.02019642 0.09683580
v 0.09046646 -0.02019642 0.09837996
v 0.08862454 -0.01708716 0.09475119
v 0.08431315 -0.01398351 0.08590657
v 0.07753229 -0.00991453 0.07173462
v 0.07797239 -0.00864052 0.07380208
v 0.07472866 -0.00590167 0.06789137
v 0.06705129 0.00106891 0.06045367
v 0.07130563 -0.00340416 0.06248681
v 0.06792335 -0.00072705 0.05746829
v 0.06560058 0.00041226 0.05368509
v 0.06573913 0.00055257 0.05436281
v 0.06387276 0.00215210 0.05368509
v 0.06407651 0.00215210 0.05428560
v 0.06494857 0.00215210 0.05746829
v 0.06548648 0.00215210 0.06053088
v 0.06678234 0.00152913 0.06368782
v 0.06678234 0.00145617 0.06678472
v 0.06894211 0.00030563 0.07045639
v 0.06533978 0.00215210 0.06381650
v 0.03585281 0.00215210 0.08130841
v 0.07452491 -0.04670373 0.11805085
v 0.07749154 -0.04814611 0.12133648
v 0.08034406 -0.04814611 0.12471648
v 0.08174588 -0.04814611 0.12626922
v 0.07469606 -0.04877470 0.11782781
v 0.06463072 -0.04503685 0.10634955
v 0.06203900 -0.04680475 0.10262640
v 0.06528273 -0.04956604 0.10555174
v 0.06246280 -0.04887572 0.10200016
v 0.05573899 -0.04689455 0.09346439
v 0.06176189 -0.05011606 0.09993270
v 0.05908052 -0.04960533 0.09621814
v 0.05582049 -0.04979054 0.09026454
v 0.06524198 -0.05279878 0.10248914
v 0.06715724 -0.05368553 0.10405905
v 0.06988752 -0.05486975 0.10405905
v 0.06988752 -0.05435902 0.10095356
v 0.06837975 -0.05282123 0.09313840
v 0.07145233 -0.05280439 0.09628677
v 0.07202283 -0.05306256 0.09784809
v 0.08926024 -0.04824714 0.11306665
v 0.08783398 -0.04807315 0.11052736
v 0.08732053 -0.04698435 0.10813391
v 0.08392194 -0.04665883 0.10241193
v 0.08071896 -0.04342609 0.09324992
v 0.08343294 -0.04279751 0.09700737
v 0.08241418 -0.04207912 0.09459677
v 0.08138727 -0.04135512 0.09217759
v 0.08074341 -0.04035612 0.09011012
v 0.08345739 -0.03959283 0.09386758
v 0.09003450 -0.04027754 0.10568899
v 0.08398714 -0.03752186 0.09298398
v 0.08339219 -0.03627030 0.09090794
v 0.08064562 -0.05275949 0.10884594
v 0.08341664 -0.05255744 0.11237178
v 0.08529931 -0.05176610 0.11339263
v 0.08243048 -0.05077832 0.10713020
v 0.07797239 -0.04994768 0.09892900
v 0.08075156 -0.04969513 0.10251488
v 0.07725519 -0.04936961 0.09687012
v 0.08353889 -0.04940889 0.10608361
v 0.07494871 -0.04696190 0.08951820
v 0.07772789 -0.04666444 0.09308693
v 0.08725533 -0.03786983 0.09890326
v 0.08228378 -0.03565294 0.08858312
v 0.08117537 -0.03503557 0.08632693
v 0.08052336 -0.03362125 0.08425090
v 0.07761379 -0.03096659 0.07772253
v 0.08096347 -0.03155028 0.08353029
v 0.08325364 -0.03260541 0.08799119
v 0.08417460 -0.03260541 0.08954393
v 0.08534820 -0.03260541 0.09164570
v 0.08463915 -0.02945686 0.08842870
v 0.08636697 -0.02967013 0.09168002
v 0.08719827 -0.02874409 0.09273520
v 0.08666852 -0.02640372 0.09066773
v 0.08747538 -0.02640372 0.09222906
v 0.09026270 -0.02950176 0.09903194
v 0.08874679 -0.02640372 0.09475119
v 0.08765468 -0.02330007 0.09181728
v 0.08907279 -0.02330007 0.09475119
v 0.08992855 -0.02330007 0.09664707
v 0.09058056 -0.02330007 0.09819123
v 0.08904019 -0.02019642 0.09475119
v 0.08750797 -0.01708716 0.09199743
v 0.08367744 -0.01398351 0.08435384
v 0.07820874 -0.01091915 0.07285842
v 0.07773604 -0.01198550 0.07127137
v 0.07722258 -0.01124466 0.07045639
v 0.07433746 -0.00777060 0.06573812
v 0.07503022 -0.00777060 0.06729086
v 0.06842051 -0.00294956 0.05572682
v 0.06877096 -0.00228168 0.05746829
v 0.06646449 -0.00094593 0.05368509
v 0.01960157 0.00215210 0.05368509
v 0.03428800 0.00215210 0.07920664
v 0.06590213 -0.04503685 0.10790228
v 0.03314699 0.00215210 0.07766248
v 0.03225048 0.00215210 0.07644431
v 0.03167997 0.00215210 0.07565507
v 0.05262566 -0.04399294 0.09035033
v 0.05301686 -0.04605830 0.08974982
v 0.04969979 -0.04659148 0.08388201
v 0.04647236 -0.04674863 0.07791984
v 0.05271531 -0.04976248 0.08407075
v 0.04970794 -0.04970074 0.07767105
v 0.04956124 -0.04976809 0.07610974
v 0.04937378 -0.04983544 0.07300426
v 0.04947158 -0.04977932 0.07093680
v 0.05436163 -0.05076148 0.07610974
v 0.05747496 -0.05115996 0.07921521
v 0.05458168 -0.05012728 0.07273832
v 0.06677419 -0.05291664 0.09259794
v 0.05687185 -0.05000381 0.07359619
v 0.05576344 -0.04967268 0.07152015
v 0.05894197 -0.04966145 0.07464279
v 0.07296010 -0.05127221 0.09480266
v 0.07357950 -0.05228244 0.09784809
v 0.07428041 -0.05266969 0.09978686
v 0.06199825 -0.04963901 0.07779116
v 0.06496487 -0.04954921 0.08106821
v 0.06871391 -0.04993646 0.08649850
v 0.08048261 -0.04629963 0.09671570
v 0.07999361 -0.04517155 0.09447667
v 0.07794794 -0.04382457 0.08964688
v 0.06832270 -0.04036734 0.07146010
v 0.07454121 -0.04036173 0.08078511
v 0.07798869 -0.04086123 0.08648135
v 0.07730408 -0.03982294 0.08440531
v 0.07793979 -0.03775197 0.08342735
v 0.08067821 -0.03710654 0.08710759
v 0.08132207 -0.03828515 0.08918363
v 0.07518507 -0.05017218 0.09537743
v 0.07446786 -0.04963339 0.09330997
v 0.07617122 -0.04889255 0.09451098
v 0.07141158 -0.04655780 0.08391633
v 0.07420706 -0.04623229 0.08745073
v 0.07701883 -0.04589554 0.09101947
v 0.07439451 -0.03386259 0.07478004
v 0.06522568 -0.02795835 0.05591555
v 0.07489166 -0.03179161 0.07400796
v 0.06794780 -0.02700986 0.05963012
v 0.07131378 -0.02763845 0.06543787
v 0.07467161 -0.02826142 0.07124563
v 0.07171313 -0.02557309 0.06476873
v 0.08039296 -0.02950176 0.08135988
v 0.08133837 -0.02950176 0.08291263
v 0.08366114 -0.03046709 0.08733064
v 0.08401975 -0.02839612 0.08673013
v 0.08551936 -0.02640372 0.08854023
v 0.08371819 -0.02330007 0.08414795
v 0.08454134 -0.02330007 0.08570069
v 0.08600021 -0.02330007 0.08854023
v 0.08688042 -0.02330007 0.09026454
v 0.08384859 -0.02151533 0.08389917
v 0.08084121 -0.01907394 0.07751664
v 0.08452505 -0.02036479 0.08513449
v 0.08619582 -0.02019642 0.08854023
v 0.08695377 -0.02019642 0.09012728
v 0.08768727 -0.02019642 0.09168002
v 0.08384859 -0.01580192 0.08391633
v 0.08282168 -0.01398351 0.08232927
v 0.08083306 -0.01498251 0.07750806
v 0.08173772 -0.01708716 0.07921521
v 0.07777679 -0.01398351 0.07121132
v 0.07739373 -0.01398351 0.07045639
v 0.07459826 -0.01184519 0.06513762
v 0.07523396 -0.01083496 0.06652736
v 0.07450046 -0.00977422 0.06531777
v 0.07338390 -0.00777060 0.06368782
v 0.06790705 -0.00466695 0.05368509
v 0.06688014 -0.00173167 0.05368509
v 0.01962602 0.00215210 0.05374515
v 0.03044116 -0.03571467 0.05368509
v 0.03053896 -0.03571467 0.05393388
v 0.02982991 0.00215210 0.07277264
v 0.04723031 -0.04193320 0.08288689
v 0.04986279 -0.04252250 0.08674729
v 0.04648051 -0.04373477 0.08097384
v 0.04701841 -0.04580013 0.07999588
v 0.04323678 -0.04392559 0.07505456
v 0.04015605 -0.04381335 0.06882645
v 0.04392139 -0.04600218 0.07362192
v 0.04345683 -0.04662515 0.07155447
v 0.04604040 -0.04711904 0.07610974
v 0.05022139 -0.04933594 0.07973852
v 0.04327753 -0.04674863 0.07045639
v 0.04319603 -0.04681597 0.06989878
v 0.04275593 -0.04708537 0.06678472
v 0.04236472 -0.04715272 0.06368782
v 0.04504610 -0.04817979 0.06678472
v 0.04220987 -0.04704047 0.06058235
v 0.04504610 -0.04809560 0.06368782
v 0.05125645 -0.04981299 0.07045639
v 0.05126460 -0.04985228 0.07067944
v 0.04504610 -0.04767467 0.06058235
v 0.05126460 -0.04981299 0.07045639
v 0.05368517 -0.04982422 0.07092822
v 0.05773576 -0.04940328 0.07273832
v 0.04619526 -0.04655780 0.05601849
v 0.04815942 -0.04685526 0.05818889
v 0.04990354 -0.04666444 0.05884945
v 0.05436163 -0.04829204 0.06678472
v 0.05313097 -0.04674302 0.06177478
v 0.05424753 -0.04712466 0.06378219
v 0.07226734 -0.05021708 0.09164570
v 0.05752385 -0.04854459 0.07045639
v 0.05746681 -0.04833693 0.06989878
v 0.05622800 -0.04678230 0.06488026
v 0.05914572 -0.04667567 0.06818305
v 0.07159088 -0.04980177 0.08989565
v 0.07608972 -0.04503685 0.08854881
v 0.07516876 -0.04416131 0.08608673
v 0.07444341 -0.04336435 0.08401927
v 0.06552723 -0.04072092 0.06791711
v 0.06204715 -0.03716267 0.05912397
v 0.06828195 -0.03718512 0.06841467
v 0.07173759 -0.03775197 0.07411091
v 0.07108558 -0.03982294 0.07508030
v 0.07164793 -0.04371232 0.08046770
v 0.07450046 -0.03719073 0.07773111
v 0.07164793 -0.03452485 0.07113411
v 0.06877911 -0.03186458 0.06453711
v 0.06854276 -0.04675985 0.08045912
v 0.06569838 -0.04692822 0.07705339
v 0.06251170 -0.04384141 0.06780558
v 0.06501377 -0.04324650 0.07045639
v 0.06885246 -0.04403784 0.07692471
v 0.06811080 -0.03059618 0.06246965
v 0.06317186 -0.02905277 0.05368509
v 0.06446772 -0.02639811 0.05368509
v 0.06513602 -0.02480981 0.05368509
v 0.06588583 -0.02295210 0.05368509
v 0.06866501 -0.02330568 0.05845484
v 0.07441896 -0.02440010 0.06856051
v 0.07487536 -0.02640372 0.07045639
v 0.08296838 -0.02945686 0.08558917
v 0.07772789 -0.02509043 0.07441974
v 0.08101236 -0.02569656 0.08033044
v 0.08426425 -0.02640372 0.08627546
v 0.08270758 -0.02330007 0.08232927
v 0.07996916 -0.02014030 0.07633278
v 0.07830655 -0.02019642 0.07340746
v 0.07197394 -0.01708716 0.06119143
v 0.07453306 -0.01535855 0.06525772
v 0.07772789 -0.01617795 0.07130568
v 0.07734484 -0.01504986 0.07045639
v 0.07697808 -0.01398351 0.06965000
v 0.08086567 -0.01708716 0.07743085
v 0.08390565 -0.01944436 0.08379622
v 0.08063746 -0.02114492 0.07786837
v 0.08330253 -0.01694124 0.08257806
v 0.07459826 -0.01328757 0.06513762
v 0.07053137 -0.01087986 0.05746829
v 0.07139528 -0.01087986 0.05910681
v 0.06838791 -0.00777060 0.05368509
v 0.06894211 -0.00777060 0.05474885
v 0.07032762 -0.00777060 0.05746829
v 0.07127303 -0.00777060 0.05936417
v 0.01991942 0.00215210 0.05442286
v 0.03066937 -0.03646112 0.05368509
v 0.03414945 -0.04041786 0.05908108
v 0.03391309 -0.03882394 0.05959580
v 0.03093832 -0.03733104 0.05368509
v 0.02955280 0.00215210 0.07231796
v 0.04497274 -0.04193320 0.07921521
v 0.04376654 -0.04193320 0.07717349
v 0.04025385 -0.04072653 0.07167456
v 0.04599965 -0.04487970 0.07906080
v 0.04065321 -0.04279751 0.07090248
v 0.04054725 -0.04302200 0.07045639
v 0.03819188 -0.04181534 0.06664746
v 0.03755618 -0.04292659 0.06368782
v 0.03730352 -0.04345977 0.06206645
v 0.03969965 -0.04426234 0.06678472
v 0.03697752 -0.04377967 0.05999900
v 0.04081621 -0.04628279 0.06368782
v 0.04065321 -0.04647923 0.06058235
v 0.04115036 -0.04641188 0.05746829
v 0.04269887 -0.04681036 0.05746829
v 0.04815942 -0.04842111 0.06368782
v 0.05125645 -0.04953798 0.06911812
v 0.04327753 -0.04663638 0.05576971
v 0.05125645 -0.04895429 0.06678472
v 0.04815942 -0.04760171 0.06058235
v 0.04412514 -0.04663638 0.05576971
v 0.04425554 -0.04588993 0.05368509
v 0.04509499 -0.04579452 0.05368509
v 0.04747482 -0.04514910 0.05368509
v 0.04815942 -0.04627718 0.05663616
v 0.04815942 -0.04523328 0.05436281
v 0.04811052 -0.04493021 0.05368509
v 0.05198181 -0.04622668 0.05970732
v 0.05047404 -0.04377967 0.05368509
v 0.05190031 -0.04284240 0.05368509
v 0.05754831 -0.04508736 0.06359346
v 0.05829811 -0.04609198 0.06611559
v 0.06136254 -0.04603024 0.06989878
v 0.06159074 -0.04618739 0.07045639
v 0.06202270 -0.04652413 0.07158020
v 0.06811895 -0.04325211 0.07485725
v 0.06458182 -0.04279751 0.06925538
v 0.06363641 -0.04189952 0.06682761
v 0.06269100 -0.04101276 0.06447706
v 0.06191675 -0.04014846 0.06240960
v 0.05920277 -0.03747696 0.05567535
v 0.05845297 -0.03657898 0.05368509
v 0.05855077 -0.03645551 0.05368509
v 0.05956952 -0.03513098 0.05368509
v 0.06109359 -0.03271766 0.05368509
v 0.06199010 -0.03394677 0.05610428
v 0.06268285 -0.03509731 0.05818032
v 0.06820045 -0.03393555 0.06542929
v 0.06762995 -0.03278501 0.06357630
v 0.06534793 -0.03126966 0.05884088
v 0.06489967 -0.04633331 0.07497735
v 0.05966733 -0.04401539 0.06437412
v 0.05886862 -0.04334752 0.06230666
v 0.06172929 -0.04307813 0.06573812
v 0.06207975 -0.03098904 0.05368509
v 0.06683124 -0.02010662 0.05368509
v 0.06812710 -0.02099338 0.05625869
v 0.07142788 -0.02170615 0.06215224
v 0.07795609 -0.02330007 0.07402512
v 0.08040926 -0.02330007 0.07826298
v 0.08129762 -0.02330007 0.07982430
v 0.07741818 -0.02019642 0.07185472
v 0.07108558 -0.01708716 0.05963869
v 0.06823305 -0.01398351 0.05368509
v 0.07132193 -0.01398351 0.05923549
v 0.07217769 -0.01398351 0.06078824
v 0.06850200 -0.01087986 0.05368509
v 0.07388920 -0.01419117 0.06393660
v 0.07528286 -0.01419117 0.06649305
v 0.06902361 -0.01087986 0.05464591
v 0.06844496 -0.00882573 0.05368509
v 0.02079148 0.00215210 0.05635306
v 0.03460585 -0.03882394 0.06114854
v 0.03122357 -0.03810555 0.05368509
v 0.03151697 -0.03867240 0.05368509
v 0.03387235 -0.04079950 0.05746829
v 0.03715682 -0.04069847 0.06551508
v 0.02814284 0.00215210 0.06991593
v 0.02630093 0.00215210 0.06669036
v 0.02385590 0.00215210 0.06228092
v 0.02264154 0.00215210 0.06000757
v 0.02132123 0.00215210 0.05746829
v 0.03992785 -0.04147860 0.07045639
v 0.04027015 -0.04238219 0.07045639
v 0.03335889 -0.04142247 0.05436281
v 0.03468735 -0.04297149 0.05436281
v 0.03661892 -0.04403223 0.05746829
v 0.03624402 -0.04411081 0.05436281
v 0.03621957 -0.04409397 0.05368509
v 0.03824893 -0.04502562 0.05368509
v 0.03883574 -0.04530063 0.05436281
v 0.03883574 -0.04521083 0.05368509
v 0.04124001 -0.04579452 0.05368509
v 0.04207947 -0.04588993 0.05368509
v 0.05382372 -0.04140563 0.05368509
v 0.05586124 -0.04344854 0.05908108
v 0.05679850 -0.04409397 0.06115712
v 0.06184339 -0.04599657 0.07045639
v 0.06079204 -0.04218014 0.06338757
v 0.05906422 -0.04042347 0.05896956
v 0.05695335 -0.03831882 0.05368509
v 0.06139514 -0.03219571 0.05368509
v 0.05549449 -0.03992397 0.05368509
v 0.06705129 -0.01930967 0.05368509
v 0.06764625 -0.01709277 0.05368509
v 0.07168868 -0.01963518 0.06169757
v 0.07407665 -0.02019642 0.06604696
v 0.07497316 -0.02019642 0.06759969
v 0.06813525 -0.01452230 0.05368509
v 0.06842051 -0.01191254 0.05368509
v 0.03171257 -0.03900353 0.05368509
v 0.03326109 -0.04147860 0.05368509
v 0.03430430 -0.04269648 0.05368509
v 0.03466290 -0.04302762 0.05368509
v 0.05967548 -0.04108573 0.06058235
f 1 2 3
f 1 3 4
f 1 4 5
f 1 5 6
f 1 6 7
f 1 7 8
f 1 8 2
f 2 9 10
f 2 10 3
f 2 8 11
f 2 11 12
f 2 12 9
f 3 13 4
f 3 10 13
f 4 13 14
f 4 14 15
f 4 15 5
f 5 15 16
f 5 16 17
f 5 17 6
f 6 17 18
f 6 18 7
f 7 19 11
f 7 11 8
f 7 18 20
f 7 20 21
f 7 21 19
f 9 22 10
f 9 12 23
f 9 23 24
f 9 24 22
f 10 25 26
f 10 26 13
f 10 22 25
f 11 19 12
f 12 19 27
f 12 27 28
f 12 28 29
f 12 29 30
f 12 30 24
f 12 24 23
f 13 26 31
f 13 31 33
f 13 33 14
f 14 32 15
f 14 33 34
f 14 34 35
f 14 35 32
f 15 36 37
f 15 37 16
f 15 32 36
f 16 38 39
f 16 39 40
f 16 40 17
f 16 37 38
f 17 40 18
f 18 40 41
f 18 41 42
f 18 42 43
f 18 43 44
f 18 44 20
f 19 21 27
f 20 44 45
f 20 45 46
f 20 46 47
f 20 47 21
f 21 47 48
f 21 48 49
f 21 49 50
f 21 50 27
f 22 51 52
f 22 52 53
f 22 53 54
f 22 54 25
f 22 24 51
f 24 30 29
f 24 29 55
f 24 55 56
f 24 56 51
f 25 54 57
f 25 57 58
f 25 58 59
f 25 59 26
f 26 59 60
f 26 60 31
f 27 50 49
f 27 49 61
f 27 61 29
f 27 29 28
f 29 61 62
f 29 62 56
f 29 56 55
f 31 63 33
f 31 60 63
f 32 35 64
f 32 64 65
f 32 65 36
f 33 63 66
f 33 66 34
f 34 66 67
f 34 67 68
f 34 68 35
f 35 68 64
f 36 65 69
f 36 69 37
f 37 69 70
f 37 70 71
f 37 71 38
f 38 71 72
f 38 72 73
f 38 73 39
f 39 73 74
f 39 74 75
f 39 75 76
f 39 76 77
f 39 77 40
f 40 77 41
f 41 77 42
f 42 78 79
f 42 79 80
f 42 80 81
f 42 81 82
f 42 82 44
f 42 44 43
f 42 77 78
f 44 82 83
f 44 83 45
f 45 83 84
f 45 84 46
f 46 84 85
f 46 85 47
f 47 85 86
f 47 86 87
f 47 87 88
f 47 88 48
f 48 88 49
f 49 88 89
f 49 89 90
f 49 90 61
f 51 56 91
f 51 91 52
f 52 91 53
f 53 91 92
f 53 92 54
f 54 92 93
f 54 93 94
f 54 94 95
f 54 95 96
f 54 96 57
f 56 62 61
f 56 61 90
f 56 90 142
f 56 142 141
f 56 141 140
f 56 140 197
f 56 197 272
f 56 272 268
f 56 268 267
f 56 267 266
f 56 266 265
f 56 265 348
f 56 348 426
f 56 426 513
f 56 513 590
f 56 590 600
f 56 600 599
f 56 599 598
f 56 598 597
f 56 597 596
f 56 596 518
f 56 518 429
f 56 429 353
f 56 353 352
f 56 352 351
f 56 351 349
f 56 349 273
f 56 273 199
f 56 199 143
f 56 143 91
f 57 96 95
f 57 95 97
f 57 97 98
f 57 98 58
f 58 60 59
f 58 98 99
f 58 99 100
f 58 100 60
f 60 100 63
f 63 100 101
f 63 101 66
f 64 68 65
f 65 102 103
f 65 103 104
f 65 104 105
f 65 105 70
f 65 70 106
f 65 106 69
f 65 68 102
f 66 101 107
f 66 107 67
f 67 107 108
f 67 108 109
f 67 109 110
f 67 110 68
f 68 110 102
f 69 106 70
f 70 105 111
f 70 111 112
f 70 112 113
f 70 113 114
f 70 114 72
f 70 72 115
f 70 115 71
f 71 115 72
f 72 116 73
f 72 114 117
f 72 117 118
f 72 118 119
f 72 119 120
f 72 120 121
f 72 121 122
f 72 122 123
f 72 123 116
f 73 116 74
f 74 122 124
f 74 124 76
f 74 76 75
f 74 116 122
f 76 78 77
f 76 124 125
f 76 125 78
f 78 125 79
f 79 125 126
f 79 126 80
f 80 126 127
f 80 127 81
f 81 127 128
f 81 128 83
f 81 83 82
f 83 128 84
f 84 128 129
f 84 129 130
f 84 130 131
f 84 131 85
f 85 131 132
f 85 132 86
f 86 132 133
f 86 133 134
f 86 134 135
f 86 135 136
f 86 136 87
f 87 89 88
f 87 136 137
f 87 137 138
f 87 138 89
f 89 138 139
f 89 139 140
f 89 140 141
f 89 141 142
f 89 142 90
f 91 143 93
f 91 93 92
f 93 143 94
f 94 144 95
f 94 143 144
f 95 144 145
f 95 145 97
f 97 145 146
f 97 146 147
f 97 147 148
f 97 148 98
f 98 148 149
f 98 149 150
f 98 150 151
f 98 151 99
f 99 151 100
f 100 151 101
f 101 151 107
f 102 110 103
f 103 110 104
f 104 110 152
f 104 152 153
f 104 153 154
f 104 154 155
f 104 155 112
f 104 112 156
f 104 156 105
f 105 156 112
f 105 112 111
f 107 151 157
f 107 157 158
f 107 158 159
f 107 159 160
f 107 160 161
f 107 161 108
f 108 161 109
f 109 161 162
f 109 162 163
f 109 163 164
f 109 164 165
f 109 165 110
f 110 165 152
f 112 155 113
f 113 155 166
f 113 166 118
f 113 118 167
f 113 167 114
f 114 167 118
f 114 118 117
f 116 123 122
f 118 166 168
f 118 168 120
f 118 120 119
f 120 168 169
f 120 169 170
f 120 170 171
f 120 171 121
f 121 171 172
f 121 172 173
f 121 173 122
f 122 173 124
f 124 173 125
f 125 173 174
f 125 174 126
f 126 174 175
f 126 175 127
f 127 175 128
f 128 176 177
f 128 177 178
f 128 178 129
f 128 175 176
f 129 178 179
f 129 179 130
f 130 179 180
f 130 180 181
f 130 181 182
f 130 182 183
f 130 183 131
f 131 183 132
f 132 183 133
f 133 184 185
f 133 185 186
f 133 186 134
f 133 183 187
f 133 187 184
f 134 186 188
f 134 188 189
f 134 189 190
f 134 190 135
f 135 190 191
f 135 191 192
f 135 192 136
f 136 192 191
f 136 191 193
f 136 193 137
f 137 193 194
f 137 194 195
f 137 195 138
f 138 195 139
f 139 195 196
f 139 196 140
f 140 196 197
f 143 198 144
f 143 199 200
f 143 200 201
f 143 201 202
f 143 202 203
f 143 203 198
f 144 198 145
f 145 198 146
f 146 198 203
f 146 203 204
f 146 204 147
f 147 200 205
f 147 205 148
f 147 204 206
f 147 206 200
f 148 205 207
f 148 207 208
f 148 208 209
f 148 209 210
f 148 210 149
f 149 210 211
f 149 211 212
f 149 212 213
f 149 213 150
f 150 213 214
f 150 214 215
f 150 215 151
f 151 158 157
f 151 215 214
f 151 214 216
f 151 216 158
f 152 165 217
f 152 217 218
f 152 218 153
f 153 218 155
f 153 155 154
f 155 218 219
f 155 219 220
f 155 220 221
f 155 221 222
f 155 222 223
f 155 223 224
f 155 224 166
f 158 225 160
f 158 160 159
f 158 216 225
f 160 162 161
f 160 225 226
f 160 226 227
f 160 227 228
f 160 228 229
f 160 229 164
f 160 164 162
f 162 164 163
f 164 229 228
f 164 228 230
f 164 230 165
f 165 230 217
f 166 224 168
f 168 224 231
f 168 231 169
f 169 231 170
f 170 232 233
f 170 233 171
f 170 231 234
f 170 234 235
f 170 235 236
f 170 236 237
f 170 237 238
f 170 238 239
f 170 239 240
f 170 240 241
f 170 241 242
f 170 242 232
f 171 233 232
f 171 232 242
f 171 242 243
f 171 243 172
f 172 174 173
f 172 243 244
f 172 244 245
f 172 245 246
f 172 246 247
f 172 247 248
f 172 248 174
f 174 248 247
f 174 247 249
f 174 249 250
f 174 250 251
f 174 251 176
f 174 176 175
f 176 252 253
f 176 253 254
f 176 254 177
f 176 251 252
f 177 254 255
f 177 255 178
f 178 255 179
f 179 255 180
f 180 255 256
f 180 256 181
f 181 187 183
f 181 183 182
f 181 256 257
f 181 257 258
f 181 258 259
f 181 259 187
f 184 259 185
f 184 187 259
f 185 259 188
f 185 188 186
f 188 260 189
f 188 259 261
f 188 261 262
f 188 262 263
f 188 263 264
f 188 264 265
f 188 265 266
f 188 266 267
f 188 267 260
f 189 260 190
f 190 260 268
f 190 268 191
f 191 268 269
f 191 269 194
f 191 194 193
f 194 269 270
f 194 270 271
f 194 271 195
f 195 271 196
f 196 271 270
f 196 270 197
f 197 270 272
f 199 273 274
f 199 274 275
f 199 275 276
f 199 276 277
f 199 277 200
f 200 277 205
f 200 206 202
f 200 202 201
f 202 206 204
f 202 204 203
f 205 276 207
f 205 277 276
f 207 276 275
f 207 275 278
f 207 278 208
f 208 279 280
f 208 280 281
f 208 281 209
f 208 278 279
f 209 281 210
f 210 281 282
f 210 282 283
f 210 283 284
f 210 284 211
f 211 284 285
f 211 285 286
f 211 286 287
f 211 287 288
f 211 288 213
f 211 213 212
f 213 288 289
f 213 289 214
f 214 289 290
f 214 290 216
f 216 290 291
f 216 291 292
f 216 292 293
f 216 293 225
f 217 230 294
f 217 294 218
f 218 294 228
f 218 228 295
f 218 295 296
f 218 296 297
f 218 297 298
f 218 298 299
f 218 299 221
f 218 221 219
f 219 221 220
f 221 299 300
f 221 300 301
f 221 301 302
f 221 302 303
f 221 303 222
f 222 304 223
f 222 303 305
f 222 305 306
f 222 306 304
f 223 234 224
f 223 304 234
f 224 234 231
f 225 293 226
f 226 293 307
f 226 307 308
f 226 308 309
f 226 309 227
f 227 309 228
f 228 296 295
f 228 294 230
f 228 309 310
f 228 310 311
f 228 311 312
f 228 312 313
f 228 313 314
f 228 314 315
f 228 315 316
f 228 316 297
f 228 297 296
f 234 304 317
f 234 317 237
f 234 237 236
f 234 236 235
f 237 317 306
f 237 306 318
f 237 318 319
f 237 319 320
f 237 320 321
f 237 321 322
f 237 322 323
f 237 323 324
f 237 324 325
f 237 325 238
f 238 325 239
f 239 241 240
f 239 325 241
f 241 325 326
f 241 326 327
f 241 327 242
f 242 327 328
f 242 328 329
f 242 329 330
f 242 330 331
f 242 331 244
f 242 244 243
f 244 331 332
f 244 332 245
f 245 332 333
f 245 333 334
f 245 334 246
f 246 334 335
f 246 335 247
f 247 335 249
f 249 335 250
f 250 335 336
f 250 336 252
f 250 252 251
f 252 336 253
f 253 337 255
f 253 255 254
f 253 336 337
f 255 337 338
f 255 338 256
f 256 339 257
f 256 338 339
f 257 339 340
f 257 340 341
f 257 341 342
f 257 342 343
f 257 343 344
f 257 344 259
f 257 259 258
f 259 344 345
f 259 345 346
f 259 346 261
f 260 267 268
f 261 346 262
f 262 346 345
f 262 345 347
f 262 347 263
f 263 347 425
f 263 425 424
f 263 424 509
f 263 509 589
f 263 589 585
f 263 585 628
f 263 628 582
f 263 582 627
f 263 627 623
f 263 623 622
f 263 622 574
f 263 574 486
f 263 486 485
f 263 485 484
f 263 484 483
f 263 483 573
f 263 573 620
f 263 620 563
f 263 563 562
f 263 562 561
f 263 561 560
f 263 560 619
f 263 619 621
f 263 621 613
f 263 613 548
f 263 548 547
f 263 547 545
f 263 545 542
f 263 542 541
f 263 541 540
f 263 540 612
f 263 612 611
f 263 611 610
f 263 610 608
f 263 608 607
f 263 607 632
f 263 632 631
f 263 631 630
f 263 630 629
f 263 629 593
f 263 593 592
f 263 592 517
f 263 517 514
f 263 514 427
f 263 427 348
f 263 348 265
f 263 265 264
f 268 272 269
f 269 272 270
f 273 349 280
f 273 280 279
f 273 279 350
f 273 350 278
f 273 278 274
f 274 278 275
f 278 350 279
f 280 283 282
f 280 282 281
f 280 349 351
f 280 351 352
f 280 352 353
f 280 353 354
f 280 354 283
f 283 285 284
f 283 354 355
f 283 355 356
f 283 356 285
f 285 356 286
f 286 356 357
f 286 357 358
f 286 358 287
f 287 358 288
f 288 358 359
f 288 359 289
f 289 359 360
f 289 360 361
f 289 361 362
f 289 362 363
f 289 363 290
f 290 363 364
f 290 364 365
f 290 365 366
f 290 366 291
f 291 366 365
f 291 365 367
f 291 367 368
f 291 368 369
f 291 369 292
f 292 370 371
f 292 371 372
f 292 372 293
f 292 369 373
f 292 373 374
f 292 374 375
f 292 375 370
f 293 372 307
f 297 316 376
f 297 376 298
f 298 301 300
f 298 300 299
f 298 376 377
f 298 377 378
f 298 378 379
f 298 379 380
f 298 380 381
f 298 381 302
f 298 302 301
f 302 381 380
f 302 380 382
f 302 382 383
f 302 383 384
f 302 384 385
f 302 385 303
f 303 385 306
f 303 306 305
f 304 306 317
f 306 385 384
f 306 384 318
f 307 372 371
f 307 371 386
f 307 386 308
f 308 386 310
f 308 310 309
f 310 386 311
f 311 386 387
f 311 387 313
f 311 313 312
f 313 387 388
f 313 388 315
f 313 315 314
f 315 389 390
f 315 390 316
f 315 388 387
f 315 387 389
f 316 390 391
f 316 391 378
f 316 378 377
f 316 377 376
f 318 384 319
f 319 384 392
f 319 392 393
f 319 393 394
f 319 394 320
f 320 394 393
f 320 393 321
f 321 393 395
f 321 395 396
f 321 396 397
f 321 397 322
f 322 397 398
f 322 398 399
f 322 399 400
f 322 400 401
f 322 401 323
f 323 401 324
f 324 401 326
f 324 326 325
f 326 401 402
f 326 402 327
f 327 402 328
f 328 402 403
f 328 403 329
f 329 403 404
f 329 404 405
f 329 405 330
f 330 332 331
f 330 405 406
f 330 406 407
f 330 407 332
f 332 407 333
f 333 407 408
f 333 408 409
f 333 409 410
f 333 410 411
f 333 411 334
f 334 411 412
f 334 412 413
f 334 413 335
f 335 413 337
f 335 337 336
f 337 413 414
f 337 414 338
f 338 414 339
f 339 414 415
f 339 415 340
f 340 415 414
f 340 414 341
f 341 414 416
f 341 416 417
f 341 417 418
f 341 418 419
f 341 419 420
f 341 420 421
f 341 421 422
f 341 422 342
f 342 422 423
f 342 423 343
f 343 423 345
f 343 345 344
f 345 424 425
f 345 425 347
f 345 423 424
f 348 427 428
f 348 428 426
f 353 429 430
f 353 430 431
f 353 431 354
f 354 431 432
f 354 432 355
f 355 432 356
f 356 432 433
f 356 433 357
f 357 433 434
f 357 434 435
f 357 435 436
f 357 436 437
f 357 437 438
f 357 438 358
f 358 438 439
f 358 439 359
f 359 439 438
f 359 438 437
f 359 437 440
f 359 440 441
f 359 441 442
f 359 442 360
f 360 442 443
f 360 443 361
f 361 443 444
f 361 444 445
f 361 445 446
f 361 446 362
f 362 447 448
f 362 448 363
f 362 446 449
f 362 449 447
f 363 448 450
f 363 450 451
f 363 451 365
f 363 365 364
f 365 451 368
f 365 368 367
f 368 452 369
f 368 451 453
f 368 453 454
f 368 454 455
f 368 455 456
f 368 456 457
f 368 457 458
f 368 458 452
f 369 452 373
f 370 386 371
f 370 375 459
f 370 459 386
f 373 452 460
f 373 460 461
f 373 461 462
f 373 462 374
f 374 462 463
f 374 463 375
f 375 464 459
f 375 463 464
f 378 391 465
f 378 465 466
f 378 466 467
f 378 467 379
f 379 468 469
f 379 469 470
f 379 470 471
f 379 471 472
f 379 472 382
f 379 382 380
f 379 467 473
f 379 473 468
f 382 472 471
f 382 471 474
f 382 474 383
f 383 474 475
f 383 475 476
f 383 476 392
f 383 392 384
f 386 459 387
f 387 477 389
f 387 459 464
f 387 464 478
f 387 478 477
f 389 477 479
f 389 479 480
f 389 480 481
f 389 481 390
f 390 465 391
f 390 481 473
f 390 473 465
f 392 476 482
f 392 482 393
f 393 482 483
f 393 483 484
f 393 484 485
f 393 485 395
f 395 485 396
f 396 485 486
f 396 486 397
f 397 486 398
f 398 486 487
f 398 487 488
f 398 488 489
f 398 489 400
f 398 400 399
f 400 490 401
f 400 489 491
f 400 491 490
f 401 490 402
f 402 492 493
f 402 493 403
f 402 490 491
f 402 491 492
f 403 493 404
f 404 493 494
f 404 494 409
f 404 409 405
f 405 409 408
f 405 408 406
f 406 408 407
f 409 495 496
f 409 496 497
f 409 497 498
f 409 498 499
f 409 499 500
f 409 500 501
f 409 501 419
f 409 419 502
f 409 502 503
f 409 503 410
f 409 494 504
f 409 504 495
f 410 503 411
f 411 503 417
f 411 417 412
f 412 417 413
f 413 417 505
f 413 505 414
f 414 505 416
f 416 505 417
f 417 503 502
f 417 502 418
f 418 502 419
f 419 501 420
f 420 501 506
f 420 506 507
f 420 507 508
f 420 508 509
f 420 509 510
f 420 510 421
f 421 510 511
f 421 511 422
f 422 511 512
f 422 512 423
f 423 512 424
f 424 512 511
f 424 511 510
f 424 510 509
f 426 428 513
f 427 514 428
f 428 515 516
f 428 516 513
f 428 514 517
f 428 517 515
f 429 518 432
f 429 432 430
f 430 432 431
f 432 519 520
f 432 520 521
f 432 521 434
f 432 434 522
f 432 522 433
f 432 518 519
f 433 522 434
f 434 521 523
f 434 523 524
f 434 524 435
f 435 525 515
f 435 515 526
f 435 526 527
f 435 527 528
f 435 528 437
f 435 437 436
f 435 524 525
f 437 528 527
f 437 527 529
f 437 529 440
f 440 529 530
f 440 530 441
f 441 530 442
f 442 530 531
f 442 531 443
f 443 531 444
f 444 531 445
f 445 531 532
f 445 532 533
f 445 533 446
f 446 533 449
f 447 450 448
f 447 449 534
f 447 534 535
f 447 535 450
f 449 533 536
f 449 536 534
f 450 535 451
f 451 535 534
f 451 534 537
f 451 537 538
f 451 538 453
f 452 458 462
f 452 462 460
f 453 538 534
f 453 534 539
f 453 539 540
f 453 540 541
f 453 541 542
f 453 542 543
f 453 543 455
f 453 455 454
f 455 543 544
f 455 544 545
f 455 545 546
f 455 546 457
f 455 457 456
f 457 546 547
f 457 547 462
f 457 462 458
f 460 462 461
f 462 547 548
f 462 548 549
f 462 549 550
f 462 550 463
f 463 550 551
f 463 551 552
f 463 552 553
f 463 553 464
f 464 553 478
f 465 473 466
f 466 473 467
f 468 554 555
f 468 555 556
f 468 556 557
f 468 557 558
f 468 558 469
f 468 473 554
f 469 559 560
f 469 560 561
f 469 561 562
f 469 562 563
f 469 563 564
f 469 564 565
f 469 565 470
f 469 558 559
f 470 565 564
f 470 564 474
f 470 474 471
f 473 481 554
f 474 564 563
f 474 563 566
f 474 566 567
f 474 567 475
f 475 567 476
f 476 567 568
f 476 568 483
f 476 483 482
f 477 478 569
f 477 569 479
f 478 553 569
f 479 569 570
f 479 570 571
f 479 571 572
f 479 572 555
f 479 555 480
f 480 555 481
f 481 555 554
f 483 568 573
f 486 574 575
f 486 575 487
f 487 575 488
f 488 575 491
f 488 491 489
f 491 575 576
f 491 576 577
f 491 577 492
f 492 578 493
f 492 577 578
f 493 578 579
f 493 579 494
f 494 579 504
f 495 504 496
f 496 580 581
f 496 581 497
f 496 504 579
f 496 579 578
f 496 578 580
f 497 581 582
f 497 582 498
f 498 582 583
f 498 583 584
f 498 584 585
f 498 585 586
f 498 586 587
f 498 587 499
f 499 587 500
f 500 587 501
f 501 587 506
f 506 587 585
f 506 585 588
f 506 588 507
f 507 588 589
f 507 589 508
f 508 589 509
f 513 516 591
f 513 591 590
f 515 517 592
f 515 592 593
f 515 593 594
f 515 594 527
f 515 527 526
f 515 525 595
f 515 595 591
f 515 591 516
f 518 520 519
f 518 596 520
f 520 596 521
f 521 596 597
f 521 597 598
f 521 598 599
f 521 599 600
f 521 600 595
f 521 595 601
f 521 601 602
f 521 602 523
f 523 602 595
f 523 595 525
f 523 525 524
f 527 594 603
f 527 603 529
f 529 603 604
f 529 604 605
f 529 605 530
f 530 605 606
f 530 606 531
f 531 606 607
f 531 607 608
f 531 608 609
f 531 609 532
f 532 609 610
f 532 610 533
f 533 610 611
f 533 611 536
f 534 536 539
f 534 538 537
f 536 611 612
f 536 612 540
f 536 540 539
f 542 545 544
f 542 544 543
f 545 547 546
f 548 613 571
f 548 571 614
f 548 614 615
f 548 615 549
f 549 615 571
f 549 571 550
f 550 571 570
f 550 570 551
f 551 616 552
f 551 570 616
f 552 616 553
f 553 616 569
f 555 572 556
f 556 572 557
f 557 572 617
f 557 617 618
f 557 618 558
f 558 618 619
f 558 619 559
f 559 619 560
f 563 620 566
f 566 620 567
f 567 620 568
f 568 620 573
f 569 616 570
f 571 617 572
f 571 615 614
f 571 613 621
f 571 621 617
f 574 622 575
f 575 622 623
f 575 623 576
f 576 623 624
f 576 624 577
f 577 624 625
f 577 625 578
f 578 625 626
f 578 626 580
f 580 626 581
f 581 626 625
f 581 625 623
f 581 623 627
f 581 627 582
f 582 628 583
f 583 628 585
f 583 585 584
f 585 589 588
f 585 587 586
f 590 591 595
f 590 595 600
f 593 629 594
f 594 629 603
f 595 602 601
f 603 629 630
f 603 630 631
f 603 631 604
f 604 606 605
f 604 631 632
f 604 632 606
f 606 632 607
f 608 610 609
f 617 621 633
f 617 633 618
f 618 621 619
f 618 633 621
f 623 625 624

