# https://github.com/mikedh/trimesh
v -0.07663554 -0.01397865 0.05368510
v -0.07659145 -0.01708773 0.05368510
v -0.07623314 -0.01088026 0.05368510
v -0.04864347 0.01059482 0.01341613
v -0.07626070 -0.02019681 0.05368510
v -0.05576552 -0.06367049 0.02520986
v -0.05566078 -0.06676888 0.02517044
v -0.05662546 -0.06676888 0.02671955
v -0.05658136 -0.06987796 0.02699547
v -0.05765077 -0.07298705 0.02950637
v -0.07558267 -0.00800623 0.05368510
v -0.07537320 -0.00713013 0.05368510
v -0.07482747 -0.00568777 0.05368510
v -0.07435340 -0.00467278 0.05368510
v -0.07421008 -0.00439500 0.05368510
v -0.07268865 -0.00171328 0.05368510
v -0.07218151 -0.00087992 0.05368510
v -0.04885845 0.01059482 0.01394826
v -0.02274612 0.02823430 0.05368510
v -0.02250357 0.02823430 0.05310566
v -0.02220590 0.02823430 0.05243556
v -0.03893059 0.01289191 0.01341613
v -0.04644953 -0.05124486 0.01341613
v -0.04898524 -0.05434326 0.01638427
v -0.05300380 -0.06056141 0.02149673
v -0.05434332 -0.06367049 0.02330205
v -0.07615596 -0.02075238 0.05368510
v -0.05821303 -0.07609612 0.03261642
v -0.05293214 -0.06367049 0.02160315
v -0.05281086 -0.06525174 0.02173717
v -0.05385271 -0.06648041 0.02314044
v -0.05526940 -0.06987796 0.02544636
v -0.05637740 -0.07298705 0.02744089
v -0.05693967 -0.07592517 0.02949849
v -0.07152002 0.00000686 0.05368510
v -0.06908904 0.00234668 0.05368510
v -0.06828974 0.00305184 0.05368510
v -0.02220590 0.02823430 0.05368510
v -0.02032065 0.01289191 0.01341613
v -0.04605815 -0.05434326 0.01341613
v -0.04743625 -0.05434326 0.01468931
v -0.05022554 -0.05745233 0.01801616
v -0.07568190 -0.02324178 0.05368510
v -0.05650969 -0.07835047 0.03052729
v -0.05700030 -0.07931204 0.03264401
v -0.05682390 -0.07919451 0.03475679
v -0.07470620 -0.02639360 0.05368510
v -0.07547242 -0.02404309 0.05368510
v -0.05008222 -0.06056141 0.01825660
v -0.05244704 -0.06732446 0.02200127
v -0.04986723 -0.06257003 0.01849705
v -0.05607421 -0.07477129 0.02781536
v -0.02220590 0.01568046 0.05368510
v -0.02032065 -0.01400002 0.03109884
v -0.02032065 -0.01088026 0.03077562
v -0.02032065 -0.00778186 0.03034203
v -0.02032065 -0.00501467 0.02982566
v -0.02032065 -0.00464073 0.02975076
v -0.02032065 -0.00440568 0.02969558
v -0.02032065 -0.00156371 0.02889934
v -0.02032065 0.00153469 0.02763404
v -0.02032065 0.00435530 0.02622289
v -0.02032065 0.00448351 0.02614406
v -0.02032065 0.00775285 0.02404704
v -0.02032065 0.00822295 0.02368440
v -0.02032065 0.00873579 0.02316409
v -0.02032065 0.01069098 0.02093305
v -0.02032065 0.01108629 0.02036544
v -0.02032065 0.01126792 0.02006587
v -0.02032065 0.01284917 0.01706225
v -0.02032065 0.01289191 0.01694006
v -0.02032065 -0.06346749 0.01341613
v -0.04498322 -0.05751644 0.01341613
v -0.04717717 -0.05745233 0.01504407
v -0.05304238 -0.07782695 0.02780353
v -0.05496071 -0.08043387 0.03162704
v -0.05620100 -0.08091466 0.03369252
v -0.05511505 -0.07685469 0.02845787
v -0.05620100 -0.08091466 0.03436261
v -0.07371396 -0.02868000 0.05368510
v -0.04940970 -0.06464274 0.01882027
v -0.05037437 -0.06922623 0.02130752
v -0.05134456 -0.07011301 0.02237179
v -0.05322981 -0.07203616 0.02453976
v -0.04684091 -0.05955710 0.01534365
v -0.05240294 -0.07410888 0.02507978
v -0.05418897 -0.07592517 0.02729505
v -0.02032065 -0.02323110 0.02987295
v -0.02032065 -0.02136138 0.03041692
v -0.02032065 -0.02020749 0.03070072
v -0.02032065 -0.01866898 0.03091358
v -0.02032065 -0.01709841 0.03109884
v -0.04526987 -0.02950268 0.05368510
v -0.03093206 -0.07158742 0.02493788
v -0.02742616 -0.06987796 0.02232449
v -0.02484084 -0.06525174 0.02176477
v -0.02140660 -0.06266618 0.01899765
v -0.02093253 -0.06056141 0.01936424
v -0.02032065 -0.05959984 0.01904890
v -0.02032065 -0.06370254 0.01424390
v -0.02220039 -0.06502737 0.01341613
v -0.04492810 -0.05764465 0.01341613
v -0.05124533 -0.07823294 0.02742512
v -0.05289355 -0.08077576 0.03103183
v -0.05033027 -0.07500634 0.02450034
v -0.04814735 -0.07555123 0.02401157
v -0.05256280 -0.08077576 0.03103183
v -0.05525838 -0.08091466 0.03436261
v -0.06058337 -0.03844528 0.05368510
v -0.06375853 -0.03795381 0.05368510
v -0.06433182 -0.03777219 0.05368510
v -0.06677934 -0.03673583 0.05368510
v -0.06714316 -0.03650077 0.05368510
v -0.06913865 -0.03500500 0.05368510
v -0.07050022 -0.03363743 0.05368510
v -0.07101288 -0.03309254 0.05368510
v -0.07212087 -0.03169292 0.05368510
v -0.07321785 -0.02976978 0.05368510
v -0.07335565 -0.02950268 0.05368510
v -0.04633377 -0.06162982 0.01570235
v -0.04734805 -0.06615989 0.01817777
v -0.04956956 -0.07129895 0.02181601
v -0.04560613 -0.03014372 0.05368510
v -0.04672515 -0.03210960 0.05368510
v -0.03715559 -0.07476061 0.02806369
v -0.02787818 -0.07153400 0.02187907
v -0.02032065 -0.06171530 0.01809499
v -0.02032065 -0.06372391 0.01435426
v -0.02174286 -0.06523037 0.01550132
v -0.02365567 -0.06571115 0.01341613
v -0.02787818 -0.07153400 0.02129570
v -0.02833020 -0.07130963 0.01922627
v -0.02735450 -0.06859587 0.01518203
v -0.04306490 -0.06073236 0.01341613
v -0.04519821 -0.06058278 0.01460260
v -0.04814735 -0.07712179 0.02532023
v -0.04814735 -0.07850005 0.02686934
v -0.04750791 -0.07210025 0.02129964
v -0.04587624 -0.07417297 0.02201310
v -0.04380908 -0.07465377 0.02163863
v -0.05256280 -0.08077576 0.03122892
v -0.04504386 -0.07827568 0.02667225
v -0.04194037 -0.07748505 0.02551337
v -0.04194037 -0.07790173 0.02707037
v -0.04022600 -0.07770943 0.02759068
v -0.05318570 -0.08054071 0.03329834
v -0.04022600 -0.07770943 0.02804004
v -0.04582111 -0.07810473 0.03158368
v -0.04960263 -0.07773079 0.03420494
v -0.05124533 -0.07833978 0.03447298
v -0.05427717 -0.07938683 0.03485927
v -0.05370939 -0.03749440 0.05368510
v -0.05448664 -0.03768671 0.05368510
v -0.05745783 -0.03830639 0.05368510
v -0.04426110 -0.06304013 0.01505984
v -0.04649914 -0.06823261 0.01869020
v -0.04443198 -0.06908734 0.01819353
v -0.04758509 -0.03321006 0.05368510
v -0.02174286 -0.06523037 0.01556044
v -0.02032065 -0.06320039 0.01631332
v -0.02635675 -0.06737787 0.01408228
v -0.02636778 -0.06688641 0.01341613
v -0.02942717 -0.07212163 0.02023536
v -0.03039736 -0.07163016 0.01835909
v -0.02951537 -0.06886297 0.01490611
v -0.04212779 -0.06190761 0.01341613
v -0.04504386 -0.07748505 0.02512314
v -0.04529743 -0.07002754 0.01911985
v -0.04289402 -0.07117074 0.01880056
v -0.04492259 -0.07307251 0.02088970
v -0.04082135 -0.07157674 0.01852464
v -0.03572787 -0.06875613 0.01516232
v -0.03883687 -0.07177974 0.01830784
v -0.03261887 -0.06895913 0.01489034
v -0.04194037 -0.07473923 0.02152826
v -0.03893059 -0.07591449 0.02330205
v -0.03883687 -0.07590380 0.02330205
v -0.04879230 -0.03443874 0.05368510
v -0.04938765 -0.03497295 0.05368510
v -0.05111303 -0.03607341 0.05368510
v -0.05193990 -0.03654351 0.05368510
v -0.04218291 -0.06391622 0.01438580
v -0.04130644 -0.06598894 0.01508349
v -0.03981257 -0.06806166 0.01569052
v -0.02951537 -0.06751677 0.01341613
v -0.03261887 -0.07302978 0.02019201
v -0.03700675 -0.07463240 0.02161104
v -0.03261887 -0.07180111 0.01815806
v -0.03261887 -0.07051901 0.01660501
v -0.04014332 -0.06384143 0.01341613
v -0.04194037 -0.07613885 0.02330205
v -0.03773990 -0.06848903 0.01541065
v -0.03562864 -0.06651247 0.01341613
v -0.03437181 -0.06686504 0.01341613
v -0.03261887 -0.06733514 0.01341613
v -0.03572787 -0.07188657 0.01812258
v -0.03883687 -0.07472855 0.02150855
v -0.03899673 -0.06470685 0.01341613
v -0.03879278 -0.06692914 0.01466960
v -0.03574992 -0.06645904 0.01341613
f 1 2 5
f 1 5 27
f 1 27 43
f 1 43 48
f 1 48 47
f 1 47 80
f 1 80 119
f 1 119 118
f 1 118 117
f 1 117 116
f 1 116 115
f 1 115 114
f 1 114 113
f 1 113 112
f 1 112 111
f 1 111 110
f 1 110 109
f 1 109 154
f 1 154 153
f 1 153 152
f 1 152 181
f 1 181 180
f 1 180 179
f 1 179 178
f 1 178 158
f 1 158 124
f 1 124 123
f 1 123 93
f 1 93 53
f 1 53 38
f 1 38 19
f 1 19 37
f 1 37 36
f 1 36 35
f 1 35 17
f 1 17 16
f 1 16 15
f 1 15 14
f 1 14 13
f 1 13 12
f 1 12 11
f 1 11 3
f 1 3 4
f 1 4 2
f 2 4 6
f 2 6 7
f 2 7 8
f 2 8 9
f 2 9 10
f 2 10 5
f 3 11 4
f 4 11 12
f 4 12 13
f 4 13 14
f 4 14 15
f 4 15 16
f 4 16 17
f 4 17 18
f 4 18 19
f 4 19 20
f 4 20 21
f 4 21 22
f 4 22 39
f 4 39 72
f 4 72 101
f 4 101 130
f 4 130 162
f 4 162 185
f 4 185 195
f 4 195 194
f 4 194 193
f 4 193 200
f 4 200 198
f 4 198 190
f 4 190 166
f 4 166 134
f 4 134 102
f 4 102 73
f 4 73 40
f 4 40 23
f 4 23 24
f 4 24 25
f 4 25 26
f 4 26 6
f 5 10 28
f 5 28 27
f 6 26 7
f 7 26 29
f 7 29 30
f 7 30 31
f 7 31 32
f 7 32 33
f 7 33 9
f 7 9 8
f 9 33 10
f 10 33 34
f 10 34 28
f 17 35 18
f 18 35 36
f 18 36 37
f 18 37 19
f 19 38 21
f 19 21 20
f 21 38 71
f 21 71 39
f 21 39 22
f 23 40 41
f 23 41 24
f 24 41 42
f 24 42 25
f 25 42 29
f 25 29 26
f 27 28 43
f 28 34 44
f 28 44 45
f 28 45 46
f 28 46 47
f 28 47 48
f 28 48 43
f 29 42 41
f 29 41 49
f 29 49 30
f 30 50 32
f 30 32 31
f 30 49 51
f 30 51 50
f 32 50 33
f 33 50 52
f 33 52 34
f 34 52 44
f 38 53 92
f 38 92 54
f 38 54 55
f 38 55 56
f 38 56 57
f 38 57 58
f 38 58 59
f 38 59 60
f 38 60 61
f 38 61 62
f 38 62 63
f 38 63 64
f 38 64 65
f 38 65 66
f 38 66 67
f 38 67 68
f 38 68 69
f 38 69 70
f 38 70 71
f 39 71 70
f 39 70 69
f 39 69 68
f 39 68 67
f 39 67 66
f 39 66 65
f 39 65 64
f 39 64 63
f 39 63 62
f 39 62 61
f 39 61 60
f 39 60 59
f 39 59 58
f 39 58 57
f 39 57 56
f 39 56 55
f 39 55 54
f 39 54 92
f 39 92 91
f 39 91 90
f 39 90 89
f 39 89 88
f 39 88 99
f 39 99 127
f 39 127 160
f 39 160 128
f 39 128 100
f 39 100 72
f 40 73 74
f 40 74 49
f 40 49 41
f 44 75 76
f 44 76 77
f 44 77 45
f 44 52 78
f 44 78 75
f 45 77 79
f 45 79 46
f 46 79 47
f 47 79 80
f 49 74 51
f 50 51 81
f 50 81 82
f 50 82 83
f 50 83 84
f 50 84 52
f 51 74 85
f 51 85 81
f 52 84 86
f 52 86 87
f 52 87 78
f 53 88 89
f 53 89 90
f 53 90 91
f 53 91 92
f 53 93 94
f 53 94 95
f 53 95 96
f 53 96 97
f 53 97 98
f 53 98 99
f 53 99 88
f 72 100 101
f 73 102 85
f 73 85 74
f 75 103 104
f 75 104 76
f 75 78 87
f 75 87 86
f 75 86 105
f 75 105 106
f 75 106 103
f 76 104 77
f 77 104 107
f 77 107 108
f 77 108 79
f 79 108 109
f 79 109 110
f 79 110 111
f 79 111 112
f 79 112 113
f 79 113 114
f 79 114 115
f 79 115 116
f 79 116 117
f 79 117 118
f 79 118 119
f 79 119 80
f 81 85 120
f 81 120 121
f 81 121 82
f 82 122 83
f 82 121 122
f 83 122 84
f 84 122 86
f 85 102 120
f 86 122 105
f 93 123 94
f 94 123 124
f 94 124 125
f 94 125 126
f 94 126 95
f 95 126 97
f 95 97 96
f 97 127 99
f 97 99 98
f 97 126 127
f 100 128 129
f 100 129 101
f 101 129 131
f 101 131 132
f 101 132 133
f 101 133 130
f 102 134 135
f 102 135 120
f 103 106 136
f 103 136 137
f 103 137 104
f 104 137 107
f 105 122 138
f 105 138 139
f 105 139 106
f 106 139 140
f 106 140 136
f 107 141 108
f 107 137 142
f 107 142 143
f 107 143 144
f 107 144 145
f 107 145 147
f 107 147 141
f 108 141 146
f 108 146 147
f 108 147 148
f 108 148 149
f 108 149 150
f 108 150 151
f 108 151 152
f 108 152 153
f 108 153 154
f 108 154 109
f 120 135 155
f 120 155 121
f 121 155 156
f 121 156 122
f 122 156 157
f 122 157 138
f 124 158 149
f 124 149 125
f 125 149 148
f 125 148 147
f 125 147 126
f 126 131 129
f 126 129 159
f 126 159 128
f 126 128 160
f 126 160 127
f 126 147 145
f 126 145 131
f 128 159 129
f 130 161 162
f 130 133 161
f 131 145 163
f 131 163 132
f 132 163 164
f 132 164 133
f 133 164 165
f 133 165 162
f 133 162 161
f 134 166 155
f 134 155 135
f 136 140 137
f 137 140 167
f 137 167 142
f 138 157 168
f 138 168 169
f 138 169 170
f 138 170 139
f 139 170 169
f 139 169 140
f 140 169 171
f 140 171 172
f 140 172 173
f 140 173 174
f 140 174 175
f 140 175 167
f 141 147 146
f 142 167 143
f 143 145 144
f 143 167 176
f 143 176 177
f 143 177 145
f 145 177 163
f 149 158 178
f 149 178 179
f 149 179 150
f 150 179 180
f 150 180 151
f 151 180 181
f 151 181 152
f 155 166 182
f 155 182 156
f 156 182 183
f 156 183 157
f 157 183 184
f 157 184 169
f 157 169 168
f 162 165 185
f 163 186 164
f 163 177 186
f 164 186 177
f 164 177 187
f 164 187 188
f 164 188 165
f 165 188 189
f 165 189 185
f 166 190 182
f 167 191 176
f 167 175 191
f 169 184 192
f 169 192 171
f 171 192 172
f 172 192 193
f 172 193 194
f 172 194 195
f 172 195 173
f 173 195 174
f 174 189 196
f 174 196 175
f 174 195 185
f 174 185 189
f 175 196 197
f 175 197 191
f 176 191 197
f 176 197 187
f 176 187 177
f 182 190 183
f 183 190 198
f 183 198 184
f 184 198 199
f 184 199 200
f 184 200 193
f 184 193 192
f 187 197 188
f 188 197 196
f 188 196 189
f 198 200 199

