# https://github.com/mikedh/trimesh
v -0.00155484 -0.03921899 0.06989764
v -0.00155484 -0.03921022 0.07299665
v -0.00465937 -0.03911080 0.07610231
v -0.00465937 -0.03895583 0.07299665
v -0.00465937 -0.03842072 0.06989764
v -0.00155484 -0.03865465 0.06679198
v 0.00155241 -0.03808738 0.06057402
v 0.00465693 -0.03849967 0.06057402
v 0.00465693 -0.03845289 0.06367968
v 0.00155241 -0.03869266 0.06989764
v 0.00149260 -0.03810785 0.07278075
v -0.00441470 -0.03836809 0.07942388
v -0.00776390 -0.03858447 0.08231696
v -0.00776390 -0.03881547 0.07920797
v -0.00735340 -0.03794702 0.07299665
v -0.00803847 -0.03817802 0.07587977
v -0.00669009 -0.03757567 0.06989764
v -0.00630406 -0.03733297 0.06817707
v -0.00464034 -0.03774234 0.06700123
v -0.00358828 -0.03752303 0.06439713
v -0.00176145 -0.03787685 0.06349367
v -0.00012763 -0.03732712 0.05883684
v 0.00171008 -0.03752888 0.05767097
v 0.00284913 -0.03735051 0.05563153
v 0.00465693 -0.03787977 0.05746836
v 0.00644027 -0.03736806 0.05545881
v 0.00685620 -0.03759906 0.05746836
v 0.00721233 -0.03793825 0.06057402
v 0.00687795 -0.03782714 0.06367968
v 0.00318623 -0.03742654 0.07160160
v 0.00041607 -0.03769555 0.07502945
v -0.00604037 -0.03744116 0.08405413
v -0.00539065 -0.03786808 0.08231696
v -0.00800856 -0.03770725 0.08522332
v -0.00920742 -0.03735051 0.08707011
v -0.01087114 -0.03733297 0.08704685
v -0.01242885 -0.03727741 0.08698043
v -0.01006375 -0.03780959 0.07920797
v -0.01050143 -0.03799089 0.08231696
v -0.00964782 -0.03751134 0.07675998
v -0.00925907 -0.03723063 0.07469065
v -0.00890567 -0.03696746 0.07299665
v -0.00824507 -0.03644405 0.06989764
v -0.00657863 -0.03447615 0.06135790
v -0.00605940 -0.03404924 0.05928857
v -0.00340614 -0.03437966 0.05534256
v -0.00239214 -0.03439428 0.05368510
v -0.00149231 -0.03493523 0.05368510
v -0.00293040 -0.03720723 0.06232780
v 0.00110657 -0.03612241 0.05368510
v 0.00166930 -0.03637387 0.05368510
v 0.00077763 -0.03701717 0.05676418
v 0.00171008 -0.03664289 0.05450220
v 0.00465693 -0.03699670 0.05368510
v 0.00465693 -0.03702594 0.05380467
v 0.00465693 -0.03740315 0.05535917
v 0.00763097 -0.03650253 0.05368510
v 0.01007219 -0.03497032 0.05368510
v 0.01002869 -0.03498202 0.05436270
v 0.00978675 -0.03495862 0.05746836
v 0.00639406 -0.03746748 0.06541685
v 0.00875643 -0.03571011 0.06059727
v 0.00953121 -0.03467207 0.05957755
v 0.00319166 -0.03571888 0.07160160
v 0.00219669 -0.03571888 0.07315941
v -0.00305002 -0.03456680 0.08083222
v -0.00321313 -0.03663704 0.08060635
v 0.00766088 -0.03571888 0.06367968
v -0.00593978 -0.03571888 0.08416375
v -0.00749476 -0.03571888 0.08571824
v -0.00904975 -0.03571888 0.08720630
v -0.01087114 -0.03571888 0.08761817
v -0.01282031 -0.03571888 0.08738234
v -0.01317643 -0.03597912 0.08570163
v -0.01242885 -0.03727741 0.08692396
v -0.01230379 -0.03718384 0.08485463
v -0.01205641 -0.03695284 0.08231696
v -0.01161601 -0.03653177 0.07920797
v -0.01075697 -0.03624814 0.07587977
v -0.01098260 -0.03517501 0.07327567
v -0.01006375 -0.03489137 0.06989764
v -0.00960704 -0.03445861 0.06770541
v -0.00666834 -0.03151407 0.05488086
v -0.00524113 -0.03222754 0.05368510
v -0.00473005 -0.03264568 0.05368510
v -0.00385469 -0.03334746 0.05368510
v 0.01047181 -0.03442644 0.05368510
v 0.01142057 -0.03262229 0.05368510
v 0.01127648 -0.03261352 0.05436270
v 0.01174407 -0.03132108 0.05368510
v 0.01198601 -0.02950523 0.05368510
v 0.00962364 -0.03261352 0.05972370
v 0.00313729 -0.03400538 0.07149531
v 0.00889508 -0.03261352 0.06127486
v 0.00753311 -0.03261352 0.06367968
v -0.00305002 -0.03406386 0.08083222
v -0.00602134 -0.03387964 0.08407074
v -0.00906878 -0.03385333 0.08718637
v -0.01087114 -0.03334746 0.08754177
v -0.01295080 -0.03338547 0.08751188
v -0.01370654 -0.03245855 0.08560198
v -0.01486190 -0.03261352 0.08231696
v -0.01342653 -0.03539723 0.08231696
v -0.01312478 -0.03497909 0.07920797
v -0.01267895 -0.03447030 0.07610231
v -0.01243972 -0.03418667 0.07449468
v -0.01209175 -0.03377145 0.07242535
v -0.01161601 -0.03321296 0.06989764
v -0.01012627 -0.03196438 0.06367968
v -0.00964238 -0.03141758 0.06136787
v -0.00919383 -0.03092341 0.05929521
v -0.00757904 -0.03000233 0.05368510
v 0.01185552 -0.02846427 0.05368510
v 0.01168698 -0.02950523 0.05436270
v 0.00951218 -0.03035029 0.05940815
v 0.00291166 -0.03193514 0.07116315
v 0.00207436 -0.03282698 0.07271765
v 0.00625813 -0.03087370 0.06531056
v -0.00368343 -0.03199069 0.08014798
v 0.00041064 -0.03261352 0.07515235
v 0.00010616 -0.03083861 0.07469730
v -0.00274826 -0.03053158 0.07807864
v -0.00575492 -0.03047895 0.08124077
v -0.00677436 -0.03180940 0.08331675
v -0.01087114 -0.03179771 0.08637258
v -0.00884586 -0.03059299 0.08430990
v -0.01330964 -0.03018947 0.08469520
v -0.01549803 -0.02497000 0.07761031
v -0.01561493 -0.02703732 0.07800225
v -0.01561493 -0.02843502 0.07800225
v -0.01562852 -0.02842333 0.07610231
v -0.01521259 -0.02997893 0.07610231
v -0.01459277 -0.03261352 0.07920797
v -0.01391315 -0.03261352 0.07610231
v -0.01313837 -0.03268662 0.07327567
v -0.01285565 -0.03166027 0.06989764
v -0.01254302 -0.03121874 0.06802760
v -0.00963966 -0.02835608 0.05505026
v -0.00828585 -0.02923622 0.05368510
v 0.01145047 -0.02639987 0.05368510
v 0.00922402 -0.02828005 0.05885012
v 0.00865041 -0.02939120 0.06049430
v 0.00686979 -0.02970700 0.06376936
v 0.00596725 -0.02880346 0.06486879
v 0.00352060 -0.02950523 0.06900082
v 0.00245223 -0.02950523 0.07055198
v 0.00318623 -0.02783559 0.06845940
v -0.00049462 -0.02876545 0.07397652
v -0.00353119 -0.02846134 0.07721836
v -0.00667650 -0.02840871 0.08035059
v -0.01087114 -0.03005788 0.08481477
v -0.00874799 -0.02754026 0.08122416
v -0.01087114 -0.02850228 0.08330014
v -0.01321449 -0.02728587 0.08160614
v -0.01440791 -0.02313369 0.07625843
v -0.01538657 -0.02187926 0.07405956
v -0.01577532 -0.02394950 0.07554097
v -0.01575629 -0.02616595 0.07638797
v -0.01578619 -0.02640865 0.07314613
v -0.01557687 -0.02809876 0.07428542
v -0.01491084 -0.02928593 0.07314613
v -0.01404363 -0.02950523 0.06989764
v -0.01315197 -0.02958418 0.06691155
v -0.01276322 -0.02849936 0.06367968
v -0.01247506 -0.02803735 0.06197903
v -0.00998219 -0.02713382 0.05368510
v 0.01117590 -0.02574781 0.05368510
v 0.00943878 -0.02462789 0.05611648
v 0.01107803 -0.02639987 0.05436270
v 0.00975956 -0.02639987 0.05670772
v 0.00658979 -0.02721569 0.06279614
v 0.00602706 -0.02514545 0.06186610
v 0.00604609 -0.02197576 0.05881027
v 0.00320797 -0.02471268 0.06537699
v 0.00035627 -0.02749640 0.07190054
v -0.00560269 -0.02737651 0.07827794
v -0.00255797 -0.02737359 0.07514238
v -0.00565978 -0.02436764 0.07508592
v -0.00684232 -0.02530919 0.07715525
v -0.00891382 -0.02461619 0.07796239
v -0.01087114 -0.02714259 0.08174232
v -0.01331508 -0.02149328 0.07490655
v -0.01342653 -0.02437934 0.07822147
v -0.01263545 -0.01545508 0.06534378
v -0.01314925 -0.01501647 0.06367968
v -0.01553337 -0.01862477 0.06524745
v -0.01578348 -0.02306936 0.07301326
v -0.01553337 -0.01868910 0.06519763
v -0.01566386 -0.02537645 0.07056195
v -0.01539201 -0.02744669 0.07221609
v -0.01522618 -0.02640865 0.06967841
v -0.01459821 -0.02639987 0.06679198
v -0.01377994 -0.02639987 0.06367968
v -0.01294536 -0.02637941 0.06079656
v -0.01268438 -0.02532966 0.05818582
v -0.01236088 -0.02472146 0.05611648
v -0.01160786 -0.02451093 0.05368510
v -0.01038453 -0.02651976 0.05368510
v 0.01020540 -0.02345241 0.05368510
v 0.00991995 -0.02347873 0.05421322
v 0.00884886 -0.02256057 0.05514658
v 0.00671484 -0.02404600 0.05979677
v 0.00677737 -0.02104298 0.05673761
v 0.00494238 -0.01987043 0.05784701
v 0.00318623 -0.02165119 0.06223812
v 0.00035083 -0.02440566 0.06878823
v -0.00051094 -0.02542616 0.07085757
v -0.00358828 -0.02530627 0.07407616
v -0.00257700 -0.02432963 0.07200351
v -0.00372149 -0.02226231 0.07086421
v -0.00579298 -0.02146112 0.07183411
v -0.00944393 -0.02178569 0.07449468
v -0.01063463 -0.02258981 0.07600599
v -0.01087114 -0.02432086 0.07830783
v -0.01087114 -0.02559283 0.07986233
v -0.00620348 -0.01863647 0.06834647
v -0.00776390 -0.02102543 0.07247517
v -0.01151543 -0.02149328 0.07490655
v -0.00996045 -0.01224445 0.05934171
v -0.01016162 -0.00988473 0.05368510
v -0.01159698 -0.01545508 0.06534378
v -0.01203194 -0.01255733 0.05851797
v -0.01255661 -0.01228831 0.05644864
v -0.01352984 -0.01439949 0.06057402
v -0.01277681 -0.01192281 0.05368510
v -0.01364945 -0.01398135 0.05436270
v -0.01553337 -0.01862477 0.06519763
v -0.01454384 -0.01708671 0.05746836
v -0.01412791 -0.01708671 0.05436270
v -0.01483744 -0.02019500 0.06057402
v -0.01433180 -0.02019500 0.05746836
v -0.01413063 -0.02330036 0.06057402
v -0.01322537 -0.02353429 0.05727571
v -0.01281759 -0.02259566 0.05436270
v -0.01271429 -0.02237343 0.05368510
v -0.01223039 -0.02337346 0.05368510
v -0.01206456 -0.02415126 0.05436270
v -0.01195311 -0.02392026 0.05368510
v 0.00971606 -0.02256642 0.05368510
v 0.00929198 -0.02181786 0.05368510
v 0.00590744 -0.01897274 0.05549535
v 0.00860420 -0.02086753 0.05368510
v 0.00798710 -0.02003710 0.05368510
v 0.00697853 -0.01878852 0.05368510
v 0.00654901 -0.01825926 0.05368510
v 0.00305030 -0.01870080 0.05894977
v 0.00031005 -0.02141141 0.06564604
v -0.00057890 -0.02233542 0.06771537
v -0.00264768 -0.02137632 0.06879820
v -0.00287875 -0.01846103 0.06545671
v -0.00321856 -0.01559251 0.06205211
v -0.00776390 -0.01837623 0.06872513
v -0.00776390 -0.01707794 0.06679198
v -0.00529278 -0.01513928 0.06270646
v -0.00776390 -0.01578842 0.06486879
v -0.00952549 -0.01555450 0.06520095
v -0.00776390 -0.01129413 0.05746836
v -0.00776390 -0.00988765 0.05477457
v -0.00776390 -0.00934962 0.05368510
v -0.01083308 -0.01037305 0.05368510
v -0.00776390 -0.01227954 0.05928193
v -0.01249137 -0.01158654 0.05368510
v -0.01274963 -0.01199883 0.05436270
v -0.01363314 -0.01398135 0.05368510
v -0.01484831 -0.01708671 0.06057402
v -0.01401101 -0.01708671 0.05368510
v -0.01362498 -0.02019500 0.05436270
v -0.01345372 -0.02018915 0.05368510
v 0.00286272 -0.01577673 0.05560496
v 0.00383595 -0.01784697 0.05688044
v 0.00508918 -0.01666565 0.05368510
v 0.00476839 -0.01696683 0.05451549
v 0.00017141 -0.01847272 0.06233776
v -0.00172882 -0.01784697 0.06350031
v -0.00007869 -0.01559544 0.05894645
v 0.00026656 -0.01220936 0.05368510
v -0.00060337 -0.01279710 0.05538242
v -0.00159018 -0.01110991 0.05368510
v -0.00266943 -0.01218597 0.05629584
v -0.00409936 -0.01284974 0.05836850
v -0.00469471 -0.01399597 0.06054744
v -0.00548851 -0.01313922 0.05974030
v -0.00616814 -0.01240820 0.05904942
v -0.00776390 -0.01477377 0.06331430
v -0.00760894 -0.01313922 0.06066370
v -0.00776390 -0.01313922 0.06070688
v -0.00636659 -0.00941103 0.05368510
v 0.00357497 -0.01504863 0.05368510
v 0.00195203 -0.01356613 0.05368510
v 0.00085375 -0.01267721 0.05368510
v -0.00427062 -0.00990812 0.05368510
v -0.00494209 -0.01189649 0.05738532
v -0.00511336 -0.00965373 0.05368510
f 1 2 3
f 1 3 4
f 1 4 5
f 1 5 6
f 1 6 7
f 1 7 8
f 1 8 2
f 2 8 9
f 2 9 10
f 2 10 11
f 2 11 12
f 2 12 13
f 2 13 3
f 3 13 14
f 3 14 4
f 4 15 5
f 4 14 16
f 4 16 15
f 5 15 17
f 5 17 18
f 5 18 19
f 5 19 20
f 5 20 21
f 5 21 6
f 6 21 22
f 6 22 23
f 6 23 7
f 7 23 24
f 7 24 8
f 8 24 25
f 8 25 26
f 8 26 27
f 8 27 28
f 8 28 9
f 9 29 10
f 9 28 29
f 10 29 11
f 11 29 30
f 11 30 31
f 11 31 32
f 11 32 33
f 11 33 12
f 12 33 13
f 13 33 34
f 13 34 35
f 13 35 36
f 13 36 37
f 13 37 14
f 14 38 16
f 14 37 39
f 14 39 38
f 15 16 38
f 15 38 40
f 15 40 17
f 17 40 41
f 17 41 18
f 18 20 19
f 18 41 42
f 18 42 43
f 18 43 44
f 18 44 45
f 18 45 46
f 18 46 47
f 18 47 48
f 18 48 49
f 18 49 20
f 20 49 22
f 20 22 21
f 22 49 48
f 22 48 50
f 22 50 51
f 22 51 52
f 22 52 24
f 22 24 23
f 24 52 53
f 24 53 51
f 24 51 54
f 24 54 55
f 24 55 56
f 24 56 25
f 25 56 26
f 26 56 55
f 26 55 54
f 26 54 57
f 26 57 27
f 27 57 28
f 28 57 58
f 28 58 59
f 28 59 60
f 28 60 29
f 29 61 30
f 29 60 62
f 29 62 63
f 29 63 61
f 30 64 65
f 30 65 66
f 30 66 67
f 30 67 32
f 30 32 31
f 30 61 68
f 30 68 64
f 32 67 66
f 32 66 69
f 32 69 70
f 32 70 71
f 32 71 35
f 32 35 34
f 32 34 33
f 35 71 72
f 35 72 36
f 36 72 37
f 37 72 73
f 37 73 74
f 37 74 75
f 37 75 39
f 38 39 76
f 38 76 77
f 38 77 78
f 38 78 40
f 39 75 76
f 40 78 41
f 41 78 79
f 41 79 80
f 41 80 81
f 41 81 42
f 42 81 43
f 43 81 82
f 43 82 44
f 44 82 45
f 45 82 83
f 45 83 84
f 45 84 85
f 45 85 86
f 45 86 46
f 46 86 47
f 47 86 85
f 47 85 84
f 47 84 112
f 47 112 139
f 47 139 166
f 47 166 198
f 47 198 197
f 47 197 238
f 47 238 236
f 47 236 235
f 47 235 268
f 47 268 266
f 47 266 264
f 47 264 225
f 47 225 262
f 47 262 260
f 47 260 220
f 47 220 259
f 47 259 287
f 47 287 293
f 47 293 291
f 47 291 278
f 47 278 276
f 47 276 290
f 47 290 289
f 47 289 288
f 47 288 271
f 47 271 245
f 47 245 244
f 47 244 243
f 47 243 242
f 47 242 240
f 47 240 239
f 47 239 199
f 47 199 167
f 47 167 140
f 47 140 113
f 47 113 91
f 47 91 90
f 47 90 88
f 47 88 87
f 47 87 58
f 47 58 57
f 47 57 54
f 47 54 51
f 47 51 50
f 47 50 48
f 51 53 52
f 58 87 59
f 59 87 60
f 60 63 62
f 60 87 88
f 60 88 63
f 61 63 68
f 63 88 89
f 63 89 90
f 63 90 91
f 63 91 92
f 63 92 68
f 64 93 65
f 64 68 94
f 64 94 95
f 64 95 93
f 65 93 96
f 65 96 66
f 66 96 69
f 68 92 94
f 69 97 98
f 69 98 70
f 69 96 97
f 70 98 71
f 71 98 72
f 72 99 100
f 72 100 73
f 72 98 99
f 73 100 101
f 73 101 102
f 73 102 74
f 74 102 103
f 74 103 75
f 75 103 76
f 76 103 77
f 77 103 104
f 77 104 78
f 78 104 105
f 78 105 106
f 78 106 80
f 78 80 79
f 80 106 81
f 81 106 107
f 81 107 82
f 82 107 108
f 82 108 109
f 82 109 110
f 82 110 111
f 82 111 112
f 82 112 83
f 83 112 84
f 88 90 89
f 91 113 114
f 91 114 92
f 92 115 94
f 92 114 115
f 93 116 117
f 93 117 96
f 93 95 118
f 93 118 116
f 94 115 95
f 95 115 118
f 96 119 97
f 96 117 120
f 96 120 121
f 96 121 122
f 96 122 119
f 97 119 122
f 97 122 123
f 97 123 124
f 97 124 98
f 98 125 99
f 98 124 126
f 98 126 125
f 99 125 100
f 100 125 127
f 100 127 128
f 100 128 101
f 101 128 102
f 102 128 129
f 102 129 130
f 102 130 131
f 102 131 132
f 102 132 133
f 102 133 103
f 103 133 104
f 104 133 134
f 104 134 105
f 105 134 135
f 105 135 106
f 106 135 136
f 106 136 107
f 107 136 137
f 107 137 108
f 108 137 109
f 109 137 110
f 110 138 111
f 110 137 138
f 111 138 139
f 111 139 112
f 113 140 115
f 113 115 114
f 115 141 142
f 115 142 143
f 115 143 118
f 115 140 141
f 116 118 144
f 116 144 145
f 116 145 121
f 116 121 120
f 116 120 117
f 118 143 144
f 121 145 146
f 121 146 147
f 121 147 148
f 121 148 122
f 122 149 123
f 122 148 149
f 123 150 126
f 123 126 124
f 123 149 150
f 125 151 127
f 125 126 151
f 126 150 152
f 126 152 153
f 126 153 151
f 127 151 153
f 127 153 154
f 127 154 128
f 128 155 156
f 128 156 157
f 128 157 129
f 128 154 155
f 129 157 158
f 129 158 130
f 130 158 159
f 130 159 131
f 131 160 132
f 131 159 160
f 132 160 161
f 132 161 133
f 133 161 134
f 134 161 162
f 134 162 136
f 134 136 135
f 136 162 163
f 136 163 137
f 137 163 164
f 137 164 165
f 137 165 166
f 137 166 138
f 138 166 139
f 140 167 168
f 140 168 169
f 140 169 141
f 141 169 170
f 141 170 171
f 141 171 144
f 141 144 142
f 142 144 143
f 144 171 147
f 144 147 145
f 145 147 146
f 147 171 172
f 147 172 173
f 147 173 174
f 147 174 175
f 147 175 148
f 148 175 149
f 149 176 150
f 149 175 177
f 149 177 176
f 150 176 178
f 150 178 179
f 150 179 152
f 152 179 180
f 152 180 153
f 153 180 181
f 153 181 154
f 154 181 182
f 154 182 183
f 154 183 155
f 155 183 182
f 155 182 156
f 156 182 184
f 156 184 185
f 156 185 186
f 156 186 157
f 157 186 187
f 157 187 159
f 157 159 158
f 159 187 188
f 159 188 189
f 159 189 160
f 160 189 190
f 160 190 161
f 161 190 191
f 161 191 192
f 161 192 162
f 162 192 193
f 162 193 164
f 162 164 163
f 164 193 194
f 164 194 195
f 164 195 196
f 164 196 165
f 165 196 197
f 165 197 198
f 165 198 166
f 167 199 168
f 168 170 169
f 168 199 200
f 168 200 201
f 168 201 172
f 168 172 171
f 168 171 170
f 172 201 202
f 172 202 173
f 173 203 204
f 173 204 205
f 173 205 174
f 173 202 201
f 173 201 203
f 174 206 175
f 174 205 206
f 175 206 207
f 175 207 177
f 176 177 208
f 176 208 178
f 177 207 209
f 177 209 208
f 178 208 210
f 178 210 211
f 178 211 179
f 179 211 180
f 180 212 213
f 180 213 214
f 180 214 215
f 180 215 181
f 180 211 216
f 180 216 217
f 180 217 212
f 181 215 218
f 181 218 182
f 182 218 221
f 182 221 184
f 184 219 220
f 184 220 185
f 184 221 219
f 185 220 222
f 185 222 223
f 185 223 224
f 185 224 186
f 186 224 225
f 186 225 226
f 186 226 227
f 186 227 187
f 187 227 188
f 188 227 228
f 188 228 229
f 188 229 230
f 188 230 189
f 189 191 190
f 189 230 231
f 189 231 191
f 191 231 232
f 191 232 192
f 192 232 233
f 192 233 193
f 193 233 234
f 193 234 195
f 193 195 194
f 195 234 196
f 196 234 235
f 196 235 236
f 196 236 237
f 196 237 197
f 197 237 238
f 199 239 200
f 200 239 201
f 201 239 240
f 201 240 203
f 203 241 204
f 203 240 242
f 203 242 243
f 203 243 244
f 203 244 245
f 203 245 241
f 204 246 205
f 204 241 246
f 205 246 247
f 205 247 206
f 206 247 248
f 206 248 207
f 207 248 209
f 208 209 210
f 209 248 249
f 209 249 210
f 210 249 211
f 211 249 250
f 211 250 251
f 211 251 216
f 212 218 213
f 212 217 216
f 212 216 252
f 212 252 253
f 212 253 218
f 213 218 214
f 214 218 215
f 216 251 254
f 216 254 252
f 218 253 255
f 218 255 256
f 218 256 221
f 219 257 258
f 219 258 259
f 219 259 220
f 219 221 257
f 220 260 223
f 220 223 222
f 221 256 261
f 221 261 257
f 223 260 262
f 223 262 263
f 223 263 224
f 224 263 225
f 225 263 262
f 225 264 226
f 226 264 227
f 227 264 265
f 227 265 228
f 228 265 264
f 228 264 229
f 229 264 266
f 229 266 231
f 229 231 230
f 231 266 267
f 231 267 232
f 232 267 234
f 232 234 233
f 234 267 268
f 234 268 235
f 236 238 237
f 241 269 270
f 241 270 246
f 241 245 271
f 241 271 272
f 241 272 269
f 246 270 269
f 246 269 273
f 246 273 247
f 247 273 248
f 248 273 249
f 249 273 250
f 250 273 274
f 250 274 275
f 250 275 251
f 251 275 276
f 251 276 277
f 251 277 278
f 251 278 279
f 251 279 280
f 251 280 281
f 251 281 254
f 252 254 253
f 253 254 255
f 254 281 282
f 254 282 283
f 254 283 255
f 255 284 256
f 255 283 284
f 256 284 283
f 256 283 285
f 256 285 286
f 256 286 261
f 257 261 287
f 257 287 258
f 258 287 259
f 261 286 285
f 261 285 283
f 261 283 287
f 266 268 267
f 269 275 273
f 269 272 288
f 269 288 289
f 269 289 275
f 271 288 272
f 273 275 274
f 275 289 290
f 275 290 276
f 276 278 277
f 278 291 279
f 279 291 280
f 280 291 292
f 280 292 283
f 280 283 282
f 280 282 281
f 283 292 291
f 283 291 293
f 283 293 287

