# https://github.com/mikedh/trimesh
v 0.01305072 0.00952097 0.05368510
v -0.01048209 0.00967905 0.05368510
v 0.01305072 0.04807229 0.05368510
v 0.01305072 0.00986462 0.05435576
v -0.01397683 0.01820172 0.07231637
v -0.01397683 0.01705390 0.06990018
v -0.01087407 0.01294378 0.06101634
v -0.01087407 0.01222898 0.05946373
v -0.01087407 0.01132860 0.05747015
v -0.01342900 0.01226334 0.05939943
v -0.01082684 0.00986462 0.05408015
v -0.01111492 0.00971341 0.05368510
v 0.01163393 0.04809979 0.05368510
v 0.01086887 0.05014798 0.05805812
v 0.01086887 0.05128891 0.06057536
v 0.01305072 0.04867026 0.05500804
v 0.01305072 0.01020140 0.05493454
v -0.01468522 0.02468994 0.08415842
v -0.01397683 0.02141834 0.07825118
v -0.01397683 0.02022929 0.07611060
v -0.01397683 0.01900587 0.07386898
v -0.01708431 0.02022241 0.07611060
v -0.01708431 0.01903336 0.07375873
v -0.01708431 0.01827045 0.07220612
v -0.01397683 0.01521878 0.06591302
v -0.01397683 0.01420156 0.06368057
v -0.01549751 0.01243517 0.05901357
v -0.01426963 0.01174098 0.05777333
v -0.01708431 0.01721886 0.06990018
v -0.01708431 0.01603668 0.06710733
v -0.01397683 0.01038698 0.05436494
v -0.01397683 0.01014642 0.05368510
v 0.01086887 0.04809291 0.05368510
v 0.01086887 0.04841595 0.05436494
v 0.00534813 0.05603824 0.07117717
v 0.00776139 0.05409315 0.06679497
v 0.00776139 0.05537155 0.06955108
v 0.01086887 0.05239549 0.06304667
v 0.01305072 0.04960500 0.05709348
v 0.01305072 0.01145919 0.05701999
v -0.01708431 0.02710241 0.08834771
v -0.01708431 0.02554908 0.08583046
v -0.01708431 0.02462121 0.08427786
v 0.01305072 0.01206402 0.05800300
v -0.01397683 0.02725361 0.08805372
v -0.01809495 0.03405800 0.09957423
v -0.01708431 0.02353526 0.08232102
v -0.01708431 0.02220874 0.07989565
v -0.01708431 0.02139084 0.07834305
v -0.01962980 0.02471056 0.08412168
v -0.01940312 0.02154205 0.07806743
v -0.01910559 0.01847664 0.07179271
v -0.01863805 0.01553495 0.06524237
v -0.01720238 0.01133547 0.05368510
v -0.01645620 0.01204340 0.05693731
v -0.01732516 0.01163101 0.05454868
v 0.00854534 0.04786610 0.05368510
v 0.00776139 0.05006550 0.05827861
v 0.00776139 0.05116520 0.06057536
v 0.00776139 0.05235425 0.06308342
v 0.00155114 0.06304882 0.08853144
v 0.00465863 0.05948167 0.07962923
v 0.00776139 0.05606573 0.07110368
v 0.00445083 0.05535093 0.07003799
v 0.00327962 0.05588016 0.07150791
v 0.00155114 0.05770841 0.07611060
v -0.00057876 0.06221718 0.08677673
v -0.00155634 0.06503516 0.09364861
v -0.00155634 0.06568123 0.09520121
v 0.01086887 0.05308967 0.06459927
v 0.01305072 0.05041603 0.05893089
v 0.01086887 0.05406566 0.06679497
v -0.02018707 0.03400989 0.09963855
v -0.02018707 0.03290332 0.09785626
v -0.02018707 0.03150808 0.09556869
v -0.02018707 0.02912310 0.09163666
v -0.02018707 0.02807152 0.08989112
v -0.02018707 0.02717114 0.08833852
v 0.01305072 0.01391289 0.06087853
v -0.01602172 0.03428482 0.09924350
v -0.01470411 0.03708905 0.10276213
v -0.01708431 0.03682787 0.10312042
v -0.01788243 0.04328860 0.11210533
v -0.02018707 0.04312365 0.11232581
v -0.02018707 0.04162531 0.11026791
v -0.02018707 0.04044313 0.10864181
v -0.02018707 0.03932969 0.10708921
v -0.02018707 0.03666292 0.10336847
v 0.01305072 0.01579612 0.06370813
v 0.01305072 0.01666901 0.06498513
v -0.02047515 0.02547348 0.08527005
v -0.02169831 0.02486177 0.08386444
v -0.02047515 0.02405074 0.08262420
v -0.02147635 0.02182385 0.07749784
v -0.02117410 0.01886154 0.07086482
v -0.02199583 0.01847664 0.06878855
v -0.02068767 0.01608480 0.06368057
v -0.01913393 0.01528064 0.06368057
v -0.01852471 0.01247641 0.05570624
v -0.01885529 0.01222898 0.05368510
v 0.00776139 0.04776300 0.05368510
v 0.00776139 0.04810666 0.05436494
v 0.00776139 0.04928884 0.05672601
v 0.00324656 0.05278038 0.06528830
v 0.00443194 0.05359828 0.06651017
v 0.00155114 0.06428598 0.09163666
v -0.00155634 0.06673969 0.09785626
v 0.00465863 0.06055388 0.08232102
v 0.00776139 0.05681490 0.07300539
v 0.01020298 0.05599013 0.07125986
v 0.00155114 0.05572895 0.07181108
v 0.00155114 0.05645750 0.07337287
v -0.00264727 0.06205222 0.08714421
v -0.00158940 0.06152986 0.08561916
v -0.00155634 0.06418976 0.09163666
v -0.00466382 0.06484958 0.09403447
v -0.00466382 0.06555064 0.09558707
v -0.00466382 0.06651975 0.09785626
v -0.00476300 0.06785313 0.10119115
v 0.01305072 0.05304156 0.06500351
v 0.01109083 0.05544028 0.07009311
v -0.02243504 0.03407862 0.09954667
v -0.02329455 0.04307554 0.11240849
v -0.02329455 0.04155658 0.11026791
v -0.02329455 0.04042251 0.10866937
v -0.02329455 0.03932969 0.10711677
v -0.02329455 0.03669041 0.10334091
v -0.02450354 0.03422296 0.09931699
v -0.01263088 0.03732961 0.10244059
v -0.01708431 0.04066307 0.10833865
v -0.01708431 0.03796881 0.10467303
v -0.01580920 0.04357727 0.11171947
v -0.01693791 0.04444329 0.11323532
v -0.01708431 0.04616157 0.11546777
v -0.01860500 0.05279413 0.12425974
v -0.02018707 0.04704820 0.11747053
v -0.02018707 0.04581791 0.11591793
v -0.02018707 0.04427146 0.11387842
v -0.02329455 0.04573543 0.11605574
v -0.02329455 0.04418898 0.11396109
v 0.01305072 0.01763125 0.06629887
v -0.02329455 0.02752854 0.08776893
v -0.02329455 0.02629138 0.08542624
v -0.02329455 0.02517106 0.08311111
v -0.02490024 0.03104070 0.09323520
v -0.02486719 0.02484115 0.08080516
v -0.02239254 0.02134960 0.07543076
v -0.02241615 0.01812611 0.06679497
v -0.02446576 0.02200943 0.07384141
v -0.02495692 0.02163140 0.07176515
v -0.02144801 0.01571365 0.06057536
v -0.01893086 0.01229771 0.05368510
v -0.02172192 0.01555556 0.05886658
v 0.00470585 0.04721316 0.05368510
v 0.00446972 0.04737811 0.05409852
v 0.00327490 0.04966686 0.05908707
v 0.00465863 0.06163983 0.08515062
v 0.00155114 0.06505577 0.09365780
v -0.00379486 0.06838236 0.10238546
v -0.00155634 0.06783939 0.10076854
v 0.00776139 0.05801083 0.07611060
v 0.00776139 0.05881498 0.07823280
v 0.01227149 0.05589390 0.07149872
v -0.00095185 0.05619632 0.07395165
v -0.00313370 0.05902118 0.08075004
v 0.00155114 0.05338522 0.06720839
v -0.00155634 0.05916551 0.08044688
v -0.00466382 0.06374988 0.09163666
v -0.00679845 0.06535819 0.09600968
v -0.00776658 0.06737889 0.10095229
v -0.00776658 0.06818992 0.10284481
v -0.00776658 0.06883599 0.10439742
v -0.00586809 0.06831363 0.10256002
v 0.01305072 0.05535780 0.07076376
v -0.02339845 0.03497900 0.10072262
v -0.02640204 0.04314427 0.11229825
v -0.02640204 0.04173528 0.11026791
v -0.02640204 0.04053248 0.10849482
v -0.02640204 0.03950152 0.10694222
v -0.03090270 0.04352916 0.11176540
v -0.02640204 0.03458036 0.09864635
v -0.01197444 0.04018883 0.10584897
v 0.01305072 0.01824295 0.06712571
v 0.01305072 0.02022929 0.06975319
v -0.01397683 0.04390031 0.11132442
v -0.01524249 0.04648460 0.11506354
v -0.01708431 0.04742622 0.11702037
v -0.02018707 0.05268416 0.12439754
v -0.02018707 0.05128204 0.12269795
v -0.02018707 0.04985243 0.12095242
v -0.02018707 0.04860153 0.11939981
v -0.01475134 0.04940568 0.11838923
v -0.01268283 0.04979745 0.11792070
v -0.01653649 0.05324088 0.12375446
v -0.01832164 0.05577019 0.12751194
v -0.02018707 0.05849195 0.13103976
v -0.02018707 0.05693862 0.12928503
v -0.02018707 0.05557774 0.12773243
v -0.02018707 0.05402442 0.12595015
v -0.02233586 0.04972872 0.12110859
v -0.02329455 0.04693136 0.11760834
v -0.02495692 0.04967373 0.12116371
v -0.02499470 0.02786532 0.08716258
v -0.02640204 0.03374871 0.09709374
v -0.02768187 0.02826396 0.08307435
v -0.02522138 0.02455248 0.07921582
v -0.03108688 0.04036753 0.10565604
v -0.03455800 0.04607222 0.11272085
v -0.02279868 0.01763812 0.06368057
v -0.02801718 0.02787220 0.08100728
v -0.02818247 0.02760415 0.07921582
v -0.02512693 0.02140459 0.06990018
v -0.02396989 0.01950761 0.06679497
v -0.01977148 0.01311561 0.05368510
v -0.02183054 0.01543872 0.05679950
v -0.02435242 0.01931516 0.06368057
v 0.00407774 0.04709631 0.05368510
v 0.00265151 0.04673891 0.05368510
v 0.00465863 0.06223092 0.08670323
v 0.00024770 0.06837549 0.10238546
v 0.00155114 0.06563312 0.09521040
v 0.00638238 0.06216219 0.08686859
v -0.00776658 0.07100102 0.10985450
v -0.00776658 0.07159899 0.11140711
v -0.00466382 0.07012127 0.10716271
v -0.00155634 0.06840298 0.10232115
v 0.01202119 0.05889746 0.08123695
v 0.01305072 0.05631317 0.07376792
v 0.01305072 0.05577019 0.07200401
v 0.00623126 0.06524135 0.09626691
v -0.00077239 0.05308280 0.06781473
v -0.00181608 0.05541966 0.07295027
v -0.00302508 0.05588016 0.07460393
v -0.00679845 0.05922737 0.08346940
v -0.00896613 0.06201098 0.09030454
v -0.00689762 0.06232715 0.08967063
v -0.00887168 0.06512451 0.09651495
v -0.00780909 0.06590117 0.09767252
v -0.01032152 0.06859543 0.10497620
v -0.01193193 0.07136530 0.11200426
v -0.00986815 0.07153025 0.11161841
v -0.02883419 0.04330235 0.11206857
v -0.02640204 0.04430583 0.11385086
v -0.03195584 0.04291746 0.10969832
v -0.02972204 0.04439517 0.11321695
v -0.02950952 0.05569458 0.12760381
v -0.03110577 0.05589390 0.12737413
v -0.03180944 0.04640900 0.11512784
v -0.03387794 0.04675953 0.11479712
v -0.01317398 0.04686950 0.11458581
v -0.01411378 0.04561172 0.11348337
v 0.01305072 0.02050421 0.07008392
v -0.02329455 0.05253982 0.12456291
v -0.02329455 0.05540591 0.12794373
v -0.02329455 0.05385259 0.12611551
v -0.01087407 0.05023046 0.11743379
v -0.01240892 0.05279413 0.12115453
v -0.01625313 0.05624443 0.12698828
v -0.01813273 0.05876000 0.13072740
v -0.02018707 0.05996966 0.13259236
v -0.02329455 0.06263644 0.13612936
v -0.02329455 0.06122057 0.13457675
v -0.02329455 0.05966725 0.13283122
v -0.02329455 0.05829950 0.13127862
v -0.02329455 0.05674617 0.12949634
v -0.02333706 0.04871150 0.11987753
v -0.02333706 0.05074594 0.12240397
v -0.02440437 0.04967373 0.12116371
v -0.02640204 0.05543341 0.12790698
v -0.02640204 0.05388008 0.12603284
v -0.02640204 0.05261542 0.12448023
v -0.02809274 0.05275976 0.12430567
v -0.02703015 0.04987992 0.12091567
v -0.02640204 0.04585228 0.11589037
v -0.03418019 0.05588703 0.12428730
v -0.03483664 0.04793483 0.11360280
v -0.03474219 0.04555673 0.11026791
v -0.02830053 0.02732235 0.07611060
v -0.02533000 0.02106094 0.06679497
v -0.02195805 0.01527377 0.05368510
v -0.02194389 0.01530126 0.05436494
v -0.02536779 0.02086849 0.06368057
v -0.02449410 0.01937702 0.06057536
v 0.00155114 0.04634714 0.05368510
v -0.00055042 0.04990742 0.06173293
v -0.00466382 0.07106288 0.10982694
v -0.00466382 0.07159211 0.11137954
v -0.00776658 0.07424514 0.11896802
v -0.00776658 0.07474687 0.12052063
v -0.00278422 0.07152338 0.11158166
v 0.00232093 0.06820367 0.10304693
v 0.00139057 0.06778440 0.10119115
v 0.00465863 0.06541318 0.09578918
v -0.01087407 0.07331039 0.11647833
v -0.00776658 0.07232066 0.11337313
v -0.00776658 0.07342036 0.11647833
v 0.00948514 0.06221718 0.08976250
v 0.01264457 0.05916551 0.08331322
v 0.01305072 0.05809331 0.08018045
v 0.00344491 0.06845797 0.10511400
v 0.00619348 0.06832738 0.10875206
v -0.00284562 0.05270478 0.06852213
v -0.00466382 0.05640939 0.07671695
v -0.00887168 0.05884935 0.08418598
v -0.01258366 0.06219656 0.09305145
v -0.01087407 0.06248523 0.09247267
v -0.01087407 0.06362617 0.09475106
v -0.01087407 0.06481522 0.09716723
v -0.01087407 0.06556438 0.09871984
v -0.01087407 0.06661597 0.10095229
v -0.01115743 0.06792874 0.10398400
v -0.01397683 0.07105601 0.11264736
v -0.01532750 0.07452006 0.12122803
v -0.01089296 0.07200450 0.11318020
v -0.01239003 0.06832738 0.10562848
v -0.02640204 0.05679429 0.12945959
v -0.02640204 0.05834761 0.13122349
v -0.02640204 0.06126868 0.13454001
v -0.02640204 0.06270517 0.13609261
v -0.02640204 0.06425849 0.13768197
v -0.02640204 0.06578432 0.13923457
v -0.02832887 0.06784626 0.14022677
v -0.03183777 0.05746098 0.12804479
v 0.01305072 0.02315036 0.07307889
v -0.00879139 0.04938506 0.11528403
v -0.01034041 0.05331649 0.12057575
v -0.01117159 0.05198310 0.11955599
v -0.01128494 0.05456739 0.12246827
v -0.01222946 0.05581143 0.12435161
v -0.01605950 0.05930985 0.13016699
v -0.01608312 0.06241650 0.13327220
v -0.01612090 0.06553689 0.13637741
v -0.01815162 0.06187352 0.13381424
v -0.02018707 0.06306257 0.13575269
v -0.02018707 0.06152299 0.13419090
v -0.02329455 0.06418976 0.13775545
v -0.03418019 0.05746098 0.12434242
v -0.03519556 0.04814790 0.11026791
v -0.02802662 0.07131032 0.14297368
v -0.02860750 0.07012127 0.14129246
v -0.02991567 0.06988758 0.13822400
v -0.03457689 0.04535054 0.10716271
v -0.02903726 0.02951487 0.07611060
v -0.02820136 0.02729485 0.07300539
v -0.02644927 0.02330157 0.06679497
v -0.02275146 0.01667588 0.05368510
v -0.02631703 0.02330157 0.06368057
v -0.02519777 0.02093035 0.06057536
v 0.00136696 0.04627841 0.05368510
v -0.00031901 0.04671829 0.05568787
v -0.01087407 0.07475375 0.12052981
v -0.01087407 0.07545480 0.12269795
v -0.01087407 0.07640330 0.12580316
v -0.00776658 0.07537920 0.12269795
v -0.00578781 0.07466439 0.12078704
v -0.01325899 0.07467127 0.12079623
v -0.01087407 0.07422452 0.11897721
v 0.01288543 0.05936483 0.08542624
v 0.01305072 0.05879436 0.08295493
v 0.00412497 0.06869853 0.10716271
v -0.00471577 0.07488433 0.12284494
v 0.00496087 0.06902844 0.10998312
v -0.00302508 0.07460941 0.12397494
v 0.00636349 0.06851295 0.11081914
v -0.00157523 0.04892456 0.06064886
v -0.00659065 0.05605886 0.07738760
v -0.01465689 0.06169482 0.09401609
v -0.01575253 0.06223092 0.09608317
v -0.01376431 0.06258833 0.09492561
v -0.01578559 0.06535132 0.10225684
v -0.01899697 0.07161273 0.11769102
v -0.01578087 0.06844422 0.10848564
v -0.01252698 0.06526884 0.09931699
v -0.00865916 0.05563960 0.07814093
v -0.00587281 0.04645024 0.05927081
v -0.00972647 0.05300032 0.07420889
v -0.01376431 0.06095939 0.09186633
v -0.01568642 0.07150276 0.11480630
v -0.01708431 0.07322104 0.11959273
v -0.01708431 0.07423826 0.12193542
v -0.01911504 0.07781916 0.13309765
v -0.01771714 0.07744801 0.13103056
v -0.01564391 0.07768170 0.13038748
v -0.01397683 0.06878100 0.10777823
v -0.02329455 0.06571560 0.13930807
v -0.02640204 0.06733765 0.14068612
v -0.02640204 0.06924838 0.14223872
v -0.02536779 0.07401145 0.14641881
v 0.01305072 0.02319160 0.07312483
v -0.00861666 0.05237487 0.11849948
v -0.01016095 0.05636128 0.12379120
v -0.01216334 0.05886997 0.12750275
v -0.01397683 0.05990094 0.12957902
v -0.01397683 0.06301446 0.13269341
v -0.01397683 0.06456778 0.13421846
v -0.01223418 0.06509014 0.13370399
v -0.01450576 0.06760570 0.13735123
v -0.01622952 0.06879475 0.13941832
v -0.01829802 0.06814868 0.13995116
v -0.01819413 0.06500079 0.13689188
v -0.02018707 0.06461589 0.13727774
v -0.03417075 0.05902118 0.12433323
v -0.03461940 0.05073219 0.11026791
v -0.03460523 0.04825100 0.10706165
v -0.03433604 0.04728876 0.10489351
v -0.03433604 0.04579729 0.10489351
v -0.03417075 0.05902118 0.12423218
v -0.02558030 0.07610088 0.14672199
v -0.02806912 0.07299423 0.14309312
v -0.02803607 0.07469876 0.14307474
v -0.03107743 0.06838236 0.13367643
v -0.02986844 0.03262152 0.07921582
v -0.02869723 0.02951487 0.07300539
v -0.02805968 0.02754229 0.07047897
v -0.02770076 0.02646321 0.06962457
v -0.02454605 0.02021554 0.05723129
v -0.02291202 0.01708827 0.05368510
v -0.02587783 0.02330157 0.06057536
v -0.02500414 0.02126026 0.05811325
v -0.02735128 0.02640822 0.06679497
v 0.00093720 0.04611346 0.05368510
v -0.00143355 0.04564608 0.05453950
v -0.00238752 0.04630590 0.05644121
v -0.01397683 0.07722120 0.12867869
v -0.01397683 0.07772293 0.13023129
v -0.01211139 0.07772293 0.13023129
v -0.00776658 0.07619023 0.12580316
v 0.01305072 0.05922050 0.08542624
v -0.00466382 0.07550979 0.12580316
v -0.00288340 0.07477436 0.12580316
v -0.00289284 0.07478811 0.12804479
v 0.00636349 0.06851295 0.11224312
v 0.01299405 0.05968787 0.09163666
v 0.01305072 0.05957790 0.08853144
v -0.00611367 0.04965999 0.06531586
v -0.01690485 0.06103500 0.09492561
v -0.01558252 0.05904179 0.09003811
v -0.01680568 0.05944044 0.09188471
v -0.01782104 0.06170857 0.09708455
v -0.01690485 0.06264331 0.09801244
v -0.01785882 0.06484958 0.10324904
v -0.01692846 0.06421725 0.10110847
v -0.01896391 0.06849920 0.11150817
v -0.02007845 0.06895283 0.11347418
v -0.02009262 0.07051991 0.11658858
v -0.02106548 0.07111099 0.11874753
v -0.02009262 0.07202512 0.11970298
v -0.01991316 0.07353033 0.12297356
v -0.01869000 0.07456817 0.12419543
v -0.01686707 0.07190827 0.11658858
v -0.00138633 0.04519246 0.05368510
v -0.00421517 0.04403090 0.05368510
v -0.00523054 0.04357727 0.05368510
v -0.00581142 0.04330922 0.05368510
v -0.00677483 0.04379722 0.05537551
v -0.00945256 0.04976308 0.06821896
v -0.02016346 0.07703562 0.13204114
v -0.02118354 0.07744801 0.13412659
v -0.02016346 0.07816281 0.13514635
v -0.02018707 0.07911131 0.13822400
v -0.01684346 0.07799786 0.13204114
v -0.01708431 0.07885012 0.13511879
v -0.02018707 0.06620359 0.13883034
v -0.02018707 0.06775691 0.14032782
v -0.02329455 0.06726892 0.14075961
v -0.02329455 0.06895283 0.14231222
v -0.02329455 0.07050616 0.14371784
v -0.02329455 0.07227255 0.14527963
v -0.02329455 0.07382587 0.14657500
v -0.02329455 0.07610088 0.14753044
v 0.01305072 0.02636011 0.07591768
v 0.00027604 0.05254670 0.11209613
v -0.00306286 0.05587329 0.11807687
v -0.00645370 0.05609322 0.12097079
v -0.00852220 0.05538529 0.12171494
v -0.00855998 0.05843696 0.12482015
v -0.01009956 0.05950230 0.12689641
v -0.01218223 0.06196974 0.13061715
v -0.01011373 0.06267080 0.12994650
v -0.00861666 0.06157797 0.12787024
v -0.00882445 0.06473961 0.13091114
v -0.01243725 0.06834800 0.13666221
v -0.01483162 0.07086356 0.14023595
v -0.01860500 0.07142028 0.14290019
v -0.02109382 0.07412829 0.14633613
v -0.02018707 0.07103539 0.14326766
v -0.02018707 0.06948206 0.14188044
v -0.03108216 0.06838236 0.13201358
v -0.03395351 0.05228552 0.11026791
v -0.03434549 0.05014110 0.10802629
v -0.03248950 0.06056763 0.11959273
v -0.03407629 0.04935757 0.10595002
v -0.03384489 0.04825100 0.10393807
v -0.03115299 0.04370099 0.08983600
v -0.03128995 0.04166655 0.08868763
v -0.03107743 0.04045001 0.08691453
v -0.03080824 0.03883482 0.08493013
v -0.02986844 0.03572817 0.07921582
v -0.02941979 0.03262152 0.07611060
v -0.03107271 0.06835487 0.13042422
v -0.03336790 0.06026521 0.12300112
v -0.02530639 0.07810096 0.14653825
v -0.02549530 0.07823154 0.14444361
v -0.02815413 0.07484310 0.14132920
v -0.02889086 0.07326915 0.13804025
v -0.02819663 0.02951487 0.07015742
v -0.02380932 0.01952136 0.05368510
v -0.02677513 0.02640822 0.06368057
v -0.02521194 0.02330157 0.05759877
v -0.02395100 0.02019492 0.05368510
v -0.02410212 0.02019492 0.05436494
v -0.01397683 0.07813532 0.13201358
v -0.00776658 0.07666447 0.12890836
v -0.01708431 0.07944121 0.13822400
v -0.01397683 0.07858895 0.13511879
v -0.00444658 0.07542044 0.12900943
v -0.01224835 0.07779854 0.13702050
v -0.01492135 0.07817656 0.14132920
v -0.01541723 0.07777104 0.14299206
v -0.00533916 0.07515239 0.13113162
v -0.00353040 0.07299423 0.12984544
v -0.00264254 0.07299423 0.12829284
v 0.00655240 0.06678093 0.11250036
v 0.01283820 0.05746098 0.09735098
v 0.01305072 0.05746098 0.09668032
v 0.01258790 0.05931672 0.09687325
v 0.01279570 0.05957790 0.09475106
v 0.01305072 0.05960539 0.09163666
v -0.01874195 0.05908303 0.09307901
v -0.01530388 0.05579081 0.08407574
v -0.01179026 0.05248484 0.07510003
v -0.01885057 0.06225154 0.09916082
v -0.02103714 0.06797685 0.11250036
v -0.02205251 0.06851983 0.11456744
v -0.02317177 0.06893221 0.11668046
v -0.02201000 0.07159211 0.12081461
v -0.02175026 0.07455442 0.12734657
v -0.02076323 0.07412142 0.12527031
v -0.00639702 0.04299306 0.05368510
v -0.00774297 0.04225764 0.05368510
v -0.00779492 0.04262878 0.05435576
v -0.01261199 0.04981120 0.07125986
v -0.02242559 0.07486372 0.12890836
v -0.02352597 0.07548230 0.13180227
v -0.02208084 0.07783290 0.13620285
v -0.02274673 0.07816281 0.13822400
v -0.02358736 0.07860270 0.14105360
v -0.02329455 0.07937936 0.14444361
v -0.02018707 0.07972989 0.14132920
v -0.02329455 0.07857520 0.14696085
v -0.02011151 0.07634144 0.14665768
v -0.02018707 0.07826591 0.14656581
v 0.01305072 0.04530930 0.09136104
v 0.01245567 0.04654646 0.09323520
v 0.00923957 0.05295221 0.10241302
v 0.00615097 0.05603137 0.10864181
v 0.00553703 0.05435433 0.10794360
v 0.00330796 0.05255357 0.10895417
v 0.00011547 0.05576332 0.11506354
v -0.00315731 0.05907616 0.12109941
v -0.00654815 0.06247148 0.12709853
v -0.00648675 0.05924111 0.12403925
v -0.00755407 0.06040955 0.12595933
v -0.00675122 0.06604550 0.12993731
v -0.00917392 0.06813493 0.13371318
v -0.01166275 0.07041681 0.13746147
v -0.01276312 0.07207323 0.13953774
v -0.01545029 0.07444445 0.14294613
v -0.01737711 0.07324166 0.14342385
v -0.01902059 0.07546855 0.14577572
v -0.03304204 0.05435433 0.11026791
v -0.03366070 0.05120644 0.10706165
v -0.03169137 0.06375675 0.12285412
v -0.03143635 0.06273953 0.11959273
v -0.03117661 0.06229965 0.11771859
v -0.03170554 0.06061574 0.11660696
v -0.03277285 0.05124768 0.10405750
v -0.03306093 0.04814790 0.10095229
v -0.02801245 0.03739834 0.07441101
v -0.02801245 0.03432606 0.07127823
v -0.03193223 0.04837471 0.09764496
v -0.03138440 0.04730250 0.09475106
v -0.03108216 0.04663581 0.09314333
v -0.02904671 0.03572817 0.07611060
v -0.02816357 0.03262152 0.07075458
v -0.02875390 0.03262152 0.07300539
v -0.02788966 0.02951487 0.06860481
v -0.02814468 0.07478811 0.13894977
v -0.02788966 0.07449257 0.13688269
v -0.02845166 0.07194951 0.13201358
v -0.02941035 0.06974324 0.12924829
v -0.02871612 0.06909717 0.12580316
v -0.03073268 0.06786688 0.12834796
v -0.03080352 0.06484271 0.12193542
v -0.03113410 0.06533757 0.12400251
v -0.02525444 0.07798412 0.14189880
v -0.02599589 0.02640822 0.06057536
v -0.02481996 0.02330157 0.05604617
v -0.02414935 0.02262801 0.05368510
v -0.01386821 0.07841712 0.13812294
v -0.01708431 0.07931062 0.14132920
v -0.01737711 0.07820405 0.14419556
v -0.01860500 0.07768857 0.14602377
v -0.01538889 0.07610088 0.14301043
v -0.01229558 0.07484997 0.13993278
v 0.00567871 0.06678093 0.11406215
v -0.01229558 0.07414204 0.13993278
v -0.00409239 0.06988758 0.12934935
v -0.00279367 0.06988758 0.12779673
v 0.00644378 0.06367428 0.11219719
v 0.00744025 0.06367428 0.11026791
v 0.01305072 0.05435433 0.09701106
v 0.01225260 0.05746098 0.09890358
v 0.01305072 0.05895932 0.09475106
v -0.02100409 0.05854693 0.09475106
v -0.02168886 0.05898681 0.09635878
v -0.02194389 0.06535819 0.10846726
v -0.01500164 0.05249859 0.07816850
v -0.01603117 0.05311717 0.08024476
v -0.01570531 0.04981120 0.07436507
v -0.01841609 0.05577707 0.08720852
v -0.02146690 0.05572895 0.09037804
v -0.01092129 0.04447765 0.06052024
v -0.02499942 0.06843735 0.11783802
v -0.02314343 0.07040994 0.11970298
v -0.02407851 0.07098727 0.12213753
v -0.02471607 0.07447882 0.13062634
v -0.01024124 0.04082115 0.05368510
v -0.02318594 0.07687754 0.13514635
v -0.02430047 0.07736554 0.13822400
v -0.02481524 0.07764046 0.13983172
v -0.02018707 0.07939311 0.14444361
v -0.01860500 0.07754423 0.14602377
v 0.01305072 0.04702758 0.09272073
v 0.01305072 0.04815477 0.09361186
v 0.01286654 0.04814790 0.09387828
v 0.01229510 0.04996928 0.09613829
v 0.00968822 0.05502102 0.10307449
v 0.00658073 0.05810705 0.10924816
v 0.00582511 0.06001778 0.11132442
v 0.00017214 0.06487708 0.12137502
v 0.00288292 0.05944731 0.11468687
v -0.00339816 0.06259520 0.12393819
v -0.00012539 0.05921362 0.11790232
v 0.00313794 0.05585954 0.11185727
v 0.00383217 0.05463613 0.11010255
v 0.00234454 0.05379073 0.11102126
v -0.00576419 0.06454029 0.12786105
v -0.00489051 0.06717269 0.12865113
v -0.00609005 0.06812119 0.13058959
v -0.00871111 0.06988758 0.13424603
v -0.00564613 0.06988758 0.13103976
v -0.03201251 0.05456052 0.10703409
v -0.03033126 0.06429286 0.11959273
v -0.02877752 0.06612798 0.11959273
v -0.02950952 0.06362617 0.11656102
v -0.03074213 0.06168794 0.11565151
v -0.03107743 0.05904179 0.11178377
v -0.03156386 0.05361203 0.10405750
v -0.03174804 0.05130266 0.10102578
v -0.03139385 0.05030606 0.09853610
v -0.02834776 0.04114419 0.07983134
v -0.02791328 0.04029880 0.07776427
v -0.02754491 0.03963898 0.07611060
v -0.02496164 0.03743958 0.06811790
v -0.02543390 0.03559758 0.06696952
v -0.02755436 0.03640174 0.07233474
v -0.03099242 0.04956376 0.09646903
v -0.02506081 0.03147371 0.06167781
v -0.02498998 0.02833270 0.05861853
v -0.02520249 0.02640822 0.05797544
v -0.02741268 0.02951487 0.06679497
v -0.02591561 0.07528297 0.13511879
v -0.02530167 0.07486372 0.13270261
v -0.02746935 0.07414204 0.13511879
v -0.02809274 0.07157149 0.13014861
v -0.02826747 0.06862980 0.12357990
v -0.03026986 0.06728954 0.12580316
v -0.02953313 0.06675343 0.12275307
v -0.02435715 0.02330157 0.05436494
v -0.02413990 0.02330157 0.05368510
v -0.00309119 0.06829989 0.12737413
v 0.00622181 0.06209346 0.11183889
v 0.00533868 0.06367428 0.11374980
v 0.00931985 0.05900743 0.10561929
v 0.01292321 0.05435433 0.09727748
v 0.01305072 0.05158446 0.09588105
v -0.02232170 0.05634753 0.09245429
v -0.02474912 0.06205222 0.10572954
v -0.01198388 0.04323362 0.05945455
v -0.01809967 0.05246422 0.08133802
v -0.01538417 0.04649835 0.06849457
v -0.01263560 0.04053936 0.05566031
v -0.01872778 0.04976308 0.07755296
v -0.02201000 0.05301407 0.08663892
v -0.02632176 0.06671907 0.11662533
v -0.02712932 0.06768131 0.11959273
v -0.02773854 0.06816242 0.12150363
v -0.02557558 0.06884974 0.11959273
v -0.02487191 0.07146152 0.12420462
v -0.02757325 0.07113161 0.12808153
v -0.02636426 0.07366779 0.13180227
v -0.01155885 0.04001013 0.05368510
v 0.01305072 0.05073907 0.09533902
v 0.01270125 0.05204496 0.09677219
v 0.00899399 0.05693175 0.10514156
v -0.00040402 0.06280826 0.12068599
v 0.00051217 0.06128243 0.11861891
v -0.00158940 0.06373614 0.12265201
v -0.00277950 0.06466400 0.12461803
v -0.00369096 0.06623108 0.12669430
v -0.02827220 0.06555751 0.11747053
v -0.02864528 0.06284263 0.11337313
v -0.02815885 0.06232715 0.11145304
v -0.03019902 0.06103500 0.11337313
v -0.02788022 0.05583205 0.09953749
v -0.02958508 0.05442993 0.10082367
v -0.03093575 0.05572895 0.10591327
v -0.03120966 0.05302782 0.10210985
v -0.03078463 0.05237487 0.10005196
v -0.02779049 0.04321300 0.08111753
v -0.02541029 0.03814064 0.06990018
v -0.02538195 0.04108233 0.07358418
v -0.02480579 0.04033316 0.07150791
v -0.02185888 0.03432606 0.05882064
v -0.02147635 0.03064206 0.05368510
v -0.02196278 0.03140498 0.05548576
v -0.02234531 0.02914372 0.05368510
v -0.02501831 0.03447726 0.06490245
v -0.03035959 0.05130266 0.09764496
v -0.02811163 0.04681452 0.08665730
v -0.02250588 0.02880007 0.05368510
v -0.02403601 0.02942552 0.05753446
v -0.02352124 0.02641510 0.05368510
v -0.02380932 0.02640822 0.05436494
v -0.02464995 0.02640822 0.05642284
v -0.02371015 0.02573466 0.05368510
v 0.01207314 0.05435433 0.09883008
v -0.02439493 0.05552276 0.09381398
v -0.02513638 0.05615508 0.09588105
v -0.02333234 0.05692487 0.09480618
v -0.02635954 0.05985969 0.10428717
v -0.02644927 0.06126868 0.10692384
v -0.02764409 0.06495268 0.11540346
v -0.01170053 0.03992078 0.05368510
v -0.01368875 0.03849804 0.05368510
v -0.01392488 0.03879358 0.05442925
v -0.01557307 0.04042251 0.05896764
v -0.01836414 0.04638838 0.07176515
v -0.01886002 0.04367350 0.06805359
v -0.02165108 0.04962562 0.08088785
v -0.02244921 0.05028544 0.08295493
v -0.02326622 0.05121331 0.08548136
v -0.02426269 0.05229927 0.08853144
v -0.02802662 0.05908991 0.10547230
v -0.02816830 0.05306218 0.09591781
v -0.02868306 0.05371513 0.09785626
v -0.02483885 0.05279413 0.09010242
v -0.02493803 0.04668392 0.08062143
v -0.02842804 0.05029918 0.09230730
v -0.02518833 0.04389344 0.07710280
v -0.02452716 0.04315114 0.07502654
v -0.02204778 0.04070431 0.06787904
v -0.01887419 0.03751518 0.05866446
v -0.02106076 0.03652545 0.06057536
v -0.01864278 0.03418172 0.05368510
v -0.02005484 0.03249780 0.05368510
v -0.02170776 0.03024342 0.05368510
v -0.02787550 0.04959813 0.09023104
v -0.02562753 0.04496564 0.07943630
v -0.01468994 0.03774887 0.05368510
v -0.01541723 0.03719902 0.05368510
v -0.01850110 0.04027130 0.06229334
v -0.02173609 0.04348792 0.07145279
v -0.02319538 0.04739873 0.07943630
v -0.02452244 0.04939881 0.08432379
v -0.01811856 0.03679350 0.05658820
v -0.01708431 0.03570755 0.05368510
f 1 2 12
f 1 12 32
f 1 32 54
f 1 54 100
f 1 100 152
f 1 152 214
f 1 214 280
f 1 280 346
f 1 346 417
f 1 417 507
f 1 507 510
f 1 510 599
f 1 599 681
f 1 681 737
f 1 737 734
f 1 734 732
f 1 732 728
f 1 728 768
f 1 768 726
f 1 726 767
f 1 767 766
f 1 766 778
f 1 778 772
f 1 772 771
f 1 771 746
f 1 746 745
f 1 745 703
f 1 703 628
f 1 628 540
f 1 540 539
f 1 539 454
f 1 454 453
f 1 453 452
f 1 452 451
f 1 451 421
f 1 421 349
f 1 349 284
f 1 284 218
f 1 218 217
f 1 217 154
f 1 154 101
f 1 101 57
f 1 57 33
f 1 33 13
f 1 13 3
f 1 3 16
f 1 16 39
f 1 39 71
f 1 71 120
f 1 120 174
f 1 174 229
f 1 229 228
f 1 228 299
f 1 299 359
f 1 359 428
f 1 428 434
f 1 434 528
f 1 528 614
f 1 614 525
f 1 525 612
f 1 612 687
f 1 687 704
f 1 704 635
f 1 635 634
f 1 634 553
f 1 553 471
f 1 471 389
f 1 389 324
f 1 324 252
f 1 252 184
f 1 184 183
f 1 183 141
f 1 141 90
f 1 90 89
f 1 89 79
f 1 79 44
f 1 44 40
f 1 40 17
f 1 17 4
f 1 4 5
f 1 5 6
f 1 6 7
f 1 7 8
f 1 8 9
f 1 9 2
f 2 9 10
f 2 10 11
f 2 11 12
f 3 13 14
f 3 14 15
f 3 15 16
f 4 17 18
f 4 18 19
f 4 19 20
f 4 20 21
f 4 21 5
f 5 21 22
f 5 22 23
f 5 23 24
f 5 24 6
f 6 25 8
f 6 8 7
f 6 24 25
f 8 25 26
f 8 26 9
f 9 26 10
f 10 27 28
f 10 28 12
f 10 12 11
f 10 26 29
f 10 29 30
f 10 30 27
f 12 28 31
f 12 31 32
f 13 33 34
f 13 34 14
f 14 34 35
f 14 35 36
f 14 36 37
f 14 37 15
f 15 37 38
f 15 38 39
f 15 39 16
f 17 40 18
f 18 41 42
f 18 42 43
f 18 43 19
f 18 40 44
f 18 44 45
f 18 45 46
f 18 46 41
f 19 43 20
f 20 43 47
f 20 47 48
f 20 48 21
f 21 48 49
f 21 49 22
f 22 49 50
f 22 50 51
f 22 51 23
f 23 51 24
f 24 52 29
f 24 29 25
f 24 51 52
f 25 29 26
f 27 32 31
f 27 31 28
f 27 30 53
f 27 53 32
f 29 53 30
f 29 52 53
f 32 53 55
f 32 55 56
f 32 56 54
f 33 57 58
f 33 58 59
f 33 59 34
f 34 59 60
f 34 60 35
f 35 61 62
f 35 62 63
f 35 63 37
f 35 37 36
f 35 60 59
f 35 59 58
f 35 58 64
f 35 64 65
f 35 65 66
f 35 66 67
f 35 67 68
f 35 68 69
f 35 69 61
f 37 63 70
f 37 70 38
f 38 70 39
f 39 70 72
f 39 72 71
f 41 46 73
f 41 73 74
f 41 74 42
f 42 74 75
f 42 75 76
f 42 76 77
f 42 77 43
f 43 50 47
f 43 77 78
f 43 78 50
f 44 79 45
f 45 79 46
f 46 80 81
f 46 81 82
f 46 82 83
f 46 83 84
f 46 84 85
f 46 85 86
f 46 86 87
f 46 87 88
f 46 88 73
f 46 79 89
f 46 89 90
f 46 90 80
f 47 50 48
f 48 50 49
f 50 91 92
f 50 92 93
f 50 93 51
f 50 78 91
f 51 93 92
f 51 92 52
f 52 92 94
f 52 94 95
f 52 95 53
f 53 95 96
f 53 96 97
f 53 97 98
f 53 98 99
f 53 99 56
f 53 56 55
f 54 56 99
f 54 99 100
f 57 101 102
f 57 102 103
f 57 103 58
f 58 103 104
f 58 104 105
f 58 105 64
f 61 106 63
f 61 63 62
f 61 69 107
f 61 107 106
f 63 106 108
f 63 108 109
f 63 109 110
f 63 110 72
f 63 72 70
f 64 105 65
f 65 111 112
f 65 112 66
f 65 105 111
f 66 112 113
f 66 113 114
f 66 114 67
f 67 115 68
f 67 114 113
f 67 113 116
f 67 116 117
f 67 117 118
f 67 118 115
f 68 118 69
f 68 115 118
f 69 118 119
f 69 119 107
f 71 72 120
f 72 110 121
f 72 121 120
f 73 122 74
f 73 88 123
f 73 123 124
f 73 124 125
f 73 125 126
f 73 126 127
f 73 127 122
f 74 122 75
f 75 122 76
f 76 122 77
f 77 122 128
f 77 128 78
f 78 92 91
f 78 128 92
f 80 129 81
f 80 90 129
f 81 130 131
f 81 131 82
f 81 129 130
f 82 131 83
f 83 132 133
f 83 133 134
f 83 134 135
f 83 135 136
f 83 136 137
f 83 137 138
f 83 138 84
f 83 131 130
f 83 130 129
f 83 129 132
f 84 138 139
f 84 139 140
f 84 140 85
f 85 140 86
f 86 140 123
f 86 123 87
f 87 123 88
f 90 141 129
f 92 142 143
f 92 143 144
f 92 144 94
f 92 128 145
f 92 145 142
f 94 144 146
f 94 146 147
f 94 147 95
f 95 147 146
f 95 146 96
f 96 148 97
f 96 146 149
f 96 149 150
f 96 150 148
f 97 148 151
f 97 151 99
f 97 99 98
f 99 151 100
f 100 151 153
f 100 153 152
f 101 154 102
f 102 154 104
f 102 104 103
f 104 154 155
f 104 155 156
f 104 156 111
f 104 111 105
f 106 157 108
f 106 107 158
f 106 158 157
f 107 119 159
f 107 159 160
f 107 160 158
f 108 157 161
f 108 161 109
f 109 161 110
f 110 161 162
f 110 162 163
f 110 163 121
f 111 164 165
f 111 165 112
f 111 156 166
f 111 166 164
f 112 165 167
f 112 167 113
f 113 168 116
f 113 167 165
f 113 165 168
f 116 169 117
f 116 168 169
f 117 169 170
f 117 170 171
f 117 171 118
f 118 171 172
f 118 172 173
f 118 173 119
f 119 173 159
f 120 121 163
f 120 163 174
f 122 127 175
f 122 175 128
f 123 176 124
f 123 140 176
f 124 176 125
f 125 176 126
f 126 176 127
f 127 176 177
f 127 177 178
f 127 178 179
f 127 179 175
f 128 175 179
f 128 179 180
f 128 180 181
f 128 181 145
f 129 182 132
f 129 141 183
f 129 183 184
f 129 184 182
f 132 182 185
f 132 185 134
f 132 134 133
f 134 186 187
f 134 187 135
f 134 185 186
f 135 188 189
f 135 189 190
f 135 190 191
f 135 191 136
f 135 187 186
f 135 186 192
f 135 192 193
f 135 193 194
f 135 194 195
f 135 195 196
f 135 196 197
f 135 197 198
f 135 198 199
f 135 199 188
f 136 191 200
f 136 200 137
f 137 200 201
f 137 201 139
f 137 139 138
f 139 201 202
f 139 202 176
f 139 176 140
f 142 203 143
f 142 145 203
f 143 203 144
f 144 203 146
f 145 181 204
f 145 204 203
f 146 205 206
f 146 206 150
f 146 150 149
f 146 203 207
f 146 207 208
f 146 208 205
f 148 209 151
f 148 150 209
f 150 206 205
f 150 205 210
f 150 210 211
f 150 211 212
f 150 212 213
f 150 213 209
f 151 209 153
f 152 153 215
f 152 215 214
f 153 209 216
f 153 216 215
f 154 217 155
f 155 217 156
f 156 217 218
f 156 218 166
f 157 158 219
f 157 219 161
f 158 160 220
f 158 220 221
f 158 221 222
f 158 222 219
f 159 173 223
f 159 223 224
f 159 224 225
f 159 225 160
f 160 225 226
f 160 226 220
f 161 219 162
f 162 219 222
f 162 222 163
f 163 227 228
f 163 228 229
f 163 229 174
f 163 222 230
f 163 230 227
f 164 166 218
f 164 218 231
f 164 231 232
f 164 232 165
f 165 232 233
f 165 233 234
f 165 234 235
f 165 235 236
f 165 236 237
f 165 237 169
f 165 169 168
f 169 237 238
f 169 238 170
f 170 238 239
f 170 239 240
f 170 240 171
f 171 240 241
f 171 241 172
f 172 241 173
f 173 241 223
f 176 242 177
f 176 202 243
f 176 243 242
f 177 242 178
f 178 242 179
f 179 242 180
f 180 244 207
f 180 207 204
f 180 204 181
f 180 242 245
f 180 245 246
f 180 246 247
f 180 247 248
f 180 248 249
f 180 249 244
f 182 250 251
f 182 251 185
f 182 184 250
f 184 252 193
f 184 193 250
f 185 251 186
f 186 251 250
f 186 250 193
f 186 193 192
f 188 253 200
f 188 200 189
f 188 199 265
f 188 265 254
f 188 254 255
f 188 255 253
f 189 200 190
f 190 200 191
f 193 256 257
f 193 257 195
f 193 195 194
f 193 252 256
f 195 258 259
f 195 259 196
f 195 257 258
f 196 259 260
f 196 260 261
f 196 261 262
f 196 262 263
f 196 263 197
f 197 263 264
f 197 264 198
f 198 264 265
f 198 265 199
f 200 266 201
f 200 253 267
f 200 267 268
f 200 268 266
f 201 266 268
f 201 268 202
f 202 268 253
f 202 253 255
f 202 255 254
f 202 254 269
f 202 269 270
f 202 270 271
f 202 271 272
f 202 272 273
f 202 273 242
f 202 242 274
f 202 274 243
f 203 204 207
f 205 208 210
f 207 244 208
f 208 244 249
f 208 249 275
f 208 275 276
f 208 276 277
f 208 277 210
f 209 213 216
f 210 277 211
f 211 278 279
f 211 279 212
f 211 277 278
f 212 279 216
f 212 216 213
f 214 215 281
f 214 281 280
f 215 216 281
f 216 279 282
f 216 282 283
f 216 283 280
f 216 280 281
f 218 284 285
f 218 285 231
f 220 226 286
f 220 286 287
f 220 287 288
f 220 288 289
f 220 289 290
f 220 290 291
f 220 291 292
f 220 292 222
f 220 222 221
f 222 292 293
f 222 293 230
f 223 241 224
f 224 241 294
f 224 294 295
f 224 295 225
f 225 295 296
f 225 296 286
f 225 286 226
f 227 297 298
f 227 298 228
f 227 230 297
f 228 298 299
f 230 293 291
f 230 291 300
f 230 300 301
f 230 301 297
f 231 285 302
f 231 302 303
f 231 303 233
f 231 233 232
f 233 303 234
f 234 303 304
f 234 304 305
f 234 305 306
f 234 306 235
f 235 306 307
f 235 307 237
f 235 237 236
f 237 307 308
f 237 308 309
f 237 309 310
f 237 310 311
f 237 311 239
f 237 239 238
f 239 311 240
f 240 312 313
f 240 313 314
f 240 314 241
f 240 311 315
f 240 315 312
f 241 314 294
f 242 243 274
f 242 273 272
f 242 272 245
f 245 272 246
f 246 272 270
f 246 270 269
f 246 269 316
f 246 316 317
f 246 317 318
f 246 318 247
f 247 318 319
f 247 319 320
f 247 320 321
f 247 321 322
f 247 322 323
f 247 323 275
f 247 275 249
f 247 249 248
f 252 324 325
f 252 325 256
f 253 268 267
f 254 265 269
f 256 325 326
f 256 326 327
f 256 327 257
f 257 327 326
f 257 326 328
f 257 328 329
f 257 329 258
f 258 329 259
f 259 330 331
f 259 331 332
f 259 332 333
f 259 333 334
f 259 334 335
f 259 335 260
f 259 329 330
f 260 335 336
f 260 336 261
f 261 336 319
f 261 319 318
f 261 318 262
f 262 318 263
f 263 318 264
f 264 318 317
f 264 317 316
f 264 316 269
f 264 269 265
f 270 272 271
f 275 337 338
f 275 338 276
f 275 323 322
f 275 322 339
f 275 339 340
f 275 340 341
f 275 341 337
f 276 338 277
f 277 338 342
f 277 342 343
f 277 343 278
f 278 343 344
f 278 344 345
f 278 345 282
f 278 282 279
f 280 283 346
f 282 345 347
f 282 347 348
f 282 348 283
f 283 348 346
f 284 349 285
f 285 349 350
f 285 350 302
f 286 296 287
f 287 296 288
f 288 296 351
f 288 351 352
f 288 352 289
f 289 352 353
f 289 353 354
f 289 354 355
f 289 355 290
f 290 355 291
f 291 293 292
f 291 355 300
f 294 356 357
f 294 357 295
f 294 314 356
f 295 357 296
f 296 357 351
f 297 301 298
f 298 358 359
f 298 359 299
f 298 301 358
f 300 360 301
f 300 355 361
f 300 361 360
f 301 360 362
f 301 362 363
f 301 363 364
f 301 364 358
f 302 350 365
f 302 365 366
f 302 366 304
f 302 304 303
f 304 366 305
f 305 367 368
f 305 368 369
f 305 369 370
f 305 370 371
f 305 371 372
f 305 372 373
f 305 373 308
f 305 308 307
f 305 307 306
f 305 366 374
f 305 374 375
f 305 375 376
f 305 376 377
f 305 377 367
f 308 373 309
f 309 373 315
f 309 315 310
f 310 315 311
f 312 315 378
f 312 378 313
f 313 378 379
f 313 379 380
f 313 380 381
f 313 381 382
f 313 382 383
f 313 383 356
f 313 356 314
f 315 373 384
f 315 384 378
f 319 336 320
f 320 336 385
f 320 385 321
f 321 385 465
f 321 465 386
f 321 386 322
f 322 386 387
f 322 387 388
f 322 388 339
f 324 389 325
f 325 390 326
f 325 389 390
f 326 391 328
f 326 390 391
f 328 391 329
f 329 391 330
f 330 392 393
f 330 393 394
f 330 394 331
f 330 391 392
f 331 394 332
f 332 395 396
f 332 396 397
f 332 397 398
f 332 398 399
f 332 399 400
f 332 400 333
f 332 394 395
f 333 400 401
f 333 401 334
f 334 401 385
f 334 385 335
f 335 385 336
f 337 341 402
f 337 402 338
f 338 403 404
f 338 404 405
f 338 405 406
f 338 406 342
f 338 402 407
f 338 407 403
f 339 388 408
f 339 408 409
f 339 409 341
f 339 341 340
f 341 409 410
f 341 410 411
f 341 411 402
f 342 406 412
f 342 412 343
f 343 412 413
f 343 413 414
f 343 414 344
f 344 414 415
f 344 415 347
f 344 347 345
f 346 416 417
f 346 348 416
f 347 418 419
f 347 419 348
f 347 415 414
f 347 414 420
f 347 420 418
f 348 419 416
f 349 421 350
f 350 421 422
f 350 422 423
f 350 423 365
f 351 357 356
f 351 356 383
f 351 383 424
f 351 424 352
f 352 424 425
f 352 425 353
f 353 425 426
f 353 426 354
f 354 427 355
f 354 426 427
f 355 427 361
f 358 428 359
f 358 364 428
f 360 361 363
f 360 363 362
f 361 427 429
f 361 429 363
f 363 429 430
f 363 430 364
f 364 430 431
f 364 431 432
f 364 432 433
f 364 433 434
f 364 434 428
f 365 423 366
f 366 423 435
f 366 435 374
f 367 436 368
f 367 377 437
f 367 437 438
f 367 438 436
f 368 436 439
f 368 439 440
f 368 440 441
f 368 441 442
f 368 442 370
f 368 370 369
f 370 442 443
f 370 443 371
f 371 444 445
f 371 445 446
f 371 446 447
f 371 447 448
f 371 448 449
f 371 449 379
f 371 379 450
f 371 450 372
f 371 443 444
f 372 384 373
f 372 450 378
f 372 378 384
f 374 435 375
f 375 435 423
f 375 423 422
f 375 422 451
f 375 451 452
f 375 452 453
f 375 453 454
f 375 454 455
f 375 455 456
f 375 456 376
f 376 456 437
f 376 437 377
f 378 450 379
f 379 449 380
f 380 449 381
f 381 457 458
f 381 458 459
f 381 459 460
f 381 460 461
f 381 461 382
f 381 449 457
f 382 461 383
f 383 461 462
f 383 462 425
f 383 425 424
f 385 401 463
f 385 463 464
f 385 464 465
f 386 465 466
f 386 466 467
f 386 467 468
f 386 468 388
f 386 388 387
f 388 468 469
f 388 469 470
f 388 470 408
f 389 471 472
f 389 472 473
f 389 473 474
f 389 474 475
f 389 475 390
f 390 475 391
f 391 475 476
f 391 476 477
f 391 477 478
f 391 478 392
f 392 478 393
f 393 478 394
f 394 478 395
f 395 478 396
f 396 478 477
f 396 477 479
f 396 479 480
f 396 480 481
f 396 481 482
f 396 482 397
f 397 482 398
f 398 483 484
f 398 484 399
f 398 482 483
f 399 484 485
f 399 485 486
f 399 486 487
f 399 487 464
f 399 464 400
f 400 464 463
f 400 463 401
f 402 411 488
f 402 488 407
f 403 489 490
f 403 490 404
f 403 407 491
f 403 491 489
f 404 492 405
f 404 490 492
f 405 492 493
f 405 493 494
f 405 494 495
f 405 495 496
f 405 496 497
f 405 497 498
f 405 498 499
f 405 499 406
f 406 499 412
f 407 488 500
f 407 500 501
f 407 501 491
f 408 470 502
f 408 502 410
f 408 410 409
f 410 502 503
f 410 503 504
f 410 504 411
f 411 504 505
f 411 505 488
f 412 499 413
f 413 499 506
f 413 506 420
f 413 420 414
f 416 419 507
f 416 507 417
f 418 420 508
f 418 508 509
f 418 509 510
f 418 510 511
f 418 511 419
f 419 511 507
f 420 506 508
f 421 451 422
f 425 462 512
f 425 512 426
f 426 513 427
f 426 512 462
f 426 462 514
f 426 514 515
f 426 515 513
f 427 513 429
f 429 513 516
f 429 516 431
f 429 431 430
f 431 516 517
f 431 517 518
f 431 518 519
f 431 519 520
f 431 520 521
f 431 521 522
f 431 522 432
f 432 522 523
f 432 523 524
f 432 524 525
f 432 525 526
f 432 526 527
f 432 527 528
f 432 528 433
f 433 528 434
f 436 438 529
f 436 529 439
f 437 530 438
f 437 456 531
f 437 531 530
f 438 530 529
f 439 529 532
f 439 532 441
f 439 441 440
f 441 533 444
f 441 444 443
f 441 443 442
f 441 532 533
f 444 534 445
f 444 533 534
f 445 534 446
f 446 534 535
f 446 535 536
f 446 536 447
f 447 536 537
f 447 537 448
f 448 537 538
f 448 538 449
f 449 538 537
f 449 537 458
f 449 458 457
f 454 539 455
f 455 539 540
f 455 540 541
f 455 541 542
f 455 542 530
f 455 530 531
f 455 531 456
f 458 537 543
f 458 543 544
f 458 544 545
f 458 545 459
f 459 545 460
f 460 462 461
f 460 545 546
f 460 546 547
f 460 547 548
f 460 548 549
f 460 549 462
f 462 549 514
f 464 487 485
f 464 485 467
f 464 467 466
f 464 466 465
f 467 485 468
f 468 485 469
f 469 485 470
f 470 550 502
f 470 485 551
f 470 551 552
f 470 552 550
f 471 553 554
f 471 554 555
f 471 555 556
f 471 556 557
f 471 557 558
f 471 558 472
f 472 558 559
f 472 559 560
f 472 560 473
f 473 560 561
f 473 561 562
f 473 562 474
f 474 562 476
f 474 476 475
f 476 562 563
f 476 563 480
f 476 480 479
f 476 479 477
f 480 563 561
f 480 561 481
f 481 561 564
f 481 564 565
f 481 565 482
f 482 566 567
f 482 567 483
f 482 565 566
f 483 567 568
f 483 568 569
f 483 569 485
f 483 485 484
f 485 569 568
f 485 568 570
f 485 570 551
f 485 487 486
f 488 505 500
f 489 571 572
f 489 572 490
f 489 491 571
f 490 572 492
f 491 501 573
f 491 573 574
f 491 574 575
f 491 575 576
f 491 576 571
f 492 572 577
f 492 577 578
f 492 578 493
f 493 578 494
f 494 579 580
f 494 580 496
f 494 496 495
f 494 578 581
f 494 581 582
f 494 582 583
f 494 583 579
f 496 580 584
f 496 584 498
f 496 498 497
f 498 584 580
f 498 580 585
f 498 585 586
f 498 586 499
f 499 586 587
f 499 587 506
f 500 505 588
f 500 588 589
f 500 589 590
f 500 590 591
f 500 591 592
f 500 592 593
f 500 593 594
f 500 594 595
f 500 595 573
f 500 573 501
f 502 550 548
f 502 548 503
f 503 548 596
f 503 596 588
f 503 588 504
f 504 588 505
f 506 587 508
f 507 511 510
f 508 597 509
f 508 587 597
f 509 598 510
f 509 597 598
f 510 598 599
f 513 515 600
f 513 600 516
f 514 549 601
f 514 601 515
f 515 601 600
f 516 600 517
f 517 600 518
f 518 601 519
f 518 600 601
f 519 601 602
f 519 602 603
f 519 603 604
f 519 604 605
f 519 605 521
f 519 521 520
f 521 606 522
f 521 605 607
f 521 607 608
f 521 608 609
f 521 609 610
f 521 610 606
f 522 606 523
f 523 610 611
f 523 611 612
f 523 612 613
f 523 613 524
f 523 606 610
f 524 613 612
f 524 612 525
f 525 614 526
f 526 614 527
f 527 614 528
f 529 615 616
f 529 616 617
f 529 617 532
f 529 530 618
f 529 618 619
f 529 619 620
f 529 620 621
f 529 621 622
f 529 622 615
f 530 542 623
f 530 623 618
f 532 617 534
f 532 534 533
f 534 624 535
f 534 617 624
f 535 624 625
f 535 625 536
f 536 625 626
f 536 626 627
f 536 627 537
f 537 627 543
f 540 628 541
f 541 628 623
f 541 623 542
f 543 627 544
f 544 627 545
f 545 627 629
f 545 629 630
f 545 630 631
f 545 631 546
f 546 631 547
f 547 631 596
f 547 596 548
f 548 550 632
f 548 632 549
f 549 632 601
f 550 552 632
f 551 570 633
f 551 633 603
f 551 603 552
f 552 603 602
f 552 602 632
f 553 634 554
f 554 634 635
f 554 635 636
f 554 636 637
f 554 637 555
f 555 637 638
f 555 638 556
f 556 638 639
f 556 639 640
f 556 640 641
f 556 641 642
f 556 642 643
f 556 643 644
f 556 644 645
f 556 645 646
f 556 646 557
f 557 646 558
f 558 646 647
f 558 647 559
f 559 647 646
f 559 646 645
f 559 645 560
f 560 645 644
f 560 644 643
f 560 643 648
f 560 648 561
f 561 648 564
f 561 563 562
f 564 648 649
f 564 649 650
f 564 650 565
f 565 650 651
f 565 651 567
f 565 567 566
f 567 607 568
f 567 651 652
f 567 652 607
f 568 607 604
f 568 604 633
f 568 633 570
f 571 653 572
f 571 576 575
f 571 575 653
f 572 653 577
f 573 595 574
f 574 595 575
f 575 595 594
f 575 594 654
f 575 654 655
f 575 655 656
f 575 656 657
f 575 657 658
f 575 658 653
f 577 653 659
f 577 659 660
f 577 660 661
f 577 661 581
f 577 581 578
f 579 662 663
f 579 663 664
f 579 664 665
f 579 665 666
f 579 666 667
f 579 667 580
f 579 583 668
f 579 668 662
f 580 669 670
f 580 670 671
f 580 671 585
f 580 667 669
f 581 661 668
f 581 668 582
f 582 668 583
f 585 671 597
f 585 597 672
f 585 672 587
f 585 587 586
f 587 672 597
f 588 596 589
f 589 596 631
f 589 631 673
f 589 673 674
f 589 674 675
f 589 675 676
f 589 676 590
f 590 676 592
f 590 592 591
f 592 677 678
f 592 678 593
f 592 676 677
f 593 678 594
f 594 678 679
f 594 679 654
f 597 671 680
f 597 680 598
f 598 680 599
f 599 680 681
f 601 632 602
f 603 633 604
f 604 607 605
f 607 652 608
f 608 682 609
f 608 652 650
f 608 650 682
f 609 682 641
f 609 641 683
f 609 683 684
f 609 684 610
f 610 683 685
f 610 685 611
f 610 684 683
f 611 685 612
f 612 686 687
f 612 685 686
f 615 622 688
f 615 688 616
f 616 688 689
f 616 689 624
f 616 624 617
f 618 623 690
f 618 690 619
f 619 690 620
f 620 691 621
f 620 690 692
f 620 692 691
f 621 691 622
f 622 691 692
f 622 692 693
f 622 693 694
f 622 694 695
f 622 695 688
f 623 628 690
f 624 696 697
f 624 697 698
f 624 698 699
f 624 699 700
f 624 700 626
f 624 626 625
f 624 689 696
f 626 700 627
f 627 701 702
f 627 702 674
f 627 674 631
f 627 631 630
f 627 630 629
f 627 700 698
f 627 698 701
f 628 703 690
f 631 674 673
f 635 704 637
f 635 637 636
f 637 704 687
f 637 687 705
f 637 705 638
f 638 706 639
f 638 705 706
f 639 683 640
f 639 706 683
f 640 683 641
f 641 682 707
f 641 707 642
f 642 707 708
f 642 708 643
f 643 708 707
f 643 707 709
f 643 709 710
f 643 710 711
f 643 711 648
f 648 711 649
f 649 711 682
f 649 682 650
f 650 652 651
f 653 658 659
f 654 679 655
f 655 712 656
f 655 679 677
f 655 677 698
f 655 698 712
f 656 712 713
f 656 713 657
f 657 713 714
f 657 714 715
f 657 715 658
f 658 716 717
f 658 717 718
f 658 718 719
f 658 719 659
f 658 715 716
f 659 719 660
f 660 719 661
f 661 719 720
f 661 720 668
f 662 668 663
f 663 668 721
f 663 721 664
f 664 721 722
f 664 722 665
f 665 722 723
f 665 723 724
f 665 724 725
f 665 725 726
f 665 726 727
f 665 727 728
f 665 728 666
f 666 728 729
f 666 729 669
f 666 669 667
f 668 720 730
f 668 730 731
f 668 731 721
f 669 729 728
f 669 728 732
f 669 732 733
f 669 733 670
f 670 733 734
f 670 734 735
f 670 735 736
f 670 736 671
f 671 736 681
f 671 681 680
f 674 702 675
f 675 702 676
f 676 702 701
f 676 701 677
f 677 679 678
f 677 701 698
f 681 736 737
f 682 711 709
f 682 709 707
f 683 706 685
f 685 706 705
f 685 705 738
f 685 738 686
f 686 738 705
f 686 705 687
f 688 739 740
f 688 740 741
f 688 741 689
f 688 695 739
f 689 741 740
f 689 740 742
f 689 742 743
f 689 743 714
f 689 714 744
f 689 744 697
f 689 697 696
f 690 703 693
f 690 693 692
f 693 703 745
f 693 745 746
f 693 746 747
f 693 747 748
f 693 748 694
f 694 749 695
f 694 748 749
f 695 749 750
f 695 750 751
f 695 751 752
f 695 752 753
f 695 753 754
f 695 754 739
f 697 744 712
f 697 712 698
f 698 700 699
f 709 711 710
f 712 744 714
f 712 714 713
f 714 743 755
f 714 755 715
f 715 755 716
f 716 756 757
f 716 757 717
f 716 755 740
f 716 740 758
f 716 758 759
f 716 759 756
f 717 757 720
f 717 720 718
f 718 720 719
f 720 757 760
f 720 760 730
f 721 731 723
f 721 723 722
f 723 731 761
f 723 761 724
f 724 761 759
f 724 759 762
f 724 762 763
f 724 763 764
f 724 764 765
f 724 765 725
f 725 765 766
f 725 766 767
f 725 767 726
f 726 768 727
f 727 768 728
f 730 760 731
f 731 769 759
f 731 759 770
f 731 770 761
f 731 760 769
f 732 734 733
f 734 737 735
f 735 737 736
f 739 754 758
f 739 758 740
f 740 755 742
f 742 755 743
f 746 771 747
f 747 771 748
f 748 771 772
f 748 772 750
f 748 750 749
f 750 772 773
f 750 773 751
f 751 774 775
f 751 775 752
f 751 773 774
f 752 775 759
f 752 759 753
f 753 759 776
f 753 776 754
f 754 776 759
f 754 759 758
f 756 760 757
f 756 759 769
f 756 769 760
f 759 775 774
f 759 774 764
f 759 764 763
f 759 763 762
f 759 761 770
f 764 773 777
f 764 777 766
f 764 766 765
f 764 774 773
f 766 777 778
f 772 778 777
f 772 777 773

