# https://github.com/mikedh/trimesh
v 0.01305072 -0.05529414 0.05368669
v 0.01305072 -0.07284858 0.05368669
v 0.01305072 -0.05832652 0.05597081
v 0.05461087 -0.06949163 0.05368669
v 0.01305072 -0.07353481 0.05495423
v 0.03822602 -0.09164567 0.05368669
v 0.01305072 -0.06119662 0.05794520
v 0.05596736 -0.07763363 0.05903802
v 0.05435805 -0.07201398 0.05552606
v 0.05688628 -0.07404948 0.05626943
v 0.05723148 -0.07053952 0.05368669
v 0.01305072 -0.07391966 0.05586597
v 0.03935400 -0.09409846 0.05746709
v 0.03887266 -0.09195632 0.05368669
v 0.03982561 -0.09352815 0.05533068
v 0.01305072 -0.06271745 0.05888395
v 0.05684738 -0.08345266 0.06238003
v 0.05771768 -0.08237695 0.06148893
v 0.05718772 -0.07918228 0.05965274
v 0.05803857 -0.07813439 0.05867745
v 0.01305072 -0.06367260 0.05946689
v 0.05924433 -0.07154104 0.05368669
v 0.05748916 -0.07064616 0.05368669
v 0.01305072 -0.07568159 0.06035163
v 0.04192112 -0.09555438 0.05757510
v 0.04294700 -0.09646317 0.05868222
v 0.04291783 -0.09651417 0.06057401
v 0.01305072 -0.07588097 0.06345537
v 0.04193085 -0.09323604 0.05368669
v 0.04193085 -0.09393618 0.05476839
v 0.05746486 -0.08779722 0.06478169
v 0.05771768 -0.08514041 0.06315993
v 0.05891858 -0.08391633 0.06209729
v 0.05988125 -0.08019771 0.05939859
v 0.01305072 -0.06725675 0.06141745
v 0.05746486 -0.08935050 0.06563467
v 0.06194760 -0.08093958 0.05887124
v 0.06078558 -0.07282076 0.05368669
v 0.04503765 -0.09681092 0.05819934
v 0.04893695 -0.09967174 0.06172242
v 0.04849937 -0.10011687 0.06367934
v 0.04694840 -0.09909217 0.06367934
v 0.01305072 -0.07291349 0.06364439
v 0.05268553 -0.10256503 0.06844773
v 0.05149435 -0.10071963 0.06882577
v 0.05435805 -0.10095147 0.06972640
v 0.04356447 -0.09356525 0.05368669
v 0.04503765 -0.09586504 0.05664588
v 0.05913251 -0.08988836 0.06533923
v 0.01305072 -0.06881931 0.06211476
v 0.05681335 -0.09549873 0.06871459
v 0.05746486 -0.09163639 0.06676561
v 0.06245324 -0.08301217 0.05937953
v 0.06250672 -0.08005861 0.05679996
v 0.06178228 -0.07454097 0.05368669
v 0.04814445 -0.09711230 0.05791979
v 0.05125125 -0.09975984 0.06162395
v 0.05125125 -0.10093756 0.06367934
v 0.05268553 -0.10256503 0.06802522
v 0.01305072 -0.06989502 0.06252775
v 0.05435805 -0.09784489 0.06991224
v 0.05435805 -0.10265777 0.06864787
v 0.05614726 -0.10264849 0.06863993
v 0.05681335 -0.10095147 0.06917364
v 0.04465841 -0.09377853 0.05368669
v 0.04502306 -0.09413092 0.05410603
v 0.05769337 -0.09457604 0.06793309
v 0.05944854 -0.09163639 0.06575221
v 0.05731413 -0.09784489 0.06922923
v 0.06239003 -0.08542325 0.05933664
v 0.06272065 -0.08211266 0.05768788
v 0.05970136 -0.09473832 0.06636533
v 0.06236572 -0.07797211 0.05368669
v 0.06216152 -0.07675730 0.05368669
v 0.04814445 -0.09594386 0.05636632
v 0.04533423 -0.09386663 0.05368669
v 0.04775063 -0.09389908 0.05368669
v 0.05125125 -0.09854967 0.06007048
v 0.05335162 -0.09961147 0.06185903
v 0.05435805 -0.10206890 0.06631609
v 0.05435805 -0.10265777 0.06786955
v 0.05713910 -0.10100711 0.06690857
v 0.05946799 -0.09712157 0.06615725
v 0.05614726 -0.10264849 0.06802681
v 0.05877759 -0.09803500 0.06702929
v 0.06031397 -0.09473832 0.06367934
v 0.06214693 -0.08706927 0.05908409
v 0.06250672 -0.08546961 0.05770376
v 0.06255534 -0.08212193 0.05436652
v 0.06242406 -0.07868615 0.05368669
v 0.04744433 -0.09389908 0.05368669
v 0.04846048 -0.09377853 0.05368669
v 0.05125125 -0.09699638 0.05817234
v 0.05380865 -0.09666254 0.05859962
v 0.05587985 -0.09627770 0.05903643
v 0.05542282 -0.09919416 0.06238320
v 0.05437750 -0.10041825 0.06352209
v 0.05125125 -0.09568420 0.05661888
v 0.05946799 -0.09704738 0.06367934
v 0.05675015 -0.10000559 0.06445448
v 0.05916654 -0.09646781 0.06194321
v 0.06214693 -0.08706927 0.05889507
v 0.06239976 -0.08446345 0.05540534
v 0.06240948 -0.08165363 0.05368669
v 0.06241434 -0.08102304 0.05368669
v 0.04994338 -0.09349106 0.05368669
v 0.05125125 -0.09413092 0.05482716
v 0.05125125 -0.09311549 0.05368669
v 0.05182982 -0.09289756 0.05368669
v 0.05435805 -0.09356525 0.05549747
v 0.05435805 -0.09208151 0.05394400
v 0.05592361 -0.09319894 0.05590410
v 0.05716341 -0.09393154 0.05764976
v 0.05746486 -0.09566102 0.05967180
v 0.05746486 -0.09704738 0.06122526
v 0.05799481 -0.09239217 0.05673642
v 0.05920058 -0.09339369 0.05880770
v 0.05969650 -0.09146483 0.05764976
v 0.06128151 -0.08546961 0.05436652
v 0.06190870 -0.08327183 0.05368669
v 0.05316200 -0.09233653 0.05368669
v 0.05400799 -0.09197950 0.05368669
v 0.05435805 -0.09182649 0.05368669
v 0.05642439 -0.09063950 0.05368669
v 0.05697379 -0.09125154 0.05475092
v 0.05921516 -0.09031958 0.05566902
v 0.05794619 -0.08942469 0.05368669
v 0.05972567 -0.08835362 0.05452536
v 0.06088282 -0.08538615 0.05368669
v 0.06122802 -0.08467674 0.05368669
v 0.06162670 -0.08385604 0.05368669
v 0.05949230 -0.08785286 0.05368669
v 0.05807260 -0.08931805 0.05368669
f 1 2 5
f 1 5 12
f 1 12 24
f 1 24 28
f 1 28 43
f 1 43 60
f 1 60 50
f 1 50 35
f 1 35 21
f 1 21 16
f 1 16 7
f 1 7 3
f 1 3 4
f 1 4 11
f 1 11 23
f 1 23 22
f 1 22 38
f 1 38 55
f 1 55 74
f 1 74 73
f 1 73 90
f 1 90 105
f 1 105 104
f 1 104 120
f 1 120 131
f 1 131 130
f 1 130 129
f 1 129 132
f 1 132 133
f 1 133 127
f 1 127 124
f 1 124 123
f 1 123 122
f 1 122 121
f 1 121 109
f 1 109 108
f 1 108 106
f 1 106 92
f 1 92 77
f 1 77 91
f 1 91 76
f 1 76 65
f 1 65 47
f 1 47 29
f 1 29 14
f 1 14 6
f 1 6 2
f 2 6 5
f 3 7 8
f 3 8 9
f 3 9 4
f 4 9 8
f 4 8 10
f 4 10 11
f 5 6 13
f 5 13 12
f 6 14 15
f 6 15 13
f 7 16 8
f 8 17 18
f 8 18 19
f 8 19 20
f 8 20 10
f 8 16 21
f 8 21 17
f 10 20 22
f 10 22 23
f 10 23 11
f 12 13 24
f 13 15 25
f 13 25 26
f 13 26 27
f 13 27 28
f 13 28 24
f 14 29 15
f 15 29 30
f 15 30 25
f 17 31 32
f 17 32 33
f 17 33 18
f 17 21 31
f 18 33 19
f 19 33 34
f 19 34 20
f 20 34 22
f 21 35 36
f 21 36 31
f 22 34 37
f 22 37 38
f 25 30 39
f 25 39 26
f 26 39 40
f 26 40 41
f 26 41 27
f 27 41 42
f 27 42 28
f 28 42 44
f 28 44 45
f 28 45 46
f 28 46 43
f 29 47 48
f 29 48 30
f 30 48 39
f 31 36 49
f 31 49 33
f 31 33 32
f 33 49 37
f 33 37 34
f 35 50 51
f 35 51 52
f 35 52 36
f 36 52 49
f 37 49 53
f 37 53 54
f 37 54 55
f 37 55 38
f 39 48 40
f 40 48 56
f 40 56 57
f 40 57 58
f 40 58 41
f 41 58 59
f 41 59 44
f 41 44 42
f 43 46 61
f 43 61 60
f 44 59 81
f 44 81 62
f 44 62 46
f 44 46 45
f 46 62 63
f 46 63 64
f 46 64 61
f 47 65 48
f 48 65 66
f 48 66 56
f 49 52 51
f 49 51 67
f 49 67 68
f 49 68 53
f 50 60 61
f 50 61 51
f 51 61 69
f 51 69 67
f 53 70 71
f 53 71 54
f 53 68 72
f 53 72 70
f 54 71 73
f 54 73 74
f 54 74 55
f 56 75 57
f 56 66 76
f 56 76 75
f 57 75 77
f 57 77 78
f 57 78 79
f 57 79 80
f 57 80 58
f 58 80 81
f 58 81 59
f 61 64 69
f 62 81 84
f 62 84 63
f 63 82 83
f 63 83 64
f 63 84 82
f 64 83 85
f 64 85 69
f 65 76 66
f 67 69 68
f 68 69 72
f 69 85 72
f 70 86 87
f 70 87 88
f 70 88 71
f 70 72 86
f 71 89 90
f 71 90 73
f 71 88 89
f 72 85 83
f 72 83 86
f 75 76 91
f 75 91 77
f 77 92 93
f 77 93 78
f 78 93 79
f 79 94 95
f 79 95 96
f 79 96 97
f 79 97 80
f 79 93 98
f 79 98 94
f 80 97 84
f 80 84 81
f 82 99 83
f 82 84 99
f 83 99 86
f 84 100 101
f 84 101 99
f 84 97 100
f 86 88 102
f 86 102 87
f 86 99 88
f 87 102 88
f 88 99 103
f 88 103 89
f 89 103 104
f 89 104 105
f 89 105 90
f 92 106 93
f 93 106 98
f 94 98 107
f 94 107 108
f 94 108 109
f 94 109 95
f 95 109 110
f 95 110 111
f 95 111 112
f 95 112 113
f 95 113 114
f 95 114 101
f 95 101 115
f 95 115 96
f 96 115 100
f 96 100 97
f 98 106 107
f 99 101 103
f 100 115 101
f 101 114 116
f 101 116 117
f 101 117 118
f 101 118 103
f 103 119 120
f 103 120 104
f 103 118 119
f 106 108 107
f 109 121 111
f 109 111 110
f 111 121 122
f 111 122 123
f 111 123 112
f 112 124 125
f 112 125 116
f 112 116 113
f 112 123 124
f 113 116 114
f 116 126 117
f 116 125 127
f 116 127 126
f 117 126 118
f 118 126 128
f 118 128 119
f 119 129 130
f 119 130 131
f 119 131 120
f 119 128 132
f 119 132 129
f 124 127 125
f 126 127 133
f 126 133 132
f 126 132 128

