# https://github.com/mikedh/trimesh
v -0.05931909 0.00589724 0.05368510
v -0.05747121 0.00581098 0.05368510
v -0.06008312 0.00588816 0.05368510
v -0.07793409 0.00006352 0.06845722
v -0.07728260 0.00006352 0.06845722
v -0.05661242 0.00575197 0.05368510
v -0.06322214 0.00528890 0.05368510
v -0.07796963 0.00010438 0.06678874
v -0.09341599 -0.00905707 0.08104228
v -0.09163326 -0.00880737 0.08123768
v -0.08905689 -0.00890271 0.08111744
v -0.07920155 -0.00261046 0.07187311
v -0.07719968 -0.00289647 0.07162509
v -0.07521558 -0.00018163 0.06807016
v -0.06189546 0.00317786 0.05912647
v -0.05506660 0.00526166 0.05368510
v -0.06636116 0.00407222 0.05368510
v -0.07778602 0.00007260 0.06498872
v -0.07952137 -0.00083084 0.06678874
v -0.09341599 -0.00905707 0.07996753
v -0.10044030 -0.01746489 0.08542018
v -0.10304036 -0.02080623 0.08852792
v -0.10295152 -0.02117850 0.09062105
v -0.09659648 -0.01539926 0.08711873
v -0.09550078 -0.01539926 0.08711873
v -0.09342784 -0.01562625 0.08693083
v -0.09006968 -0.01242110 0.08387194
v -0.08698396 -0.00932946 0.08075668
v -0.07512674 -0.00342310 0.07120422
v -0.07065511 -0.00267856 0.06872028
v -0.07300050 -0.00214286 0.06922007
v -0.06822681 0.00004536 0.06528935
v -0.05982252 0.00277836 0.05869807
v -0.05747121 0.00369087 0.05661998
v -0.05432627 0.00499835 0.05368510
v -0.06829788 0.00305075 0.05368510
v -0.06857625 0.00323234 0.05527091
v -0.07721153 -0.00034961 0.06291815
v -0.08137517 -0.00238801 0.06678874
v -0.07464108 0.00006806 0.05887094
v -0.09310209 -0.00946111 0.07789696
v -0.09991911 -0.01780084 0.08300012
v -0.10276791 -0.02106046 0.08648365
v -0.10381031 -0.02329862 0.08852792
v -0.10340757 -0.02329862 0.09120727
v -0.10094965 -0.02329862 0.09207534
v -0.10094965 -0.02055200 0.09086155
v -0.09784616 -0.01927630 0.08991833
v -0.08882591 -0.01418257 0.08425900
v -0.08956033 -0.01314294 0.08403353
v -0.09236768 -0.01769189 0.08737051
v -0.08680628 -0.01535386 0.08395462
v -0.08779537 -0.01314294 0.08326693
v -0.08542037 -0.01149951 0.08130157
v -0.08361395 -0.01221681 0.08088820
v -0.08542037 -0.00994688 0.08038466
v -0.08066445 -0.00924320 0.07770155
v -0.07775049 -0.00626959 0.07451113
v -0.06858217 -0.00330960 0.06823175
v -0.06193692 0.00012708 0.06223797
v -0.06615387 -0.00056752 0.06483465
v -0.06368411 0.00054020 0.06268892
v -0.05551080 0.00331406 0.05613898
v -0.05382284 0.00474866 0.05368510
v -0.06910337 0.00235615 0.05368510
v -0.08088952 -0.00292371 0.06500000
v -0.07199956 0.00049934 0.05509429
v -0.07406658 -0.00066286 0.05680036
v -0.07824207 -0.00241979 0.06117450
v -0.09264605 -0.01065056 0.07591656
v -0.09368844 -0.01153583 0.07682972
v -0.09688077 -0.01475913 0.07980595
v -0.09043688 -0.00888001 0.07395121
v -0.08981500 -0.00986516 0.07188439
v -0.09624112 -0.01575336 0.07773537
v -0.09731905 -0.01690649 0.07894163
v -0.10034554 -0.02018881 0.08244020
v -0.10289821 -0.02329862 0.08630703
v -0.10277976 -0.02564119 0.08658136
v -0.10322396 -0.02656732 0.08844525
v -0.10320027 -0.02640388 0.09097053
v -0.10094965 -0.02640388 0.09174465
v -0.09754411 -0.02668082 0.09078640
v -0.09784616 -0.02329862 0.09108702
v -0.09784616 -0.02082893 0.09048953
v -0.08799674 -0.01328368 0.08342851
v -0.09499143 -0.02038403 0.08929828
v -0.09029474 -0.01949875 0.08686695
v -0.08852978 -0.01708808 0.08530744
v -0.08642722 -0.01708808 0.08418384
v -0.08086582 -0.01588956 0.08069279
v -0.07753727 -0.01227583 0.07772785
v -0.07444563 -0.00922958 0.07460131
v -0.07147244 -0.00623781 0.07143344
v -0.07609806 -0.00696419 0.07412783
v -0.06757531 -0.00537524 0.06879919
v -0.06663953 -0.00446727 0.06774699
v -0.05597277 -0.00005906 0.05899119
v -0.05343787 0.00263308 0.05559033
v -0.05157222 0.00353197 0.05368510
v -0.07152574 0.00000904 0.05368510
v -0.07760242 -0.00320518 0.05910392
v -0.08031501 -0.00381352 0.06292942
v -0.09305471 -0.01275705 0.07475539
v -0.08903913 -0.01088663 0.07000546
v -0.09030066 -0.01193534 0.07112154
v -0.08096059 -0.00588370 0.06184716
v -0.08703134 -0.00922504 0.06825430
v -0.09545932 -0.01690649 0.07625477
v -0.09647210 -0.01781900 0.07739340
v -0.09345745 -0.01482723 0.07416540
v -0.09374767 -0.01708808 0.07379338
v -0.09930907 -0.02018881 0.08088820
v -0.10194466 -0.02329862 0.08475504
v -0.10039292 -0.02329862 0.08245147
v -0.10013232 -0.02640388 0.08284229
v -0.10179659 -0.02656732 0.08549533
v -0.10241848 -0.02771136 0.08735923
v -0.10267908 -0.02809271 0.08942605
v -0.10267908 -0.02809271 0.09030163
v -0.10094965 -0.02836964 0.09053086
v -0.09838513 -0.02836964 0.09045194
v -0.09631811 -0.02790204 0.09007240
v -0.09601013 -0.02583186 0.09022271
v -0.09601013 -0.02329862 0.09022271
v -0.09619966 -0.02155077 0.09012877
v -0.09004006 -0.02156893 0.08699096
v -0.08881407 -0.02039764 0.08614545
v -0.08597117 -0.02018881 0.08446568
v -0.08487548 -0.01708808 0.08329323
v -0.08054600 -0.01795520 0.08088820
v -0.07657188 -0.01708808 0.07831032
v -0.07501421 -0.01708808 0.07735958
v -0.07130660 -0.01516318 0.07464265
v -0.07560055 -0.01398282 0.07701010
v -0.07714638 -0.01398282 0.07796083
v -0.07733590 -0.01314294 0.07784810
v -0.08206221 -0.01698821 0.08161722
v -0.06842818 -0.00951559 0.07139962
v -0.07049520 -0.00830799 0.07199712
v -0.06550238 -0.00657830 0.06818666
v -0.06174739 -0.00573389 0.06549604
v -0.06368411 -0.00468064 0.06610481
v -0.05882751 -0.00289647 0.06224549
v -0.05740014 -0.00147550 0.06062210
v -0.05508437 -0.00212924 0.05956238
v -0.05417820 -0.00128028 0.05851770
v -0.05228294 0.00056290 0.05627426
v -0.05029884 0.00251050 0.05368510
v -0.07218909 -0.00087169 0.05368510
v -0.07698646 -0.00440825 0.05738283
v -0.07814731 -0.00527082 0.05835987
v -0.07479507 -0.00273304 0.05558657
v -0.08424175 -0.00858492 0.06472943
v -0.08139887 -0.00776775 0.06127596
v -0.08741631 -0.01087301 0.06776202
v -0.08626731 -0.01087301 0.06621002
v -0.08953071 -0.01398282 0.06909230
v -0.09067379 -0.01398282 0.07064805
v -0.09808307 -0.02018881 0.07920845
v -0.09259274 -0.01708808 0.07224514
v -0.09545340 -0.02018881 0.07567231
v -0.09930314 -0.02329862 0.08090324
v -0.09643656 -0.02532793 0.07747232
v -0.09900109 -0.02640388 0.08128654
v -0.09978288 -0.02857394 0.08335712
v -0.10039292 -0.02912326 0.08542018
v -0.09891817 -0.03068043 0.08542018
v -0.09737235 -0.03153847 0.08542018
v -0.09702883 -0.03125245 0.08726529
v -0.09473675 -0.03124338 0.08722770
v -0.09306063 -0.03111172 0.08702478
v -0.09488482 -0.02668082 0.08954630
v -0.09076262 -0.02950461 0.08668282
v -0.09008744 -0.02789750 0.08697217
v -0.09131936 -0.02668082 0.08772374
v -0.08996307 -0.02582732 0.08703605
v -0.09162735 -0.02329862 0.08794922
v -0.09446431 -0.02329862 0.08943732
v -0.08996307 -0.02329862 0.08703605
v -0.08841133 -0.02329862 0.08615295
v -0.08569873 -0.02329862 0.08460096
v -0.08414699 -0.02329862 0.08370284
v -0.08029725 -0.02018881 0.08104228
v -0.07874550 -0.02018881 0.08009530
v -0.07470623 -0.02018881 0.07755123
v -0.07300642 -0.01708808 0.07606312
v -0.07626390 -0.02018881 0.07853954
v -0.07170935 -0.01308847 0.07438336
v -0.07108154 -0.01708808 0.07480048
v -0.06952388 -0.01708808 0.07373701
v -0.06764638 -0.01398282 0.07194076
v -0.06777668 -0.01314294 0.07183929
v -0.06934028 -0.01314294 0.07287646
v -0.06803136 -0.01158577 0.07165140
v -0.06691197 -0.01067780 0.07068187
v -0.06428230 -0.01087301 0.06897581
v -0.06273056 -0.01087301 0.06793488
v -0.05915918 -0.00970627 0.06514279
v -0.05961522 -0.00776775 0.06483841
v -0.06117289 -0.00776775 0.06589061
v -0.05301735 -0.00355021 0.05888597
v -0.05021592 -0.00080814 0.05557530
v -0.04916761 0.00119848 0.05368510
v -0.04946966 0.00155713 0.05368510
v -0.07269844 -0.00171157 0.05368510
v -0.07529849 -0.00466248 0.05492895
v -0.08024394 -0.00776775 0.05972397
v -0.07482468 -0.00568395 0.05368510
v -0.07737144 -0.00705953 0.05628929
v -0.07420872 -0.00439009 0.05368510
v -0.07435087 -0.00466248 0.05368510
v -0.08062299 -0.00986970 0.05920539
v -0.08797897 -0.01398282 0.06708936
v -0.09104100 -0.01708808 0.07025348
v -0.09390166 -0.02018881 0.07361676
v -0.09803569 -0.02329862 0.07920845
v -0.09611082 -0.02739357 0.07788944
v -0.09657279 -0.02329862 0.07728067
v -0.09534679 -0.02329862 0.07572867
v -0.09379505 -0.02329862 0.07377834
v -0.09253944 -0.02329862 0.07223762
v -0.09063233 -0.02640388 0.07079085
v -0.09219000 -0.02640388 0.07266602
v -0.09322647 -0.02803369 0.07449985
v -0.09391350 -0.02924584 0.07615707
v -0.09680970 -0.02950461 0.08009530
v -0.09634773 -0.03112080 0.08067777
v -0.09686300 -0.03144767 0.08231619
v -0.08611924 -0.03677293 0.07610446
v -0.08456750 -0.03757194 0.07610446
v -0.08445497 -0.03746753 0.07790071
v -0.08341850 -0.03746753 0.07790071
v -0.08408184 -0.03403539 0.08068153
v -0.08684773 -0.03117982 0.08394710
v -0.08636800 -0.02950461 0.08423646
v -0.08481033 -0.02950461 0.08330451
v -0.08048677 -0.02851492 0.08092955
v -0.08420622 -0.02640388 0.08365775
v -0.08575796 -0.02640388 0.08457090
v -0.08876669 -0.02668082 0.08629200
v -0.08231688 -0.02329862 0.08258300
v -0.08008995 -0.02329862 0.08119635
v -0.07464700 -0.02329862 0.07758881
v -0.07300642 -0.02018881 0.07637878
v -0.07853821 -0.02329862 0.08019301
v -0.07619875 -0.02329862 0.07863725
v -0.07091571 -0.02018881 0.07492825
v -0.06731471 -0.01708808 0.07218877
v -0.06228043 -0.01398282 0.06823927
v -0.06383217 -0.01398282 0.06931401
v -0.06239889 -0.01314294 0.06816035
v -0.05882158 -0.01178098 0.06539457
v -0.06034964 -0.01079583 0.06624761
v -0.05565887 -0.00865302 0.06232441
v -0.05607346 -0.00658284 0.06202002
v -0.05256723 -0.00562039 0.05919787
v -0.05142415 -0.00461254 0.05803294
v -0.04916761 -0.00466248 0.05633814
v -0.04958220 -0.00288285 0.05601121
v -0.04758032 -0.00103059 0.05368510
v -0.07537549 -0.00713670 0.05368510
v -0.07771495 -0.00912970 0.05584586
v -0.07965759 -0.01089117 0.05768721
v -0.08088359 -0.01193988 0.05887094
v -0.08672928 -0.01398282 0.06553737
v -0.08978539 -0.01708808 0.06869772
v -0.09269343 -0.02018881 0.07206852
v -0.09114168 -0.02018881 0.07022717
v -0.09098769 -0.02329862 0.07042258
v -0.08928196 -0.02640388 0.06923510
v -0.09031843 -0.02850584 0.07115912
v -0.08983869 -0.03057602 0.07174535
v -0.09561331 -0.02950461 0.07853954
v -0.09350483 -0.03144313 0.07723181
v -0.08969062 -0.03378570 0.07521384
v -0.08762361 -0.03471637 0.07369943
v -0.09033028 -0.03431686 0.07728442
v -0.08421214 -0.03747661 0.07415413
v -0.07461739 -0.04041844 0.06844971
v -0.07461739 -0.04041844 0.06818666
v -0.07300642 -0.04043206 0.06846098
v -0.08235834 -0.03573330 0.07859215
v -0.07138360 -0.04041390 0.06840086
v -0.08017879 -0.03470729 0.07801720
v -0.08305722 -0.03196521 0.08126775
v -0.08099020 -0.03058510 0.08062140
v -0.08213920 -0.02953185 0.08165481
v -0.07935554 -0.02953185 0.07990365
v -0.07676140 -0.02950461 0.07824268
v -0.07520373 -0.02950461 0.07722054
v -0.07118223 -0.02864657 0.07472908
v -0.07628759 -0.02640388 0.07857337
v -0.07863889 -0.02640388 0.08012536
v -0.08019064 -0.02640388 0.08112870
v -0.08231688 -0.02640388 0.08247778
v -0.07473584 -0.02640388 0.07752493
v -0.06941135 -0.02640388 0.07380089
v -0.06712519 -0.02329862 0.07230902
v -0.06556752 -0.02329862 0.07121173
v -0.06935804 -0.02018881 0.07382720
v -0.06576297 -0.01708808 0.07106517
v -0.06215013 -0.01572613 0.06832946
v -0.06717849 -0.02018881 0.07228272
v -0.06189546 -0.02018881 0.06850983
v -0.06033779 -0.02018881 0.06739375
v -0.06057470 -0.01398282 0.06699918
v -0.05869129 -0.01314294 0.06548852
v -0.05346748 -0.01398282 0.06162544
v -0.05377546 -0.01087301 0.06139246
v -0.05533312 -0.01087301 0.06257994
v -0.05064828 -0.00776775 0.05832605
v -0.04861088 -0.00776775 0.05677405
v -0.04760994 -0.00466248 0.05512436
v -0.04657347 -0.00296911 0.05368510
v -0.04707097 -0.00197942 0.05368510
v -0.07558278 -0.00800836 0.05368510
v -0.07792817 -0.01087301 0.05560536
v -0.07808216 -0.01314294 0.05543250
v -0.08017879 -0.01314294 0.05786759
v -0.08096059 -0.01314294 0.05878451
v -0.08395155 -0.01499067 0.06203505
v -0.08497025 -0.01396466 0.06342921
v -0.08823365 -0.01708808 0.06685638
v -0.08978539 -0.02018881 0.06867142
v -0.08691289 -0.01708808 0.06530439
v -0.08960771 -0.02329862 0.06886683
v -0.08805597 -0.02329862 0.06716452
v -0.08366133 -0.02329862 0.06234695
v -0.08772430 -0.02640388 0.06752903
v -0.08733932 -0.02866927 0.06795367
v -0.08859493 -0.02962264 0.06984387
v -0.09063825 -0.03171552 0.07380841
v -0.08680035 -0.03073945 0.06852487
v -0.08777168 -0.03194705 0.07059544
v -0.08873707 -0.03286865 0.07272614
v -0.08682404 -0.03401723 0.07163637
v -0.08391601 -0.03420791 0.06828812
v -0.07469438 -0.03737673 0.06197117
v -0.07538733 -0.03790336 0.06368099
v -0.08552105 -0.03580594 0.07289149
v -0.07380598 -0.04007795 0.06611232
v -0.07287612 -0.04048200 0.06700293
v -0.07175673 -0.04047292 0.06498872
v -0.07102824 -0.04047292 0.06679250
v -0.05449210 -0.03768998 0.05368510
v -0.05372215 -0.03749931 0.05368510
v -0.05358593 -0.03684103 0.05508678
v -0.04939267 -0.03497060 0.05368510
v -0.05209933 -0.03477539 0.05658240
v -0.06488049 -0.03754017 0.06554489
v -0.06814389 -0.03745845 0.06849104
v -0.07016353 -0.03862973 0.06896829
v -0.07810585 -0.03361772 0.07735582
v -0.07191072 -0.03692729 0.07125307
v -0.06982001 -0.03582410 0.07063302
v -0.07917193 -0.03259625 0.07854330
v -0.07729444 -0.03154755 0.07788568
v -0.07159089 -0.03071675 0.07445476
v -0.07277543 -0.02961357 0.07555205
v -0.07004507 -0.02961357 0.07366561
v -0.06763454 -0.02950461 0.07196706
v -0.06215606 -0.02782486 0.06832570
v -0.06566821 -0.02640388 0.07113282
v -0.06722587 -0.02640388 0.07225642
v -0.06368411 -0.02329862 0.06987769
v -0.06202576 -0.01779176 0.06841589
v -0.05822339 -0.02018881 0.06584176
v -0.05841292 -0.01708808 0.06569896
v -0.06183623 -0.02329862 0.06855868
v -0.05862021 -0.01398282 0.06554865
v -0.05706255 -0.01398282 0.06436492
v -0.05482377 -0.01708808 0.06296700
v -0.04989610 -0.01398282 0.05887845
v -0.04997309 -0.01314294 0.05881833
v -0.05019816 -0.01087301 0.05864546
v -0.04794161 -0.01098197 0.05689430
v -0.04705913 -0.00776775 0.05554900
v -0.04582129 -0.00466248 0.05368510
v -0.07624021 -0.01087301 0.05368510
v -0.07813547 -0.01398282 0.05536862
v -0.07968721 -0.01398282 0.05717239
v -0.08400485 -0.01708808 0.06197492
v -0.08396339 -0.01926722 0.06202378
v -0.07625205 -0.02018881 0.05368510
v -0.07616321 -0.02074721 0.05368510
v -0.07779195 -0.02237248 0.05576319
v -0.08060523 -0.02401591 0.05918284
v -0.07755504 -0.02444720 0.05601497
v -0.08328228 -0.02640388 0.06274528
v -0.07870996 -0.02640388 0.05791268
v -0.07470623 -0.02640388 0.05368510
v -0.07817692 -0.02897798 0.05848012
v -0.07337362 -0.02950461 0.05368510
v -0.07764388 -0.03105270 0.05902877
v -0.08155286 -0.03261441 0.06439122
v -0.08310460 -0.03261441 0.06606347
v -0.08454381 -0.03261441 0.06762298
v -0.07709307 -0.03261441 0.05963002
v -0.08090728 -0.03430325 0.06508643
v -0.07368753 -0.03654140 0.05989683
v -0.07162643 -0.03738581 0.05885215
v -0.07279912 -0.03781710 0.06079120
v -0.07287612 -0.03943329 0.06384633
v -0.07580193 -0.03546545 0.06089642
v -0.07096309 -0.04047292 0.06498872
v -0.06848149 -0.03734949 0.05579326
v -0.06679352 -0.03765820 0.05509805
v -0.06377295 -0.03795783 0.05368510
v -0.06059247 -0.03844360 0.05368510
v -0.06057470 -0.03858887 0.05436151
v -0.05747121 -0.03831648 0.05368510
v -0.05747121 -0.03830740 0.05436151
v -0.05195127 -0.03655502 0.05368510
v -0.05112209 -0.03607833 0.05368510
v -0.04880040 -0.03444852 0.05368510
v -0.05003232 -0.03374484 0.05560912
v -0.05527982 -0.03472091 0.05962251
v -0.05844845 -0.03465735 0.06257618
v -0.06182439 -0.03450300 0.06546597
v -0.06743317 -0.03571968 0.06903218
v -0.07080910 -0.03485711 0.07186560
v -0.06873616 -0.03358595 0.07118167
v -0.07226608 -0.03261441 0.07401133
v -0.06808467 -0.03151577 0.07164764
v -0.06608280 -0.02950461 0.07080212
v -0.06077607 -0.02663542 0.06745012
v -0.06194284 -0.02575468 0.06847977
v -0.06338797 -0.02663542 0.06941548
v -0.05873867 -0.02865111 0.06545470
v -0.05689671 -0.02640388 0.06447766
v -0.05844253 -0.02640388 0.06568393
v -0.06027857 -0.02329862 0.06741254
v -0.05821155 -0.02329862 0.06585679
v -0.05666573 -0.02018881 0.06465803
v -0.05327203 -0.01708808 0.06177200
v -0.04975988 -0.01641164 0.05897992
v -0.04814890 -0.01398282 0.05748053
v -0.04742633 -0.01314294 0.05681915
v -0.04652017 -0.01208970 0.05598491
v -0.04677484 -0.01001952 0.05577446
v -0.04477298 -0.00801290 0.05368510
v -0.04479075 -0.00795388 0.05368510
v -0.04576206 -0.00484407 0.05368510
v -0.07663110 -0.01398282 0.05368510
v -0.07674956 -0.01398282 0.05381287
v -0.07672587 -0.01708808 0.05384293
v -0.07658372 -0.01708808 0.05368510
v -0.07656003 -0.01739680 0.05368510
v -0.07567755 -0.02323052 0.05368510
v -0.07547025 -0.02404315 0.05368510
v -0.07322556 -0.02977700 0.05368510
v -0.07459370 -0.03112988 0.05586465
v -0.07212394 -0.03170190 0.05368510
v -0.07536957 -0.03234656 0.05760078
v -0.07787487 -0.03439404 0.06189601
v -0.07385336 -0.03320460 0.05664628
v -0.07483653 -0.03446668 0.05872063
v -0.07179227 -0.03450754 0.05556778
v -0.07055442 -0.03657772 0.05678157
v -0.06915667 -0.03500238 0.05368510
v -0.06714888 -0.03650508 0.05368510
v -0.06679352 -0.03674569 0.05368510
v -0.06958903 -0.03549723 0.05464335
v -0.06434153 -0.03777170 0.05368510
v -0.04758032 -0.03320914 0.05368510
v -0.04672154 -0.03211503 0.05368510
v -0.05321280 -0.03360411 0.05865298
v -0.05638736 -0.03341797 0.06169685
v -0.06525362 -0.03413981 0.06833321
v -0.05743568 -0.03247368 0.06302712
v -0.06465543 -0.03206963 0.06878040
v -0.05576548 -0.03134325 0.06225676
v -0.05916510 -0.03072583 0.06512401
v -0.06249957 -0.02950461 0.06806265
v -0.05665388 -0.02329862 0.06465427
v -0.06035556 -0.02961811 0.06638664
v -0.05761336 -0.02961811 0.06427849
v -0.05539235 -0.02950461 0.06256491
v -0.05494815 -0.02640388 0.06292190
v -0.05467570 -0.02018881 0.06310980
v -0.04964142 -0.02018881 0.05907010
v -0.04808967 -0.02018881 0.05781498
v -0.04845688 -0.01729692 0.05796153
v -0.04630103 -0.01708808 0.05617280
v -0.04641356 -0.01398282 0.05607134
v -0.05312396 -0.02018881 0.06188098
v -0.04646094 -0.01314294 0.05603752
v -0.04486182 -0.01398282 0.05472227
v -0.04368320 -0.01398282 0.05368510
v -0.04379573 -0.01314294 0.05368510
v -0.04412148 -0.01091841 0.05368510
v -0.04430508 -0.01001952 0.05368510
v -0.07663110 -0.01421435 0.05368510
v -0.07102824 -0.03310018 0.05368510
v -0.07051889 -0.03364496 0.05368510
v -0.04560215 -0.03014473 0.05368510
v -0.04928606 -0.03167466 0.05628929
v -0.05252577 -0.03153393 0.05928054
v -0.06123212 -0.03261441 0.06592067
v -0.04543039 -0.02950461 0.05383541
v -0.05206380 -0.02950461 0.05968263
v -0.05382876 -0.02950461 0.06123463
v -0.05471716 -0.02329862 0.06310228
v -0.04964142 -0.02228623 0.05907762
v -0.04999678 -0.02640388 0.05877323
v -0.05155445 -0.02640388 0.06009224
v -0.05339048 -0.02640388 0.06164424
v -0.04977172 -0.02436094 0.05896864
v -0.04620034 -0.02018881 0.05625547
v -0.04474336 -0.01708808 0.05481997
v -0.04345814 -0.01708808 0.05368510
v -0.04526456 -0.02950461 0.05368510
v -0.04516387 -0.02926854 0.05368510
v -0.04677484 -0.02725738 0.05575943
v -0.04842135 -0.02331224 0.05794650
v -0.04631287 -0.02329862 0.05616528
v -0.04794753 -0.02629493 0.05700328
v -0.04651424 -0.02518720 0.05599242
v -0.04464860 -0.02018881 0.05488385
v -0.04341076 -0.01789618 0.05368510
v -0.04437023 -0.02707124 0.05368510
v -0.04475521 -0.02329862 0.05478615
v -0.04413332 -0.02612241 0.05368510
v -0.04330415 -0.02018881 0.05368510
v -0.04352921 -0.02329862 0.05368510
f 1 2 6
f 1 6 16
f 1 16 35
f 1 35 64
f 1 64 100
f 1 100 149
f 1 149 205
f 1 205 204
f 1 204 261
f 1 261 316
f 1 316 315
f 1 315 379
f 1 379 444
f 1 444 443
f 1 443 442
f 1 442 493
f 1 493 492
f 1 492 491
f 1 491 490
f 1 490 512
f 1 512 521
f 1 521 525
f 1 525 526
f 1 526 524
f 1 524 522
f 1 522 514
f 1 514 513
f 1 513 497
f 1 497 467
f 1 467 466
f 1 466 416
f 1 416 349
f 1 349 415
f 1 415 414
f 1 414 347
f 1 347 346
f 1 346 412
f 1 412 410
f 1 410 409
f 1 409 465
f 1 465 463
f 1 463 462
f 1 462 461
f 1 461 496
f 1 496 495
f 1 495 454
f 1 454 452
f 1 452 394
f 1 394 392
f 1 392 451
f 1 451 450
f 1 450 386
f 1 386 385
f 1 385 449
f 1 449 448
f 1 448 494
f 1 494 445
f 1 445 380
f 1 380 317
f 1 317 262
f 1 262 209
f 1 209 212
f 1 212 211
f 1 211 206
f 1 206 150
f 1 150 101
f 1 101 65
f 1 65 36
f 1 36 17
f 1 17 7
f 1 7 3
f 1 3 4
f 1 4 5
f 1 5 2
f 2 5 6
f 3 7 4
f 4 7 8
f 4 8 9
f 4 9 10
f 4 10 5
f 5 10 11
f 5 11 12
f 5 12 13
f 5 13 14
f 5 14 15
f 5 15 6
f 6 15 16
f 7 17 8
f 8 18 19
f 8 19 20
f 8 20 9
f 8 17 18
f 9 20 21
f 9 21 22
f 9 22 23
f 9 23 24
f 9 24 10
f 10 24 25
f 10 25 11
f 11 25 26
f 11 26 27
f 11 27 28
f 11 28 13
f 11 13 12
f 13 28 29
f 13 29 30
f 13 30 31
f 13 31 32
f 13 32 14
f 14 32 15
f 15 32 33
f 15 33 34
f 15 34 16
f 16 34 35
f 17 36 37
f 17 37 18
f 18 38 39
f 18 39 19
f 18 37 36
f 18 36 40
f 18 40 38
f 19 39 20
f 20 41 21
f 20 39 41
f 21 42 43
f 21 43 22
f 21 41 42
f 22 44 23
f 22 43 44
f 23 44 45
f 23 45 46
f 23 46 47
f 23 47 24
f 24 47 25
f 25 47 48
f 25 48 26
f 26 49 50
f 26 50 27
f 26 48 51
f 26 51 52
f 26 52 49
f 27 50 53
f 27 53 54
f 27 54 28
f 28 54 55
f 28 55 56
f 28 56 57
f 28 57 58
f 28 58 29
f 29 58 30
f 30 58 59
f 30 59 60
f 30 60 61
f 30 61 32
f 30 32 31
f 32 61 60
f 32 60 62
f 32 62 33
f 33 63 34
f 33 62 63
f 34 63 35
f 35 63 64
f 36 65 40
f 38 40 39
f 39 40 66
f 39 66 41
f 40 65 67
f 40 67 68
f 40 68 69
f 40 69 66
f 41 70 71
f 41 71 72
f 41 72 42
f 41 66 73
f 41 73 74
f 41 74 70
f 42 72 75
f 42 75 76
f 42 76 77
f 42 77 43
f 43 78 44
f 43 77 78
f 44 78 79
f 44 79 80
f 44 80 81
f 44 81 45
f 45 81 46
f 46 81 82
f 46 82 83
f 46 83 84
f 46 84 85
f 46 85 48
f 46 48 47
f 48 85 51
f 49 52 53
f 49 53 86
f 49 86 50
f 50 86 53
f 51 85 87
f 51 87 88
f 51 88 89
f 51 89 52
f 52 90 91
f 52 91 92
f 52 92 55
f 52 55 53
f 52 89 88
f 52 88 90
f 53 55 54
f 55 57 56
f 55 92 93
f 55 93 94
f 55 94 57
f 57 95 58
f 57 94 95
f 58 95 94
f 58 94 59
f 59 94 96
f 59 96 97
f 59 97 98
f 59 98 60
f 60 98 99
f 60 99 63
f 60 63 62
f 63 99 100
f 63 100 64
f 65 101 67
f 66 69 102
f 66 102 103
f 66 103 73
f 67 101 68
f 68 101 102
f 68 102 69
f 70 74 71
f 71 74 104
f 71 104 75
f 71 75 72
f 73 103 102
f 73 102 74
f 74 105 106
f 74 106 104
f 74 102 107
f 74 107 108
f 74 108 105
f 75 109 110
f 75 110 76
f 75 104 106
f 75 106 111
f 75 111 112
f 75 112 109
f 76 110 113
f 76 113 77
f 77 113 114
f 77 114 78
f 78 114 79
f 79 114 115
f 79 115 116
f 79 116 117
f 79 117 118
f 79 118 80
f 80 119 120
f 80 120 81
f 80 118 119
f 81 120 82
f 82 120 121
f 82 121 122
f 82 122 83
f 83 122 123
f 83 123 124
f 83 124 84
f 84 124 125
f 84 125 126
f 84 126 85
f 85 126 87
f 87 126 88
f 88 127 128
f 88 128 129
f 88 129 130
f 88 130 90
f 88 126 127
f 90 130 91
f 91 131 132
f 91 132 133
f 91 133 134
f 91 134 135
f 91 135 136
f 91 136 137
f 91 137 92
f 91 130 138
f 91 138 131
f 92 137 139
f 92 139 140
f 92 140 93
f 93 140 94
f 94 140 96
f 96 140 139
f 96 139 141
f 96 141 142
f 96 142 143
f 96 143 144
f 96 144 145
f 96 145 97
f 97 145 98
f 98 145 146
f 98 146 147
f 98 147 148
f 98 148 99
f 99 148 149
f 99 149 100
f 101 150 102
f 102 151 152
f 102 152 107
f 102 150 153
f 102 153 151
f 105 108 107
f 105 107 154
f 105 154 106
f 106 154 155
f 106 155 156
f 106 156 157
f 106 157 158
f 106 158 159
f 106 159 111
f 107 155 154
f 107 152 155
f 109 112 110
f 110 160 113
f 110 112 160
f 111 159 112
f 112 159 158
f 112 158 161
f 112 161 162
f 112 162 160
f 113 160 163
f 113 163 115
f 113 115 114
f 115 163 116
f 116 163 164
f 116 164 165
f 116 165 166
f 116 166 117
f 117 166 118
f 118 166 167
f 118 167 168
f 118 168 119
f 119 168 120
f 120 168 169
f 120 169 170
f 120 170 121
f 121 170 171
f 121 171 122
f 122 171 172
f 122 172 123
f 123 173 124
f 123 172 174
f 123 174 175
f 123 175 173
f 124 173 175
f 124 175 176
f 124 176 177
f 124 177 178
f 124 178 179
f 124 179 125
f 125 179 126
f 126 179 127
f 127 178 180
f 127 180 181
f 127 181 182
f 127 182 183
f 127 183 129
f 127 129 128
f 127 179 178
f 129 183 184
f 129 184 131
f 129 131 130
f 130 131 138
f 131 184 185
f 131 185 133
f 131 133 132
f 133 186 187
f 133 187 134
f 133 185 188
f 133 188 186
f 134 189 135
f 134 187 190
f 134 190 191
f 134 191 192
f 134 192 193
f 134 193 194
f 134 194 195
f 134 195 139
f 134 139 189
f 135 189 136
f 136 189 139
f 136 139 137
f 139 195 196
f 139 196 197
f 139 197 198
f 139 198 199
f 139 199 200
f 139 200 201
f 139 201 202
f 139 202 142
f 139 142 141
f 142 202 146
f 142 146 144
f 142 144 143
f 144 146 145
f 146 202 147
f 147 202 203
f 147 203 148
f 148 203 204
f 148 204 205
f 148 205 149
f 150 206 153
f 151 153 207
f 151 207 152
f 152 208 155
f 152 207 209
f 152 209 210
f 152 210 208
f 153 206 211
f 153 211 212
f 153 212 207
f 155 157 156
f 155 208 157
f 157 208 213
f 157 213 158
f 158 213 214
f 158 214 161
f 160 162 163
f 161 214 215
f 161 215 216
f 161 216 162
f 162 216 217
f 162 217 163
f 163 217 164
f 164 218 165
f 164 217 219
f 164 219 220
f 164 220 221
f 164 221 222
f 164 222 223
f 164 223 224
f 164 224 225
f 164 225 218
f 165 218 166
f 166 218 225
f 166 225 226
f 166 226 227
f 166 227 228
f 166 228 167
f 167 228 229
f 167 229 168
f 168 229 230
f 168 230 169
f 169 231 232
f 169 232 170
f 169 230 231
f 170 232 233
f 170 233 171
f 171 233 172
f 172 233 234
f 172 234 235
f 172 235 174
f 174 235 175
f 175 235 236
f 175 236 237
f 175 237 238
f 175 238 239
f 175 239 240
f 175 240 241
f 175 241 177
f 175 177 176
f 177 241 240
f 177 240 183
f 177 183 182
f 177 182 181
f 177 181 180
f 177 180 178
f 183 240 239
f 183 239 242
f 183 242 185
f 183 185 184
f 185 242 243
f 185 243 188
f 186 244 245
f 186 245 191
f 186 191 190
f 186 190 187
f 186 188 243
f 186 243 246
f 186 246 247
f 186 247 244
f 191 245 248
f 191 248 249
f 191 249 250
f 191 250 251
f 191 251 192
f 192 251 252
f 192 252 198
f 192 198 193
f 193 195 194
f 193 198 197
f 193 197 195
f 195 197 196
f 198 252 253
f 198 253 254
f 198 254 199
f 199 254 253
f 199 253 255
f 199 255 256
f 199 256 200
f 200 256 202
f 200 202 201
f 202 256 257
f 202 257 258
f 202 258 259
f 202 259 260
f 202 260 203
f 203 260 261
f 203 261 204
f 207 212 209
f 208 210 213
f 209 262 210
f 210 262 213
f 213 262 263
f 213 263 264
f 213 264 265
f 213 265 214
f 214 265 266
f 214 266 215
f 215 267 268
f 215 268 216
f 215 266 267
f 216 219 217
f 216 268 219
f 219 268 220
f 220 268 221
f 221 268 222
f 222 268 269
f 222 269 270
f 222 270 223
f 223 271 272
f 223 272 224
f 223 270 271
f 224 272 225
f 225 272 273
f 225 273 226
f 226 274 227
f 226 273 274
f 227 274 273
f 227 273 228
f 228 273 275
f 228 275 276
f 228 276 277
f 228 277 278
f 228 278 229
f 229 278 279
f 229 279 230
f 230 279 231
f 231 280 232
f 231 279 281
f 231 281 280
f 232 280 282
f 232 282 233
f 233 283 234
f 233 282 284
f 233 284 283
f 234 283 285
f 234 285 235
f 235 285 286
f 235 286 287
f 235 287 237
f 235 237 236
f 237 287 288
f 237 288 238
f 238 289 290
f 238 290 291
f 238 291 292
f 238 292 293
f 238 293 294
f 238 294 295
f 238 295 296
f 238 296 239
f 238 288 287
f 238 287 289
f 239 296 243
f 239 243 242
f 243 295 294
f 243 294 246
f 243 296 295
f 244 297 298
f 244 298 299
f 244 299 248
f 244 248 245
f 244 247 293
f 244 293 297
f 246 294 293
f 246 293 247
f 248 299 300
f 248 300 301
f 248 301 249
f 249 302 303
f 249 303 250
f 249 301 304
f 249 304 305
f 249 305 306
f 249 306 302
f 250 252 251
f 250 303 307
f 250 307 253
f 250 253 252
f 253 307 308
f 253 308 309
f 253 309 310
f 253 310 311
f 253 311 255
f 255 257 256
f 255 311 312
f 255 312 257
f 257 312 313
f 257 313 259
f 257 259 258
f 259 313 314
f 259 314 260
f 260 314 315
f 260 315 316
f 260 316 261
f 262 317 318
f 262 318 263
f 263 318 264
f 264 318 265
f 265 318 319
f 265 319 320
f 265 320 321
f 265 321 322
f 265 322 323
f 265 323 266
f 266 323 322
f 266 322 267
f 267 322 324
f 267 324 269
f 267 269 268
f 269 325 270
f 269 324 326
f 269 326 325
f 270 325 327
f 270 327 271
f 271 327 328
f 271 328 329
f 271 329 330
f 271 330 331
f 271 331 272
f 272 331 332
f 272 332 273
f 273 333 275
f 273 332 334
f 273 334 335
f 273 335 333
f 275 333 336
f 275 336 337
f 275 337 276
f 276 337 277
f 277 337 338
f 277 338 339
f 277 339 340
f 277 340 341
f 277 341 279
f 277 279 278
f 279 341 340
f 279 340 342
f 279 342 281
f 280 281 343
f 280 343 282
f 281 342 344
f 281 344 343
f 282 343 345
f 282 345 284
f 283 284 285
f 284 345 346
f 284 346 347
f 284 347 348
f 284 348 349
f 284 349 350
f 284 350 351
f 284 351 352
f 284 352 353
f 284 353 285
f 285 354 286
f 285 353 355
f 285 355 352
f 285 352 356
f 285 356 354
f 286 354 357
f 286 357 358
f 286 358 287
f 287 358 290
f 287 290 289
f 290 358 359
f 290 359 291
f 291 359 360
f 291 360 292
f 292 297 293
f 292 360 359
f 292 359 361
f 292 361 362
f 292 362 363
f 292 363 364
f 292 364 365
f 292 365 298
f 292 298 297
f 298 365 300
f 298 300 299
f 300 365 366
f 300 366 301
f 301 366 304
f 302 306 367
f 302 367 303
f 303 367 306
f 303 306 368
f 303 368 369
f 303 369 307
f 304 366 370
f 304 370 305
f 305 370 306
f 306 370 368
f 307 369 371
f 307 371 308
f 308 371 372
f 308 372 309
f 309 372 373
f 309 373 374
f 309 374 375
f 309 375 310
f 310 375 376
f 310 376 313
f 310 313 311
f 311 313 312
f 313 377 378
f 313 378 314
f 313 376 377
f 314 378 379
f 314 379 315
f 317 380 318
f 318 380 319
f 319 381 320
f 319 380 381
f 320 381 382
f 320 382 321
f 321 382 322
f 322 326 324
f 322 382 381
f 322 381 326
f 325 326 383
f 325 383 384
f 325 384 327
f 326 381 383
f 327 384 385
f 327 385 328
f 328 385 329
f 329 385 386
f 329 386 387
f 329 387 388
f 329 388 330
f 330 388 389
f 330 389 390
f 330 390 331
f 331 390 391
f 331 391 392
f 331 392 393
f 331 393 394
f 331 394 395
f 331 395 334
f 331 334 332
f 333 335 338
f 333 338 336
f 334 396 397
f 334 397 398
f 334 398 335
f 334 395 399
f 334 399 396
f 335 398 338
f 336 338 337
f 338 398 400
f 338 400 339
f 339 401 402
f 339 402 403
f 339 403 404
f 339 404 340
f 339 400 405
f 339 405 401
f 340 404 342
f 342 404 344
f 343 344 406
f 343 406 345
f 344 404 407
f 344 407 408
f 344 408 409
f 344 409 410
f 344 410 411
f 344 411 406
f 345 406 412
f 345 412 413
f 345 413 346
f 346 413 412
f 347 414 348
f 348 414 415
f 348 415 349
f 349 416 350
f 350 416 417
f 350 417 418
f 350 418 351
f 351 418 419
f 351 419 352
f 352 419 420
f 352 420 421
f 352 421 356
f 352 355 353
f 354 358 357
f 354 356 422
f 354 422 423
f 354 423 358
f 356 421 423
f 356 423 422
f 358 423 424
f 358 424 359
f 359 424 423
f 359 423 425
f 359 425 362
f 359 362 361
f 362 425 426
f 362 426 363
f 363 427 428
f 363 428 429
f 363 429 364
f 363 426 430
f 363 430 431
f 363 431 432
f 363 432 427
f 364 429 428
f 364 428 370
f 364 370 365
f 365 370 366
f 368 370 433
f 368 433 434
f 368 434 435
f 368 435 369
f 369 435 373
f 369 373 372
f 369 372 371
f 370 428 433
f 373 436 374
f 373 435 436
f 374 437 438
f 374 438 439
f 374 439 440
f 374 440 375
f 374 436 437
f 375 440 376
f 376 440 377
f 377 440 441
f 377 441 378
f 378 441 442
f 378 442 443
f 378 443 444
f 378 444 379
f 380 445 446
f 380 446 381
f 381 446 383
f 383 446 447
f 383 447 384
f 384 447 448
f 384 448 449
f 384 449 385
f 386 450 387
f 387 450 388
f 388 450 389
f 389 391 390
f 389 450 451
f 389 451 392
f 389 392 391
f 392 394 393
f 394 452 453
f 394 453 395
f 395 453 454
f 395 454 455
f 395 455 399
f 396 400 397
f 396 399 456
f 396 456 400
f 397 400 398
f 399 455 457
f 399 457 456
f 400 456 405
f 401 405 458
f 401 458 459
f 401 459 460
f 401 460 402
f 402 404 403
f 402 460 407
f 402 407 404
f 405 456 458
f 406 411 412
f 407 461 462
f 407 462 463
f 407 463 408
f 407 460 464
f 407 464 461
f 408 463 465
f 408 465 409
f 410 412 411
f 416 466 417
f 417 466 467
f 417 467 468
f 417 468 418
f 418 468 419
f 419 468 469
f 419 469 420
f 420 470 421
f 420 469 471
f 420 471 470
f 421 470 423
f 423 470 425
f 425 470 472
f 425 472 473
f 425 473 474
f 425 474 426
f 426 474 475
f 426 475 430
f 427 432 428
f 428 432 476
f 428 476 434
f 428 434 433
f 430 477 474
f 430 474 478
f 430 478 479
f 430 479 480
f 430 480 431
f 430 475 477
f 431 476 432
f 431 480 476
f 434 476 435
f 435 476 481
f 435 481 436
f 436 481 437
f 437 482 483
f 437 483 484
f 437 484 485
f 437 485 486
f 437 486 438
f 437 481 487
f 437 487 482
f 438 486 488
f 438 488 439
f 439 488 440
f 440 488 489
f 440 489 490
f 440 490 491
f 440 491 492
f 440 492 493
f 440 493 442
f 440 442 441
f 445 494 446
f 446 494 447
f 447 494 448
f 452 454 453
f 454 495 459
f 454 459 457
f 454 457 455
f 456 457 458
f 457 459 458
f 459 495 496
f 459 496 461
f 459 461 464
f 459 464 460
f 467 497 498
f 467 498 469
f 467 469 468
f 469 498 499
f 469 499 473
f 469 473 471
f 470 471 500
f 470 500 472
f 471 473 500
f 472 500 473
f 473 499 501
f 473 501 502
f 473 502 503
f 473 503 479
f 473 479 478
f 473 478 474
f 474 477 475
f 476 480 504
f 476 504 505
f 476 505 487
f 476 487 481
f 479 503 506
f 479 506 507
f 479 507 508
f 479 508 480
f 480 508 509
f 480 509 504
f 482 505 483
f 482 487 505
f 483 505 510
f 483 510 485
f 483 485 484
f 485 510 511
f 485 511 486
f 486 511 489
f 486 489 488
f 489 511 490
f 490 511 512
f 497 513 501
f 497 501 498
f 498 501 499
f 501 513 514
f 501 514 502
f 502 514 515
f 502 515 503
f 503 515 506
f 504 509 505
f 505 509 516
f 505 516 517
f 505 517 510
f 506 515 518
f 506 518 519
f 506 519 509
f 506 509 507
f 507 509 508
f 509 519 517
f 509 517 516
f 510 517 520
f 510 520 521
f 510 521 511
f 511 521 512
f 514 522 515
f 515 522 519
f 515 519 518
f 517 519 523
f 517 523 520
f 519 522 524
f 519 524 523
f 520 523 525
f 520 525 521
f 523 524 526
f 523 526 525

