# https://github.com/mikedh/trimesh
v 0.05736047 0.09339426 0.07308154
v 0.05833503 0.09334221 0.07472541
v 0.05926053 0.09334221 0.07472541
v 0.05926053 0.09333643 0.07299587
v 0.05745863 0.09332486 0.07109093
v 0.05546743 0.09332486 0.07105014
v 0.05546743 0.09332486 0.07210255
v 0.05626671 0.09273491 0.07417473
v 0.05570581 0.09066429 0.07465607
v 0.05736047 0.09167068 0.07489674
v 0.05959005 0.09163020 0.07490490
v 0.06215618 0.09013796 0.07154779
v 0.06215618 0.09013796 0.07131936
v 0.05909225 0.09323232 0.07136831
v 0.05745863 0.09246885 0.06953679
v 0.05435964 0.09140463 0.06678339
v 0.05124664 0.09039245 0.06471120
v 0.04930452 0.09027678 0.06486213
v 0.04915027 0.09045029 0.06678339
v 0.04936061 0.09037510 0.06893308
v 0.05109239 0.09117327 0.06993654
v 0.05203190 0.09083781 0.07201689
v -0.00631590 0.04304022 0.05368537
v 0.05570581 0.08981985 0.07465607
v 0.05745863 0.08940920 0.07485187
v 0.05954097 0.08944390 0.07484371
v 0.06238053 0.08601988 0.07179253
v 0.06233847 0.08852428 0.07178438
v 0.06527620 0.07777791 0.06528228
v 0.06529022 0.07778949 0.06367919
v 0.06165136 0.08963477 0.06924717
v 0.06525516 0.07770851 0.06207202
v 0.06246468 0.08756994 0.06757474
v 0.05957603 0.09043872 0.06783580
v 0.05803355 0.08965213 0.06576361
v 0.05718519 0.09076262 0.06679563
v 0.05596522 0.09010326 0.06519662
v 0.05435964 0.09026521 0.06496003
v 0.05124664 0.08942077 0.06315706
v 0.04814765 0.08691058 0.05912690
v 0.04814765 0.08781286 0.06067696
v 0.04504166 0.08556874 0.05746670
v 0.04504166 0.08671972 0.05976324
v 0.04504166 0.08734437 0.06131738
v 0.04218107 0.08612398 0.06081973
v 0.04338000 0.08700891 0.06201491
v 0.04338000 0.08700891 0.06227598
v 0.03986033 0.08451029 0.06272060
v 0.03970609 0.08458548 0.06057090
v 0.03298228 0.07880165 0.05435842
v 0.03269482 0.07841414 0.05368537
v 0.03167818 0.07702601 0.05125422
v 0.03102613 0.07457367 0.04653877
v 0.02763969 0.06866838 0.03973481
v 0.02534700 0.06487997 0.03572505
v 0.02424623 0.06279779 0.03323272
v -0.00631590 0.04050689 0.04948389
v -0.00631590 0.03430663 0.05368537
v 0.02751349 0.03430663 0.05368537
v 0.05996866 0.08334775 0.07173135
v 0.06203699 0.08395504 0.07139278
v 0.06527620 0.07752921 0.06528228
v 0.06531125 0.07633196 0.06345891
v 0.06529022 0.07610060 0.06187214
v 0.06190377 0.08673707 0.06550255
v 0.06074691 0.08861103 0.06666918
v 0.06258387 0.07836208 0.05838858
v 0.06363555 0.07907349 0.06069328
v 0.06261892 0.08156054 0.06139080
v 0.06254180 0.08466646 0.06442974
v 0.06405623 0.06368271 0.05125422
v 0.06330603 0.06707204 0.05095644
v 0.06256984 0.06623339 0.04890057
v 0.06198090 0.06483369 0.04682839
v 0.06228238 0.07175116 0.05254730
v 0.06244364 0.07511157 0.05544346
v 0.05983545 0.08758151 0.06453172
v 0.05846124 0.08666767 0.06245953
v 0.05639291 0.08722292 0.06182727
v 0.05435964 0.08634377 0.05977956
v 0.05435964 0.08756416 0.06133370
v 0.05124664 0.08677178 0.05928191
v 0.05124664 0.08787070 0.06083605
v 0.04814765 0.08581166 0.05746670
v 0.04504166 0.08426738 0.05534964
v 0.04288921 0.08404181 0.05560255
v 0.04188659 0.08460283 0.05734433
v 0.04082088 0.08373526 0.05622665
v 0.03999355 0.08418061 0.05829884
v 0.03514876 0.08035750 0.05435842
v 0.03303136 0.07869754 0.05368537
v 0.03323468 0.07831581 0.05125422
v 0.02834082 0.06814783 0.03766263
v 0.03381662 0.07784732 0.04932072
v 0.02653892 0.06450402 0.03323272
v 0.02299823 0.06146750 0.03323272
v -0.00631590 0.03733736 0.04451145
v -0.00631590 0.03430663 0.03978784
v 0.04968313 0.03430663 0.03323272
v 0.05090309 0.03464209 0.03323272
v 0.05124664 0.03474620 0.03323272
v 0.05340611 0.03690935 0.03461961
v 0.05583201 0.04043170 0.03720985
v 0.05593017 0.04347978 0.04040379
v 0.05602132 0.04652208 0.04357326
v 0.05951994 0.05540605 0.05019365
v 0.06174952 0.05927544 0.05236782
v 0.06159528 0.06249703 0.05561071
v 0.06246468 0.07109180 0.06240651
v 0.06226134 0.07446378 0.06529452
v 0.06344625 0.07633196 0.06573098
v 0.06528320 0.07442908 0.06227598
v 0.06282225 0.06456186 0.05643877
v 0.06273110 0.06134026 0.05354668
v 0.06528320 0.07442908 0.06183951
v 0.06192480 0.08363694 0.06236164
v 0.05879077 0.08058886 0.05606757
v 0.05985648 0.08459706 0.06132962
v 0.06178458 0.07717639 0.05631640
v 0.06188274 0.08043848 0.05931862
v 0.06241559 0.06057101 0.04568624
v 0.06285029 0.06375790 0.04797870
v 0.06348130 0.06359017 0.05449303
v 0.06296247 0.06041485 0.05129909
v 0.05885387 0.04383260 0.03572505
v 0.05934466 0.04538267 0.03572505
v 0.05921144 0.04559088 0.03339180
v 0.05985648 0.04815312 0.03572505
v 0.05931661 0.04815312 0.03325719
v 0.05930960 0.04815312 0.03323272
v 0.06231043 0.06276887 0.04618796
v 0.05893800 0.05259510 0.03428920
v 0.05920443 0.05632568 0.03698957
v 0.05944282 0.05987117 0.03977153
v 0.05962511 0.06368271 0.04270033
v 0.05914133 0.06540630 0.04334483
v 0.06157424 0.06707204 0.04797870
v 0.06164436 0.07382177 0.05337128
v 0.05867158 0.08363694 0.05926151
v 0.05659624 0.08427894 0.05853135
v 0.05435964 0.08478792 0.05793988
v 0.05259982 0.08379310 0.05599415
v 0.05052448 0.08411700 0.05559031
v 0.04814765 0.08432522 0.05534149
v 0.04503465 0.08308747 0.05368537
v 0.04192866 0.08041534 0.05020589
v 0.04192866 0.08147378 0.05176003
v 0.03798833 0.07756970 0.04673049
v 0.03882267 0.08018977 0.05075657
v 0.03571667 0.07820013 0.04874149
v 0.03720306 0.08077972 0.05276349
v 0.03599011 0.07974441 0.05153976
v 0.03115935 0.07140413 0.04045274
v 0.02753452 0.06549305 0.03377116
v 0.02700166 0.06483369 0.03323272
v 0.03413914 0.07455632 0.04347128
v 0.03571667 0.07732099 0.04718735
v 0.00157880 0.03430663 0.03323272
v 0.00055515 0.03430663 0.03394248
v -0.00035632 0.03430663 0.03462777
v -0.00319588 0.03430663 0.03703037
v -0.00335013 0.03430663 0.03716090
v -0.00452101 0.03430663 0.03818883
v -0.00489261 0.03430663 0.03851924
v 0.05391794 0.03633675 0.03323272
v 0.05520100 0.03725060 0.03323272
v 0.05547444 0.03761498 0.03347746
v 0.05641395 0.03967981 0.03513766
v 0.05902915 0.04656835 0.04042011
v 0.05921845 0.04942557 0.04380169
v 0.05939374 0.05238111 0.04706090
v 0.06235249 0.05863343 0.05029563
v 0.06285029 0.06168729 0.05368537
v 0.05971626 0.07851825 0.05512530
v 0.05867859 0.07736148 0.05305719
v 0.05636486 0.07184370 0.04619613
v 0.05488549 0.07071007 0.04412394
v 0.05494158 0.07392010 0.04718735
v 0.05672244 0.08128292 0.05540268
v 0.05769701 0.08245703 0.05729946
v 0.05928857 0.06870887 0.04628179
v 0.05942879 0.07200565 0.04921874
v 0.05957603 0.07529087 0.05216794
v 0.05923248 0.05052450 0.03373444
v 0.05921845 0.04611721 0.03883333
v 0.05661026 0.03898575 0.03323272
v 0.05808263 0.04188923 0.03323272
v 0.05900812 0.04490839 0.03323272
v 0.05916237 0.04545207 0.03323272
v 0.05878376 0.05095250 0.03323272
v 0.05851032 0.05184321 0.03323272
v 0.05851733 0.05436496 0.03481541
v 0.05733943 0.05428398 0.03323272
v 0.05866456 0.05840207 0.03769934
v 0.05890295 0.06194178 0.04051393
v 0.05635786 0.05659173 0.03365286
v 0.05560064 0.05866235 0.03444013
v 0.05581799 0.06202854 0.03735261
v 0.05827895 0.06747113 0.04420960
v 0.05844020 0.07077947 0.04715063
v 0.05435964 0.08342294 0.05638574
v 0.05274705 0.08073924 0.05282876
v 0.05067873 0.08114988 0.05239229
v 0.04814765 0.08293131 0.05368537
v 0.04623358 0.07444642 0.04359365
v 0.04416526 0.07471826 0.04328772
v 0.04192866 0.07487443 0.04309600
v 0.04503465 0.08038064 0.05016510
v 0.04503465 0.08161838 0.05171516
v 0.04006366 0.07769116 0.04654693
v 0.03571667 0.07363669 0.04168463
v 0.03571667 0.07472984 0.04323469
v 0.03571667 0.07595601 0.04504174
v 0.02949067 0.06590371 0.03323272
v 0.02803933 0.06531954 0.03323272
v 0.03323468 0.07178586 0.03993469
v 0.05578293 0.03789260 0.03323272
v 0.05855238 0.07407626 0.05009575
v 0.05620361 0.06863946 0.04323061
v 0.05271901 0.06828086 0.04043234
v 0.05388288 0.07268814 0.04533951
v 0.05281015 0.07145040 0.04347944
v 0.05286624 0.07458524 0.04655509
v 0.05283119 0.07767380 0.04968376
v 0.05435964 0.08187287 0.05477041
v 0.05656820 0.05564897 0.03323272
v 0.05561466 0.05696190 0.03323272
v 0.05484342 0.05793937 0.03323272
v 0.05353231 0.05972079 0.03357944
v 0.05602132 0.06534267 0.04028957
v 0.04650001 0.07140991 0.04041195
v 0.04442467 0.07171067 0.04009786
v 0.04192866 0.07198251 0.03978376
v 0.04192866 0.07353836 0.04154186
v 0.04202682 0.07666163 0.04532319
v 0.03882267 0.07216181 0.03953494
v 0.03882267 0.07371766 0.04145212
v 0.04105926 0.07769116 0.04654693
v 0.03882267 0.07492070 0.04300626
v 0.03571667 0.07208084 0.03957981
v 0.03260367 0.06901541 0.03637771
v 0.03260367 0.06784707 0.03482357
v 0.03260367 0.06659198 0.03323272
v 0.05235442 0.06179718 0.03445237
v 0.05253671 0.06504192 0.03743828
v 0.05027909 0.06250859 0.03383234
v 0.05046138 0.06572441 0.03682641
v 0.05065068 0.06888816 0.03984087
v 0.04814065 0.07105710 0.04077907
v 0.05384081 0.05896889 0.03323272
v 0.05264889 0.06002733 0.03323272
v 0.05156915 0.06093539 0.03323272
v 0.04814065 0.06950703 0.03924532
v 0.04640886 0.06826929 0.03734038
v 0.04422135 0.06552197 0.03388537
v 0.04192866 0.06560295 0.03323272
v 0.04192866 0.06588635 0.03351417
v 0.04192866 0.06743642 0.03507239
v 0.04192866 0.06896914 0.03662245
v 0.04192866 0.07051920 0.03823370
v 0.03882267 0.06924098 0.03630836
v 0.03882267 0.07079683 0.03798080
v 0.03571667 0.06792805 0.03463185
v 0.03571667 0.06926990 0.03618191
v 0.03571667 0.07082575 0.03802567
v 0.03571667 0.06667874 0.03323272
v 0.05075585 0.06150221 0.03323272
v 0.04814065 0.06306384 0.03323272
v 0.04814065 0.06632592 0.03625126
v 0.04814065 0.06787599 0.03769118
v 0.04629668 0.06510554 0.03428920
v 0.04562360 0.06427845 0.03323272
v 0.04469811 0.06464861 0.03323272
v 0.03968506 0.06612349 0.03323272
v 0.03882267 0.06632014 0.03323272
v 0.03882267 0.06777188 0.03475830
f 1 2 3
f 1 3 4
f 1 4 5
f 1 5 6
f 1 6 7
f 1 7 2
f 2 7 8
f 2 8 9
f 2 9 10
f 2 10 11
f 2 11 3
f 3 11 12
f 3 12 13
f 3 13 4
f 4 14 5
f 4 13 14
f 5 15 16
f 5 16 6
f 5 14 15
f 6 16 17
f 6 17 18
f 6 18 19
f 6 19 7
f 7 19 20
f 7 20 21
f 7 21 22
f 7 22 8
f 8 22 23
f 8 23 9
f 9 24 10
f 9 23 58
f 9 58 24
f 10 24 25
f 10 25 11
f 11 25 26
f 11 26 27
f 11 27 28
f 11 28 12
f 12 28 29
f 12 29 30
f 12 30 13
f 13 31 14
f 13 30 32
f 13 32 33
f 13 33 31
f 14 31 34
f 14 34 35
f 14 35 36
f 14 36 37
f 14 37 15
f 15 37 16
f 16 37 38
f 16 38 17
f 17 39 40
f 17 40 41
f 17 41 18
f 17 38 39
f 18 41 42
f 18 42 43
f 18 43 44
f 18 44 45
f 18 45 46
f 18 46 19
f 19 46 47
f 19 47 20
f 20 47 48
f 20 48 23
f 20 23 22
f 20 22 21
f 23 48 49
f 23 49 50
f 23 50 51
f 23 51 52
f 23 52 53
f 23 53 54
f 23 54 55
f 23 55 56
f 23 56 57
f 23 57 97
f 23 97 98
f 23 98 58
f 24 58 25
f 25 58 59
f 25 59 26
f 26 60 61
f 26 61 27
f 26 59 60
f 27 61 62
f 27 62 29
f 27 29 28
f 29 62 63
f 29 63 30
f 30 63 64
f 30 64 32
f 31 33 65
f 31 65 66
f 31 66 34
f 32 67 68
f 32 68 69
f 32 69 70
f 32 70 33
f 32 64 71
f 32 71 72
f 32 72 73
f 32 73 74
f 32 74 75
f 32 75 76
f 32 76 67
f 33 70 65
f 34 66 77
f 34 77 35
f 35 78 79
f 35 79 37
f 35 37 36
f 35 77 78
f 37 79 80
f 37 80 81
f 37 81 82
f 37 82 38
f 38 82 83
f 38 83 39
f 39 83 84
f 39 84 40
f 40 84 85
f 40 85 42
f 40 42 41
f 42 85 86
f 42 86 43
f 43 86 87
f 43 87 45
f 43 45 44
f 45 87 88
f 45 88 89
f 45 89 90
f 45 90 49
f 45 49 46
f 46 49 47
f 47 49 48
f 49 90 50
f 50 90 91
f 50 91 51
f 51 91 52
f 52 91 92
f 52 92 53
f 53 93 54
f 53 92 94
f 53 94 93
f 54 56 55
f 54 93 56
f 56 93 95
f 56 95 155
f 56 155 215
f 56 215 214
f 56 214 243
f 56 243 266
f 56 266 275
f 56 275 274
f 56 274 256
f 56 256 273
f 56 273 272
f 56 272 268
f 56 268 267
f 56 267 252
f 56 252 251
f 56 251 250
f 56 250 228
f 56 228 227
f 56 227 226
f 56 226 193
f 56 193 191
f 56 191 190
f 56 190 130
f 56 130 189
f 56 189 188
f 56 188 187
f 56 187 186
f 56 186 217
f 56 217 166
f 56 166 165
f 56 165 101
f 56 101 100
f 56 100 99
f 56 99 158
f 56 158 96
f 56 96 57
f 57 96 97
f 58 98 164
f 58 164 163
f 58 163 162
f 58 162 161
f 58 161 160
f 58 160 159
f 58 159 158
f 58 158 99
f 58 99 59
f 59 99 100
f 59 100 101
f 59 101 102
f 59 102 103
f 59 103 104
f 59 104 105
f 59 105 106
f 59 106 107
f 59 107 108
f 59 108 109
f 59 109 110
f 59 110 61
f 59 61 60
f 61 110 111
f 61 111 62
f 62 112 63
f 62 111 110
f 62 110 109
f 62 109 113
f 62 113 114
f 62 114 112
f 63 112 115
f 63 115 64
f 64 115 71
f 65 70 116
f 65 116 117
f 65 117 118
f 65 118 77
f 65 77 66
f 67 69 68
f 67 76 119
f 67 119 120
f 67 120 69
f 69 120 116
f 69 116 70
f 71 121 122
f 71 122 72
f 71 115 112
f 71 112 123
f 71 123 124
f 71 124 125
f 71 125 126
f 71 126 127
f 71 127 128
f 71 128 129
f 71 129 130
f 71 130 121
f 72 122 131
f 72 131 73
f 73 131 74
f 74 131 132
f 74 132 133
f 74 133 134
f 74 134 135
f 74 135 136
f 74 136 137
f 74 137 75
f 75 137 136
f 75 136 76
f 76 136 138
f 76 138 119
f 77 118 117
f 77 117 139
f 77 139 78
f 78 140 79
f 78 139 140
f 79 140 141
f 79 141 80
f 80 141 142
f 80 142 143
f 80 143 81
f 81 143 82
f 82 143 144
f 82 144 83
f 83 144 84
f 84 144 85
f 85 145 146
f 85 146 147
f 85 147 86
f 85 144 145
f 86 147 148
f 86 148 149
f 86 149 150
f 86 150 88
f 86 88 87
f 88 150 151
f 88 151 89
f 89 151 152
f 89 152 92
f 89 92 90
f 90 92 91
f 92 152 94
f 93 94 153
f 93 153 154
f 93 154 155
f 93 155 95
f 94 156 153
f 94 152 150
f 94 150 157
f 94 157 156
f 96 158 159
f 96 159 160
f 96 160 161
f 96 161 162
f 96 162 163
f 96 163 164
f 96 164 98
f 96 98 97
f 101 165 102
f 102 165 166
f 102 166 167
f 102 167 103
f 103 167 168
f 103 168 169
f 103 169 170
f 103 170 171
f 103 171 104
f 104 171 106
f 104 106 105
f 106 171 107
f 107 171 170
f 107 170 114
f 107 114 108
f 108 114 113
f 108 113 109
f 112 114 123
f 114 170 169
f 114 169 172
f 114 172 124
f 114 124 173
f 114 173 123
f 116 120 174
f 116 174 117
f 117 175 176
f 117 176 177
f 117 177 178
f 117 178 179
f 117 179 180
f 117 180 139
f 117 174 175
f 119 138 136
f 119 136 181
f 119 181 182
f 119 182 183
f 119 183 174
f 119 174 120
f 121 131 122
f 121 130 184
f 121 184 131
f 123 173 124
f 124 172 169
f 124 169 185
f 124 185 125
f 125 185 169
f 125 169 186
f 125 186 187
f 125 187 126
f 126 187 188
f 126 188 189
f 126 189 127
f 127 129 128
f 127 189 129
f 129 189 130
f 130 190 184
f 131 184 132
f 132 184 191
f 132 191 192
f 132 192 133
f 133 192 193
f 133 193 194
f 133 194 134
f 134 194 135
f 135 194 195
f 135 195 136
f 136 195 196
f 136 196 197
f 136 197 198
f 136 198 199
f 136 199 200
f 136 200 181
f 139 180 140
f 140 180 179
f 140 179 201
f 140 201 141
f 141 201 142
f 142 201 202
f 142 202 203
f 142 203 143
f 143 204 144
f 143 203 205
f 143 205 206
f 143 206 204
f 144 204 207
f 144 207 208
f 144 208 209
f 144 209 145
f 145 209 210
f 145 210 146
f 146 210 148
f 146 148 147
f 148 210 211
f 148 211 212
f 148 212 213
f 148 213 157
f 148 157 149
f 149 157 150
f 150 152 151
f 153 156 214
f 153 214 154
f 154 214 215
f 154 215 155
f 156 216 214
f 156 157 213
f 156 213 212
f 156 212 211
f 156 211 216
f 166 217 167
f 167 217 168
f 168 217 186
f 168 186 169
f 174 183 175
f 175 183 218
f 175 218 219
f 175 219 176
f 176 219 177
f 177 220 221
f 177 221 178
f 177 219 220
f 178 221 179
f 179 221 222
f 179 222 223
f 179 223 224
f 179 224 225
f 179 225 201
f 181 200 182
f 182 200 183
f 183 200 218
f 184 190 191
f 191 193 192
f 193 226 194
f 194 226 196
f 194 196 195
f 196 226 227
f 196 227 197
f 197 227 228
f 197 228 229
f 197 229 198
f 198 230 199
f 198 229 230
f 199 230 219
f 199 219 200
f 200 219 218
f 201 225 202
f 202 225 224
f 202 224 231
f 202 231 203
f 203 231 205
f 204 206 207
f 205 231 232
f 205 232 206
f 206 232 233
f 206 233 234
f 206 234 207
f 207 235 208
f 207 234 236
f 207 236 237
f 207 237 235
f 208 235 238
f 208 238 209
f 209 238 210
f 210 238 237
f 210 237 239
f 210 239 240
f 210 240 211
f 211 240 241
f 211 241 216
f 214 216 241
f 214 241 242
f 214 242 243
f 219 230 229
f 219 229 244
f 219 244 245
f 219 245 220
f 220 222 221
f 220 245 246
f 220 246 247
f 220 247 248
f 220 248 222
f 222 248 223
f 223 248 249
f 223 249 224
f 224 249 231
f 228 250 229
f 229 250 251
f 229 251 252
f 229 252 244
f 231 249 253
f 231 253 254
f 231 254 255
f 231 255 256
f 231 256 257
f 231 257 232
f 232 258 259
f 232 259 260
f 232 260 233
f 232 257 258
f 233 260 261
f 233 261 262
f 233 262 234
f 234 262 236
f 235 237 238
f 236 262 263
f 236 263 264
f 236 264 265
f 236 265 237
f 237 265 240
f 237 240 239
f 240 265 243
f 240 243 242
f 240 242 241
f 243 265 264
f 243 264 263
f 243 263 266
f 244 252 267
f 244 267 246
f 244 246 245
f 246 267 268
f 246 268 247
f 247 268 248
f 248 268 269
f 248 269 270
f 248 270 253
f 248 253 249
f 253 270 254
f 254 270 271
f 254 271 272
f 254 272 273
f 254 273 255
f 255 273 256
f 256 274 257
f 257 274 258
f 258 274 275
f 258 275 259
f 259 275 260
f 260 275 276
f 260 276 261
f 261 276 266
f 261 266 262
f 262 266 263
f 266 276 275
f 268 272 271
f 268 271 269
f 269 271 270

