# https://github.com/mikedh/trimesh
v -0.02274440 0.02822019 0.05368350
v -0.02250322 0.02878316 0.05368350
v -0.02201194 0.02539198 0.04913776
v -0.02219058 0.02579409 0.04996645
v -0.02219058 0.02328757 0.04819499
v -0.02219058 0.02307311 0.04805688
v -0.02219058 0.02296588 0.04800483
v -0.02219058 0.02016447 0.04686390
v -0.02219058 0.01873025 0.04686790
v -0.02176183 -0.05035331 0.04640352
v -0.02219058 -0.05741715 0.05368350
v -0.02234244 0.02913166 0.05368350
v -0.01884091 0.02213484 0.03997825
v -0.01879625 0.01907875 0.03734609
v -0.02180649 0.02198739 0.04640352
v -0.02201194 0.02843466 0.05226433
v -0.02148492 0.02746958 0.05019463
v -0.02194048 0.02016447 0.04602121
v -0.02029690 -0.04503198 0.03734609
v -0.02066313 -0.04503198 0.03883331
v -0.02113656 -0.04812827 0.04193786
v -0.02172610 -0.05241751 0.04668976
v -0.02186902 -0.05433427 0.04879949
v -0.02197621 -0.05730992 0.05128553
v -0.02202980 -0.06019176 0.05368350
v -0.02146706 0.03063289 0.05368350
v -0.01673285 0.02314013 0.03734609
v -0.01810845 0.02071402 0.03734609
v -0.01884984 0.02520432 0.04308280
v -0.01826030 0.02419903 0.04101310
v -0.01916248 0.01706817 0.03734609
v -0.00629973 0.02994930 0.03323672
v -0.02136880 0.02016447 0.04446993
v -0.02139560 0.03049885 0.05340527
v -0.01884091 0.02822019 0.04626140
v -0.01968056 0.01706817 0.03883331
v -0.01974309 -0.04804785 0.03734609
v -0.02030583 -0.04812827 0.03883331
v -0.00630866 -0.00577203 0.03323672
v -0.00630866 -0.05736354 0.03323672
v -0.02151172 -0.05133180 0.04524057
v -0.02063634 -0.05123797 0.04193786
v -0.02155638 -0.05433427 0.04724621
v -0.02180649 -0.05617059 0.04943801
v -0.02187795 -0.05949476 0.05234440
v -0.02154745 -0.06157236 0.05327516
v -0.02176183 -0.06117024 0.05368350
v -0.01918928 0.03171861 0.05125150
v -0.01868013 0.03110203 0.04962417
v -0.02004679 0.03248263 0.05368350
v -0.01555376 0.02486923 0.03734609
v -0.01411564 0.02647769 0.03734609
v -0.01258818 0.02808616 0.03734609
v -0.00604962 0.03095458 0.03431360
v -0.00535289 0.03063289 0.03323672
v -0.01896596 -0.05038012 0.03734609
v -0.01934113 -0.05118436 0.03884332
v -0.00975659 -0.05933391 0.03734609
v -0.01149842 -0.05832862 0.03734609
v -0.01223982 -0.05780587 0.03734609
v -0.01349036 -0.05686760 0.03734609
v -0.01474091 -0.05583550 0.03734609
v -0.01512500 -0.05551381 0.03734609
v -0.01541084 -0.05521892 0.03734609
v -0.01656313 -0.05390534 0.03734609
v -0.01750104 -0.05267218 0.03734609
v -0.01801019 -0.05200199 0.03734609
v -0.01854614 -0.05115755 0.03734609
v 0.02694691 -0.07402455 0.03323672
v -0.02079712 -0.05433427 0.04504241
v -0.02152959 -0.05824819 0.05027470
v -0.02135093 -0.06239000 0.05368350
v -0.01943939 -0.05432086 0.04196988
v -0.01892130 -0.05326195 0.03988618
v -0.01863547 0.03417151 0.05368350
v -0.01844788 0.03394365 0.05308700
v -0.01779581 0.03326005 0.05125150
v -0.01587533 0.03141032 0.04610328
v -0.01577707 0.02822019 0.04185179
v -0.01534832 0.02773766 0.04063279
v -0.01084636 0.02945335 0.03734609
v -0.01563416 0.03425194 0.04955611
v -0.00387010 0.03149074 0.03323672
v -0.00910452 0.03090097 0.03750622
v -0.00963154 0.03439938 0.04313684
v -0.00914025 0.03716058 0.04674981
v -0.00488840 0.03430555 0.03851905
v -0.00334308 0.03430555 0.03716194
v -0.00941716 -0.06216213 0.04032253
v -0.00918492 -0.06516460 0.04355719
v -0.01087315 -0.06607606 0.04562288
v -0.01148949 -0.06158576 0.04096706
v -0.01170387 -0.05858329 0.03774442
v -0.01305267 -0.05950816 0.03981611
v -0.01414243 -0.05757800 0.03868719
v -0.01512500 -0.05866372 0.04075489
v -0.01522326 -0.05562104 0.03755826
v -0.01613437 -0.05657271 0.03962996
v -0.01824244 -0.05218964 0.03781648
v -0.01816204 -0.05840904 0.04411364
v -0.01820671 -0.05532615 0.04095705
v 0.02951053 -0.07500304 0.03323672
v 0.02951053 -0.07513708 0.03339685
v 0.02753645 -0.07476177 0.03385122
v -0.00898840 -0.07394413 0.05368350
v -0.01098034 -0.07303267 0.05368350
v -0.01087315 -0.07189334 0.05225032
v -0.00857751 -0.07112932 0.05002849
v -0.00890801 -0.06815366 0.04678784
v -0.02067207 -0.06367676 0.05368350
v -0.01892130 -0.05633144 0.04302675
v -0.01778688 0.03500256 0.05368350
v -0.01380300 0.03485511 0.04837114
v -0.01708121 0.03568615 0.05368350
v -0.01541084 0.03717399 0.05368350
v -0.01520540 0.03701314 0.05318108
v -0.01409777 0.03647698 0.05106935
v -0.00319123 0.03430555 0.03702983
v -0.00155659 0.03276411 0.03323672
v -0.01222195 0.03712037 0.04991240
v -0.01014962 0.03783077 0.04881950
v -0.00957795 0.04052495 0.05254456
v -0.00847032 0.03989497 0.05047286
v -0.00776465 0.03882266 0.04814095
v -0.00706792 0.03775035 0.04583706
v -0.00630866 0.04049815 0.04948205
v -0.01087315 -0.06899810 0.04893560
v -0.01246313 -0.07145101 0.05277075
v -0.01280256 -0.06551310 0.04626941
v -0.01293655 -0.06251063 0.04303676
v -0.01487490 -0.06468206 0.04717015
v -0.01602719 -0.06261786 0.04603122
v -0.01608971 -0.05960199 0.04282458
v -0.01586640 -0.06863620 0.05246049
v -0.01595572 -0.06562033 0.04924185
v -0.01793873 -0.06757729 0.05359542
v -0.01884984 -0.06551310 0.05250252
v -0.01809952 -0.06146512 0.04727023
v -0.01890344 -0.05938753 0.04618134
v 0.03260116 -0.07574025 0.03323672
v 0.03260116 -0.07709404 0.03485004
v 0.03260116 -0.07834060 0.03640131
v 0.03260116 -0.07990885 0.03843899
v 0.03031445 -0.07797870 0.03684168
v -0.00776465 -0.07448029 0.05368350
v 0.03103798 -0.08076671 0.04035256
v -0.01165921 -0.07267077 0.05368350
v -0.01087315 -0.07053955 0.05069705
v -0.01916248 -0.06616988 0.05368350
v -0.01941259 -0.06355613 0.05138161
v -0.01468731 0.03773695 0.05368350
v -0.01314200 0.03780397 0.05198410
v -0.00035071 0.03430555 0.03462786
v -0.00092238 0.03311261 0.03323672
v -0.01170387 0.03990838 0.05368350
v -0.01156095 0.04000220 0.05368350
v -0.01023895 0.04080643 0.05368350
v -0.00773786 0.04224065 0.05368350
v -0.00756814 0.04096728 0.05140562
v -0.00630866 0.04303148 0.05368350
v -0.00002020 0.03417151 0.03414747
v -0.01309734 -0.07179951 0.05368350
v -0.01447294 -0.07080763 0.05368350
v -0.01453546 -0.07070040 0.05361544
v -0.01468731 -0.07063338 0.05368350
v -0.01641128 -0.06918576 0.05368350
v -0.01784941 -0.06773814 0.05368350
v -0.01807272 -0.06748347 0.05368350
v 0.03306565 -0.07578046 0.03323672
v 0.03570966 -0.07726829 0.03460184
v 0.03570966 -0.07862208 0.03615511
v 0.03570966 -0.08017693 0.03796060
v 0.03570966 -0.08147711 0.03951387
v 0.03570966 -0.08303196 0.04151351
v 0.03393210 -0.08394342 0.04336703
v 0.03260116 -0.08106160 0.03999026
v -0.00630866 -0.07092826 0.05368350
v 0.04192665 -0.09323231 0.05367949
v 0.04465106 -0.09376846 0.05367949
v 0.04532992 -0.09386229 0.05367949
v 0.04743798 -0.09390250 0.05367949
v 0.04774169 -0.09390250 0.05367949
v 0.04993908 -0.09348697 0.05367949
v 0.05124321 -0.09309827 0.05367949
v 0.05182383 -0.09289721 0.05367949
v 0.05435172 -0.09181150 0.05367949
v 0.05641511 -0.09061855 0.05367949
v 0.05806762 -0.08930497 0.05367949
v 0.05948788 -0.08784395 0.05367949
v 0.06087241 -0.08537763 0.05367949
v 0.06122078 -0.08466723 0.05367949
v 0.06190858 -0.08325982 0.05367949
v -0.01368688 0.03848756 0.05368350
v 0.00065866 0.03391684 0.03323672
v 0.06850967 -0.01089231 0.05367949
v 0.06842928 -0.00882811 0.05367949
v 0.06838461 -0.00778261 0.05367949
v 0.06808091 -0.00577203 0.05367949
v 0.06790227 -0.00467291 0.05367949
v 0.06687503 -0.00173746 0.05367949
v 0.06646413 -0.00094663 0.05367949
v 0.06558876 0.00040716 0.05367949
v 0.06357002 0.00244455 0.05367949
v 0.03782665 0.02532496 0.05367949
v 0.02750965 0.03430555 0.05367949
v 0.04967110 0.03430555 0.03323672
v 0.00157870 0.03430555 0.03323672
v 0.00056040 0.03430555 0.03394530
v 0.03570966 -0.07599493 0.03323672
v 0.03881815 -0.08023054 0.03782248
v 0.03881815 -0.08165136 0.03937576
v 0.03881815 -0.08320621 0.04118924
v 0.03881815 -0.08446617 0.04274252
v 0.03881815 -0.08602102 0.04470413
v 0.03881815 -0.08720056 0.04625740
v 0.03707632 -0.08702631 0.04649560
v 0.06239986 -0.08163795 0.05367949
v 0.04192665 -0.09292402 0.05321111
v 0.04397219 -0.09311167 0.05289485
v 0.04604452 -0.09324570 0.05271670
v 0.04700029 -0.09324570 0.05271670
v 0.04907263 -0.09307146 0.05293288
v 0.05124321 -0.09272296 0.05326916
v 0.05124321 -0.09118151 0.05164982
v 0.05435172 -0.09051132 0.05235440
v 0.05595063 -0.09010921 0.05277075
v 0.05716544 -0.08833989 0.05205216
v 0.05918418 -0.08718715 0.05259060
v 0.05955041 -0.08510955 0.05143365
v 0.06204257 -0.07431944 0.04672178
v 0.06258745 -0.07547218 0.04879348
v 0.06287329 -0.07316671 0.04791276
v 0.06237307 -0.07224184 0.04604723
v 0.06239986 -0.06986936 0.04575299
v 0.06183712 -0.06986936 0.04419971
v 0.05878222 -0.06055366 0.03480600
v 0.05829093 -0.05832862 0.03323672
v 0.06496349 -0.00778261 0.04708608
v 0.06577634 -0.00778261 0.04863936
v 0.06713408 -0.00778261 0.05124950
v 0.06813451 -0.00778261 0.05318709
v 0.06560662 -0.00467291 0.04892959
v 0.06675891 -0.00467291 0.05124950
v 0.06481163 -0.00467291 0.04737632
v 0.05907699 -0.00282318 0.03716194
v 0.05670095 -0.00157662 0.03323672
v 0.03628133 -0.07596812 0.03323672
v 0.04192665 -0.08009651 0.03795859
v 0.04192665 -0.08157094 0.03951187
v 0.04192665 -0.08312579 0.04117923
v 0.03881815 -0.07718787 0.03464587
v 0.04192665 -0.08454660 0.04273251
v 0.04192665 -0.08610145 0.04446593
v 0.04192665 -0.08744183 0.04601921
v 0.04192665 -0.08899668 0.04795279
v 0.04192665 -0.09021643 0.04950607
v 0.04036347 -0.09006899 0.04969422
v 0.04192665 -0.09151662 0.05124950
v 0.04731293 -0.09021643 0.04954210
v 0.04502622 -0.08738822 0.04613130
v 0.04939419 -0.08998856 0.04975828
v 0.05124321 -0.08965348 0.05009655
v 0.05378003 -0.08750885 0.04917780
v 0.05584344 -0.08693249 0.04972625
v 0.05745128 -0.08618188 0.05033675
v 0.05902339 -0.08387640 0.04967421
v 0.05945215 -0.08229474 0.04906170
v 0.06001490 -0.07606194 0.04499436
v 0.05970226 -0.07276459 0.04202993
v 0.05910379 -0.07158505 0.04027449
v 0.06146195 -0.07316671 0.04502239
v 0.05940749 -0.06986936 0.03977808
v 0.06069376 -0.06986936 0.04193786
v 0.05913059 -0.06559352 0.03707587
v 0.05928244 -0.06366336 0.03669555
v 0.05798723 -0.06055366 0.03323672
v 0.05701359 -0.00467291 0.03323672
v 0.05829093 -0.00467291 0.03546255
v 0.06381120 -0.00778261 0.04503840
v 0.05915738 -0.00467291 0.03701582
v 0.06016675 -0.00467291 0.03883331
v 0.06242667 -0.00467291 0.04293668
v 0.06357895 -0.00467291 0.04503840
v 0.06487416 -0.00577203 0.04727223
v 0.06516893 -0.00577203 0.04782469
v 0.05673668 -0.00189831 0.03323672
v 0.03881815 -0.07579387 0.03323672
v 0.04502622 -0.08279068 0.04142944
v 0.04502622 -0.08434554 0.04298272
v 0.04502622 -0.08590039 0.04458002
v 0.03912186 -0.07575366 0.03323672
v 0.04192665 -0.07852826 0.03640332
v 0.04502622 -0.07968099 0.03833690
v 0.04717001 -0.08407747 0.04326695
v 0.05124321 -0.08809862 0.04861934
v 0.04691990 -0.07777764 0.03714392
v 0.04913515 -0.08052544 0.04059475
v 0.05124321 -0.08489509 0.04560286
v 0.05124321 -0.08167817 0.04261041
v 0.05352993 -0.08433213 0.04613330
v 0.05332448 -0.08112860 0.04314085
v 0.05311904 -0.07789827 0.04016240
v 0.05289573 -0.07461432 0.03721198
v 0.05519137 -0.07702702 0.04088900
v 0.05629899 -0.07496282 0.04002629
v 0.05880902 -0.08048522 0.04680185
v 0.05929137 -0.07500304 0.04312683
v 0.05606675 -0.07162526 0.03712391
v 0.05837132 -0.07364925 0.04105513
v 0.05570051 -0.06805983 0.03434363
v 0.05613821 -0.06566054 0.03323672
v 0.05633472 -0.06598223 0.03365706
v 0.05649551 -0.06496354 0.03323672
v 0.05687067 -0.06414590 0.03323672
v 0.05873756 -0.06767112 0.03761631
v 0.05711185 -0.06351592 0.03323672
v 0.05784431 -0.06131768 0.03323672
v 0.04192665 -0.07691979 0.03485004
v 0.04164975 -0.07524431 0.03323672
v 0.04192665 -0.07536494 0.03340085
v 0.04502622 -0.07812614 0.03680765
v 0.04502622 -0.07643725 0.03525638
v 0.04666979 -0.07458752 0.03413345
v 0.04898330 -0.07733531 0.03756627
v 0.05124321 -0.07998927 0.04105714
v 0.05124321 -0.07843443 0.03965599
v 0.05124321 -0.07669193 0.03810271
v 0.05124321 -0.07513708 0.03676161
v 0.05048396 -0.07197376 0.03372512
v 0.05255629 -0.07124995 0.03431160
v 0.05409267 -0.07279140 0.03660748
v 0.05496806 -0.07368946 0.03795659
v 0.05363712 -0.06918576 0.03351895
v 0.05388723 -0.06851556 0.03323672
v 0.05451250 -0.06783197 0.03323672
v 0.05495019 -0.06733602 0.03323672
v 0.04192665 -0.07517729 0.03323672
v 0.04406151 -0.07450709 0.03323672
v 0.04502622 -0.07489580 0.03385923
v 0.04599986 -0.07381009 0.03323672
v 0.04781315 -0.07292544 0.03323672
v 0.04875106 -0.07403796 0.03458783
v 0.04994801 -0.07169228 0.03323672
v 0.05085019 -0.07110251 0.03323672
v 0.05179703 -0.07043232 0.03323672
v 0.05344060 -0.06898470 0.03323672
v 0.04507088 -0.07415859 0.03323672
f 1 2 3
f 1 3 4
f 1 4 5
f 1 5 6
f 1 6 7
f 1 7 8
f 1 8 9
f 1 9 10
f 1 10 11
f 1 11 25
f 1 25 47
f 1 47 72
f 1 72 110
f 1 110 149
f 1 149 168
f 1 168 167
f 1 167 166
f 1 166 165
f 1 165 163
f 1 163 162
f 1 162 147
f 1 147 106
f 1 106 105
f 1 105 145
f 1 145 177
f 1 177 160
f 1 160 158
f 1 158 157
f 1 157 156
f 1 156 155
f 1 155 193
f 1 193 151
f 1 151 115
f 1 115 114
f 1 114 112
f 1 112 75
f 1 75 50
f 1 50 26
f 1 26 12
f 1 12 2
f 2 12 3
f 3 13 14
f 3 14 15
f 3 15 5
f 3 5 4
f 3 12 16
f 3 16 17
f 3 17 13
f 5 15 6
f 6 15 7
f 7 15 18
f 7 18 8
f 8 18 19
f 8 19 20
f 8 20 9
f 9 20 21
f 9 21 10
f 10 21 22
f 10 22 23
f 10 23 11
f 11 23 24
f 11 24 25
f 12 26 16
f 13 27 28
f 13 28 14
f 13 17 29
f 13 29 30
f 13 30 27
f 14 31 15
f 14 28 32
f 14 32 31
f 15 31 33
f 15 33 18
f 16 26 17
f 17 26 34
f 17 34 35
f 17 35 29
f 18 33 31
f 18 31 36
f 18 36 19
f 19 37 38
f 19 38 21
f 19 21 20
f 19 36 31
f 19 31 32
f 19 32 39
f 19 39 40
f 19 40 37
f 21 38 41
f 21 41 22
f 22 41 38
f 22 38 42
f 22 42 43
f 22 43 44
f 22 44 23
f 23 44 24
f 24 44 25
f 25 45 46
f 25 46 47
f 25 44 45
f 26 48 49
f 26 49 35
f 26 35 34
f 26 50 48
f 27 51 32
f 27 32 28
f 27 30 35
f 27 35 51
f 29 35 30
f 32 51 52
f 32 52 53
f 32 53 54
f 32 54 55
f 32 55 83
f 32 83 119
f 32 119 154
f 32 154 194
f 32 194 207
f 32 207 206
f 32 206 246
f 32 246 286
f 32 286 277
f 32 277 237
f 32 237 276
f 32 276 317
f 32 317 316
f 32 316 314
f 32 314 313
f 32 313 311
f 32 311 336
f 32 336 335
f 32 335 334
f 32 334 346
f 32 346 345
f 32 345 344
f 32 344 343
f 32 343 341
f 32 341 340
f 32 340 347
f 32 347 338
f 32 338 337
f 32 337 319
f 32 319 291
f 32 291 287
f 32 287 247
f 32 247 209
f 32 209 169
f 32 169 140
f 32 140 102
f 32 102 69
f 32 69 40
f 32 40 39
f 35 49 51
f 37 56 57
f 37 57 42
f 37 42 38
f 37 40 56
f 40 58 59
f 40 59 60
f 40 60 61
f 40 61 62
f 40 62 63
f 40 63 64
f 40 64 65
f 40 65 66
f 40 66 67
f 40 67 68
f 40 68 56
f 40 69 58
f 42 57 70
f 42 70 71
f 42 71 44
f 42 44 43
f 44 71 45
f 45 71 46
f 46 72 47
f 46 71 70
f 46 70 57
f 46 57 73
f 46 73 74
f 46 74 72
f 48 50 75
f 48 75 49
f 49 75 76
f 49 76 77
f 49 77 78
f 49 78 79
f 49 79 80
f 49 80 51
f 51 80 52
f 52 80 53
f 53 81 54
f 53 80 78
f 53 78 82
f 53 82 81
f 54 83 55
f 54 81 84
f 54 84 85
f 54 85 86
f 54 86 87
f 54 87 88
f 54 88 83
f 56 68 74
f 56 74 57
f 57 74 73
f 58 89 90
f 58 90 91
f 58 91 92
f 58 92 93
f 58 93 59
f 58 69 89
f 59 93 60
f 60 93 61
f 61 93 94
f 61 94 95
f 61 95 62
f 62 95 63
f 63 95 96
f 63 96 97
f 63 97 64
f 64 97 98
f 64 98 65
f 65 99 66
f 65 98 100
f 65 100 101
f 65 101 99
f 66 99 67
f 67 99 68
f 68 99 74
f 69 102 103
f 69 103 104
f 69 104 105
f 69 105 106
f 69 106 107
f 69 107 108
f 69 108 109
f 69 109 90
f 69 90 89
f 72 74 110
f 74 99 101
f 74 101 111
f 74 111 110
f 75 112 76
f 76 112 82
f 76 82 77
f 77 82 78
f 78 80 79
f 81 82 113
f 81 113 84
f 82 112 114
f 82 114 115
f 82 115 116
f 82 116 117
f 82 117 113
f 83 88 118
f 83 118 119
f 84 113 85
f 85 113 120
f 85 120 86
f 86 120 121
f 86 121 122
f 86 122 123
f 86 123 124
f 86 124 125
f 86 125 87
f 87 125 88
f 88 125 126
f 88 126 118
f 90 109 127
f 90 127 91
f 91 127 128
f 91 128 129
f 91 129 92
f 92 129 93
f 93 129 130
f 93 130 94
f 94 96 95
f 94 130 131
f 94 131 96
f 96 132 133
f 96 133 97
f 96 131 134
f 96 134 135
f 96 135 132
f 97 133 98
f 98 133 136
f 98 136 137
f 98 137 138
f 98 138 100
f 100 138 137
f 100 137 101
f 101 137 139
f 101 139 111
f 102 140 141
f 102 141 103
f 103 141 142
f 103 142 143
f 103 143 144
f 103 144 104
f 104 145 105
f 104 144 146
f 104 146 145
f 106 147 107
f 107 147 128
f 107 128 148
f 107 148 109
f 107 109 108
f 109 148 127
f 110 111 150
f 110 150 149
f 111 139 149
f 111 149 150
f 113 117 120
f 115 151 116
f 116 151 117
f 117 151 152
f 117 152 120
f 118 126 153
f 118 153 154
f 118 154 119
f 120 152 155
f 120 155 121
f 121 155 156
f 121 156 122
f 122 156 157
f 122 157 158
f 122 158 159
f 122 159 123
f 123 159 126
f 123 126 124
f 124 126 125
f 126 159 160
f 126 160 161
f 126 161 153
f 127 148 128
f 128 147 162
f 128 162 129
f 129 162 163
f 129 163 164
f 129 164 134
f 129 134 131
f 129 131 130
f 132 135 136
f 132 136 133
f 134 164 165
f 134 165 166
f 134 166 136
f 134 136 135
f 136 167 168
f 136 168 149
f 136 149 137
f 136 166 167
f 137 149 139
f 140 169 170
f 140 170 171
f 140 171 172
f 140 172 141
f 141 172 173
f 141 173 142
f 142 173 174
f 142 174 143
f 143 174 175
f 143 175 176
f 143 176 144
f 144 176 146
f 145 146 175
f 145 175 178
f 145 178 179
f 145 179 180
f 145 180 181
f 145 181 182
f 145 182 183
f 145 183 184
f 145 184 185
f 145 185 186
f 145 186 187
f 145 187 188
f 145 188 189
f 145 189 190
f 145 190 191
f 145 191 192
f 145 192 177
f 146 176 175
f 151 193 152
f 152 193 155
f 153 161 154
f 154 161 194
f 158 160 159
f 160 195 196
f 160 196 197
f 160 197 198
f 160 198 199
f 160 199 200
f 160 200 201
f 160 201 202
f 160 202 203
f 160 203 204
f 160 204 205
f 160 205 206
f 160 206 207
f 160 207 208
f 160 208 161
f 160 177 195
f 161 208 194
f 163 165 164
f 169 209 170
f 170 209 210
f 170 210 211
f 170 211 171
f 171 211 172
f 172 211 212
f 172 212 173
f 173 212 213
f 173 213 214
f 173 214 174
f 174 214 215
f 174 215 216
f 174 216 175
f 175 216 178
f 177 192 217
f 177 217 195
f 178 216 218
f 178 218 179
f 179 218 219
f 179 219 180
f 180 219 220
f 180 220 181
f 181 220 221
f 181 221 182
f 182 221 222
f 182 222 183
f 183 222 184
f 184 222 223
f 184 223 185
f 185 223 224
f 185 224 186
f 186 224 225
f 186 225 226
f 186 226 187
f 187 226 188
f 188 226 227
f 188 227 228
f 188 228 189
f 189 228 190
f 190 228 229
f 190 229 230
f 190 230 191
f 191 230 192
f 192 230 231
f 192 231 217
f 194 208 207
f 195 217 232
f 195 232 233
f 195 233 234
f 195 234 235
f 195 235 236
f 195 236 237
f 195 237 238
f 195 238 239
f 195 239 240
f 195 240 241
f 195 241 196
f 196 241 197
f 197 241 242
f 197 242 243
f 197 243 198
f 198 243 199
f 199 243 206
f 199 206 200
f 200 206 201
f 201 206 202
f 202 206 203
f 203 206 204
f 204 206 205
f 206 243 242
f 206 242 244
f 206 244 245
f 206 245 246
f 209 247 210
f 210 248 249
f 210 249 250
f 210 250 252
f 210 252 211
f 210 247 251
f 210 251 248
f 211 252 253
f 211 253 254
f 211 254 212
f 212 254 213
f 213 254 255
f 213 255 214
f 214 255 256
f 214 256 215
f 215 256 257
f 215 257 216
f 216 257 218
f 217 231 232
f 218 257 258
f 218 258 219
f 219 258 256
f 219 256 220
f 220 256 255
f 220 255 254
f 220 254 253
f 220 253 221
f 221 259 222
f 221 253 252
f 221 252 250
f 221 250 260
f 221 260 259
f 222 259 261
f 222 261 223
f 223 261 224
f 224 261 262
f 224 262 225
f 225 262 263
f 225 263 226
f 226 263 264
f 226 264 227
f 227 264 228
f 228 264 265
f 228 265 266
f 228 266 229
f 229 266 267
f 229 267 268
f 229 268 230
f 230 269 270
f 230 270 271
f 230 271 233
f 230 233 231
f 230 268 269
f 231 233 232
f 233 271 272
f 233 272 273
f 233 273 274
f 233 274 275
f 233 275 235
f 233 235 234
f 235 275 236
f 236 276 237
f 236 275 276
f 237 277 278
f 237 278 279
f 237 279 238
f 238 279 278
f 238 278 280
f 238 280 281
f 238 281 282
f 238 282 283
f 238 283 284
f 238 284 285
f 238 285 239
f 239 285 240
f 240 285 241
f 241 285 242
f 242 285 244
f 244 283 245
f 244 285 283
f 245 283 282
f 245 282 281
f 245 281 280
f 245 280 278
f 245 278 286
f 245 286 246
f 247 287 251
f 248 288 289
f 248 289 290
f 248 290 260
f 248 260 249
f 248 251 287
f 248 287 291
f 248 291 292
f 248 292 293
f 248 293 288
f 249 260 250
f 256 258 257
f 259 260 290
f 259 290 261
f 261 290 289
f 261 289 294
f 261 294 262
f 262 295 263
f 262 294 296
f 262 296 297
f 262 297 295
f 263 295 298
f 263 298 299
f 263 299 300
f 263 300 264
f 264 300 301
f 264 301 302
f 264 302 303
f 264 303 304
f 264 304 265
f 265 304 305
f 265 305 266
f 266 306 307
f 266 307 268
f 266 268 267
f 266 305 308
f 266 308 306
f 268 307 269
f 269 307 270
f 270 307 306
f 270 306 309
f 270 309 308
f 270 308 310
f 270 310 311
f 270 311 312
f 270 312 313
f 270 313 314
f 270 314 315
f 270 315 272
f 270 272 271
f 272 315 274
f 272 274 273
f 274 315 316
f 274 316 317
f 274 317 276
f 274 276 275
f 277 286 278
f 283 285 284
f 288 293 294
f 288 294 289
f 291 318 292
f 291 319 320
f 291 320 318
f 292 318 321
f 292 321 293
f 293 321 294
f 294 321 296
f 295 297 298
f 296 321 322
f 296 322 323
f 296 323 324
f 296 324 297
f 297 324 299
f 297 299 298
f 299 324 325
f 299 325 300
f 300 325 301
f 301 325 326
f 301 326 327
f 301 327 302
f 302 327 328
f 302 328 303
f 303 328 329
f 303 329 330
f 303 330 331
f 303 331 332
f 303 332 304
f 304 332 305
f 305 332 308
f 306 308 309
f 308 332 331
f 308 331 330
f 308 330 333
f 308 333 334
f 308 334 335
f 308 335 336
f 308 336 310
f 310 336 311
f 311 313 312
f 314 316 315
f 318 320 321
f 319 337 320
f 320 337 338
f 320 338 339
f 320 339 322
f 320 322 321
f 322 339 323
f 323 339 340
f 323 340 341
f 323 341 342
f 323 342 324
f 324 327 326
f 324 326 325
f 324 342 327
f 327 342 328
f 328 342 329
f 329 342 343
f 329 343 344
f 329 344 330
f 330 344 345
f 330 345 346
f 330 346 333
f 333 346 334
f 338 347 339
f 339 347 340
f 341 343 342

