# https://github.com/mikedh/trimesh
v -0.08076823 0.04343072 0.03724595
v -0.08076823 0.04343072 0.03730871
v -0.08076823 0.04352968 0.03724595
v -0.07834228 0.03884270 0.03315859
v -0.07802277 0.03671961 0.03348809
v -0.07896357 0.03884270 0.03572005
v -0.08076823 0.04352968 0.03730871
v -0.07797543 0.03681857 0.03572005
v -0.07773875 0.03727737 0.03734009
v -0.07827720 0.03883370 0.03776765
v -0.08072090 0.04337674 0.03734009
v -0.07793993 0.04389852 0.03389212
v -0.07827720 0.04194636 0.03345671
v -0.05352067 0.10109587 0.05146146
v -0.05340825 0.10016027 0.04902161
v -0.05327808 0.09687668 0.04611496
v -0.07716481 0.03884270 0.03160524
v -0.07554357 0.03573903 0.02988322
v -0.07509980 0.03318413 0.03025587
v -0.07160879 0.02770549 0.02770617
v -0.07313536 0.02952271 0.02951449
v -0.07194606 0.02737264 0.02951449
v -0.07194014 0.02744461 0.03155425
v -0.05336091 0.09783028 0.05320310
v -0.05324257 0.10093394 0.05314034
v -0.05284022 0.10251726 0.05283830
v -0.07770917 0.03722339 0.03732048
v -0.04773389 0.01061286 0.03734009
v -0.07609976 0.04193736 0.03917195
v -0.07935408 0.04220725 0.03817953
v -0.07470927 0.04372759 0.03092663
v -0.07670329 0.04194636 0.03191120
v -0.07561457 0.03884270 0.03005973
v -0.05284022 0.10251726 0.05263824
v -0.05182842 0.10222938 0.05056711
v -0.05098822 0.10095193 0.04831161
v -0.05015392 0.09966549 0.04631501
v -0.05221894 0.09894580 0.04695439
v -0.05101188 0.09765036 0.04517745
v -0.04981666 0.09636391 0.04342013
v -0.05187576 0.09532036 0.04404774
v -0.05285206 0.09326025 0.04343974
v -0.07419450 0.03573903 0.02832987
v -0.07250225 0.03262638 0.02673729
v -0.07199339 0.02952271 0.02718054
v -0.06517115 0.02190300 0.02183011
v -0.06583976 0.02098539 0.02389733
v -0.06585751 0.02099439 0.02640387
v -0.05299998 0.09590510 0.05292459
v -0.05123673 0.09783028 0.05348945
v -0.05136098 0.10113185 0.05325409
v -0.05247337 0.10251726 0.05283830
v -0.06265053 0.01845748 0.02514864
v -0.06273336 0.01834053 0.02330109
v -0.04886995 0.01061286 0.01394960
v -0.03919573 0.01061286 0.03734009
v -0.07119461 0.04316983 0.02812589
v -0.06844914 0.04056095 0.02476814
v -0.07188689 0.04110072 0.02761595
v -0.07515304 0.04194636 0.03053437
v -0.04972791 0.08698095 0.03725772
v -0.07389273 0.03884270 0.02850246
v -0.07094018 0.03573903 0.02525847
v -0.07264426 0.03573903 0.02681182
v -0.04961548 0.10249926 0.04967668
v -0.04976932 0.10249926 0.04967668
v -0.04814808 0.09998935 0.04590313
v -0.04814808 0.09835205 0.04435371
v -0.04814808 0.09680472 0.04303963
v -0.04720728 0.09355712 0.04007807
v -0.04927822 0.09281943 0.04058800
v -0.05026635 0.09075933 0.03994078
v -0.07112360 0.03262638 0.02519178
v -0.06930118 0.02952271 0.02383849
v -0.07085734 0.02952271 0.02563111
v -0.06556759 0.02397210 0.02133194
v -0.06230734 0.02142620 0.01842137
v -0.06169198 0.01935709 0.01926473
v -0.06240793 0.01843949 0.02133586
v -0.04932555 0.09601307 0.05288145
v -0.04882853 0.09783028 0.05308934
v -0.04891728 0.10023224 0.05310503
v -0.05041427 0.10230135 0.05191648
v -0.04961548 0.10249926 0.04984927
v -0.05079887 0.01171938 0.01398098
v -0.04865694 0.01061286 0.01341613
v -0.03894130 0.01061286 0.03718711
v -0.02172889 0.07137268 0.03728517
v -0.02545657 0.07609564 0.04010552
v -0.02658671 0.07919931 0.04117640
v -0.03091200 0.08043178 0.04356526
v -0.03608341 0.08851030 0.04720936
v -0.04029629 0.09291839 0.04974336
v -0.04504168 0.09472662 0.05164583
v -0.05969205 0.03813200 0.01821347
v -0.05395261 0.03535220 0.01341613
v -0.06176298 0.03657567 0.01886462
v -0.06537233 0.03754725 0.02164183
v -0.06885149 0.03884270 0.02447003
v -0.07040765 0.03884270 0.02563111
v -0.04694694 0.08424613 0.03393527
v -0.04321926 0.07733711 0.02810628
v -0.07234250 0.03884270 0.02718054
v -0.04815991 0.08866322 0.03734009
v -0.04815991 0.08774562 0.03677523
v -0.06938993 0.03573903 0.02399539
v -0.06775686 0.03262638 0.02219099
v -0.06957336 0.03262638 0.02374434
v -0.04504168 0.10091595 0.04813902
v -0.04276957 0.09973745 0.04585606
v -0.04504168 0.10005232 0.04556187
v -0.04504168 0.09892781 0.04401244
v -0.04504168 0.09737147 0.04244732
v -0.04504168 0.09563523 0.04089789
v -0.04504168 0.09407889 0.03961912
v -0.04450915 0.09069635 0.03679485
v -0.04662742 0.09010261 0.03734009
v -0.06624804 0.02952271 0.02082593
v -0.06779828 0.02952271 0.02228121
v -0.06597585 0.02641905 0.02096322
v -0.06261502 0.02330639 0.01813110
v -0.05927787 0.02117431 0.01529505
v -0.05882226 0.01910520 0.01578930
v -0.05600579 0.01545278 0.01540097
v -0.05186984 0.01269996 0.01341613
v -0.05067462 0.01178236 0.01341613
v -0.04727829 0.09783028 0.05262255
v -0.04314826 0.09963850 0.04999049
v -0.04504168 0.10025023 0.05061418
v -0.04504168 0.09783028 0.05172428
v -0.04248555 0.09783028 0.05035136
v -0.03892947 0.01061286 0.01341613
v -0.03892947 0.01061286 0.03712435
v -0.02032657 0.01291587 0.01693863
v -0.02032657 0.06366300 0.03432753
v -0.02032657 0.06651477 0.03527680
v -0.02032657 0.06912365 0.03597110
v -0.02032657 0.07014021 0.03621038
v -0.02164605 0.07205638 0.03734009
v -0.02330871 0.07609564 0.03889344
v -0.02032657 0.07297399 0.03667717
v -0.02503055 0.07919931 0.04028204
v -0.02910733 0.08230297 0.04285919
v -0.03066348 0.08230297 0.04371824
v -0.03453317 0.08851030 0.04640523
v -0.03262791 0.08540663 0.04508331
v -0.03603016 0.09161396 0.04734273
v -0.04029629 0.09388997 0.04974336
v -0.04164535 0.09483457 0.05032391
v -0.05592887 0.03731335 0.01552257
v -0.05526025 0.03322012 0.01341613
v -0.05362126 0.03576602 0.01341613
v -0.05561527 0.03259939 0.01341613
v -0.05757378 0.03250043 0.01469882
v -0.06344931 0.03562208 0.01970014
v -0.06578651 0.03573903 0.02135156
v -0.06733675 0.03573903 0.02244596
v -0.04575763 0.08631524 0.03455112
v -0.04115424 0.07829070 0.02755319
v -0.04027853 0.07444036 0.02491328
v -0.04115424 0.07236225 0.02435235
v -0.06620662 0.03262638 0.02097891
v -0.06093461 0.02952271 0.01644830
v -0.06291087 0.02952271 0.01800165
v -0.05959738 0.02641905 0.01504009
v -0.06446703 0.02952271 0.01927258
v -0.04269265 0.09984542 0.04813902
v -0.03390006 0.09654384 0.04396537
v -0.03390006 0.09654384 0.04300433
v -0.03573431 0.09688568 0.04246693
v -0.03882888 0.09718255 0.04212567
v -0.03882888 0.09613001 0.04057624
v -0.04193528 0.09741646 0.04214920
v -0.04193528 0.09605804 0.04059585
v -0.04042054 0.09317928 0.03725772
v -0.04247964 0.09275646 0.03760290
v -0.04228438 0.09251357 0.03734009
v -0.04164535 0.09168593 0.03650065
v -0.04194120 0.08914003 0.03476294
v -0.04194120 0.08759269 0.03372345
v -0.04368670 0.08710690 0.03407648
v -0.04513635 0.08858227 0.03566906
v -0.06114762 0.02641905 0.01638946
v -0.06289904 0.02641905 0.01793889
v -0.06445520 0.02641905 0.01940987
v -0.06107070 0.02330639 0.01658167
v -0.05702351 0.02047261 0.01341613
v -0.05682825 0.01976192 0.01341613
v -0.05952046 0.02330639 0.01508716
v -0.05596437 0.01800767 0.01341613
v -0.05550877 0.01709907 0.01341613
v -0.05661523 0.01709907 0.01475766
v -0.05389936 0.01477807 0.01341613
v -0.03681712 0.09654384 0.04686025
v -0.04041462 0.09595908 0.04966883
v -0.02032657 0.01291587 0.01341613
v -0.02153363 0.07298299 0.03741070
v -0.02320813 0.07609564 0.03883068
v -0.02032657 0.07609564 0.03696744
v -0.02086501 0.07609564 0.03734009
v -0.02125553 0.07609564 0.03760683
v -0.02330871 0.07919931 0.03913664
v -0.02498321 0.08230297 0.04029381
v -0.02654529 0.08230297 0.04130192
v -0.03048006 0.08540663 0.04385553
v -0.03262791 0.08851030 0.04524021
v -0.03447992 0.09161396 0.04640131
v -0.05268638 0.03687255 0.01341613
v -0.05640223 0.03069221 0.01341613
v -0.05914177 0.03137591 0.01544019
v -0.06226593 0.03450656 0.01853905
v -0.06414751 0.03262638 0.01942948
v -0.03892947 0.07939722 0.02719623
v -0.03820760 0.07529499 0.02437981
v -0.03892947 0.07358572 0.02377965
v -0.03907739 0.07323487 0.02366197
v -0.03907739 0.07017619 0.02212039
v -0.05938437 0.02952271 0.01524406
v -0.05740811 0.02692283 0.01341613
v -0.05744361 0.02668893 0.01341613
v -0.05757970 0.02330639 0.01341613
v -0.03476393 0.09472662 0.04606396
v -0.03326103 0.09472662 0.04451453
v -0.02410159 0.08789856 0.03805008
v -0.02398325 0.08795253 0.03734009
v -0.02372290 0.08804250 0.03572005
v -0.02410750 0.08745775 0.03345671
v -0.03573431 0.09594110 0.04091750
v -0.03573431 0.09439375 0.03886206
v -0.03572839 0.09317028 0.03734009
v -0.03768691 0.09322426 0.03734009
v -0.03892947 0.09319727 0.03728517
v -0.03970459 0.09317928 0.03725772
v -0.03572839 0.09009361 0.03413532
v -0.03734964 0.09008462 0.03413924
v -0.03262791 0.08213205 0.02687458
v -0.03572839 0.08315760 0.02844755
v -0.03572839 0.08160127 0.02736098
v -0.03481719 0.07802981 0.02457594
v -0.03776975 0.08106150 0.02774148
v -0.03688812 0.07737309 0.02503096
v -0.05756195 0.02311747 0.01341613
v -0.03631418 0.09472662 0.04717014
v -0.02032657 0.06744137 0.01341613
v -0.02032657 0.07919931 0.03684192
v -0.02123186 0.07919931 0.03768528
v -0.02330871 0.08230297 0.03899543
v -0.02518439 0.08540663 0.04012122
v -0.03055106 0.08851030 0.04386730
v -0.02892982 0.08540663 0.04285135
v -0.03078182 0.09084029 0.04373786
v -0.03722539 0.06514736 0.01867242
v -0.03415449 0.06208868 0.01554610
v -0.03203622 0.05996560 0.01341613
v -0.05683416 0.02952271 0.01341613
v -0.05698800 0.02904592 0.01341613
v -0.03580532 0.07623958 0.02386987
v -0.03601833 0.07314491 0.02217922
v -0.03724905 0.07139967 0.02176343
v -0.02168155 0.08407521 0.03734009
v -0.02124962 0.08460598 0.03572005
v -0.02217266 0.08616230 0.03572005
v -0.02032657 0.08394026 0.03261727
v -0.02097152 0.08471393 0.03261727
v -0.02131470 0.08421015 0.03047945
v -0.02032657 0.08159228 0.02701187
v -0.02330871 0.08471393 0.02985576
v -0.02588259 0.08672906 0.03139734
v -0.03149778 0.09004863 0.03418632
v -0.02795352 0.08696296 0.03106000
v -0.03357462 0.09008462 0.03413924
v -0.03892947 0.09317928 0.03726556
v -0.02707781 0.08389528 0.02791407
v -0.02889432 0.08389528 0.02791407
v -0.03096525 0.08385030 0.02796506
v -0.03262791 0.08368837 0.02808274
v -0.02952151 0.08054873 0.02500350
v -0.03262791 0.08008992 0.02532515
v -0.03262791 0.07853360 0.02422290
v -0.03171670 0.07488117 0.02151238
v -0.03378764 0.07428742 0.02188895
v -0.02054550 0.06737840 0.01341613
v -0.02330871 0.07045508 0.01622079
v -0.02032657 0.06937554 0.01482042
v -0.02032657 0.08216802 0.03603386
v -0.02148038 0.08230297 0.03752837
v -0.02168747 0.08406621 0.03734793
v -0.03414265 0.06829600 0.01865673
v -0.03018421 0.06172884 0.01341613
v -0.03517812 0.07221832 0.02129272
v -0.02032657 0.08286973 0.03556707
v -0.02032657 0.08301366 0.02954980
v -0.02032657 0.08043178 0.02543106
v -0.02330871 0.08364339 0.02830633
v -0.02500688 0.08385030 0.02796506
v -0.02952151 0.08698995 0.03103254
v -0.02482345 0.08074664 0.02485052
v -0.02498321 0.08074664 0.02485052
v -0.02705414 0.08071065 0.02488190
v -0.02330871 0.07409850 0.01898230
v -0.02330871 0.07255117 0.01777022
v -0.02641511 0.07577178 0.02079847
v -0.02952151 0.07898340 0.02382672
v -0.02952151 0.07688730 0.02227337
v -0.02952151 0.07533997 0.02118288
v -0.02849196 0.07169654 0.01846452
v -0.02729082 0.06795415 0.01575008
v -0.03055698 0.07113878 0.01881363
v -0.02892390 0.06589404 0.01513815
v -0.03207764 0.06906967 0.01821740
v -0.02330871 0.06888975 0.01512638
v -0.02301287 0.06642481 0.01341613
v -0.02641511 0.07211936 0.01815071
v -0.02032657 0.07094087 0.01605212
v -0.03099484 0.06515636 0.01556964
v -0.02961618 0.06224161 0.01341613
v -0.02032657 0.08039579 0.02538399
v -0.02032657 0.07892043 0.02360705
v -0.02032657 0.07750804 0.02204978
v -0.02032657 0.07594271 0.02051212
v -0.02032657 0.07433240 0.01896269
v -0.02330871 0.07749904 0.02188111
v -0.02032657 0.07275808 0.01758978
v -0.02522581 0.06850292 0.01541666
v -0.02480570 0.06549821 0.01341613
v -0.02656896 0.06445466 0.01341613
v -0.02708965 0.06413979 0.01341613
v -0.02878781 0.06295231 0.01341613
f 1 2 7
f 1 7 3
f 1 3 4
f 1 4 5
f 1 5 6
f 1 6 2
f 2 6 8
f 2 8 9
f 2 9 10
f 2 10 11
f 2 11 7
f 3 12 13
f 3 13 4
f 3 7 14
f 3 14 15
f 3 15 16
f 3 16 12
f 4 13 17
f 4 17 18
f 4 18 5
f 5 18 19
f 5 19 20
f 5 20 21
f 5 21 22
f 5 22 23
f 5 23 8
f 5 8 6
f 7 11 24
f 7 24 25
f 7 25 26
f 7 26 14
f 8 23 27
f 8 27 9
f 9 27 28
f 9 28 10
f 10 29 30
f 10 30 11
f 10 28 29
f 11 30 24
f 12 31 32
f 12 32 13
f 12 16 31
f 13 32 33
f 13 33 17
f 14 26 34
f 14 34 15
f 15 34 35
f 15 35 36
f 15 36 37
f 15 37 38
f 15 38 16
f 16 38 39
f 16 39 40
f 16 40 41
f 16 41 42
f 16 42 31
f 17 33 43
f 17 43 18
f 18 43 44
f 18 44 45
f 18 45 19
f 19 45 20
f 20 45 46
f 20 46 47
f 20 47 22
f 20 22 21
f 22 47 48
f 22 48 23
f 23 48 28
f 23 28 27
f 24 49 50
f 24 50 25
f 24 30 29
f 24 29 49
f 25 50 51
f 25 51 26
f 26 52 34
f 26 51 52
f 28 48 53
f 28 53 54
f 28 54 55
f 28 55 86
f 28 86 132
f 28 132 133
f 28 133 87
f 28 87 56
f 28 56 50
f 28 50 49
f 28 49 29
f 31 57 58
f 31 58 59
f 31 59 60
f 31 60 32
f 31 42 61
f 31 61 57
f 32 60 62
f 32 62 33
f 33 62 63
f 33 63 64
f 33 64 43
f 34 52 65
f 34 65 66
f 34 66 35
f 35 66 36
f 36 66 37
f 37 66 67
f 37 67 68
f 37 68 69
f 37 69 40
f 37 40 39
f 37 39 38
f 40 69 70
f 40 70 71
f 40 71 41
f 41 71 72
f 41 72 42
f 42 72 61
f 43 64 73
f 43 73 44
f 44 73 74
f 44 74 75
f 44 75 45
f 45 75 46
f 46 76 77
f 46 77 78
f 46 78 79
f 46 79 47
f 46 75 76
f 47 79 54
f 47 54 48
f 48 54 53
f 50 56 80
f 50 80 81
f 50 81 82
f 50 82 51
f 51 82 52
f 52 82 83
f 52 83 84
f 52 84 65
f 54 79 85
f 54 85 55
f 55 85 86
f 56 87 88
f 56 88 89
f 56 89 90
f 56 90 91
f 56 91 92
f 56 92 93
f 56 93 94
f 56 94 81
f 56 81 80
f 57 61 58
f 58 95 96
f 58 96 97
f 58 97 98
f 58 98 99
f 58 99 100
f 58 100 59
f 58 61 101
f 58 101 102
f 58 102 95
f 59 100 103
f 59 103 60
f 60 103 62
f 61 72 71
f 61 71 104
f 61 104 105
f 61 105 101
f 62 103 63
f 63 106 107
f 63 107 108
f 63 108 64
f 63 103 106
f 64 108 73
f 65 109 110
f 65 110 111
f 65 111 66
f 65 84 109
f 66 111 67
f 67 111 112
f 67 112 113
f 67 113 68
f 68 113 114
f 68 114 69
f 69 114 115
f 69 115 70
f 70 115 116
f 70 116 117
f 70 117 71
f 71 117 104
f 73 108 118
f 73 118 119
f 73 119 74
f 74 119 120
f 74 120 75
f 75 120 76
f 76 120 77
f 77 120 121
f 77 121 122
f 77 122 123
f 77 123 78
f 78 123 124
f 78 124 79
f 79 124 125
f 79 125 126
f 79 126 85
f 81 94 127
f 81 127 82
f 82 128 129
f 82 129 83
f 82 127 130
f 82 130 131
f 82 131 128
f 83 129 128
f 83 128 84
f 84 128 109
f 85 126 86
f 86 126 125
f 86 125 193
f 86 193 191
f 86 191 190
f 86 190 188
f 86 188 187
f 86 187 242
f 86 242 221
f 86 221 220
f 86 220 219
f 86 219 256
f 86 256 255
f 86 255 209
f 86 209 153
f 86 153 151
f 86 151 96
f 86 96 152
f 86 152 208
f 86 208 254
f 86 254 289
f 86 289 316
f 86 316 328
f 86 328 327
f 86 327 326
f 86 326 325
f 86 325 312
f 86 312 282
f 86 282 244
f 86 244 196
f 86 196 132
f 87 133 134
f 87 134 135
f 87 135 136
f 87 136 137
f 87 137 138
f 87 138 88
f 88 139 140
f 88 140 89
f 88 138 141
f 88 141 139
f 89 140 90
f 90 142 143
f 90 143 144
f 90 144 91
f 90 140 142
f 91 144 92
f 92 145 93
f 92 144 146
f 92 146 145
f 93 145 147
f 93 147 148
f 93 148 149
f 93 149 127
f 93 127 94
f 95 150 96
f 95 102 150
f 96 151 97
f 96 150 152
f 97 151 153
f 97 153 154
f 97 154 155
f 97 155 98
f 98 155 156
f 98 156 99
f 99 156 157
f 99 157 100
f 100 157 106
f 100 106 103
f 101 105 117
f 101 117 158
f 101 158 159
f 101 159 160
f 101 160 102
f 102 160 161
f 102 161 150
f 104 117 105
f 106 157 162
f 106 162 107
f 107 162 163
f 107 163 164
f 107 164 165
f 107 165 166
f 107 166 108
f 108 166 118
f 109 128 167
f 109 167 168
f 109 168 169
f 109 169 110
f 110 169 170
f 110 170 111
f 111 170 171
f 111 171 172
f 111 172 112
f 112 172 173
f 112 173 174
f 112 174 175
f 112 175 113
f 113 175 114
f 114 175 176
f 114 176 115
f 115 176 116
f 116 176 177
f 116 177 178
f 116 178 179
f 116 179 180
f 116 180 181
f 116 181 182
f 116 182 117
f 117 182 158
f 118 166 183
f 118 183 184
f 118 184 119
f 119 184 185
f 119 185 120
f 120 185 121
f 121 186 122
f 121 185 186
f 122 187 188
f 122 188 123
f 122 186 189
f 122 189 187
f 123 190 191
f 123 191 192
f 123 192 124
f 123 188 190
f 124 192 191
f 124 191 193
f 124 193 125
f 127 149 130
f 128 131 194
f 128 194 168
f 128 168 167
f 130 149 195
f 130 195 131
f 131 195 194
f 132 196 134
f 132 134 133
f 134 196 244
f 134 244 284
f 134 284 314
f 134 314 323
f 134 323 321
f 134 321 320
f 134 320 319
f 134 319 318
f 134 318 317
f 134 317 293
f 134 293 266
f 134 266 292
f 134 292 263
f 134 263 291
f 134 291 285
f 134 285 245
f 134 245 199
f 134 199 141
f 134 141 138
f 134 138 137
f 134 137 136
f 134 136 135
f 139 141 197
f 139 197 140
f 140 197 141
f 140 141 198
f 140 198 142
f 141 199 200
f 141 200 201
f 141 201 198
f 142 198 201
f 142 201 202
f 142 202 203
f 142 203 204
f 142 204 205
f 142 205 143
f 143 205 145
f 143 145 146
f 143 146 144
f 145 205 206
f 145 206 207
f 145 207 147
f 147 207 195
f 147 195 148
f 148 195 149
f 150 161 208
f 150 208 152
f 153 209 154
f 154 209 210
f 154 210 211
f 154 211 155
f 155 211 156
f 156 211 210
f 156 210 157
f 157 210 212
f 157 212 162
f 158 181 213
f 158 213 159
f 158 182 181
f 159 213 214
f 159 214 160
f 160 214 215
f 160 215 216
f 160 216 217
f 160 217 161
f 161 217 208
f 162 212 218
f 162 218 163
f 163 218 165
f 163 165 164
f 165 183 166
f 165 218 219
f 165 219 220
f 165 220 221
f 165 221 189
f 165 189 183
f 168 194 222
f 168 222 223
f 168 223 224
f 168 224 225
f 168 225 226
f 168 226 169
f 169 226 227
f 169 227 170
f 170 227 228
f 170 228 171
f 171 228 172
f 172 174 173
f 172 228 229
f 172 229 230
f 172 230 231
f 172 231 232
f 172 232 233
f 172 233 175
f 172 175 174
f 175 178 177
f 175 177 176
f 175 233 234
f 175 234 235
f 175 235 236
f 175 236 237
f 175 237 178
f 178 237 179
f 179 237 238
f 179 238 239
f 179 239 180
f 180 239 240
f 180 240 181
f 181 240 241
f 181 241 213
f 183 189 184
f 184 189 185
f 185 189 186
f 187 189 242
f 189 221 242
f 194 195 222
f 195 207 243
f 195 243 222
f 199 245 246
f 199 246 202
f 199 202 200
f 200 202 201
f 202 246 203
f 203 247 248
f 203 248 249
f 203 249 250
f 203 250 205
f 203 205 204
f 203 246 247
f 205 250 206
f 206 250 249
f 206 249 207
f 207 249 251
f 207 251 222
f 207 222 243
f 208 217 252
f 208 252 253
f 208 253 254
f 209 255 210
f 210 255 256
f 210 256 218
f 210 218 212
f 213 241 214
f 214 257 258
f 214 258 259
f 214 259 215
f 214 241 257
f 215 259 216
f 216 259 217
f 217 259 253
f 217 253 252
f 218 256 219
f 222 251 223
f 223 251 260
f 223 260 224
f 224 260 261
f 224 261 262
f 224 262 225
f 225 262 226
f 226 262 263
f 226 263 264
f 226 264 265
f 226 265 227
f 227 265 266
f 227 266 267
f 227 267 268
f 227 268 228
f 228 269 229
f 228 268 270
f 228 270 269
f 229 269 230
f 230 269 271
f 230 271 231
f 231 271 272
f 231 272 232
f 232 272 233
f 233 272 271
f 233 271 234
f 234 271 273
f 234 273 274
f 234 274 235
f 235 274 275
f 235 275 276
f 235 276 236
f 236 276 277
f 236 277 278
f 236 278 237
f 237 278 279
f 237 279 238
f 238 279 239
f 239 279 280
f 239 280 281
f 239 281 257
f 239 257 241
f 239 241 240
f 244 282 283
f 244 283 284
f 245 285 260
f 245 260 286
f 245 286 246
f 246 286 247
f 247 286 248
f 248 286 287
f 248 287 251
f 248 251 249
f 251 287 260
f 253 259 254
f 254 259 288
f 254 288 289
f 257 281 258
f 258 281 290
f 258 290 288
f 258 288 259
f 260 287 286
f 260 285 291
f 260 291 261
f 261 291 263
f 261 263 262
f 263 292 264
f 264 292 265
f 265 292 266
f 266 293 294
f 266 294 267
f 267 294 268
f 268 294 295
f 268 295 270
f 269 270 271
f 270 295 273
f 270 273 296
f 270 296 271
f 271 296 273
f 273 295 297
f 273 297 298
f 273 298 274
f 274 298 299
f 274 299 275
f 275 299 277
f 275 277 276
f 277 299 300
f 277 300 301
f 277 301 302
f 277 302 303
f 277 303 278
f 278 303 304
f 278 304 279
f 279 304 305
f 279 305 280
f 280 305 306
f 280 306 307
f 280 307 308
f 280 308 281
f 281 308 309
f 281 309 310
f 281 310 290
f 282 311 283
f 282 312 311
f 283 313 304
f 283 304 302
f 283 302 301
f 283 301 284
f 283 311 313
f 284 301 300
f 284 300 314
f 288 290 310
f 288 310 315
f 288 315 316
f 288 316 289
f 293 317 294
f 294 317 295
f 295 317 318
f 295 318 319
f 295 319 297
f 297 319 320
f 297 320 321
f 297 321 298
f 298 321 322
f 298 322 299
f 299 322 323
f 299 323 314
f 299 314 300
f 302 304 303
f 304 313 305
f 305 313 306
f 306 313 324
f 306 324 307
f 307 324 325
f 307 325 326
f 307 326 327
f 307 327 308
f 308 327 309
f 309 327 328
f 309 328 310
f 310 328 315
f 311 312 324
f 311 324 313
f 312 325 324
f 315 328 316
f 321 323 322

