# https://github.com/mikedh/trimesh
v -0.08244014 -0.00467600 -0.11785480
v -0.08244014 -0.00356728 -0.11785480
v -0.07231082 0.00338036 -0.11722746
v -0.07615336 -0.00356570 -0.11722746
v -0.10141061 -0.01184949 -0.10958449
v -0.10918376 -0.01180684 -0.11343057
v -0.11138579 -0.01196794 -0.11364789
v -0.11529440 -0.01210061 -0.11388981
v -0.11920299 -0.01211482 -0.11397591
v -0.12311159 -0.01211482 -0.11396361
v -0.12311159 -0.00977104 -0.11502559
v -0.08007296 0.00338036 -0.11722746
v -0.12702019 -0.00977104 -0.11469347
v -0.04205496 0.00338036 -0.08756587
v -0.04205496 -0.00356570 -0.08366648
v -0.09734787 -0.01196794 -0.10591062
v -0.09993526 -0.01214799 -0.10732113
v -0.10359062 -0.01205954 -0.11005602
v -0.10602386 -0.01211324 -0.11085148
v -0.10773043 -0.01214957 -0.11140502
v -0.11138579 -0.01241332 -0.11138862
v -0.11529440 -0.01252861 -0.11138862
v -0.11920299 -0.01253335 -0.11138862
v -0.12311159 -0.01253651 -0.11138862
v -0.12702019 -0.01251282 -0.11138862
v -0.12702019 -0.01207849 -0.11383240
v -0.08007296 0.00338036 -0.11530031
v -0.12702019 -0.00706084 -0.11420143
v -0.13092879 -0.00739093 -0.11376680
v -0.13309778 -0.00770680 -0.11343467
v -0.13804133 -0.00732144 -0.11013393
v -0.13909831 -0.00689975 -0.10784597
v -0.14265458 -0.00660914 -0.10357755
v -0.14655217 -0.00634855 -0.09576237
v -0.15046077 -0.00640067 -0.08794720
v -0.15046077 -0.00634381 -0.08404371
v -0.15046077 -0.00633749 -0.08013613
v -0.13009201 -0.01193635 -0.11360279
v -0.13120405 -0.00994161 -0.11383650
v -0.04205496 0.00338036 -0.07971380
v -0.04205496 -0.00356570 -0.07596612
v -0.08796723 -0.01230276 -0.08013613
v -0.08771400 -0.01216378 -0.08389610
v -0.08862784 -0.01223643 -0.08794720
v -0.09187583 -0.01269603 -0.09185889
v -0.08916734 -0.01218115 -0.09185889
v -0.08957471 -0.01199479 -0.09462249
v -0.09173270 -0.01229803 -0.09585668
v -0.09299887 -0.01210376 -0.09966176
v -0.09593857 -0.01217484 -0.10334383
v -0.10359062 -0.01255388 -0.10748104
v -0.09968202 -0.01266760 -0.10357755
v -0.10749921 -0.01265970 -0.10748104
v -0.13483738 -0.01267076 -0.10748104
v -0.13483738 -0.01219537 -0.11069977
v -0.07990781 0.00338036 -0.11351258
v -0.15046077 -0.00634697 -0.07622034
v -0.13309778 -0.00875235 -0.11343467
v -0.13847073 -0.00976946 -0.11033894
v -0.14043054 -0.00976946 -0.10918677
v -0.14471348 -0.00771154 -0.10565231
v -0.14265458 -0.00736250 -0.10656257
v -0.14550622 -0.00737514 -0.10357755
v -0.14681641 -0.00695661 -0.09991598
v -0.15046077 -0.00671180 -0.09185889
v -0.15326835 -0.00715876 -0.08794720
v -0.15349957 -0.00710664 -0.08404371
v -0.15357664 -0.00710191 -0.08013613
v -0.13270142 -0.01135830 -0.11321736
v -0.13778810 -0.01204059 -0.10994531
v -0.04205496 -0.00291974 -0.07596612
v -0.04496163 0.00338036 -0.07976300
v -0.04248436 -0.00292922 -0.07596612
v -0.08784612 -0.01216852 -0.07596612
v -0.09187583 -0.01275131 -0.07596612
v -0.09187583 -0.01275289 -0.07622034
v -0.09187583 -0.01275446 -0.08013613
v -0.09187583 -0.01275131 -0.08404371
v -0.09187583 -0.01274815 -0.08794720
v -0.09578443 -0.01274183 -0.09576237
v -0.09578443 -0.01261548 -0.09966176
v -0.09968202 -0.01272604 -0.09966176
v -0.10359062 -0.01270234 -0.10357755
v -0.13874599 -0.01272130 -0.10357755
v -0.14265458 -0.01249703 -0.10357755
v -0.13894417 -0.01231698 -0.10770656
v -0.07967660 0.00338036 -0.11139272
v -0.15347755 -0.00710822 -0.07622034
v -0.15046077 -0.00635171 -0.07596612
v -0.13753487 -0.00981210 -0.11085148
v -0.14460338 -0.01173103 -0.10553750
v -0.14470246 -0.00976946 -0.10562770
v -0.14911754 -0.00737672 -0.09878019
v -0.14804955 -0.00976946 -0.10111327
v -0.15247563 -0.00774629 -0.09394594
v -0.15043874 -0.00721562 -0.09545075
v -0.15281694 -0.00745726 -0.09185889
v -0.15391795 -0.00976946 -0.08794720
v -0.15436938 -0.00976946 -0.08404371
v -0.15451250 -0.00976946 -0.08013613
v -0.14265458 -0.01198689 -0.10630015
v -0.04496163 -0.00300345 -0.07596612
v -0.04700952 0.00338036 -0.08002132
v -0.15020754 -0.01274183 -0.07596612
v -0.15046077 -0.01274499 -0.08013613
v -0.14655217 -0.01274815 -0.09185889
v -0.14265458 -0.01273867 -0.09966176
v -0.14655217 -0.01272446 -0.09576237
v -0.14670631 -0.01231856 -0.09978887
v -0.14527499 -0.01198531 -0.10357755
v -0.07922518 0.00338036 -0.10908016
v -0.15432532 -0.00976946 -0.07622034
v -0.15346654 -0.00711296 -0.07596612
v -0.04873811 0.00338036 -0.08025094
v -0.05107226 0.00338036 -0.08073067
v -0.05276782 0.00338036 -0.08111199
v -0.05523409 0.00338036 -0.08187055
v -0.05656632 0.00338036 -0.08243639
v -0.05732602 0.00338036 -0.08276032
v -0.05913168 0.00338036 -0.08354348
v -0.06062906 0.00338036 -0.08422823
v -0.06320543 0.00338036 -0.08564693
v -0.06411927 0.00338036 -0.08636859
v -0.06511018 0.00338036 -0.08717634
v -0.06731221 0.00338036 -0.08908298
v -0.06851232 0.00338036 -0.09023107
v -0.06926101 0.00338036 -0.09098552
v -0.07096758 0.00338036 -0.09279376
v -0.07194748 0.00338036 -0.09402384
v -0.07444678 0.00338036 -0.09740660
v -0.07492022 0.00338036 -0.09824305
v -0.07673689 0.00338036 -0.10185132
v -0.07730942 0.00338036 -0.10309371
v -0.07825629 0.00338036 -0.10516847
v -0.07853154 0.00338036 -0.10605414
v -0.07887286 0.00338036 -0.10748104
v -0.14898542 -0.01203111 -0.09856698
v -0.15236553 -0.01146096 -0.09374503
v -0.14932672 -0.00976946 -0.09915742
v -0.15247563 -0.00885500 -0.09394594
v -0.15293805 -0.01000163 -0.09221152
v -0.15276189 -0.01200426 -0.09114134
v -0.15307017 -0.01218589 -0.08794720
v -0.15327937 -0.01222854 -0.08404371
v -0.15334543 -0.01223169 -0.08013613
v -0.15326835 -0.01222696 -0.07622034
v -0.15046077 -0.01273709 -0.07596612
v -0.15046077 -0.01274183 -0.07622034
v -0.15046077 -0.01274499 -0.08404371
v -0.14981118 -0.01221590 -0.09576237
v -0.15046077 -0.01270392 -0.08794720
v -0.15430330 -0.00976946 -0.07596612
v -0.15425927 -0.00960205 -0.07596612
v -0.15082410 -0.01230908 -0.09221152
v -0.15308118 -0.01225696 -0.07596612
v -0.15324633 -0.01222380 -0.07596612
f 1 2 3
f 1 3 4
f 1 4 5
f 1 5 6
f 1 6 7
f 1 7 8
f 1 8 9
f 1 9 10
f 1 10 11
f 1 11 2
f 2 12 3
f 2 11 13
f 2 13 12
f 3 14 4
f 3 12 27
f 3 27 56
f 3 56 87
f 3 87 111
f 3 111 136
f 3 136 135
f 3 135 134
f 3 134 133
f 3 133 132
f 3 132 131
f 3 131 130
f 3 130 129
f 3 129 128
f 3 128 127
f 3 127 126
f 3 126 125
f 3 125 124
f 3 124 123
f 3 123 122
f 3 122 121
f 3 121 120
f 3 120 119
f 3 119 118
f 3 118 117
f 3 117 116
f 3 116 115
f 3 115 114
f 3 114 103
f 3 103 72
f 3 72 40
f 3 40 14
f 4 14 15
f 4 15 16
f 4 16 5
f 5 16 17
f 5 17 18
f 5 18 6
f 6 18 19
f 6 19 20
f 6 20 7
f 7 20 21
f 7 21 8
f 8 21 22
f 8 22 9
f 9 22 23
f 9 23 24
f 9 24 10
f 10 24 25
f 10 25 26
f 10 26 11
f 11 26 13
f 12 13 28
f 12 28 29
f 12 29 30
f 12 30 31
f 12 31 32
f 12 32 33
f 12 33 34
f 12 34 35
f 12 35 36
f 12 36 37
f 12 37 27
f 13 26 38
f 13 38 39
f 13 39 30
f 13 30 29
f 13 29 28
f 14 40 71
f 14 71 41
f 14 41 15
f 15 41 42
f 15 42 43
f 15 43 44
f 15 44 45
f 15 45 46
f 15 46 47
f 15 47 48
f 15 48 49
f 15 49 50
f 15 50 16
f 16 50 17
f 17 51 18
f 17 50 52
f 17 52 51
f 18 51 19
f 19 51 20
f 20 51 21
f 21 51 22
f 22 51 53
f 22 53 23
f 23 53 24
f 24 54 25
f 24 53 54
f 25 54 55
f 25 55 26
f 26 55 38
f 27 37 57
f 27 57 56
f 30 39 58
f 30 58 59
f 30 59 60
f 30 60 31
f 31 60 61
f 31 61 62
f 31 62 32
f 32 62 33
f 33 62 63
f 33 63 64
f 33 64 34
f 34 64 65
f 34 65 35
f 35 65 66
f 35 66 67
f 35 67 36
f 36 67 68
f 36 68 37
f 37 68 57
f 38 69 39
f 38 55 70
f 38 70 69
f 39 69 58
f 40 72 73
f 40 73 71
f 41 74 42
f 41 71 73
f 41 73 102
f 41 102 89
f 41 89 113
f 41 113 153
f 41 153 152
f 41 152 156
f 41 156 155
f 41 155 147
f 41 147 104
f 41 104 75
f 41 75 74
f 42 74 75
f 42 75 76
f 42 76 77
f 42 77 78
f 42 78 79
f 42 79 45
f 42 45 44
f 42 44 43
f 45 48 46
f 45 79 80
f 45 80 52
f 45 52 81
f 45 81 48
f 46 48 47
f 48 81 49
f 49 81 50
f 50 81 52
f 51 52 53
f 52 80 82
f 52 82 83
f 52 83 53
f 53 83 84
f 53 84 54
f 54 84 85
f 54 85 86
f 54 86 55
f 55 86 70
f 56 57 87
f 57 68 88
f 57 88 89
f 57 89 87
f 58 90 59
f 58 69 90
f 59 90 69
f 59 69 60
f 60 91 92
f 60 92 61
f 60 69 70
f 60 70 91
f 61 93 63
f 61 63 62
f 61 92 94
f 61 94 95
f 61 95 93
f 63 93 64
f 64 93 96
f 64 96 65
f 65 97 66
f 65 96 97
f 66 98 99
f 66 99 67
f 66 97 98
f 67 99 100
f 67 100 68
f 68 100 88
f 70 86 101
f 70 101 91
f 72 102 73
f 72 103 89
f 72 89 102
f 75 104 76
f 76 104 105
f 76 105 77
f 77 105 106
f 77 106 78
f 78 106 79
f 79 106 80
f 80 106 107
f 80 107 84
f 80 84 82
f 82 84 83
f 84 107 85
f 85 107 108
f 85 108 109
f 85 109 110
f 85 110 101
f 85 101 86
f 87 89 111
f 88 100 112
f 88 112 113
f 88 113 89
f 89 103 114
f 89 114 115
f 89 115 116
f 89 116 117
f 89 117 118
f 89 118 119
f 89 119 120
f 89 120 121
f 89 121 122
f 89 122 123
f 89 123 124
f 89 124 125
f 89 125 126
f 89 126 127
f 89 127 128
f 89 128 129
f 89 129 130
f 89 130 131
f 89 131 132
f 89 132 133
f 89 133 134
f 89 134 135
f 89 135 136
f 89 136 111
f 91 101 110
f 91 110 137
f 91 137 138
f 91 138 139
f 91 139 94
f 91 94 92
f 93 95 96
f 94 139 95
f 95 140 141
f 95 141 98
f 95 98 97
f 95 97 96
f 95 139 140
f 98 141 138
f 98 138 142
f 98 142 143
f 98 143 99
f 99 143 144
f 99 144 100
f 100 144 145
f 100 145 146
f 100 146 112
f 104 147 148
f 104 148 105
f 105 148 145
f 105 145 149
f 105 149 106
f 106 149 108
f 106 108 107
f 108 150 109
f 108 149 151
f 108 151 150
f 109 150 137
f 109 137 110
f 112 152 153
f 112 153 113
f 112 146 152
f 137 150 142
f 137 142 138
f 138 141 140
f 138 140 139
f 142 150 154
f 142 154 143
f 143 154 151
f 143 151 144
f 144 151 149
f 144 149 145
f 145 148 146
f 146 148 155
f 146 155 156
f 146 156 152
f 147 155 148
f 150 151 154

