# https://github.com/mikedh/trimesh
v 0.03713365 -0.03786474 0.16610648
v 0.04103920 -0.03786132 0.16610648
v 0.03678209 -0.03657757 0.17038165
v 0.03421248 -0.03607092 0.16933118
v 0.03368194 -0.03651937 0.16610648
v 0.02691914 -0.01599998 -0.07112907
v 0.02932256 -0.01696878 -0.06836853
v 0.03323130 -0.01804028 -0.06445981
v 0.04103281 -0.01805739 -0.06445981
v 0.04494156 -0.01806082 -0.06445981
v 0.04444617 -0.03651937 0.16610648
v 0.04391883 -0.03607092 0.16928233
v 0.04131406 -0.03657757 0.17035722
v 0.04885030 -0.01692428 -0.06836853
v 0.05119618 -0.01596917 -0.07112907
v 0.04019226 -0.03572174 0.17231159
v 0.03785276 -0.03572174 0.17231159
v 0.03527996 -0.03321929 0.17192072
v 0.03372669 -0.03321929 0.16996636
v 0.03216063 -0.03321929 0.16610648
v 0.02331083 -0.01191253 -0.07596613
v 0.02344506 -0.01203919 -0.07596613
v 0.02578455 -0.01313123 -0.07596613
v 0.02932256 -0.01528450 -0.07352317
v 0.02932256 -0.01621565 -0.07156881
v 0.03323130 -0.01736588 -0.06836853
v 0.03714005 -0.01738300 -0.06836853
v 0.04103281 -0.01739669 -0.06836853
v 0.04494156 -0.01739327 -0.06836853
v 0.04591315 -0.03321929 0.16610648
v 0.05462233 -0.01096085 -0.07506223
v 0.05509215 -0.01006394 -0.07596613
v 0.04437905 -0.03321929 0.16989306
v 0.04270753 -0.03321929 0.17184743
v 0.04885030 -0.01617799 -0.07151995
v 0.04885030 -0.01528450 -0.07349875
v 0.05302112 -0.01264855 -0.07596613
v 0.05353248 -0.01207343 -0.07596613
v 0.04075156 -0.03321929 0.17248259
v 0.03713365 -0.01759182 0.17360635
v 0.03723593 -0.03321929 0.17248259
v 0.03459281 -0.01759182 0.17243374
v 0.03110275 -0.01607871 0.16842728
v 0.03093655 -0.01650663 0.16610648
v 0.02583569 -0.01368239 0.10356679
v 0.02538505 -0.01368239 0.09574932
v 0.02518050 -0.01368239 0.09184059
v 0.02502390 -0.01368239 0.08793186
v 0.02594435 -0.01701328 0.08793186
v 0.02257254 -0.00977295 -0.07596613
v 0.02932256 -0.01372004 -0.07596613
v 0.03323130 -0.01624988 -0.07156881
v 0.03714005 -0.01624646 -0.07156881
v 0.04103281 -0.01624303 -0.07156881
v 0.04494156 -0.01622592 -0.07156881
v 0.04715640 -0.01630465 0.16610648
v 0.04698382 -0.01587332 0.16825628
v 0.05199839 -0.01695509 0.08793186
v 0.05190890 -0.01691401 0.09184059
v 0.05268234 -0.01368239 0.09184059
v 0.05250017 -0.01368239 0.09574932
v 0.05228923 -0.01368239 0.09963363
v 0.05205911 -0.01368239 0.10356679
v 0.05520081 -0.00948197 -0.07596613
v 0.05278781 -0.01368239 0.08793186
v 0.04353211 -0.01759182 0.17238488
v 0.04103920 -0.01759182 0.17355750
v 0.04885030 -0.01368581 -0.07596613
v 0.04133324 -0.01337771 0.17302005
v 0.03679807 -0.01332979 0.17306891
v 0.03447775 -0.01439786 0.17253146
v 0.03110275 -0.01519892 0.16842728
v 0.02677532 -0.01123471 0.10356679
v 0.03093655 -0.01477101 0.16610648
v 0.03217022 -0.00958809 0.16610648
v 0.02281544 -0.00650368 -0.07596613
v 0.02257894 -0.00952648 -0.07596613
v 0.04715640 -0.01497983 0.16610648
v 0.04698382 -0.01540090 0.16825628
v 0.04360881 -0.01447660 0.17245816
v 0.05522318 -0.00658584 -0.07596613
v 0.05142630 -0.01120733 0.09963363
v 0.05130485 -0.01127922 0.10356679
v 0.04586201 -0.00958809 0.16610648
v 0.05522318 -0.00673647 -0.07596613
v 0.04079950 -0.00958809 0.17248259
v 0.04275547 -0.00958809 0.17187186
v 0.04089218 -0.00958809 0.17245816
v 0.03727108 -0.00958809 0.17248259
v 0.03531511 -0.00958809 0.17192072
v 0.03372988 -0.00958809 0.16996636
v 0.03714005 -0.00294343 -0.07596613
v 0.03551966 -0.00310774 -0.07596613
v 0.03327285 -0.00338161 -0.07596613
v 0.03071603 -0.00384376 -0.07596613
v 0.02585167 -0.00507615 -0.07596613
v 0.02541382 -0.00521994 -0.07596613
v 0.04438545 -0.00958809 0.16991749
v 0.05293163 -0.00531237 -0.07596613
v 0.05276224 -0.00525075 -0.07596613
v 0.04885030 -0.00423744 -0.07596613
v 0.04487124 -0.00340215 -0.07596613
v 0.04103281 -0.00289208 -0.07596613
f 1 2 3
f 1 3 4
f 1 4 5
f 1 5 6
f 1 6 7
f 1 7 8
f 1 8 9
f 1 9 10
f 1 10 2
f 2 11 12
f 2 12 13
f 2 13 3
f 2 10 14
f 2 14 15
f 2 15 11
f 3 13 16
f 3 16 17
f 3 17 4
f 4 17 18
f 4 18 19
f 4 19 20
f 4 20 5
f 5 20 21
f 5 21 6
f 6 21 22
f 6 22 23
f 6 23 24
f 6 24 25
f 6 25 7
f 7 25 26
f 7 26 8
f 8 26 27
f 8 27 28
f 8 28 9
f 9 28 10
f 10 28 29
f 10 29 14
f 11 30 12
f 11 15 31
f 11 31 32
f 11 32 30
f 12 33 34
f 12 34 16
f 12 16 13
f 12 30 33
f 14 29 35
f 14 35 15
f 15 35 36
f 15 36 37
f 15 37 38
f 15 38 31
f 16 39 40
f 16 40 17
f 16 34 39
f 17 40 41
f 17 41 18
f 18 41 40
f 18 40 42
f 18 42 43
f 18 43 19
f 19 43 20
f 20 43 44
f 20 44 45
f 20 45 46
f 20 46 47
f 20 47 48
f 20 48 49
f 20 49 21
f 21 49 50
f 21 50 77
f 21 77 76
f 21 76 97
f 21 97 96
f 21 96 95
f 21 95 94
f 21 94 93
f 21 93 92
f 21 92 103
f 21 103 102
f 21 102 101
f 21 101 100
f 21 100 99
f 21 99 81
f 21 81 85
f 21 85 64
f 21 64 32
f 21 32 38
f 21 38 37
f 21 37 68
f 21 68 51
f 21 51 23
f 21 23 22
f 23 51 24
f 24 51 36
f 24 36 52
f 24 52 25
f 25 52 26
f 26 52 27
f 27 52 28
f 28 52 53
f 28 53 29
f 29 53 54
f 29 54 55
f 29 55 35
f 30 56 57
f 30 57 33
f 30 32 58
f 30 58 59
f 30 59 60
f 30 60 61
f 30 61 62
f 30 62 63
f 30 63 56
f 31 38 32
f 32 64 65
f 32 65 58
f 33 66 34
f 33 57 66
f 34 66 67
f 34 67 39
f 35 55 36
f 36 55 54
f 36 54 53
f 36 53 52
f 36 51 68
f 36 68 37
f 39 67 40
f 40 67 69
f 40 69 70
f 40 70 71
f 40 71 42
f 42 71 43
f 43 71 72
f 43 72 45
f 43 45 44
f 45 73 46
f 45 72 74
f 45 74 75
f 45 75 73
f 46 73 47
f 47 73 48
f 48 73 76
f 48 76 77
f 48 77 50
f 48 50 49
f 56 78 79
f 56 79 57
f 56 63 78
f 57 79 80
f 57 80 66
f 58 65 59
f 59 65 60
f 60 65 81
f 60 81 82
f 60 82 83
f 60 83 61
f 61 83 62
f 62 83 63
f 63 83 84
f 63 84 78
f 64 85 65
f 65 85 81
f 66 80 67
f 67 80 69
f 69 86 70
f 69 80 87
f 69 87 88
f 69 88 86
f 70 89 90
f 70 90 71
f 70 86 89
f 71 90 91
f 71 91 72
f 72 91 75
f 72 75 74
f 73 75 76
f 75 91 92
f 75 92 93
f 75 93 94
f 75 94 95
f 75 95 96
f 75 96 97
f 75 97 76
f 78 84 79
f 79 84 98
f 79 98 80
f 80 98 87
f 81 99 84
f 81 84 83
f 81 83 82
f 84 99 100
f 84 100 101
f 84 101 102
f 84 102 103
f 84 103 98
f 86 88 103
f 86 103 89
f 87 98 103
f 87 103 88
f 89 103 90
f 90 103 92
f 90 92 91

