# https://github.com/mikedh/trimesh
v 0.11139669 -0.03786474 0.16610492
v 0.11530284 -0.03783299 0.16610492
v 0.11101575 -0.03659783 0.17040276
v 0.10844584 -0.03607075 0.16935272
v 0.10792717 -0.03651845 0.16610492
v 0.10550671 -0.01956601 -0.04749292
v 0.10749055 -0.01932152 -0.05274312
v 0.11139963 -0.01937868 -0.05274312
v 0.11529991 -0.01937868 -0.05274312
v 0.11856431 -0.03648988 0.16610492
v 0.11810132 -0.03603582 0.16923062
v 0.11553727 -0.03657878 0.17032950
v 0.11762074 -0.01959142 -0.04803015
v 0.11920899 -0.01860710 -0.05662583
v 0.11438858 -0.03575640 0.17233191
v 0.11206189 -0.03575640 0.17233191
v 0.10945681 -0.03396876 0.17196562
v 0.10824072 -0.03288919 0.17040276
v 0.10637409 -0.03322259 0.16610492
v 0.09837425 -0.01862615 0.09575219
v 0.09838011 -0.01861663 0.09184505
v 0.09962551 -0.01272027 -0.07596612
v 0.10162694 -0.01563828 -0.06644249
v 0.10749055 -0.01895320 -0.05662583
v 0.11139963 -0.01900400 -0.05662583
v 0.11529991 -0.01900400 -0.05662583
v 0.12725864 -0.01758786 0.09963490
v 0.11987710 -0.03322259 0.16610492
v 0.12226241 -0.01650511 -0.06444009
v 0.12615390 -0.01260596 -0.07596612
v 0.12523670 -0.01968667 0.04881780
v 0.12530703 -0.01973430 0.05272493
v 0.12537150 -0.01977558 0.05663206
v 0.12717659 -0.01758786 0.08473896
v 0.12724105 -0.01758786 0.08791351
v 0.12729380 -0.01758786 0.09184505
v 0.12730553 -0.01758786 0.09575219
v 0.11852915 -0.03322259 0.16981669
v 0.11687350 -0.03322259 0.17177026
v 0.11920899 -0.01819433 -0.06055738
v 0.11491896 -0.03322259 0.17252726
v 0.11139669 -0.01368235 0.17350405
v 0.11101575 -0.03288919 0.17240516
v 0.10876524 -0.01368235 0.17250285
v 0.10532503 -0.01261866 0.16844920
v 0.09769148 -0.01581927 0.10586188
v 0.09762408 -0.01617489 0.10356644
v 0.09755082 -0.01653687 0.09963490
v 0.09751859 -0.01667340 0.09575219
v 0.09751859 -0.01666387 0.09184505
v 0.09813689 -0.01024043 -0.07596612
v 0.09994198 -0.01289173 -0.07596612
v 0.10275804 -0.01540967 -0.06905538
v 0.10749055 -0.01835626 -0.06055738
v 0.11139963 -0.01837531 -0.06055738
v 0.11529991 -0.01837531 -0.06055738
v 0.12700663 -0.01368235 0.09963490
v 0.12690700 -0.01368235 0.10356644
v 0.12713850 -0.01758786 0.10356644
v 0.12118404 -0.01182168 0.16432230
v 0.12070933 -0.01334896 0.16581188
v 0.12692165 -0.01758786 0.10744915
v 0.12662862 -0.01758786 0.11138070
v 0.12169099 -0.01594310 -0.06837164
v 0.12309462 -0.01372681 -0.07596612
v 0.12743153 -0.00994831 -0.07596612
v 0.12745205 -0.00975780 -0.07596612
v 0.12704473 -0.01368235 0.09575219
v 0.11911522 -0.01368235 0.17001205
v 0.11754455 -0.01368235 0.17220980
v 0.11530284 -0.01368235 0.17318659
v 0.11920899 -0.01740687 -0.06444009
v 0.11157252 -0.00958633 0.17321101
v 0.11139669 -0.00977367 0.17323543
v 0.10896744 -0.00958633 0.17235632
v 0.10894692 -0.00977367 0.17235632
v 0.10532503 -0.01115489 0.16844920
v 0.09769148 -0.01549222 0.10586188
v 0.09762408 -0.01521598 0.10356644
v 0.09755082 -0.01492704 0.09963490
v 0.09751859 -0.01481273 0.09575219
v 0.09751859 -0.01482860 0.09184505
v 0.09804019 -0.00977367 -0.07596612
v 0.10359905 -0.01392367 -0.07596612
v 0.10386864 -0.01589865 -0.06800534
v 0.10386864 -0.01499054 -0.07191248
v 0.10749055 -0.01743545 -0.06444009
v 0.10536312 -0.01565098 -0.07037403
v 0.11139963 -0.01743863 -0.06444009
v 0.11529991 -0.01743863 -0.06444009
v 0.12539787 -0.01154226 0.10744915
v 0.12637074 -0.00673182 -0.07596612
v 0.12531582 -0.01157402 0.11138070
v 0.12520447 -0.01163752 0.11450640
v 0.12671653 -0.01368235 0.10744915
v 0.12118404 -0.01167245 0.16432230
v 0.12060382 -0.01012930 0.16581188
v 0.12643522 -0.01368235 0.11138070
v 0.12116353 -0.01563511 -0.07032520
v 0.11920899 -0.01395542 -0.07596612
v 0.11870204 -0.00958633 0.17035393
v 0.11761195 -0.01070401 0.17225865
v 0.11558708 -0.00958633 0.17284472
v 0.11920899 -0.01627332 -0.06837164
v 0.11139963 -0.00542681 -0.07596612
v 0.11139669 -0.00958633 0.17321101
v 0.10700704 -0.00958633 0.16998763
v 0.10749055 -0.00544586 -0.07596612
v 0.10358146 -0.00547127 -0.07596612
v 0.10570889 -0.00958633 0.16686192
v 0.10561806 -0.00958633 0.16610492
v 0.10518437 -0.01078021 0.16610492
v 0.10691620 -0.00958633 0.16986554
v 0.09886654 -0.01297111 0.09963490
v 0.09882845 -0.01285997 0.09575219
v 0.09893101 -0.01326323 0.10356644
v 0.09958448 -0.00659211 -0.07596612
v 0.10383934 -0.01393320 -0.07596612
v 0.10749055 -0.01629237 -0.06837164
v 0.11139963 -0.01629555 -0.06837164
v 0.11529991 -0.01629237 -0.06837164
v 0.12313565 -0.00556652 -0.07596612
v 0.12052471 -0.00958633 0.16586073
v 0.11529991 -0.01396812 -0.07596612
v 0.11866101 -0.00958633 0.17040276
v 0.12286313 -0.00554112 -0.07596612
v 0.11920899 -0.00545539 -0.07596612
v 0.11565741 -0.00958633 0.17282030
v 0.11529991 -0.00543316 -0.07596612
v 0.10339978 -0.00551572 -0.07596612
v 0.10749055 -0.01396177 -0.07596612
f 1 2 3
f 1 3 4
f 1 4 5
f 1 5 6
f 1 6 7
f 1 7 8
f 1 8 9
f 1 9 2
f 2 10 11
f 2 11 12
f 2 12 3
f 2 9 13
f 2 13 14
f 2 14 10
f 3 12 15
f 3 15 16
f 3 16 4
f 4 16 17
f 4 17 18
f 4 18 19
f 4 19 5
f 5 19 20
f 5 20 21
f 5 21 22
f 5 22 23
f 5 23 6
f 6 23 24
f 6 24 7
f 7 24 8
f 8 24 25
f 8 25 26
f 8 26 9
f 9 26 14
f 9 14 13
f 10 27 28
f 10 28 11
f 10 14 29
f 10 29 30
f 10 30 31
f 10 31 32
f 10 32 33
f 10 33 34
f 10 34 35
f 10 35 36
f 10 36 37
f 10 37 27
f 11 28 38
f 11 38 39
f 11 39 15
f 11 15 12
f 14 26 40
f 14 40 29
f 15 39 41
f 15 41 16
f 16 41 42
f 16 42 43
f 16 43 17
f 17 43 42
f 17 42 44
f 17 44 45
f 17 45 18
f 18 45 19
f 19 45 46
f 19 46 47
f 19 47 48
f 19 48 49
f 19 49 20
f 20 49 50
f 20 50 21
f 21 50 51
f 21 51 22
f 22 52 23
f 22 51 83
f 22 83 117
f 22 117 130
f 22 130 109
f 22 109 108
f 22 108 105
f 22 105 129
f 22 129 127
f 22 127 126
f 22 126 122
f 22 122 92
f 22 92 67
f 22 67 66
f 22 66 30
f 22 30 65
f 22 65 100
f 22 100 124
f 22 124 131
f 22 131 118
f 22 118 84
f 22 84 52
f 23 52 53
f 23 53 54
f 23 54 24
f 24 54 25
f 25 54 55
f 25 55 56
f 25 56 26
f 26 56 40
f 27 57 58
f 27 58 59
f 27 59 28
f 27 37 57
f 28 60 61
f 28 61 38
f 28 59 62
f 28 62 63
f 28 63 60
f 29 40 64
f 29 64 30
f 30 64 65
f 30 66 34
f 30 34 32
f 30 32 31
f 32 34 33
f 34 66 35
f 35 66 36
f 36 66 67
f 36 67 37
f 37 67 68
f 37 68 57
f 38 61 69
f 38 69 70
f 38 70 39
f 39 70 71
f 39 71 41
f 40 56 72
f 40 72 64
f 41 71 42
f 42 71 73
f 42 73 74
f 42 74 75
f 42 75 44
f 44 75 76
f 44 76 77
f 44 77 45
f 45 77 78
f 45 78 46
f 46 78 79
f 46 79 47
f 47 79 80
f 47 80 48
f 48 80 81
f 48 81 49
f 49 81 82
f 49 82 50
f 50 82 83
f 50 83 51
f 52 84 53
f 53 85 54
f 53 84 86
f 53 86 85
f 54 87 55
f 54 85 88
f 54 88 87
f 55 87 89
f 55 89 90
f 55 90 56
f 56 90 72
f 57 91 58
f 57 68 67
f 57 67 92
f 57 92 91
f 58 91 93
f 58 93 94
f 58 94 95
f 58 95 59
f 59 95 62
f 60 96 61
f 60 63 96
f 61 96 97
f 61 97 69
f 62 95 98
f 62 98 63
f 63 98 96
f 64 99 65
f 64 72 99
f 65 99 100
f 69 101 102
f 69 102 70
f 69 97 101
f 70 102 71
f 71 103 73
f 71 102 103
f 72 90 104
f 72 104 99
f 73 103 105
f 73 105 106
f 73 106 74
f 74 106 75
f 75 107 77
f 75 77 76
f 75 106 108
f 75 108 109
f 75 109 107
f 77 110 111
f 77 111 112
f 77 112 78
f 77 107 113
f 77 113 110
f 78 112 111
f 78 111 79
f 79 111 80
f 80 114 115
f 80 115 81
f 80 111 116
f 80 116 114
f 81 115 117
f 81 117 83
f 81 83 82
f 84 118 88
f 84 88 86
f 85 86 88
f 87 88 119
f 87 119 120
f 87 120 89
f 88 118 119
f 89 120 90
f 90 120 121
f 90 121 104
f 91 92 93
f 92 122 123
f 92 123 93
f 93 123 94
f 94 123 95
f 95 123 98
f 96 123 97
f 96 98 123
f 97 123 101
f 99 104 100
f 100 104 121
f 100 121 124
f 101 125 102
f 101 123 126
f 101 126 127
f 101 127 125
f 102 128 103
f 102 125 128
f 103 128 127
f 103 127 129
f 103 129 105
f 105 108 106
f 107 109 113
f 109 130 111
f 109 111 110
f 109 110 113
f 111 114 116
f 111 130 117
f 111 117 115
f 111 115 114
f 118 131 119
f 119 131 124
f 119 124 120
f 120 124 121
f 122 126 123
f 125 127 128

