# https://github.com/mikedh/trimesh
v -0.04102994 -0.00585974 -0.15818194
v -0.04102994 -0.00913667 -0.15747509
v -0.04493348 -0.00912337 -0.15747509
v -0.04493348 -0.00585974 -0.15815888
v -0.04202104 -0.00356323 -0.15763643
v -0.04102125 -0.00355991 -0.15763643
v -0.03713510 -0.00585974 -0.15792071
v -0.03713510 -0.00903364 -0.15736753
v -0.03323156 -0.00978142 -0.15437880
v -0.04884571 -0.00964516 -0.15437880
v -0.05275793 -0.00960860 -0.15437880
v -0.04884571 -0.00894723 -0.15727533
v -0.04884571 -0.00585974 -0.15775936
v -0.04495086 -0.00356323 -0.15761338
v -0.04202104 -0.00195136 -0.15725227
v -0.04102125 -0.00195136 -0.15724460
v -0.03942158 -0.00356323 -0.15752887
v -0.03707424 -0.00356323 -0.15732911
v -0.03565715 -0.00024642 -0.15625348
v -0.03368364 -0.00356323 -0.15673751
v -0.03289251 -0.00551410 -0.15706789
v -0.03048431 -0.00658425 -0.15665299
v -0.03048431 -0.00827257 -0.15665299
v -0.03323156 -0.00872124 -0.15703715
v -0.02924109 -0.00914664 -0.15463234
v -0.02542449 -0.00896052 -0.15364890
v 0.00638628 -0.00837892 -0.13983468
v 0.00638628 -0.00846865 -0.13854392
v 0.00603852 -0.00835566 -0.13457944
v 0.00490832 -0.00825263 -0.13092996
v 0.00427367 -0.00809643 -0.12702694
v -0.07798747 -0.00794355 -0.12312393
v -0.07857865 -0.00794355 -0.12312393
v -0.07894379 -0.00813963 -0.12703462
v -0.06057370 -0.00937596 -0.15046810
v -0.06262545 -0.00912337 -0.15052956
v -0.06442507 -0.00890070 -0.15057566
v -0.05660931 -0.00901702 -0.15460929
v -0.05275793 -0.00849524 -0.15682202
v -0.05114088 -0.00356323 -0.15674520
v -0.04882832 -0.00356323 -0.15719849
v -0.04745469 0.00020557 -0.15643019
v -0.04495086 -0.00195136 -0.15722922
v -0.05526176 -0.00806984 -0.15649166
v -0.05526176 -0.00710936 -0.15649166
v -0.05282749 -0.00582983 -0.15685276
v -0.04202104 0.00043156 -0.15655311
v -0.04102125 0.00044153 -0.15654543
v -0.04495086 0.00041162 -0.15653775
v -0.03824791 0.00024213 -0.15643786
v -0.03702208 -0.00171207 -0.15684507
v -0.03397054 -0.00285201 -0.15660690
v -0.03702208 0.00171109 -0.15552358
v -0.03322287 0.00195703 -0.15464002
v -0.03288381 -0.00171207 -0.15603066
v -0.03135369 -0.00397866 -0.15631494
v -0.02928456 -0.00356323 -0.15539296
v -0.02542449 -0.00585974 -0.15441722
v 0.00638628 -0.00585974 -0.14139435
v 0.00638628 -0.00745167 -0.14084116
v -0.02254683 -0.00843209 -0.15298815
v 0.00638628 -0.00835233 -0.13474078
v 0.00400416 -0.00790699 -0.12446847
v -0.07816134 -0.00782058 -0.12111095
v -0.07819612 -0.00782058 -0.12111095
v -0.08043913 -0.00535790 -0.11086169
v -0.08011745 -0.00613559 -0.11531020
v -0.08243002 -0.00456027 -0.11444970
v -0.08243002 -0.00465000 -0.11531020
v -0.08243002 -0.00467327 -0.11786100
v -0.08240394 -0.00469653 -0.11921323
v -0.07879599 -0.00818616 -0.13093764
v -0.07550972 -0.00848195 -0.13874368
v -0.07244080 -0.00865477 -0.14273121
v -0.06858073 -0.00886414 -0.14671874
v -0.06739836 -0.00846201 -0.14933100
v -0.06308622 -0.00819281 -0.15274998
v -0.06262545 -0.00829251 -0.15288059
v -0.06057370 -0.00874118 -0.15344146
v -0.05180161 -0.00356323 -0.15659153
v -0.05159296 -0.00310792 -0.15653775
v -0.05006284 -0.00050233 -0.15619970
v -0.04880224 -0.00186495 -0.15677593
v -0.04695914 0.00782958 -0.15243497
v -0.04495086 0.00236581 -0.15553894
v -0.04880224 0.00168783 -0.15544675
v -0.06308622 -0.00651114 -0.15274998
v -0.06096492 -0.00547090 -0.15365659
v -0.05660931 -0.00582983 -0.15573103
v -0.05418373 -0.00450377 -0.15619201
v -0.04202104 0.00092676 -0.15629957
v -0.04202104 0.00238576 -0.15553894
v -0.04102125 0.00239240 -0.15552358
v -0.03879562 0.00787943 -0.15246570
v -0.03735244 0.00607479 -0.15324939
v -0.03323156 0.00499135 -0.15303426
v -0.03059733 0.00435657 -0.15266547
v -0.02930195 0.00209329 -0.15337999
v -0.02932803 -0.00195136 -0.15498576
v -0.02771097 -0.00356323 -0.15475527
v -0.02522454 -0.00187492 -0.15330316
v -0.02531147 -0.00356323 -0.15377951
v 0.00638628 -0.00482614 -0.14111007
v 0.00638628 -0.00782390 -0.13218231
v 0.00490832 -0.00518176 -0.11086937
v 0.00240450 -0.00606247 -0.11086937
v 0.00193503 -0.00619209 -0.11141488
v -0.00196850 -0.00674710 -0.11531789
v -0.00588074 -0.00608241 -0.11086937
v -0.05520960 0.00338279 -0.08188869
v -0.05654845 0.00338279 -0.08244956
v -0.05911313 0.00338279 -0.08355593
v -0.06060847 0.00338279 -0.08424741
v -0.06319054 0.00338279 -0.08566110
v -0.06509449 0.00338279 -0.08719004
v -0.06730273 0.00338279 -0.08909545
v -0.06850248 0.00338279 -0.09024791
v -0.06925015 0.00338279 -0.09100086
v -0.07095415 0.00338279 -0.09280639
v -0.08234308 -0.00437083 -0.11217550
v -0.08049129 -0.00536455 -0.11109218
v -0.04493348 0.00338279 -0.07977585
v -0.04699392 0.00338279 -0.08003707
v -0.04869791 0.00338279 -0.08026756
v -0.05106264 0.00338279 -0.08075160
v -0.05275793 0.00338279 -0.08112807
v -0.08243002 -0.00356323 -0.11444970
v -0.08243002 -0.00356323 -0.11786100
v -0.08240394 -0.00282542 -0.11921323
v -0.08234308 -0.00356323 -0.12095729
v -0.08226484 -0.00447718 -0.12312393
v -0.07849171 -0.00804325 -0.13394942
v -0.07474466 -0.00819945 -0.14147886
v -0.07123235 -0.00837892 -0.14552017
v -0.06956313 -0.00585974 -0.14773291
v -0.06760701 -0.00585974 -0.14950003
v -0.05372295 -0.00356323 -0.15608444
v -0.05284487 -0.00186495 -0.15586932
v -0.05276663 0.00195371 -0.15438648
v -0.04743730 0.01179778 -0.14859342
v -0.04493348 0.01193072 -0.14874708
v -0.04493348 0.00984359 -0.15069859
v -0.04493348 0.00788608 -0.15247338
v -0.04493348 0.00586874 -0.15362585
v -0.04495086 0.00338279 -0.15498576
v -0.04868052 0.00338279 -0.15455551
v -0.04848926 0.00599503 -0.15318023
v -0.04956730 0.00737759 -0.15215069
v -0.05275793 0.00925534 -0.14978430
v -0.05003676 0.01160835 -0.14837829
v -0.04102994 0.00586874 -0.15365659
v -0.05276663 0.00338279 -0.15364122
v -0.05098439 0.00338279 -0.15404842
v -0.06442507 -0.00547090 -0.15165129
v -0.06262545 -0.00398531 -0.15238887
v -0.06252981 -0.00390887 -0.15242729
v -0.06048676 -0.00356323 -0.15340304
v -0.06006945 -0.00195136 -0.15318792
v -0.05665277 -0.00356323 -0.15510869
v -0.05511397 -0.00356323 -0.15563114
v -0.04102994 0.00338279 -0.15499345
v -0.03803926 0.01183767 -0.14863184
v -0.03545719 0.01169143 -0.14847817
v -0.03622224 0.00751385 -0.15223521
v -0.04102994 0.00792596 -0.15249643
v -0.04102994 0.00987683 -0.15072164
v -0.04102994 0.01195731 -0.14877013
v -0.03323156 0.00694554 -0.15186642
v -0.02931064 0.00574577 -0.15131324
v -0.02798917 0.00348914 -0.15218143
v -0.02792832 0.00338279 -0.15221216
v -0.02639820 0.00088355 -0.15286523
v 0.00638628 -0.00355991 -0.14072592
v 0.00638628 -0.00355991 -0.12494481
v 0.00584726 -0.00355991 -0.11086937
v -0.02041684 0.00338279 -0.08672137
v -0.02236426 0.00338279 -0.08530768
v -0.02387699 0.00338279 -0.08447022
v 0.00190026 -0.00607576 -0.11086937
v -0.02535494 0.00338279 -0.08376337
v -0.02831085 0.00338279 -0.08257249
v -0.02844995 0.00338279 -0.08251871
v -0.03053647 0.00338279 -0.08177345
v -0.03175361 0.00338279 -0.08141235
v -0.03323156 0.00338279 -0.08100514
v -0.03717857 0.00338279 -0.08016768
v -0.04102994 0.00338279 -0.07969901
v -0.05477490 0.00396440 -0.08206541
v -0.05661800 0.00584215 -0.08407070
v -0.05844371 0.00770329 -0.08608367
v -0.06056501 0.00498470 -0.08530000
v -0.06274716 0.00415051 -0.08583781
v -0.06427728 0.00563277 -0.08814274
v -0.06691151 0.00450944 -0.08950266
v -0.07074550 0.00449615 -0.09333653
v -0.07192786 0.00338279 -0.09404337
v -0.08234308 -0.00356323 -0.11217550
v -0.07444038 0.00338279 -0.09742394
v -0.07490116 0.00338279 -0.09826908
v -0.04493348 0.00568927 -0.08107429
v -0.04884571 0.00523728 -0.08134320
v -0.04884571 0.00719147 -0.08246493
v -0.05275793 0.00446956 -0.08177345
v -0.08243002 -0.00278887 -0.11723099
v -0.08179537 -0.00087123 -0.11921323
v -0.08226484 -0.00329403 -0.12312393
v -0.08218659 -0.00356323 -0.12436858
v -0.08212574 -0.00411493 -0.12525214
v -0.07995228 -0.00585974 -0.13093764
v -0.07883946 -0.00585974 -0.13452566
v -0.07800485 -0.00585974 -0.13647716
v -0.07492724 -0.00585974 -0.14170936
v -0.07346667 -0.00585974 -0.14366087
v -0.07671816 -0.00585974 -0.13874368
v -0.07151055 -0.00585974 -0.14578140
v -0.06916322 -0.00356323 -0.14741790
v -0.07119758 -0.00356323 -0.14545871
v -0.07039774 -0.00356323 -0.14625776
v -0.06836338 -0.00356323 -0.14814011
v -0.06721580 -0.00356323 -0.14916965
v -0.05667017 -0.00195136 -0.15465539
v -0.05651367 0.00192712 -0.15318792
v -0.05425327 0.00338279 -0.15322633
v -0.04493348 0.01559650 -0.14455979
v -0.04493348 0.01384836 -0.14655740
v -0.04878485 0.01312052 -0.14687241
v -0.05275793 0.00476867 -0.15289596
v -0.05275793 0.00672287 -0.15173581
v -0.05275793 0.01121286 -0.14795572
v -0.05665277 0.00842780 -0.14905440
v -0.04884571 0.01536053 -0.14422172
v -0.05275793 0.01287126 -0.14599653
v -0.05507050 0.00418707 -0.15256559
v -0.06579001 -0.00356323 -0.15017614
v -0.06448592 -0.00195136 -0.15060639
v -0.06262545 -0.00380917 -0.15234278
v -0.06244288 -0.00356323 -0.15238119
v -0.05925223 0.00060438 -0.15273461
v -0.06202557 -0.00195136 -0.15215069
v -0.03690036 0.01318367 -0.14693387
v -0.04102994 0.01385500 -0.14655740
v -0.03713510 0.01542035 -0.14429856
v -0.03323156 0.01302414 -0.14615787
v -0.03323156 0.01136574 -0.14811706
v -0.03323156 0.00940822 -0.14991491
v -0.02932803 0.00866709 -0.14924649
v -0.02692853 0.00809213 -0.14874708
v -0.02563314 0.00967742 -0.14644215
v -0.02432907 0.01125938 -0.14402965
v -0.02252944 0.01225642 -0.14143276
v -0.02338144 0.01567293 -0.13686132
v -0.01983435 0.01546023 -0.13248963
v -0.01895627 0.01602190 -0.12988505
v -0.01826077 0.01649051 -0.12701158
v -0.01630465 0.01516445 -0.12701158
v -0.01582649 0.01550011 -0.12405358
v -0.01558306 0.01566629 -0.12144901
v -0.01348785 0.01431364 -0.11919786
v -0.01107965 0.01236277 -0.11919786
v -0.01107096 0.01237607 -0.11531789
v -0.01604384 0.00338279 -0.09077805
v -0.01824338 0.00338279 -0.08863446
v -0.02006909 0.00338279 -0.08700564
v -0.01129700 0.01217001 -0.11141488
v -0.01157520 0.01190081 -0.10885640
v -0.01195773 0.01146876 -0.10625182
v -0.01452241 0.01273168 -0.10359347
v -0.01522662 0.01213013 -0.10088133
v -0.01603514 0.01134579 -0.09828444
v -0.01488756 0.00874020 -0.09667099
v -0.01584388 0.00755041 -0.09405874
v -0.01493972 0.00495146 -0.09305993
v -0.01437462 0.00338279 -0.09258358
v -0.01984305 0.00750056 -0.09015572
v -0.02137316 0.00598174 -0.08788920
v -0.02291197 0.00446292 -0.08564574
v -0.02571139 0.00580227 -0.08519243
v -0.02721543 0.00791931 -0.08593769
v -0.02932803 0.00854744 -0.08548439
v -0.02957146 0.00557627 -0.08347142
v -0.03101464 0.00407407 -0.08200394
v -0.03323156 0.00460582 -0.08170430
v -0.03713510 0.00730115 -0.08239578
v -0.03713510 0.00535028 -0.08128941
v -0.04102994 0.00574245 -0.08104355
v -0.05583556 0.00851421 -0.08551512
v -0.05275793 0.00642376 -0.08297970
v -0.05694837 0.00980039 -0.08701333
v -0.06034766 0.00975054 -0.08876508
v -0.06056501 0.00693889 -0.08664454
v -0.06320793 0.00843445 -0.08939509
v -0.06580739 0.00711503 -0.09049378
v -0.06831991 0.00580559 -0.09190746
v -0.06974570 0.00710506 -0.09451972
v -0.07207565 0.00554969 -0.09608707
v -0.07430128 0.00399098 -0.09765443
v -0.07921330 0.00338279 -0.10910226
v -0.07965668 0.00338279 -0.11141488
v -0.07988272 0.00338279 -0.11352772
v -0.08005660 0.00338279 -0.11531789
v -0.08179537 -0.00083467 -0.11723099
v -0.08212574 -0.00182506 -0.11723099
v -0.07670947 0.00338279 -0.10187245
v -0.07729196 0.00338279 -0.10310943
v -0.07823958 0.00338279 -0.10518387
v -0.07851779 0.00338279 -0.10607511
v -0.07885686 0.00338279 -0.10750418
v -0.04493348 0.00763682 -0.08219602
v -0.04921954 0.01015932 -0.08461620
v -0.05075835 0.01172135 -0.08601452
v -0.08163019 -0.00134316 -0.12312393
v -0.08075210 0.00195371 -0.11921323
v -0.08212574 -0.00375267 -0.12525214
v -0.07869167 -0.00195136 -0.13394942
v -0.07943934 -0.00356323 -0.13241280
v -0.07770057 -0.00195136 -0.13589325
v -0.07730065 -0.00356323 -0.13706877
v -0.07473597 -0.00356323 -0.14139435
v -0.07435344 -0.00356323 -0.14190912
v -0.07097154 -0.00195136 -0.14522822
v -0.07466642 -0.00272904 -0.14127142
v -0.06888502 -0.00195136 -0.14718741
v -0.06693759 -0.00195136 -0.14892380
v -0.05560082 0.00338279 -0.15278839
v -0.05770473 0.00321330 -0.15202776
v -0.04493348 0.01684279 -0.14260828
v -0.04102994 0.01557655 -0.14452906
v -0.04884571 0.01665668 -0.14227022
v -0.05649629 0.00564274 -0.15105202
v -0.05665277 0.01038199 -0.14713363
v -0.05875669 0.01179114 -0.14469039
v -0.05665277 0.01217998 -0.14518212
v -0.05873930 0.00789272 -0.14857037
v -0.05275793 0.01481881 -0.14345342
v -0.05275793 0.01614819 -0.14150192
v -0.06649421 0.00008925 -0.14857037
v -0.06426859 0.00161804 -0.14922343
v -0.06056501 0.00192712 -0.15130555
v -0.03713510 0.01664338 -0.14234706
v -0.03323156 0.01625786 -0.14171704
v -0.03323156 0.01497833 -0.14367623
v -0.02932803 0.01236277 -0.14541261
v -0.02932803 0.01062128 -0.14736412
v -0.02693722 0.01191743 -0.14485175
v -0.02555490 0.01282473 -0.14269279
v -0.02542449 0.01490854 -0.13955808
v -0.02263377 0.01608837 -0.13483298
v -0.02542449 0.01612825 -0.13760658
v -0.02542449 0.01740113 -0.13483298
v -0.02129492 0.01680956 -0.13108362
v -0.02178177 0.01848790 -0.12681949
v -0.02325973 0.01963782 -0.12539044
v -0.02102541 0.01880363 -0.12310088
v -0.01731314 0.01663009 -0.12288575
v -0.01760003 0.01716517 -0.11919786
v -0.01545266 0.01577264 -0.11919786
v -0.01533963 0.01585572 -0.11531789
v -0.01338352 0.01433026 -0.11531789
v -0.01732183 0.00622767 -0.09161551
v -0.01879978 0.00490161 -0.08921070
v -0.01545266 0.01577264 -0.11254429
v -0.01396601 0.01437346 -0.11129963
v -0.01343568 0.01312384 -0.10753490
v -0.01617424 0.01529738 -0.10750418
v -0.01705232 0.01468587 -0.10359347
v -0.01954746 0.01563305 -0.10163427
v -0.01779130 0.01358913 -0.09995936
v -0.01724359 0.01011944 -0.09539559
v -0.01864330 0.01244586 -0.09671709
v -0.01983435 0.01149867 -0.09410483
v -0.01844334 0.00889308 -0.09276029
v -0.02113843 0.01008288 -0.09156173
v -0.02245120 0.00866709 -0.08917228
v -0.02460727 0.00706851 -0.08656002
v -0.02932803 0.01050164 -0.08698259
v -0.02568531 0.00959433 -0.08806591
v -0.03245781 0.01129594 -0.08634490
v -0.03355324 0.00990341 -0.08501572
v -0.03323156 0.00656334 -0.08284140
v -0.03713510 0.00976383 -0.08410911
v -0.04102994 0.00768667 -0.08217297
v -0.05275793 0.00931516 -0.08493889
v -0.05275793 0.01126603 -0.08636026
v -0.05665277 0.01241262 -0.08916460
v -0.05889579 0.01188419 -0.08974851
v -0.06148655 0.01103671 -0.09058597
v -0.06320793 0.01224313 -0.09318286
v -0.06451201 0.00978045 -0.09183832
v -0.06713755 0.00852418 -0.09309066
v -0.07078897 0.00837462 -0.09713198
v -0.06837208 0.00975054 -0.09581817
v -0.07486638 0.00483514 -0.09968277
v -0.07351014 0.00679266 -0.09968277
v -0.07843954 0.00436986 -0.10750418
v -0.07887423 0.00507776 -0.11141488
v -0.08006529 0.00338279 -0.11760746
v -0.08040436 0.00267822 -0.11723099
v -0.08075210 0.00195371 -0.11723099
v -0.07906550 0.00541342 -0.11531789
v -0.07816134 0.00391787 -0.10554498
v -0.04102994 0.00976383 -0.08365581
v -0.04493348 0.00976383 -0.08374801
v -0.04816759 0.01193737 -0.08580708
v -0.05008892 0.01544694 -0.09016340
v -0.05275793 0.01313714 -0.08831946
v -0.04748947 0.01577264 -0.08973315
v -0.08038697 0.00195371 -0.12312393
v -0.08005660 0.00338279 -0.11921323
v -0.07887423 0.00508773 -0.12310088
v -0.07970016 0.00338279 -0.12312393
v -0.07958713 0.00195371 -0.12703462
v -0.08201272 -0.00356323 -0.12544422
v -0.07985664 -0.00195136 -0.13093764
v -0.07830045 0.00030527 -0.13317343
v -0.07569229 -0.00163563 -0.13909710
v -0.07492724 0.00195371 -0.13786012
v -0.07420564 -0.00012345 -0.14063372
v -0.07051945 0.00029530 -0.14479028
v -0.07316238 -0.00163563 -0.14260828
v -0.05787861 0.00338279 -0.15183569
v -0.04493348 0.01879366 -0.13918161
v -0.04102994 0.01875046 -0.13925844
v -0.04102994 0.01679626 -0.14257755
v -0.04894134 0.01875378 -0.13850550
v -0.05275793 0.01773680 -0.13873599
v -0.06005207 0.00947801 -0.14625776
v -0.06135615 0.01105998 -0.14380685
v -0.06312099 0.01210022 -0.14120227
v -0.06026072 0.01257880 -0.14256986
v -0.05774820 0.01531732 -0.14025725
v -0.05653975 0.01424385 -0.14239315
v -0.06025203 0.00566601 -0.14920807
v -0.06133876 0.00683254 -0.14782510
v -0.06331226 0.00845439 -0.14522053
v -0.05513136 0.01577264 -0.14091031
v -0.05653975 0.01657359 -0.13886661
v -0.06703323 0.00464238 -0.14513602
v -0.06599866 0.00338279 -0.14683399
v -0.06543356 0.00269151 -0.14775596
v -0.06329487 0.00338279 -0.14887769
v -0.06806779 0.00149507 -0.14627312
v -0.06745053 0.00338279 -0.14559700
v -0.06199949 0.00338279 -0.14966905
v -0.06044329 0.00338279 -0.15049114
v -0.03797840 0.01974085 -0.13715328
v -0.03686559 0.01876375 -0.13856696
v -0.03323156 0.01791294 -0.13873599
v -0.02926717 0.01671318 -0.13895112
v -0.03053647 0.01587567 -0.14107934
v -0.03537894 0.01950488 -0.13670766
v -0.02926717 0.01445987 -0.14248535
v -0.02791963 0.01543365 -0.14041091
v -0.02544188 0.01881692 -0.13099910
v -0.02921501 0.01880695 -0.13480993
v -0.03045823 0.01984055 -0.13349612
v -0.02784138 0.01936529 -0.13235902
v -0.02415519 0.01924565 -0.12799501
v -0.02544188 0.02012969 -0.12681949
v -0.02542449 0.02080767 -0.12310088
v -0.02298152 0.01976743 -0.12310088
v -0.02066896 0.01897645 -0.11919786
v -0.02050378 0.01909277 -0.11531789
v -0.01760003 0.01736125 -0.11531789
v -0.01728706 0.01676635 -0.11129963
v -0.01577433 0.01554332 -0.10993203
v -0.01812166 0.01648718 -0.10750418
v -0.01900844 0.01594546 -0.10359347
v -0.02151226 0.01737454 -0.10359347
v -0.02172092 0.01617145 -0.10006692
v -0.02055594 0.01504812 -0.09902202
v -0.02149488 0.01373536 -0.09579512
v -0.02243381 0.01242259 -0.09296774
v -0.02417258 0.01126935 -0.09037085
v -0.02932803 0.01264859 -0.08893410
v -0.02677204 0.01206366 -0.08957180
v -0.03355324 0.01304740 -0.08777396
v -0.03507466 0.01175790 -0.08597611
v -0.03713510 0.01197725 -0.08576867
v -0.05694837 0.01457952 -0.09190746
v -0.05275793 0.01508801 -0.09064744
v -0.06034766 0.01287126 -0.09187673
v -0.05844371 0.01555994 -0.09395117
v -0.06094754 0.01511459 -0.09546475
v -0.06249504 0.01561644 -0.09775431
v -0.06450332 0.01308729 -0.09579512
v -0.06700715 0.01219328 -0.09710893
v -0.06582478 0.01112977 -0.09450436
v -0.06961530 0.01097689 -0.09882994
v -0.07138884 0.00971065 -0.09995936
v -0.07413609 0.00766008 -0.10188782
v -0.07617046 0.00579562 -0.10371640
v -0.07717024 0.00632405 -0.10750418
v -0.07763102 0.00702862 -0.11141488
v -0.07787445 0.00736429 -0.11531789
v -0.07906550 0.00540678 -0.11919786
v -0.07471858 0.00847100 -0.10449240
v -0.04102994 0.01222319 -0.08553817
v -0.04493348 0.01216004 -0.08559964
v -0.05275793 0.01649715 -0.09259895
v -0.04493348 0.01411423 -0.08770481
v -0.04493348 0.01583246 -0.08965631
v -0.04493348 0.01731805 -0.09186905
v -0.04884571 0.01887010 -0.09513437
v -0.04881962 0.01674641 -0.09163087
v -0.07846563 0.00440974 -0.12701158
v -0.07893510 0.00338279 -0.12703462
v -0.07787445 0.00735432 -0.11919786
v -0.07767449 0.00704192 -0.12310088
v -0.07817873 0.00395110 -0.12902455
v -0.07829175 0.00338279 -0.12943944
v -0.07860473 0.00174765 -0.13057654
v -0.08120419 -0.00225379 -0.12674267
v -0.07768318 0.00291086 -0.13165217
v -0.07684857 0.00174765 -0.13461785
v -0.07455340 0.00338279 -0.13726852
v -0.07364054 0.00195371 -0.13981162
v -0.07086721 0.00470220 -0.14130983
v -0.07116280 0.00338279 -0.14190143
v -0.07151925 0.00174101 -0.14263133
v -0.06997174 0.00338279 -0.14322293
v -0.06964138 0.00290089 -0.14392209
v -0.04493348 0.01974085 -0.13722242
v -0.04102994 0.01980399 -0.13729926
v -0.04770681 0.01965111 -0.13705339
v -0.05030627 0.01946500 -0.13661546
v -0.05275793 0.01917253 -0.13603154
v -0.06226030 0.01547685 -0.13644643
v -0.05966084 0.01616813 -0.13764500
v -0.06452071 0.00983362 -0.14266206
v -0.06573785 0.01121286 -0.13996529
v -0.06445115 0.01284135 -0.13869758
v -0.06281671 0.00422695 -0.14870867
v -0.06436421 0.00573912 -0.14648056
v -0.06590302 0.00723800 -0.14413721
v -0.06732012 0.00860727 -0.14153265
v -0.05660931 0.01864078 -0.13472542
v -0.05527045 0.01976411 -0.13335014
v -0.06847640 0.00597509 -0.14271584
v -0.06519013 0.00338279 -0.14747168
v -0.03686559 0.02035568 -0.13517103
v -0.04102994 0.02081764 -0.13483298
v -0.03323156 0.01923900 -0.13620057
v -0.03323156 0.02013966 -0.13424906
v -0.02675465 0.01979734 -0.12975445
v -0.03323156 0.02123972 -0.13092228
v -0.02921501 0.02025598 -0.13099910
v -0.02932803 0.02139925 -0.12701158
v -0.02932803 0.02208388 -0.12310088
v -0.02542449 0.02116661 -0.11919786
v -0.02262508 0.01993693 -0.11919786
v -0.02088631 0.01889336 -0.11141488
v -0.02245989 0.01998346 -0.11531789
v -0.02284242 0.01979734 -0.11141488
v -0.02179916 0.01857099 -0.10761174
v -0.02379874 0.01938524 -0.10639012
v -0.02523323 0.01910274 -0.10324773
v -0.02317279 0.01577264 -0.09746235
v -0.02542449 0.01776007 -0.09968277
v -0.02462466 0.01502486 -0.09485778
v -0.02724151 0.01569620 -0.09372068
v -0.02570270 0.01354260 -0.09203808
v -0.02932803 0.01459946 -0.09128514
v -0.03323156 0.01530403 -0.09040926
v -0.03553543 0.01560979 -0.08994827
v -0.05583556 0.01604516 -0.09324433
v -0.05268838 0.01853111 -0.09599488
v -0.05694837 0.01684279 -0.09546475
v -0.05685273 0.01887675 -0.09962899
v -0.05827853 0.01943176 -0.10197234
v -0.05989558 0.01617478 -0.09655574
v -0.06351222 0.01620136 -0.10036657
v -0.06467719 0.01501157 -0.09931398
v -0.06833730 0.01273832 -0.09995936
v -0.07044121 0.01183767 -0.10143452
v -0.07314500 0.00977048 -0.10335530
v -0.07521413 0.00914234 -0.10750418
v -0.07409263 0.01153855 -0.11023936
v -0.07544017 0.01004965 -0.11149939
v -0.07433605 0.01182770 -0.11283625
v -0.07610960 0.00976383 -0.11531789
v -0.07610960 0.00976383 -0.11919786
v -0.07371879 0.01109986 -0.10750418
v -0.04102994 0.01417738 -0.08778164
v -0.05133214 0.01968767 -0.09742394
v -0.04102994 0.01575602 -0.08973315
v -0.04102994 0.01722166 -0.09186905
v -0.04493348 0.01907283 -0.09481936
v -0.04102994 0.01904624 -0.09471948
v -0.04884571 0.01983058 -0.09709356
v -0.07723110 0.00636726 -0.12701158
v -0.07435344 0.01183102 -0.12166414
v -0.07548364 0.01004965 -0.12302404
v -0.07528368 0.00913237 -0.12701158
v -0.07790922 0.00338279 -0.13046129
v -0.07464034 0.00832145 -0.13092228
v -0.07428389 0.00784952 -0.13291988
v -0.07599658 0.00338279 -0.13454871
v -0.07482291 0.00557960 -0.13447187
v -0.07437083 0.00408404 -0.13696888
v -0.06991958 0.00730115 -0.14017273
v -0.07216259 0.00569924 -0.13856696
v -0.04493348 0.02075118 -0.13483298
v -0.04894134 0.02027592 -0.13511725
v -0.05275793 0.02005325 -0.13408004
v -0.06692020 0.01206034 -0.13736071
v -0.06451201 0.01473904 -0.13501737
v -0.06584217 0.01527080 -0.13204400
v -0.06322533 0.01603187 -0.13384186
v -0.06079974 0.01678962 -0.13501737
v -0.06842424 0.00981700 -0.13875905
v -0.05787861 0.01922571 -0.13195182
v -0.05660931 0.02008981 -0.13075325
v -0.05665277 0.02110346 -0.12701158
v -0.05275793 0.02111676 -0.13092228
v -0.03713510 0.02174489 -0.13092228
v -0.04102994 0.02202406 -0.13092228
v -0.04493348 0.02202738 -0.13092228
v -0.03323156 0.02217362 -0.12701158
v -0.02932803 0.02243617 -0.11919786
v -0.03323156 0.02279843 -0.12310088
v -0.02932803 0.02254584 -0.11531789
v -0.02542449 0.02124637 -0.11531789
v -0.02329450 0.01961788 -0.10899470
v -0.02542449 0.02085753 -0.11141488
v -0.02523323 0.02019616 -0.10761174
v -0.02639820 0.01995022 -0.10432336
v -0.02746755 0.01951153 -0.10171880
v -0.02572878 0.01615816 -0.09601024
v -0.02898897 0.01899972 -0.09959825
v -0.03224916 0.01929550 -0.09824602
v -0.03342283 0.01849455 -0.09607171
v -0.02932803 0.01596540 -0.09323664
v -0.03323156 0.01646059 -0.09236077
v -0.03713510 0.01882025 -0.09514206
v -0.05394030 0.01930547 -0.09829213
v -0.05567037 0.01982393 -0.10089670
v -0.05685273 0.02027924 -0.10340908
v -0.05924354 0.01982393 -0.10458460
v -0.06054762 0.01883354 -0.10340908
v -0.06467719 0.01669656 -0.10353969
v -0.06611168 0.01543697 -0.10219514
v -0.07098892 0.01232289 -0.10359347
v -0.06823298 0.01442996 -0.10353969
v -0.07176267 0.01298094 -0.10750418
v -0.07258859 0.01310723 -0.11149939
v -0.06990220 0.01533062 -0.11141488
v -0.07229300 0.01375198 -0.11531789
v -0.07444907 0.01193072 -0.11531789
v -0.07444907 0.01193072 -0.11919786
v -0.05268838 0.02015295 -0.09962899
v -0.04884571 0.02084423 -0.09968277
v -0.04884571 0.02216697 -0.10359347
v -0.04102994 0.02005990 -0.09667099
v -0.04493348 0.01995687 -0.09677087
v -0.03713510 0.01988043 -0.09709356
v -0.04493348 0.02114334 -0.09968277
v -0.07229300 0.01369216 -0.11919786
v -0.07004999 0.01543697 -0.11919786
v -0.06977179 0.01521430 -0.12310088
v -0.07257120 0.01301749 -0.12302404
v -0.07406655 0.01154188 -0.12426871
v -0.07365794 0.01109321 -0.12701158
v -0.07287549 0.01027897 -0.13092228
v -0.07042382 0.01179778 -0.13303514
v -0.07193655 0.00943481 -0.13427979
v -0.07084982 0.00841451 -0.13756816
v -0.07345798 0.00669628 -0.13553214
v -0.04884571 0.02173492 -0.13092228
v -0.06952836 0.01102010 -0.13563970
v -0.06828514 0.01253559 -0.13453333
v -0.06673763 0.01583911 -0.12943944
v -0.06451201 0.01651709 -0.13081472
v -0.06035635 0.01855437 -0.13075325
v -0.05890448 0.01966441 -0.12934724
v -0.05972170 0.02002666 -0.12701158
v -0.05665277 0.02185124 -0.12310088
v -0.05275793 0.02204732 -0.12701158
v -0.04269047 0.02346644 -0.12514458
v -0.03713510 0.02261231 -0.12701158
v -0.04472482 0.02302110 -0.12667352
v -0.04326426 0.02346644 -0.12514458
v -0.03809142 0.02360935 -0.12206365
v -0.03348369 0.02318062 -0.11909798
v -0.03283165 0.02323380 -0.11531789
v -0.03550935 0.02338668 -0.12033495
v -0.02932803 0.02227000 -0.11141488
v -0.03344022 0.02318395 -0.11144561
v -0.02932803 0.02168839 -0.10750418
v -0.02898897 0.02046536 -0.10324773
v -0.03006700 0.01990369 -0.10085060
v -0.03342283 0.02023604 -0.09959825
v -0.03486600 0.01962452 -0.09756992
v -0.05275793 0.02141919 -0.10359347
v -0.05665277 0.02135605 -0.10750418
v -0.05275793 0.02241290 -0.10750418
v -0.05996513 0.02010975 -0.10750418
v -0.06192124 0.01924565 -0.10750418
v -0.06448592 0.01787639 -0.10750418
v -0.06682457 0.01586237 -0.10480740
v -0.06932840 0.01493180 -0.10750418
v -0.06794608 0.01666997 -0.11141488
v -0.06819820 0.01686606 -0.11531789
v -0.07015432 0.01550676 -0.11531789
v -0.04493348 0.02250596 -0.10359347
v -0.04884571 0.02311748 -0.10755796
v -0.04493348 0.02327368 -0.10655915
v -0.03713510 0.02103035 -0.09968277
v -0.04102994 0.02128958 -0.09968277
v -0.06809387 0.01675306 -0.11919786
v -0.06780697 0.01657692 -0.12310088
v -0.06726796 0.01621466 -0.12701158
v -0.06921538 0.01480884 -0.12701158
v -0.07170182 0.01285797 -0.12701158
v -0.07092806 0.01221654 -0.13092228
v -0.04884571 0.02261564 -0.12701158
v -0.06448592 0.01780327 -0.12701158
v -0.06167782 0.01917253 -0.12701158
v -0.06239941 0.01948162 -0.12439163
v -0.06088668 0.02028257 -0.12309319
v -0.05665277 0.02223011 -0.11919786
v -0.05275793 0.02267878 -0.12310088
v -0.04125598 0.02374893 -0.12326222
v -0.04008231 0.02336341 -0.12467591
v -0.04588111 0.02337006 -0.12460676
v -0.04472482 0.02372567 -0.12322380
v -0.03692645 0.02368579 -0.11909798
v -0.04102994 0.02417101 -0.11919786
v -0.03496164 0.02347641 -0.11774575
v -0.03478776 0.02350300 -0.11531789
v -0.03489209 0.02348970 -0.11276709
v -0.03323156 0.02263558 -0.10750418
v -0.03563976 0.02338335 -0.11016253
v -0.03323156 0.02171166 -0.10359347
v -0.05665277 0.02194097 -0.11141488
v -0.05275793 0.02296127 -0.11141488
v -0.06088668 0.02031248 -0.11123048
v -0.06239072 0.01948494 -0.10980911
v -0.06428597 0.01877372 -0.11123048
v -0.06737228 0.01621466 -0.10750418
v -0.06499017 0.01881692 -0.11531789
v -0.04102994 0.02256246 -0.10359347
v -0.04754163 0.02352959 -0.10890250
v -0.04493348 0.02358941 -0.10851066
v -0.04102994 0.02328697 -0.10649768
v -0.03713510 0.02236970 -0.10359347
v -0.06483368 0.01870725 -0.11919786
v -0.06415556 0.01869728 -0.12309319
v -0.04894134 0.02321053 -0.12322380
v -0.04770681 0.02357279 -0.12200219
v -0.06287757 0.01970761 -0.11919786
v -0.06056501 0.02077444 -0.11919786
v -0.05665277 0.02226002 -0.11531789
v -0.05275793 0.02309754 -0.11531789
v -0.05275793 0.02301445 -0.11919786
v -0.06056501 0.02085088 -0.11531789
v -0.04493348 0.02411119 -0.11919786
v -0.04493348 0.02403475 -0.11531789
v -0.04102994 0.02405137 -0.11531789
v -0.03713510 0.02374893 -0.11531789
v -0.03702208 0.02360270 -0.11144561
v -0.03823052 0.02353956 -0.10881030
v -0.03702208 0.02319059 -0.10750418
v -0.05028888 0.02337671 -0.11141488
v -0.06285149 0.01968102 -0.11241367
v -0.06303406 0.01977076 -0.11531789
v -0.04493348 0.02384531 -0.11141488
v -0.04835016 0.02361932 -0.11141488
v -0.04102994 0.02360270 -0.10844919
v -0.04829799 0.02366252 -0.11919786
v -0.05059317 0.02340994 -0.11531789
v -0.04864575 0.02367582 -0.11531789
v -0.04102994 0.02383867 -0.11141488
f 1 2 3
f 1 3 4
f 1 4 5
f 1 5 6
f 1 6 7
f 1 7 8
f 1 8 2
f 2 8 9
f 2 9 3
f 3 10 11
f 3 11 12
f 3 12 4
f 3 9 10
f 4 12 13
f 4 13 14
f 4 14 5
f 5 15 6
f 5 14 43
f 5 43 15
f 6 16 17
f 6 17 7
f 6 15 16
f 7 17 18
f 7 18 19
f 7 19 20
f 7 20 21
f 7 21 22
f 7 22 23
f 7 23 24
f 7 24 8
f 8 24 9
f 9 24 25
f 9 25 26
f 9 26 27
f 9 27 28
f 9 28 29
f 9 29 30
f 9 30 31
f 9 31 32
f 9 32 33
f 9 33 34
f 9 34 35
f 9 35 10
f 10 35 11
f 11 35 36
f 11 36 37
f 11 37 38
f 11 38 12
f 12 38 39
f 12 39 13
f 13 40 41
f 13 41 42
f 13 42 43
f 13 43 14
f 13 39 44
f 13 44 45
f 13 45 46
f 13 46 40
f 15 47 48
f 15 48 16
f 15 43 49
f 15 49 47
f 16 48 50
f 16 50 51
f 16 51 17
f 17 51 18
f 18 51 19
f 19 52 20
f 19 51 50
f 19 50 53
f 19 53 54
f 19 54 55
f 19 55 52
f 20 52 56
f 20 56 21
f 21 56 22
f 22 56 57
f 22 57 58
f 22 58 59
f 22 59 23
f 23 59 60
f 23 60 61
f 23 61 26
f 23 26 24
f 24 26 25
f 26 61 27
f 27 60 59
f 27 59 103
f 27 103 173
f 27 173 174
f 27 174 104
f 27 104 62
f 27 62 28
f 27 61 60
f 28 62 29
f 29 62 30
f 30 62 31
f 31 62 63
f 31 63 64
f 31 64 32
f 32 64 65
f 32 65 33
f 33 65 66
f 33 66 67
f 33 67 34
f 34 67 68
f 34 68 69
f 34 69 70
f 34 70 71
f 34 71 72
f 34 72 73
f 34 73 35
f 35 73 74
f 35 74 75
f 35 75 36
f 36 75 37
f 37 76 77
f 37 77 78
f 37 78 79
f 37 79 38
f 37 75 76
f 38 44 39
f 38 79 44
f 40 80 81
f 40 81 82
f 40 82 41
f 40 46 80
f 41 83 42
f 41 82 83
f 42 84 85
f 42 85 49
f 42 49 43
f 42 83 82
f 42 82 86
f 42 86 84
f 44 79 78
f 44 78 77
f 44 77 87
f 44 87 45
f 45 87 88
f 45 88 89
f 45 89 90
f 45 90 46
f 46 90 80
f 47 91 48
f 47 49 85
f 47 85 91
f 48 91 92
f 48 92 93
f 48 93 50
f 50 93 94
f 50 94 53
f 52 55 56
f 53 94 95
f 53 95 96
f 53 96 54
f 54 96 97
f 54 97 98
f 54 98 55
f 55 98 99
f 55 99 56
f 56 99 57
f 57 100 58
f 57 99 101
f 57 101 100
f 58 100 102
f 58 102 59
f 59 101 103
f 59 102 101
f 62 104 105
f 62 105 63
f 63 105 106
f 63 106 107
f 63 107 108
f 63 108 64
f 64 108 107
f 64 107 65
f 65 107 109
f 65 109 66
f 66 110 111
f 66 111 112
f 66 112 113
f 66 113 114
f 66 114 115
f 66 115 116
f 66 116 117
f 66 117 118
f 66 118 119
f 66 119 120
f 66 120 121
f 66 121 67
f 66 109 122
f 66 122 123
f 66 123 124
f 66 124 125
f 66 125 126
f 66 126 110
f 67 121 120
f 67 120 68
f 68 127 204
f 68 204 128
f 68 128 70
f 68 70 69
f 68 120 197
f 68 197 127
f 70 128 129
f 70 129 71
f 71 129 130
f 71 130 131
f 71 131 72
f 72 132 73
f 72 131 132
f 73 132 133
f 73 133 74
f 74 133 134
f 74 134 75
f 75 134 76
f 76 134 135
f 76 135 136
f 76 136 77
f 77 136 87
f 80 90 81
f 81 90 137
f 81 137 138
f 81 138 82
f 82 138 139
f 82 139 86
f 84 140 141
f 84 141 142
f 84 142 143
f 84 143 144
f 84 144 145
f 84 145 85
f 84 86 146
f 84 146 147
f 84 147 148
f 84 148 149
f 84 149 150
f 84 150 140
f 85 145 151
f 85 151 92
f 85 92 91
f 86 139 152
f 86 152 153
f 86 153 146
f 87 154 155
f 87 155 156
f 87 156 88
f 87 136 154
f 88 156 157
f 88 157 89
f 89 157 158
f 89 158 159
f 89 159 160
f 89 160 90
f 90 160 137
f 92 151 161
f 92 161 93
f 93 161 94
f 94 162 163
f 94 163 164
f 94 164 95
f 94 161 151
f 94 151 165
f 94 165 166
f 94 166 167
f 94 167 162
f 95 164 96
f 96 168 97
f 96 164 168
f 97 168 169
f 97 169 170
f 97 170 98
f 98 170 171
f 98 171 172
f 98 172 99
f 99 172 101
f 100 101 102
f 101 173 103
f 101 172 173
f 104 174 175
f 104 175 105
f 105 175 176
f 105 176 177
f 105 177 178
f 105 178 106
f 106 179 107
f 106 178 180
f 106 180 181
f 106 181 182
f 106 182 183
f 106 183 184
f 106 184 185
f 106 185 186
f 106 186 187
f 106 187 179
f 107 179 109
f 109 179 187
f 109 187 122
f 110 188 111
f 110 126 188
f 111 188 189
f 111 189 112
f 112 189 190
f 112 190 113
f 113 190 191
f 113 191 192
f 113 192 114
f 114 192 115
f 115 192 193
f 115 193 194
f 115 194 116
f 116 194 117
f 117 195 118
f 117 194 195
f 118 195 119
f 119 195 196
f 119 196 120
f 120 196 198
f 120 198 199
f 120 199 197
f 122 187 200
f 122 200 123
f 123 200 201
f 123 201 124
f 124 201 125
f 125 201 202
f 125 202 126
f 126 202 203
f 126 203 188
f 127 197 204
f 128 204 129
f 129 204 205
f 129 205 206
f 129 206 130
f 130 206 131
f 131 206 207
f 131 207 208
f 131 208 132
f 132 208 209
f 132 209 210
f 132 210 211
f 132 211 133
f 133 212 213
f 133 213 134
f 133 211 214
f 133 214 212
f 134 213 215
f 134 215 135
f 135 216 136
f 135 215 217
f 135 217 218
f 135 218 216
f 136 216 219
f 136 219 220
f 136 220 154
f 137 160 221
f 137 221 138
f 138 221 222
f 138 222 139
f 139 222 223
f 139 223 152
f 140 224 225
f 140 225 141
f 140 150 226
f 140 226 224
f 141 225 167
f 141 167 166
f 141 166 142
f 142 166 165
f 142 165 143
f 143 165 144
f 144 165 151
f 144 151 145
f 146 153 147
f 147 153 227
f 147 227 148
f 148 227 228
f 148 228 149
f 149 229 150
f 149 228 230
f 149 230 229
f 150 231 226
f 150 229 232
f 150 232 231
f 152 223 233
f 152 233 227
f 152 227 153
f 154 220 234
f 154 234 235
f 154 235 236
f 154 236 155
f 155 236 156
f 156 237 157
f 156 236 237
f 157 237 158
f 158 238 221
f 158 221 159
f 158 237 239
f 158 239 238
f 159 221 160
f 162 240 163
f 162 167 241
f 162 241 240
f 163 240 242
f 163 242 243
f 163 243 244
f 163 244 245
f 163 245 164
f 164 245 168
f 167 225 224
f 167 224 241
f 168 245 246
f 168 246 169
f 169 247 170
f 169 246 247
f 170 247 173
f 170 173 171
f 171 173 172
f 173 247 248
f 173 248 249
f 173 249 250
f 173 250 251
f 173 251 252
f 173 252 253
f 173 253 254
f 173 254 255
f 173 255 256
f 173 256 257
f 173 257 258
f 173 258 259
f 173 259 260
f 173 260 174
f 174 260 175
f 175 261 262
f 175 262 263
f 175 263 176
f 175 260 264
f 175 264 265
f 175 265 266
f 175 266 267
f 175 267 268
f 175 268 269
f 175 269 270
f 175 270 271
f 175 271 272
f 175 272 273
f 175 273 261
f 176 263 274
f 176 274 275
f 176 275 276
f 176 276 177
f 177 276 178
f 178 276 180
f 180 277 278
f 180 278 279
f 180 279 280
f 180 280 181
f 180 276 277
f 181 280 182
f 182 280 281
f 182 281 183
f 183 281 184
f 184 281 185
f 185 281 282
f 185 282 283
f 185 283 284
f 185 284 186
f 186 284 283
f 186 283 187
f 187 283 285
f 187 285 200
f 188 286 189
f 188 203 287
f 188 287 286
f 189 286 190
f 190 288 289
f 190 289 290
f 190 290 192
f 190 192 191
f 190 286 288
f 192 291 193
f 192 290 291
f 193 292 194
f 193 291 292
f 194 292 293
f 194 293 195
f 195 293 294
f 195 294 295
f 195 295 296
f 195 296 196
f 196 296 198
f 197 297 298
f 197 298 299
f 197 299 300
f 197 300 301
f 197 301 302
f 197 302 204
f 197 199 303
f 197 303 304
f 197 304 305
f 197 305 306
f 197 306 307
f 197 307 297
f 198 296 199
f 199 296 303
f 200 308 202
f 200 202 201
f 200 285 308
f 202 309 310
f 202 310 287
f 202 287 203
f 202 308 309
f 204 302 205
f 205 311 206
f 205 302 301
f 205 301 312
f 205 312 311
f 206 311 207
f 207 311 313
f 207 313 208
f 208 313 210
f 208 210 209
f 210 314 211
f 210 313 315
f 210 315 314
f 211 314 316
f 211 316 317
f 211 317 214
f 212 318 319
f 212 319 213
f 212 214 318
f 213 319 320
f 213 320 217
f 213 217 215
f 214 317 321
f 214 321 318
f 216 322 219
f 216 218 320
f 216 320 322
f 217 320 218
f 219 322 220
f 220 323 234
f 220 322 323
f 221 238 222
f 222 324 223
f 222 238 325
f 222 325 324
f 223 324 233
f 224 326 327
f 224 327 241
f 224 226 231
f 224 231 328
f 224 328 326
f 227 233 228
f 228 233 329
f 228 329 230
f 229 230 330
f 229 330 331
f 229 331 332
f 229 332 232
f 230 333 330
f 230 329 333
f 231 232 334
f 231 334 335
f 231 335 328
f 232 332 334
f 233 324 325
f 233 325 329
f 234 323 235
f 235 323 336
f 235 336 239
f 235 239 236
f 236 239 237
f 238 239 336
f 238 336 337
f 238 337 338
f 238 338 325
f 240 241 327
f 240 327 242
f 242 327 339
f 242 339 340
f 242 340 341
f 242 341 243
f 243 341 342
f 243 342 244
f 244 342 343
f 244 343 246
f 244 246 245
f 246 343 247
f 247 343 344
f 247 344 248
f 248 344 249
f 249 344 345
f 249 345 250
f 250 345 346
f 250 346 251
f 251 347 252
f 251 346 348
f 251 348 349
f 251 349 347
f 252 347 253
f 253 347 350
f 253 350 351
f 253 351 254
f 254 351 352
f 254 352 353
f 254 353 354
f 254 354 256
f 254 256 255
f 256 354 257
f 257 354 355
f 257 355 356
f 257 356 258
f 258 356 357
f 258 357 358
f 258 358 259
f 259 358 260
f 260 358 264
f 261 273 272
f 261 272 271
f 261 271 359
f 261 359 262
f 262 360 263
f 262 359 360
f 263 360 274
f 264 358 361
f 264 361 362
f 264 362 265
f 265 362 363
f 265 363 266
f 266 363 267
f 267 363 364
f 267 364 365
f 267 365 268
f 268 365 366
f 268 366 367
f 268 367 269
f 269 368 271
f 269 271 270
f 269 367 369
f 269 369 370
f 269 370 368
f 271 368 370
f 271 370 371
f 271 371 274
f 271 274 359
f 274 372 373
f 274 373 275
f 274 360 359
f 274 371 370
f 274 370 372
f 275 373 276
f 276 373 374
f 276 374 277
f 277 374 278
f 278 375 279
f 278 374 376
f 278 376 375
f 279 375 377
f 279 377 378
f 279 378 379
f 279 379 280
f 280 379 281
f 281 379 282
f 282 379 283
f 283 379 378
f 283 378 380
f 283 380 381
f 283 381 285
f 285 381 308
f 286 287 382
f 286 382 383
f 286 383 288
f 287 310 382
f 288 384 385
f 288 385 289
f 288 383 384
f 289 385 386
f 289 386 291
f 289 291 290
f 291 386 387
f 291 387 388
f 291 388 292
f 292 389 293
f 292 388 389
f 293 389 294
f 294 390 295
f 294 389 391
f 294 391 390
f 295 390 296
f 296 392 303
f 296 390 393
f 296 393 392
f 297 307 394
f 297 394 395
f 297 395 298
f 298 395 299
f 299 395 300
f 300 396 397
f 300 397 398
f 300 398 301
f 300 395 399
f 300 399 396
f 301 398 312
f 303 400 304
f 303 392 400
f 304 400 305
f 305 400 306
f 306 400 394
f 306 394 307
f 308 381 401
f 308 401 402
f 308 402 309
f 309 402 403
f 309 403 310
f 310 404 405
f 310 405 383
f 310 383 382
f 310 403 406
f 310 406 404
f 311 312 407
f 311 407 313
f 312 398 397
f 312 397 396
f 312 396 408
f 312 408 409
f 312 409 410
f 312 410 407
f 313 407 411
f 313 411 412
f 313 412 413
f 313 413 315
f 314 414 316
f 314 315 413
f 314 413 414
f 316 415 321
f 316 321 317
f 316 414 416
f 316 416 417
f 316 417 415
f 318 321 319
f 319 321 320
f 320 418 322
f 320 321 419
f 320 419 418
f 321 417 419
f 321 415 417
f 322 418 336
f 322 336 323
f 325 420 333
f 325 333 329
f 325 338 420
f 326 421 422
f 326 422 423
f 326 423 327
f 326 328 421
f 327 423 339
f 328 424 421
f 328 335 425
f 328 425 424
f 330 333 331
f 331 333 426
f 331 426 427
f 331 427 428
f 331 428 429
f 331 429 430
f 331 430 431
f 331 431 334
f 331 334 332
f 333 420 432
f 333 432 433
f 333 433 434
f 333 434 426
f 334 431 435
f 334 435 335
f 335 435 436
f 335 436 425
f 336 437 438
f 336 438 439
f 336 439 440
f 336 440 337
f 336 418 441
f 336 441 442
f 336 442 437
f 337 440 443
f 337 443 338
f 338 443 444
f 338 444 420
f 339 423 422
f 339 422 445
f 339 445 446
f 339 446 340
f 340 447 448
f 340 448 449
f 340 449 341
f 340 446 450
f 340 450 447
f 341 449 451
f 341 451 342
f 342 451 344
f 342 344 343
f 344 451 452
f 344 452 345
f 345 452 346
f 346 452 348
f 347 349 453
f 347 453 350
f 348 452 448
f 348 448 454
f 348 454 349
f 349 454 455
f 349 455 456
f 349 456 453
f 350 453 457
f 350 457 351
f 351 457 352
f 352 457 458
f 352 458 459
f 352 459 460
f 352 460 353
f 353 461 355
f 353 355 354
f 353 460 461
f 355 461 462
f 355 462 463
f 355 463 356
f 356 463 357
f 357 361 358
f 357 463 361
f 361 463 464
f 361 464 465
f 361 465 362
f 362 465 363
f 363 465 364
f 364 465 464
f 364 464 466
f 364 466 467
f 364 467 365
f 365 467 366
f 366 467 468
f 366 468 469
f 366 469 470
f 366 470 367
f 367 470 369
f 369 470 471
f 369 471 370
f 370 471 472
f 370 472 372
f 372 472 473
f 372 473 373
f 373 473 376
f 373 376 374
f 375 474 377
f 375 376 475
f 375 475 474
f 376 473 475
f 377 474 476
f 377 476 477
f 377 477 378
f 378 477 380
f 380 477 478
f 380 478 401
f 380 401 381
f 383 405 384
f 384 479 385
f 384 405 480
f 384 480 479
f 385 481 386
f 385 479 482
f 385 482 481
f 386 481 387
f 387 481 482
f 387 482 483
f 387 483 484
f 387 484 485
f 387 485 486
f 387 486 487
f 387 487 388
f 388 487 389
f 389 487 391
f 390 391 488
f 390 488 489
f 390 489 490
f 390 490 393
f 391 487 486
f 391 486 488
f 392 393 490
f 392 490 491
f 392 491 400
f 394 400 492
f 394 492 493
f 394 493 395
f 395 493 494
f 395 494 399
f 396 399 495
f 396 495 408
f 399 494 495
f 400 491 496
f 400 496 492
f 401 478 497
f 401 497 402
f 402 498 403
f 402 497 498
f 403 498 406
f 404 499 480
f 404 480 405
f 404 406 499
f 406 498 500
f 406 500 501
f 406 501 502
f 406 502 503
f 406 503 504
f 406 504 499
f 407 410 505
f 407 505 506
f 407 506 411
f 408 495 409
f 409 495 507
f 409 507 508
f 409 508 505
f 409 505 410
f 411 506 509
f 411 509 510
f 411 510 511
f 411 511 413
f 411 413 512
f 411 512 412
f 412 512 413
f 413 511 414
f 414 511 510
f 414 510 513
f 414 513 514
f 414 514 416
f 416 515 516
f 416 516 417
f 416 514 515
f 417 516 517
f 417 517 518
f 417 518 519
f 417 519 418
f 417 418 419
f 418 519 518
f 418 518 517
f 418 517 520
f 418 520 521
f 418 521 441
f 420 444 432
f 421 522 523
f 421 523 422
f 421 424 524
f 421 524 522
f 422 523 445
f 424 425 525
f 424 525 524
f 425 526 525
f 425 436 526
f 426 434 427
f 427 434 428
f 428 527 528
f 428 528 429
f 428 434 529
f 428 529 530
f 428 530 531
f 428 531 527
f 429 528 430
f 430 528 436
f 430 436 435
f 430 435 431
f 432 444 443
f 432 443 532
f 432 532 433
f 433 532 434
f 434 533 534
f 434 534 535
f 434 535 529
f 434 532 533
f 436 536 537
f 436 537 526
f 436 528 536
f 437 534 533
f 437 533 438
f 437 442 521
f 437 521 538
f 437 538 534
f 438 533 539
f 438 539 439
f 439 539 532
f 439 532 440
f 440 532 443
f 441 521 442
f 445 540 450
f 445 450 446
f 445 523 541
f 445 541 540
f 447 542 448
f 447 450 542
f 448 452 449
f 448 542 455
f 448 455 454
f 449 452 451
f 450 540 543
f 450 543 542
f 453 456 544
f 453 544 457
f 455 542 543
f 455 543 545
f 455 545 546
f 455 546 456
f 456 546 544
f 457 544 458
f 458 544 547
f 458 547 459
f 459 547 548
f 459 548 549
f 459 549 460
f 460 550 461
f 460 549 550
f 461 550 462
f 462 551 464
f 462 464 463
f 462 550 552
f 462 552 553
f 462 553 551
f 464 551 466
f 466 551 554
f 466 554 555
f 466 555 468
f 466 468 467
f 468 555 556
f 468 556 469
f 469 557 470
f 469 556 558
f 469 558 557
f 470 557 471
f 471 557 559
f 471 559 472
f 472 559 560
f 472 560 561
f 472 561 473
f 473 561 475
f 474 562 563
f 474 563 476
f 474 475 562
f 475 561 560
f 475 560 562
f 476 564 477
f 476 563 564
f 477 564 478
f 478 564 497
f 479 480 565
f 479 565 482
f 480 499 565
f 482 565 566
f 482 566 567
f 482 567 568
f 482 568 569
f 482 569 570
f 482 570 484
f 482 484 483
f 484 571 572
f 484 572 486
f 484 486 485
f 484 570 569
f 484 569 571
f 486 572 573
f 486 573 574
f 486 574 488
f 488 574 489
f 489 574 490
f 490 496 491
f 490 574 575
f 490 575 496
f 492 496 576
f 492 576 493
f 493 576 577
f 493 577 578
f 493 578 579
f 493 579 494
f 494 580 581
f 494 581 507
f 494 507 495
f 494 579 580
f 496 575 582
f 496 582 576
f 497 564 583
f 497 583 501
f 497 501 500
f 497 500 498
f 499 504 503
f 499 503 584
f 499 584 566
f 499 566 565
f 501 583 585
f 501 585 586
f 501 586 502
f 502 587 503
f 502 586 588
f 502 588 587
f 503 587 589
f 503 589 584
f 505 508 590
f 505 590 509
f 505 509 506
f 507 581 591
f 507 591 508
f 508 592 593
f 508 593 590
f 508 591 592
f 509 594 510
f 509 590 595
f 509 595 596
f 509 596 594
f 510 594 513
f 513 597 514
f 513 594 596
f 513 596 598
f 513 598 597
f 514 597 599
f 514 599 515
f 515 599 516
f 516 599 517
f 517 600 538
f 517 538 520
f 517 599 601
f 517 601 600
f 520 538 521
f 522 524 602
f 522 602 523
f 523 602 541
f 524 525 603
f 524 603 602
f 525 526 604
f 525 604 603
f 526 537 604
f 527 531 605
f 527 605 606
f 527 606 607
f 527 607 608
f 527 608 609
f 527 609 528
f 528 609 536
f 529 535 530
f 530 535 610
f 530 610 605
f 530 605 531
f 532 539 533
f 534 538 600
f 534 600 535
f 535 600 610
f 536 609 537
f 537 611 612
f 537 612 613
f 537 613 614
f 537 614 604
f 537 609 611
f 540 541 615
f 540 615 545
f 540 545 543
f 541 616 615
f 541 602 617
f 541 617 616
f 544 546 547
f 545 618 547
f 545 547 546
f 545 615 618
f 547 618 548
f 548 619 549
f 548 618 620
f 548 620 619
f 549 619 621
f 549 621 622
f 549 622 552
f 549 552 550
f 551 553 623
f 551 623 555
f 551 555 554
f 552 622 553
f 553 622 624
f 553 624 623
f 555 623 625
f 555 625 626
f 555 626 556
f 556 626 627
f 556 627 558
f 557 558 628
f 557 628 560
f 557 560 559
f 558 627 560
f 558 560 628
f 560 627 629
f 560 629 630
f 560 630 631
f 560 631 632
f 560 632 563
f 560 563 562
f 563 632 633
f 563 633 564
f 564 634 588
f 564 588 586
f 564 586 585
f 564 585 583
f 564 633 634
f 566 584 635
f 566 635 567
f 567 635 568
f 568 635 569
f 569 635 636
f 569 636 637
f 569 637 638
f 569 638 639
f 569 639 571
f 571 640 641
f 571 641 572
f 571 639 640
f 572 641 573
f 573 641 574
f 574 642 575
f 574 641 643
f 574 643 642
f 575 642 582
f 576 582 577
f 577 582 644
f 577 644 645
f 577 645 579
f 577 579 578
f 579 645 646
f 579 646 647
f 579 647 648
f 579 648 580
f 580 648 649
f 580 649 581
f 581 649 591
f 582 642 644
f 584 650 636
f 584 636 635
f 584 589 651
f 584 651 652
f 584 652 650
f 587 588 653
f 587 653 654
f 587 654 589
f 588 634 655
f 588 655 653
f 589 654 656
f 589 656 651
f 590 593 595
f 591 649 657
f 591 657 658
f 591 658 659
f 591 659 660
f 591 660 661
f 591 661 592
f 592 661 593
f 593 661 662
f 593 662 595
f 595 662 663
f 595 663 596
f 596 599 598
f 596 663 664
f 596 664 665
f 596 665 666
f 596 666 667
f 596 667 599
f 597 598 599
f 599 667 601
f 600 601 666
f 600 666 610
f 601 667 666
f 602 603 668
f 602 668 617
f 603 604 668
f 604 614 668
f 605 610 669
f 605 669 664
f 605 664 670
f 605 670 606
f 606 670 607
f 607 671 608
f 607 670 664
f 607 664 671
f 608 671 672
f 608 672 609
f 609 672 673
f 609 673 611
f 610 666 669
f 611 673 674
f 611 674 612
f 612 674 675
f 612 675 613
f 613 675 676
f 613 676 677
f 613 677 614
f 614 677 668
f 615 616 678
f 615 678 679
f 615 679 618
f 616 617 678
f 617 668 680
f 617 680 681
f 617 681 678
f 618 679 682
f 618 682 620
f 619 620 683
f 619 683 684
f 619 684 621
f 620 682 685
f 620 685 683
f 621 686 622
f 621 684 687
f 621 687 686
f 622 686 624
f 623 624 625
f 624 686 688
f 624 688 625
f 625 688 626
f 626 688 689
f 626 689 627
f 627 689 690
f 627 690 629
f 629 690 630
f 630 690 691
f 630 691 692
f 630 692 631
f 631 633 632
f 631 692 633
f 633 692 655
f 633 655 634
f 636 650 693
f 636 693 637
f 637 694 638
f 637 693 695
f 637 695 694
f 638 696 697
f 638 697 639
f 638 694 696
f 639 697 640
f 640 697 698
f 640 698 699
f 640 699 641
f 641 699 643
f 642 643 700
f 642 700 644
f 643 699 700
f 644 700 646
f 644 646 645
f 646 700 701
f 646 701 702
f 646 702 703
f 646 703 647
f 647 649 648
f 647 703 649
f 649 703 657
f 650 652 693
f 651 656 704
f 651 704 652
f 652 705 695
f 652 695 693
f 652 704 706
f 652 706 705
f 653 655 707
f 653 707 708
f 653 708 654
f 654 708 656
f 655 692 691
f 655 691 707
f 656 708 704
f 657 703 658
f 658 703 702
f 658 702 709
f 658 709 710
f 658 710 659
f 659 710 711
f 659 711 712
f 659 712 713
f 659 713 660
f 660 713 661
f 661 713 662
f 662 713 714
f 662 714 663
f 663 714 664
f 664 669 666
f 664 666 665
f 664 714 671
f 668 715 680
f 668 677 715
f 671 711 716
f 671 716 672
f 671 714 712
f 671 712 711
f 672 716 717
f 672 717 673
f 673 717 674
f 674 717 675
f 675 717 718
f 675 718 719
f 675 719 676
f 676 720 721
f 676 721 677
f 676 719 720
f 677 721 715
f 678 681 722
f 678 722 723
f 678 723 679
f 679 723 682
f 680 715 724
f 680 724 681
f 681 724 725
f 681 725 722
f 682 726 685
f 682 723 722
f 682 722 727
f 682 727 726
f 683 685 726
f 683 726 728
f 683 728 684
f 684 728 729
f 684 729 730
f 684 730 687
f 686 687 731
f 686 731 688
f 687 730 732
f 687 732 731
f 688 731 733
f 688 733 689
f 689 733 690
f 690 733 691
f 691 733 707
f 694 734 696
f 694 695 734
f 695 705 735
f 695 735 734
f 696 734 736
f 696 736 737
f 696 737 697
f 697 737 698
f 698 738 739
f 698 739 699
f 698 737 738
f 699 739 700
f 700 739 701
f 701 739 738
f 701 738 740
f 701 740 702
f 702 740 709
f 704 708 741
f 704 741 706
f 705 706 742
f 705 742 735
f 706 743 742
f 706 741 744
f 706 744 768
f 706 768 743
f 707 745 708
f 707 733 745
f 708 745 741
f 709 740 746
f 709 746 710
f 710 746 747
f 710 747 711
f 711 747 718
f 711 718 716
f 712 714 713
f 715 748 749
f 715 749 724
f 715 721 748
f 716 718 717
f 718 750 751
f 718 751 719
f 718 747 746
f 718 746 750
f 719 751 720
f 720 752 753
f 720 753 754
f 720 754 721
f 720 751 755
f 720 755 752
f 721 754 749
f 721 749 748
f 722 725 727
f 724 749 725
f 725 749 756
f 725 756 727
f 726 729 728
f 726 727 729
f 727 756 757
f 727 757 758
f 727 758 759
f 727 759 729
f 729 759 730
f 730 759 758
f 730 758 760
f 730 760 761
f 730 761 732
f 731 732 762
f 731 762 745
f 731 745 733
f 732 761 762
f 734 735 752
f 734 752 755
f 734 755 736
f 735 753 752
f 735 742 763
f 735 763 753
f 736 755 764
f 736 764 737
f 737 764 738
f 738 764 740
f 740 764 765
f 740 765 750
f 740 750 746
f 741 745 744
f 742 743 766
f 742 766 767
f 742 767 763
f 743 768 766
f 744 745 762
f 744 762 761
f 744 761 768
f 749 769 756
f 749 754 769
f 750 765 751
f 751 765 755
f 753 763 770
f 753 770 769
f 753 769 754
f 755 765 764
f 756 769 771
f 756 771 757
f 757 766 758
f 757 771 767
f 757 767 766
f 758 772 761
f 758 761 760
f 758 766 772
f 761 772 768
f 763 767 771
f 763 771 770
f 766 768 772
f 769 770 771

