# https://github.com/mikedh/trimesh
v -0.11921350 -0.01759147 0.17366603
v -0.12333787 -0.01776032 0.17305882
v -0.12245854 -0.03322271 0.17249934
v -0.11921350 -0.03322271 0.17262661
v -0.11714250 -0.03532643 0.17205919
v -0.11635126 -0.01759147 0.17261866
v -0.11647940 -0.01368020 0.17251790
v -0.11921350 -0.01368020 0.17344595
v -0.12328341 -0.01353626 0.17296072
v -0.12551778 -0.01474314 0.17238003
v -0.12551778 -0.01657283 0.17238003
v -0.12441261 -0.03322271 0.17157130
v -0.12202288 -0.03572226 0.17232433
v -0.11921350 -0.03570012 0.17229782
v -0.11921350 -0.03704263 0.17002278
v -0.11632563 -0.03596031 0.17002278
v -0.11536782 -0.03322271 0.17002278
v -0.11302613 -0.01664756 0.16880837
v -0.11302613 -0.01468224 0.16880837
v -0.11436515 -0.01350028 0.17007582
v -0.11701437 -0.00958624 0.17214934
v -0.11910939 -0.00958624 0.17269025
v -0.11921350 -0.00958624 0.17271677
v -0.12255944 -0.00958624 0.17254707
v -0.12451351 -0.00958624 0.17163493
v -0.12608798 -0.00958624 0.16977354
v -0.12616486 -0.00958624 0.16968073
v -0.12649962 -0.01353626 0.17027468
v -0.12649962 -0.01776032 0.17029059
v -0.12612162 -0.03322271 0.16961710
v -0.12577085 -0.03598523 0.16909739
v -0.12324337 -0.03652777 0.17025081
v -0.12312004 -0.03775402 0.16611439
v -0.11921350 -0.03786474 0.16611439
v -0.11553920 -0.03651946 0.16611439
v -0.11377733 -0.03322271 0.16611439
v -0.11272022 -0.01730913 0.16611439
v -0.11272022 -0.01406220 0.16611439
v -0.11365080 -0.00958624 0.16611439
v -0.11524449 -0.00958624 0.17002278
v -0.12727164 -0.00958624 0.16611439
v -0.12900468 -0.01558740 0.16441738
v -0.12824067 -0.01404282 0.16587840
v -0.12900468 -0.01568428 0.16441738
v -0.12724280 -0.03322271 0.16611439
v -0.12615525 -0.03640874 0.16611439
v -0.12582050 -0.03601291 0.16291395
v -0.12346280 -0.03664126 0.16185067
v -0.11921350 -0.03734435 0.16220598
v -0.11614143 -0.03614024 0.16220598
v -0.11499623 -0.03322271 0.16220598
v -0.11324396 -0.01588358 0.14739700
v -0.11310301 -0.01612717 0.15048343
v -0.11293805 -0.01635415 0.15439182
v -0.11264173 -0.01709322 0.16220598
v -0.11264173 -0.01427257 0.16220598
v -0.11463264 -0.00958624 0.16220598
v -0.11310301 -0.01521371 0.15048343
v -0.11324396 -0.01546007 0.14739700
v -0.12626737 -0.00958624 0.16183476
v -0.12542488 -0.01155157 0.14658033
v -0.12678152 -0.01368020 0.14658033
v -0.12900468 -0.01558740 0.16353706
v -0.12900468 -0.01568428 0.16353706
v -0.12643235 -0.01663926 0.14658033
v -0.12238806 -0.03588558 0.15973472
v -0.11921350 -0.03599907 0.15968169
v -0.11693588 -0.03556448 0.16001049
v -0.11448369 -0.01676382 0.14658033
v -0.11278429 -0.01658943 0.15830023
v -0.11293805 -0.01494798 0.15439182
v -0.11278429 -0.01473207 0.15830023
v -0.11647139 -0.00958624 0.15953321
v -0.11448369 -0.01485386 0.14658033
v -0.11495938 -0.01459920 0.14658033
v -0.12621612 -0.00958624 0.16163854
v -0.12604794 -0.00958624 0.16135217
v -0.12387604 -0.00958624 0.15910630
v -0.12348522 -0.00958624 0.15896312
v -0.11921350 -0.00958624 0.15869796
v -0.12476178 -0.01155433 0.14658033
v -0.11844949 -0.01725100 0.14658033
v -0.11495938 -0.01710983 0.14658033
v -0.11480402 -0.01701295 0.14658033
v -0.11658992 -0.00958624 0.15949343
f 1 2 3
f 1 3 4
f 1 4 5
f 1 5 6
f 1 6 7
f 1 7 8
f 1 8 9
f 1 9 2
f 2 9 10
f 2 10 11
f 2 11 3
f 3 12 13
f 3 13 4
f 3 11 12
f 4 13 14
f 4 14 5
f 5 14 15
f 5 15 16
f 5 16 17
f 5 17 18
f 5 18 6
f 6 18 19
f 6 19 7
f 7 19 20
f 7 20 21
f 7 21 8
f 8 21 22
f 8 22 23
f 8 23 24
f 8 24 9
f 9 24 10
f 10 24 25
f 10 25 26
f 10 26 27
f 10 27 28
f 10 28 29
f 10 29 11
f 11 29 30
f 11 30 12
f 12 30 31
f 12 31 13
f 13 31 32
f 13 32 15
f 13 15 14
f 15 33 34
f 15 34 35
f 15 35 16
f 15 32 33
f 16 35 36
f 16 36 17
f 17 36 18
f 18 36 37
f 18 37 38
f 18 38 19
f 19 38 39
f 19 39 40
f 19 40 21
f 19 21 20
f 21 40 39
f 21 39 57
f 21 57 73
f 21 73 85
f 21 85 80
f 21 80 79
f 21 79 78
f 21 78 77
f 21 77 76
f 21 76 60
f 21 60 41
f 21 41 27
f 21 27 26
f 21 26 25
f 21 25 24
f 21 24 23
f 21 23 22
f 27 41 42
f 27 42 43
f 27 43 28
f 28 43 42
f 28 42 29
f 29 42 44
f 29 44 30
f 30 45 31
f 30 44 45
f 31 46 33
f 31 33 32
f 31 45 46
f 33 46 47
f 33 47 48
f 33 48 49
f 33 49 34
f 34 49 35
f 35 49 50
f 35 50 36
f 36 50 51
f 36 51 52
f 36 52 53
f 36 53 54
f 36 54 55
f 36 55 37
f 37 55 56
f 37 56 38
f 38 56 39
f 39 56 58
f 39 58 59
f 39 59 57
f 41 60 61
f 41 61 62
f 41 62 63
f 41 63 42
f 42 63 64
f 42 64 44
f 44 64 45
f 45 47 46
f 45 64 65
f 45 65 47
f 47 66 48
f 47 65 66
f 48 66 49
f 49 66 67
f 49 67 68
f 49 68 50
f 50 68 52
f 50 52 51
f 52 68 69
f 52 69 74
f 52 74 59
f 52 59 58
f 52 58 53
f 53 58 71
f 53 71 54
f 54 70 55
f 54 71 72
f 54 72 70
f 55 70 72
f 55 72 56
f 56 72 71
f 56 71 58
f 57 59 74
f 57 74 75
f 57 75 73
f 60 76 61
f 61 76 77
f 61 77 78
f 61 78 79
f 61 79 80
f 61 80 81
f 61 81 75
f 61 75 74
f 61 74 69
f 61 69 84
f 61 84 83
f 61 83 82
f 61 82 65
f 61 65 62
f 62 65 64
f 62 64 63
f 65 82 66
f 66 82 67
f 67 82 83
f 67 83 68
f 68 83 84
f 68 84 69
f 73 75 81
f 73 81 85
f 80 85 81

