# https://github.com/mikedh/trimesh
v 0.03887918 0.01732846 -0.11700303
v 0.03887918 -0.00356501 -0.08367058
v 0.03887918 0.02409082 -0.11700303
v 0.07241138 -0.00356501 -0.11700303
v 0.03887918 -0.00356501 -0.07596612
v 0.03887918 0.02403668 -0.11530388
v 0.04104175 0.02406916 -0.11700303
v 0.08104102 -0.00356501 -0.11700303
v 0.03887918 -0.00291801 -0.07596612
v 0.04548658 -0.00356501 -0.07596612
v 0.03887918 0.02383364 -0.11139540
v 0.04104175 0.02401502 -0.11530388
v 0.04707549 0.02348172 -0.11300619
v 0.04707549 0.02348172 -0.11446032
v 0.04532149 0.02364956 -0.11557703
v 0.04501197 0.02366580 -0.11700303
v 0.08102038 -0.00356501 -0.11530388
v 0.07465236 0.00675720 -0.11700303
v 0.07412822 0.00760994 -0.11530388
v 0.03962205 -0.00290718 -0.07596612
v 0.03887918 0.00766679 -0.08216825
v 0.04885837 -0.00356501 -0.07653652
v 0.04495006 0.00720387 -0.08243337
v 0.04487990 -0.00339717 -0.07596612
v 0.03887918 0.02359271 -0.10844296
v 0.04104175 0.02359271 -0.10846305
v 0.04104175 0.02381199 -0.11139540
v 0.04367481 0.02354398 -0.10879244
v 0.04496657 0.02359000 -0.11158018
v 0.04628310 0.02334907 -0.11039921
v 0.04857360 0.02309731 -0.11158018
v 0.05276667 0.02236098 -0.11530388
v 0.04857360 0.02322454 -0.11557703
v 0.04694342 0.02343299 -0.11700303
v 0.04680310 0.02345194 -0.11700303
v 0.08078927 -0.00356501 -0.11276518
v 0.07412410 0.00760452 -0.11700303
v 0.07388060 0.00726072 -0.11139540
v 0.07512285 0.00530619 -0.11139540
v 0.07342663 0.00854931 -0.11700303
v 0.07252281 0.00977292 -0.11700303
v 0.07252281 0.00977292 -0.11530388
v 0.07055421 0.01193319 -0.11229118
v 0.04104175 -0.00289094 -0.07596612
v 0.03887918 0.00861157 -0.08283908
v 0.04104175 0.00765596 -0.08217629
v 0.04104175 0.00977292 -0.08367058
v 0.04885837 0.00639986 -0.08292343
v 0.05276667 -0.00356501 -0.07757289
v 0.04885837 0.00934790 -0.08487566
v 0.04527610 0.01014650 -0.08454627
v 0.03887918 0.02343028 -0.10736241
v 0.04104175 0.02328951 -0.10651082
v 0.04496657 0.02314874 -0.10748694
v 0.04885837 0.02250175 -0.10748694
v 0.05276667 0.02205507 -0.11139540
v 0.05276667 0.02233932 -0.11700303
v 0.05021616 0.02286721 -0.11700303
v 0.05667911 0.02098577 -0.11530388
v 0.04868503 0.02316228 -0.11700303
v 0.08053752 -0.00356501 -0.11139540
v 0.07342663 0.00656499 -0.10748694
v 0.07469364 0.00461046 -0.10748694
v 0.07173454 0.01013026 -0.11115037
v 0.07030246 0.01166789 -0.10968420
v 0.07147042 0.00934520 -0.10748694
v 0.07070279 0.01207667 -0.11700303
v 0.07070279 0.01207667 -0.11530388
v 0.06642305 0.01561757 -0.11457279
v 0.06616717 0.01544431 -0.11139540
v 0.06875895 0.01326238 -0.11115037
v 0.03887918 0.00977292 -0.08368264
v 0.04419068 0.01200899 -0.08571921
v 0.04104175 0.01221473 -0.08553042
v 0.05513559 -0.00356501 -0.07835619
v 0.04885837 0.01129973 -0.08632978
v 0.04679485 0.01169497 -0.08602049
v 0.05206507 0.00858450 -0.08545410
v 0.03887918 0.02329222 -0.10649074
v 0.04104175 0.02255859 -0.10357445
v 0.04495006 0.02230954 -0.10357445
v 0.04885837 0.02156238 -0.10357445
v 0.05276667 0.02147846 -0.10748694
v 0.05622926 0.02017634 -0.10748694
v 0.05705467 0.02039020 -0.11104593
v 0.05667911 0.02095328 -0.11700303
v 0.05906866 0.01972425 -0.11211443
v 0.05930390 0.01984336 -0.11530388
v 0.07477617 -0.00195428 -0.10058987
v 0.07480094 -0.00356501 -0.10055773
v 0.07436760 0.00409070 -0.10526557
v 0.07382696 0.00292123 -0.10265859
v 0.07440062 0.00031428 -0.10133301
v 0.07092565 0.00860615 -0.10426135
v 0.06802846 0.01309995 -0.10748694
v 0.06998468 0.01129431 -0.10748694
v 0.06903133 0.01348166 -0.11700303
v 0.06800783 0.01434252 -0.11564933
v 0.06670368 0.01542266 -0.11700303
v 0.06644368 0.01563381 -0.11700303
v 0.06626209 0.01575834 -0.11700303
v 0.06486715 0.01669500 -0.11564933
v 0.06421095 0.01676268 -0.11139540
v 0.06558113 0.01505449 -0.10748694
v 0.03887918 0.01086388 -0.08451414
v 0.04627484 0.01559050 -0.08996511
v 0.04104175 0.01416926 -0.08779596
v 0.03887918 0.01415302 -0.08773169
v 0.03887918 0.01219849 -0.08554649
v 0.05612195 -0.00356501 -0.07887437
v 0.05820611 -0.00024880 -0.08226064
v 0.05667911 0.00706040 -0.08653867
v 0.05467336 0.00778590 -0.08601245
v 0.04885837 0.01328404 -0.08828201
v 0.05312985 0.00984060 -0.08690421
v 0.05276667 0.01250168 -0.08906933
v 0.03887918 0.02254777 -0.10357445
v 0.04104175 0.02127543 -0.09966598
v 0.04495006 0.02093433 -0.09966598
v 0.04853233 0.02014115 -0.09966999
v 0.05180920 0.01984066 -0.10097550
v 0.05441336 0.01944813 -0.10190340
v 0.05297302 0.02034418 -0.10335351
v 0.05545338 0.01986773 -0.10450637
v 0.05818135 0.01932631 -0.10748694
v 0.05860643 0.01953205 -0.10950745
v 0.05923374 0.01981900 -0.11700303
v 0.06045535 0.01887422 -0.11104593
v 0.06125599 0.01891483 -0.11530388
v 0.07373203 -0.00195428 -0.09863765
v 0.07045104 -0.00356501 -0.09368478
v 0.07237424 0.00594507 -0.10346197
v 0.07111961 0.00505172 -0.09966598
v 0.07299742 0.00175446 -0.09988290
v 0.07050468 0.00415025 -0.09748077
v 0.06942340 0.00985413 -0.10320489
v 0.07033548 0.00779944 -0.10165436
v 0.06724845 0.01245837 -0.10357445
v 0.06618780 0.01580707 -0.11700303
v 0.06483414 0.01665710 -0.11700303
v 0.06362491 0.01630517 -0.10748694
v 0.06303887 0.01592618 -0.10460278
v 0.06440080 0.01458074 -0.10340975
v 0.04885837 0.01523586 -0.09049534
v 0.04885837 0.01638097 -0.09245158
v 0.04495006 0.01877135 -0.09523531
v 0.04104175 0.01902853 -0.09473721
v 0.04104175 0.01718498 -0.09185306
v 0.04367068 0.01567171 -0.08984460
v 0.04104175 0.01574480 -0.08975221
v 0.03887918 0.01579894 -0.08968392
v 0.05934104 -0.00356501 -0.08132068
v 0.05934104 -0.00285304 -0.08132068
v 0.06038106 0.00170303 -0.08508454
v 0.05894897 0.00423417 -0.08577143
v 0.05940708 0.00851411 -0.08930633
v 0.05651402 0.00979999 -0.08863952
v 0.05510670 0.01194402 -0.08967588
v 0.05467336 0.01561757 -0.09383742
v 0.05312985 0.01468362 -0.09190126
v 0.03887918 0.02122128 -0.09966598
v 0.04104175 0.02004911 -0.09668542
v 0.03887918 0.02056075 -0.09804314
v 0.04495006 0.01981900 -0.09718754
v 0.04961774 0.01923697 -0.09836851
v 0.04701358 0.01956995 -0.09766153
v 0.05297302 0.01887963 -0.09966999
v 0.05667911 0.01749630 -0.09966598
v 0.05672450 0.01891753 -0.10335351
v 0.06084742 0.01680328 -0.10340975
v 0.06058328 0.01804314 -0.10748694
v 0.06033153 0.01929382 -0.11700303
v 0.06295633 0.01780220 -0.11700303
v 0.06118171 0.01886610 -0.11700303
v 0.07105358 0.00195479 -0.09667739
v 0.07024881 -0.00069547 -0.09396194
v 0.07155295 -0.00198135 -0.09546427
v 0.07045104 -0.00330242 -0.09368478
v 0.06677384 -0.00195428 -0.08953128
v 0.06977833 0.00700625 -0.09966598
v 0.06693067 0.00463753 -0.09327505
v 0.06966277 0.00195479 -0.09472516
v 0.06699670 0.00850599 -0.09693447
v 0.06603098 0.00724448 -0.09433150
v 0.06665416 0.01193319 -0.10123258
v 0.06767354 0.00979458 -0.09982264
v 0.06232489 0.01550658 -0.10199580
v 0.04853233 0.01839506 -0.09612305
v 0.03887918 0.01905830 -0.09475730
v 0.03887918 0.01809457 -0.09314249
v 0.03887918 0.01726890 -0.09185306
v 0.03887918 0.01644324 -0.09062388
v 0.06661289 0.00025472 -0.08971605
v 0.06270871 0.00023307 -0.08582767
v 0.06155314 0.00283731 -0.08677566
v 0.06048011 0.00572850 -0.08804100
v 0.06201124 0.00722282 -0.09033466
v 0.06072360 0.00991098 -0.09171649
v 0.05771086 0.01111835 -0.09049132
v 0.05651402 0.01297272 -0.09181691
v 0.05944422 0.01230136 -0.09309831
v 0.05667911 0.01507615 -0.09474123
v 0.05872199 0.01567983 -0.09762538
v 0.05667911 0.01611568 -0.09669346
v 0.03887918 0.02001121 -0.09670952
v 0.03887918 0.01951310 -0.09563299
v 0.05951851 0.01614275 -0.09966598
v 0.06755798 0.00171656 -0.09192536
v 0.06455350 0.00593153 -0.09180486
v 0.06568018 0.00286167 -0.09067208
v 0.06582462 0.01111023 -0.09862559
v 0.06462366 0.00990827 -0.09564102
v 0.06342269 0.00870361 -0.09294165
v 0.06450810 0.01288609 -0.09982264
v 0.06147060 0.01497327 -0.09966598
v 0.06419444 0.00154601 -0.08824586
v 0.06307189 0.00461858 -0.08938265
v 0.06204426 0.01130514 -0.09434355
v 0.06322046 0.01227429 -0.09694251
v 0.06038106 0.01358994 -0.09598648
f 1 2 5
f 1 5 9
f 1 9 21
f 1 21 45
f 1 45 72
f 1 72 105
f 1 105 109
f 1 109 108
f 1 108 151
f 1 151 192
f 1 192 191
f 1 191 190
f 1 190 189
f 1 189 206
f 1 206 205
f 1 205 163
f 1 163 161
f 1 161 117
f 1 117 79
f 1 79 52
f 1 52 25
f 1 25 11
f 1 11 6
f 1 6 3
f 1 3 7
f 1 7 16
f 1 16 35
f 1 35 34
f 1 34 60
f 1 60 58
f 1 58 57
f 1 57 86
f 1 86 127
f 1 127 172
f 1 172 174
f 1 174 173
f 1 173 140
f 1 140 139
f 1 139 101
f 1 101 100
f 1 100 99
f 1 99 97
f 1 97 67
f 1 67 41
f 1 41 40
f 1 40 37
f 1 37 18
f 1 18 8
f 1 8 4
f 1 4 2
f 2 4 8
f 2 8 17
f 2 17 36
f 2 36 61
f 2 61 90
f 2 90 131
f 2 131 152
f 2 152 110
f 2 110 75
f 2 75 49
f 2 49 22
f 2 22 10
f 2 10 5
f 3 6 12
f 3 12 7
f 5 10 24
f 5 24 44
f 5 44 20
f 5 20 9
f 6 11 27
f 6 27 12
f 7 12 13
f 7 13 14
f 7 14 15
f 7 15 16
f 8 18 19
f 8 19 17
f 9 20 21
f 10 22 23
f 10 23 24
f 11 25 26
f 11 26 27
f 12 27 28
f 12 28 29
f 12 29 13
f 13 29 28
f 13 28 30
f 13 30 31
f 13 31 32
f 13 32 33
f 13 33 14
f 14 34 35
f 14 35 16
f 14 16 15
f 14 33 34
f 17 19 36
f 18 37 19
f 19 38 39
f 19 39 36
f 19 37 40
f 19 40 41
f 19 41 42
f 19 42 43
f 19 43 38
f 20 44 21
f 21 44 46
f 21 46 47
f 21 47 45
f 22 48 23
f 22 49 48
f 23 48 50
f 23 50 51
f 23 51 46
f 23 46 24
f 24 46 44
f 25 52 26
f 26 53 28
f 26 28 27
f 26 52 53
f 28 53 54
f 28 54 30
f 30 54 55
f 30 55 31
f 31 55 56
f 31 56 32
f 32 57 58
f 32 58 33
f 32 56 59
f 32 59 57
f 33 60 34
f 33 58 60
f 36 39 61
f 38 62 63
f 38 63 39
f 38 43 64
f 38 64 65
f 38 65 66
f 38 66 62
f 39 63 61
f 41 67 68
f 41 68 42
f 42 68 43
f 43 68 69
f 43 69 70
f 43 70 71
f 43 71 65
f 43 65 64
f 45 47 72
f 46 51 47
f 47 51 73
f 47 73 74
f 47 74 72
f 48 49 50
f 49 75 50
f 50 76 77
f 50 77 51
f 50 75 78
f 50 78 76
f 51 77 73
f 52 79 53
f 53 80 81
f 53 81 54
f 53 79 80
f 54 81 55
f 55 81 82
f 55 82 83
f 55 83 56
f 56 83 84
f 56 84 85
f 56 85 59
f 57 59 86
f 59 85 87
f 59 87 88
f 59 88 86
f 61 89 90
f 61 63 91
f 61 91 92
f 61 92 93
f 61 93 89
f 62 91 63
f 62 66 94
f 62 94 91
f 65 71 95
f 65 95 96
f 65 96 66
f 66 96 94
f 67 97 98
f 67 98 68
f 68 98 69
f 69 98 99
f 69 99 100
f 69 100 101
f 69 101 102
f 69 102 103
f 69 103 70
f 70 103 104
f 70 104 95
f 70 95 71
f 72 74 105
f 73 77 106
f 73 106 74
f 74 107 108
f 74 108 109
f 74 109 105
f 74 106 107
f 75 110 111
f 75 111 112
f 75 112 113
f 75 113 78
f 76 114 77
f 76 78 115
f 76 115 116
f 76 116 114
f 77 114 106
f 78 113 115
f 79 117 80
f 80 118 81
f 80 117 118
f 81 118 119
f 81 119 82
f 82 119 120
f 82 120 121
f 82 121 122
f 82 122 123
f 82 123 83
f 83 123 124
f 83 124 84
f 84 124 125
f 84 125 126
f 84 126 85
f 85 126 87
f 86 88 127
f 87 128 129
f 87 129 88
f 87 126 128
f 88 129 127
f 89 93 130
f 89 130 90
f 90 130 131
f 91 132 133
f 91 133 92
f 91 94 132
f 92 134 93
f 92 133 135
f 92 135 134
f 93 134 130
f 94 96 136
f 94 136 137
f 94 137 132
f 95 138 96
f 95 104 138
f 96 138 136
f 97 99 98
f 101 139 102
f 102 139 140
f 102 140 129
f 102 129 103
f 103 141 104
f 103 129 128
f 103 128 141
f 104 141 142
f 104 142 143
f 104 143 138
f 106 114 144
f 106 144 145
f 106 145 146
f 106 146 147
f 106 147 148
f 106 148 149
f 106 149 107
f 107 149 150
f 107 150 151
f 107 151 108
f 110 152 153
f 110 153 111
f 111 153 154
f 111 154 155
f 111 155 112
f 112 155 156
f 112 156 157
f 112 157 113
f 113 158 115
f 113 157 158
f 114 116 144
f 115 158 116
f 116 158 159
f 116 159 160
f 116 160 144
f 117 161 118
f 118 162 119
f 118 161 163
f 118 163 162
f 119 164 120
f 119 162 164
f 120 165 121
f 120 164 166
f 120 166 165
f 121 159 167
f 121 167 122
f 121 165 159
f 122 167 159
f 122 159 168
f 122 168 169
f 122 169 124
f 122 124 123
f 124 169 125
f 125 169 170
f 125 170 171
f 125 171 128
f 125 128 126
f 127 129 172
f 128 171 141
f 129 140 173
f 129 173 174
f 129 174 172
f 130 134 175
f 130 175 176
f 130 176 177
f 130 177 178
f 130 178 131
f 131 178 179
f 131 179 152
f 132 137 133
f 133 137 180
f 133 180 135
f 134 135 175
f 135 181 182
f 135 182 175
f 135 180 183
f 135 183 184
f 135 184 181
f 136 138 185
f 136 185 137
f 137 185 186
f 137 186 183
f 137 183 180
f 138 143 185
f 141 171 142
f 142 170 187
f 142 187 143
f 142 171 170
f 143 187 185
f 144 160 159
f 144 159 145
f 145 188 164
f 145 164 146
f 145 159 188
f 146 164 147
f 147 162 189
f 147 189 190
f 147 190 148
f 147 164 162
f 148 150 149
f 148 190 191
f 148 191 192
f 148 192 151
f 148 151 150
f 152 179 153
f 153 179 193
f 153 193 194
f 153 194 154
f 154 194 195
f 154 195 155
f 155 195 196
f 155 196 156
f 156 196 197
f 156 197 198
f 156 198 199
f 156 199 157
f 157 199 158
f 158 199 200
f 158 200 159
f 159 165 188
f 159 200 201
f 159 201 202
f 159 202 203
f 159 203 204
f 159 204 168
f 162 163 205
f 162 205 206
f 162 206 189
f 164 188 166
f 165 166 188
f 168 204 203
f 168 203 207
f 168 207 169
f 169 207 170
f 170 207 187
f 175 182 176
f 176 182 193
f 176 193 178
f 176 178 177
f 178 193 179
f 181 193 208
f 181 208 182
f 181 184 209
f 181 209 210
f 181 210 193
f 182 208 193
f 183 186 211
f 183 211 212
f 183 212 184
f 184 212 213
f 184 213 197
f 184 197 209
f 185 187 214
f 185 214 211
f 185 211 186
f 187 207 215
f 187 215 214
f 193 210 216
f 193 216 194
f 194 216 217
f 194 217 197
f 194 197 195
f 195 197 196
f 197 217 209
f 197 213 198
f 198 201 199
f 198 213 218
f 198 218 201
f 199 201 200
f 201 218 219
f 201 219 220
f 201 220 203
f 201 203 202
f 203 220 219
f 203 219 215
f 203 215 207
f 209 217 210
f 210 217 216
f 211 214 219
f 211 219 212
f 212 219 218
f 212 218 213
f 214 215 219

