# https://github.com/mikedh/trimesh
v -0.00138826 -0.00356350 -0.11710555
v -0.00138826 -0.00356350 -0.10721937
v -0.00138826 0.00261236 -0.11710555
v 0.00535823 -0.00356350 -0.11710555
v 0.02932059 -0.01371960 -0.07596612
v 0.02578548 -0.01313089 -0.07596612
v 0.00754016 -0.00414850 -0.09344716
v 0.00757901 -0.00195288 -0.09350353
v -0.00138826 -0.00319324 -0.10724756
v 0.02344816 -0.01203864 -0.07596612
v 0.02331220 -0.01190905 -0.07596612
v -0.00138826 0.00259385 -0.11530148
v 0.00730060 0.01223900 -0.11530148
v 0.00730708 0.01223159 -0.11710555
v 0.03887705 0.01732631 -0.11710555
v 0.06475587 -0.00356350 -0.09557742
v 0.06475587 -0.00414850 -0.09504989
v 0.04885435 -0.01368257 -0.07596612
v 0.00800633 -0.00356350 -0.09293976
v 0.02258057 -0.00976897 -0.07596612
v 0.02258057 -0.00952090 -0.07596612
v 0.00929477 -0.00195288 -0.09155448
v 0.01148317 0.00045007 -0.08961349
v 0.00778619 0.00007611 -0.09376126
v -0.00138826 -0.00189735 -0.10735225
v -0.00138826 0.00120910 -0.11110539
v 0.00775382 0.01179469 -0.10919258
v 0.00753369 0.01201685 -0.11139130
v 0.01163856 0.01570089 -0.11294168
v 0.00961850 0.01419025 -0.11530148
v 0.00983216 0.01430873 -0.11710555
v 0.03887705 0.02409087 -0.11710555
v 0.06475587 -0.00356350 -0.08813559
v 0.06475587 -0.00461872 -0.09335856
v 0.05476563 -0.01177946 -0.07826954
v 0.05301749 -0.01264586 -0.07596612
v 0.02281365 -0.00649962 -0.07596612
v 0.01125009 -0.00195288 -0.08934771
v 0.01231839 0.00305297 -0.09045915
v 0.01110117 0.00478576 -0.09306459
v 0.00998755 0.00156454 -0.09211020
v 0.01872173 -0.00277485 -0.08122935
v 0.01536791 0.00033900 -0.08575566
v 0.00755959 0.00432664 -0.09731707
v 0.00713874 0.00160897 -0.09591568
v 0.00849840 0.00267901 -0.09471967
v 0.00701572 0.00572251 -0.09995070
v 0.00772145 0.00794034 -0.10144067
v 0.00723586 0.00860680 -0.10357496
v 0.00814877 0.01135039 -0.10658311
v 0.00957965 0.01296840 -0.10773079
v 0.01196229 0.01547503 -0.11033221
v 0.01011056 0.01420876 -0.11154030
v 0.01343849 0.01665615 -0.11154030
v 0.01368452 0.01717080 -0.11530148
v 0.01157381 0.01574532 -0.11530148
v 0.01159971 0.01572680 -0.11710555
v 0.03887705 0.02409087 -0.11704516
v 0.03712891 0.02410568 -0.11710555
v 0.06350628 -0.00356350 -0.08610600
v 0.06475587 -0.00445211 -0.08839735
v 0.03887705 0.02403533 -0.11530148
v 0.03887705 0.02383169 -0.11139130
v 0.03887705 0.02359103 -0.10844357
v 0.03887705 0.02342812 -0.10736433
v 0.03887705 0.02329112 -0.10648646
v 0.03887705 0.02254691 -0.10357496
v 0.03887705 0.02121769 -0.09966479
v 0.03887705 0.02055864 -0.09803789
v 0.03887705 0.02001066 -0.09670900
v 0.03887705 0.01951452 -0.09563782
v 0.06475587 -0.00468907 -0.09206591
v 0.05476563 -0.01177946 -0.07769771
v 0.05352898 -0.01206826 -0.07596612
v 0.02340931 0.00784777 -0.08597312
v 0.02080007 0.00696286 -0.08661743
v 0.01911020 0.00436367 -0.08569123
v 0.02540995 -0.00521483 -0.07596612
v 0.02962489 0.00987677 -0.08502678
v 0.02852422 0.01124672 -0.08637178
v 0.02540348 0.00845869 -0.08553820
v 0.01351618 0.00607795 -0.09166321
v 0.01492116 0.00477836 -0.08928730
v 0.00978684 0.00585210 -0.09577876
v 0.01210473 0.00738495 -0.09423241
v 0.01772465 0.00176818 -0.08496637
v 0.01650743 0.00294189 -0.08667783
v 0.01107527 0.00861420 -0.09682980
v 0.00846602 0.00692954 -0.09883523
v 0.00994222 0.00958057 -0.09994667
v 0.01141195 0.01203536 -0.10105006
v 0.00880270 0.01055434 -0.10357496
v 0.01075802 0.01260185 -0.10357496
v 0.01241551 0.01518253 -0.10748111
v 0.01437083 0.01640067 -0.10748111
v 0.01711604 0.01881473 -0.11139130
v 0.01674052 0.01901097 -0.11530148
v 0.01352913 0.01697456 -0.11710555
v 0.01681821 0.01895913 -0.11710555
v 0.03712891 0.02405385 -0.11530148
v 0.03461031 0.02387982 -0.11710555
v 0.03108167 0.02347995 -0.11285711
v 0.03310173 0.02362065 -0.11148392
v 0.05933666 -0.00356350 -0.08132198
v 0.05522531 -0.00658108 -0.07596612
v 0.05522531 -0.00672918 -0.07596612
v 0.05519294 -0.00947647 -0.07596612
v 0.05508935 -0.01006147 -0.07596612
v 0.03887705 0.01905540 -0.09475994
v 0.03887705 0.01809274 -0.09314513
v 0.03712891 0.02384650 -0.11139130
v 0.03712891 0.02359103 -0.10842746
v 0.03712891 0.02329482 -0.10647438
v 0.03712891 0.02253950 -0.10357496
v 0.03712891 0.02117696 -0.09966479
v 0.03712891 0.01998104 -0.09672108
v 0.03712891 0.01907762 -0.09477605
v 0.02188132 0.00952503 -0.08811143
v 0.02540348 0.01041364 -0.08703623
v 0.01864404 0.00859569 -0.08921885
v 0.01757573 0.00586691 -0.08795438
v 0.02585022 -0.00507043 -0.07596612
v 0.03321828 0.00728128 -0.08239717
v 0.02931412 0.00657039 -0.08286027
v 0.03112699 0.01176878 -0.08594895
v 0.02962489 0.01295359 -0.08778525
v 0.02540348 0.01255372 -0.08899333
v 0.01603479 0.00737755 -0.09025780
v 0.01470750 0.00874379 -0.09286727
v 0.01347734 0.00998044 -0.09554117
v 0.01224717 0.01121709 -0.09844462
v 0.01360035 0.01304245 -0.09971714
v 0.01573048 0.01557500 -0.10178699
v 0.01370394 0.01473822 -0.10328905
v 0.01501828 0.01598969 -0.10439244
v 0.01793831 0.01846299 -0.10775093
v 0.01999722 0.01932939 -0.10663143
v 0.01947278 0.01957376 -0.10923284
v 0.01906488 0.01974037 -0.11139130
v 0.01869583 0.01991809 -0.11530148
v 0.01877353 0.01989588 -0.11710555
v 0.03308879 0.02369470 -0.11710555
v 0.03108167 0.02347995 -0.11454038
v 0.03172265 0.02338739 -0.11025167
v 0.02959252 0.02324669 -0.11562766
v 0.02540348 0.02244694 -0.11530148
v 0.02959252 0.02314672 -0.11148392
v 0.03433190 0.02354289 -0.10874156
v 0.05611233 -0.00356350 -0.07887761
v 0.03887705 0.01726707 -0.09186053
v 0.03887705 0.01644140 -0.09062425
v 0.03887705 0.01580086 -0.08968597
v 0.05513467 -0.00356350 -0.07835813
v 0.05293332 -0.00530740 -0.07596612
v 0.03712891 0.01733741 -0.09186053
v 0.03310173 0.02317634 -0.10746098
v 0.03321828 0.02226181 -0.10357496
v 0.03321828 0.02091408 -0.09966479
v 0.03321828 0.01985515 -0.09700699
v 0.03321828 0.01891841 -0.09506599
v 0.03439665 0.01580826 -0.08968597
v 0.02034685 0.01119858 -0.09041485
v 0.02295610 0.01200574 -0.08961349
v 0.01734265 0.00997304 -0.09164308
v 0.03071262 -0.00383748 -0.07596612
v 0.03321828 0.00976940 -0.08414487
v 0.03712891 0.00767375 -0.08216764
v 0.03179387 0.01550835 -0.09006853
v 0.03321828 0.01194280 -0.08578787
v 0.02931412 0.01517883 -0.09050747
v 0.02540348 0.01450866 -0.09132495
v 0.01604774 0.01134668 -0.09424449
v 0.01484994 0.01236118 -0.09684188
v 0.01655923 0.01509367 -0.09966479
v 0.01851455 0.01621554 -0.09966479
v 0.02137630 0.01903318 -0.10323670
v 0.01725848 0.01691903 -0.10328905
v 0.02259999 0.01991069 -0.10431190
v 0.02137630 0.02012544 -0.10775093
v 0.02149932 0.02073266 -0.11139130
v 0.02149932 0.02111772 -0.11530148
v 0.01998427 0.02043645 -0.11710555
v 0.02947598 0.02319485 -0.11710555
v 0.02931412 0.02255801 -0.10748111
v 0.02540348 0.02241732 -0.11710555
v 0.02329925 0.02170273 -0.11710555
v 0.02540348 0.02215814 -0.11139130
v 0.03887705 0.01415322 -0.08772887
v 0.03887705 0.01219827 -0.08555028
v 0.03712891 0.01584158 -0.08963362
v 0.03887705 0.01086165 -0.08451133
v 0.05275851 -0.00524445 -0.07596612
v 0.02931412 0.02157313 -0.10357496
v 0.02928822 0.02022541 -0.09950371
v 0.03057666 0.01970335 -0.09737344
v 0.02928822 0.01864812 -0.09595193
v 0.02931412 0.01658580 -0.09246458
v 0.03314706 0.01680425 -0.09156254
v 0.03712891 0.01218346 -0.08556236
v 0.03712891 0.01413841 -0.08767652
v 0.02186837 0.01349046 -0.09209007
v 0.01865699 0.01236118 -0.09302433
v 0.02338989 0.01566016 -0.09376931
v 0.03222119 -0.00356350 -0.07596612
v 0.03712891 0.00976940 -0.08368983
v 0.03326360 -0.00337467 -0.07596612
v 0.03551027 -0.00310438 -0.07596612
v 0.03712891 -0.00294147 -0.07596612
v 0.03887705 -0.00291555 -0.07596612
v 0.03887705 0.00766635 -0.08217166
v 0.03887705 0.00861050 -0.08283611
v 0.02540348 0.01601931 -0.09328205
v 0.01771817 0.01366448 -0.09590360
v 0.01937566 0.01571200 -0.09755466
v 0.02149932 0.01764843 -0.09966479
v 0.02354528 0.01951452 -0.10170243
v 0.02507328 0.02039942 -0.10323670
v 0.02540348 0.02157313 -0.10748111
v 0.02149932 0.02108440 -0.11710555
v 0.03887705 0.00976940 -0.08368177
v 0.04885435 -0.00423366 -0.07596612
v 0.02614806 0.01987737 -0.10069972
v 0.02796741 0.01938493 -0.09809830
v 0.02540348 0.01735593 -0.09576668
v 0.02078712 0.01496778 -0.09495726
v 0.02507328 0.01902948 -0.09950371
v 0.04547463 -0.00356350 -0.07596612
f 1 2 9
f 1 9 25
f 1 25 26
f 1 26 12
f 1 12 3
f 1 3 14
f 1 14 31
f 1 31 57
f 1 57 98
f 1 98 99
f 1 99 141
f 1 141 182
f 1 182 219
f 1 219 186
f 1 186 185
f 1 185 183
f 1 183 142
f 1 142 101
f 1 101 59
f 1 59 32
f 1 32 15
f 1 15 4
f 1 4 5
f 1 5 6
f 1 6 2
f 2 7 8
f 2 8 9
f 2 6 10
f 2 10 11
f 2 11 7
f 3 12 13
f 3 13 14
f 4 15 16
f 4 16 17
f 4 17 18
f 4 18 5
f 5 18 36
f 5 36 74
f 5 74 108
f 5 108 107
f 5 107 106
f 5 106 105
f 5 105 154
f 5 154 192
f 5 192 221
f 5 221 227
f 5 227 209
f 5 209 208
f 5 208 207
f 5 207 206
f 5 206 204
f 5 204 165
f 5 165 122
f 5 122 78
f 5 78 37
f 5 37 21
f 5 21 20
f 5 20 11
f 5 11 10
f 5 10 6
f 7 19 8
f 7 11 20
f 7 20 21
f 7 21 19
f 8 19 21
f 8 21 22
f 8 22 23
f 8 23 24
f 8 24 25
f 8 25 9
f 12 26 27
f 12 27 28
f 12 28 13
f 13 28 29
f 13 29 30
f 13 30 14
f 14 30 31
f 15 32 16
f 16 33 61
f 16 61 72
f 16 72 34
f 16 34 17
f 16 32 58
f 16 58 33
f 17 34 35
f 17 35 18
f 18 35 36
f 21 37 38
f 21 38 22
f 22 38 23
f 23 39 40
f 23 40 41
f 23 41 24
f 23 38 37
f 23 37 42
f 23 42 43
f 23 43 39
f 24 44 45
f 24 45 25
f 24 41 46
f 24 46 44
f 25 45 44
f 25 44 47
f 25 47 26
f 26 47 48
f 26 48 49
f 26 49 50
f 26 50 27
f 27 50 51
f 27 51 52
f 27 52 53
f 27 53 28
f 28 53 29
f 29 52 54
f 29 54 55
f 29 55 56
f 29 56 30
f 29 53 52
f 30 56 57
f 30 57 31
f 32 59 58
f 33 60 61
f 33 58 62
f 33 62 63
f 33 63 64
f 33 64 65
f 33 65 66
f 33 66 67
f 33 67 68
f 33 68 69
f 33 69 70
f 33 70 71
f 33 71 60
f 34 72 35
f 35 72 73
f 35 73 36
f 36 73 74
f 37 75 76
f 37 76 77
f 37 77 42
f 37 78 79
f 37 79 80
f 37 80 81
f 37 81 75
f 39 82 40
f 39 43 83
f 39 83 82
f 40 84 44
f 40 44 46
f 40 46 41
f 40 82 85
f 40 85 84
f 42 77 86
f 42 86 43
f 43 86 77
f 43 77 87
f 43 87 83
f 44 84 88
f 44 88 89
f 44 89 47
f 47 89 48
f 48 89 90
f 48 90 91
f 48 91 92
f 48 92 49
f 49 92 50
f 50 92 93
f 50 93 51
f 51 93 94
f 51 94 52
f 52 94 54
f 54 94 95
f 54 95 96
f 54 96 97
f 54 97 55
f 55 98 57
f 55 57 56
f 55 97 99
f 55 99 98
f 58 59 100
f 58 100 62
f 59 101 102
f 59 102 103
f 59 103 100
f 60 104 105
f 60 105 106
f 60 106 107
f 60 107 108
f 60 108 61
f 60 71 109
f 60 109 110
f 60 110 104
f 61 108 73
f 61 73 72
f 62 100 63
f 63 100 111
f 63 111 64
f 64 111 112
f 64 112 65
f 65 112 113
f 65 113 66
f 66 113 67
f 67 113 114
f 67 114 68
f 68 114 115
f 68 115 69
f 69 115 116
f 69 116 70
f 70 116 71
f 71 116 117
f 71 117 109
f 73 108 74
f 75 118 76
f 75 81 119
f 75 119 118
f 76 118 120
f 76 120 77
f 77 120 121
f 77 121 87
f 78 122 123
f 78 123 124
f 78 124 79
f 79 123 125
f 79 125 80
f 79 124 123
f 80 125 126
f 80 126 127
f 80 127 119
f 80 119 81
f 82 83 128
f 82 128 85
f 83 87 128
f 84 85 88
f 85 128 129
f 85 129 130
f 85 130 88
f 87 121 128
f 88 90 89
f 88 130 131
f 88 131 90
f 90 131 91
f 91 131 132
f 91 132 133
f 91 133 134
f 91 134 93
f 91 93 92
f 93 134 94
f 94 134 135
f 94 135 95
f 95 135 136
f 95 136 96
f 96 136 137
f 96 137 138
f 96 138 139
f 96 139 97
f 97 139 140
f 97 140 141
f 97 141 99
f 100 103 111
f 101 142 143
f 101 143 102
f 102 144 103
f 102 143 145
f 102 145 146
f 102 146 147
f 102 147 144
f 103 144 148
f 103 148 111
f 104 149 105
f 104 110 150
f 104 150 151
f 104 151 152
f 104 152 149
f 105 149 153
f 105 153 154
f 109 117 110
f 110 117 155
f 110 155 150
f 111 148 112
f 112 148 113
f 113 148 156
f 113 156 157
f 113 157 114
f 114 157 158
f 114 158 115
f 115 158 159
f 115 159 116
f 116 159 117
f 117 159 160
f 117 160 161
f 117 161 155
f 118 162 120
f 118 119 163
f 118 163 162
f 119 127 163
f 120 164 128
f 120 128 121
f 120 162 164
f 122 165 123
f 123 166 125
f 123 165 167
f 123 167 166
f 125 168 126
f 125 166 169
f 125 169 161
f 125 161 168
f 126 170 127
f 126 168 170
f 127 171 163
f 127 170 171
f 128 164 129
f 129 164 172
f 129 172 130
f 130 172 173
f 130 173 131
f 131 173 132
f 132 173 174
f 132 174 133
f 133 174 175
f 133 175 176
f 133 176 177
f 133 177 135
f 133 135 134
f 135 177 137
f 135 137 136
f 137 176 178
f 137 178 179
f 137 179 138
f 137 177 176
f 138 179 139
f 139 179 180
f 139 180 181
f 139 181 140
f 140 181 182
f 140 182 141
f 142 183 143
f 143 183 145
f 144 156 148
f 144 147 184
f 144 184 156
f 145 183 185
f 145 185 146
f 146 185 186
f 146 186 181
f 146 181 187
f 146 187 147
f 147 187 184
f 149 152 188
f 149 188 189
f 149 189 153
f 150 155 151
f 151 155 190
f 151 190 152
f 152 190 188
f 153 189 154
f 154 191 192
f 154 189 191
f 155 161 190
f 156 184 157
f 157 184 193
f 157 193 194
f 157 194 195
f 157 195 158
f 158 195 159
f 159 195 160
f 160 195 196
f 160 196 197
f 160 197 198
f 160 198 161
f 161 198 168
f 161 169 199
f 161 199 200
f 161 200 190
f 162 163 201
f 162 201 202
f 162 202 164
f 163 203 201
f 163 171 203
f 164 202 172
f 165 204 167
f 166 167 205
f 166 205 169
f 167 204 206
f 167 206 207
f 167 207 208
f 167 208 209
f 167 209 210
f 167 210 211
f 167 211 205
f 168 198 197
f 168 197 170
f 169 205 199
f 170 197 212
f 170 212 171
f 171 212 203
f 172 202 173
f 173 202 213
f 173 213 214
f 173 214 174
f 174 214 175
f 175 214 215
f 175 215 216
f 175 216 176
f 176 216 178
f 178 216 217
f 178 217 218
f 178 218 179
f 179 218 180
f 180 218 187
f 180 187 181
f 181 219 182
f 181 186 219
f 184 187 218
f 184 218 193
f 188 190 200
f 188 200 189
f 189 200 199
f 189 199 191
f 191 220 192
f 191 199 205
f 191 205 220
f 192 220 211
f 192 211 210
f 192 210 221
f 193 218 217
f 193 217 222
f 193 222 194
f 194 222 223
f 194 223 195
f 195 223 196
f 196 223 224
f 196 224 212
f 196 212 197
f 201 203 202
f 202 203 225
f 202 225 213
f 203 226 216
f 203 216 215
f 203 215 214
f 203 214 225
f 203 212 224
f 203 224 226
f 205 211 220
f 209 227 210
f 210 227 221
f 213 225 214
f 216 226 223
f 216 223 222
f 216 222 217
f 223 226 224

