# https://github.com/mikedh/trimesh
v -0.01268709 0.00338036 -0.11722946
v -0.00447701 0.00338036 -0.11722946
v -0.00906282 -0.00356628 -0.11722946
v -0.06231067 -0.00356628 -0.08926684
v -0.04203762 0.00338036 -0.08756638
v -0.00448374 0.00338036 -0.11530282
v -0.00139067 0.00260851 -0.11722946
v -0.00139067 -0.00356628 -0.11722946
v -0.00586889 -0.00608653 -0.11085578
v -0.05275578 -0.01375803 -0.07596612
v -0.05586902 -0.01198446 -0.07848651
v -0.06231067 -0.00584994 -0.08590632
v -0.06231067 -0.00485493 -0.08755830
v -0.06231067 -0.00387166 -0.08900834
v -0.06231067 -0.00356628 -0.08108364
v -0.04203762 0.00338036 -0.07971035
v -0.00506201 0.00338036 -0.11140913
v -0.00139067 0.00259005 -0.11530282
v 0.00638235 -0.00356628 -0.09613329
v 0.00638235 -0.00356628 -0.10823440
v 0.00585114 -0.00356628 -0.11085578
v 0.00491650 -0.00518548 -0.11085578
v 0.00240843 -0.00606472 -0.11085578
v 0.00190412 -0.00607982 -0.11085578
v -0.05238595 -0.01376138 -0.07596612
v -0.05609763 -0.01296101 -0.07596612
v -0.05644056 -0.01272610 -0.07622058
v -0.05640694 -0.01280496 -0.07596612
v -0.05969501 -0.00916553 -0.08013042
v -0.06231067 -0.00594223 -0.08406449
v -0.06231067 -0.00519051 -0.08089785
v -0.05931846 -0.00906653 -0.07688703
v -0.05917725 -0.00586336 -0.07718996
v -0.05896208 -0.00356628 -0.07853498
v -0.04203762 -0.00291860 -0.07596612
v -0.04103574 0.00338036 -0.07969420
v -0.05839054 -0.00356628 -0.07830475
v -0.05406025 -0.00356628 -0.07691530
v -0.05390559 -0.00356628 -0.07686683
v -0.05609763 -0.00526602 -0.07596612
v -0.05275578 -0.00433477 -0.07596612
v -0.05142441 -0.00397569 -0.07596612
v -0.04927271 -0.00356628 -0.07596612
v -0.00608406 0.00338036 -0.10758008
v -0.00723388 0.00338036 -0.10417512
v -0.02622263 -0.00976959 -0.07596612
v -0.02624280 -0.01000114 -0.07596612
v -0.02711020 -0.01205661 -0.07596612
v 0.00638235 -0.00375756 -0.09627062
v -0.00800715 0.00338036 -0.10216366
v -0.00806094 0.00338036 -0.10205460
v -0.01115401 0.00338036 -0.09662202
v -0.01200124 0.00338036 -0.09541030
v -0.01253244 0.00338036 -0.09472769
v -0.01437483 0.00338036 -0.09256677
v -0.01603567 0.00338036 -0.09076534
v -0.01627102 0.00338036 -0.09052704
v -0.01824117 0.00338036 -0.08862462
v -0.02007011 0.00338036 -0.08699687
v -0.02040632 0.00338036 -0.08671009
v -0.02234957 0.00338036 -0.08529641
v -0.02386921 0.00338036 -0.08445628
v -0.02649831 -0.00640366 -0.07596612
v 0.00638235 -0.00387166 -0.10748314
v 0.00638235 -0.00498413 -0.10354099
v 0.00638235 -0.00503950 -0.10330672
v 0.00528632 -0.00525260 -0.10748314
v -0.02930225 -0.01304491 -0.07596612
v -0.03321565 -0.01365232 -0.07596612
v -0.05846450 -0.01010014 -0.07596612
v -0.06231067 -0.00560161 -0.08160469
v -0.05853175 -0.00999611 -0.07596612
v -0.05755676 -0.00596907 -0.07596612
v -0.05697849 -0.00557308 -0.07596612
v -0.04103574 -0.00289678 -0.07596612
v -0.03716268 -0.00331794 -0.07596612
v -0.03964385 0.00338036 -0.07985980
v 0.00638235 -0.00468713 -0.09694111
v -0.02534178 0.00338036 -0.08374540
v -0.02828692 0.00338036 -0.08255791
v -0.02902656 -0.00509152 -0.07596612
v 0.00638235 -0.00490694 -0.09879506
v -0.03321565 -0.00409650 -0.07596612
v -0.03716940 0.00338036 -0.08015869
v -0.02843484 0.00338036 -0.08250136
v -0.03051258 0.00338036 -0.08175817
v -0.03171619 0.00338036 -0.08139465
v -0.03321565 0.00338036 -0.08099074
v -0.02930897 -0.00499755 -0.07596612
f 1 2 7
f 1 7 8
f 1 8 3
f 1 3 4
f 1 4 5
f 1 5 16
f 1 16 36
f 1 36 77
f 1 77 84
f 1 84 88
f 1 88 87
f 1 87 86
f 1 86 85
f 1 85 80
f 1 80 79
f 1 79 62
f 1 62 61
f 1 61 60
f 1 60 59
f 1 59 58
f 1 58 57
f 1 57 56
f 1 56 55
f 1 55 54
f 1 54 53
f 1 53 52
f 1 52 51
f 1 51 50
f 1 50 45
f 1 45 44
f 1 44 17
f 1 17 6
f 1 6 2
f 2 6 7
f 3 8 9
f 3 9 10
f 3 10 11
f 3 11 12
f 3 12 13
f 3 13 14
f 3 14 4
f 4 14 13
f 4 13 12
f 4 12 30
f 4 30 71
f 4 71 31
f 4 31 15
f 4 15 16
f 4 16 5
f 6 17 18
f 6 18 7
f 7 18 19
f 7 19 20
f 7 20 21
f 7 21 8
f 8 21 22
f 8 22 23
f 8 23 24
f 8 24 9
f 9 24 25
f 9 25 10
f 10 26 11
f 10 25 69
f 10 69 68
f 10 68 48
f 10 48 47
f 10 47 46
f 10 46 63
f 10 63 81
f 10 81 89
f 10 89 83
f 10 83 76
f 10 76 75
f 10 75 35
f 10 35 43
f 10 43 42
f 10 42 41
f 10 41 40
f 10 40 74
f 10 74 73
f 10 73 72
f 10 72 70
f 10 70 28
f 10 28 26
f 11 26 27
f 11 27 12
f 12 27 28
f 12 28 29
f 12 29 30
f 15 31 32
f 15 32 33
f 15 33 34
f 15 34 16
f 16 35 36
f 16 34 37
f 16 37 38
f 16 38 39
f 16 39 40
f 16 40 41
f 16 41 42
f 16 42 43
f 16 43 35
f 17 44 18
f 18 44 45
f 18 45 19
f 19 46 47
f 19 47 48
f 19 48 49
f 19 49 78
f 19 78 82
f 19 82 66
f 19 66 65
f 19 65 64
f 19 64 20
f 19 45 50
f 19 50 51
f 19 51 52
f 19 52 53
f 19 53 54
f 19 54 55
f 19 55 56
f 19 56 57
f 19 57 58
f 19 58 59
f 19 59 60
f 19 60 61
f 19 61 62
f 19 62 63
f 19 63 46
f 20 64 21
f 21 64 22
f 22 64 65
f 22 65 66
f 22 66 67
f 22 67 23
f 23 67 66
f 23 66 68
f 23 68 69
f 23 69 24
f 24 69 25
f 26 28 27
f 28 70 29
f 29 70 32
f 29 32 71
f 29 71 30
f 31 71 32
f 32 70 72
f 32 72 33
f 33 72 73
f 33 73 34
f 34 73 74
f 34 74 37
f 35 75 36
f 36 75 76
f 36 76 77
f 37 74 40
f 37 40 38
f 38 40 39
f 48 68 78
f 48 78 49
f 62 79 63
f 63 80 81
f 63 79 80
f 66 82 68
f 68 82 78
f 76 83 84
f 76 84 77
f 80 85 81
f 81 85 86
f 81 86 87
f 81 87 88
f 81 88 89
f 83 89 84
f 84 89 88

