# https://github.com/mikedh/trimesh
v 0.03713102 -0.00586283 -0.15818054
v 0.03713102 -0.00912575 -0.15747920
v 0.03322502 -0.00898966 -0.15732603
v 0.03322502 -0.00586283 -0.15786211
v 0.03713102 -0.00194931 -0.15725752
v 0.03873699 -0.00355920 -0.15763640
v 0.04103701 -0.00586283 -0.15817651
v 0.04103701 -0.00913239 -0.15747920
v 0.02932709 -0.00965353 -0.15438363
v 0.04884901 -0.00974647 -0.15438363
v 0.02532425 -0.00906269 -0.15467788
v 0.02932709 -0.00859466 -0.15691491
v 0.02655900 -0.00814986 -0.15655214
v 0.02655900 -0.00685863 -0.15655214
v 0.02911726 -0.00567362 -0.15695521
v 0.03000499 -0.00355920 -0.15668112
v 0.03027131 -0.00292520 -0.15659648
v 0.03184501 -0.00031950 -0.15624581
v 0.03320081 -0.00355920 -0.15728573
v 0.03317659 -0.00175347 -0.15683026
v 0.03444362 0.00024147 -0.15644734
v 0.03713102 0.00044395 -0.15655214
v 0.03888226 0.00043399 -0.15655617
v 0.04103701 0.00042403 -0.15655214
v 0.04103701 -0.00195263 -0.15724543
v 0.04103701 -0.00355920 -0.15762834
v 0.04264299 -0.00355920 -0.15749935
v 0.04494301 -0.00586283 -0.15785808
v 0.04494301 -0.00900626 -0.15734216
v 0.00639145 -0.00835234 -0.13476225
v 0.00639145 -0.00846852 -0.13856319
v 0.00949850 -0.00865109 -0.14290826
v 0.01337221 -0.00885689 -0.14687446
v 0.01752839 -0.00895647 -0.15064718
v 0.02150702 -0.00885025 -0.15361377
v 0.04884901 -0.00861789 -0.15695118
v 0.05271466 -0.00907264 -0.15458517
v 0.05666100 -0.00887348 -0.15352510
v 0.06062350 -0.00899298 -0.15058270
v 0.05666100 -0.00949088 -0.15047789
v 0.01878735 -0.00830919 -0.15287615
v 0.02150702 -0.00586283 -0.15430706
v 0.02767269 -0.00424962 -0.15625790
v 0.02532425 -0.00567362 -0.15588708
v 0.02911726 -0.00175347 -0.15597575
v 0.03317659 0.00171194 -0.15551625
v 0.02931902 0.00196089 -0.15456904
v 0.03496819 0.00786602 -0.15246906
v 0.03713102 0.00239905 -0.15554044
v 0.03888226 0.00151610 -0.15599590
v 0.04103701 0.00237913 -0.15553238
v 0.04362756 0.00021823 -0.15643928
v 0.04494301 -0.00356251 -0.15726558
v 0.04622618 -0.00040249 -0.15622566
v 0.04785637 -0.00301150 -0.15658036
v 0.04903463 -0.00568690 -0.15697133
v 0.05138307 -0.00686859 -0.15657633
v 0.05138307 -0.00816646 -0.15657633
v 0.00639145 -0.00783121 -0.13220276
v -0.00138826 -0.00355920 -0.11710784
v 0.06433581 -0.00872079 -0.14298081
v 0.08103315 -0.00356251 -0.11700303
v -0.00138826 -0.00355920 -0.12998991
v 0.00639145 -0.00838222 -0.13984494
v 0.01061219 -0.00844529 -0.14577409
v 0.00716620 -0.00827268 -0.14176758
v 0.01446977 -0.00850835 -0.14945410
v 0.05934840 -0.00835234 -0.15290840
v 0.06361756 -0.00847848 -0.14935334
v 0.06433581 -0.00887348 -0.14719692
v 0.06433581 -0.00887016 -0.14678982
v 0.01881156 -0.00586283 -0.15285600
v 0.01414696 -0.00586283 -0.14971207
v 0.01685856 -0.00586283 -0.15166695
v 0.01943297 -0.00355920 -0.15264238
v 0.02137790 -0.00205885 -0.15322682
v 0.02540495 -0.00194931 -0.15490359
v 0.02931902 0.00492508 -0.15300917
v 0.03349133 0.00605034 -0.15324697
v 0.02545337 0.00204388 -0.15332759
v 0.02678496 0.00430768 -0.15265044
v 0.03236150 0.00747102 -0.15221512
v 0.03165132 0.01167664 -0.14847061
v 0.03425801 0.01182269 -0.14862781
v 0.03713102 0.01193887 -0.14876888
v 0.03713102 0.00987091 -0.15072376
v 0.03713102 0.00791581 -0.15250533
v 0.03713102 0.00586777 -0.15366214
v 0.03888226 0.00431099 -0.15450053
v 0.03888226 0.00238577 -0.15554044
v 0.04103701 0.00586445 -0.15364199
v 0.04312721 0.00784943 -0.15245697
v 0.04493494 -0.00180658 -0.15681414
v 0.04493494 0.00169534 -0.15547595
v 0.04885708 0.00195757 -0.15447633
v 0.04903463 -0.00180658 -0.15593545
v 0.04900234 -0.00356251 -0.15643525
v 0.05045499 -0.00426290 -0.15624581
v 0.05276308 -0.00195263 -0.15475848
v 0.05274694 -0.00356251 -0.15517767
v 0.05271466 -0.00568690 -0.15573392
v 0.05666100 -0.00586283 -0.15414179
v 0.07240606 -0.00356251 -0.11700303
v -0.00138826 0.00261480 -0.11710784
v 0.03888226 0.01732286 -0.11700303
v 0.08105736 -0.00356251 -0.11921588
v 0.07411695 0.00760379 -0.11700303
v -0.00138826 -0.00290860 -0.12998991
v 0.00686760 -0.00586283 -0.14213437
v 0.00639145 -0.00586283 -0.14140481
v 0.00639145 -0.00745280 -0.14086067
v 0.01023289 -0.00586283 -0.14612879
v 0.01219396 -0.00586283 -0.14808367
v 0.00827989 -0.00586283 -0.14408523
v 0.05930805 -0.00586283 -0.15288018
v 0.06126105 -0.00586283 -0.15148960
v 0.06385967 -0.00586283 -0.14953875
v 0.06433581 -0.00586283 -0.14916389
v 0.07477063 -0.00356251 -0.13859946
v 0.06433581 -0.00872079 -0.14774106
v 0.07889453 -0.00356251 -0.13080410
v 0.08088788 -0.00356251 -0.12312565
v 0.01931191 -0.00355920 -0.15256982
v 0.01454240 -0.00355920 -0.14939767
v 0.01565609 -0.00355920 -0.15020381
v 0.01746383 -0.00355920 -0.15141705
v 0.01999788 -0.00083069 -0.15219497
v 0.02260457 0.00079912 -0.15283988
v 0.02931902 0.00688018 -0.15184027
v 0.02417827 0.00340481 -0.15213854
v 0.02545337 0.00571508 -0.15123970
v 0.02931902 0.00937301 -0.14988136
v 0.03322502 0.01543747 -0.14434318
v 0.03306361 0.01319027 -0.14692685
v 0.02931902 0.01132479 -0.14809173
v 0.02931902 0.01297783 -0.14613685
v 0.03713102 0.01561672 -0.14458906
v 0.03888226 0.01193887 -0.14876485
v 0.03888226 0.00986759 -0.15072376
v 0.03888226 0.00791249 -0.15250130
v 0.04103701 0.00790586 -0.15249324
v 0.04370019 0.01181274 -0.14861975
v 0.04630688 0.01164345 -0.14843836
v 0.04885708 0.00931658 -0.14983701
v 0.04572583 0.00742123 -0.15218691
v 0.04463634 0.00602046 -0.15321876
v 0.04103701 0.00985764 -0.15071570
v 0.04103701 0.01193223 -0.14876082
v 0.04885708 0.00484209 -0.15296080
v 0.05128623 0.00424129 -0.15261416
v 0.05265817 0.00198081 -0.15325504
v 0.05005955 -0.00356251 -0.15615713
v 0.05545047 0.00069954 -0.15278748
v 0.05672557 -0.00210532 -0.15314218
v 0.05670136 -0.00356251 -0.15353316
v 0.05437713 -0.00356251 -0.15450456
v 0.05883191 -0.00356251 -0.15256176
v -0.00138826 0.00263804 -0.11921991
v 0.03888226 0.02408771 -0.11700303
v 0.00731146 0.01223430 -0.11710784
v 0.07411695 0.00760048 -0.11921588
v 0.07251904 0.00977133 -0.11700303
v -0.00138826 -0.00130867 -0.12816804
v 0.00686760 0.00576819 -0.13470581
v 0.00750515 0.00439730 -0.13730560
v 0.00839287 0.00294342 -0.13990137
v 0.00692409 0.00176837 -0.13865992
v 0.00765848 0.00033773 -0.14092919
v 0.00723076 -0.00194931 -0.14150156
v 0.00765848 -0.00355920 -0.14256969
v 0.01054763 -0.00355920 -0.14579021
v 0.01135465 -0.00355920 -0.14659231
v 0.01286379 -0.00194931 -0.14750728
v 0.01482486 -0.00194931 -0.14918002
v 0.00859463 -0.00355920 -0.14371441
v 0.01077360 -0.00194931 -0.14555239
v 0.06318177 -0.00195263 -0.14901476
v 0.06346423 -0.00356251 -0.14922838
v 0.06541722 -0.00356251 -0.14762416
v 0.07034007 -0.00356251 -0.14301710
v 0.06427125 -0.00356251 -0.14858347
v 0.07694153 -0.00356251 -0.13482674
v 0.06671653 0.00046718 -0.14489540
v 0.06706355 0.00484873 -0.14142900
v 0.06613547 0.00745110 -0.14033669
v 0.06835480 0.00584454 -0.13873248
v 0.07056604 0.00423133 -0.13713632
v 0.07047726 0.00797888 -0.13311369
v 0.07289834 0.00559227 -0.13074768
v 0.07438326 0.00410519 -0.12931679
v 0.07348747 0.00661463 -0.12703138
v 0.07393133 0.00728846 -0.12312565
v 0.01785927 -0.00205885 -0.15125179
v 0.02137790 0.00204388 -0.15152587
v 0.01536557 0.00040411 -0.14873664
v 0.01768980 0.00180820 -0.14949037
v 0.02540495 0.00859628 -0.14920420
v 0.02311300 0.00803531 -0.14869633
v 0.02169264 0.00579143 -0.14942992
v 0.02931902 0.01492961 -0.14361766
v 0.02931902 0.01625071 -0.14166682
v 0.03322502 0.01670215 -0.14238831
v 0.02540495 0.01054806 -0.14730978
v 0.02540495 0.01230732 -0.14535489
v 0.03713102 0.01683492 -0.14263417
v 0.03888226 0.01681832 -0.14260596
v 0.04103701 0.01556361 -0.14452053
v 0.04103701 0.01381763 -0.14657216
v 0.04498336 0.01312056 -0.14691073
v 0.04495108 0.01536113 -0.14422630
v 0.04885708 0.01292140 -0.14607638
v 0.04885708 0.01126836 -0.14803127
v 0.05276308 0.00850998 -0.14913164
v 0.04885708 0.00679387 -0.15179190
v 0.05265817 0.00567525 -0.15115102
v 0.05388484 0.00330191 -0.15208210
v 0.05672557 0.00198081 -0.15141705
v 0.05805716 -0.00090039 -0.15212645
v 0.05881576 -0.00350941 -0.15255370
v 0.06030069 -0.00210532 -0.15107847
v -0.00138826 0.00253514 -0.11998977
v 0.00731146 0.01222766 -0.11921991
v 0.00756164 0.01198202 -0.12312565
v 0.03894682 0.02408771 -0.11700303
v 0.03713102 0.02410431 -0.11710784
v 0.03460503 0.02387859 -0.11710784
v 0.03308782 0.02369603 -0.11710784
v 0.02948042 0.02319480 -0.11710784
v 0.02540495 0.02241808 -0.11710784
v 0.02330669 0.02170441 -0.11710784
v 0.02149895 0.02108369 -0.11710784
v 0.01998982 0.02043642 -0.11710784
v 0.01877121 0.01989205 -0.11710784
v 0.01682628 0.01895931 -0.11710784
v 0.01353362 0.01697101 -0.11710784
v 0.01160483 0.01572626 -0.11710784
v 0.00983745 0.01430557 -0.11710784
v 0.07251097 0.00977133 -0.11921588
v 0.07069516 0.01207497 -0.11921588
v 0.07069516 0.01207497 -0.11700303
v -0.00138826 0.00066302 -0.12582620
v 0.00759392 0.00811166 -0.13330717
v 0.00841708 0.00700299 -0.13591099
v 0.01191150 0.00760711 -0.14049791
v 0.01099956 0.00500806 -0.14153783
v 0.00986973 0.00179492 -0.14254147
v 0.01133851 0.00064975 -0.14500825
v 0.00882867 -0.00194931 -0.14345644
v 0.06269755 0.00024147 -0.14865199
v 0.06513476 -0.00195263 -0.14737830
v 0.06721689 -0.00195263 -0.14542745
v 0.06584494 0.00307288 -0.14403283
v 0.06427125 0.00165551 -0.14637062
v 0.06469091 0.00611009 -0.14283572
v 0.06704742 0.00852990 -0.13773286
v 0.06965410 0.00683702 -0.13572558
v 0.06211650 0.00736812 -0.14424645
v 0.06353686 0.00869918 -0.14164263
v 0.06463441 0.00991739 -0.13891386
v 0.07088078 0.00851994 -0.13094115
v 0.06814497 0.00955558 -0.13447607
v 0.06662776 0.01187912 -0.13322656
v 0.06913761 0.01047172 -0.13094115
v 0.07153447 0.00931990 -0.12703138
v 0.07176851 0.01011987 -0.12333122
v 0.07054990 0.01192891 -0.12215828
v 0.01903753 0.00443381 -0.14884547
v 0.01378380 0.00183144 -0.14647543
v 0.01643891 0.00300981 -0.14794259
v 0.02311300 0.01188244 -0.14482284
v 0.02051438 0.00703950 -0.14797484
v 0.01854524 0.00859296 -0.14536295
v 0.02181369 0.00961864 -0.14639884
v 0.02540495 0.01439187 -0.14246488
v 0.02671233 0.01585239 -0.14103399
v 0.02540495 0.01668887 -0.13893804
v 0.02931902 0.01790707 -0.13874860
v 0.03299905 0.01881326 -0.13852287
v 0.03713102 0.01879334 -0.13920809
v 0.04103701 0.01874355 -0.13927662
v 0.04103701 0.01678845 -0.14256566
v 0.04495108 0.01659925 -0.14227544
v 0.04885708 0.01616441 -0.14157813
v 0.04885708 0.01487318 -0.14353302
v 0.05276308 0.01224425 -0.14527831
v 0.05276308 0.01046176 -0.14723319
v 0.05494204 0.00796560 -0.14863990
v 0.05641890 0.00572504 -0.14932511
v 0.05902559 0.00432759 -0.14878097
v 0.06042174 0.00170862 -0.14935737
v -0.00138826 0.00181152 -0.12312565
v 0.00778760 0.01176295 -0.12522967
v 0.01162904 0.01571298 -0.11819612
v 0.01010376 0.01445494 -0.11938920
v 0.00978096 0.01375456 -0.12312565
v 0.04103701 0.02406779 -0.11700303
v 0.04103701 0.02413418 -0.11921588
v 0.03888226 0.02415078 -0.11921588
v 0.03713102 0.02416406 -0.11921991
v 0.03344291 0.02371594 -0.11921991
v 0.02931902 0.02311846 -0.11921991
v 0.02540495 0.02238488 -0.11921991
v 0.02149895 0.02104386 -0.11921991
v 0.01885998 0.01986217 -0.11921991
v 0.01692312 0.01889624 -0.11921991
v 0.01333186 0.01672870 -0.11938920
v 0.06800777 0.01428234 -0.11882894
v 0.06644214 0.01562999 -0.11727310
v 0.06662776 0.01548062 -0.11700303
v 0.06903269 0.01347905 -0.11700303
v -0.00138826 0.00162564 -0.12374637
v 0.00712584 0.00872574 -0.13094518
v 0.00886902 0.01067752 -0.13094518
v 0.01144343 0.01196211 -0.13339988
v 0.00992622 0.00967839 -0.13465342
v 0.01102377 0.00864275 -0.13789006
v 0.01232308 0.01124513 -0.13601176
v 0.01341257 0.01002028 -0.13905896
v 0.01611610 0.01140114 -0.14022382
v 0.01451819 0.00879544 -0.14174742
v 0.01594662 0.00750421 -0.14435931
v 0.01336415 0.00625946 -0.14294857
v 0.01221817 0.00325544 -0.14414568
v 0.06162421 0.00284384 -0.14784586
v 0.06323826 0.00476243 -0.14523801
v 0.06574004 0.01112895 -0.13583038
v 0.06056701 0.00584786 -0.14657216
v 0.05950980 0.00852326 -0.14529846
v 0.06072034 0.00991075 -0.14276719
v 0.06193895 0.01130156 -0.14009485
v 0.06313334 0.01212476 -0.13749505
v 0.06992042 0.01127500 -0.12703138
v 0.06717654 0.01233387 -0.13094115
v 0.06445686 0.01265917 -0.13465745
v 0.06203579 0.01533125 -0.13221082
v 0.06292352 0.01589886 -0.12960699
v 0.07027551 0.01165009 -0.12476614
v 0.06874216 0.01316371 -0.12333122
v 0.06602249 0.01532793 -0.12312565
v 0.06628074 0.01552377 -0.11987692
v 0.01749611 0.00597399 -0.14665277
v 0.01482486 0.00490516 -0.14533474
v 0.02410564 0.01540096 -0.14036893
v 0.02050631 0.01119534 -0.14397639
v 0.02168457 0.01275211 -0.14266643
v 0.01733470 0.00999705 -0.14286393
v 0.02218492 0.01622748 -0.13776511
v 0.02535653 0.01877010 -0.13481465
v 0.02931902 0.01924477 -0.13620926
v 0.03154641 0.01950368 -0.13672519
v 0.03415309 0.01966301 -0.13708392
v 0.03713102 0.01975595 -0.13726127
v 0.03888226 0.01978251 -0.13729351
v 0.04103701 0.01981238 -0.13732173
v 0.04391002 0.01973936 -0.13717260
v 0.04510442 0.01869708 -0.13857931
v 0.04885708 0.01774110 -0.13875263
v 0.05269852 0.01660920 -0.13890580
v 0.05135079 0.01580924 -0.14097757
v 0.05269852 0.01432217 -0.14242861
v 0.05495819 0.01183929 -0.14476641
v 0.05625750 0.00954562 -0.14633435
v 0.05754873 0.00693328 -0.14790228
v 0.00819919 0.01134139 -0.12784155
v 0.01197606 0.01545075 -0.12312565
v 0.01254905 0.01505243 -0.12703541
v 0.00961955 0.01284506 -0.12673312
v 0.01178238 0.01560012 -0.12080397
v 0.04500757 0.02366615 -0.11700303
v 0.04452336 0.02368939 -0.11921588
v 0.04376476 0.02357653 -0.12192854
v 0.04080298 0.02373254 -0.12319014
v 0.03888226 0.02374582 -0.12327075
v 0.03726821 0.02375246 -0.12333928
v 0.04686373 0.02344376 -0.11707155
v 0.03414502 0.02360972 -0.12217844
v 0.02931902 0.02277989 -0.12312565
v 0.02540495 0.02201643 -0.12312565
v 0.02149895 0.02069201 -0.12312565
v 0.01922314 0.01969621 -0.12312565
v 0.01727821 0.01872031 -0.12312565
v 0.01393713 0.01676521 -0.12312565
v 0.06644214 0.01562999 -0.11700303
v 0.06477967 0.01660257 -0.11882894
v 0.06618389 0.01580924 -0.11700303
v 0.01083009 0.01246001 -0.13094518
v 0.01514767 0.01596525 -0.12976419
v 0.01602733 0.01540428 -0.13237205
v 0.01364660 0.01279195 -0.13476225
v 0.01492977 0.01219446 -0.13762806
v 0.01957823 0.01561672 -0.13676952
v 0.01872279 0.01220442 -0.14136854
v 0.05756488 0.01112563 -0.14389579
v 0.05933226 0.01215131 -0.14128793
v 0.06060736 0.01294796 -0.13877681
v 0.05846874 0.01554037 -0.13661233
v 0.06067192 0.01485658 -0.13512904
v 0.06795935 0.01297119 -0.12703138
v 0.06546564 0.01492629 -0.12703138
v 0.05943717 0.01608807 -0.13400447
v 0.06067192 0.01661584 -0.13092100
v 0.06057508 0.01796682 -0.12703138
v 0.06351264 0.01630714 -0.12703138
v 0.06406949 0.01666895 -0.12312565
v 0.02112772 0.01498936 -0.13893804
v 0.02112772 0.01694778 -0.13522174
v 0.02401687 0.01932444 -0.13224710
v 0.02661549 0.01981902 -0.13348452
v 0.02931902 0.02011444 -0.13425438
v 0.03299905 0.02030697 -0.13519353
v 0.03713102 0.02076836 -0.13485092
v 0.03888226 0.02034348 -0.13596338
v 0.04103701 0.02081483 -0.13485092
v 0.04510442 0.02032688 -0.13512501
v 0.04885708 0.02008125 -0.13410525
v 0.04651671 0.01944725 -0.13660830
v 0.04885708 0.01916179 -0.13606012
v 0.05145570 0.01978915 -0.13340391
v 0.05276308 0.01869044 -0.13476628
v 0.05586205 0.01619428 -0.13770465
v 0.05395748 0.01535781 -0.14030847
v 0.05642697 0.01266581 -0.14262208
v 0.01450205 0.01640672 -0.12703541
v 0.04679917 0.02345039 -0.11700303
v 0.04885708 0.02306203 -0.11921588
v 0.04885708 0.02272014 -0.12312565
v 0.04885708 0.02209278 -0.12703138
v 0.03935033 0.02347363 -0.12517727
v 0.04495108 0.02256081 -0.12703138
v 0.03888226 0.02353670 -0.12476211
v 0.03888226 0.02347363 -0.12518130
v 0.03866436 0.02347363 -0.12518130
v 0.03605767 0.02339065 -0.12477823
v 0.04693636 0.02343048 -0.11700303
v 0.04867954 0.02316161 -0.11700303
v 0.03322502 0.02268362 -0.12703541
v 0.02931902 0.02216580 -0.12703541
v 0.02540495 0.02130609 -0.12703541
v 0.02158772 0.02005469 -0.12674118
v 0.01944911 0.01958667 -0.12524176
v 0.06482810 0.01665568 -0.11700303
v 0.06108350 0.01879998 -0.11921588
v 0.06118034 0.01886305 -0.11700303
v 0.06294773 0.01779753 -0.11700303
v 0.01793190 0.01839502 -0.12674118
v 0.01743155 0.01671874 -0.13101774
v 0.01863401 0.01614449 -0.13416973
v 0.01743155 0.01498604 -0.13522174
v 0.05696768 0.01488646 -0.13890580
v 0.05696768 0.01686480 -0.13512904
v 0.05651575 0.01864065 -0.13085651
v 0.05793611 0.01924477 -0.12703138
v 0.05860594 0.01953024 -0.12497976
v 0.06031683 0.01879998 -0.12345617
v 0.02158772 0.01873359 -0.13094518
v 0.02295159 0.01975595 -0.12963924
v 0.02535653 0.02021070 -0.13094518
v 0.02931902 0.02123970 -0.13094518
v 0.03322502 0.02179404 -0.13094518
v 0.03713102 0.02205295 -0.13094518
v 0.03888226 0.02079159 -0.13485092
v 0.03888226 0.02149861 -0.13269450
v 0.03888226 0.02202971 -0.13094518
v 0.04103701 0.02199984 -0.13094115
v 0.04495108 0.02169114 -0.13094115
v 0.04885708 0.02114012 -0.13094115
v 0.05276308 0.02121647 -0.12703138
v 0.05276308 0.02014432 -0.13085651
v 0.05405432 0.01927465 -0.13210199
v 0.05276308 0.02231186 -0.11921588
v 0.05276308 0.02195337 -0.12312565
v 0.03726821 0.02304875 -0.12670489
v 0.05021288 0.02286619 -0.11700303
v 0.02034491 0.01920494 -0.12784961
v 0.05884805 0.01964641 -0.12237594
v 0.05913857 0.01978251 -0.11921588
v 0.06033297 0.01929124 -0.11700303
v 0.05511152 0.01970948 -0.12949414
v 0.05597504 0.02008789 -0.12703138
v 0.05704838 0.02035676 -0.12345617
v 0.05666908 0.02090777 -0.11921588
v 0.05276308 0.02233841 -0.11700303
v 0.05666908 0.02095092 -0.11700303
v 0.05922735 0.01981902 -0.11700303
f 1 2 3
f 1 3 4
f 1 4 5
f 1 5 6
f 1 6 7
f 1 7 8
f 1 8 2
f 2 9 3
f 2 8 10
f 2 10 9
f 3 9 11
f 3 11 12
f 3 12 4
f 4 12 13
f 4 13 14
f 4 14 15
f 4 15 16
f 4 16 17
f 4 17 18
f 4 18 19
f 4 19 5
f 5 19 20
f 5 20 21
f 5 21 22
f 5 22 23
f 5 23 24
f 5 24 25
f 5 25 6
f 6 25 26
f 6 26 7
f 7 26 27
f 7 27 28
f 7 28 29
f 7 29 8
f 8 29 10
f 9 30 31
f 9 31 32
f 9 32 33
f 9 33 34
f 9 34 35
f 9 35 11
f 9 10 30
f 10 29 36
f 10 36 37
f 10 37 38
f 10 38 39
f 10 39 40
f 10 40 30
f 11 35 12
f 12 35 13
f 13 35 41
f 13 41 42
f 13 42 14
f 14 43 15
f 14 42 44
f 14 44 43
f 15 43 16
f 16 43 17
f 17 43 45
f 17 45 18
f 18 46 21
f 18 21 20
f 18 20 19
f 18 45 47
f 18 47 46
f 21 48 49
f 21 49 22
f 21 46 48
f 22 49 23
f 23 49 50
f 23 50 24
f 24 51 52
f 24 52 25
f 24 50 51
f 25 52 27
f 25 27 26
f 27 52 28
f 28 53 54
f 28 54 55
f 28 55 56
f 28 56 57
f 28 57 58
f 28 58 36
f 28 36 29
f 28 52 53
f 30 59 60
f 30 60 31
f 30 40 61
f 30 61 62
f 30 62 59
f 31 60 63
f 31 63 64
f 31 64 32
f 32 65 33
f 32 64 66
f 32 66 65
f 33 65 67
f 33 67 34
f 34 67 41
f 34 41 35
f 36 58 38
f 36 38 37
f 38 68 39
f 38 58 68
f 39 69 70
f 39 70 40
f 39 68 69
f 40 70 71
f 40 71 61
f 41 72 42
f 41 67 73
f 41 73 74
f 41 74 72
f 42 72 75
f 42 75 76
f 42 76 44
f 43 44 77
f 43 77 45
f 44 76 77
f 45 77 47
f 46 47 78
f 46 78 79
f 46 79 48
f 47 77 80
f 47 80 81
f 47 81 78
f 48 79 82
f 48 82 83
f 48 83 84
f 48 84 85
f 48 85 86
f 48 86 87
f 48 87 88
f 48 88 49
f 49 88 89
f 49 89 90
f 49 90 50
f 50 90 51
f 51 91 92
f 51 92 52
f 51 90 89
f 51 89 91
f 52 93 53
f 52 92 94
f 52 94 54
f 52 54 93
f 53 93 54
f 54 94 95
f 54 95 96
f 54 96 55
f 55 96 97
f 55 97 56
f 56 97 98
f 56 98 57
f 57 99 100
f 57 100 101
f 57 101 102
f 57 102 68
f 57 68 58
f 57 98 99
f 59 62 103
f 59 103 60
f 60 104 158
f 60 158 221
f 60 221 291
f 60 291 311
f 60 311 241
f 60 241 163
f 60 163 108
f 60 108 63
f 60 103 105
f 60 105 159
f 60 159 104
f 61 71 62
f 62 71 70
f 62 70 106
f 62 106 107
f 62 107 162
f 62 162 240
f 62 240 310
f 62 310 309
f 62 309 383
f 62 383 385
f 62 385 441
f 62 441 444
f 62 444 443
f 62 443 477
f 62 477 484
f 62 484 483
f 62 483 482
f 62 482 473
f 62 473 435
f 62 435 434
f 62 434 424
f 62 424 369
f 62 369 296
f 62 296 224
f 62 224 159
f 62 159 105
f 62 105 103
f 63 108 109
f 63 109 110
f 63 110 111
f 63 111 66
f 63 66 64
f 65 112 113
f 65 113 67
f 65 66 114
f 65 114 112
f 66 111 110
f 66 110 109
f 66 109 114
f 67 113 73
f 68 102 115
f 68 115 116
f 68 116 117
f 68 117 118
f 68 118 69
f 69 118 119
f 69 119 120
f 69 120 70
f 70 120 121
f 70 121 122
f 70 122 106
f 72 123 75
f 72 74 123
f 73 124 125
f 73 125 74
f 73 113 124
f 74 125 126
f 74 126 123
f 75 123 127
f 75 127 76
f 76 128 77
f 76 127 128
f 77 128 80
f 78 129 82
f 78 82 79
f 78 81 129
f 80 128 130
f 80 130 81
f 81 130 131
f 81 131 129
f 82 129 132
f 82 132 83
f 83 133 134
f 83 134 84
f 83 132 135
f 83 135 136
f 83 136 133
f 84 137 85
f 84 134 137
f 85 137 138
f 85 138 139
f 85 139 86
f 86 139 87
f 87 139 140
f 87 140 88
f 88 140 141
f 88 141 91
f 88 91 89
f 91 141 92
f 92 142 143
f 92 143 144
f 92 144 145
f 92 145 146
f 92 146 94
f 92 141 147
f 92 147 148
f 92 148 142
f 94 146 149
f 94 149 95
f 95 149 150
f 95 150 151
f 95 151 96
f 96 152 97
f 96 151 99
f 96 99 152
f 97 152 98
f 98 152 99
f 99 151 153
f 99 153 154
f 99 154 155
f 99 155 156
f 99 156 100
f 100 156 101
f 101 156 102
f 102 155 157
f 102 157 115
f 102 156 155
f 104 159 160
f 104 160 158
f 106 122 161
f 106 161 107
f 107 161 162
f 108 163 164
f 108 164 165
f 108 165 166
f 108 166 167
f 108 167 168
f 108 168 169
f 108 169 170
f 108 170 114
f 108 114 109
f 112 171 113
f 112 114 171
f 113 171 172
f 113 172 173
f 113 173 174
f 113 174 124
f 114 170 175
f 114 175 176
f 114 176 171
f 115 157 177
f 115 177 116
f 116 177 178
f 116 178 117
f 117 178 118
f 118 179 180
f 118 180 119
f 118 178 177
f 118 177 181
f 118 181 179
f 119 182 120
f 119 180 183
f 119 183 184
f 119 184 185
f 119 185 186
f 119 186 187
f 119 187 188
f 119 188 182
f 120 182 121
f 121 182 188
f 121 188 189
f 121 189 190
f 121 190 191
f 121 191 122
f 122 191 192
f 122 192 161
f 123 126 193
f 123 193 127
f 124 174 125
f 125 174 193
f 125 193 126
f 127 194 128
f 127 193 195
f 127 195 196
f 127 196 194
f 128 194 130
f 129 131 197
f 129 197 132
f 130 198 131
f 130 194 199
f 130 199 198
f 131 198 197
f 132 197 135
f 133 136 200
f 133 200 201
f 133 201 202
f 133 202 137
f 133 137 134
f 135 197 203
f 135 203 204
f 135 204 136
f 136 204 200
f 137 202 205
f 137 205 206
f 137 206 207
f 137 207 208
f 137 208 148
f 137 148 138
f 138 148 139
f 139 148 147
f 139 147 141
f 139 141 140
f 142 209 143
f 142 148 208
f 142 208 207
f 142 207 209
f 143 209 210
f 143 210 211
f 143 211 212
f 143 212 144
f 144 212 213
f 144 213 214
f 144 214 145
f 145 214 149
f 145 149 146
f 149 214 150
f 150 214 215
f 150 215 216
f 150 216 151
f 151 216 153
f 153 216 217
f 153 217 218
f 153 218 154
f 154 218 219
f 154 219 157
f 154 157 155
f 157 219 220
f 157 220 177
f 158 160 222
f 158 222 223
f 158 223 221
f 159 224 225
f 159 225 226
f 159 226 227
f 159 227 228
f 159 228 229
f 159 229 230
f 159 230 231
f 159 231 232
f 159 232 233
f 159 233 234
f 159 234 235
f 159 235 236
f 159 236 237
f 159 237 160
f 160 237 222
f 161 192 238
f 161 238 162
f 162 238 239
f 162 239 240
f 163 241 242
f 163 242 164
f 164 242 165
f 165 242 243
f 165 243 244
f 165 244 166
f 166 168 167
f 166 244 245
f 166 245 246
f 166 246 168
f 168 246 247
f 168 247 248
f 168 248 169
f 169 248 170
f 170 248 175
f 171 176 172
f 172 176 173
f 173 176 247
f 173 247 195
f 173 195 174
f 174 195 193
f 175 248 176
f 176 248 247
f 177 249 250
f 177 250 179
f 177 179 181
f 177 220 249
f 179 250 180
f 180 250 251
f 180 251 183
f 183 252 184
f 183 251 250
f 183 250 249
f 183 249 253
f 183 253 252
f 184 252 254
f 184 254 185
f 185 255 256
f 185 256 186
f 185 254 257
f 185 257 258
f 185 258 259
f 185 259 255
f 186 256 187
f 187 256 188
f 188 260 189
f 188 256 255
f 188 255 261
f 188 261 262
f 188 262 263
f 188 263 260
f 189 260 190
f 190 260 191
f 191 264 192
f 191 260 264
f 192 264 265
f 192 265 266
f 192 266 238
f 194 196 267
f 194 267 199
f 195 247 268
f 195 268 269
f 195 269 196
f 196 269 267
f 197 198 203
f 198 270 203
f 198 199 271
f 198 271 272
f 198 272 273
f 198 273 270
f 199 267 271
f 200 204 274
f 200 274 275
f 200 275 201
f 201 275 276
f 201 276 277
f 201 277 202
f 202 277 278
f 202 278 279
f 202 279 205
f 203 270 204
f 204 270 274
f 205 279 280
f 205 280 206
f 206 280 281
f 206 281 207
f 207 281 282
f 207 282 210
f 207 210 209
f 210 282 283
f 210 283 284
f 210 284 211
f 211 284 285
f 211 285 212
f 212 285 286
f 212 286 213
f 213 286 287
f 213 287 215
f 213 215 214
f 215 287 216
f 216 287 288
f 216 288 217
f 217 289 290
f 217 290 218
f 217 288 289
f 218 220 219
f 218 290 249
f 218 249 220
f 221 223 292
f 221 292 291
f 222 237 236
f 222 236 293
f 222 293 294
f 222 294 223
f 223 294 295
f 223 295 292
f 224 296 297
f 224 297 298
f 224 298 299
f 224 299 225
f 225 299 226
f 226 299 227
f 227 299 300
f 227 300 228
f 228 300 301
f 228 301 302
f 228 302 229
f 229 302 230
f 230 302 303
f 230 303 231
f 231 303 232
f 232 303 233
f 233 303 304
f 233 304 234
f 234 305 306
f 234 306 235
f 234 304 305
f 235 306 293
f 235 293 236
f 238 266 239
f 239 266 307
f 239 307 308
f 239 308 309
f 239 309 310
f 239 310 240
f 241 311 312
f 241 312 242
f 242 312 313
f 242 313 314
f 242 314 315
f 242 315 316
f 242 316 243
f 243 316 244
f 244 316 317
f 244 317 318
f 244 318 319
f 244 319 320
f 244 320 321
f 244 321 322
f 244 322 323
f 244 323 245
f 245 323 247
f 245 247 246
f 247 323 268
f 249 290 289
f 249 289 324
f 249 324 325
f 249 325 253
f 252 253 325
f 252 325 254
f 254 325 257
f 255 259 326
f 255 326 261
f 257 325 327
f 257 327 328
f 257 328 258
f 258 328 329
f 258 329 330
f 258 330 259
f 259 330 331
f 259 331 326
f 260 263 332
f 260 332 264
f 261 326 262
f 262 333 263
f 262 326 331
f 262 331 334
f 262 334 335
f 262 335 336
f 262 336 333
f 263 333 332
f 264 332 337
f 264 337 265
f 265 337 266
f 266 337 338
f 266 338 339
f 266 339 340
f 266 340 307
f 267 269 341
f 267 341 271
f 268 342 269
f 268 323 342
f 269 342 321
f 269 321 341
f 270 343 274
f 270 273 344
f 270 344 345
f 270 345 343
f 271 341 321
f 271 321 272
f 272 321 346
f 272 346 344
f 272 344 273
f 274 343 275
f 275 343 276
f 276 343 347
f 276 347 348
f 276 348 349
f 276 349 277
f 277 349 350
f 277 350 278
f 278 350 351
f 278 351 279
f 279 351 352
f 279 352 353
f 279 353 354
f 279 354 280
f 280 354 355
f 280 355 281
f 281 355 282
f 282 355 356
f 282 356 283
f 283 357 358
f 283 358 359
f 283 359 284
f 283 356 357
f 284 359 360
f 284 360 285
f 285 360 361
f 285 361 286
f 286 361 287
f 287 361 362
f 287 362 328
f 287 328 363
f 287 363 288
f 288 363 289
f 289 363 327
f 289 327 324
f 291 292 311
f 292 364 311
f 292 295 365
f 292 365 366
f 292 366 367
f 292 367 364
f 293 306 368
f 293 368 294
f 294 368 295
f 295 368 365
f 296 369 297
f 297 370 371
f 297 371 372
f 297 372 373
f 297 373 374
f 297 374 299
f 297 299 298
f 297 369 375
f 297 375 370
f 299 374 376
f 299 376 300
f 300 376 301
f 301 377 302
f 301 376 377
f 302 378 379
f 302 379 303
f 302 377 378
f 303 379 380
f 303 380 304
f 304 380 305
f 305 380 381
f 305 381 382
f 305 382 306
f 306 382 368
f 307 340 308
f 308 383 309
f 308 340 384
f 308 384 385
f 308 385 383
f 311 364 312
f 312 364 313
f 313 386 314
f 313 364 386
f 314 317 315
f 314 386 387
f 314 387 388
f 314 388 389
f 314 389 317
f 315 317 316
f 317 389 390
f 317 390 319
f 317 319 318
f 319 346 320
f 319 390 391
f 319 391 392
f 319 392 346
f 320 346 321
f 321 342 322
f 322 342 323
f 324 327 325
f 327 363 328
f 328 362 393
f 328 393 329
f 329 393 394
f 329 394 330
f 330 394 395
f 330 395 331
f 331 395 396
f 331 396 397
f 331 397 334
f 332 333 398
f 332 398 337
f 333 336 399
f 333 399 398
f 334 397 335
f 335 397 396
f 335 396 400
f 335 400 336
f 336 400 401
f 336 401 402
f 336 402 403
f 336 403 399
f 337 398 399
f 337 399 338
f 338 399 339
f 339 399 403
f 339 403 404
f 339 404 340
f 340 404 384
f 343 345 405
f 343 405 347
f 344 392 345
f 344 346 392
f 345 392 405
f 347 405 391
f 347 391 406
f 347 406 348
f 348 407 408
f 348 408 349
f 348 406 407
f 349 408 409
f 349 409 350
f 350 410 351
f 350 409 410
f 351 411 352
f 351 410 411
f 352 411 412
f 352 412 353
f 353 412 354
f 354 413 355
f 354 412 413
f 355 413 414
f 355 414 415
f 355 415 416
f 355 416 357
f 355 357 356
f 357 417 358
f 357 416 417
f 358 418 419
f 358 419 420
f 358 420 421
f 358 421 359
f 358 417 418
f 359 421 360
f 360 421 361
f 361 422 394
f 361 394 393
f 361 393 362
f 361 421 422
f 364 367 386
f 365 368 382
f 365 382 423
f 365 423 366
f 366 386 367
f 366 423 387
f 366 387 386
f 369 424 375
f 370 375 425
f 370 425 371
f 371 425 426
f 371 426 427
f 371 427 372
f 372 428 373
f 372 427 429
f 372 429 428
f 373 428 430
f 373 430 374
f 374 430 431
f 374 431 432
f 374 432 433
f 374 433 376
f 375 434 435
f 375 435 425
f 375 424 434
f 376 433 436
f 376 436 437
f 376 437 377
f 377 437 378
f 378 437 438
f 378 438 379
f 379 438 439
f 379 439 440
f 379 440 380
f 380 440 381
f 381 423 382
f 381 440 423
f 384 441 385
f 384 404 442
f 384 442 443
f 384 443 444
f 384 444 441
f 387 423 445
f 387 445 446
f 387 446 447
f 387 447 388
f 388 448 389
f 388 447 391
f 388 391 448
f 389 448 391
f 389 391 390
f 391 447 406
f 391 405 392
f 394 422 449
f 394 449 396
f 394 396 395
f 396 449 420
f 396 420 450
f 396 450 400
f 400 450 451
f 400 451 401
f 401 451 452
f 401 452 402
f 402 452 453
f 402 453 403
f 403 453 404
f 404 453 454
f 404 454 442
f 406 455 407
f 406 447 455
f 407 456 457
f 407 457 408
f 407 455 456
f 408 457 458
f 408 458 409
f 409 458 459
f 409 459 410
f 410 459 411
f 411 459 460
f 411 460 461
f 411 461 412
f 412 461 413
f 413 461 462
f 413 462 463
f 413 463 464
f 413 464 465
f 413 465 414
f 414 465 466
f 414 466 415
f 415 466 418
f 415 418 417
f 415 417 416
f 418 467 468
f 418 468 469
f 418 469 450
f 418 450 419
f 418 466 467
f 419 450 420
f 420 449 421
f 421 449 422
f 423 440 445
f 425 435 470
f 425 470 426
f 426 470 471
f 426 471 427
f 427 471 467
f 427 467 466
f 427 466 465
f 427 465 429
f 428 429 465
f 428 465 464
f 428 464 463
f 428 463 460
f 428 460 431
f 428 431 430
f 431 460 432
f 432 460 472
f 432 472 433
f 433 472 436
f 435 473 470
f 436 459 437
f 436 472 459
f 437 458 438
f 437 459 458
f 438 457 456
f 438 456 439
f 438 458 457
f 439 474 440
f 439 456 474
f 440 474 445
f 442 454 453
f 442 453 475
f 442 475 476
f 442 476 477
f 442 477 443
f 445 474 446
f 446 474 455
f 446 455 447
f 450 469 451
f 451 469 478
f 451 478 452
f 452 478 479
f 452 479 453
f 453 479 471
f 453 471 480
f 453 480 481
f 453 481 475
f 455 474 456
f 459 472 460
f 460 463 462
f 460 462 461
f 467 471 479
f 467 479 478
f 467 478 468
f 468 478 469
f 470 473 482
f 470 482 483
f 470 483 481
f 470 481 471
f 471 481 480
f 475 481 476
f 476 481 484
f 476 484 477
f 481 483 484

