# https://github.com/mikedh/trimesh
v 0.15315784 -0.00977041 -0.16610619
v 0.15256666 -0.01185686 -0.16610619
v 0.15253189 -0.01182326 -0.17001889
v 0.15307960 -0.00977041 -0.17001889
v 0.15296658 -0.00683572 -0.17001889
v 0.15301004 -0.00677666 -0.16610619
v 0.15285356 -0.00699457 -0.16220401
v 0.15265361 -0.00734486 -0.15829129
v 0.15250581 -0.00763202 -0.15555978
v 0.15250581 -0.00836925 -0.15555978
v 0.15265361 -0.00914416 -0.15829129
v 0.15281878 -0.01010949 -0.16196145
v 0.15249712 -0.01179678 -0.16308991
v 0.15047148 -0.01225501 -0.16610619
v 0.14893268 -0.01206154 -0.13484666
v 0.14907178 -0.01212467 -0.13874883
v 0.15047148 -0.01221326 -0.17001889
v 0.15245365 -0.01175198 -0.17203326
v 0.15267099 -0.00977041 -0.17249730
v 0.15272315 -0.00724304 -0.17261331
v 0.15047148 -0.00520953 -0.17001889
v 0.15047148 -0.00514843 -0.16610619
v 0.15047148 -0.00536634 -0.16220401
v 0.14961950 -0.00636528 -0.13874883
v 0.14937607 -0.00651293 -0.13484666
v 0.14910656 -0.00677259 -0.13093394
v 0.14882836 -0.00718397 -0.12704232
v 0.14862841 -0.00755768 -0.12437408
v 0.14862841 -0.00867677 -0.12437408
v 0.14933259 -0.00977041 -0.13093394
v 0.14979336 -0.00977041 -0.13484666
v 0.14859363 -0.01180391 -0.12828680
v 0.15234932 -0.01163895 -0.16049550
v 0.14874143 -0.01192814 -0.13093394
v 0.14655929 -0.01253300 -0.16610619
v 0.14655929 -0.01251467 -0.17001889
v 0.14655929 -0.01257475 -0.13874883
v 0.14655929 -0.01259002 -0.14266154
v 0.14655929 -0.01259308 -0.14657425
v 0.14655929 -0.01258493 -0.15046587
v 0.14529002 -0.01216744 -0.11531473
v 0.14655929 -0.01251874 -0.13484666
v 0.14655929 -0.01242608 -0.17392106
v 0.15028022 -0.01199535 -0.17357303
v 0.14885444 -0.01189148 -0.17612526
v 0.15134086 -0.00977041 -0.17445893
v 0.14933259 -0.00698643 -0.17650493
v 0.15056711 -0.00632455 -0.17392106
v 0.14655929 -0.00475436 -0.17392106
v 0.14655929 -0.00455478 -0.17001889
v 0.14655929 -0.00455070 -0.16610619
v 0.14655929 -0.00455376 -0.15829129
v 0.14655929 -0.00455885 -0.15046587
v 0.14655929 -0.00458329 -0.14657425
v 0.14655929 -0.00464438 -0.14266154
v 0.14655929 -0.00473501 -0.13874883
v 0.14655929 -0.00488368 -0.13484666
v 0.14655929 -0.00514640 -0.13093394
v 0.14585510 -0.00631335 -0.11531473
v 0.14541172 -0.00661272 -0.11140202
v 0.14531610 -0.00674510 -0.11064267
v 0.14497704 -0.00716463 -0.10820646
v 0.14579425 -0.00977041 -0.11140202
v 0.14830674 -0.01128255 -0.12569239
v 0.14881097 -0.00989565 -0.12701068
v 0.14475100 -0.01185584 -0.10888142
v 0.14491618 -0.01197193 -0.11064267
v 0.14498573 -0.01202284 -0.11140202
v 0.11920012 -0.01395554 -0.07596612
v 0.14265582 -0.01250143 -0.17392106
v 0.14265582 -0.01266334 -0.11531473
v 0.14265582 -0.01270000 -0.11921690
v 0.12308622 -0.01372642 -0.07596612
v 0.14265582 -0.01252485 -0.11140202
v 0.13092798 -0.01244746 -0.17783377
v 0.13484014 -0.01236600 -0.17783377
v 0.14655929 -0.01203913 -0.17650493
v 0.13773516 -0.01185075 -0.17994305
v 0.14034328 -0.01148213 -0.17959503
v 0.14655929 -0.00977041 -0.17783377
v 0.14938475 -0.00977041 -0.17652603
v 0.14145608 -0.00740698 -0.17998524
v 0.14655929 -0.00638361 -0.17721154
v 0.13874363 -0.00530525 -0.17783377
v 0.13484014 -0.00490201 -0.17783377
v 0.13092798 -0.00470039 -0.17783377
v 0.14265582 -0.00455376 -0.17392106
v 0.07478385 -0.00356603 -0.13860117
v 0.07696598 -0.00356603 -0.13481502
v 0.07891337 -0.00356603 -0.13079685
v 0.08090424 -0.00356603 -0.12312961
v 0.08106942 -0.00356603 -0.11921690
v 0.08105203 -0.00356603 -0.11653812
v 0.08103464 -0.00356603 -0.11531473
v 0.08079992 -0.00356603 -0.11277305
v 0.14265582 -0.00456292 -0.12312961
v 0.14265582 -0.00458838 -0.11921690
v 0.14265582 -0.00468410 -0.11531473
v 0.14265582 -0.00498551 -0.11140202
v 0.14226460 -0.00627974 -0.10358714
v 0.14149085 -0.00674815 -0.09967442
v 0.14095185 -0.00736217 -0.09725929
v 0.14428154 -0.00977041 -0.10613937
v 0.14499442 -0.00977041 -0.10809045
v 0.14548128 -0.01040174 -0.11064267
v 0.14075189 -0.01177336 -0.09761787
v 0.14109094 -0.01198924 -0.09967442
v 0.14171689 -0.01220919 -0.10358714
v 0.11529664 -0.01396776 -0.07596612
v 0.13874363 -0.01251467 -0.17392106
v 0.12311230 -0.01249431 -0.17783377
v 0.12701579 -0.01247598 -0.17783377
v 0.13874363 -0.01272647 -0.10358714
v 0.13874363 -0.01250958 -0.09967442
v 0.12614641 -0.01260224 -0.07596612
v 0.11920012 -0.01210838 -0.18076567
v 0.12311230 -0.01210023 -0.18061803
v 0.12701579 -0.01208190 -0.18045983
v 0.13092798 -0.01205543 -0.18030164
v 0.13484014 -0.01197702 -0.18012235
v 0.12311230 -0.00977041 -0.18228435
v 0.12701579 -0.00977041 -0.18192578
v 0.13092798 -0.00977041 -0.18150392
v 0.13484014 -0.00977041 -0.18099769
v 0.13891751 -0.01001581 -0.18028053
v 0.14145608 -0.00887636 -0.17998524
v 0.11344488 -0.00781123 -0.18370812
v 0.13874363 -0.00693551 -0.18029109
v 0.13484014 -0.00653533 -0.18066021
v 0.13092798 -0.00633371 -0.18098715
v 0.12701579 -0.00623697 -0.18125082
v 0.12311230 -0.00620032 -0.18146174
v 0.12701579 -0.00460263 -0.17783377
v 0.06434268 -0.00356603 -0.14852533
v 0.06543809 -0.00356603 -0.14761835
v 0.07035874 -0.00356603 -0.14302011
v 0.12311230 -0.00456598 -0.17783377
v 0.07994793 -0.00356501 -0.11064267
v 0.08054780 -0.00356603 -0.11140202
v 0.13874363 -0.00456190 -0.10748930
v 0.13874363 -0.00464948 -0.10358714
v 0.13874363 -0.00512909 -0.09967442
v 0.13884796 -0.00633371 -0.09587771
v 0.13761345 -0.00687340 -0.09257669
v 0.13323181 -0.00726544 -0.08548952
v 0.12745047 -0.00975513 -0.07596612
v 0.13969995 -0.00977041 -0.09535040
v 0.14092575 -0.00977041 -0.09730148
v 0.14188207 -0.00977041 -0.09967442
v 0.12742439 -0.00994555 -0.07596612
v 0.11138446 -0.01396470 -0.07596612
v 0.10358618 -0.01249736 -0.17783377
v 0.11138446 -0.01250143 -0.17783377
v 0.11529664 -0.01250245 -0.17783377
v 0.11920012 -0.01250245 -0.17783377
v 0.11529664 -0.01210838 -0.18088169
v 0.11920012 -0.00977041 -0.18259019
v 0.11344488 -0.00783873 -0.18370812
v 0.11319276 -0.00781123 -0.18370812
v 0.11168875 -0.00651293 -0.18211561
v 0.11496628 -0.00651293 -0.18210508
v 0.11920012 -0.00619319 -0.18160938
v 0.06434268 -0.00356603 -0.13891757
v 0.06475998 -0.00356501 -0.09558242
v 0.07197578 -0.00356501 -0.11064267
v 0.11920012 -0.00455987 -0.17783377
v 0.11138446 -0.00455987 -0.17783377
v 0.10749836 -0.00456089 -0.17783377
v 0.10358618 -0.00456394 -0.17783377
v 0.09968270 -0.00459653 -0.17783377
v 0.08404268 -0.00455376 -0.17392106
v 0.08013919 -0.00464235 -0.17392106
v 0.07622701 -0.00471974 -0.17001889
v 0.07622701 -0.00554760 -0.17392106
v 0.07374061 -0.00709233 -0.17392106
v 0.07427092 -0.00780105 -0.17588270
v 0.06434268 -0.00366684 -0.14855697
v 0.07904378 -0.00356501 -0.10857558
v 0.13484014 -0.00456292 -0.09967442
v 0.13092798 -0.00458023 -0.09185954
v 0.13484014 -0.00467799 -0.09576170
v 0.13092798 -0.00499060 -0.08794682
v 0.13100621 -0.00630724 -0.08412903
v 0.12637245 -0.00673084 -0.07596612
v 0.13409249 -0.00660966 -0.08794682
v 0.10748967 -0.01396063 -0.07596612
v 0.09968270 -0.01248921 -0.17783377
v 0.11138446 -0.01210634 -0.18088169
v 0.11168875 -0.00939161 -0.18299096
v 0.11496628 -0.00939161 -0.18298042
v 0.11319276 -0.00783873 -0.18370812
v 0.09577052 -0.00630418 -0.18106097
v 0.09968270 -0.00622577 -0.18132463
v 0.10358618 -0.00619421 -0.18151447
v 0.10749836 -0.00619217 -0.18164102
v 0.09577052 -0.00977041 -0.18163048
v 0.08475556 -0.00724813 -0.18008015
v 0.08795486 -0.00675426 -0.18041764
v 0.09186703 -0.00644776 -0.18076567
v 0.06434268 -0.00569627 -0.14017259
v 0.06475998 -0.00445498 -0.08840032
v 0.06475998 -0.00356501 -0.08813666
v 0.09577052 -0.00467391 -0.17783377
v 0.09186703 -0.00481749 -0.17783377
v 0.08795486 -0.00512501 -0.17783377
v 0.08013919 -0.00627363 -0.17745411
v 0.07622701 -0.00707298 -0.17649439
v 0.06434268 -0.00586428 -0.14915812
v 0.08013919 -0.00977041 -0.17827672
v 0.07427092 -0.00786520 -0.17588270
v 0.07480994 -0.00356501 -0.10056032
v 0.07046307 -0.00356501 -0.09368407
v 0.12702448 -0.00456598 -0.08794682
v 0.12702448 -0.00474927 -0.08404466
v 0.12311230 -0.00547836 -0.07622978
v 0.12313838 -0.00556287 -0.07596612
v 0.10384699 -0.01393314 -0.07596612
v 0.08404268 -0.01250652 -0.17392106
v 0.09577052 -0.01246274 -0.17783377
v 0.10358618 -0.01210227 -0.18067076
v 0.10749836 -0.01210430 -0.18079731
v 0.10749836 -0.00977041 -0.18265348
v 0.10358618 -0.00977041 -0.18238982
v 0.09968270 -0.00977041 -0.18205233
v 0.09186703 -0.00977041 -0.18113480
v 0.08590314 -0.01174180 -0.17980595
v 0.08795486 -0.00977041 -0.18056530
v 0.08499898 -0.00977041 -0.18002743
v 0.08304289 -0.00977041 -0.17934191
v 0.06434268 -0.00867066 -0.14287247
v 0.08164321 -0.01206154 -0.10748930
v 0.08193879 -0.01186908 -0.10504254
v 0.08566841 -0.01196785 -0.09702728
v 0.09994352 -0.01288736 -0.07596612
v 0.09963054 -0.01271527 -0.07596612
v 0.06434268 -0.00872565 -0.14297793
v 0.09813521 -0.01023780 -0.07596612
v 0.09804828 -0.00977041 -0.07596612
v 0.09958707 -0.00658828 -0.07596612
v 0.10340361 -0.00551400 -0.07596612
v 0.10358618 -0.00546817 -0.07596612
v 0.10358618 -0.00540097 -0.07622978
v 0.10748967 -0.00537653 -0.07622978
v 0.11138446 -0.00536125 -0.07622978
v 0.11529664 -0.00536533 -0.07622978
v 0.11138446 -0.00479102 -0.08013195
v 0.11529664 -0.00480120 -0.08013195
v 0.12311230 -0.00483582 -0.08013195
v 0.12311230 -0.00462402 -0.08404466
v 0.06674215 -0.00356501 -0.08958152
v 0.06434268 -0.00872565 -0.14773436
v 0.07367105 -0.00940790 -0.17395270
v 0.07747022 -0.01194647 -0.17624127
v 0.07619224 -0.00940790 -0.17658930
v 0.07487079 -0.01046996 -0.17528155
v 0.11920012 -0.00538773 -0.07622978
v 0.12286018 -0.00553843 -0.07596612
v 0.10360357 -0.01392193 -0.07596612
v 0.07622701 -0.01247903 -0.16610619
v 0.07622701 -0.01245459 -0.17001889
v 0.08013919 -0.01251569 -0.17001889
v 0.08013919 -0.01246987 -0.17392106
v 0.09186703 -0.01238128 -0.17783377
v 0.09577052 -0.01207172 -0.18035436
v 0.09968270 -0.01209514 -0.18052310
v 0.09186703 -0.01199331 -0.18016454
v 0.08795486 -0.01184261 -0.17993251
v 0.08013919 -0.01207986 -0.17669477
v 0.08404268 -0.01256457 -0.10748930
v 0.08516417 -0.01214809 -0.09967442
v 0.07791360 -0.01195054 -0.12312961
v 0.08126937 -0.01219391 -0.11140202
v 0.06434268 -0.00887432 -0.14679573
v 0.07769625 -0.01209718 -0.12704232
v 0.10748967 -0.00544170 -0.07596612
v 0.11113234 -0.00542744 -0.07596612
v 0.11138446 -0.00542744 -0.07596612
v 0.11529664 -0.00543152 -0.07596612
v 0.06434268 -0.00887737 -0.14719650
v 0.07397534 -0.01194036 -0.17267659
v 0.07619224 -0.01213994 -0.17395270
v 0.11920012 -0.00545392 -0.07596612
v 0.08404268 -0.01267556 -0.11064267
v 0.08404268 -0.01270102 -0.11140202
v 0.08013919 -0.01257577 -0.12704232
v 0.08013919 -0.01262872 -0.13093394
v 0.08013919 -0.01263992 -0.13484666
v 0.07622701 -0.01246274 -0.16220401
v 0.07374061 -0.01207885 -0.16610619
v 0.07377538 -0.01206357 -0.17001889
v 0.08795486 -0.01222853 -0.17783377
v 0.08013919 -0.01243728 -0.12312961
v 0.07381885 -0.01205644 -0.16220401
v 0.07394926 -0.01198822 -0.15829129
v 0.07754846 -0.01215624 -0.13093394
v 0.07622701 -0.01240368 -0.15829129
f 1 2 3
f 1 3 4
f 1 4 5
f 1 5 6
f 1 6 7
f 1 7 8
f 1 8 9
f 1 9 10
f 1 10 11
f 1 11 12
f 1 12 13
f 1 13 2
f 2 14 3
f 2 13 15
f 2 15 16
f 2 16 14
f 3 17 18
f 3 18 4
f 3 14 17
f 4 18 19
f 4 19 20
f 4 20 5
f 5 20 21
f 5 21 6
f 6 21 22
f 6 22 23
f 6 23 24
f 6 24 7
f 7 24 25
f 7 25 8
f 8 25 26
f 8 26 9
f 9 26 27
f 9 27 28
f 9 28 29
f 9 29 10
f 10 29 30
f 10 30 31
f 10 31 32
f 10 32 11
f 11 33 12
f 11 32 33
f 12 33 13
f 13 33 32
f 13 32 34
f 13 34 15
f 14 35 36
f 14 36 17
f 14 16 37
f 14 37 38
f 14 38 39
f 14 39 40
f 14 40 35
f 15 34 41
f 15 41 42
f 15 42 16
f 16 42 37
f 17 36 43
f 17 43 44
f 17 44 18
f 18 44 45
f 18 45 46
f 18 46 19
f 19 46 20
f 20 46 47
f 20 47 48
f 20 48 21
f 21 48 49
f 21 49 50
f 21 50 22
f 22 50 51
f 22 51 52
f 22 52 53
f 22 53 54
f 22 54 55
f 22 55 56
f 22 56 57
f 22 57 23
f 23 57 24
f 24 57 58
f 24 58 25
f 25 58 59
f 25 59 26
f 26 59 27
f 27 59 60
f 27 60 28
f 28 60 61
f 28 61 62
f 28 62 63
f 28 63 29
f 29 63 64
f 29 64 65
f 29 65 30
f 30 65 32
f 30 32 31
f 32 65 64
f 32 64 66
f 32 66 67
f 32 67 68
f 32 68 34
f 34 68 41
f 35 40 69
f 35 69 36
f 36 70 43
f 36 69 70
f 37 42 71
f 37 71 72
f 37 72 73
f 37 73 38
f 38 73 69
f 38 69 39
f 39 69 40
f 41 68 74
f 41 74 71
f 41 71 42
f 43 70 75
f 43 75 76
f 43 76 77
f 43 77 45
f 43 45 44
f 45 77 78
f 45 78 79
f 45 79 80
f 45 80 81
f 45 81 46
f 46 81 47
f 47 81 80
f 47 80 82
f 47 82 83
f 47 83 49
f 47 49 48
f 49 83 84
f 49 84 85
f 49 85 86
f 49 86 87
f 49 87 50
f 50 87 88
f 50 88 89
f 50 89 90
f 50 90 91
f 50 91 51
f 51 91 92
f 51 92 93
f 51 93 94
f 51 94 52
f 52 94 53
f 53 94 95
f 53 95 96
f 53 96 54
f 54 96 97
f 54 97 55
f 55 97 56
f 56 97 98
f 56 98 57
f 57 98 58
f 58 98 99
f 58 99 59
f 59 99 60
f 60 99 100
f 60 100 61
f 61 100 101
f 61 101 62
f 62 101 102
f 62 102 103
f 62 103 104
f 62 104 63
f 63 104 105
f 63 105 64
f 64 105 66
f 66 105 104
f 66 104 106
f 66 106 107
f 66 107 108
f 66 108 68
f 66 68 67
f 68 108 74
f 69 73 115
f 69 115 150
f 69 150 146
f 69 146 184
f 69 184 216
f 69 216 257
f 69 257 282
f 69 282 278
f 69 278 277
f 69 277 276
f 69 276 275
f 69 275 241
f 69 241 240
f 69 240 239
f 69 239 238
f 69 238 237
f 69 237 235
f 69 235 234
f 69 234 258
f 69 258 217
f 69 217 186
f 69 186 151
f 69 151 109
f 69 109 110
f 69 110 70
f 70 110 111
f 70 111 112
f 70 112 75
f 71 74 73
f 71 73 72
f 73 113 114
f 73 114 107
f 73 107 106
f 73 106 115
f 73 74 113
f 74 108 114
f 74 114 113
f 75 112 116
f 75 116 117
f 75 117 118
f 75 118 119
f 75 119 76
f 76 119 120
f 76 120 77
f 77 120 78
f 78 120 121
f 78 121 122
f 78 122 123
f 78 123 124
f 78 124 125
f 78 125 79
f 79 125 126
f 79 126 80
f 80 126 82
f 82 126 124
f 82 124 127
f 82 127 128
f 82 128 83
f 83 128 84
f 84 128 129
f 84 129 85
f 85 129 130
f 85 130 131
f 85 131 86
f 86 131 132
f 86 132 133
f 86 133 87
f 87 134 135
f 87 135 136
f 87 136 88
f 87 133 137
f 87 137 134
f 88 138 89
f 88 136 138
f 89 138 90
f 90 138 91
f 91 138 92
f 92 138 93
f 93 138 94
f 94 138 95
f 95 138 139
f 95 139 96
f 96 139 140
f 96 140 97
f 97 140 141
f 97 141 98
f 98 141 99
f 99 141 142
f 99 142 100
f 100 142 101
f 101 142 143
f 101 143 102
f 102 143 144
f 102 144 145
f 102 145 146
f 102 146 147
f 102 147 148
f 102 148 149
f 102 149 103
f 103 149 106
f 103 106 104
f 106 149 148
f 106 148 147
f 106 147 150
f 106 150 115
f 107 114 108
f 109 151 152
f 109 152 153
f 109 153 154
f 109 154 155
f 109 155 111
f 109 111 110
f 111 155 156
f 111 156 116
f 111 116 112
f 116 156 157
f 116 157 117
f 117 157 118
f 118 157 119
f 119 157 120
f 120 157 121
f 121 157 158
f 121 158 122
f 122 158 123
f 123 158 127
f 123 127 124
f 124 126 125
f 127 158 191
f 127 191 159
f 127 159 160
f 127 160 161
f 127 161 162
f 127 162 132
f 127 132 131
f 127 131 130
f 127 130 129
f 127 129 128
f 132 162 133
f 133 162 137
f 134 163 202
f 134 202 164
f 134 164 165
f 134 165 138
f 134 138 135
f 134 137 166
f 134 166 167
f 134 167 168
f 134 168 169
f 134 169 170
f 134 170 171
f 134 171 172
f 134 172 173
f 134 173 174
f 134 174 175
f 134 175 176
f 134 176 177
f 134 177 208
f 134 208 251
f 134 251 279
f 134 279 273
f 134 273 236
f 134 236 230
f 134 230 200
f 134 200 163
f 135 138 136
f 137 162 166
f 138 165 164
f 138 164 202
f 138 202 250
f 138 250 212
f 138 212 211
f 138 211 178
f 138 178 139
f 139 178 179
f 139 179 140
f 140 179 141
f 141 179 180
f 141 180 181
f 141 181 142
f 142 181 182
f 142 182 143
f 143 182 183
f 143 183 184
f 143 184 185
f 143 185 144
f 144 185 184
f 144 184 145
f 145 184 146
f 146 150 147
f 151 186 152
f 152 187 188
f 152 188 153
f 152 186 187
f 153 188 156
f 153 156 154
f 154 156 155
f 156 188 189
f 156 189 190
f 156 190 157
f 157 190 158
f 158 190 189
f 158 189 191
f 159 192 193
f 159 193 194
f 159 194 195
f 159 195 160
f 159 191 196
f 159 196 197
f 159 197 198
f 159 198 199
f 159 199 192
f 160 195 162
f 160 162 161
f 162 195 166
f 163 200 201
f 163 201 202
f 166 195 167
f 167 195 168
f 168 195 169
f 169 195 170
f 170 195 194
f 170 194 203
f 170 203 171
f 171 203 172
f 172 203 204
f 172 204 205
f 172 205 206
f 172 206 174
f 172 174 173
f 174 206 207
f 174 207 176
f 174 176 175
f 176 208 177
f 176 207 197
f 176 197 209
f 176 209 210
f 176 210 208
f 178 211 179
f 179 211 212
f 179 212 180
f 180 212 213
f 180 213 214
f 180 214 181
f 181 214 182
f 182 214 215
f 182 215 184
f 182 184 183
f 184 215 216
f 186 217 218
f 186 218 187
f 187 218 219
f 187 219 220
f 187 220 221
f 187 221 188
f 188 221 222
f 188 222 189
f 189 222 191
f 191 222 223
f 191 223 224
f 191 224 196
f 192 199 205
f 192 205 204
f 192 204 193
f 193 204 203
f 193 203 194
f 196 225 197
f 196 224 226
f 196 226 225
f 197 207 206
f 197 206 198
f 197 225 227
f 197 227 228
f 197 228 229
f 197 229 209
f 198 206 205
f 198 205 199
f 200 230 201
f 201 231 232
f 201 232 233
f 201 233 234
f 201 234 235
f 201 235 202
f 201 230 236
f 201 236 231
f 202 235 237
f 202 237 238
f 202 238 239
f 202 239 240
f 202 240 241
f 202 241 242
f 202 242 243
f 202 243 244
f 202 244 245
f 202 245 246
f 202 246 247
f 202 247 248
f 202 248 249
f 202 249 213
f 202 213 250
f 208 210 252
f 208 252 251
f 209 229 226
f 209 226 253
f 209 253 254
f 209 254 210
f 210 255 252
f 210 254 255
f 212 250 213
f 213 249 214
f 214 249 248
f 214 248 215
f 215 248 256
f 215 256 257
f 215 257 216
f 217 258 259
f 217 259 260
f 217 260 261
f 217 261 262
f 217 262 218
f 218 262 219
f 219 262 263
f 219 263 264
f 219 264 265
f 219 265 220
f 220 265 222
f 220 222 221
f 222 265 264
f 222 264 266
f 222 266 223
f 223 266 267
f 223 267 224
f 224 267 226
f 225 226 227
f 226 228 227
f 226 267 268
f 226 268 253
f 226 229 228
f 231 269 270
f 231 270 232
f 231 236 271
f 231 271 272
f 231 272 269
f 232 270 233
f 233 270 258
f 233 258 234
f 236 273 274
f 236 274 271
f 241 275 242
f 242 275 243
f 243 275 244
f 244 275 276
f 244 276 277
f 244 277 278
f 244 278 245
f 245 256 248
f 245 248 247
f 245 247 246
f 245 278 282
f 245 282 256
f 251 252 280
f 251 280 279
f 252 255 280
f 253 268 262
f 253 262 281
f 253 281 280
f 253 280 255
f 253 255 254
f 256 282 257
f 258 270 269
f 258 269 283
f 258 283 284
f 258 284 285
f 258 285 286
f 258 286 287
f 258 287 259
f 259 288 289
f 259 289 290
f 259 290 260
f 259 287 286
f 259 286 288
f 260 290 280
f 260 280 281
f 260 281 262
f 260 262 261
f 262 268 291
f 262 291 263
f 263 291 266
f 263 266 264
f 266 291 268
f 266 268 267
f 269 272 292
f 269 292 285
f 269 285 283
f 271 274 272
f 272 274 292
f 273 279 289
f 273 289 293
f 273 293 294
f 273 294 274
f 274 295 285
f 274 285 292
f 274 294 293
f 274 293 295
f 279 280 290
f 279 290 289
f 283 285 284
f 285 295 293
f 285 293 296
f 285 296 288
f 285 288 286
f 288 296 293
f 288 293 289

