# https://github.com/mikedh/trimesh
v -0.04104193 -0.03786474 0.16609412
v -0.03722569 -0.03651610 0.16609412
v -0.03802944 -0.03601977 0.17000502
v -0.04104193 -0.03707746 0.17000502
v -0.04494677 -0.03769702 0.16609412
v -0.04885162 -0.01798082 -0.06445340
v -0.04494677 -0.01804586 -0.06445340
v -0.03713708 -0.01806297 -0.06445340
v -0.03323224 -0.01713193 -0.06836430
v -0.03059947 -0.01625223 -0.06836430
v -0.03533339 -0.03321980 0.16609412
v -0.02710916 -0.01205569 -0.07596612
v -0.03694722 -0.03321980 0.17000502
v -0.03889648 -0.03540364 0.17208268
v -0.04104193 -0.03573567 0.17230267
v -0.04374431 -0.03568774 0.17227823
v -0.04500690 -0.03648187 0.17017612
v -0.04751941 -0.03594447 0.16900285
v -0.04786433 -0.03635179 0.16609412
v -0.05500318 -0.01589624 -0.07102860
v -0.04885162 -0.01736811 -0.06836430
v -0.04104509 -0.01739550 -0.06836430
v -0.03713708 -0.01739550 -0.06836430
v -0.03323224 -0.01620431 -0.07156635
v -0.03075453 -0.01600578 -0.07115082
v -0.03488721 -0.01677594 0.16875842
v -0.02624212 -0.01000535 -0.07596612
v -0.02871350 -0.01368160 0.08792502
v -0.02880527 -0.01368160 0.09183592
v -0.02900146 -0.01368160 0.09574682
v -0.02921664 -0.01368160 0.09963328
v -0.02945713 -0.01368160 0.10356862
v -0.02931157 -0.01304493 -0.07596612
v -0.03816867 -0.01759403 0.17262043
v -0.03879522 -0.03321980 0.17215601
v -0.04104193 -0.01759403 0.17374482
v -0.04104193 -0.03321980 0.17262043
v -0.04412720 -0.03321980 0.17242488
v -0.04608279 -0.03321980 0.17142272
v -0.04783269 -0.03321980 0.16946727
v -0.04883263 -0.03321980 0.16609412
v -0.05583224 -0.01688890 0.08792502
v -0.05584174 -0.01689232 0.08474741
v -0.05584174 -0.01689575 0.08398967
v -0.05854412 -0.01000192 -0.07596612
v -0.05640816 -0.01280532 -0.07596612
v -0.05610754 -0.01296278 -0.07596612
v -0.05276596 -0.01529038 -0.07344847
v -0.05276596 -0.01614270 -0.07149302
v -0.04885162 -0.01625223 -0.07156635
v -0.04104509 -0.01624539 -0.07156635
v -0.03713708 -0.01623169 -0.07156635
v -0.03323224 -0.01528354 -0.07352180
v -0.03460241 -0.01379113 0.16609412
v -0.03488721 -0.01447914 0.16875842
v -0.02621681 -0.00977601 -0.07596612
v -0.02650477 -0.00640783 -0.07596612
v -0.03041594 -0.01111438 0.09963328
v -0.03053935 -0.01116573 0.10356862
v -0.03522263 -0.00958775 0.16584968
v -0.03323224 -0.01365421 -0.07596612
v -0.03826993 -0.01368160 0.17252266
v -0.04104193 -0.01368160 0.17347594
v -0.04504487 -0.01357548 0.17296264
v -0.04523157 -0.01784733 0.17310930
v -0.04739917 -0.01671775 0.17240045
v -0.05086733 -0.01577302 0.16499418
v -0.04838013 -0.01784733 0.17032278
v -0.05569617 -0.01368160 0.10356862
v -0.05533227 -0.01654661 0.10356862
v -0.05546201 -0.01666983 0.09963328
v -0.05559491 -0.01676225 0.09574682
v -0.05572782 -0.01683413 0.09183592
v -0.05655372 -0.01368160 0.08792502
v -0.05756000 -0.00597311 -0.07596612
v -0.05276596 -0.01375690 -0.07596612
v -0.05238623 -0.01376032 -0.07596612
v -0.04885162 -0.01524931 -0.07354624
v -0.03675419 -0.00958775 0.16983392
v -0.03683014 -0.00958775 0.17000502
v -0.03611182 -0.01337695 0.17002946
v -0.02903310 -0.00509341 -0.07596612
v -0.02932106 -0.00500099 -0.07596612
v -0.03323224 -0.00410076 -0.07596612
v -0.03717189 -0.00332032 -0.07596612
v -0.04104509 -0.00289588 -0.07596612
v -0.03872877 -0.00958775 0.17220490
v -0.04104193 -0.00958775 0.17271821
v -0.04422213 -0.00958775 0.17247377
v -0.04739917 -0.01480432 0.17240045
v -0.05086733 -0.01551630 0.16499418
v -0.05492406 -0.01152514 0.10637957
v -0.05507912 -0.01138137 0.10356862
v -0.05615818 -0.01368160 0.09574682
v -0.05637652 -0.01368160 0.09183592
v -0.05518038 -0.01129922 0.09963328
v -0.05527531 -0.01123419 0.09574682
v -0.05536708 -0.01118284 0.09183592
v -0.05698724 -0.00557605 -0.07596612
v -0.04893073 -0.00958775 0.16609412
v -0.04248172 -0.00293353 -0.07596612
v -0.04617455 -0.00958775 0.17149605
v -0.04788332 -0.00958775 0.16954060
v -0.04835165 -0.01357548 0.17020056
v -0.05610121 -0.00526798 -0.07596612
v -0.04494677 -0.00300541 -0.07596612
v -0.04665554 -0.00319025 -0.07596612
v -0.04874403 -0.00346751 -0.07596612
v -0.05142742 -0.00397753 -0.07596612
v -0.05276596 -0.00433694 -0.07596612
f 1 2 3
f 1 3 4
f 1 4 5
f 1 5 6
f 1 6 7
f 1 7 8
f 1 8 9
f 1 9 10
f 1 10 2
f 2 11 3
f 2 10 12
f 2 12 11
f 3 13 14
f 3 14 4
f 3 11 13
f 4 14 15
f 4 15 16
f 4 16 17
f 4 17 5
f 5 17 18
f 5 18 19
f 5 19 20
f 5 20 6
f 6 20 21
f 6 21 7
f 7 21 22
f 7 22 8
f 8 22 23
f 8 23 9
f 9 23 24
f 9 24 25
f 9 25 10
f 10 25 12
f 11 26 13
f 11 12 27
f 11 27 28
f 11 28 29
f 11 29 30
f 11 30 31
f 11 31 32
f 11 32 26
f 12 25 33
f 12 33 61
f 12 61 77
f 12 77 76
f 12 76 47
f 12 47 46
f 12 46 45
f 12 45 75
f 12 75 99
f 12 99 105
f 12 105 110
f 12 110 109
f 12 109 108
f 12 108 107
f 12 107 106
f 12 106 101
f 12 101 86
f 12 86 85
f 12 85 84
f 12 84 83
f 12 83 82
f 12 82 57
f 12 57 56
f 12 56 27
f 13 34 35
f 13 35 14
f 13 26 34
f 14 35 36
f 14 36 37
f 14 37 15
f 15 37 16
f 16 37 36
f 16 36 38
f 16 38 39
f 16 39 18
f 16 18 17
f 18 40 41
f 18 41 19
f 18 39 40
f 19 41 42
f 19 42 43
f 19 43 44
f 19 44 45
f 19 45 20
f 20 45 46
f 20 46 47
f 20 47 48
f 20 48 49
f 20 49 21
f 21 49 50
f 21 50 22
f 22 50 23
f 23 50 51
f 23 51 52
f 23 52 24
f 24 52 53
f 24 53 25
f 25 53 33
f 26 54 55
f 26 55 34
f 26 32 54
f 27 56 28
f 28 56 57
f 28 57 29
f 29 57 58
f 29 58 59
f 29 59 30
f 30 59 31
f 31 59 32
f 32 59 60
f 32 60 54
f 33 53 61
f 34 62 36
f 34 36 35
f 34 55 62
f 36 63 64
f 36 64 65
f 36 65 38
f 36 62 63
f 38 66 39
f 38 65 66
f 39 66 40
f 40 67 41
f 40 66 68
f 40 68 67
f 41 67 69
f 41 69 70
f 41 70 71
f 41 71 72
f 41 72 73
f 41 73 42
f 42 73 74
f 42 74 45
f 42 45 43
f 43 45 44
f 45 74 75
f 47 76 48
f 48 76 77
f 48 77 78
f 48 78 50
f 48 50 49
f 50 78 53
f 50 53 51
f 51 53 52
f 53 78 77
f 53 77 61
f 54 60 55
f 55 60 79
f 55 79 80
f 55 80 81
f 55 81 62
f 57 82 60
f 57 60 59
f 57 59 58
f 60 82 83
f 60 83 84
f 60 84 85
f 60 85 86
f 60 86 79
f 62 81 87
f 62 87 63
f 63 88 89
f 63 89 64
f 63 87 88
f 64 89 90
f 64 90 65
f 65 90 66
f 66 90 68
f 67 68 91
f 67 91 69
f 68 90 91
f 69 92 93
f 69 93 94
f 69 94 70
f 69 91 92
f 70 94 95
f 70 95 74
f 70 74 71
f 71 74 72
f 72 74 73
f 74 95 93
f 74 93 96
f 74 96 97
f 74 97 98
f 74 98 75
f 75 98 97
f 75 97 96
f 75 96 93
f 75 93 100
f 75 100 99
f 79 86 80
f 80 86 87
f 80 87 81
f 86 101 102
f 86 102 89
f 86 89 88
f 86 88 87
f 89 102 90
f 90 102 103
f 90 103 104
f 90 104 91
f 91 104 103
f 91 103 100
f 91 100 92
f 92 100 93
f 93 95 94
f 99 100 105
f 100 103 106
f 100 106 107
f 100 107 108
f 100 108 109
f 100 109 110
f 100 110 105
f 101 106 102
f 102 106 103

