# https://github.com/mikedh/trimesh
v -0.08612853 -0.00899929 -0.07596612
v -0.08613520 -0.00977336 -0.07596612
v -0.08762353 -0.00715075 -0.07596612
v -0.11448687 -0.01485395 0.14657428
v -0.11448687 -0.01676025 0.14657428
v -0.08717636 -0.01123775 -0.07596612
v -0.08839772 -0.00709587 -0.07228471
v -0.08897837 -0.00716952 -0.06838546
v -0.08767692 -0.00713920 -0.07596612
v -0.09186159 -0.00641134 -0.06838546
v -0.11311867 -0.01159157 0.10655796
v -0.11496072 -0.01459833 0.14657428
v -0.11480722 -0.01701009 0.14657428
v -0.11710312 -0.01960382 0.14130266
v -0.11686286 -0.01973091 0.13873221
v -0.11660923 -0.01991143 0.13483296
v -0.08784377 -0.01217068 -0.07596612
v -0.09186159 -0.00630736 -0.07596612
v -0.09186159 -0.00632613 -0.07228471
v -0.09577263 -0.00631313 -0.06446443
v -0.12311650 -0.00988601 0.11139390
v -0.12475833 -0.01154969 0.14655249
v -0.12475833 -0.01155402 0.14657428
v -0.11496072 -0.01710541 0.14657428
v -0.11736341 -0.01960382 0.14130266
v -0.11845129 -0.01724838 0.14657428
v -0.11757698 -0.01973091 0.13873221
v -0.11790402 -0.01991143 0.13483296
v -0.11921882 -0.02075916 0.11529315
v -0.11648910 -0.02006307 0.13093371
v -0.11531445 -0.01769463 -0.03320508
v -0.09186159 -0.01275413 -0.07596612
v -0.11644905 -0.02018582 0.12701268
v -0.11646240 -0.02027392 0.12311343
v -0.11650912 -0.02032302 0.11919240
v -0.11921882 -0.02081404 0.11139390
v -0.09211521 -0.00630302 -0.07596612
v -0.09577263 -0.00625103 -0.07228471
v -0.09577263 -0.00627125 -0.06838546
v -0.09967698 -0.00624670 -0.06446443
v -0.09967698 -0.00629869 -0.06056518
v -0.12580617 -0.01126230 0.13873221
v -0.12564599 -0.01140094 0.14265324
v -0.12541907 -0.01154969 0.14657428
v -0.10358802 -0.00633624 -0.05664414
v -0.10749239 -0.00621204 -0.06056518
v -0.11140341 -0.00618316 -0.06056518
v -0.11531445 -0.00616294 -0.06056518
v -0.11921882 -0.00615139 -0.06056518
v -0.12311650 -0.00615139 -0.06056518
v -0.12702086 -0.00617016 -0.06056518
v -0.13093190 -0.00619471 -0.06056518
v -0.13483627 -0.00622504 -0.06056518
v -0.13874729 -0.00634635 -0.05664414
v -0.14265833 -0.00632468 -0.06056518
v -0.14656270 -0.00636801 -0.06446443
v -0.15047372 -0.00641278 -0.07228471
v -0.12642686 -0.01663894 0.14657428
v -0.12642686 -0.01664328 0.14655249
v -0.11823772 -0.02006307 0.13093371
v -0.12190182 -0.02026814 0.11139390
v -0.11921882 -0.02052087 0.11919240
v -0.12206867 -0.02032880 0.10747288
v -0.11921882 -0.01774806 -0.03320508
v -0.11531445 -0.01749100 -0.03710433
v -0.15022011 -0.01274402 -0.07596612
v -0.11921882 -0.01749678 -0.03710433
v -0.12702086 -0.01742890 -0.03710433
v -0.12311650 -0.01774373 -0.03320508
v -0.09577263 -0.00624237 -0.07596612
v -0.09967698 -0.00619615 -0.07228471
v -0.09967698 -0.00621204 -0.06838546
v -0.10358802 -0.00619615 -0.06446443
v -0.10358802 -0.00624959 -0.06056518
v -0.12678060 -0.01367840 0.14657428
v -0.15324349 -0.00717097 -0.07228471
v -0.10749239 -0.00615572 -0.06446443
v -0.11140341 -0.00612395 -0.06446443
v -0.11531445 -0.00610373 -0.06446443
v -0.11921882 -0.00609506 -0.06446443
v -0.12311650 -0.00609506 -0.06446443
v -0.12702086 -0.00611095 -0.06446443
v -0.13093190 -0.00613405 -0.06446443
v -0.13874729 -0.00626836 -0.06056518
v -0.13483627 -0.00617016 -0.06446443
v -0.14265833 -0.00626692 -0.06446443
v -0.14656270 -0.00629147 -0.06838546
v -0.15047372 -0.00635212 -0.07596612
v -0.15347708 -0.00711465 -0.07596612
v -0.15387085 -0.00977336 -0.07228471
v -0.15430467 -0.00977336 -0.07596612
v -0.15305661 -0.01217790 -0.07228471
v -0.15325683 -0.01222556 -0.07596612
v -0.15308999 -0.01225878 -0.07596612
v -0.15047372 -0.01273969 -0.07596612
v -0.12311650 -0.01749534 -0.03710433
v -0.09967698 -0.00619038 -0.07596612
v -0.10358802 -0.00615139 -0.07228471
v -0.10358802 -0.00616727 -0.06838546
v -0.15426463 -0.00960439 -0.07596612
v -0.10749239 -0.00613261 -0.06838546
v -0.11140341 -0.00610084 -0.06838546
v -0.11531445 -0.00608207 -0.06838546
v -0.11921882 -0.00607196 -0.06838546
v -0.12311650 -0.00607340 -0.06838546
v -0.12702086 -0.00608784 -0.06838546
v -0.13093190 -0.00611095 -0.06838546
v -0.13483627 -0.00614416 -0.06838546
v -0.13874729 -0.00621348 -0.06446443
v -0.13874729 -0.00618316 -0.06838546
v -0.14265833 -0.00623226 -0.06838546
v -0.14656270 -0.00627414 -0.07228471
v -0.14656270 -0.00626692 -0.07596612
v -0.10384164 -0.00614561 -0.07596612
v -0.10749239 -0.00612106 -0.07228471
v -0.10749239 -0.00611817 -0.07596612
v -0.11140341 -0.00609795 -0.07228471
v -0.11531445 -0.00607773 -0.07228471
v -0.11921882 -0.00606185 -0.07228471
v -0.12311650 -0.00606618 -0.07228471
v -0.12702086 -0.00608495 -0.07228471
v -0.13093190 -0.00610662 -0.07228471
v -0.13483627 -0.00612972 -0.07228471
v -0.13874729 -0.00616727 -0.07228471
v -0.14265833 -0.00621637 -0.07228471
v -0.14290527 -0.00621348 -0.07596612
v -0.11140341 -0.00609651 -0.07596612
v -0.11556139 -0.00607629 -0.07596612
v -0.11921882 -0.00606185 -0.07596612
v -0.12311650 -0.00606473 -0.07596612
v -0.12727447 -0.00608495 -0.07596612
v -0.13118551 -0.00610662 -0.07596612
v -0.13483627 -0.00612828 -0.07596612
v -0.13874729 -0.00616149 -0.07596612
f 1 2 6
f 1 6 17
f 1 17 32
f 1 32 66
f 1 66 95
f 1 95 94
f 1 94 93
f 1 93 91
f 1 91 100
f 1 100 89
f 1 89 88
f 1 88 113
f 1 113 126
f 1 126 134
f 1 134 133
f 1 133 132
f 1 132 131
f 1 131 130
f 1 130 129
f 1 129 128
f 1 128 127
f 1 127 116
f 1 116 114
f 1 114 97
f 1 97 70
f 1 70 37
f 1 37 18
f 1 18 9
f 1 9 3
f 1 3 4
f 1 4 5
f 1 5 2
f 2 5 6
f 3 7 8
f 3 8 4
f 3 9 10
f 3 10 7
f 4 11 12
f 4 12 23
f 4 23 44
f 4 44 75
f 4 75 58
f 4 58 26
f 4 26 24
f 4 24 13
f 4 13 5
f 4 8 11
f 5 13 14
f 5 14 15
f 5 15 16
f 5 16 17
f 5 17 6
f 7 10 8
f 8 10 11
f 9 18 19
f 9 19 10
f 10 19 20
f 10 20 21
f 10 21 11
f 11 21 22
f 11 22 12
f 12 22 23
f 13 24 14
f 14 25 27
f 14 27 15
f 14 24 26
f 14 26 25
f 15 27 28
f 15 28 16
f 16 28 29
f 16 29 30
f 16 30 17
f 17 31 32
f 17 30 33
f 17 33 34
f 17 34 35
f 17 35 36
f 17 36 31
f 18 37 38
f 18 38 19
f 19 38 39
f 19 39 20
f 20 39 40
f 20 40 41
f 20 41 21
f 21 42 43
f 21 43 44
f 21 44 22
f 21 41 45
f 21 45 46
f 21 46 47
f 21 47 48
f 21 48 49
f 21 49 50
f 21 50 51
f 21 51 52
f 21 52 53
f 21 53 54
f 21 54 55
f 21 55 56
f 21 56 57
f 21 57 42
f 22 44 23
f 25 26 58
f 25 58 59
f 25 59 27
f 27 59 28
f 28 60 29
f 28 59 61
f 28 61 60
f 29 62 61
f 29 61 63
f 29 63 36
f 29 36 34
f 29 34 33
f 29 33 30
f 29 60 62
f 31 64 65
f 31 65 32
f 31 36 64
f 32 65 67
f 32 67 66
f 34 36 35
f 36 63 68
f 36 68 69
f 36 69 64
f 37 70 38
f 38 70 71
f 38 71 72
f 38 72 39
f 39 72 40
f 40 72 73
f 40 73 41
f 41 73 74
f 41 74 45
f 42 57 43
f 43 57 44
f 44 57 76
f 44 76 75
f 45 74 46
f 46 74 77
f 46 77 78
f 46 78 47
f 47 78 79
f 47 79 48
f 48 79 49
f 49 79 80
f 49 80 81
f 49 81 50
f 50 81 82
f 50 82 51
f 51 82 83
f 51 83 52
f 52 83 53
f 53 84 54
f 53 83 85
f 53 85 109
f 53 109 84
f 54 84 55
f 55 84 86
f 55 86 87
f 55 87 56
f 56 87 57
f 57 87 88
f 57 88 89
f 57 89 76
f 58 75 90
f 58 90 91
f 58 91 92
f 58 92 59
f 59 92 93
f 59 93 61
f 60 61 62
f 61 93 63
f 63 93 94
f 63 94 95
f 63 95 68
f 64 69 96
f 64 96 67
f 64 67 65
f 66 67 96
f 66 96 68
f 66 68 95
f 68 96 69
f 70 97 71
f 71 97 98
f 71 98 99
f 71 99 72
f 72 99 73
f 73 99 77
f 73 77 74
f 75 76 90
f 76 89 100
f 76 100 90
f 77 99 101
f 77 101 102
f 77 102 78
f 78 102 79
f 79 102 103
f 79 103 104
f 79 104 80
f 80 104 81
f 81 104 105
f 81 105 106
f 81 106 82
f 82 106 107
f 82 107 83
f 83 107 108
f 83 108 85
f 84 109 86
f 85 108 110
f 85 110 109
f 86 109 111
f 86 111 87
f 87 111 112
f 87 112 88
f 88 112 113
f 90 100 91
f 91 93 92
f 97 114 98
f 98 114 115
f 98 115 102
f 98 102 101
f 98 101 99
f 102 115 116
f 102 116 117
f 102 117 118
f 102 118 103
f 103 118 119
f 103 119 104
f 104 119 105
f 105 119 120
f 105 120 106
f 106 120 121
f 106 121 122
f 106 122 107
f 107 122 123
f 107 123 108
f 108 123 124
f 108 124 110
f 109 110 111
f 110 124 125
f 110 125 111
f 111 125 112
f 112 125 113
f 113 125 126
f 114 116 115
f 116 127 117
f 117 127 118
f 118 127 128
f 118 128 119
f 119 128 129
f 119 129 130
f 119 130 120
f 120 130 121
f 121 130 131
f 121 131 132
f 121 132 122
f 122 132 123
f 123 132 133
f 123 133 134
f 123 134 124
f 124 134 126
f 124 126 125

