# https://github.com/mikedh/trimesh
v 0.18953518 0.03786474 0.17783856
v 0.18953518 0.03654563 0.18174798
v 0.19344192 0.03649918 0.18174798
v 0.19344192 0.03776720 0.17783856
v 0.18953518 0.03786474 0.15048388
v -0.18953518 0.03786474 0.17783856
v 0.19344192 0.03520329 0.18371577
v 0.19541463 0.03519400 0.18371204
v -0.18953518 0.03654563 0.18174798
v 0.19595617 0.03581175 0.18174798
v 0.19649769 0.03642022 0.17783856
v 0.19344192 0.03776720 0.15048388
v 0.19344192 0.03647131 0.14708700
v 0.18953518 0.03651776 0.14704585
v -0.18953518 0.03786474 0.15048388
v -0.19344192 0.03776720 0.17783856
v -0.19344192 0.03649918 0.18174798
v 0.19344192 0.03321997 0.18373073
v -0.19344192 0.03520329 0.18371577
v 0.19541463 0.03321997 0.18371577
v 0.19649769 0.03321997 0.18174798
v -0.19541463 0.03519400 0.18371204
v 0.19754207 0.03321997 0.17783856
v 0.19649769 0.03642022 0.15048388
v 0.19611088 0.03600683 0.14759579
v 0.19344192 0.03321997 0.14562050
v 0.18953518 0.03321997 0.14551576
v -0.18953518 0.03651776 0.14704585
v -0.19344192 0.03647131 0.14708700
v -0.19344192 0.03776720 0.15048388
v -0.19649769 0.03642022 0.17783856
v -0.19595617 0.03581175 0.18174798
v 0.19344192 0.03023338 0.18371577
v 0.19541463 0.03057710 0.18371204
v -0.19344192 0.03321997 0.18373073
v 0.19622693 0.02929049 0.18212956
v 0.19742603 0.02931372 0.17783856
v -0.19649769 0.03321997 0.18174798
v -0.19541463 0.03321997 0.18371577
v 0.19754207 0.03321997 0.15048388
v 0.19649769 0.03321997 0.14712815
v 0.19642034 0.02931372 0.14718800
v 0.19344192 0.02931372 0.14577763
v 0.18953518 0.02931372 0.14571403
v -0.18953518 0.03321997 0.14551576
v -0.19344192 0.03321997 0.14562050
v -0.19611088 0.03600683 0.14759579
v -0.19649769 0.03642022 0.15048388
v -0.19754207 0.03321997 0.17783856
v 0.17000145 0.02827793 0.18368585
v 0.19344192 0.02827793 0.18367836
v -0.19344192 0.03023338 0.18371577
v 0.19603354 0.02679161 0.18108206
v -0.19541463 0.03057710 0.18371204
v 0.19742603 0.02931372 0.15048388
v 0.19638164 0.02651292 0.17783856
v -0.19742603 0.02931372 0.17783856
v -0.19622693 0.02929049 0.18212956
v 0.19603354 0.02679161 0.14767435
v 0.19344192 0.02651292 0.14724413
v 0.17197417 0.01171932 0.15242924
v 0.11542305 -0.00958624 0.15802213
v 0.11503625 -0.00958624 0.15800717
v 0.11124554 -0.00958624 0.15794357
v -0.18953518 0.02931372 0.14571403
v -0.19344192 0.02931372 0.14577763
v -0.19642034 0.02931372 0.14718800
v -0.19649769 0.03321997 0.14712815
v -0.19754207 0.03321997 0.15048388
v 0.11136158 -0.00958624 0.17322208
v -0.17390819 0.02827793 0.18368585
v 0.17000145 0.01368406 0.17945845
v 0.17000145 0.01081824 0.17752431
v 0.17309590 0.01111550 0.17697811
v 0.11155499 -0.00958624 0.17321834
v -0.19344192 0.02827793 0.18367836
v 0.17367611 0.01078572 0.17393289
v -0.19603354 0.02679161 0.18108206
v 0.19638164 0.02651292 0.15048388
v 0.17371479 0.01077179 0.17002347
v -0.19742603 0.02931372 0.15048388
v -0.19638164 0.02651292 0.17783856
v 0.17375348 0.01083682 0.15830271
v 0.17290250 0.01127807 0.15439330
v 0.11836279 -0.00958624 0.15875913
v 0.11816939 -0.00958624 0.15867682
v -0.11917508 -0.00958624 0.15869926
v -0.19344192 0.02651292 0.14724413
v -0.19603354 0.02679161 0.14767435
v -0.12346863 -0.00958624 0.15896489
v -0.17201284 0.01171932 0.15242924
v -0.11917508 -0.00958624 0.17271704
v 0.11484285 -0.00958624 0.17291905
v 0.11553910 -0.00958624 0.17285546
v 0.11557778 -0.00958624 0.17285172
v 0.11565514 -0.00958624 0.17282928
v 0.11863355 -0.00958624 0.17042377
v 0.11867223 -0.00958624 0.17037888
v -0.17626771 0.01130129 0.17666761
v -0.17390819 0.01093436 0.17726992
v -0.17390819 0.01368406 0.17899455
v -0.17000145 0.01368406 0.17942103
v 0.11882695 -0.00958624 0.17005341
v 0.12049022 -0.00958624 0.16586341
v 0.17375348 0.01081359 0.16220839
v -0.19638164 0.02651292 0.15048388
v -0.17649980 0.01105976 0.16220839
v -0.17649980 0.01107370 0.17002347
v -0.17649980 0.01108299 0.17393289
v 0.11998737 -0.00958624 0.16240292
v -0.17630639 0.01128271 0.15540713
v -0.12385544 -0.00958624 0.15910705
v -0.17356006 0.01107834 0.15422121
v -0.12238557 -0.00958624 0.17255618
v -0.12725933 -0.00958624 0.16611406
v -0.12613760 -0.00958624 0.16967930
v -0.12606024 -0.00958624 0.16977283
v -0.12451301 -0.00958624 0.17163213
v -0.12254030 -0.00958624 0.17254495
v -0.17649980 0.01105976 0.15830271
v -0.12602155 -0.00958624 0.16135542
v -0.12621495 -0.00958624 0.16163974
f 1 2 3
f 1 3 4
f 1 4 12
f 1 12 5
f 1 5 15
f 1 15 6
f 1 6 9
f 1 9 2
f 2 7 8
f 2 8 3
f 2 9 19
f 2 19 7
f 3 8 10
f 3 10 4
f 4 10 11
f 4 11 24
f 4 24 12
f 5 12 13
f 5 13 14
f 5 14 28
f 5 28 15
f 6 15 30
f 6 30 16
f 6 16 17
f 6 17 9
f 7 18 8
f 7 19 35
f 7 35 18
f 8 20 21
f 8 21 10
f 8 18 20
f 9 17 22
f 9 22 19
f 10 21 23
f 10 23 11
f 11 23 40
f 11 40 24
f 12 24 25
f 12 25 13
f 13 26 27
f 13 27 14
f 13 25 26
f 14 27 45
f 14 45 28
f 15 28 29
f 15 29 30
f 16 30 48
f 16 48 31
f 16 31 32
f 16 32 17
f 17 32 22
f 18 33 34
f 18 34 20
f 18 35 52
f 18 52 33
f 19 22 35
f 20 34 21
f 21 34 36
f 21 36 37
f 21 37 23
f 22 32 38
f 22 38 39
f 22 39 35
f 23 37 55
f 23 55 40
f 24 40 25
f 25 41 26
f 25 40 41
f 26 41 42
f 26 42 43
f 26 43 27
f 27 43 44
f 27 44 65
f 27 65 45
f 28 45 29
f 29 46 47
f 29 47 30
f 29 45 46
f 30 47 48
f 31 48 69
f 31 69 49
f 31 49 32
f 32 49 38
f 33 50 51
f 33 51 34
f 33 52 71
f 33 71 50
f 34 53 36
f 34 51 53
f 35 39 54
f 35 54 52
f 36 53 37
f 37 53 56
f 37 56 79
f 37 79 55
f 38 49 57
f 38 57 58
f 38 58 54
f 38 54 39
f 40 55 42
f 40 42 41
f 42 55 59
f 42 59 43
f 43 59 60
f 43 60 61
f 43 61 62
f 43 62 63
f 43 63 64
f 43 64 44
f 44 64 65
f 45 65 66
f 45 66 46
f 46 66 67
f 46 67 68
f 46 68 47
f 47 68 69
f 47 69 48
f 49 69 81
f 49 81 57
f 50 70 51
f 50 71 70
f 51 72 73
f 51 73 74
f 51 74 53
f 51 70 75
f 51 75 72
f 52 54 76
f 52 76 71
f 53 74 77
f 53 77 56
f 54 58 78
f 54 78 76
f 55 79 59
f 56 77 80
f 56 80 79
f 57 81 106
f 57 106 82
f 57 82 78
f 57 78 58
f 59 79 83
f 59 83 84
f 59 84 61
f 59 61 60
f 61 84 85
f 61 85 86
f 61 86 62
f 62 86 85
f 62 85 110
f 62 110 104
f 62 104 103
f 62 103 98
f 62 98 97
f 62 97 96
f 62 96 95
f 62 95 94
f 62 94 93
f 62 93 75
f 62 75 70
f 62 70 92
f 62 92 114
f 62 114 119
f 62 119 118
f 62 118 117
f 62 117 116
f 62 116 115
f 62 115 122
f 62 122 121
f 62 121 112
f 62 112 90
f 62 90 87
f 62 87 64
f 62 64 63
f 64 87 65
f 65 87 66
f 66 88 89
f 66 89 67
f 66 87 90
f 66 90 91
f 66 91 88
f 67 89 81
f 67 81 69
f 67 69 68
f 70 71 76
f 70 76 92
f 72 75 93
f 72 93 94
f 72 94 95
f 72 95 73
f 73 95 74
f 74 95 96
f 74 96 97
f 74 97 98
f 74 98 77
f 76 78 99
f 76 99 100
f 76 100 101
f 76 101 102
f 76 102 92
f 77 98 103
f 77 103 104
f 77 104 80
f 78 82 99
f 79 80 105
f 79 105 83
f 80 104 105
f 81 89 106
f 82 107 108
f 82 108 109
f 82 109 99
f 82 106 120
f 82 120 107
f 83 105 104
f 83 104 110
f 83 110 85
f 83 85 84
f 88 91 89
f 89 91 111
f 89 111 106
f 90 112 91
f 91 113 111
f 91 112 113
f 92 102 114
f 99 109 115
f 99 115 116
f 99 116 117
f 99 117 118
f 99 118 100
f 100 118 119
f 100 119 101
f 101 119 102
f 102 119 114
f 106 111 120
f 107 115 108
f 107 120 115
f 108 115 109
f 111 113 112
f 111 112 121
f 111 121 122
f 111 122 120
f 115 120 122

