# Blender 4.0.0
# www.blender.org
o Refrigerator072_Body001
v 0.44693100 0.40604500 -0.92202850
v 0.45947400 0.40604500 -0.89685950
v 0.45080700 0.40604500 -0.92079650
v 0.45430200 0.40604500 -0.91722350
v 0.44693100 0.40897900 -0.92079650
v 0.45093300 0.40905600 -0.91933750
v 0.45413200 0.40895800 -0.91596450
v 0.44693100 0.41162300 -0.91722350
v 0.45079100 0.41149900 -0.91594650
v 0.45356800 0.41106700 -0.91355650
v 0.45886000 0.40897900 -0.89685950
v 0.45707900 0.41162300 -0.89685950
v 0.45886000 0.40604500 -0.90463850
v 0.45813200 0.40907300 -0.90484550
v 0.45645200 0.41149400 -0.90458450
v 0.45707900 0.40604500 -0.91165150
v 0.45644300 0.40896600 -0.91132350
v 0.44693100 0.41507100 -0.90463850
v 0.44693100 0.41372400 -0.91165150
v 0.45080800 0.41507100 -0.89685950
v 0.45091000 0.41452100 -0.90489050
v 0.45078100 0.41324900 -0.91131050
v 0.45430200 0.41372400 -0.89685950
v 0.45413900 0.41324200 -0.90460450
v 0.45453900 0.41173900 -0.91033550
v 0.45947400 0.40604600 0.89685950
v 0.44693100 0.40604600 0.92202850
v 0.45886000 0.40604600 0.90463850
v 0.45707900 0.40604600 0.91165150
v 0.45886000 0.40897900 0.89685950
v 0.45813200 0.40905700 0.90489050
v 0.45645200 0.40895900 0.91131050
v 0.45707900 0.41162300 0.89685950
v 0.45644300 0.41150000 0.90460450
v 0.45525200 0.41106700 0.91017750
v 0.44693100 0.40897900 0.92079650
v 0.44693100 0.41162300 0.91722350
v 0.45080700 0.40604600 0.92079650
v 0.45091000 0.40907400 0.91933750
v 0.45078100 0.41149500 0.91596450
v 0.45430200 0.40604600 0.91722350
v 0.45413900 0.40896600 0.91594650
v 0.45356800 0.41106700 0.91355650
v 0.45080800 0.41507200 0.89685950
v 0.45430200 0.41372400 0.89685950
v 0.44693100 0.41507200 0.90463850
v 0.45093300 0.41452100 0.90484550
v 0.45413200 0.41324900 0.90458450
v 0.44693100 0.41372400 0.91165150
v 0.45079100 0.41324300 0.91132350
v 0.45356800 0.41234200 0.91017750
v -0.44698300 0.40604500 -0.92202850
v -0.44698300 0.41553600 -0.89685950
v -0.44698300 0.40897900 -0.92079650
v -0.44698300 0.41162300 -0.91722350
v -0.45085900 0.40604500 -0.92079650
v -0.45096200 0.40907300 -0.91933750
v -0.45083300 0.41149400 -0.91596450
v -0.45435400 0.40604500 -0.91722350
v -0.45419100 0.40896600 -0.91594650
v -0.45361900 0.41106700 -0.91355650
v -0.45085900 0.41507100 -0.89685950
v -0.45435400 0.41372400 -0.89685950
v -0.44698300 0.41507100 -0.90463850
v -0.45098500 0.41452100 -0.90484550
v -0.45418400 0.41324900 -0.90458450
v -0.44698300 0.41372400 -0.91165150
v -0.45084200 0.41324200 -0.91132350
v -0.45361900 0.41234100 -0.91017750
v -0.45891200 0.40604500 -0.90463850
v -0.45713100 0.40604500 -0.91165150
v -0.45891200 0.40897900 -0.89685950
v -0.45818400 0.40905600 -0.90489050
v -0.45650400 0.40895800 -0.91131050
v -0.45713100 0.41162300 -0.89685950
v -0.45649500 0.41149900 -0.90460450
v -0.45530400 0.41106700 -0.91017750
v -0.44698300 0.40604600 0.92202850
v -0.44698300 0.41553600 0.89685950
v -0.45085900 0.40604600 0.92079650
v -0.45435400 0.40604600 0.91722350
v -0.44698300 0.40897900 0.92079650
v -0.45098500 0.40905700 0.91933750
v -0.45418400 0.40895900 0.91596450
v -0.44698300 0.41162300 0.91722350
v -0.45084200 0.41150000 0.91594650
v -0.45361900 0.41106800 0.91355650
v -0.45891200 0.40604600 0.90463850
v -0.45818400 0.40907400 0.90484550
v -0.45650400 0.41149500 0.90458450
v -0.45713100 0.40604600 0.91165150
v -0.45649500 0.40896600 0.91132350
v -0.45530400 0.41106800 0.91017750
v -0.44698300 0.41507200 0.90463850
v -0.44698300 0.41372400 0.91165150
v -0.45096200 0.41452100 0.90489050
v -0.45083300 0.41325000 0.91131050
v -0.45419100 0.41324300 0.90460450
v -0.45361900 0.41234200 0.91017750
v 0.44693100 -0.27028100 -0.92202850
v 0.42259300 -0.28015100 -0.85112850
v 0.44693100 -0.27321400 -0.92079650
v 0.44693100 -0.27585900 -0.91722350
v 0.45080700 -0.27028100 -0.92079650
v 0.45091000 -0.27330900 -0.91933650
v 0.45078100 -0.27573000 -0.91596450
v 0.45430200 -0.27028100 -0.91722350
v 0.45413900 -0.27320200 -0.91594650
v 0.45356700 -0.27530300 -0.91355650
v 0.45080700 -0.27930700 -0.89685950
v 0.45430200 -0.27796000 -0.89685950
v 0.44693100 -0.27930700 -0.90463850
v 0.45093300 -0.27875600 -0.90484450
v 0.45413200 -0.27748500 -0.90458450
v 0.44693100 -0.27796000 -0.91165150
v 0.45079100 -0.27747800 -0.91132250
v 0.45356700 -0.27657700 -0.91017650
v 0.45886000 -0.27028100 -0.90463850
v 0.45707900 -0.27028100 -0.91165150
v 0.45886000 -0.27321400 -0.89685950
v 0.45813200 -0.27329200 -0.90488950
v 0.45645200 -0.27319400 -0.91131050
v 0.45707900 -0.27585900 -0.89685950
v 0.45644300 -0.27573500 -0.90460450
v 0.45525200 -0.27530300 -0.91017650
v 0.44693100 -0.27028100 0.92202850
v 0.45080700 -0.27028100 0.92079650
v 0.45430200 -0.27028100 0.91722350
v 0.44693100 -0.27321400 0.92079650
v 0.45093300 -0.27329200 0.91933750
v 0.45413200 -0.27319300 0.91596450
v 0.44693100 -0.27585800 0.91722350
v 0.45079100 -0.27573400 0.91594650
v 0.45356700 -0.27530200 0.91355650
v 0.45886000 -0.27028100 0.90463950
v 0.45813200 -0.27330900 0.90484550
v 0.45645200 -0.27572900 0.90458550
v 0.45707900 -0.27028100 0.91165150
v 0.45644300 -0.27320100 0.91132350
v 0.45525200 -0.27530200 0.91017750
v 0.44693100 -0.27930600 0.90463950
v 0.44693100 -0.27795900 0.91165150
v 0.45091000 -0.27875600 0.90489050
v 0.45078100 -0.27748400 0.91131050
v 0.45413900 -0.27747700 0.90460450
v 0.45356700 -0.27657600 0.91017750
v -0.44698300 -0.27028100 -0.92202850
v -0.45952600 -0.27028100 -0.89685950
v -0.42264500 -0.27977100 -0.85112850
v -0.45086000 -0.27028100 -0.92079650
v -0.45435400 -0.27028100 -0.91722350
v -0.44698300 -0.27321400 -0.92079650
v -0.45098500 -0.27329200 -0.91933650
v -0.45418400 -0.27319400 -0.91596450
v -0.44698300 -0.27585900 -0.91722350
v -0.45084300 -0.27573500 -0.91594650
v -0.45362000 -0.27530300 -0.91355650
v -0.45891200 -0.27321400 -0.89685950
v -0.45713100 -0.27585900 -0.89685950
v -0.45891200 -0.27028100 -0.90463850
v -0.45818400 -0.27330900 -0.90484450
v -0.45650400 -0.27573000 -0.90458450
v -0.45713100 -0.27028100 -0.91165150
v -0.45649500 -0.27320200 -0.91132250
v -0.45530400 -0.27530300 -0.91017650
v -0.44698300 -0.27930700 -0.90463850
v -0.44698300 -0.27796000 -0.91165150
v -0.45086000 -0.27930700 -0.89685950
v -0.45096200 -0.27875600 -0.90488950
v -0.45083300 -0.27748500 -0.91131050
v -0.45435400 -0.27796000 -0.89685950
v -0.45419100 -0.27747800 -0.90460450
v -0.45362000 -0.27657700 -0.91017650
v -0.44698300 -0.27028100 0.92202850
v -0.45952600 -0.27028100 0.89685950
v -0.44698300 -0.27321400 0.92079650
v -0.44698300 -0.27585800 0.91722350
v -0.45086000 -0.27028100 0.92079650
v -0.45096200 -0.27330800 0.91933750
v -0.45083300 -0.27572900 0.91596450
v -0.45435400 -0.27028100 0.91722350
v -0.45419100 -0.27320100 0.91594650
v -0.45362000 -0.27530200 0.91355650
v -0.44698300 -0.27930600 0.90463950
v -0.45098500 -0.27875600 0.90484550
v -0.45418400 -0.27748400 0.90458550
v -0.44698300 -0.27795900 0.91165150
v -0.45084300 -0.27747700 0.91132350
v -0.45362000 -0.27657600 0.91017750
v -0.45891200 -0.27028100 0.90463950
v -0.45713100 -0.27028100 0.91165150
v -0.45818400 -0.27329200 0.90489050
v -0.45650400 -0.27319300 0.91131050
v -0.45649500 -0.27573400 0.90460450
v -0.45530400 -0.27530200 0.91017750
v 0.44693100 -0.27977100 -0.89685950
v 0.44693100 -0.27977100 0.89685950
v 0.44693100 0.41553600 -0.89685950
v -0.45952600 0.40604500 -0.89685950
v -0.44698300 -0.27977100 -0.89685950
v 0.45947400 -0.27028100 -0.89685950
v -0.44698300 -0.27977100 0.89686050
v 0.42417200 -0.27977100 -0.91277750
v 0.42101500 0.34558300 0.84485750
v 0.42101500 0.34558300 -0.85106550
v -0.42106700 0.34558300 -0.85106550
v 0.44693100 0.41553600 0.89685950
v -0.42106700 0.34558300 0.84485750
v 0.42101500 -0.27977100 0.84485750
v -0.45952600 0.40604600 0.89685950
v 0.45947400 -0.27028100 0.89686050
v -0.42106700 -0.27977100 0.84485750
v -0.45891200 0.40897900 0.89685950
v -0.45713100 0.41162300 0.89685950
v -0.45435400 0.41372400 0.89685950
v -0.45085900 0.41507200 0.89685950
v -0.45086000 -0.27930600 0.89685950
v -0.45435400 -0.27795900 0.89685950
v -0.45713100 -0.27585800 0.89685950
v -0.45891200 -0.27321400 0.89685950
v 0.45886000 -0.27321400 0.89686050
v 0.45707900 -0.27585800 0.89686050
v 0.45430200 -0.27795900 0.89686050
v 0.45080700 -0.27930600 0.89685950
v -0.42225500 -0.19663300 0.48822050
v -0.42225500 -0.20171000 0.47265350
v 0.42198200 -0.19663300 0.48822050
v 0.42198200 -0.20171000 0.47265350
v -0.42225500 -0.18227400 0.48822050
v -0.42225500 -0.18227400 0.47265350
v 0.42198200 -0.18227400 0.48822050
v 0.42198200 -0.18227400 0.47265350
v -0.04837700 -0.19663300 0.48822050
v -0.04632800 -0.20171000 0.47265350
v -0.04018200 -0.18227400 0.48822050
v -0.04018200 0.34835400 0.47265350
v -0.05657100 0.34835400 0.47265350
v -0.05657100 0.34835400 0.48822050
v -0.04018200 0.34835400 0.48822050
v -0.05657100 -0.18227400 0.47265350
v -0.42225500 -0.20171000 0.48043750
v 0.42198200 -0.20171000 0.48043750
v -0.05657100 -0.18227400 0.48822050
v -0.04018200 -0.18227400 0.47265350
v -0.04837700 -0.20171000 0.48043750
v -0.42225500 -0.20577600 0.13503950
v -0.42225500 -0.21393800 0.11947250
v 0.42324000 -0.20577600 0.13503950
v 0.42324000 -0.21393800 0.11947250
v -0.42225500 -0.19141700 0.13503950
v -0.42225500 -0.19141700 0.11947250
v 0.42324000 -0.19141700 0.13503950
v 0.42324000 -0.19141700 0.11947250
v -0.04837700 -0.20577600 0.13503950
v -0.05265500 -0.21393800 0.11947250
v -0.05265500 -0.19141700 0.13503950
v -0.04018200 -0.21393800 0.11947250
v -0.04018200 -0.19141700 0.13503950
v -0.05265500 0.35259800 0.13503850
v -0.04018200 0.35259800 0.13503850
v -0.05265500 -0.19141700 0.10544250
v -0.05265500 -0.20577600 0.10993850
v -0.04018200 -0.20577600 0.10993850
v -0.05265500 0.35259800 0.10544250
v -0.04018200 -0.19141700 0.10544250
v -0.05265500 -0.20577600 0.10544250
v -0.04018200 -0.20577600 0.10544250
v -0.04018200 0.35259800 0.10544250
v -0.04837700 -0.19141700 0.10301650
v -0.05369100 -0.20577600 0.10301650
v -0.04005100 -0.20577600 0.10301650
v -0.04005100 0.35259800 0.10301650
v -0.05369100 0.35259800 0.10301650
v -0.05369100 -0.19141700 0.10544250
v -0.05369100 0.35259800 0.10544250
v -0.05369100 -0.19141700 0.10301650
v -0.04005100 0.35259800 0.10544250
v -0.04005100 -0.19141700 0.10544250
v -0.04005100 -0.19141700 0.10301650
v -0.04005100 -0.19141700 0.10544250
v -0.04005100 -0.20577600 0.10544250
v -0.04005100 -0.19141700 0.10301650
v -0.05369100 -0.20577600 0.10544250
v -0.05369100 -0.19141700 0.10544250
v -0.05369100 -0.19141700 0.10301650
v -0.42225500 -0.21228600 0.12725550
v 0.42324000 -0.21228600 0.12725550
v -0.05265500 -0.19141700 0.11947250
v -0.04018200 -0.19141700 0.11947250
v -0.04837700 -0.21228600 0.12725550
v 0.41737200 0.34886100 -0.22539650
v 0.41737200 0.34886100 -0.20141550
v -0.41742400 0.34886100 -0.22539650
v -0.41742400 0.34886100 -0.20141550
v 0.41737200 -0.22339900 -0.22539650
v 0.41737200 -0.22339900 -0.20141550
v -0.41742400 -0.22339900 -0.22539650
v -0.41742400 -0.22339900 -0.20141550
v 0.41737200 0.35170900 -0.54569750
v 0.41737200 0.35170900 -0.53665050
v -0.41742400 0.35170900 -0.54569750
v -0.41742400 0.35170900 -0.53665050
v 0.41737200 -0.22339900 -0.54569650
v 0.41737200 -0.22339900 -0.53665050
v -0.41742400 -0.22339900 -0.54569650
v -0.41742400 -0.22339900 -0.53665050
v -0.42242800 0.34803400 0.47569250
v -0.42242800 0.34803400 0.48473950
v -0.42242800 -0.19014000 0.47569250
v -0.42242800 -0.19014000 0.48473950
v -0.42186200 0.35248100 0.12323350
v -0.42186200 0.35248100 0.13227950
v -0.42186200 -0.19856500 0.12323350
v -0.42186200 -0.19856500 0.13228050
v -0.05665700 0.35248100 0.12323350
v -0.05665700 -0.19856500 0.12323350
v -0.05665700 -0.19856500 0.13228050
v -0.05665700 0.35248100 0.13227950
v -0.05665700 0.34803400 0.47569250
v -0.05665700 -0.19014000 0.47569250
v -0.05665700 -0.19014000 0.48473950
v -0.05665700 0.34803400 0.48473950
v 0.42259300 -0.28015100 -0.85112850
v 0.42101500 -0.27977100 0.84485750
v 0.44693100 -0.27977100 -0.89685950
v -0.05844400 -0.26244900 -0.84766450
v -0.05851700 0.36968900 -0.84766450
v -0.03590900 -0.26244900 -0.84766450
v -0.03598000 0.36968900 -0.84766450
v -0.03590900 -0.26244800 0.86862250
v -0.05844400 -0.26244800 0.86862250
v -0.03598000 0.36969000 0.86862250
v -0.05851700 0.36969000 0.86862250
v -0.05844400 0.13982300 0.86862250
v -0.03590900 0.13982000 0.86862250
vn -0.0000 -0.9380 -0.3467
vn -0.0000 -0.7596 -0.6503
vn -0.2685 0.9243 -0.2714
vn -0.3330 0.8308 -0.4460
vn -0.5666 0.7356 -0.3713
vn -0.0631 -0.9903 -0.1239
vn 0.0634 -0.9902 -0.1241
vn 0.0643 -0.9974 -0.0337
vn 0.9809 0.1089 -0.1612
vn 0.9939 0.1027 -0.0391
vn 0.9939 -0.1027 -0.0391
vn -0.8006 -0.1426 0.5819
vn -0.8010 0.1418 0.5817
vn -0.9301 0.1168 0.3481
vn 0.9301 -0.1164 -0.3484
vn 0.9301 0.1168 -0.3482
vn -0.0000 -0.8376 0.5463
vn -0.0000 -0.9585 0.2849
vn -0.0000 -0.0000 -1.0000
vn -0.8006 0.1426 -0.5819
vn -0.8010 -0.1418 -0.5817
vn -0.9301 -0.1168 -0.3482
vn 0.1479 0.1921 0.9702
vn 0.1479 -0.1921 0.9702
vn 0.5054 -0.1786 0.8442
vn 0.1284 -0.6024 0.7878
vn -0.1280 -0.6022 0.7880
vn -0.0900 -0.8707 0.4835
vn 0.1479 -0.1921 -0.9702
vn 0.1479 0.1921 -0.9702
vn 0.5054 0.1786 -0.8442
vn 0.0695 -0.9593 0.2736
vn -0.0698 -0.9594 0.2734
vn -0.0634 -0.9902 0.1241
vn -0.1479 -0.1921 0.9702
vn -1.0000 -0.0000 -0.0000
vn -0.0000 -1.0000 -0.0000
vn -0.0906 0.8705 0.4837
vn 0.0900 0.8707 0.4835
vn 0.0698 0.9594 0.2734
vn -0.9939 0.1027 0.0391
vn -0.9939 0.1027 -0.0391
vn -0.9939 -0.1027 -0.0391
vn 0.9014 -0.4024 0.1601
vn 0.8489 -0.4152 0.3270
vn 0.6878 -0.6792 0.2561
vn 0.2549 -0.9585 -0.1281
vn 0.0698 -0.9594 -0.2734
vn 0.2685 -0.9243 -0.2714
vn 0.4853 -0.8409 -0.2395
vn -0.0000 1.0000 -0.0000
vn 0.9014 0.4025 0.1594
vn 0.7130 0.6885 0.1326
vn 0.6878 0.6791 0.2563
vn 0.0631 -0.9903 0.1239
vn 0.2542 -0.9586 0.1287
vn 0.9939 -0.1027 0.0391
vn 0.2419 0.9698 -0.0314
vn 0.0595 0.9978 -0.0297
vn 0.0595 0.9978 0.0297
vn 0.2419 -0.9698 -0.0313
vn 0.2419 -0.9698 0.0314
vn 0.0595 -0.9978 0.0297
vn -0.0000 -0.0000 1.0000
vn -0.1284 0.6024 0.7878
vn 0.1280 0.6022 0.7880
vn 1.0000 -0.0000 -0.0000
vn -0.2681 -0.9244 -0.2713
vn -0.4851 -0.8409 -0.2398
vn -0.5666 -0.7356 -0.3713
vn 0.8006 0.1426 0.5819
vn 0.8010 -0.1418 0.5817
vn 0.9301 -0.1168 0.3481
vn -1.0000 -0.0006 -0.0002
vn -1.0000 -0.0020 -0.0007
vn -0.4856 -0.8736 0.0321
vn -0.7274 -0.6853 0.0352
vn -0.7266 -0.6862 -0.0335
vn -0.9206 -0.3886 0.0391
vn -0.9939 -0.1027 0.0391
vn 0.4856 0.8736 0.0321
vn 0.4856 0.8736 -0.0322
vn -0.9810 -0.1084 0.1608
vn -0.9809 0.1089 0.1612
vn 0.7266 0.6862 -0.0335
vn 0.7162 0.6844 -0.1363
vn -0.8489 0.4152 0.3270
vn -0.7227 0.4755 0.5016
vn -0.5666 0.7356 0.3713
vn 0.8493 0.4146 0.3269
vn 0.5666 0.7356 0.3713
vn -0.9211 0.3875 0.0376
vn -0.9206 0.3885 -0.0391
vn 0.7274 0.6853 0.0352
vn -0.0000 -0.0001 1.0000
vn -0.7227 -0.4754 -0.5016
vn -0.4542 -0.5673 -0.6869
vn -0.1284 -0.6024 -0.7878
vn -0.0906 -0.8705 -0.4837
vn -0.4542 0.5673 0.6869
vn -0.3332 0.8308 0.4458
vn 0.8467 0.4249 -0.3202
vn 0.7227 0.4754 -0.5016
vn 0.5662 0.7360 -0.3711
vn 0.9211 -0.3875 0.0376
vn 0.9809 -0.1089 0.1612
vn -0.9211 -0.3875 -0.0376
vn -0.9014 -0.4024 -0.1601
vn 0.4906 0.8627 0.1227
vn -0.9301 0.1164 -0.3484
vn -0.9810 0.1084 -0.1608
vn -0.9014 0.4025 -0.1594
vn 0.4846 0.8658 -0.1246
vn 0.5973 0.7601 -0.2558
vn -0.0696 -0.9593 -0.2736
vn -0.2542 -0.9586 -0.1287
vn -0.0696 0.9593 0.2736
vn -0.2681 0.9244 0.2713
vn -0.2419 0.9698 0.0314
vn -0.4856 0.8736 0.0322
vn -0.4907 0.8626 0.1230
vn 0.8993 0.4055 -0.1638
vn 0.2771 0.9234 -0.2656
vn 0.9810 -0.1084 -0.1609
vn 0.9014 -0.4025 -0.1594
vn -0.8493 0.4146 -0.3269
vn -0.7227 0.4758 -0.5013
vn -0.7274 0.6853 -0.0352
vn -0.7130 0.6885 -0.1326
vn 0.7130 -0.6885 -0.1326
vn 0.6878 -0.6791 -0.2563
vn 0.8493 -0.4146 -0.3269
vn 0.5666 -0.7356 -0.3713
vn -0.5054 -0.1786 -0.8442
vn -0.1479 -0.1921 -0.9702
vn -0.0698 0.9594 -0.2734
vn -0.0900 0.8707 -0.4835
vn -0.3330 -0.8308 0.4460
vn -0.4525 -0.5689 0.6867
vn -0.7227 -0.4758 0.5013
vn 0.3330 -0.8308 -0.4460
vn -0.7266 0.6862 0.0335
vn -0.9014 0.4024 0.1601
vn -0.2418 -0.9698 0.0313
vn -0.2549 -0.9585 0.1281
vn -0.4906 -0.8627 0.1227
vn -0.4856 -0.8736 -0.0322
vn -0.7120 -0.6893 -0.1338
vn -0.2549 0.9585 -0.1281
vn -0.0634 0.9902 -0.1241
vn -0.4853 0.8409 -0.2395
vn 0.9810 0.1084 0.1609
vn 0.9939 0.1027 0.0391
vn 0.9206 0.3885 0.0391
vn 0.4853 0.8409 0.2395
vn -0.5057 -0.1792 0.8439
vn 0.4525 0.5689 0.6867
vn 0.0696 0.9593 -0.2736
vn 0.3332 0.8308 -0.4459
vn 0.4525 -0.5689 -0.6867
vn 0.7227 -0.4758 -0.5013
vn 0.2685 0.9243 0.2714
vn 0.3330 0.8308 0.4460
vn 0.2418 0.9698 0.0313
vn 0.0634 0.9902 0.1241
vn 0.4906 -0.8627 -0.1227
vn 0.4856 -0.8736 0.0322
vn 0.7266 -0.6862 0.0335
vn 0.7120 -0.6893 0.1338
vn 0.4907 -0.8626 0.1230
vn 0.4851 -0.8410 0.2398
vn -0.9301 -0.1164 0.3484
vn -0.9014 -0.4025 0.1594
vn 0.1280 -0.6022 -0.7880
vn 0.5057 -0.1792 -0.8439
vn -0.7130 -0.6885 0.1326
vn -0.6878 -0.6791 0.2563
vn -0.8493 -0.4146 0.3269
vn -0.5666 -0.7356 0.3713
vn -0.6878 0.6791 -0.2563
vn 0.4542 -0.5673 0.6869
vn 0.8010 0.1418 -0.5817
vn 0.0900 -0.8707 -0.4835
vn 0.7227 -0.4754 0.5016
vn 0.3332 -0.8308 0.4459
vn -0.8489 -0.4152 -0.3270
vn -0.7120 0.6893 0.1338
vn -0.6878 0.6792 0.2561
vn 0.9211 0.3875 -0.0376
vn 0.2681 -0.9244 0.2713
vn -0.2419 -0.9698 -0.0314
vn -0.4907 -0.8626 -0.1230
vn -0.4851 0.8410 0.2398
vn -0.1280 0.6022 -0.7880
vn -0.1479 0.1921 -0.9702
vn -0.5057 0.1792 -0.8439
vn -0.4525 0.5689 -0.6867
vn 0.7227 0.4758 0.5013
vn -0.2685 -0.9243 0.2714
vn -0.2418 0.9698 -0.0313
vn -0.0595 0.9978 -0.0297
vn 0.2549 0.9585 0.1281
vn -0.4853 -0.8409 0.2395
vn 0.2578 0.9571 -0.1326
vn -0.0595 -0.9978 -0.0297
vn -0.5054 0.1786 0.8442
vn -0.1479 0.1921 0.9702
vn 0.4542 0.5673 -0.6869
vn -0.9809 -0.1089 -0.1612
vn 0.4856 -0.8736 -0.0321
vn -0.6878 -0.6792 -0.2561
vn -0.0631 0.9903 0.1239
vn -0.0595 0.9978 0.0297
vn 0.0631 0.9903 -0.1239
vn -0.3332 -0.8308 -0.4459
vn -0.0595 -0.9978 0.0297
vn 0.5666 -0.7356 0.3713
vn 0.1284 0.6024 -0.7878
vn 0.0906 -0.8705 0.4837
vn -0.2542 0.9586 0.1287
vn 0.5057 0.1792 0.8439
vn -0.4906 0.8627 -0.1227
vn -0.4856 0.8736 -0.0321
vn 0.9206 -0.3885 -0.0391
vn 0.9301 0.1164 0.3484
vn 0.7274 -0.6853 -0.0352
vn 0.0906 0.8705 -0.4837
vn -0.0000 -0.7671 0.6416
vn -0.0000 -0.8992 0.4375
vn -0.0001 -0.0000 1.0000
vn -0.0000 -1.0000 -0.0001
vn 1.0000 -0.0006 -0.0002
vn 1.0000 -0.0025 -0.0009
vn 1.0000 -0.0020 -0.0007
vn 0.8006 -0.1426 -0.5819
vn 0.2503 -0.9682 0.0004
vn 0.0001 -1.0000 -0.0000
vn -0.0000 1.0000 -0.0004
vn -0.0000 -0.9782 0.2077
vn 0.0002 -0.0000 1.0000
vn 0.0003 -1.0000 -0.0000
vn 0.0160 -0.9999 0.0002
vn -1.0000 -0.0025 -0.0009
vn -0.0004 -1.0000 -0.0085
vn -1.0000 -0.0001 -0.0000
vn -1.0000 -0.0002 -0.0000
vn 1.0000 0.0002 -0.0000
vn 1.0000 0.0001 -0.0000
vn -1.0000 -0.0003 -0.0000
vn 1.0000 0.0003 -0.0000
vt 0.917016 0.918596
vt 0.917016 0.919359
vt 0.918344 0.919359
vt 0.938531 0.782273
vt 0.938527 0.784232
vt 0.939703 0.783216
vt 0.915982 0.777018
vt 0.574424 0.777021
vt 0.574343 0.773754
vt 0.883208 0.777707
vt 0.883208 0.774423
vt 0.597679 0.774423
vt 0.887070 0.011539
vt 0.601542 0.011539
vt 0.601541 0.013891
vt 0.597679 0.780667
vt 0.883208 0.780667
vt 0.917680 0.943191
vt 0.951711 0.943191
vt 0.951711 0.942568
vt 0.850748 0.894706
vt 0.850748 0.949867
vt 0.891712 0.949867
vt 0.601542 0.785999
vt 0.887071 0.785999
vt 0.887070 0.783646
vt 0.888583 0.751729
vt 0.603054 0.751729
vt 0.603054 0.753366
vt 0.575487 0.010351
vt 0.917045 0.010347
vt 0.916584 0.011847
vt 0.603054 0.106743
vt 0.888583 0.106743
vt 0.888583 0.105106
vt 0.574659 0.014192
vt 0.916217 0.014188
vt 0.915983 0.017133
vt 0.603054 0.374340
vt 0.601815 0.374340
vt 0.896934 0.918042
vt 0.896934 0.918236
vt 0.940532 0.918236
vt 0.951711 0.941946
vt 0.917514 0.941946
vt 0.917680 0.942568
vt 0.936901 0.010304
vt 0.559512 0.010304
vt 0.559513 0.012657
vt 0.601541 0.020136
vt 0.601542 0.777401
vt 0.887070 0.777401
vt 0.596401 0.013786
vt 0.596446 0.011051
vt 0.595559 0.011535
vt 0.572991 0.777108
vt 0.574659 0.779967
vt 0.573268 0.779829
vt 0.572365 0.779348
vt 0.918344 0.943191
vt 0.918344 0.941946
vt 0.884479 0.013767
vt 0.885510 0.013888
vt 0.885328 0.011535
vt 0.574425 0.017137
vt 0.573000 0.017031
vt 0.597679 0.017157
vt 0.557877 0.776167
vt 0.559514 0.776167
vt 0.559514 0.018901
vt 0.909633 0.868604
vt 0.909633 0.873061
vt 0.911846 0.873061
vt 0.572943 0.773754
vt 0.572943 0.020404
vt 0.574344 0.020404
vt 0.918344 0.922812
vt 0.918344 0.879214
vt 0.917016 0.879214
vt 0.917680 0.875258
vt 0.918667 0.918857
vt 0.916693 0.918857
vt 0.936900 0.008796
vt 0.559512 0.008796
vt 0.905999 0.042241
vt 0.584246 0.042245
vt 0.944488 0.941946
vt 0.944488 0.943191
vt 0.900890 0.943191
vt 0.917771 0.779820
vt 0.918994 0.779344
vt 0.919217 0.780763
vt 0.883208 0.008560
vt 0.597679 0.008560
vt 0.597679 0.010913
vt 0.911509 0.868554
vt 0.909865 0.868554
vt 0.909865 0.873011
vt 0.919034 0.020400
vt 0.920462 0.020400
vt 0.920461 0.773750
vt 0.888309 0.020136
vt 0.887070 0.020136
vt 0.917016 0.943191
vt 0.883619 0.943191
vt 0.883619 0.941946
vt 0.556401 0.018901
vt 0.556401 0.776166
vt 0.887070 0.016852
vt 0.601541 0.016852
vt 0.555228 0.776167
vt 0.555493 0.779428
vt 0.916693 0.875258
vt 0.916693 0.874013
vt 0.600309 0.014030
vt 0.600312 0.012071
vt 0.599422 0.013087
vt 0.884438 0.011057
vt 0.885328 0.010109
vt 0.600303 0.020136
vt 0.600303 0.777401
vt 0.555228 0.018901
vt 0.929896 0.948114
vt 0.929950 0.827465
vt 0.840633 0.827690
vt 0.601815 0.751729
vt 0.888300 0.785467
vt 0.918560 0.783191
vt 0.917045 0.783804
vt 0.916584 0.782303
vt 0.939941 0.010836
vt 0.938590 0.009412
vt 0.938531 0.010843
vt 0.884441 0.780529
vt 0.884438 0.782488
vt 0.885328 0.781472
vt 0.596441 0.017157
vt 0.597679 0.013873
vt 0.889425 0.777401
vt 0.888309 0.777401
vt 0.888349 0.780773
vt 0.556473 0.015640
vt 0.555497 0.015632
vt 0.601542 0.783646
vt 0.601542 0.780686
vt 0.600270 0.780792
vt 0.556470 0.779436
vt 0.556301 0.781856
vt 0.916217 0.779963
vt 0.917599 0.777123
vt 0.936902 0.012657
vt 0.938527 0.012801
vt 0.938539 0.018901
vt 0.940014 0.018901
vt 0.939945 0.015632
vt 0.884486 0.777794
vt 0.885612 0.780112
vt 0.557888 0.782267
vt 0.556710 0.783216
vt 0.597679 0.777707
vt 0.596408 0.777813
vt 0.600312 0.783502
vt 0.600309 0.785460
vt 0.599187 0.777402
vt 0.599239 0.780671
vt 0.595377 0.777693
vt 0.595559 0.780045
vt 0.596449 0.780524
vt 0.595559 0.781472
vt 0.603054 0.485768
vt 0.603054 0.484132
vt 0.601815 0.484132
vt 0.895689 0.918596
vt 0.896934 0.919359
vt 0.936902 0.782411
vt 0.936901 0.784764
vt 0.887071 0.787507
vt 0.888342 0.786891
vt 0.918077 0.012376
vt 0.918549 0.010960
vt 0.919801 0.012384
vt 0.573577 0.781778
vt 0.572587 0.780767
vt 0.599187 0.020136
vt 0.600263 0.016765
vt 0.917464 0.020400
vt 0.917608 0.017046
vt 0.919052 0.017156
vt 0.919034 0.773750
vt 0.920244 0.776995
vt 0.938592 0.779538
vt 0.936902 0.779451
vt 0.939703 0.781789
vt 0.883208 0.013873
vt 0.883208 0.017157
vt 0.884446 0.017157
vt 0.556000 0.013279
vt 0.556711 0.013279
vt 0.556710 0.011853
vt 0.603054 0.372704
vt 0.557832 0.009412
vt 0.559513 0.782411
vt 0.557883 0.784225
vt 0.888349 0.010647
vt 0.887070 0.010031
vt 0.891175 0.028857
vt 0.891175 0.030697
vt 0.890259 0.029505
vt 0.557884 0.012795
vt 0.557887 0.010836
vt 0.557877 0.018901
vt 0.559514 0.015617
vt 0.571990 0.776999
vt 0.611857 0.032902
vt 0.610925 0.032901
vt 0.610868 0.029478
vt 0.571989 0.017151
vt 0.572365 0.014811
vt 0.611647 0.831218
vt 0.611245 0.833696
vt 0.610680 0.833696
vt 0.887070 0.013891
vt 0.888342 0.016746
vt 0.601815 0.106743
vt 0.603054 0.105106
vt 0.889425 0.020136
vt 0.889373 0.016866
vt 0.889190 0.014514
vt 0.888300 0.014035
vt 0.889190 0.013087
vt 0.940414 0.781789
vt 0.900890 0.941946
vt 0.899204 0.941946
vt 0.899204 0.942568
vt 0.597679 0.007052
vt 0.596408 0.007668
vt 0.883208 0.783020
vt 0.575026 0.782307
vt 0.575487 0.783808
vt 0.573950 0.783195
vt 0.890259 0.026689
vt 0.891169 0.025503
vt 0.891169 0.027355
vt 0.888304 0.783508
vt 0.889190 0.784450
vt 0.940921 0.015640
vt 0.940414 0.013279
vt 0.595325 0.017157
vt 0.920240 0.017147
vt 0.611644 0.029470
vt 0.610679 0.027000
vt 0.884446 0.774423
vt 0.573271 0.014335
vt 0.573573 0.012388
vt 0.917464 0.773750
vt 0.919055 0.777003
vt 0.939703 0.011853
vt 0.939703 0.013279
vt 0.889821 0.484132
vt 0.888583 0.484132
vt 0.888583 0.485768
vt 0.600264 0.786891
vt 0.601542 0.787507
vt 0.556469 0.010844
vt 0.917776 0.014326
vt 0.919217 0.013388
vt 0.938539 0.776166
vt 0.936903 0.776166
vt 0.557824 0.015530
vt 0.918994 0.014807
vt 0.557833 0.779557
vt 0.888303 0.012078
vt 0.915901 0.773751
vt 0.599422 0.783024
vt 0.599422 0.784450
vt 0.610681 0.835194
vt 0.888583 0.372704
vt 0.888583 0.374340
vt 0.889821 0.374340
vt 0.883208 0.784528
vt 0.884479 0.783912
vt 0.596446 0.782481
vt 0.887070 0.780686
vt 0.885563 0.774423
vt 0.611858 0.827794
vt 0.610870 0.831226
vt 0.889190 0.783024
vt 0.919860 0.779344
vt 0.936902 0.015617
vt 0.936903 0.018901
vt 0.559514 0.779451
vt 0.918080 0.781767
vt 0.915902 0.020400
vt 0.610680 0.025503
vt 0.611245 0.027000
vt 0.889821 0.106743
vt 0.601542 0.010031
vt 0.600270 0.010647
vt 0.596449 0.009092
vt 0.573944 0.010964
vt 0.575026 0.011851
vt 0.556471 0.784232
vt 0.557822 0.785656
vt 0.595559 0.010109
vt 0.885563 0.017157
vt 0.941186 0.018901
vt 0.599422 0.014514
vt 0.919860 0.014807
vt 0.938582 0.015511
vt 0.571843 0.020404
vt 0.572587 0.013392
vt 0.889821 0.751729
vt 0.888583 0.753366
vt 0.936900 0.786272
vt 0.938581 0.785656
vt 0.884486 0.007668
vt 0.883208 0.007052
vt 0.919800 0.781774
vt 0.939943 0.784225
vt 0.939942 0.779428
vt 0.940014 0.776167
vt 0.940917 0.779437
vt 0.596441 0.774423
vt 0.883208 0.010913
vt 0.884441 0.009099
vt 0.595324 0.774423
vt 0.559512 0.786272
vt 0.559512 0.784764
vt 0.918344 0.918857
vt 0.918344 0.875258
vt 0.917016 0.875258
vt 0.917680 0.920605
vt 0.917680 0.919982
vt 0.883619 0.919982
vt 0.597679 0.784528
vt 0.941186 0.776167
vt 0.906602 0.754544
vt 0.894085 0.833098
vt 0.894085 0.949714
vt 0.851085 0.949710
vt 0.571843 0.773754
vt 0.597679 0.783020
vt 0.613130 0.025503
vt 0.612424 0.777084
vt 0.611858 0.804404
vt 0.917016 0.874013
vt 0.917680 0.877968
vt 0.917514 0.877528
vt 0.917016 0.941946
vt 0.940532 0.920605
vt 0.896934 0.920605
vt 0.918667 0.918042
vt 0.918344 0.918236
vt 0.917016 0.918236
vt 0.916693 0.918042
vt 0.918667 0.875258
vt 0.917680 0.918042
vt 0.918667 0.918236
vt 0.916693 0.918236
vt 0.895689 0.918042
vt 0.895689 0.918236
vt 0.895689 0.920605
vt 0.895124 0.919982
vt 0.883619 0.879214
vt 0.883619 0.877528
vt 0.951711 0.919359
vt 0.951711 0.920605
vt 0.918344 0.920605
vt 0.883619 0.877968
vt 0.951711 0.875258
vt 0.951711 0.874013
vt 0.918344 0.873305
vt 0.899644 0.943191
vt 0.883619 0.919359
vt 0.596401 0.783912
vt 0.883619 0.873305
vt 0.917016 0.873305
vt 0.951711 0.919982
vt 0.917680 0.874013
vt 0.951711 0.879214
vt 0.951711 0.877968
vt 0.894981 0.919359
vt 0.917016 0.920605
vt 0.918667 0.874013
vt 0.951711 0.877528
vt 0.883619 0.942568
vt 0.883619 0.874013
vt 0.918344 0.874013
vt 0.917016 0.922812
vt 0.940532 0.918042
vt 0.883619 0.920605
vt 0.926776 0.754117
vt 0.937051 0.773423
vt 0.926110 0.038112
vt 0.827027 0.842767
vt 0.827027 0.852342
vt 0.827129 0.852342
vt 0.815536 0.833192
vt 0.815536 0.839551
vt 0.815638 0.839551
vt 0.815433 0.833192
vt 0.815433 0.839551
vt 0.807541 0.852342
vt 0.807541 0.861916
vt 0.813899 0.861916
vt 0.827129 0.842767
vt 0.827232 0.852342
vt 0.801182 0.852342
vt 0.801182 0.861916
vt 0.918344 0.918596
vt 0.891712 0.894706
vt 0.595379 0.013896
vt 0.911846 0.868604
vt 0.911510 0.873011
vt 0.840633 0.947889
vt 0.601783 0.753419
vt 0.889371 0.780663
vt 0.885508 0.777684
vt 0.601783 0.485821
vt 0.599241 0.016875
vt 0.601775 0.372660
vt 0.890398 0.028101
vt 0.601775 0.105063
vt 0.890393 0.028101
vt 0.889861 0.485812
vt 0.889854 0.372651
vt 0.610925 0.827794
vt 0.889854 0.105053
vt 0.889861 0.753409
vt 0.917016 0.918857
vt 0.583576 0.754547
vt 0.851085 0.833098
vt 0.951711 0.873305
vt 0.883619 0.875258
vt 0.815638 0.833192
vt 0.813899 0.852342
vt 0.827232 0.842767
vt 0.686954 0.973638
vt 0.686883 0.973638
vt 0.686883 0.976992
vt 0.682213 0.973638
vt 0.677759 0.973638
vt 0.677759 0.976992
vt 0.681732 0.970117
vt 0.681701 0.970117
vt 0.681701 0.972005
vt 0.686667 0.973638
vt 0.682213 0.973638
vt 0.682213 0.976992
vt 0.678833 0.963578
vt 0.678762 0.963578
vt 0.678762 0.968032
vt 0.685203 0.974380
vt 0.685173 0.974380
vt 0.685173 0.975801
vt 0.685173 0.972959
vt 0.685142 0.972959
vt 0.685142 0.974380
vt 0.679480 0.975801
vt 0.681368 0.975801
vt 0.681368 0.974380
vt 0.686883 0.970285
vt 0.686811 0.970285
vt 0.686811 0.973638
vt 0.677593 0.975801
vt 0.679480 0.974380
vt 0.686954 0.976992
vt 0.682213 0.976992
vt 0.681732 0.972005
vt 0.686667 0.976992
vt 0.678833 0.968032
vt 0.685203 0.975801
vt 0.677593 0.974380
vt 0.515770 0.731597
vt 0.670478 0.071540
vt 0.743630 0.731598
vt 0.816783 0.071540
vt 0.971490 0.731597
vt 0.743630 0.731598
vt 0.743630 0.071540
vt 0.971490 0.071540
vt 0.980156 0.731597
vt 0.980156 0.071540
vt 0.515770 0.071540
vt 0.971489 0.071540
s 1
f 263/1/1 257/2/2 255/3/2
f 68/4/3 58/5/4 61/6/5
f 166/7/6 112/8/7 196/9/8
f 13/10/9 2/11/10 201/12/11
f 181/13/12 81/14/13 91/15/14
f 119/16/15 16/17/16 13/10/9
f 233/18/17 225/19/17 241/20/18
f 208/21/19 204/22/19 209/23/19
f 59/24/20 151/25/21 163/26/22
f 27/27/23 126/28/24 127/29/25
f 129/30/26 176/31/27 177/32/28
f 100/33/29 1/34/30 3/35/31
f 142/36/32 187/37/33 184/38/34
f 126/28/24 174/39/35 176/40/27
f 276/41/36 274/42/36 275/43/36
f 226/44/37 234/45/37 245/46/18
f 85/47/38 37/48/39 49/49/40
f 210/50/41 199/51/42 148/52/43
f 136/53/44 139/54/45 140/55/46
f 113/56/47 112/8/7 115/57/48
f 113/56/47 116/58/49 117/59/50
f 229/19/51 243/60/51 240/61/51
f 31/62/52 34/63/53 35/64/54
f 142/36/32 141/65/55 143/66/56
f 211/67/57 201/12/11 2/11/10
f 20/68/58 198/69/59 207/70/60
f 208/71/37 206/72/37 205/73/37
f 110/74/61 224/75/62 197/76/63
f 238/77/64 243/78/64 235/79/64
f 269/80/19 273/81/19 272/82/19
f 82/83/65 36/84/66 37/48/39
f 212/85/37 209/86/37 197/76/63
f 236/87/67 239/88/67 235/89/67
f 170/90/68 173/91/69 157/92/70
f 41/93/71 128/94/72 138/95/73
f 209/96/74 204/97/36 205/98/75
f 218/99/76 219/100/77 159/101/78
f 220/102/79 175/103/80 148/52/43
f 235/104/51 231/105/51 232/106/51
f 45/107/81 23/108/82 20/68/58
f 190/109/83 88/110/84 210/50/41
f 23/108/82 12/111/85 15/112/86
f 269/80/19 282/113/19 271/114/19
f 92/115/87 84/116/88 87/117/89
f 32/118/90 35/64/54 43/119/91
f 210/50/41 213/120/92 72/121/93
f 33/122/94 12/111/85 23/108/82
f 149/123/95 101/124/95 205/125/95
f 127/29/25 126/28/24 129/126/26
f 163/26/22 151/25/21 154/127/96
f 153/128/97 152/129/98 155/130/99
f 84/131/88 83/132/100 86/133/101
f 17/134/102 7/135/103 10/136/104
f 221/137/105 211/67/57 135/138/106
f 159/139/78 158/140/107 161/141/108
f 45/107/81 48/142/109 34/143/53
f 71/144/110 70/145/111 73/146/112
f 24/147/113 15/112/86 25/148/114
f 141/65/55 197/76/63 224/75/62
f 167/149/115 166/7/6 169/150/116
f 95/151/117 97/152/118 86/133/101
f 216/153/119 215/154/120 98/155/121
f 14/156/122 17/134/102 25/157/114
f 22/158/123 25/148/114 10/159/104
f 190/109/83 175/103/80 220/102/79
f 119/16/15 118/160/124 121/161/125
f 71/144/110 74/162/126 60/163/127
f 72/121/93 75/164/128 76/165/129
f 121/161/125 124/166/130 125/167/131
f 122/168/132 125/167/131 109/169/133
f 150/170/134 147/171/135 152/172/98
f 262/173/36 288/174/36 261/42/36
f 67/175/136 55/176/137 58/5/4
f 151/25/21 150/177/134 153/178/97
f 180/179/138 179/180/139 182/181/140
f 116/58/49 106/182/141 109/183/133
f 214/184/142 213/120/92 89/185/143
f 217/186/144 185/187/145 186/188/146
f 171/189/147 159/101/78 162/190/148
f 65/191/149 64/192/150 67/175/136
f 65/191/149 68/4/3 69/193/151
f 28/194/152 26/195/153 30/196/154
f 35/197/54 51/198/155 43/199/91
f 176/40/27 174/39/35 178/200/156
f 37/48/39 36/84/66 39/201/157
f 19/202/158 22/158/123 9/203/159
f 179/204/139 178/205/156 181/13/12
f 106/206/141 105/207/160 108/208/161
f 50/209/162 40/210/163 43/199/91
f 44/211/164 207/70/60 46/212/165
f 110/74/61 113/56/47 114/213/166
f 223/214/167 222/215/168 137/216/169
f 143/66/56 145/217/170 146/218/171
f 114/219/166 117/220/50 125/221/131
f 191/222/172 190/109/83 192/223/173
f 102/224/174 100/33/29 104/225/175
f 220/102/79 219/226/77 194/227/176
f 192/223/173 194/227/176 195/228/177
f 193/229/178 195/228/177 183/230/179
f 61/6/5 77/231/180 69/193/151
f 230/232/36 226/233/36 241/234/36
f 128/94/72 127/235/25 130/236/181
f 16/17/16 4/237/182 7/135/103
f 103/238/183 102/239/174 105/240/160
f 131/241/184 130/242/181 133/243/185
f 164/244/186 154/127/96 157/245/70
f 98/155/121 90/246/187 93/247/188
f 222/248/168 221/137/105 136/53/44
f 218/99/76 186/188/146 194/249/176
f 14/156/122 13/10/9 16/17/16
f 145/250/170 137/216/169 140/251/46
f 11/252/189 2/11/10 13/10/9
f 136/53/44 135/138/106 138/95/73
f 142/36/32 144/253/190 133/254/185
f 168/255/191 171/189/147 172/256/192
f 87/257/89 99/258/193 93/247/188
f 54/259/194 52/260/195 56/261/196
f 177/32/28 176/31/27 179/180/139
f 187/37/33 177/32/28 180/179/138
f 57/262/197 56/263/196 59/24/20
f 40/210/163 39/201/157 42/264/198
f 188/265/199 180/179/138 183/266/179
f 62/267/200 53/268/201 64/192/150
f 20/68/58 23/108/82 24/147/113
f 44/211/164 47/269/202 48/142/109
f 185/187/145 184/38/34 187/37/33
f 185/187/145 188/265/199 189/270/203
f 48/142/109 51/198/155 35/197/54
f 70/145/111 199/51/42 72/121/93
f 21/271/204 24/147/113 25/148/114
f 191/222/172 193/229/178 182/272/140
f 166/7/6 200/273/205 168/255/191
f 73/146/112 76/165/129 77/274/180
f 74/162/126 77/274/180 61/275/5
f 109/276/133 125/221/131 117/220/50
f 80/277/206 78/278/207 82/279/65
f 4/237/182 3/280/31 6/281/208
f 119/16/15 122/168/132 108/282/161
f 83/132/100 82/83/65 85/47/38
f 158/140/107 148/52/43 160/283/209
f 12/284/85 11/252/189 14/156/122
f 111/285/210 114/219/166 124/286/130
f 161/141/108 160/283/209 163/26/22
f 161/141/108 164/244/186 165/287/211
f 172/256/192 162/190/148 165/288/211
f 94/289/212 79/290/213 216/153/119
f 19/202/158 18/291/214 21/271/204
f 167/149/115 170/90/68 156/292/215
f 217/186/144 202/293/216 184/38/34
f 169/150/116 172/256/192 173/91/69
f 97/152/118 99/258/193 87/257/89
f 134/294/217 146/295/171 140/251/46
f 3/35/31 1/34/30 5/296/218
f 81/14/13 80/297/206 83/298/100
f 138/95/73 128/94/72 131/299/184
f 130/300/181 129/30/26 132/301/219
f 7/302/103 6/303/208 9/203/159
f 139/54/45 131/299/184 134/304/217
f 213/120/92 210/50/41 88/110/84
f 30/196/154 33/305/94 34/63/53
f 215/154/120 214/306/142 90/246/187
f 89/185/143 88/110/84 91/15/14
f 89/185/143 92/115/87 93/307/188
f 186/188/146 189/270/203 195/308/177
f 18/291/214 198/69/59 20/68/58
f 95/151/117 94/289/212 96/309/220
f 91/15/14 81/14/13 84/116/88
f 224/75/62 223/310/167 145/217/170
f 96/309/220 98/155/121 99/258/193
f 144/253/190 146/218/171 134/311/217
f 157/92/70 173/91/69 165/288/211
f 36/312/66 27/27/23 38/313/221
f 55/176/137 54/314/194 57/315/197
f 49/49/40 37/48/39 40/210/163
f 39/316/157 38/317/221 41/93/71
f 154/318/96 153/128/97 156/292/215
f 58/5/4 57/315/197 60/319/127
f 110/74/61 196/9/8 112/8/7
f 62/267/200 65/191/149 66/320/222
f 63/321/223 66/320/222 76/322/129
f 47/269/202 46/212/165 49/49/40
f 47/269/202 50/209/162 51/198/155
f 66/320/222 69/193/151 77/231/180
f 118/160/124 201/12/11 120/323/224
f 29/324/225 28/194/152 31/62/52
f 29/324/225 32/118/90 42/325/198
f 120/323/224 123/326/226 124/166/130
f 183/266/179 195/308/177 189/270/203
f 78/278/207 174/39/35 126/28/24
f 17/134/102 10/136/104 25/157/114
f 22/158/123 10/159/104 9/203/159
f 1/34/30 52/260/195 54/259/194
f 5/327/218 54/314/194 55/176/137
f 8/328/227 55/176/137 67/175/136
f 94/289/212 46/212/165 207/70/60
f 19/202/158 67/175/136 64/192/150
f 227/105/17 233/18/17 245/46/18
f 78/278/207 27/27/23 36/312/66
f 259/329/64 256/330/64 258/331/64
f 163/26/22 160/283/209 70/145/111
f 95/151/117 49/49/40 46/212/165
f 91/15/14 88/110/84 190/109/83
f 64/192/150 53/268/201 198/69/59
f 174/39/35 78/278/207 80/277/206
f 147/171/135 100/33/29 102/224/174
f 152/129/98 102/239/174 103/238/183
f 155/130/99 103/238/183 115/57/48
f 254/332/228 290/333/229 287/334/229
f 167/149/115 115/57/48 112/8/7
f 132/301/219 177/32/28 187/37/33
f 261/330/64 264/329/230 275/81/230
f 104/335/175 3/280/31 4/237/182
f 207/70/60 198/69/59 53/268/201
f 184/38/34 202/293/216 197/76/63
f 26/195/153 2/11/10 11/252/189
f 222/215/168 223/214/167 111/285/210
f 200/273/205 202/293/216 217/186/144
f 159/139/78 219/226/77 220/102/79
f 120/323/224 221/137/105 222/248/168
f 75/336/128 214/306/142 215/154/120
f 168/255/191 217/186/144 218/99/76
f 63/321/223 215/154/120 216/153/119
f 30/196/154 11/252/189 12/284/85
f 62/267/200 216/153/119 79/290/213
f 221/137/105 120/323/224 201/12/11
f 149/337/231 200/273/205 196/9/8
f 212/338/232 149/339/233 206/340/234
f 100/33/29 147/171/135 52/260/195
f 196/9/8 197/76/63 209/86/37
f 111/341/210 223/310/167 224/75/62
f 72/121/93 213/120/92 214/184/142
f 160/283/209 148/52/43 199/51/42
f 107/342/235 4/237/182 16/17/16
f 200/273/205 212/85/37 202/293/216
f 209/343/236 101/344/236 203/345/236
f 280/113/64 265/331/64 267/346/64
f 178/205/156 80/297/206 81/14/13
f 232/232/67 242/234/67 228/233/67
f 233/347/64 235/79/64 243/78/64
f 240/78/19 244/79/19 234/348/19
f 238/60/51 239/104/51 236/349/51
f 260/350/67 258/351/67 289/174/67
f 273/352/51 264/353/51 268/354/51
f 265/42/67 289/174/67 263/173/67
f 271/355/37 267/354/237 266/353/37
f 273/81/19 269/80/19 276/356/19
f 269/357/37 261/353/37 274/358/37
f 265/354/37 269/357/37 279/355/37
f 272/355/51 268/354/51 277/359/51
f 266/353/37 267/354/237 263/1/1
f 56/263/196 150/177/134 151/25/21
f 269/357/51 265/354/238 280/359/51
f 271/360/67 282/41/67 280/42/67
f 52/260/195 147/171/135 150/170/134
f 261/353/51 269/357/51 285/352/51
f 270/352/37 266/353/37 283/358/37
f 285/41/36 270/360/36 283/361/36
f 248/362/67 287/363/67 252/351/67
f 244/79/19 232/364/19 228/365/19
f 251/366/51 250/367/51 256/368/51
f 227/369/64 231/364/64 235/79/64
f 256/330/64 250/370/64 246/371/64
f 6/303/208 5/327/218 8/328/227
f 251/370/19 288/330/19 255/372/19
f 225/373/36 229/89/36 241/234/36
f 257/2/239 249/374/239 287/334/229
f 105/375/160 104/335/175 107/342/235
f 253/174/67 252/351/67 287/363/67
f 249/376/19 257/377/19 289/331/19
f 286/378/229 247/366/239 255/3/239
f 254/379/64 258/331/64 256/330/64
f 243/78/64 229/380/64 225/381/64
f 290/333/229 255/3/239 257/2/239
f 289/174/67 265/42/67 268/43/67
f 251/174/36 247/382/36 286/363/36
f 264/353/51 259/368/51 260/383/51
f 38/317/221 127/235/25 128/94/72
f 273/352/51 268/354/51 272/355/51
f 288/174/36 256/351/36 259/350/36
f 271/355/37 266/353/37 270/352/37
f 265/331/64 278/113/64 277/82/240
f 264/353/51 273/352/51 275/358/51
f 269/357/37 274/358/37 276/352/37
f 28/194/152 135/138/106 211/67/57
f 265/354/37 279/355/37 278/359/37
f 267/354/237 271/355/37 281/359/241
f 269/357/51 280/359/51 282/355/51
f 261/353/51 285/352/51 284/358/51
f 270/384/19 285/356/19 269/80/19
f 254/332/228 246/367/228 286/378/229
f 246/362/36 250/351/36 286/363/36
f 226/385/19 230/380/19 240/78/19
f 234/45/37 228/106/37 242/386/18
f 258/331/64 254/379/64 248/387/64
f 115/57/48 103/238/183 106/182/141
f 266/388/64 261/330/64 284/356/64
f 237/87/36 240/232/36 243/89/36
f 29/324/225 138/95/73 135/138/106
f 236/389/19 244/79/19 240/78/19
f 272/390/67 277/43/67 278/42/67
f 232/232/67 231/89/67 227/373/67
f 289/2/51 258/383/51 252/391/51
f 257/2/239 287/334/229 290/333/229
f 286/378/229 255/3/239 290/333/229
f 263/173/67 289/174/67 257/382/67
f 288/174/36 264/43/36 261/42/36
f 288/174/36 262/173/36 255/382/36
f 323/392/242 325/393/242 324/394/242
f 294/395/51 292/396/51 291/397/51
f 292/398/67 296/399/67 295/400/67
f 298/401/36 294/402/36 293/399/36
f 292/403/64 294/404/64 298/405/64
f 296/406/37 298/397/37 297/407/37
f 295/408/19 297/409/19 293/404/19
f 302/395/51 300/396/51 299/397/51
f 300/398/67 304/399/67 303/400/67
f 306/401/36 302/402/36 301/399/36
f 300/403/64 302/404/64 306/405/64
f 304/406/37 306/397/37 305/407/37
f 303/408/19 305/409/19 301/404/19
f 263/1/1 255/3/2 262/410/1
f 68/4/3 61/6/5 69/193/151
f 166/7/6 196/9/8 200/273/205
f 13/10/9 201/12/11 118/160/124
f 181/13/12 91/15/14 191/222/172
f 119/16/15 13/10/9 118/160/124
f 233/18/17 241/20/18 245/46/18
f 208/21/19 209/23/19 212/411/19
f 59/24/20 163/26/22 71/144/110
f 27/27/23 127/29/25 38/313/221
f 129/30/26 177/32/28 132/301/219
f 100/33/29 3/35/31 104/225/175
f 142/36/32 184/38/34 141/65/55
f 126/28/24 176/40/27 129/126/26
f 276/41/36 275/43/36 273/390/36
f 226/44/37 245/46/18 241/20/18
f 85/47/38 49/49/40 95/151/117
f 210/50/41 148/52/43 175/103/80
f 136/53/44 140/55/46 137/412/169
f 113/56/47 115/57/48 116/58/49
f 113/56/47 117/59/50 114/213/166
f 229/19/51 240/61/51 230/44/51
f 31/62/52 35/64/54 32/118/90
f 142/36/32 143/66/56 144/253/190
f 211/67/57 2/11/10 26/195/153
f 20/68/58 207/70/60 44/211/164
f 208/71/37 205/73/37 204/413/37
f 110/74/61 197/76/63 196/9/8
f 238/77/64 235/79/64 239/389/64
f 269/80/19 272/82/19 279/113/19
f 82/83/65 37/48/39 85/47/38
f 212/85/37 197/76/63 202/293/216
f 236/87/67 235/89/67 244/232/67
f 170/90/68 157/92/70 156/292/215
f 41/93/71 138/95/73 29/324/225
f 209/96/74 205/98/75 101/414/243
f 218/99/76 159/101/78 171/189/147
f 220/102/79 148/52/43 158/140/107
f 235/104/51 232/106/51 244/349/51
f 45/107/81 20/68/58 44/211/164
f 190/109/83 210/50/41 175/103/80
f 23/108/82 15/112/86 24/147/113
f 269/80/19 271/114/19 270/384/19
f 92/115/87 87/117/89 93/307/188
f 32/118/90 43/119/91 42/325/198
f 210/50/41 72/121/93 199/51/42
f 33/122/94 23/108/82 45/107/81
f 149/123/95 205/125/95 206/415/95
f 127/29/25 129/126/26 130/416/181
f 163/26/22 154/127/96 164/244/186
f 153/128/97 155/130/99 156/292/215
f 84/131/88 86/133/101 87/257/89
f 221/137/105 135/138/106 136/53/44
f 159/139/78 161/141/108 162/417/148
f 45/107/81 34/143/53 33/122/94
f 71/144/110 73/146/112 74/162/126
f 141/65/55 224/75/62 143/66/56
f 167/149/115 169/150/116 170/90/68
f 95/151/117 86/133/101 85/47/38
f 216/153/119 98/155/121 96/309/220
f 14/156/122 25/157/114 15/418/86
f 190/109/83 220/102/79 192/223/173
f 119/16/15 121/161/125 122/168/132
f 71/144/110 60/163/127 59/24/20
f 72/121/93 76/165/129 73/146/112
f 121/161/125 125/167/131 122/168/132
f 122/168/132 109/169/133 108/282/161
f 150/170/134 152/172/98 153/419/97
f 262/173/36 261/42/36 266/361/36
f 67/175/136 58/5/4 68/4/3
f 151/25/21 153/178/97 154/127/96
f 180/179/138 182/181/140 183/266/179
f 116/58/49 109/183/133 117/59/50
f 214/184/142 89/185/143 90/420/187
f 217/186/144 186/188/146 218/99/76
f 171/189/147 162/190/148 172/256/192
f 65/191/149 67/175/136 68/4/3
f 65/191/149 69/193/151 66/320/222
f 28/194/152 30/196/154 31/62/52
f 176/40/27 178/200/156 179/421/139
f 37/48/39 39/201/157 40/210/163
f 19/202/158 9/203/159 8/328/227
f 179/204/139 181/13/12 182/272/140
f 106/206/141 108/208/161 109/422/133
f 50/209/162 43/199/91 51/198/155
f 44/211/164 46/212/165 47/269/202
f 110/74/61 114/213/166 111/341/210
f 223/214/167 137/216/169 145/250/170
f 143/66/56 146/218/171 144/253/190
f 114/219/166 125/221/131 124/286/130
f 191/222/172 192/223/173 193/229/178
f 102/224/174 104/225/175 105/423/160
f 220/102/79 194/227/176 192/223/173
f 192/223/173 195/228/177 193/229/178
f 193/229/178 183/230/179 182/272/140
f 230/232/36 241/234/36 229/89/36
f 128/94/72 130/236/181 131/299/184
f 16/17/16 7/135/103 17/134/102
f 103/238/183 105/240/160 106/182/141
f 131/241/184 133/243/185 134/424/217
f 164/244/186 157/245/70 165/287/211
f 98/155/121 93/247/188 99/258/193
f 222/248/168 136/53/44 137/412/169
f 218/99/76 194/249/176 219/100/77
f 14/156/122 16/17/16 17/134/102
f 145/250/170 140/251/46 146/295/171
f 11/252/189 13/10/9 14/156/122
f 136/53/44 138/95/73 139/54/45
f 142/36/32 133/254/185 132/301/219
f 168/255/191 172/256/192 169/150/116
f 54/259/194 56/261/196 57/425/197
f 177/32/28 179/180/139 180/179/138
f 187/37/33 180/179/138 188/265/199
f 57/262/197 59/24/20 60/163/127
f 40/210/163 42/264/198 43/199/91
f 188/265/199 183/266/179 189/270/203
f 62/267/200 64/192/150 65/191/149
f 20/68/58 24/147/113 21/271/204
f 44/211/164 48/142/109 45/107/81
f 185/187/145 187/37/33 188/265/199
f 185/187/145 189/270/203 186/188/146
f 48/142/109 35/197/54 34/143/53
f 70/145/111 72/121/93 73/146/112
f 21/271/204 25/148/114 22/158/123
f 191/222/172 182/272/140 181/13/12
f 166/7/6 168/255/191 169/150/116
f 73/146/112 77/274/180 74/162/126
f 74/162/126 61/275/5 60/163/127
f 80/277/206 82/279/65 83/426/100
f 4/237/182 6/281/208 7/135/103
f 119/16/15 108/282/161 107/342/235
f 83/132/100 85/47/38 86/133/101
f 158/140/107 160/283/209 161/141/108
f 12/284/85 14/156/122 15/418/86
f 111/285/210 124/286/130 123/427/226
f 161/141/108 163/26/22 164/244/186
f 161/141/108 165/287/211 162/417/148
f 172/256/192 165/288/211 173/91/69
f 94/289/212 216/153/119 96/309/220
f 19/202/158 21/271/204 22/158/123
f 167/149/115 156/292/215 155/130/99
f 217/186/144 184/38/34 185/187/145
f 169/150/116 173/91/69 170/90/68
f 97/152/118 87/257/89 86/133/101
f 3/35/31 5/296/218 6/428/208
f 81/14/13 83/298/100 84/116/88
f 138/95/73 131/299/184 139/54/45
f 130/300/181 132/301/219 133/254/185
f 7/302/103 9/203/159 10/159/104
f 139/54/45 134/304/217 140/55/46
f 213/120/92 88/110/84 89/185/143
f 30/196/154 34/63/53 31/62/52
f 215/154/120 90/246/187 98/155/121
f 89/185/143 91/15/14 92/115/87
f 89/185/143 93/307/188 90/420/187
f 186/188/146 195/308/177 194/249/176
f 18/291/214 20/68/58 21/271/204
f 95/151/117 96/309/220 97/152/118
f 91/15/14 84/116/88 92/115/87
f 224/75/62 145/217/170 143/66/56
f 96/309/220 99/258/193 97/152/118
f 144/253/190 134/311/217 133/254/185
f 36/312/66 38/313/221 39/429/157
f 55/176/137 57/315/197 58/5/4
f 49/49/40 40/210/163 50/209/162
f 39/316/157 41/93/71 42/325/198
f 154/318/96 156/292/215 157/92/70
f 58/5/4 60/319/127 61/6/5
f 110/74/61 112/8/7 113/56/47
f 62/267/200 66/320/222 63/321/223
f 63/321/223 76/322/129 75/336/128
f 47/269/202 49/49/40 50/209/162
f 47/269/202 51/198/155 48/142/109
f 66/320/222 77/231/180 76/322/129
f 118/160/124 120/323/224 121/161/125
f 29/324/225 31/62/52 32/118/90
f 29/324/225 42/325/198 41/93/71
f 120/323/224 124/166/130 121/161/125
f 78/278/207 126/28/24 27/27/23
f 1/34/30 54/259/194 5/296/218
f 5/327/218 55/176/137 8/328/227
f 8/328/227 67/175/136 19/202/158
f 94/289/212 207/70/60 79/290/213
f 19/202/158 64/192/150 18/291/214
f 227/105/17 245/46/18 242/386/18
f 78/278/207 36/312/66 82/279/65
f 259/329/64 258/331/64 260/430/64
f 163/26/22 70/145/111 71/144/110
f 95/151/117 46/212/165 94/289/212
f 91/15/14 190/109/83 191/222/172
f 64/192/150 198/69/59 18/291/214
f 174/39/35 80/277/206 178/200/156
f 147/171/135 102/224/174 152/172/98
f 152/129/98 103/238/183 155/130/99
f 155/130/99 115/57/48 167/149/115
f 254/332/228 287/334/229 248/391/228
f 167/149/115 112/8/7 166/7/6
f 132/301/219 187/37/33 142/36/32
f 261/330/64 275/81/230 274/356/64
f 104/335/175 4/237/182 107/342/235
f 207/70/60 53/268/201 79/290/213
f 184/38/34 197/76/63 141/65/55
f 26/195/153 11/252/189 30/196/154
f 222/215/168 111/285/210 123/427/226
f 200/273/205 217/186/144 168/255/191
f 159/139/78 220/102/79 158/140/107
f 120/323/224 222/248/168 123/326/226
f 75/336/128 215/154/120 63/321/223
f 168/255/191 218/99/76 171/189/147
f 63/321/223 216/153/119 62/267/200
f 30/196/154 12/284/85 33/305/94
f 62/267/200 79/290/213 53/268/201
f 221/137/105 201/12/11 211/67/57
f 149/337/231 196/9/8 101/431/244
f 212/338/232 206/340/234 208/432/67
f 100/33/29 52/260/195 1/34/30
f 111/341/210 224/75/62 110/74/61
f 72/121/93 214/184/142 75/164/128
f 160/283/209 199/51/42 70/145/111
f 107/342/235 16/17/16 119/16/15
f 280/113/64 267/346/64 281/114/64
f 178/205/156 81/14/13 181/13/12
f 238/60/51 236/349/51 237/61/51
f 260/350/67 289/174/67 268/43/67
f 265/42/67 263/173/67 267/361/67
f 266/353/37 263/1/1 262/410/1
f 56/263/196 151/25/21 59/24/20
f 271/360/67 280/42/67 281/361/67
f 52/260/195 150/170/134 56/261/196
f 285/41/36 283/361/36 284/42/36
f 244/79/19 228/365/19 234/348/19
f 251/366/51 256/368/51 288/3/51
f 227/369/64 235/79/64 233/347/64
f 256/330/64 246/371/64 254/379/64
f 6/303/208 8/328/227 9/203/159
f 251/370/19 255/372/19 247/433/19
f 105/375/160 107/342/235 108/282/161
f 253/174/67 287/363/67 249/382/67
f 249/376/19 289/331/19 253/434/19
f 243/78/64 225/381/64 233/347/64
f 251/174/36 286/363/36 250/351/36
f 264/353/51 260/383/51 268/354/51
f 38/317/221 128/94/72 41/93/71
f 288/174/36 259/350/36 264/43/36
f 265/331/64 277/82/240 268/430/240
f 28/194/152 211/67/57 26/195/153
f 254/332/228 286/378/229 290/333/229
f 226/385/19 240/78/19 234/348/19
f 234/45/37 242/386/18 245/46/18
f 258/331/64 248/387/64 252/434/64
f 115/57/48 106/182/141 116/58/49
f 266/388/64 284/356/64 283/384/64
f 237/87/36 243/89/36 238/88/36
f 29/324/225 135/138/106 28/194/152
f 236/389/19 240/78/19 237/77/19
f 272/390/67 278/42/67 279/41/67
f 232/232/67 227/373/67 242/234/67
f 289/2/51 252/391/51 253/374/51
f 294/395/51 291/397/51 293/406/51
f 292/398/67 295/400/67 291/435/67
f 298/401/36 293/399/36 297/398/36
f 292/403/64 298/405/64 296/436/64
f 296/406/37 297/407/37 295/437/37
f 295/408/19 293/404/19 291/403/19
f 302/395/51 299/397/51 301/406/51
f 300/398/67 303/400/67 299/435/67
f 306/401/36 301/399/36 305/398/36
f 300/403/64 306/405/64 304/436/64
f 304/406/37 305/407/37 303/437/37
f 303/408/19 301/404/19 299/403/19
f 316/438/37 317/439/37 314/440/37
f 315/441/19 316/442/19 313/443/19
f 309/444/36 310/445/36 308/446/36
f 317/447/64 318/448/64 312/449/64
f 313/450/36 314/451/36 312/452/36
f 320/453/37 321/454/37 310/455/37
f 307/456/51 308/457/51 322/458/51
f 308/459/64 310/460/64 321/461/64
f 311/462/51 312/463/51 318/464/51
f 309/465/19 307/459/19 319/466/19
f 316/438/37 314/440/37 313/467/37
f 315/441/19 313/443/19 311/468/19
f 309/444/36 308/446/36 307/469/36
f 317/447/64 312/449/64 314/470/64
f 313/450/36 312/452/36 311/471/36
f 320/453/37 310/455/37 309/472/37
f 307/456/51 322/458/51 319/454/51
f 308/459/64 321/461/64 322/466/64
f 311/462/51 318/464/51 315/439/51
f 309/465/19 319/466/19 320/473/19
f 149/337/231 212/85/37 200/273/205
f 326/474/245 334/475/246 327/476/245
f 335/477/247 328/478/248 329/479/248
f 327/476/245 334/475/246 333/480/249
f 330/481/37 326/482/37 328/478/37
f 332/480/250 335/477/247 329/479/248
f 331/483/37 326/482/37 330/481/37
f 326/474/245 331/484/36 334/475/246
f 335/477/247 330/485/67 328/478/248
