# Blender 4.0.0
# www.blender.org
o Refrigerator072_Body001_Clear
v 0.41737200 0.32775700 0.47606850
v 0.41737200 0.32775700 0.48511550
v 0.41737200 -0.19014000 0.47606950
v 0.41737200 -0.19014000 0.48511650
v 0.41737200 0.35248100 0.12288750
v 0.41737200 0.35248100 0.13193450
v 0.41737200 -0.19856500 0.12288750
v 0.41737200 -0.19856500 0.13193450
v -0.04610500 0.35248100 0.12288750
v -0.04610500 -0.19856500 0.12288750
v -0.04610500 -0.19856500 0.13193450
v -0.04610500 0.35248100 0.13193450
v -0.04610500 0.32775700 0.47606850
v -0.04610500 -0.19014000 0.47606950
v -0.04610500 -0.19014000 0.48511650
v -0.04610500 0.32775700 0.48511550
vn -0.0000 1.0000 -0.0000
vn -0.0000 -0.0000 1.0000
vn 1.0000 -0.0000 -0.0000
vn -0.0000 -0.0000 -1.0000
vn -0.0000 -1.0000 -0.0000
vt 0.826822 0.852342
vt 0.826924 0.847554
vt 0.826822 0.847554
vt 0.813899 0.842767
vt 0.807541 0.847554
vt 0.813899 0.847554
vt 0.815228 0.839551
vt 0.815331 0.833192
vt 0.815228 0.833192
vt 0.815126 0.839551
vt 0.815126 0.833192
vt 0.820258 0.847554
vt 0.826617 0.842767
vt 0.820258 0.842767
vt 0.807541 0.842767
vt 0.801182 0.847554
vt 0.826617 0.852342
vt 0.826719 0.847554
vt 0.826617 0.847554
vt 0.826924 0.847554
vt 0.827027 0.842767
vt 0.826924 0.842767
vt 0.826822 0.842767
vt 0.826719 0.842767
vt 0.826924 0.852342
vt 0.815331 0.839551
vt 0.801182 0.842767
vt 0.826719 0.852342
vt 0.827027 0.847554
s 1
f 6/1/1 9/2/1 12/3/1
f 4/4/2 16/5/2 15/6/2
f 8/7/3 5/8/3 6/9/3
f 4/10/3 1/9/3 2/11/3
f 12/12/2 8/13/2 6/14/2
f 1/15/4 14/16/4 13/5/4
f 2/17/1 13/18/1 16/19/1
f 11/20/5 7/21/5 8/22/5
f 15/18/5 3/23/5 4/24/5
f 10/6/4 5/14/4 7/4/4
f 5/25/1 9/2/1 6/1/1
f 2/15/2 16/5/2 4/4/2
f 7/26/3 5/8/3 8/7/3
f 3/7/3 1/9/3 4/10/3
f 11/19/2 8/13/2 12/12/2
f 3/27/4 14/16/4 1/15/4
f 1/28/1 13/18/1 2/17/1
f 10/29/5 7/21/5 11/20/5
f 14/3/5 3/23/5 15/18/5
f 9/12/4 5/14/4 10/6/4
