# Blender 4.0.0
# www.blender.org
o freezer_drawer0
v -0.40534400 -0.21231800 -0.84465750
v -0.06789200 -0.21069500 -0.84625650
v -0.40810100 0.31233200 -0.84465750
v -0.06789200 0.31231700 -0.84625650
v -0.40804300 -0.21386500 -0.57870450
v -0.06473400 -0.21225500 -0.57825950
v -0.40964600 0.31387700 -0.57825950
v -0.06633300 0.31547600 -0.57825950
v -0.34555300 -0.21384600 -0.66220650
v -0.12629500 -0.21386100 -0.66018650
v -0.12808800 -0.21386900 -0.59057450
v -0.34808400 -0.21384800 -0.59342750
v -0.39948100 -0.20369000 -0.83925050
v -0.07597000 -0.20528900 -0.83765150
v -0.39948100 0.30531100 -0.83925050
v -0.07329900 0.30531100 -0.83765150
v -0.40041800 -0.20688800 -0.57666050
v -0.07170000 -0.20462600 -0.57666050
v -0.40268000 0.30624800 -0.57666050
v -0.07396100 0.30851000 -0.57666050
v -0.34488600 -0.20688800 -0.66060750
v -0.12789400 -0.20688800 -0.65900750
v -0.12949400 -0.20688800 -0.59217350
v -0.34648500 -0.20688800 -0.59377250
v -0.40654300 -0.21235000 -0.84028050
v -0.40810100 -0.21071000 -0.84465750
v -0.40648700 -0.21069500 -0.84625650
v -0.06627800 -0.21071000 -0.84465750
v -0.06783700 -0.21235000 -0.84028050
v -0.06903500 -0.21231800 -0.84465750
v -0.40650200 0.31393100 -0.84465750
v -0.40648700 0.31231700 -0.84625650
v -0.06787800 0.31393100 -0.84465750
v -0.06627800 0.31233200 -0.84465750
v -0.39644200 -0.21386900 -0.57825950
v -0.40580000 -0.21227000 -0.57666050
v -0.40806200 -0.21000800 -0.57666050
v -0.40964600 -0.21225500 -0.57825950
v -0.06631800 -0.21000800 -0.57666050
v -0.06857900 -0.21227000 -0.57666050
v -0.07793700 -0.21386900 -0.57825950
v -0.06633700 -0.21386500 -0.57870450
v -0.40806200 0.31163000 -0.57666050
v -0.40580000 0.31389200 -0.57666050
v -0.40804700 0.31547600 -0.57825950
v -0.06857900 0.31389200 -0.57666050
v -0.06631800 0.31163000 -0.57666050
v -0.06473400 0.31387700 -0.57825950
v -0.34488600 -0.21227000 -0.66060750
v -0.34648500 -0.21227000 -0.65900750
v -0.34808400 -0.21386100 -0.66018650
v -0.12789400 -0.21227000 -0.65900750
v -0.12949400 -0.21227000 -0.66060750
v -0.12882700 -0.21384600 -0.66220650
v -0.12949400 -0.21227000 -0.59217350
v -0.12789400 -0.21227000 -0.59377250
v -0.12629500 -0.21384800 -0.59342750
v -0.34648500 -0.21227000 -0.59377250
v -0.34488600 -0.21227000 -0.59217350
v -0.34629200 -0.21386900 -0.59057450
v -0.40108100 -0.20369000 -0.83765150
v -0.39948100 -0.20528900 -0.83288050
v -0.39840900 -0.20528900 -0.83765150
v -0.07489800 -0.20528900 -0.83288050
v -0.07329900 -0.20369000 -0.83765150
v -0.07489800 -0.20369000 -0.83925050
v -0.39948100 0.30691100 -0.83765150
v -0.40108100 0.30531100 -0.83765150
v -0.07489800 0.30691100 -0.83765150
v -0.07489800 0.30531100 -0.83925050
v -0.38960200 -0.20528900 -0.57825950
v -0.39948100 -0.20528900 -0.57877750
v -0.40108100 -0.20369000 -0.57825950
v -0.40268000 -0.20462600 -0.57666050
v -0.07329900 -0.20369000 -0.57825950
v -0.07489800 -0.20528900 -0.57877750
v -0.08477800 -0.20528900 -0.57825950
v -0.07396100 -0.20688800 -0.57666050
v -0.40108100 0.30531100 -0.57825950
v -0.39948100 0.30691100 -0.57825950
v -0.40041800 0.30851000 -0.57666050
v -0.07489800 0.30691100 -0.57825950
v -0.07329900 0.30531100 -0.57825950
v -0.07170000 0.30624800 -0.57666050
v -0.34552800 -0.20528900 -0.66220650
v -0.34808400 -0.20528900 -0.66020550
v -0.34648500 -0.20688800 -0.65900750
v -0.12629500 -0.20528900 -0.66020550
v -0.12885200 -0.20528900 -0.66220650
v -0.12949400 -0.20688800 -0.66060750
v -0.12811700 -0.20528900 -0.59057450
v -0.12629500 -0.20528900 -0.59338150
v -0.12789400 -0.20688800 -0.59377250
v -0.34808400 -0.20528900 -0.59338150
v -0.34626200 -0.20528900 -0.59057450
v -0.34488600 -0.20688800 -0.59217350
v -0.40701500 -0.21231400 -0.84436250
v -0.40770400 -0.21191200 -0.84436250
v -0.40769000 -0.21149900 -0.84585650
v -0.40700100 -0.21190100 -0.84585650
v -0.06668900 -0.21149900 -0.84585650
v -0.06667500 -0.21191200 -0.84436250
v -0.06736500 -0.21231400 -0.84436250
v -0.06737900 -0.21190100 -0.84585650
v -0.40770200 0.31353200 -0.84465750
v -0.40649100 0.31352000 -0.84585650
v -0.40769000 0.31232100 -0.84585650
v -0.06788900 0.31352000 -0.84585650
v -0.06667800 0.31353200 -0.84465750
v -0.06668900 0.31232100 -0.84585650
v -0.40595200 -0.21386800 -0.57757150
v -0.40539100 -0.21346900 -0.57706050
v -0.40829600 -0.21250400 -0.57666050
v -0.40925700 -0.21250000 -0.57706050
v -0.40925300 -0.21346500 -0.57757150
v -0.06512200 -0.21250000 -0.57706050
v -0.06608400 -0.21250400 -0.57666050
v -0.06898900 -0.21346900 -0.57706050
v -0.06842800 -0.21386800 -0.57757150
v -0.06512700 -0.21346500 -0.57757150
v -0.40925700 0.31412200 -0.57706050
v -0.40829600 0.31412600 -0.57666050
v -0.40829200 0.31508700 -0.57706050
v -0.40925400 0.31508400 -0.57745950
v -0.06608700 0.31508700 -0.57706050
v -0.06608400 0.31412600 -0.57666050
v -0.06512200 0.31412200 -0.57706050
v -0.06512600 0.31508400 -0.57745950
v -0.34585200 -0.21346300 -0.66100650
v -0.34608500 -0.21306900 -0.66020750
v -0.34688500 -0.21346700 -0.66010150
v -0.34665200 -0.21386100 -0.66090150
v -0.12749500 -0.21346700 -0.66010150
v -0.12829400 -0.21306900 -0.66020750
v -0.12852700 -0.21346300 -0.66100650
v -0.12772800 -0.21386100 -0.66090150
v -0.12834200 -0.21346900 -0.59177350
v -0.12829400 -0.21306900 -0.59257350
v -0.12749500 -0.21346400 -0.59288650
v -0.12754300 -0.21386400 -0.59208750
v -0.34688500 -0.21346400 -0.59288650
v -0.34608500 -0.21306900 -0.59257350
v -0.34603700 -0.21346900 -0.59177350
v -0.34683700 -0.21386400 -0.59208750
v -0.40068100 -0.20448900 -0.83885050
v -0.40068100 -0.20488900 -0.83725850
v -0.40001300 -0.20528900 -0.83725850
v -0.40001300 -0.20488900 -0.83885050
v -0.07436700 -0.20528900 -0.83725850
v -0.07369900 -0.20488900 -0.83725850
v -0.07369900 -0.20448900 -0.83885050
v -0.07436700 -0.20488900 -0.83885050
v -0.39948100 0.30651100 -0.83885050
v -0.40068100 0.30651100 -0.83765150
v -0.40068100 0.30531100 -0.83885050
v -0.07369900 0.30651100 -0.83765150
v -0.07489800 0.30651100 -0.83885050
v -0.07369900 0.30531100 -0.83885050
v -0.39804500 -0.20568900 -0.57706050
v -0.39781100 -0.20528900 -0.57758950
v -0.40068100 -0.20488900 -0.57758950
v -0.40148000 -0.20472300 -0.57706050
v -0.40131500 -0.20552300 -0.57666050
v -0.07289900 -0.20472300 -0.57706050
v -0.07369900 -0.20488900 -0.57758950
v -0.07656900 -0.20528900 -0.57758950
v -0.07633400 -0.20568900 -0.57706050
v -0.07306500 -0.20552300 -0.57666050
v -0.40148000 0.30634500 -0.57706050
v -0.40068100 0.30651100 -0.57745950
v -0.40051500 0.30731000 -0.57706050
v -0.40131500 0.30714500 -0.57666050
v -0.07386400 0.30731000 -0.57706050
v -0.07369900 0.30651100 -0.57745950
v -0.07289900 0.30634500 -0.57706050
v -0.07306500 0.30714500 -0.57666050
v -0.34584600 -0.20568900 -0.66100650
v -0.34664600 -0.20528900 -0.66090650
v -0.34688500 -0.20568900 -0.66010650
v -0.34608500 -0.20608800 -0.66020750
v -0.12749500 -0.20568900 -0.66010650
v -0.12773400 -0.20528900 -0.66090650
v -0.12853300 -0.20568900 -0.66100650
v -0.12829400 -0.20608800 -0.66020750
v -0.12835000 -0.20568900 -0.59177350
v -0.12755000 -0.20528900 -0.59207550
v -0.12749500 -0.20568900 -0.59287550
v -0.12829400 -0.20608800 -0.59257350
v -0.34688500 -0.20568900 -0.59287550
v -0.34682900 -0.20528900 -0.59207550
v -0.34603000 -0.20568900 -0.59177350
v -0.34608500 -0.20608800 -0.59257350
v -0.40769300 0.31322300 -0.84555650
v -0.06698900 0.31322000 -0.84585650
v -0.40038100 0.30621100 -0.83885050
v -0.07369900 0.30621100 -0.83855150
vn 0.0015 -0.0010 -1.0000
vn -0.0025 0.0001 -1.0000
vn 0.0014 0.0009 -1.0000
vn -0.0015 0.0010 -1.0000
vn 0.9998 -0.0125 -0.0159
vn 1.0000 0.0004 -0.0100
vn 1.0000 -0.0001 -0.0044
vn 1.0000 -0.0009 -0.0098
vn -0.0004 1.0000 -0.0044
vn 0.0008 1.0000 -0.0048
vn 0.0224 0.9997 0.0089
vn -0.0011 0.9999 -0.0101
vn -0.9998 0.0121 -0.0158
vn -0.9999 -0.0003 -0.0102
vn -1.0000 -0.0001 -0.0044
vn -1.0000 0.0011 -0.0096
vn 0.0003 -0.9999 -0.0170
vn 0.0234 -0.9996 -0.0177
vn 0.0080 -1.0000 -0.0060
vn 0.0207 -0.9997 -0.0138
vn 0.0417 -0.9982 -0.0435
vn -0.0046 -0.9998 -0.0203
vn 0.0190 -0.9998 -0.0065
vn 0.0042 -1.0000 -0.0075
vn 0.0018 -0.9993 0.0366
vn -0.0001 -0.9998 -0.0222
vn -0.0000 -0.9993 0.0366
vn 0.0001 -0.9998 -0.0222
vn -0.0207 -0.9997 0.0164
vn -0.0143 -0.9996 0.0255
vn -0.0159 -0.9999 -0.0052
vn -0.0042 -1.0000 -0.0075
vn 0.0015 -0.0010 1.0000
vn 0.0024 0.0002 1.0000
vn -0.0015 -0.0010 1.0000
vn -0.0015 0.0010 1.0000
vn -1.0000 -0.0010 0.0025
vn -0.9999 0.0140 -0.0100
vn -1.0000 -0.0006 0.0021
vn -1.0000 0.0010 0.0025
vn -0.0015 -1.0000 0.0025
vn -0.0196 -0.9995 0.0236
vn -0.0016 -1.0000 0.0026
vn 0.0016 -1.0000 0.0025
vn 1.0000 0.0010 0.0025
vn 0.9998 -0.0169 -0.0118
vn 1.0000 0.0006 0.0021
vn 1.0000 -0.0010 0.0025
vn -0.0000 1.0000 0.0017
vn 0.0128 0.9999 0.0018
vn -0.0195 0.9998 -0.0038
vn -0.0000 1.0000 0.0009
vn -0.0228 0.9988 0.0436
vn -0.0008 1.0000 0.0003
vn -0.0003 1.0000 -0.0000
vn -0.0017 0.9997 -0.0242
vn -0.0024 1.0000 0.0015
vn -0.0000 1.0000 -0.0009
vn -0.0000 1.0000 0.0015
vn 0.0001 1.0000 -0.0000
vn 0.0228 0.9988 0.0436
vn 0.0093 0.9999 -0.0143
vn 0.0003 1.0000 -0.0000
vn 0.0110 -0.0000 0.9999
vn 0.0109 -0.0000 0.9999
vn -0.0105 -0.0003 0.9999
vn -0.0106 -0.0000 0.9999
vn -0.0000 0.0073 1.0000
vn 0.0004 -0.0068 1.0000
vn -0.0000 -0.0069 1.0000
vn -0.0110 -0.0000 0.9999
vn -0.0109 -0.0000 0.9999
vn 0.0105 0.0003 0.9999
vn 0.0106 -0.0000 0.9999
vn -0.0029 0.0609 0.9981
vn 0.0028 0.0609 0.9981
vn 0.0041 -0.0593 0.9982
vn -0.0029 -0.0610 0.9981
vn -0.9987 0.0461 -0.0234
vn -0.9980 -0.0621 0.0107
vn -0.9980 -0.0616 -0.0103
vn -0.9980 0.0618 0.0104
vn -0.0000 -0.0072 1.0000
vn -0.0002 0.0068 1.0000
vn -0.0000 0.0069 1.0000
vn -0.0029 -0.0610 -0.9981
vn 0.0028 -0.0610 -0.9981
vn 0.0042 0.0593 -0.9982
vn -0.0029 0.0610 -0.9981
vn 0.9980 0.0621 0.0107
vn 0.9980 0.0616 -0.0103
vn 0.9987 -0.0460 -0.0234
vn 0.9980 -0.0618 0.0104
vn -0.7113 -0.7028 -0.0123
vn -0.7041 -0.0015 -0.7101
vn -0.0105 -0.9999 -0.0121
vn -0.0012 -0.7023 -0.7119
vn 0.0105 -0.9999 -0.0120
vn 0.7041 -0.0015 -0.7101
vn 0.7113 -0.7028 -0.0122
vn 0.0012 -0.7023 -0.7119
vn -0.5737 0.5737 -0.5845
vn -0.7035 0.0005 -0.7107
vn 0.5737 0.5737 -0.5845
vn 0.7040 0.0005 -0.7102
vn -0.0006 -0.7003 0.7138
vn -0.0000 -0.0002 1.0000
vn -0.0041 -0.9997 0.0239
vn -0.7070 -0.7072 -0.0013
vn -0.7099 -0.0028 0.7043
vn 0.0041 -0.9997 0.0239
vn 0.0006 -0.7003 0.7138
vn 0.7070 -0.7072 -0.0013
vn 0.7099 -0.0028 0.7043
vn -0.7072 0.7069 -0.0078
vn -0.0001 0.0001 1.0000
vn -0.0007 0.7112 0.7030
vn -0.7109 0.0005 0.7033
vn 0.7069 0.7073 -0.0078
vn 0.0001 0.0001 1.0000
vn 0.7109 0.0005 0.7033
vn 0.0007 0.7112 0.7030
vn -0.0025 -1.0000 -0.0063
vn 0.7007 -0.0966 0.7069
vn 0.6966 -0.7174 0.0115
vn 0.0030 -0.7138 0.7004
vn -0.7007 -0.0966 0.7069
vn 0.0025 -1.0000 -0.0063
vn -0.6966 -0.7174 0.0115
vn -0.0030 -0.7138 0.7004
vn -0.0044 -1.0000 -0.0076
vn -0.7104 -0.0968 -0.6972
vn -0.6983 -0.7157 -0.0106
vn -0.0033 -0.7100 -0.7042
vn 0.0044 -1.0000 -0.0076
vn 0.7104 -0.0968 -0.6971
vn 0.0033 -0.7100 -0.7041
vn 0.6983 -0.7157 -0.0106
vn 0.7094 0.7048 0.0007
vn 0.0013 0.7075 0.7067
vn 0.7075 0.0017 0.7067
vn -0.0025 1.0000 -0.0008
vn -0.7094 0.7048 0.0007
vn -0.0013 0.7075 0.7067
vn 0.0025 1.0000 -0.0008
vn -0.7075 0.0017 0.7067
vn 0.5773 -0.5774 0.5774
vn 0.7074 -0.0005 0.7068
vn -0.5773 -0.5774 0.5773
vn -0.7069 -0.0005 0.7074
vn -0.0000 1.0000 0.0001
vn 0.7055 0.7087 0.0059
vn 0.0017 0.6986 0.7155
vn -0.0000 0.0002 1.0000
vn 0.7057 0.0033 0.7085
vn -0.7055 0.7087 0.0059
vn -0.7057 0.0033 0.7085
vn -0.0016 0.6986 0.7155
vn -0.0001 -0.0001 1.0000
vn 0.7071 -0.7071 0.0042
vn 0.0018 -0.7059 0.7083
vn 0.7063 -0.0012 0.7079
vn -0.7070 -0.7072 0.0042
vn -0.0000 -0.0000 1.0000
vn -0.0018 -0.7059 0.7083
vn -0.7063 -0.0012 0.7079
vn 0.7002 0.0965 0.7073
vn 0.0007 1.0000 0.0008
vn 0.6996 0.7144 0.0116
vn 0.0030 0.7086 0.7056
vn -0.0007 1.0000 0.0009
vn -0.7002 0.0965 0.7073
vn -0.6996 0.7144 0.0116
vn -0.0030 0.7086 0.7056
vn -0.0000 1.0000 -0.0000
vn -0.7101 0.0967 -0.6974
vn -0.0033 0.7100 -0.7042
vn -0.7013 0.7127 -0.0107
vn 0.7101 0.0967 -0.6975
vn 0.7014 0.7127 -0.0107
vn 0.0033 0.7100 -0.7042
vn -0.0014 0.7032 -0.7110
vn 0.0007 0.7042 -0.7100
vn 0.7070 0.7070 -0.0128
vn -0.7064 0.7077 -0.0119
vn 0.0007 -0.7076 0.7066
vn -0.0014 -0.7070 0.7072
vn -0.7062 -0.7080 0.0012
vn 0.7074 -0.7068 0.0023
vt 0.680828 0.978491
vt 0.675111 0.978492
vt 0.680828 0.969174
vt 0.675112 0.969175
vt 0.680341 0.978189
vt 0.675850 0.968844
vt 0.680341 0.968817
vt 0.675849 0.978163
vt 0.682909 0.977741
vt 0.682909 0.971972
vt 0.687405 0.971998
vt 0.687405 0.977715
vt 0.680379 0.973915
vt 0.684871 0.983260
vt 0.680380 0.983286
vt 0.684871 0.973941
vt 0.681417 0.975469
vt 0.681417 0.981147
vt 0.678339 0.980138
vt 0.678339 0.976479
vt 0.676930 0.981193
vt 0.678305 0.980180
vt 0.681344 0.981167
vt 0.677178 0.980180
vt 0.676922 0.975619
vt 0.677130 0.980150
vt 0.676922 0.980997
vt 0.677130 0.976466
vt 0.681344 0.975449
vt 0.678305 0.976436
vt 0.676930 0.975424
vt 0.677178 0.976436
vt 0.680003 0.980987
vt 0.680003 0.971906
vt 0.685483 0.980987
vt 0.685483 0.971906
vt 0.687041 0.969734
vt 0.687042 0.978817
vt 0.682667 0.969734
vt 0.682667 0.978817
vt 0.679370 0.983425
vt 0.679370 0.977945
vt 0.683748 0.983425
vt 0.683748 0.977945
vt 0.681723 0.978406
vt 0.681723 0.969324
vt 0.686097 0.978406
vt 0.686098 0.969324
vt 0.683491 0.968278
vt 0.683491 0.973722
vt 0.680529 0.969171
vt 0.680529 0.972829
vt 0.679120 0.968260
vt 0.680495 0.969128
vt 0.679367 0.969128
vt 0.683410 0.968260
vt 0.679112 0.968427
vt 0.679320 0.972842
vt 0.679112 0.973573
vt 0.679320 0.969159
vt 0.683410 0.973740
vt 0.679120 0.973740
vt 0.680495 0.972872
vt 0.679367 0.972872
vt 0.680976 0.967918
vt 0.680976 0.977213
vt 0.680885 0.977122
vt 0.680885 0.968009
vt 0.681437 0.976751
vt 0.675744 0.976751
vt 0.675835 0.976660
vt 0.681346 0.976660
vt 0.675206 0.977213
vt 0.675206 0.967918
vt 0.675297 0.968009
vt 0.675297 0.977122
vt 0.674535 0.969565
vt 0.674535 0.973202
vt 0.674444 0.973202
vt 0.674444 0.969565
vt 0.676004 0.979098
vt 0.675913 0.980199
vt 0.675913 0.979098
vt 0.676004 0.980199
vt 0.675244 0.967880
vt 0.680937 0.967880
vt 0.680846 0.967971
vt 0.675335 0.967971
vt 0.674706 0.973202
vt 0.674706 0.969565
vt 0.674797 0.969565
vt 0.674797 0.973202
vt 0.676176 0.980199
vt 0.676176 0.979098
vt 0.676267 0.979098
vt 0.676267 0.980199
vt 0.681412 0.975429
vt 0.681437 0.975429
vt 0.681412 0.975441
vt 0.681437 0.975441
vt 0.681412 0.981175
vt 0.681437 0.981187
vt 0.681412 0.981187
vt 0.681437 0.981175
vt 0.685371 0.973441
vt 0.685385 0.973426
vt 0.685391 0.973441
vt 0.681328 0.968674
vt 0.681343 0.968659
vt 0.681348 0.968674
vt 0.676902 0.975468
vt 0.676895 0.975419
vt 0.676911 0.975459
vt 0.675186 0.967860
vt 0.675202 0.967876
vt 0.675185 0.967876
vt 0.675241 0.967853
vt 0.676911 0.981157
vt 0.676895 0.981197
vt 0.676902 0.981148
vt 0.680996 0.967860
vt 0.680979 0.967876
vt 0.680940 0.967853
vt 0.680996 0.967876
vt 0.675685 0.976771
vt 0.675702 0.976755
vt 0.675702 0.976771
vt 0.675685 0.976755
vt 0.681496 0.976772
vt 0.681479 0.976755
vt 0.681496 0.976755
vt 0.681479 0.976771
vt 0.678317 0.976460
vt 0.678305 0.976470
vt 0.678303 0.976456
vt 0.678319 0.976474
vt 0.678305 0.980147
vt 0.678317 0.980156
vt 0.678303 0.980160
vt 0.678319 0.980143
vt 0.677156 0.980159
vt 0.677164 0.980147
vt 0.677169 0.980160
vt 0.677150 0.980146
vt 0.677156 0.976457
vt 0.677164 0.976470
vt 0.677150 0.976470
vt 0.677169 0.976456
vt 0.683484 0.973760
vt 0.683511 0.973749
vt 0.683511 0.973760
vt 0.683484 0.973749
vt 0.683484 0.968240
vt 0.683511 0.968251
vt 0.683484 0.968251
vt 0.683511 0.968240
vt 0.680503 0.980487
vt 0.680488 0.980502
vt 0.680483 0.980487
vt 0.687541 0.969235
vt 0.687557 0.969219
vt 0.687562 0.969235
vt 0.679100 0.973712
vt 0.679100 0.973760
vt 0.679091 0.973716
vt 0.675320 0.967994
vt 0.675330 0.968005
vt 0.675317 0.968007
vt 0.679085 0.973771
vt 0.680851 0.968005
vt 0.680862 0.967994
vt 0.680864 0.968008
vt 0.679091 0.968284
vt 0.679100 0.968240
vt 0.679100 0.968288
vt 0.679085 0.968229
vt 0.675820 0.976637
vt 0.675830 0.976627
vt 0.675833 0.976640
vt 0.675817 0.976624
vt 0.681351 0.976627
vt 0.681362 0.976637
vt 0.681348 0.976640
vt 0.681364 0.976624
vt 0.680495 0.972839
vt 0.680507 0.972848
vt 0.680493 0.972852
vt 0.680508 0.972835
vt 0.680507 0.969152
vt 0.680495 0.969162
vt 0.680493 0.969148
vt 0.680508 0.969166
vt 0.679345 0.969149
vt 0.679353 0.969162
vt 0.679340 0.969162
vt 0.679358 0.969148
vt 0.679345 0.972851
vt 0.679353 0.972839
vt 0.679358 0.972852
vt 0.679340 0.972838
vt 0.675091 0.978505
vt 0.675091 0.969175
vt 0.675611 0.968655
vt 0.681328 0.968654
vt 0.675611 0.968675
vt 0.680848 0.969174
vt 0.680848 0.978504
vt 0.680837 0.978511
vt 0.675103 0.978512
vt 0.680841 0.968318
vt 0.676350 0.968323
vt 0.680855 0.968297
vt 0.676349 0.968344
vt 0.680361 0.978193
vt 0.680362 0.968813
vt 0.680353 0.978210
vt 0.675854 0.978183
vt 0.687405 0.977736
vt 0.682895 0.977762
vt 0.682888 0.971968
vt 0.682888 0.977746
vt 0.684866 0.983281
vt 0.680368 0.983307
vt 0.680359 0.973911
vt 0.680359 0.983290
vt 0.680503 0.980507
vt 0.685983 0.980487
vt 0.685983 0.980507
vt 0.679983 0.980987
vt 0.679983 0.971892
vt 0.679994 0.971885
vt 0.685492 0.971885
vt 0.685503 0.980987
vt 0.685503 0.971892
vt 0.683153 0.969214
vt 0.687541 0.969214
vt 0.683167 0.969235
vt 0.687035 0.978837
vt 0.682656 0.978837
vt 0.682646 0.978834
vt 0.682646 0.969717
vt 0.679357 0.977925
vt 0.683748 0.977925
vt 0.679350 0.983442
vt 0.679350 0.977927
vt 0.686108 0.978426
vt 0.681729 0.978426
vt 0.686118 0.969306
vt 0.686118 0.978424
vt 0.681475 0.976713
vt 0.681385 0.976622
vt 0.674548 0.969545
vt 0.674430 0.969545
vt 0.674548 0.973222
vt 0.674430 0.973222
vt 0.675900 0.979078
vt 0.676018 0.979078
vt 0.674693 0.969545
vt 0.674811 0.969545
vt 0.684891 0.983274
vt 0.675829 0.978176
vt 0.685370 0.973421
vt 0.687420 0.977736
vt 0.687426 0.977715
vt 0.675591 0.968675
vt 0.675591 0.968659
vt 0.687425 0.971983
vt 0.687426 0.971998
vt 0.687405 0.971978
vt 0.676330 0.968329
vt 0.676329 0.968344
vt 0.676911 0.975403
vt 0.675251 0.967860
vt 0.680930 0.967860
vt 0.676911 0.981213
vt 0.680865 0.973394
vt 0.680879 0.973415
vt 0.680859 0.973411
vt 0.675706 0.976713
vt 0.682895 0.971952
vt 0.680861 0.968313
vt 0.678311 0.976490
vt 0.678284 0.976463
vt 0.678284 0.980153
vt 0.678311 0.980126
vt 0.677156 0.980126
vt 0.677183 0.980153
vt 0.677183 0.976463
vt 0.677156 0.976490
vt 0.681702 0.978420
vt 0.687062 0.978830
vt 0.683768 0.977930
vt 0.683768 0.977945
vt 0.682223 0.968824
vt 0.682202 0.968809
vt 0.682222 0.968804
vt 0.682202 0.968824
vt 0.683763 0.983445
vt 0.683748 0.983445
vt 0.683768 0.983425
vt 0.686003 0.980502
vt 0.686003 0.980487
vt 0.675375 0.967991
vt 0.675323 0.968025
vt 0.680858 0.968025
vt 0.680806 0.967991
vt 0.675796 0.976622
vt 0.675823 0.976607
vt 0.675850 0.976634
vt 0.681330 0.976634
vt 0.681358 0.976607
vt 0.680501 0.972818
vt 0.680474 0.972845
vt 0.680474 0.969155
vt 0.680501 0.969182
vt 0.679346 0.969182
vt 0.679373 0.969155
vt 0.679373 0.972845
vt 0.679346 0.972818
vt 0.684891 0.973941
vt 0.675830 0.968844
vt 0.680996 0.977255
vt 0.675185 0.977255
vt 0.674424 0.969549
vt 0.674424 0.973218
vt 0.675893 0.979083
vt 0.675893 0.980217
vt 0.674686 0.969546
vt 0.674686 0.973221
vt 0.676287 0.979083
vt 0.676287 0.980217
vt 0.681702 0.969324
vt 0.687062 0.969734
vt 0.679357 0.983445
vt 0.680864 0.977124
vt 0.686597 0.968824
vt 0.686611 0.968804
vt 0.675317 0.977124
vt 0.674555 0.973218
vt 0.674555 0.969549
vt 0.676024 0.979083
vt 0.676024 0.980217
vt 0.674818 0.973221
vt 0.674818 0.969546
vt 0.676156 0.979083
vt 0.676156 0.980217
vt 0.676018 0.980219
vt 0.675900 0.980219
vt 0.676162 0.980219
vt 0.676280 0.980219
vt 0.674811 0.973222
vt 0.674693 0.973222
vt 0.676162 0.979078
vt 0.676280 0.979078
s 1
f 2/1/1 27/2/2 4/3/3
f 27/2/2 32/4/4 4/3/3
f 6/5/5 34/6/6 48/7/7
f 34/6/6 6/5/5 28/8/8
f 45/9/9 8/10/10 33/11/11
f 45/9/9 33/11/11 31/12/12
f 7/13/13 26/14/14 38/15/15
f 26/14/14 7/13/13 3/16/16
f 1/17/17 30/18/18 54/19/19
f 1/17/17 54/19/19 9/20/20
f 42/21/21 10/22/22 29/23/23
f 10/22/22 42/21/21 57/24/24
f 35/25/25 11/26/26 41/27/27
f 11/26/26 35/25/25 60/28/28
f 25/29/29 51/30/30 5/31/31
f 12/32/32 5/31/31 51/30/30
f 15/33/33 13/34/34 70/35/35
f 70/35/35 13/34/34 66/36/36
f 16/37/37 65/38/38 83/39/39
f 75/40/40 83/39/39 65/38/38
f 82/41/41 80/42/42 69/43/43
f 80/42/42 67/44/44 69/43/43
f 61/45/45 68/46/46 73/47/47
f 79/48/48 73/47/47 68/46/46
f 14/49/49 63/50/50 89/51/51
f 89/51/51 63/50/50 85/52/52
f 76/53/53 88/54/54 92/55/55
f 88/54/54 76/53/53 64/56/56
f 77/57/57 95/58/58 71/59/59
f 95/58/58 77/57/57 91/60/58
f 62/61/60 72/62/61 86/63/62
f 72/62/61 94/64/63 86/63/62
f 39/65/64 47/66/65 84/67/66
f 39/65/64 84/67/66 18/68/67
f 46/69/68 44/70/68 81/71/69
f 46/69/68 81/71/69 20/72/70
f 43/73/71 37/74/72 74/75/73
f 43/73/71 74/75/73 19/76/74
f 90/77/75 21/78/76 49/79/77
f 90/77/75 49/79/77 53/80/78
f 93/81/79 52/82/80 56/83/81
f 52/82/80 93/81/79 22/84/82
f 36/85/83 40/86/83 78/87/84
f 36/85/83 78/87/84 17/88/85
f 55/89/86 59/90/87 96/91/88
f 55/89/86 96/91/88 23/92/89
f 87/93/90 24/94/91 58/95/92
f 58/95/92 50/96/93 87/93/90
f 98/97/94 99/98/95 97/99/96
f 97/99/96 99/98/95 100/100/97
f 103/101/98 101/102/99 102/103/100
f 101/102/99 103/101/98 104/104/101
f 3/105/16 193/106/102 107/107/103
f 4/108/3 194/109/104 110/110/105
f 112/111/106 113/112/107 111/113/108
f 115/114/109 113/115/107 114/116/110
f 113/115/107 115/114/109 111/117/108
f 119/118/111 117/119/107 118/120/112
f 120/121/113 117/122/107 119/123/111
f 117/122/107 120/121/113 116/124/114
f 124/125/115 122/126/116 123/127/117
f 122/126/116 124/125/115 121/128/118
f 128/129/119 126/130/120 127/131/121
f 126/130/120 128/129/119 125/132/122
f 132/133/123 130/134/124 131/135/125
f 130/134/124 132/133/123 129/136/126
f 134/137/127 136/138/128 133/139/129
f 136/138/128 134/137/127 135/140/130
f 140/141/131 138/142/132 139/143/133
f 138/142/132 140/141/131 137/144/134
f 144/145/135 142/146/136 143/147/137
f 142/146/136 144/145/135 141/148/138
f 146/149/139 148/150/140 145/151/141
f 148/150/140 146/149/139 147/152/142
f 150/153/143 152/154/144 149/155/145
f 152/154/144 150/153/143 151/156/146
f 15/157/33 195/158/147 155/159/148
f 16/160/37 196/161/149 158/162/150
f 160/163/151 161/164/152 159/165/153
f 163/166/154 161/167/152 162/168/155
f 161/164/152 163/169/154 159/165/153
f 165/170/156 168/171/116 164/172/157
f 167/173/158 165/174/156 166/175/151
f 168/176/116 165/174/156 167/173/158
f 172/177/159 170/178/160 171/179/161
f 170/178/160 172/177/159 169/180/162
f 174/181/163 176/182/164 173/183/165
f 176/182/164 174/181/163 175/184/166
f 180/185/167 178/186/168 179/187/169
f 178/186/168 180/185/167 177/188/170
f 182/189/171 184/190/172 181/191/173
f 184/190/172 182/189/171 183/192/174
f 186/193/175 188/194/176 185/195/177
f 188/194/176 186/193/175 187/196/178
f 190/197/175 192/198/179 189/199/180
f 192/198/179 190/197/175 191/200/181
f 99/201/95 107/202/103 27/2/2
f 27/2/2 107/202/103 32/4/4
f 106/203/182 108/204/183 32/205/4
f 4/108/3 32/205/4 108/204/183
f 2/1/1 110/206/105 101/207/99
f 110/206/105 2/1/1 4/3/3
f 104/208/101 100/209/97 2/1/1
f 2/1/1 100/209/97 27/2/2
f 48/210/7 109/211/184 128/212/119
f 109/211/184 48/210/7 34/213/6
f 116/214/114 48/7/7 127/215/121
f 48/7/7 116/214/114 6/5/5
f 120/216/113 102/217/100 6/5/5
f 6/5/5 102/217/100 28/8/8
f 45/9/9 105/218/185 124/219/115
f 105/218/185 45/9/9 31/12/12
f 125/220/122 45/9/9 123/221/117
f 45/9/9 125/220/122 8/10/10
f 38/15/15 98/222/94 115/223/109
f 98/222/94 38/15/15 26/14/14
f 121/224/118 38/15/15 114/225/110
f 38/15/15 121/224/118 7/13/13
f 103/101/98 54/19/19 30/18/18
f 54/19/19 103/101/98 136/138/128
f 129/136/126 54/19/19 135/140/130
f 54/19/19 129/136/126 9/20/20
f 132/133/123 97/99/96 9/20/20
f 9/20/20 97/99/96 1/17/17
f 57/24/24 119/118/111 140/141/131
f 119/118/111 57/24/24 42/21/21
f 139/143/133 133/139/129 57/24/24
f 57/24/24 133/139/129 10/22/22
f 112/111/106 41/27/27 118/120/112
f 41/27/27 112/111/106 35/25/25
f 111/113/108 144/145/135 35/25/25
f 60/28/28 35/25/25 144/145/135
f 143/147/137 137/144/134 60/28/28
f 11/26/26 60/28/28 137/144/134
f 12/32/32 131/135/125 141/148/138
f 131/135/125 12/32/32 51/30/30
f 153/226/186 70/227/35 157/228/187
f 70/227/35 153/226/186 15/157/33
f 155/229/148 13/34/34 15/33/33
f 13/34/34 155/229/148 145/230/141
f 148/231/140 152/232/144 13/34/34
f 13/34/34 152/232/144 66/36/36
f 70/35/35 66/36/36 158/233/150
f 158/233/150 66/36/36 151/234/146
f 174/235/163 156/236/188 83/237/39
f 83/237/39 156/236/188 16/160/37
f 75/40/40 150/238/143 165/239/156
f 150/238/143 75/40/40 65/38/38
f 164/240/157 175/241/166 75/40/40
f 75/40/40 175/241/166 83/39/39
f 170/242/160 154/243/189 80/42/42
f 80/42/42 154/243/189 67/44/44
f 173/244/165 171/245/161 82/41/41
f 82/41/41 171/245/161 80/42/42
f 161/246/152 146/247/139 73/47/47
f 61/45/45 73/47/47 146/247/139
f 169/248/162 162/249/155 79/48/48
f 79/48/48 162/249/155 73/47/47
f 182/189/171 149/155/145 89/51/51
f 89/51/51 149/155/145 14/49/49
f 147/152/142 85/52/52 63/50/50
f 85/52/52 147/152/142 178/186/168
f 183/192/174 85/52/52 177/188/170
f 85/52/52 183/192/174 89/51/51
f 186/193/175 166/175/151 92/55/55
f 76/53/53 92/55/55 166/175/151
f 92/55/55 181/191/173 187/196/178
f 181/191/173 92/55/55 88/54/54
f 190/197/175 71/59/59 95/58/58
f 190/197/175 160/163/151 71/59/59
f 167/173/158 71/59/59 159/165/153
f 71/59/59 167/173/158 77/57/57
f 185/195/177 191/200/181 91/60/58
f 95/58/58 91/60/58 191/200/181
f 189/199/180 179/187/169 94/64/63
f 94/64/63 179/187/169 86/63/62
f 126/130/120 176/182/164 47/250/65
f 84/251/66 47/250/65 176/182/164
f 168/171/116 39/65/64 18/68/67
f 39/65/64 168/171/116 117/122/107
f 81/71/69 44/70/68 172/177/159
f 122/126/116 172/177/159 44/70/68
f 113/115/107 163/166/154 37/74/72
f 37/74/72 163/166/154 74/75/73
f 90/77/75 53/80/78 184/252/172
f 184/252/172 53/80/78 134/253/127
f 180/254/167 49/79/77 21/78/76
f 49/79/77 180/254/167 130/255/124
f 138/256/132 188/257/176 56/83/81
f 56/83/81 188/257/176 93/81/79
f 142/258/136 192/259/179 59/90/87
f 59/90/87 192/259/179 96/91/88
f 100/100/97 1/17/17 97/99/96
f 97/99/96 25/29/29 98/97/94
f 98/222/94 26/14/14 99/260/95
f 99/201/95 27/2/2 100/209/97
f 104/208/101 2/1/1 101/207/99
f 101/261/99 28/8/8 102/217/100
f 102/103/100 29/23/23 103/101/98
f 103/101/98 30/18/18 104/104/101
f 3/105/16 105/262/185 193/106/102
f 31/12/12 193/263/102 105/218/185
f 193/263/102 31/12/12 106/264/182
f 32/205/4 107/265/103 193/266/102
f 32/205/4 193/266/102 106/203/182
f 4/108/3 108/204/183 194/109/104
f 33/11/11 194/267/104 108/268/183
f 194/267/104 33/11/11 109/269/184
f 34/213/6 194/270/104 109/211/184
f 194/270/104 34/213/6 110/271/105
f 115/272/109 5/31/31 111/113/108
f 111/113/108 35/25/25 112/111/106
f 112/273/106 36/85/83 113/115/107
f 113/115/107 37/74/72 114/116/110
f 114/225/110 38/15/15 115/223/109
f 120/216/113 6/5/5 116/214/114
f 116/124/114 39/65/64 117/122/107
f 117/122/107 40/86/83 118/274/112
f 118/120/112 41/27/27 119/118/111
f 119/118/111 42/21/21 120/275/113
f 124/276/115 7/277/13 121/278/118
f 121/128/118 43/279/71 122/126/116
f 122/126/116 44/70/68 123/127/117
f 123/221/117 45/9/9 124/219/115
f 128/280/119 8/10/10 125/220/122
f 125/132/122 46/69/68 126/130/120
f 126/130/120 47/250/65 127/131/121
f 127/281/121 48/210/7 128/212/119
f 132/133/123 9/20/20 129/136/126
f 129/136/126 49/282/77 130/134/124
f 130/134/124 50/283/93 131/135/125
f 131/135/125 51/30/30 132/133/123
f 136/138/128 10/22/22 133/139/129
f 133/139/129 52/284/80 134/137/127
f 134/137/127 53/285/78 135/140/130
f 135/140/130 54/19/19 136/138/128
f 140/141/131 11/26/26 137/144/134
f 137/144/134 55/286/86 138/142/132
f 138/142/132 56/287/81 139/143/133
f 139/143/133 57/24/24 140/141/131
f 144/145/135 12/32/32 141/148/138
f 141/148/138 58/288/92 142/146/136
f 142/146/136 59/289/87 143/147/137
f 143/147/137 60/28/28 144/145/135
f 148/231/140 13/34/34 145/230/141
f 145/290/141 61/45/45 146/247/139
f 146/149/139 62/61/60 147/152/142
f 147/152/142 63/50/50 148/150/140
f 152/154/144 14/49/49 149/155/145
f 149/155/145 64/56/56 150/153/143
f 150/238/143 65/38/38 151/291/146
f 151/234/146 66/36/36 152/232/144
f 15/157/33 153/226/186 195/158/147
f 67/44/44 195/292/147 153/293/186
f 195/292/147 67/44/44 154/243/189
f 68/294/46 195/295/147 154/296/189
f 195/295/147 68/294/46 155/297/148
f 16/160/37 156/236/188 196/161/149
f 69/43/43 196/298/149 156/299/188
f 196/298/149 69/43/43 157/300/187
f 157/228/187 70/227/35 196/301/149
f 196/301/149 70/227/35 158/302/150
f 163/166/154 17/88/85 159/303/153
f 159/165/153 71/59/59 160/163/151
f 160/163/151 72/62/61 161/164/152
f 161/167/152 73/304/47 162/168/155
f 162/168/155 74/75/73 163/166/154
f 168/171/116 18/68/67 164/172/157
f 164/172/157 75/305/40 165/170/156
f 165/174/156 76/53/53 166/175/151
f 166/175/151 77/57/57 167/173/158
f 167/306/158 78/87/84 168/171/116
f 172/177/159 19/307/74 169/180/162
f 169/180/162 79/308/48 170/178/160
f 170/178/160 80/309/42 171/179/161
f 171/179/161 81/71/69 172/177/159
f 176/182/164 20/72/70 173/183/165
f 173/183/165 82/310/41 174/181/163
f 174/181/163 83/311/39 175/184/166
f 175/184/166 84/251/66 176/182/164
f 180/185/167 21/312/76 177/188/170
f 177/188/170 85/52/52 178/186/168
f 178/186/168 86/63/62 179/187/169
f 179/187/169 87/313/90 180/185/167
f 184/190/172 22/314/82 181/191/173
f 181/191/173 88/54/54 182/189/171
f 182/189/171 89/51/51 183/192/174
f 183/192/174 90/315/75 184/190/172
f 188/194/176 23/316/89 185/195/177
f 185/195/177 91/60/58 186/193/175
f 186/193/175 92/55/55 187/196/178
f 187/196/178 93/317/79 188/194/176
f 192/198/179 24/318/91 189/199/180
f 189/199/180 94/64/63 190/197/175
f 190/197/175 95/58/58 191/200/181
f 191/200/181 96/319/88 192/198/179
f 107/320/103 26/14/14 3/16/16
f 26/14/14 107/320/103 99/260/95
f 31/12/12 108/268/183 106/264/182
f 108/268/183 31/12/12 33/11/11
f 28/8/8 110/321/105 34/6/6
f 110/321/105 28/8/8 101/261/99
f 1/17/17 104/104/101 30/18/18
f 100/100/97 104/104/101 1/17/17
f 33/11/11 8/10/10 109/269/184
f 128/280/119 109/269/184 8/10/10
f 39/65/64 127/322/121 47/66/65
f 116/124/114 127/322/121 39/65/64
f 29/23/23 120/275/113 42/21/21
f 102/103/100 120/275/113 29/23/23
f 3/105/16 7/277/13 105/262/185
f 124/276/115 105/262/185 7/277/13
f 123/127/117 46/69/68 125/132/122
f 46/69/68 123/127/117 44/70/68
f 115/272/109 98/97/94 25/29/29
f 115/272/109 25/29/29 5/31/31
f 121/323/118 114/116/110 43/73/71
f 43/73/71 114/116/110 37/74/72
f 136/138/128 103/101/98 29/23/23
f 136/138/128 29/23/23 10/22/22
f 135/324/130 49/79/77 129/325/126
f 49/79/77 135/324/130 53/80/78
f 51/30/30 25/29/29 132/133/123
f 97/99/96 132/133/123 25/29/29
f 140/141/131 41/27/27 11/26/26
f 140/141/131 119/118/111 41/27/27
f 52/82/80 139/326/133 56/83/81
f 133/327/129 139/326/133 52/82/80
f 36/85/83 118/274/112 40/86/83
f 118/274/112 36/85/83 112/273/106
f 5/31/31 12/32/32 111/113/108
f 144/145/135 111/113/108 12/32/32
f 55/89/86 143/328/137 59/90/87
f 137/329/134 143/328/137 55/89/86
f 141/330/138 50/96/93 58/95/92
f 50/96/93 141/330/138 131/331/125
f 67/44/44 157/300/187 69/43/43
f 157/300/187 67/44/44 153/293/186
f 61/45/45 155/332/148 68/46/46
f 155/332/148 61/45/45 145/290/141
f 14/49/49 148/150/140 63/50/50
f 152/154/144 148/150/140 14/49/49
f 158/333/150 65/38/38 16/37/37
f 65/38/38 158/333/150 151/291/146
f 82/41/41 156/299/188 174/334/163
f 156/299/188 82/41/41 69/43/43
f 165/174/156 64/56/56 76/53/53
f 165/174/156 150/153/143 64/56/56
f 175/335/166 164/172/157 84/67/66
f 84/67/66 164/172/157 18/68/67
f 79/336/48 154/296/189 170/337/160
f 154/296/189 79/336/48 68/294/46
f 81/71/69 173/183/165 20/72/70
f 173/183/165 81/71/69 171/179/161
f 62/61/60 161/164/152 72/62/61
f 146/149/139 161/164/152 62/61/60
f 74/75/73 169/338/162 19/76/74
f 169/338/162 74/75/73 162/168/155
f 88/54/54 64/56/56 182/189/171
f 149/155/145 182/189/171 64/56/56
f 178/186/168 147/152/142 62/61/60
f 178/186/168 62/61/60 86/63/62
f 90/77/75 177/339/170 21/78/76
f 183/340/174 177/339/170 90/77/75
f 77/57/57 186/193/175 91/60/58
f 166/175/151 186/193/175 77/57/57
f 187/341/178 22/84/82 93/81/79
f 22/84/82 187/341/178 181/342/173
f 94/64/63 160/163/151 190/197/175
f 160/163/151 94/64/63 72/62/61
f 17/88/85 78/87/84 159/303/153
f 159/303/153 78/87/84 167/306/158
f 185/343/177 96/91/88 191/344/181
f 96/91/88 185/343/177 23/92/89
f 87/93/90 189/345/180 24/94/91
f 179/346/169 189/345/180 87/93/90
f 46/69/68 176/182/164 126/130/120
f 176/182/164 46/69/68 20/72/70
f 117/122/107 168/171/116 40/86/83
f 40/86/83 168/171/116 78/87/84
f 172/177/159 43/279/71 19/307/74
f 43/279/71 172/177/159 122/126/116
f 163/166/154 36/85/83 17/88/85
f 36/85/83 163/166/154 113/115/107
f 184/347/172 52/82/80 22/84/82
f 52/82/80 184/347/172 134/348/127
f 180/349/167 50/96/93 130/350/124
f 50/96/93 180/349/167 87/93/90
f 55/89/86 188/351/176 138/352/132
f 188/351/176 55/89/86 23/92/89
f 58/95/92 192/353/179 142/354/136
f 192/353/179 58/95/92 24/94/91
