# Blender 4.0.0
# www.blender.org
o freezer_drawer2
v -0.40637300 -0.21231800 -0.19525550
v -0.06892100 -0.21069500 -0.19685450
v -0.40913000 0.31233200 -0.19525550
v -0.06892100 0.31231700 -0.19685450
v -0.40907100 -0.21386500 0.08011350
v -0.06576200 -0.21225500 0.08055850
v -0.41067500 0.31387700 0.08055850
v -0.06736200 0.31547600 0.08055850
v -0.34658100 -0.21384600 -0.00338750
v -0.12732400 -0.21386100 -0.00136750
v -0.12911700 -0.21386900 0.06824450
v -0.34911300 -0.21384800 0.06539050
v -0.40051000 -0.20369000 -0.18984850
v -0.07699900 -0.20528900 -0.18824950
v -0.40051000 0.30531100 -0.18984850
v -0.07432800 0.30531100 -0.18824950
v -0.40144700 -0.20688800 0.08215750
v -0.07272900 -0.20462600 0.08215750
v -0.40370900 0.30624800 0.08215750
v -0.07499000 0.30851000 0.08215750
v -0.34591500 -0.20688800 -0.00178850
v -0.12892300 -0.20688800 -0.00018950
v -0.13052200 -0.20688800 0.06664450
v -0.34751400 -0.20688800 0.06504550
v -0.40757200 -0.21235000 -0.19087950
v -0.40913000 -0.21071000 -0.19525550
v -0.40751600 -0.21069500 -0.19685450
v -0.06730700 -0.21071000 -0.19525550
v -0.06886500 -0.21235000 -0.19087950
v -0.07006400 -0.21231800 -0.19525550
v -0.40753100 0.31393100 -0.19525550
v -0.40751600 0.31231700 -0.19685450
v -0.06890600 0.31393100 -0.19525550
v -0.06730700 0.31233200 -0.19525550
v -0.39747100 -0.21386900 0.08055850
v -0.40682900 -0.21227000 0.08215750
v -0.40909000 -0.21000800 0.08215750
v -0.41067500 -0.21225500 0.08055850
v -0.06734700 -0.21000800 0.08215750
v -0.06960800 -0.21227000 0.08215750
v -0.07896600 -0.21386900 0.08055850
v -0.06736600 -0.21386500 0.08011350
v -0.40909000 0.31163000 0.08215750
v -0.40682900 0.31389200 0.08215750
v -0.40907500 0.31547600 0.08055850
v -0.06960800 0.31389200 0.08215750
v -0.06734700 0.31163000 0.08215750
v -0.06576200 0.31387700 0.08055850
v -0.34591500 -0.21227000 -0.00178850
v -0.34751400 -0.21227000 -0.00018950
v -0.34911300 -0.21386100 -0.00136750
v -0.12892300 -0.21227000 -0.00018950
v -0.13052200 -0.21227000 -0.00178850
v -0.12985600 -0.21384600 -0.00338750
v -0.13052200 -0.21227000 0.06664450
v -0.12892300 -0.21227000 0.06504550
v -0.12732400 -0.21384800 0.06539050
v -0.34751400 -0.21227000 0.06504550
v -0.34591500 -0.21227000 0.06664450
v -0.34732100 -0.21386900 0.06824450
v -0.40210900 -0.20369000 -0.18824950
v -0.40051000 -0.20528900 -0.18347850
v -0.39943800 -0.20528900 -0.18824950
v -0.07592700 -0.20528900 -0.18347850
v -0.07432800 -0.20369000 -0.18824950
v -0.07592700 -0.20369000 -0.18984850
v -0.40051000 0.30691100 -0.18824950
v -0.40210900 0.30531100 -0.18824950
v -0.07592700 0.30691100 -0.18824950
v -0.07592700 0.30531100 -0.18984850
v -0.39063100 -0.20528900 0.08055850
v -0.40051000 -0.20528900 0.08004150
v -0.40210900 -0.20369000 0.08055850
v -0.40370900 -0.20462600 0.08215750
v -0.07432800 -0.20369000 0.08055850
v -0.07592700 -0.20528900 0.08004150
v -0.08580700 -0.20528900 0.08055850
v -0.07499000 -0.20688800 0.08215750
v -0.40210900 0.30531100 0.08055850
v -0.40051000 0.30691100 0.08055850
v -0.40144700 0.30851000 0.08215750
v -0.07592700 0.30691100 0.08055850
v -0.07432800 0.30531100 0.08055850
v -0.07272900 0.30624800 0.08215750
v -0.34655700 -0.20528900 -0.00338750
v -0.34911300 -0.20528900 -0.00138750
v -0.34751400 -0.20688800 -0.00018950
v -0.12732400 -0.20528900 -0.00138750
v -0.12988100 -0.20528900 -0.00338750
v -0.13052200 -0.20688800 -0.00178850
v -0.12914600 -0.20528900 0.06824450
v -0.12732400 -0.20528900 0.06543650
v -0.12892300 -0.20688800 0.06504550
v -0.34911300 -0.20528900 0.06543650
v -0.34729100 -0.20528900 0.06824450
v -0.34591500 -0.20688800 0.06664450
v -0.40804400 -0.21231400 -0.19496150
v -0.40873300 -0.21191200 -0.19496150
v -0.40871900 -0.21149900 -0.19645550
v -0.40803000 -0.21190100 -0.19645550
v -0.06771800 -0.21149900 -0.19645550
v -0.06770400 -0.21191200 -0.19496150
v -0.06839300 -0.21231400 -0.19496150
v -0.06840700 -0.21190100 -0.19645550
v -0.40873000 0.31353200 -0.19525550
v -0.40752000 0.31352000 -0.19645550
v -0.40871900 0.31232100 -0.19645550
v -0.06891700 0.31352000 -0.19645550
v -0.06770700 0.31353200 -0.19525550
v -0.06771800 0.31232100 -0.19645550
v -0.40698100 -0.21386800 0.08124750
v -0.40642000 -0.21346900 0.08175850
v -0.40932500 -0.21250400 0.08215750
v -0.41028600 -0.21250000 0.08175850
v -0.41028100 -0.21346500 0.08124750
v -0.06615100 -0.21250000 0.08175850
v -0.06711200 -0.21250400 0.08215750
v -0.07001700 -0.21346900 0.08175850
v -0.06945700 -0.21386800 0.08124750
v -0.06615600 -0.21346500 0.08124750
v -0.41028600 0.31412200 0.08175850
v -0.40932500 0.31412600 0.08215750
v -0.40932100 0.31508700 0.08175850
v -0.41028200 0.31508400 0.08135850
v -0.06711600 0.31508700 0.08175850
v -0.06711200 0.31412600 0.08215750
v -0.06615100 0.31412200 0.08175850
v -0.06615500 0.31508400 0.08135850
v -0.34688100 -0.21346300 -0.00218850
v -0.34711400 -0.21306900 -0.00138850
v -0.34791400 -0.21346700 -0.00128350
v -0.34768100 -0.21386100 -0.00208350
v -0.12852300 -0.21346700 -0.00128350
v -0.12932300 -0.21306900 -0.00138850
v -0.12955600 -0.21346300 -0.00218850
v -0.12875700 -0.21386100 -0.00208350
v -0.12937100 -0.21346900 0.06704450
v -0.12932300 -0.21306900 0.06624550
v -0.12852300 -0.21346400 0.06593150
v -0.12857200 -0.21386400 0.06673150
v -0.34791400 -0.21346400 0.06593150
v -0.34711400 -0.21306900 0.06624550
v -0.34706600 -0.21346900 0.06704450
v -0.34786500 -0.21386400 0.06673150
v -0.40171000 -0.20448900 -0.18944950
v -0.40171000 -0.20488900 -0.18785650
v -0.40104200 -0.20528900 -0.18785650
v -0.40104200 -0.20488900 -0.18944950
v -0.07539500 -0.20528900 -0.18785650
v -0.07472800 -0.20488900 -0.18785650
v -0.07472800 -0.20448900 -0.18944950
v -0.07539500 -0.20488900 -0.18944950
v -0.40051000 0.30651100 -0.18944950
v -0.40171000 0.30651100 -0.18824950
v -0.40171000 0.30531100 -0.18944950
v -0.07472800 0.30651100 -0.18824950
v -0.07592700 0.30651100 -0.18944950
v -0.07472800 0.30531100 -0.18944950
v -0.39907400 -0.20568900 0.08175850
v -0.39884000 -0.20528900 0.08122850
v -0.40171000 -0.20488900 0.08122850
v -0.40250900 -0.20472300 0.08175850
v -0.40234400 -0.20552300 0.08215750
v -0.07392800 -0.20472300 0.08175850
v -0.07472800 -0.20488900 0.08122850
v -0.07759700 -0.20528900 0.08122850
v -0.07736300 -0.20568900 0.08175850
v -0.07409400 -0.20552300 0.08215750
v -0.40250900 0.30634500 0.08175850
v -0.40171000 0.30651100 0.08135850
v -0.40154400 0.30731000 0.08175850
v -0.40234400 0.30714500 0.08215750
v -0.07489300 0.30731000 0.08175850
v -0.07472800 0.30651100 0.08135850
v -0.07392800 0.30634500 0.08175850
v -0.07409400 0.30714500 0.08215750
v -0.34687500 -0.20568900 -0.00218850
v -0.34767400 -0.20528900 -0.00208850
v -0.34791400 -0.20568900 -0.00128850
v -0.34711400 -0.20608800 -0.00138850
v -0.12852300 -0.20568900 -0.00128850
v -0.12876300 -0.20528900 -0.00208850
v -0.12956200 -0.20568900 -0.00218850
v -0.12932300 -0.20608800 -0.00138850
v -0.12937900 -0.20568900 0.06704450
v -0.12857900 -0.20528900 0.06674250
v -0.12852300 -0.20568900 0.06594350
v -0.12932300 -0.20608800 0.06624550
v -0.34791400 -0.20568900 0.06594350
v -0.34785800 -0.20528900 0.06674250
v -0.34705900 -0.20568900 0.06704450
v -0.34711400 -0.20608800 0.06624550
v -0.40872200 0.31322300 -0.19615550
v -0.06801800 0.31322000 -0.19645550
v -0.40141000 0.30621100 -0.18944950
v -0.07472800 0.30621100 -0.18914950
vn 0.0015 -0.0010 -1.0000
vn -0.0025 0.0001 -1.0000
vn 0.0014 0.0009 -1.0000
vn -0.0015 0.0010 -1.0000
vn 0.9997 -0.0144 -0.0174
vn 1.0000 0.0004 -0.0099
vn 1.0000 -0.0001 -0.0043
vn 1.0000 -0.0009 -0.0097
vn -0.0003 1.0000 -0.0043
vn 0.0008 1.0000 -0.0047
vn 0.0254 0.9996 0.0113
vn -0.0011 0.9999 -0.0100
vn -0.9998 0.0140 -0.0172
vn -0.9999 -0.0003 -0.0101
vn -1.0000 -0.0000 -0.0043
vn -1.0000 0.0011 -0.0095
vn 0.0003 -0.9999 -0.0168
vn 0.0256 -0.9995 -0.0178
vn 0.0106 -0.9999 -0.0047
vn 0.0227 -0.9996 -0.0139
vn 0.0416 -0.9982 -0.0434
vn -0.0057 -0.9998 -0.0215
vn 0.0183 -0.9998 -0.0065
vn 0.0042 -1.0000 -0.0075
vn 0.0018 -0.9993 0.0366
vn -0.0001 -0.9998 -0.0222
vn -0.0000 -0.9993 0.0366
vn 0.0001 -0.9998 -0.0222
vn -0.0204 -0.9996 0.0185
vn -0.0142 -0.9996 0.0257
vn -0.0158 -0.9999 -0.0052
vn -0.0042 -1.0000 -0.0075
vn 0.0015 -0.0010 1.0000
vn 0.0024 0.0002 1.0000
vn -0.0015 -0.0010 1.0000
vn -0.0015 0.0010 1.0000
vn -1.0000 -0.0010 0.0025
vn -0.9998 0.0161 -0.0117
vn -1.0000 -0.0005 0.0020
vn -1.0000 0.0010 0.0025
vn -0.0015 -1.0000 0.0025
vn -0.0223 -0.9994 0.0267
vn -0.0016 -1.0000 0.0026
vn 0.0016 -1.0000 0.0025
vn 1.0000 0.0010 0.0025
vn 0.9997 -0.0194 -0.0138
vn 1.0000 0.0006 0.0020
vn 1.0000 -0.0010 0.0025
vn -0.0000 1.0000 0.0017
vn 0.0167 0.9999 0.0020
vn -0.0214 0.9998 -0.0041
vn -0.0000 1.0000 0.0009
vn -0.0228 0.9988 0.0436
vn -0.0008 1.0000 0.0003
vn -0.0003 1.0000 -0.0000
vn -0.0019 0.9996 -0.0265
vn -0.0024 1.0000 0.0015
vn -0.0000 1.0000 -0.0009
vn -0.0000 1.0000 0.0015
vn 0.0001 1.0000 -0.0000
vn 0.0228 0.9988 0.0436
vn 0.0102 0.9998 -0.0155
vn 0.0003 1.0000 -0.0000
vn 0.0110 -0.0000 0.9999
vn -0.0105 -0.0003 0.9999
vn -0.0106 -0.0000 0.9999
vn -0.0000 0.0074 1.0000
vn -0.0000 0.0073 1.0000
vn 0.0004 -0.0068 1.0000
vn -0.0000 -0.0070 1.0000
vn -0.0110 -0.0000 0.9999
vn -0.0109 -0.0000 0.9999
vn 0.0105 0.0003 0.9999
vn 0.0106 -0.0000 0.9999
vn -0.0029 0.0609 0.9981
vn 0.0028 0.0609 0.9981
vn 0.0041 -0.0593 0.9982
vn -0.0029 -0.0610 0.9981
vn -0.9987 0.0461 -0.0234
vn -0.9980 -0.0621 0.0107
vn -0.9980 -0.0616 -0.0103
vn -0.9980 0.0618 0.0104
vn -0.0000 -0.0072 1.0000
vn -0.0002 0.0068 1.0000
vn -0.0000 0.0069 1.0000
vn -0.0029 -0.0610 -0.9981
vn 0.0028 -0.0610 -0.9981
vn 0.0042 0.0593 -0.9982
vn -0.0029 0.0610 -0.9981
vn 0.9980 0.0621 0.0107
vn 0.9980 0.0616 -0.0103
vn 0.9987 -0.0460 -0.0234
vn 0.9980 -0.0618 0.0104
vn -0.7113 -0.7028 -0.0122
vn -0.7041 -0.0015 -0.7101
vn -0.0106 -0.9999 -0.0121
vn -0.0012 -0.7023 -0.7119
vn 0.0106 -0.9999 -0.0120
vn 0.7041 -0.0015 -0.7101
vn 0.7114 -0.7027 -0.0121
vn 0.0012 -0.7023 -0.7119
vn -0.5737 0.5737 -0.5845
vn -0.7035 0.0005 -0.7107
vn 0.5737 0.5737 -0.5845
vn 0.7040 0.0005 -0.7102
vn -0.0006 -0.7003 0.7138
vn -0.0000 -0.0002 1.0000
vn -0.0041 -0.9997 0.0239
vn -0.7070 -0.7072 -0.0012
vn -0.7099 -0.0028 0.7043
vn 0.0041 -0.9997 0.0239
vn 0.0006 -0.7003 0.7138
vn 0.7070 -0.7072 -0.0012
vn 0.7099 -0.0028 0.7043
vn -0.7071 0.7071 -0.0077
vn -0.0001 0.0001 1.0000
vn -0.0007 0.7112 0.7030
vn -0.7109 0.0005 0.7033
vn 0.7069 0.7073 -0.0077
vn 0.0001 0.0001 1.0000
vn 0.7109 0.0005 0.7033
vn 0.0007 0.7112 0.7030
vn -0.0023 -1.0000 -0.0060
vn 0.7007 -0.0966 0.7069
vn 0.6966 -0.7174 0.0115
vn 0.0030 -0.7138 0.7004
vn -0.7007 -0.0966 0.7069
vn 0.0024 -1.0000 -0.0060
vn -0.6966 -0.7174 0.0115
vn -0.0030 -0.7138 0.7004
vn -0.0044 -1.0000 -0.0076
vn -0.7104 -0.0968 -0.6972
vn -0.6983 -0.7157 -0.0106
vn -0.0033 -0.7100 -0.7042
vn 0.0044 -1.0000 -0.0076
vn 0.7104 -0.0968 -0.6971
vn 0.0033 -0.7100 -0.7041
vn 0.6983 -0.7157 -0.0106
vn 0.7094 0.7048 0.0007
vn 0.0013 0.7075 0.7067
vn 0.7075 0.0017 0.7067
vn -0.0027 1.0000 -0.0009
vn -0.7094 0.7048 0.0007
vn -0.0013 0.7075 0.7067
vn 0.0027 1.0000 -0.0009
vn -0.7075 0.0017 0.7067
vn 0.5773 -0.5774 0.5774
vn 0.7074 -0.0005 0.7068
vn -0.5774 -0.5774 0.5773
vn -0.7068 -0.0006 0.7074
vn -0.0000 1.0000 0.0001
vn 0.7055 0.7087 0.0059
vn 0.0017 0.6986 0.7155
vn -0.0000 0.0002 1.0000
vn 0.7057 0.0033 0.7085
vn -0.7055 0.7087 0.0059
vn -0.0001 0.0002 1.0000
vn -0.7057 0.0033 0.7085
vn -0.0016 0.6986 0.7155
vn -0.0001 -0.0002 1.0000
vn 0.7071 -0.7071 0.0042
vn 0.0018 -0.7059 0.7083
vn 0.7063 -0.0012 0.7079
vn -0.7070 -0.7072 0.0042
vn -0.0000 -0.0000 1.0000
vn -0.0018 -0.7059 0.7083
vn -0.7063 -0.0012 0.7079
vn 0.7002 0.0965 0.7073
vn 0.0008 1.0000 0.0009
vn 0.6996 0.7144 0.0116
vn 0.0030 0.7086 0.7056
vn -0.0008 1.0000 0.0010
vn -0.7002 0.0965 0.7073
vn -0.6996 0.7144 0.0116
vn -0.0030 0.7086 0.7056
vn -0.0000 1.0000 -0.0000
vn -0.7101 0.0967 -0.6974
vn -0.0033 0.7100 -0.7042
vn -0.7013 0.7127 -0.0107
vn 0.7101 0.0967 -0.6975
vn 0.7014 0.7127 -0.0107
vn 0.0033 0.7100 -0.7042
vn -0.0014 0.7032 -0.7110
vn 0.0007 0.7042 -0.7100
vn 0.7070 0.7071 -0.0127
vn -0.7064 0.7077 -0.0118
vn 0.0007 -0.7076 0.7066
vn -0.0014 -0.7071 0.7072
vn -0.7062 -0.7080 0.0012
vn 0.7075 -0.7068 0.0023
vt 0.690346 0.976882
vt 0.683297 0.976883
vt 0.690346 0.965394
vt 0.683297 0.965395
vt 0.685320 0.977640
vt 0.679586 0.966117
vt 0.685320 0.966085
vt 0.679586 0.977608
vt 0.676214 0.983556
vt 0.676214 0.976442
vt 0.681954 0.976474
vt 0.681954 0.983523
vt 0.676910 0.971239
vt 0.682644 0.982762
vt 0.676910 0.982794
vt 0.682644 0.971271
vt 0.684170 0.965991
vt 0.684170 0.972993
vt 0.680178 0.971748
vt 0.680178 0.967236
vt 0.678441 0.973049
vt 0.680136 0.971801
vt 0.684079 0.973018
vt 0.678747 0.971801
vt 0.678431 0.966177
vt 0.678688 0.971763
vt 0.678431 0.972807
vt 0.678688 0.967221
vt 0.684079 0.965967
vt 0.680136 0.967183
vt 0.678441 0.965935
vt 0.678747 0.967183
vt 0.680833 0.976774
vt 0.680833 0.965577
vt 0.687590 0.976775
vt 0.687590 0.965577
vt 0.683301 0.969833
vt 0.683302 0.981032
vt 0.677712 0.969833
vt 0.677712 0.981032
vt 0.687216 0.970587
vt 0.687216 0.977344
vt 0.681623 0.970587
vt 0.681623 0.977344
vt 0.683352 0.981032
vt 0.683353 0.969833
vt 0.688942 0.981032
vt 0.688943 0.969833
vt 0.690800 0.976659
vt 0.690800 0.983372
vt 0.686952 0.977760
vt 0.686952 0.982271
vt 0.685215 0.976637
vt 0.686910 0.977707
vt 0.685519 0.977707
vt 0.690700 0.976637
vt 0.685204 0.976843
vt 0.685461 0.982286
vt 0.685204 0.983188
vt 0.685461 0.977745
vt 0.690700 0.983394
vt 0.685215 0.983394
vt 0.686910 0.982324
vt 0.685519 0.982324
vt 0.690593 0.963845
vt 0.690593 0.975305
vt 0.690481 0.975194
vt 0.690481 0.963957
vt 0.691046 0.974853
vt 0.684026 0.974852
vt 0.684138 0.974740
vt 0.690934 0.974741
vt 0.683479 0.975305
vt 0.683479 0.963845
vt 0.683591 0.963957
vt 0.683591 0.975193
vt 0.675649 0.965876
vt 0.675649 0.970360
vt 0.675537 0.970360
vt 0.675537 0.965876
vt 0.677461 0.977630
vt 0.677349 0.978987
vt 0.677349 0.977630
vt 0.677461 0.978987
vt 0.683526 0.963798
vt 0.690546 0.963798
vt 0.690434 0.963910
vt 0.683638 0.963910
vt 0.675861 0.970359
vt 0.675861 0.965876
vt 0.675973 0.965876
vt 0.675973 0.970359
vt 0.677673 0.978987
vt 0.677673 0.977630
vt 0.677785 0.977630
vt 0.677785 0.978987
vt 0.684163 0.965942
vt 0.684194 0.965943
vt 0.684164 0.965957
vt 0.684194 0.965957
vt 0.684164 0.973027
vt 0.684194 0.973041
vt 0.684163 0.973042
vt 0.684194 0.973027
vt 0.683143 0.970771
vt 0.683162 0.970753
vt 0.683168 0.970771
vt 0.690846 0.964894
vt 0.690865 0.964875
vt 0.690871 0.964893
vt 0.678406 0.965990
vt 0.678397 0.965930
vt 0.678417 0.965979
vt 0.683454 0.963773
vt 0.683474 0.963793
vt 0.683454 0.963793
vt 0.683523 0.963765
vt 0.678417 0.973005
vt 0.678397 0.973054
vt 0.678406 0.972994
vt 0.690618 0.963774
vt 0.690598 0.963793
vt 0.690549 0.963765
vt 0.690618 0.963793
vt 0.683954 0.974878
vt 0.683974 0.974857
vt 0.683974 0.974877
vt 0.683954 0.974857
vt 0.691118 0.974878
vt 0.691098 0.974858
vt 0.691118 0.974858
vt 0.691098 0.974878
vt 0.680151 0.967213
vt 0.680136 0.967225
vt 0.680134 0.967208
vt 0.680153 0.967230
vt 0.680136 0.971759
vt 0.680151 0.971771
vt 0.680134 0.971776
vt 0.680153 0.971754
vt 0.678719 0.971775
vt 0.678729 0.971759
vt 0.678735 0.971776
vt 0.678712 0.971758
vt 0.678719 0.967209
vt 0.678729 0.967225
vt 0.678712 0.967226
vt 0.678735 0.967208
vt 0.690791 0.983419
vt 0.690825 0.983405
vt 0.690825 0.983419
vt 0.690791 0.983405
vt 0.690791 0.976612
vt 0.690825 0.976626
vt 0.690791 0.976626
vt 0.690825 0.976612
vt 0.681333 0.976274
vt 0.681314 0.976293
vt 0.681308 0.976274
vt 0.683801 0.969333
vt 0.683820 0.969314
vt 0.683827 0.969333
vt 0.685190 0.983359
vt 0.685190 0.983419
vt 0.685179 0.983364
vt 0.683619 0.963938
vt 0.683632 0.963952
vt 0.683616 0.963955
vt 0.685171 0.983432
vt 0.690439 0.963952
vt 0.690453 0.963939
vt 0.690456 0.963955
vt 0.685179 0.976667
vt 0.685190 0.976612
vt 0.685190 0.976672
vt 0.685171 0.976599
vt 0.684119 0.974712
vt 0.684132 0.974699
vt 0.684136 0.974716
vt 0.684116 0.974696
vt 0.690939 0.974699
vt 0.690952 0.974712
vt 0.690936 0.974716
vt 0.690956 0.974696
vt 0.686910 0.982282
vt 0.686925 0.982294
vt 0.686908 0.982299
vt 0.686926 0.982277
vt 0.686925 0.977737
vt 0.686910 0.977749
vt 0.686908 0.977732
vt 0.686926 0.977754
vt 0.685492 0.977733
vt 0.685502 0.977749
vt 0.685485 0.977750
vt 0.685508 0.977732
vt 0.685492 0.982298
vt 0.685502 0.982282
vt 0.685508 0.982299
vt 0.685485 0.982281
vt 0.683272 0.976899
vt 0.683272 0.965394
vt 0.683797 0.964869
vt 0.690846 0.964868
vt 0.683797 0.964895
vt 0.690371 0.965393
vt 0.690371 0.976898
vt 0.690356 0.976906
vt 0.683286 0.976907
vt 0.685820 0.965585
vt 0.680086 0.965592
vt 0.685837 0.965560
vt 0.680086 0.965617
vt 0.685345 0.977645
vt 0.685345 0.966080
vt 0.685334 0.977665
vt 0.679592 0.977633
vt 0.681954 0.983548
vt 0.676197 0.983581
vt 0.676189 0.976437
vt 0.676189 0.983561
vt 0.682637 0.982787
vt 0.676895 0.982819
vt 0.676884 0.971234
vt 0.676885 0.982799
vt 0.681333 0.976299
vt 0.688090 0.976275
vt 0.688090 0.976299
vt 0.680808 0.976774
vt 0.680808 0.965560
vt 0.680822 0.965552
vt 0.687601 0.965552
vt 0.687615 0.976774
vt 0.687615 0.965560
vt 0.678195 0.969308
vt 0.683802 0.969308
vt 0.678212 0.969333
vt 0.683294 0.981057
vt 0.677698 0.981057
vt 0.677687 0.981053
vt 0.677686 0.969811
vt 0.687232 0.977369
vt 0.681622 0.977369
vt 0.687241 0.970565
vt 0.687241 0.977365
vt 0.688956 0.981057
vt 0.683360 0.981057
vt 0.688968 0.969811
vt 0.688967 0.981053
vt 0.691093 0.974806
vt 0.690981 0.974694
vt 0.675666 0.965851
vt 0.675520 0.965851
vt 0.675666 0.970385
vt 0.675520 0.970385
vt 0.677332 0.977606
vt 0.677478 0.977606
vt 0.675844 0.965851
vt 0.675990 0.965851
vt 0.682668 0.982778
vt 0.679561 0.977624
vt 0.683143 0.970746
vt 0.681973 0.983548
vt 0.681979 0.983523
vt 0.683772 0.964894
vt 0.683772 0.964876
vt 0.681979 0.976456
vt 0.681979 0.976474
vt 0.681954 0.976449
vt 0.680062 0.965599
vt 0.680061 0.965617
vt 0.678417 0.965910
vt 0.683534 0.963773
vt 0.690537 0.963773
vt 0.678417 0.973074
vt 0.677392 0.970714
vt 0.677409 0.970739
vt 0.677384 0.970734
vt 0.683979 0.974805
vt 0.676197 0.976417
vt 0.685845 0.965580
vt 0.680144 0.967250
vt 0.680111 0.967217
vt 0.680111 0.971767
vt 0.680144 0.971734
vt 0.678720 0.971734
vt 0.678753 0.971767
vt 0.678753 0.967217
vt 0.678720 0.967250
vt 0.683327 0.981048
vt 0.681597 0.977363
vt 0.681597 0.977344
vt 0.683853 0.969333
vt 0.683827 0.969314
vt 0.683852 0.969308
vt 0.683827 0.969333
vt 0.681603 0.970562
vt 0.681622 0.970562
vt 0.681597 0.970587
vt 0.688115 0.976293
vt 0.688115 0.976275
vt 0.683687 0.963935
vt 0.683624 0.963977
vt 0.690448 0.963977
vt 0.690385 0.963935
vt 0.684091 0.974693
vt 0.684124 0.974674
vt 0.684157 0.974708
vt 0.690914 0.974708
vt 0.690948 0.974675
vt 0.686918 0.982257
vt 0.686885 0.982291
vt 0.686885 0.977740
vt 0.686918 0.977773
vt 0.685493 0.977773
vt 0.685527 0.977740
vt 0.685527 0.982291
vt 0.685493 0.982257
vt 0.682668 0.971271
vt 0.679561 0.966117
vt 0.690618 0.975358
vt 0.683454 0.975357
vt 0.675512 0.965856
vt 0.675512 0.970380
vt 0.677324 0.977612
vt 0.677324 0.979009
vt 0.675836 0.965852
vt 0.675836 0.970383
vt 0.677810 0.977612
vt 0.677810 0.979009
vt 0.683328 0.969833
vt 0.683327 0.969833
vt 0.687232 0.970562
vt 0.690456 0.975196
vt 0.689442 0.969333
vt 0.689459 0.969308
vt 0.683616 0.975195
vt 0.675674 0.970380
vt 0.675674 0.965856
vt 0.677486 0.977611
vt 0.677486 0.979009
vt 0.675998 0.970383
vt 0.675998 0.965852
vt 0.677648 0.977611
vt 0.677648 0.979009
vt 0.677478 0.979012
vt 0.677332 0.979012
vt 0.677656 0.979012
vt 0.677801 0.979012
vt 0.675990 0.970385
vt 0.675844 0.970384
vt 0.677656 0.977606
vt 0.677801 0.977606
s 1
f 2/1/1 27/2/2 4/3/3
f 27/2/2 32/4/4 4/3/3
f 6/5/5 34/6/6 48/7/7
f 34/6/6 6/5/5 28/8/8
f 45/9/9 8/10/10 33/11/11
f 45/9/9 33/11/11 31/12/12
f 7/13/13 26/14/14 38/15/15
f 26/14/14 7/13/13 3/16/16
f 1/17/17 30/18/18 54/19/19
f 1/17/17 54/19/19 9/20/20
f 42/21/21 10/22/22 29/23/23
f 10/22/22 42/21/21 57/24/24
f 35/25/25 11/26/26 41/27/27
f 11/26/26 35/25/25 60/28/28
f 25/29/29 51/30/30 5/31/31
f 12/32/32 5/31/31 51/30/30
f 15/33/33 13/34/34 70/35/35
f 70/35/35 13/34/34 66/36/36
f 16/37/37 65/38/38 83/39/39
f 75/40/40 83/39/39 65/38/38
f 82/41/41 80/42/42 69/43/43
f 80/42/42 67/44/44 69/43/43
f 61/45/45 68/46/46 73/47/47
f 79/48/48 73/47/47 68/46/46
f 14/49/49 63/50/50 89/51/51
f 89/51/51 63/50/50 85/52/52
f 76/53/53 88/54/54 92/55/55
f 88/54/54 76/53/53 64/56/56
f 77/57/57 95/58/58 71/59/59
f 95/58/58 77/57/57 91/60/58
f 62/61/60 72/62/61 86/63/62
f 72/62/61 94/64/63 86/63/62
f 39/65/64 47/66/64 84/67/65
f 39/65/64 84/67/65 18/68/66
f 46/69/67 44/70/68 81/71/69
f 46/69/67 81/71/69 20/72/70
f 43/73/71 37/74/72 74/75/73
f 43/73/71 74/75/73 19/76/74
f 90/77/75 21/78/76 49/79/77
f 90/77/75 49/79/77 53/80/78
f 93/81/79 52/82/80 56/83/81
f 52/82/80 93/81/79 22/84/82
f 36/85/83 40/86/83 78/87/84
f 36/85/83 78/87/84 17/88/85
f 55/89/86 59/90/87 96/91/88
f 55/89/86 96/91/88 23/92/89
f 87/93/90 24/94/91 58/95/92
f 58/95/92 50/96/93 87/93/90
f 98/97/94 99/98/95 97/99/96
f 97/99/96 99/98/95 100/100/97
f 103/101/98 101/102/99 102/103/100
f 101/102/99 103/101/98 104/104/101
f 3/105/16 193/106/102 107/107/103
f 4/108/3 194/109/104 110/110/105
f 112/111/106 113/112/107 111/113/108
f 115/114/109 113/115/107 114/116/110
f 113/115/107 115/114/109 111/117/108
f 119/118/111 117/119/107 118/120/112
f 120/121/113 117/122/107 119/123/111
f 117/122/107 120/121/113 116/124/114
f 124/125/115 122/126/116 123/127/117
f 122/126/116 124/125/115 121/128/118
f 128/129/119 126/130/120 127/131/121
f 126/130/120 128/129/119 125/132/122
f 132/133/123 130/134/124 131/135/125
f 130/134/124 132/133/123 129/136/126
f 134/137/127 136/138/128 133/139/129
f 136/138/128 134/137/127 135/140/130
f 140/141/131 138/142/132 139/143/133
f 138/142/132 140/141/131 137/144/134
f 144/145/135 142/146/136 143/147/137
f 142/146/136 144/145/135 141/148/138
f 146/149/139 148/150/140 145/151/141
f 148/150/140 146/149/139 147/152/142
f 150/153/143 152/154/144 149/155/145
f 152/154/144 150/153/143 151/156/146
f 15/157/33 195/158/147 155/159/148
f 16/160/37 196/161/149 158/162/150
f 160/163/151 161/164/152 159/165/153
f 163/166/154 161/167/152 162/168/155
f 161/164/152 163/169/154 159/165/153
f 165/170/156 168/171/157 164/172/158
f 167/173/159 165/174/156 166/175/151
f 168/176/157 165/174/156 167/173/159
f 172/177/160 170/178/161 171/179/162
f 170/178/161 172/177/160 169/180/163
f 174/181/164 176/182/165 173/183/166
f 176/182/165 174/181/164 175/184/167
f 180/185/168 178/186/169 179/187/170
f 178/186/169 180/185/168 177/188/171
f 182/189/172 184/190/173 181/191/174
f 184/190/173 182/189/172 183/192/175
f 186/193/176 188/194/177 185/195/178
f 188/194/177 186/193/176 187/196/179
f 190/197/176 192/198/180 189/199/181
f 192/198/180 190/197/176 191/200/182
f 99/201/95 107/202/103 27/2/2
f 27/2/2 107/202/103 32/4/4
f 106/203/183 108/204/184 32/205/4
f 4/108/3 32/205/4 108/204/184
f 2/1/1 110/206/105 101/207/99
f 110/206/105 2/1/1 4/3/3
f 104/208/101 100/209/97 2/1/1
f 2/1/1 100/209/97 27/2/2
f 48/210/7 109/211/185 128/212/119
f 109/211/185 48/210/7 34/213/6
f 116/214/114 48/7/7 127/215/121
f 48/7/7 116/214/114 6/5/5
f 120/216/113 102/217/100 6/5/5
f 6/5/5 102/217/100 28/8/8
f 45/9/9 105/218/186 124/219/115
f 105/218/186 45/9/9 31/12/12
f 125/220/122 45/9/9 123/221/117
f 45/9/9 125/220/122 8/10/10
f 38/15/15 98/222/94 115/223/109
f 98/222/94 38/15/15 26/14/14
f 121/224/118 38/15/15 114/225/110
f 38/15/15 121/224/118 7/13/13
f 103/101/98 54/19/19 30/18/18
f 54/19/19 103/101/98 136/138/128
f 129/136/126 54/19/19 135/140/130
f 54/19/19 129/136/126 9/20/20
f 132/133/123 97/99/96 9/20/20
f 9/20/20 97/99/96 1/17/17
f 57/24/24 119/118/111 140/141/131
f 119/118/111 57/24/24 42/21/21
f 139/143/133 133/139/129 57/24/24
f 57/24/24 133/139/129 10/22/22
f 112/111/106 41/27/27 118/120/112
f 41/27/27 112/111/106 35/25/25
f 111/113/108 144/145/135 35/25/25
f 60/28/28 35/25/25 144/145/135
f 143/147/137 137/144/134 60/28/28
f 11/26/26 60/28/28 137/144/134
f 12/32/32 131/135/125 141/148/138
f 131/135/125 12/32/32 51/30/30
f 153/226/187 70/227/35 157/228/188
f 70/227/35 153/226/187 15/157/33
f 155/229/148 13/34/34 15/33/33
f 13/34/34 155/229/148 145/230/141
f 148/231/140 152/232/144 13/34/34
f 13/34/34 152/232/144 66/36/36
f 70/35/35 66/36/36 158/233/150
f 158/233/150 66/36/36 151/234/146
f 174/235/164 156/236/189 83/237/39
f 83/237/39 156/236/189 16/160/37
f 75/40/40 150/238/143 165/239/156
f 150/238/143 75/40/40 65/38/38
f 164/240/158 175/241/167 75/40/40
f 75/40/40 175/241/167 83/39/39
f 170/242/161 154/243/190 80/42/42
f 80/42/42 154/243/190 67/44/44
f 173/244/166 171/245/162 82/41/41
f 82/41/41 171/245/162 80/42/42
f 161/246/152 146/247/139 73/47/47
f 61/45/45 73/47/47 146/247/139
f 169/248/163 162/249/155 79/48/48
f 79/48/48 162/249/155 73/47/47
f 182/189/172 149/155/145 89/51/51
f 89/51/51 149/155/145 14/49/49
f 147/152/142 85/52/52 63/50/50
f 85/52/52 147/152/142 178/186/169
f 183/192/175 85/52/52 177/188/171
f 85/52/52 183/192/175 89/51/51
f 186/193/176 166/175/151 92/55/55
f 76/53/53 92/55/55 166/175/151
f 92/55/55 181/191/174 187/196/179
f 181/191/174 92/55/55 88/54/54
f 190/197/176 71/59/59 95/58/58
f 190/197/176 160/163/151 71/59/59
f 167/173/159 71/59/59 159/165/153
f 71/59/59 167/173/159 77/57/57
f 185/195/178 191/200/182 91/60/58
f 95/58/58 91/60/58 191/200/182
f 189/199/181 179/187/170 94/64/63
f 94/64/63 179/187/170 86/63/62
f 126/130/120 176/182/165 47/250/64
f 84/251/65 47/250/64 176/182/165
f 168/171/157 39/65/64 18/68/66
f 39/65/64 168/171/157 117/122/107
f 81/71/69 44/70/68 172/177/160
f 122/126/116 172/177/160 44/70/68
f 113/115/107 163/166/154 37/74/72
f 37/74/72 163/166/154 74/75/73
f 90/77/75 53/80/78 184/252/173
f 184/252/173 53/80/78 134/253/127
f 180/254/168 49/79/77 21/78/76
f 49/79/77 180/254/168 130/255/124
f 138/256/132 188/257/177 56/83/81
f 56/83/81 188/257/177 93/81/79
f 142/258/136 192/259/180 59/90/87
f 59/90/87 192/259/180 96/91/88
f 100/100/97 1/17/17 97/99/96
f 97/99/96 25/29/29 98/97/94
f 98/222/94 26/14/14 99/260/95
f 99/201/95 27/2/2 100/209/97
f 104/208/101 2/1/1 101/207/99
f 101/261/99 28/8/8 102/217/100
f 102/103/100 29/23/23 103/101/98
f 103/101/98 30/18/18 104/104/101
f 3/105/16 105/262/186 193/106/102
f 31/12/12 193/263/102 105/218/186
f 193/263/102 31/12/12 106/264/183
f 32/205/4 107/265/103 193/266/102
f 32/205/4 193/266/102 106/203/183
f 4/108/3 108/204/184 194/109/104
f 33/11/11 194/267/104 108/268/184
f 194/267/104 33/11/11 109/269/185
f 34/213/6 194/270/104 109/211/185
f 194/270/104 34/213/6 110/271/105
f 115/272/109 5/31/31 111/113/108
f 111/113/108 35/25/25 112/111/106
f 112/273/106 36/85/83 113/115/107
f 113/115/107 37/74/72 114/116/110
f 114/225/110 38/15/15 115/223/109
f 120/216/113 6/5/5 116/214/114
f 116/124/114 39/65/64 117/122/107
f 117/122/107 40/86/83 118/274/112
f 118/120/112 41/27/27 119/118/111
f 119/118/111 42/21/21 120/275/113
f 124/276/115 7/277/13 121/278/118
f 121/128/118 43/279/71 122/126/116
f 122/126/116 44/70/68 123/127/117
f 123/221/117 45/9/9 124/219/115
f 128/280/119 8/10/10 125/220/122
f 125/132/122 46/69/67 126/130/120
f 126/130/120 47/250/64 127/131/121
f 127/281/121 48/210/7 128/212/119
f 132/133/123 9/20/20 129/136/126
f 129/136/126 49/282/77 130/134/124
f 130/134/124 50/283/93 131/135/125
f 131/135/125 51/30/30 132/133/123
f 136/138/128 10/22/22 133/139/129
f 133/139/129 52/284/80 134/137/127
f 134/137/127 53/285/78 135/140/130
f 135/140/130 54/19/19 136/138/128
f 140/141/131 11/26/26 137/144/134
f 137/144/134 55/286/86 138/142/132
f 138/142/132 56/287/81 139/143/133
f 139/143/133 57/24/24 140/141/131
f 144/145/135 12/32/32 141/148/138
f 141/148/138 58/288/92 142/146/136
f 142/146/136 59/289/87 143/147/137
f 143/147/137 60/28/28 144/145/135
f 148/231/140 13/34/34 145/230/141
f 145/290/141 61/45/45 146/247/139
f 146/149/139 62/61/60 147/152/142
f 147/152/142 63/50/50 148/150/140
f 152/154/144 14/49/49 149/155/145
f 149/155/145 64/56/56 150/153/143
f 150/238/143 65/38/38 151/290/146
f 151/234/146 66/36/36 152/232/144
f 15/157/33 153/226/187 195/158/147
f 67/44/44 195/291/147 153/292/187
f 195/291/147 67/44/44 154/243/190
f 68/293/46 195/294/147 154/295/190
f 195/294/147 68/293/46 155/296/148
f 16/160/37 156/236/189 196/161/149
f 69/43/43 196/297/149 156/298/189
f 196/297/149 69/43/43 157/299/188
f 157/228/188 70/227/35 196/300/149
f 196/300/149 70/227/35 158/301/150
f 163/166/154 17/88/85 159/302/153
f 159/165/153 71/59/59 160/163/151
f 160/163/151 72/62/61 161/164/152
f 161/167/152 73/303/47 162/168/155
f 162/168/155 74/75/73 163/166/154
f 168/171/157 18/68/66 164/172/158
f 164/172/158 75/304/40 165/170/156
f 165/174/156 76/53/53 166/175/151
f 166/175/151 77/57/57 167/173/159
f 167/305/159 78/87/84 168/171/157
f 172/177/160 19/306/74 169/180/163
f 169/180/163 79/307/48 170/178/161
f 170/178/161 80/308/42 171/179/162
f 171/179/162 81/71/69 172/177/160
f 176/182/165 20/72/70 173/183/166
f 173/183/166 82/309/41 174/181/164
f 174/181/164 83/310/39 175/184/167
f 175/184/167 84/251/65 176/182/165
f 180/185/168 21/311/76 177/188/171
f 177/188/171 85/52/52 178/186/169
f 178/186/169 86/63/62 179/187/170
f 179/187/170 87/312/90 180/185/168
f 184/190/173 22/313/82 181/191/174
f 181/191/174 88/54/54 182/189/172
f 182/189/172 89/51/51 183/192/175
f 183/192/175 90/314/75 184/190/173
f 188/194/177 23/315/89 185/195/178
f 185/195/178 91/60/58 186/193/176
f 186/193/176 92/55/55 187/196/179
f 187/196/179 93/316/79 188/194/177
f 192/198/180 24/317/91 189/199/181
f 189/199/181 94/64/63 190/197/176
f 190/197/176 95/58/58 191/200/182
f 191/200/182 96/318/88 192/198/180
f 107/319/103 26/14/14 3/16/16
f 26/14/14 107/319/103 99/260/95
f 31/12/12 108/268/184 106/264/183
f 108/268/184 31/12/12 33/11/11
f 28/8/8 110/320/105 34/6/6
f 110/320/105 28/8/8 101/261/99
f 1/17/17 104/104/101 30/18/18
f 100/100/97 104/104/101 1/17/17
f 33/11/11 8/10/10 109/269/185
f 128/280/119 109/269/185 8/10/10
f 39/65/64 127/321/121 47/66/64
f 116/124/114 127/321/121 39/65/64
f 29/23/23 120/275/113 42/21/21
f 102/103/100 120/275/113 29/23/23
f 3/105/16 7/277/13 105/262/186
f 124/276/115 105/262/186 7/277/13
f 123/127/117 46/69/67 125/132/122
f 46/69/67 123/127/117 44/70/68
f 115/272/109 98/97/94 25/29/29
f 115/272/109 25/29/29 5/31/31
f 121/322/118 114/116/110 43/73/71
f 43/73/71 114/116/110 37/74/72
f 136/138/128 103/101/98 29/23/23
f 136/138/128 29/23/23 10/22/22
f 135/323/130 49/79/77 129/324/126
f 49/79/77 135/323/130 53/80/78
f 51/30/30 25/29/29 132/133/123
f 97/99/96 132/133/123 25/29/29
f 140/141/131 41/27/27 11/26/26
f 140/141/131 119/118/111 41/27/27
f 52/82/80 139/325/133 56/83/81
f 133/326/129 139/325/133 52/82/80
f 36/85/83 118/274/112 40/86/83
f 118/274/112 36/85/83 112/273/106
f 5/31/31 12/32/32 111/113/108
f 144/145/135 111/113/108 12/32/32
f 55/89/86 143/327/137 59/90/87
f 137/328/134 143/327/137 55/89/86
f 141/329/138 50/96/93 58/95/92
f 50/96/93 141/329/138 131/330/125
f 67/44/44 157/299/188 69/43/43
f 157/299/188 67/44/44 153/292/187
f 61/45/45 155/331/148 68/46/46
f 155/331/148 61/45/45 145/290/141
f 14/49/49 148/150/140 63/50/50
f 152/154/144 148/150/140 14/49/49
f 158/332/150 65/38/38 16/37/37
f 65/38/38 158/332/150 151/290/146
f 82/41/41 156/298/189 174/333/164
f 156/298/189 82/41/41 69/43/43
f 165/174/156 64/56/56 76/53/53
f 165/174/156 150/153/143 64/56/56
f 175/334/167 164/172/158 84/67/65
f 84/67/65 164/172/158 18/68/66
f 79/335/48 154/295/190 170/336/161
f 154/295/190 79/335/48 68/293/46
f 81/71/69 173/183/166 20/72/70
f 173/183/166 81/71/69 171/179/162
f 62/61/60 161/164/152 72/62/61
f 146/149/139 161/164/152 62/61/60
f 74/75/73 169/337/163 19/76/74
f 169/337/163 74/75/73 162/168/155
f 88/54/54 64/56/56 182/189/172
f 149/155/145 182/189/172 64/56/56
f 178/186/169 147/152/142 62/61/60
f 178/186/169 62/61/60 86/63/62
f 90/77/75 177/338/171 21/78/76
f 183/339/175 177/338/171 90/77/75
f 77/57/57 186/193/176 91/60/58
f 166/175/151 186/193/176 77/57/57
f 187/340/179 22/84/82 93/81/79
f 22/84/82 187/340/179 181/341/174
f 94/64/63 160/163/151 190/197/176
f 160/163/151 94/64/63 72/62/61
f 17/88/85 78/87/84 159/302/153
f 159/302/153 78/87/84 167/305/159
f 185/342/178 96/91/88 191/343/182
f 96/91/88 185/342/178 23/92/89
f 87/93/90 189/344/181 24/94/91
f 179/345/170 189/344/181 87/93/90
f 46/69/67 176/182/165 126/130/120
f 176/182/165 46/69/67 20/72/70
f 117/122/107 168/171/157 40/86/83
f 40/86/83 168/171/157 78/87/84
f 172/177/160 43/279/71 19/306/74
f 43/279/71 172/177/160 122/126/116
f 163/166/154 36/85/83 17/88/85
f 36/85/83 163/166/154 113/115/107
f 184/346/173 52/82/80 22/84/82
f 52/82/80 184/346/173 134/347/127
f 180/348/168 50/96/93 130/349/124
f 50/96/93 180/348/168 87/93/90
f 55/89/86 188/350/177 138/351/132
f 188/350/177 55/89/86 23/92/89
f 58/95/92 192/352/180 142/353/136
f 192/352/180 58/95/92 24/94/91
