# Blender 4.0.0
# www.blender.org
o fridge_drawer0
v -0.01905800 -0.21231800 -0.84465750
v 0.40874700 -0.21069500 -0.84625650
v -0.02181500 0.31233200 -0.84465750
v 0.40874700 0.31231700 -0.84625650
v -0.02175600 -0.21386500 -0.57870450
v 0.41190600 -0.21225500 -0.57825950
v -0.02336000 0.31387700 -0.57825950
v 0.41030600 0.31547600 -0.57825950
v 0.04073400 -0.21384600 -0.66220650
v 0.35034400 -0.21386100 -0.66018650
v 0.34855100 -0.21386900 -0.59057450
v 0.03820200 -0.21384800 -0.59342750
v -0.01319500 -0.20369000 -0.83925050
v 0.40066900 -0.20528900 -0.83765150
v -0.01319500 0.30531100 -0.83925050
v 0.40334000 0.30531100 -0.83765150
v -0.01413200 -0.20688800 -0.57666050
v 0.40493900 -0.20462600 -0.57666050
v -0.01639400 0.30624800 -0.57666050
v 0.40267800 0.30851000 -0.57666050
v 0.04140000 -0.20688800 -0.66060750
v 0.34874500 -0.20688800 -0.65900750
v 0.34714600 -0.20688800 -0.59217350
v 0.03980100 -0.20688800 -0.59377250
v -0.02025700 -0.21235000 -0.84028050
v -0.02181500 -0.21071000 -0.84465750
v -0.02020100 -0.21069500 -0.84625650
v 0.41036100 -0.21071000 -0.84465750
v 0.40880300 -0.21235000 -0.84028050
v 0.40760400 -0.21231800 -0.84465750
v -0.02021600 0.31393100 -0.84465750
v -0.02020100 0.31231700 -0.84625650
v 0.40876200 0.31393100 -0.84465750
v 0.41036100 0.31233200 -0.84465750
v -0.01015600 -0.21386900 -0.57825950
v -0.01951400 -0.21227000 -0.57666050
v -0.02177600 -0.21000800 -0.57666050
v -0.02336000 -0.21225500 -0.57825950
v 0.41032100 -0.21000800 -0.57666050
v 0.40806000 -0.21227000 -0.57666050
v 0.39870200 -0.21386900 -0.57825950
v 0.41030200 -0.21386500 -0.57870450
v -0.02177600 0.31163000 -0.57666050
v -0.01951400 0.31389200 -0.57666050
v -0.02176100 0.31547600 -0.57825950
v 0.40806000 0.31389200 -0.57666050
v 0.41032100 0.31163000 -0.57666050
v 0.41190600 0.31387700 -0.57825950
v 0.04140000 -0.21227000 -0.66060750
v 0.03980100 -0.21227000 -0.65900750
v 0.03820200 -0.21386100 -0.66018650
v 0.34874500 -0.21227000 -0.65900750
v 0.34714600 -0.21227000 -0.66060750
v 0.34781200 -0.21384600 -0.66220650
v 0.34714600 -0.21227000 -0.59217350
v 0.34874500 -0.21227000 -0.59377250
v 0.35034400 -0.21384800 -0.59342750
v 0.03980100 -0.21227000 -0.59377250
v 0.04140000 -0.21227000 -0.59217350
v 0.03999400 -0.21386900 -0.59057450
v -0.01479400 -0.20369000 -0.83765150
v -0.01319500 -0.20528900 -0.83288050
v -0.01212300 -0.20528900 -0.83765150
v 0.40174100 -0.20528900 -0.83288050
v 0.40334000 -0.20369000 -0.83765150
v 0.40174100 -0.20369000 -0.83925050
v -0.01319500 0.30691100 -0.83765150
v -0.01479400 0.30531100 -0.83765150
v 0.40174100 0.30691100 -0.83765150
v 0.40174100 0.30531100 -0.83925050
v -0.00331600 -0.20528900 -0.57825950
v -0.01319500 -0.20528900 -0.57877750
v -0.01479400 -0.20369000 -0.57825950
v -0.01639400 -0.20462600 -0.57666050
v 0.40334000 -0.20369000 -0.57825950
v 0.40174100 -0.20528900 -0.57877750
v 0.39186100 -0.20528900 -0.57825950
v 0.40267800 -0.20688800 -0.57666050
v -0.01479400 0.30531100 -0.57825950
v -0.01319500 0.30691100 -0.57825950
v -0.01413200 0.30851000 -0.57666050
v 0.40174100 0.30691100 -0.57825950
v 0.40334000 0.30531100 -0.57825950
v 0.40493900 0.30624800 -0.57666050
v 0.04075800 -0.20528900 -0.66220650
v 0.03820200 -0.20528900 -0.66020550
v 0.03980100 -0.20688800 -0.65900750
v 0.35034400 -0.20528900 -0.66020550
v 0.34778800 -0.20528900 -0.66220650
v 0.34714600 -0.20688800 -0.66060750
v 0.34852200 -0.20528900 -0.59057450
v 0.35034400 -0.20528900 -0.59338150
v 0.34874500 -0.20688800 -0.59377250
v 0.03820200 -0.20528900 -0.59338150
v 0.04002400 -0.20528900 -0.59057450
v 0.04140000 -0.20688800 -0.59217350
v -0.02072900 -0.21231400 -0.84436250
v -0.02141800 -0.21191200 -0.84436250
v -0.02140400 -0.21149900 -0.84585650
v -0.02071500 -0.21190100 -0.84585650
v 0.40995000 -0.21149900 -0.84585650
v 0.40996400 -0.21191200 -0.84436250
v 0.40927500 -0.21231400 -0.84436250
v 0.40926100 -0.21190100 -0.84585650
v -0.02141500 0.31353200 -0.84465750
v -0.02020500 0.31352000 -0.84585650
v -0.02140400 0.31232100 -0.84585650
v 0.40875100 0.31352000 -0.84585650
v 0.40996100 0.31353200 -0.84465750
v 0.40995000 0.31232100 -0.84585650
v -0.01966600 -0.21386800 -0.57757150
v -0.01910500 -0.21346900 -0.57706050
v -0.02201000 -0.21250400 -0.57666050
v -0.02297100 -0.21250000 -0.57706050
v -0.02296600 -0.21346500 -0.57757150
v 0.41151700 -0.21250000 -0.57706050
v 0.41055600 -0.21250400 -0.57666050
v 0.40765100 -0.21346900 -0.57706050
v 0.40821100 -0.21386800 -0.57757150
v 0.41151200 -0.21346500 -0.57757150
v -0.02297100 0.31412200 -0.57706050
v -0.02201000 0.31412600 -0.57666050
v -0.02200600 0.31508700 -0.57706050
v -0.02296700 0.31508400 -0.57745950
v 0.41055200 0.31508700 -0.57706050
v 0.41055600 0.31412600 -0.57666050
v 0.41151700 0.31412200 -0.57706050
v 0.41151300 0.31508400 -0.57745950
v 0.04043400 -0.21346300 -0.66100650
v 0.04020100 -0.21306900 -0.66020750
v 0.03940100 -0.21346700 -0.66010150
v 0.03963400 -0.21386100 -0.66090150
v 0.34914500 -0.21346700 -0.66010150
v 0.34834500 -0.21306900 -0.66020750
v 0.34811200 -0.21346300 -0.66100650
v 0.34891200 -0.21386100 -0.66090150
v 0.34829700 -0.21346900 -0.59177350
v 0.34834500 -0.21306900 -0.59257350
v 0.34914500 -0.21346400 -0.59288650
v 0.34909600 -0.21386400 -0.59208750
v 0.03940100 -0.21346400 -0.59288650
v 0.04020100 -0.21306900 -0.59257350
v 0.04024900 -0.21346900 -0.59177350
v 0.03945000 -0.21386400 -0.59208750
v -0.01439500 -0.20448900 -0.83885050
v -0.01439500 -0.20488900 -0.83725850
v -0.01372700 -0.20528900 -0.83725850
v -0.01372700 -0.20488900 -0.83885050
v 0.40227300 -0.20528900 -0.83725850
v 0.40294000 -0.20488900 -0.83725850
v 0.40294000 -0.20448900 -0.83885050
v 0.40227300 -0.20488900 -0.83885050
v -0.01319500 0.30651100 -0.83885050
v -0.01439500 0.30651100 -0.83765150
v -0.01439500 0.30531100 -0.83885050
v 0.40294000 0.30651100 -0.83765150
v 0.40174100 0.30651100 -0.83885050
v 0.40294000 0.30531100 -0.83885050
v -0.01175900 -0.20568900 -0.57706050
v -0.01152500 -0.20528900 -0.57758950
v -0.01439500 -0.20488900 -0.57758950
v -0.01519400 -0.20472300 -0.57706050
v -0.01502900 -0.20552300 -0.57666050
v 0.40374000 -0.20472300 -0.57706050
v 0.40294000 -0.20488900 -0.57758950
v 0.40007100 -0.20528900 -0.57758950
v 0.40030500 -0.20568900 -0.57706050
v 0.40357400 -0.20552300 -0.57666050
v -0.01519400 0.30634500 -0.57706050
v -0.01439500 0.30651100 -0.57745950
v -0.01422900 0.30731000 -0.57706050
v -0.01502900 0.30714500 -0.57666050
v 0.40277500 0.30731000 -0.57706050
v 0.40294000 0.30651100 -0.57745950
v 0.40374000 0.30634500 -0.57706050
v 0.40357400 0.30714500 -0.57666050
v 0.04044000 -0.20568900 -0.66100650
v 0.03964000 -0.20528900 -0.66090650
v 0.03940100 -0.20568900 -0.66010650
v 0.04020100 -0.20608800 -0.66020750
v 0.34914500 -0.20568900 -0.66010650
v 0.34890500 -0.20528900 -0.66090650
v 0.34810600 -0.20568900 -0.66100650
v 0.34834500 -0.20608800 -0.66020750
v 0.34828900 -0.20568900 -0.59177350
v 0.34908900 -0.20528900 -0.59207550
v 0.34914500 -0.20568900 -0.59287550
v 0.34834500 -0.20608800 -0.59257350
v 0.03940100 -0.20568900 -0.59287550
v 0.03945700 -0.20528900 -0.59207550
v 0.04025600 -0.20568900 -0.59177350
v 0.04020100 -0.20608800 -0.59257350
v -0.02140700 0.31322300 -0.84555650
v 0.40965000 0.31322000 -0.84585650
v -0.01409500 0.30621100 -0.83885050
v 0.40294000 0.30621100 -0.83855150
vn 0.0015 -0.0010 -1.0000
vn 0.0110 -0.0146 -0.9998
vn 0.0014 0.0009 -1.0000
vn -0.0015 0.0010 -1.0000
vn 0.9998 -0.0125 -0.0159
vn 1.0000 0.0004 -0.0100
vn 1.0000 -0.0001 -0.0044
vn 1.0000 -0.0009 -0.0098
vn -0.0004 1.0000 -0.0044
vn 0.0008 1.0000 -0.0048
vn 0.0039 1.0000 -0.0074
vn -0.0011 0.9999 -0.0101
vn -0.9998 0.0121 -0.0158
vn -0.9999 -0.0003 -0.0102
vn -1.0000 -0.0001 -0.0044
vn -1.0000 0.0010 -0.0096
vn 0.0002 -0.9999 -0.0173
vn 0.0234 -0.9996 -0.0177
vn -0.0070 -0.9999 -0.0108
vn 0.0207 -0.9997 -0.0138
vn 0.0417 -0.9982 -0.0435
vn -0.0046 -0.9998 -0.0203
vn 0.0190 -0.9998 -0.0065
vn 0.0042 -1.0000 -0.0075
vn 0.0032 -0.9993 0.0367
vn -0.0001 -0.9998 -0.0222
vn -0.0000 -0.9993 0.0366
vn 0.0001 -0.9998 -0.0222
vn -0.0207 -0.9997 0.0164
vn -0.0143 -0.9996 0.0255
vn -0.0159 -0.9999 -0.0052
vn -0.0042 -1.0000 -0.0075
vn 0.0015 -0.0010 1.0000
vn -0.0115 0.0154 0.9998
vn -0.0016 -0.0011 1.0000
vn -0.0015 0.0010 1.0000
vn -1.0000 -0.0010 0.0025
vn -0.9999 0.0140 -0.0100
vn -1.0000 -0.0006 0.0021
vn -1.0000 0.0010 0.0025
vn -0.0015 -1.0000 0.0025
vn -0.0006 -1.0000 0.0045
vn -0.0016 -1.0000 0.0025
vn 0.0016 -1.0000 0.0025
vn 1.0000 0.0010 0.0025
vn 0.9998 -0.0169 -0.0118
vn 1.0000 0.0006 0.0021
vn 1.0000 -0.0010 0.0025
vn -0.0000 1.0000 0.0017
vn -0.0068 1.0000 0.0021
vn -0.0196 0.9998 -0.0036
vn -0.0000 1.0000 0.0009
vn -0.0228 0.9988 0.0436
vn -0.0008 1.0000 0.0003
vn -0.0003 1.0000 -0.0000
vn -0.0017 0.9997 -0.0242
vn -0.0043 1.0000 0.0016
vn -0.0000 1.0000 -0.0009
vn -0.0000 1.0000 0.0015
vn 0.0001 1.0000 -0.0000
vn 0.0228 0.9988 0.0436
vn 0.0093 0.9999 -0.0143
vn 0.0003 1.0000 -0.0000
vn 0.0110 -0.0000 0.9999
vn 0.0109 -0.0000 0.9999
vn -0.0105 -0.0003 0.9999
vn -0.0106 -0.0000 0.9999
vn -0.0000 0.0074 1.0000
vn -0.0000 0.0073 1.0000
vn 0.0008 -0.0067 1.0000
vn -0.0000 -0.0069 1.0000
vn -0.0110 -0.0000 0.9999
vn -0.0109 -0.0000 0.9999
vn 0.0105 0.0003 0.9999
vn 0.0106 -0.0000 0.9999
vn -0.0029 0.0610 0.9981
vn 0.0029 0.0609 0.9981
vn 0.0051 -0.0581 0.9983
vn -0.0029 -0.0610 0.9981
vn -0.9987 0.0461 -0.0234
vn -0.9980 -0.0621 0.0107
vn -0.9980 -0.0616 -0.0103
vn -0.9980 0.0618 0.0104
vn -0.0000 -0.0073 1.0000
vn -0.0000 -0.0072 1.0000
vn -0.0003 0.0067 1.0000
vn -0.0000 0.0069 1.0000
vn -0.0029 -0.0611 -0.9981
vn 0.0028 -0.0610 -0.9981
vn 0.0051 0.0582 -0.9983
vn -0.0029 0.0610 -0.9981
vn 0.9980 0.0621 0.0107
vn 0.9980 0.0616 -0.0103
vn 0.9987 -0.0460 -0.0234
vn 0.9980 -0.0618 0.0104
vn -0.7113 -0.7028 -0.0123
vn -0.7041 -0.0015 -0.7101
vn -0.0105 -0.9999 -0.0121
vn -0.0012 -0.7023 -0.7119
vn 0.0105 -0.9999 -0.0120
vn 0.7041 -0.0016 -0.7101
vn 0.7113 -0.7028 -0.0122
vn 0.0012 -0.7023 -0.7119
vn -0.5737 0.5737 -0.5845
vn -0.7035 0.0005 -0.7107
vn 0.5737 0.5737 -0.5845
vn 0.7040 0.0005 -0.7102
vn -0.0006 -0.7003 0.7138
vn -0.0000 -0.0002 1.0000
vn -0.0041 -0.9997 0.0239
vn -0.7070 -0.7072 -0.0013
vn -0.7099 -0.0028 0.7043
vn 0.0041 -0.9997 0.0239
vn 0.0006 -0.7003 0.7139
vn 0.7070 -0.7072 -0.0013
vn 0.7099 -0.0028 0.7043
vn -0.7071 0.7070 -0.0078
vn -0.0001 0.0001 1.0000
vn -0.0007 0.7112 0.7030
vn -0.7109 0.0005 0.7033
vn 0.7069 0.7073 -0.0078
vn 0.0001 0.0001 1.0000
vn 0.7109 0.0005 0.7033
vn 0.0007 0.7112 0.7030
vn -0.0025 -1.0000 -0.0063
vn 0.7007 -0.0966 0.7069
vn 0.6965 -0.7174 0.0115
vn 0.0030 -0.7138 0.7004
vn -0.7007 -0.0966 0.7069
vn 0.0025 -1.0000 -0.0062
vn -0.6966 -0.7174 0.0115
vn -0.0030 -0.7138 0.7004
vn -0.0044 -1.0000 -0.0076
vn -0.7104 -0.0968 -0.6972
vn -0.6983 -0.7157 -0.0106
vn -0.0033 -0.7100 -0.7042
vn 0.0045 -1.0000 -0.0076
vn 0.7104 -0.0968 -0.6971
vn 0.0034 -0.7101 -0.7041
vn 0.6983 -0.7157 -0.0106
vn 0.7094 0.7048 0.0007
vn 0.0013 0.7076 0.7067
vn 0.7075 0.0017 0.7067
vn -0.0025 1.0000 -0.0008
vn -0.7094 0.7048 0.0007
vn -0.0013 0.7075 0.7067
vn 0.0025 1.0000 -0.0008
vn -0.7075 0.0017 0.7067
vn 0.5773 -0.5774 0.5774
vn 0.7074 -0.0005 0.7068
vn -0.5773 -0.5774 0.5773
vn -0.7069 -0.0006 0.7074
vn -0.0000 1.0000 0.0001
vn 0.7055 0.7087 0.0059
vn 0.0017 0.6986 0.7155
vn -0.0000 0.0002 1.0000
vn 0.7057 0.0033 0.7085
vn -0.7055 0.7087 0.0059
vn -0.7057 0.0033 0.7085
vn -0.0016 0.6986 0.7155
vn -0.0001 -0.0001 1.0000
vn 0.7071 -0.7071 0.0042
vn 0.0018 -0.7059 0.7083
vn 0.7063 -0.0012 0.7079
vn -0.7070 -0.7072 0.0042
vn -0.0000 -0.0000 1.0000
vn -0.0018 -0.7059 0.7083
vn -0.7063 -0.0012 0.7079
vn 0.7002 0.0965 0.7073
vn 0.0007 1.0000 0.0008
vn 0.6996 0.7144 0.0116
vn 0.0030 0.7086 0.7056
vn -0.0007 1.0000 0.0009
vn -0.7002 0.0965 0.7073
vn -0.6996 0.7144 0.0116
vn -0.0030 0.7086 0.7056
vn -0.0000 1.0000 -0.0000
vn -0.7101 0.0967 -0.6974
vn -0.0034 0.7100 -0.7042
vn -0.7013 0.7127 -0.0107
vn 0.7101 0.0968 -0.6975
vn 0.7014 0.7127 -0.0107
vn 0.0033 0.7100 -0.7042
vn -0.0014 0.7032 -0.7110
vn 0.0007 0.7043 -0.7099
vn 0.7070 0.7070 -0.0128
vn -0.7064 0.7077 -0.0119
vn 0.0007 -0.7076 0.7066
vn -0.0014 -0.7071 0.7072
vn -0.7063 -0.7080 0.0012
vn 0.7074 -0.7068 0.0023
vt 0.931673 0.729999
vt 0.909337 0.730002
vt 0.931673 0.693595
vt 0.909337 0.693599
vt 0.929769 0.728819
vt 0.912221 0.692304
vt 0.929770 0.692202
vt 0.912219 0.728717
vt 0.937849 0.729023
vt 0.937849 0.706481
vt 0.955419 0.706583
vt 0.955419 0.728921
vt 0.904081 0.889294
vt 0.921632 0.925809
vt 0.904082 0.925911
vt 0.921631 0.889396
vt 0.933976 0.718191
vt 0.933976 0.740377
vt 0.921948 0.736433
vt 0.921948 0.722136
vt 0.916442 0.740555
vt 0.921815 0.736600
vt 0.933687 0.740456
vt 0.917413 0.736600
vt 0.916413 0.718778
vt 0.917225 0.736481
vt 0.916413 0.739790
vt 0.917225 0.722087
vt 0.907849 0.895289
vt 0.895977 0.899145
vt 0.890604 0.895190
vt 0.891575 0.899145
vt 0.928448 0.739750
vt 0.928448 0.704268
vt 0.949861 0.739751
vt 0.949861 0.704269
vt 0.955949 0.695785
vt 0.955950 0.731272
vt 0.938856 0.695785
vt 0.938858 0.731272
vt 0.924024 0.751230
vt 0.924024 0.729818
vt 0.941128 0.751230
vt 0.941128 0.729818
vt 0.909330 0.906843
vt 0.909331 0.871356
vt 0.926422 0.906843
vt 0.926424 0.871356
vt 0.942076 0.690094
vt 0.942076 0.711365
vt 0.930504 0.693583
vt 0.930504 0.707877
vt 0.925001 0.690024
vt 0.930372 0.693414
vt 0.925964 0.693414
vt 0.941761 0.690024
vt 0.924966 0.690675
vt 0.925779 0.707925
vt 0.924966 0.710784
vt 0.925779 0.693534
vt 0.915923 0.888612
vt 0.899162 0.888612
vt 0.904533 0.885222
vt 0.900126 0.885222
vt 0.932249 0.688689
vt 0.932249 0.725005
vt 0.931894 0.724650
vt 0.931894 0.689044
vt 0.932100 0.725154
vt 0.909854 0.725153
vt 0.910209 0.724798
vt 0.931745 0.724799
vt 0.883867 0.902180
vt 0.883867 0.865864
vt 0.884222 0.866219
vt 0.884222 0.901825
vt 0.907084 0.695123
vt 0.907084 0.709332
vt 0.906729 0.709332
vt 0.906729 0.695123
vt 0.912824 0.732372
vt 0.912469 0.736670
vt 0.912469 0.732372
vt 0.912824 0.736670
vt 0.909854 0.688539
vt 0.932100 0.688540
vt 0.931745 0.688895
vt 0.910209 0.688894
vt 0.907754 0.709331
vt 0.907754 0.695123
vt 0.908109 0.695123
vt 0.908109 0.709331
vt 0.887658 0.913847
vt 0.887658 0.909548
vt 0.888013 0.909548
vt 0.888013 0.913847
vt 0.908117 0.895212
vt 0.908215 0.895213
vt 0.908118 0.895257
vt 0.908216 0.895258
vt 0.933956 0.740487
vt 0.934053 0.740532
vt 0.933955 0.740533
vt 0.934054 0.740486
vt 0.921689 0.889337
vt 0.921708 0.889397
vt 0.931732 0.693535
vt 0.931752 0.693595
vt 0.890495 0.895364
vt 0.890466 0.895173
vt 0.890529 0.895328
vt 0.883788 0.865637
vt 0.883851 0.865700
vt 0.883788 0.865700
vt 0.884006 0.865611
vt 0.916367 0.740417
vt 0.916305 0.740572
vt 0.916333 0.740380
vt 0.932328 0.688462
vt 0.932265 0.688524
vt 0.932110 0.688435
vt 0.932328 0.688525
vt 0.883788 0.902409
vt 0.883851 0.902345
vt 0.883852 0.902409
vt 0.883788 0.902345
vt 0.932328 0.725233
vt 0.932265 0.725169
vt 0.932328 0.725169
vt 0.932264 0.725233
vt 0.896024 0.899239
vt 0.895977 0.899277
vt 0.895970 0.899224
vt 0.896030 0.899292
vt 0.921815 0.736468
vt 0.921862 0.736505
vt 0.921809 0.736520
vt 0.921868 0.736452
vt 0.917325 0.736517
vt 0.917355 0.736468
vt 0.917376 0.736520
vt 0.917303 0.736465
vt 0.891486 0.899227
vt 0.891517 0.899277
vt 0.891465 0.899280
vt 0.891538 0.899224
vt 0.916212 0.888691
vt 0.916317 0.888647
vt 0.916318 0.888691
vt 0.916212 0.888647
vt 0.942051 0.689945
vt 0.942156 0.689989
vt 0.942050 0.689989
vt 0.942156 0.689945
vt 0.902610 0.916927
vt 0.902551 0.916986
vt 0.902531 0.916926
vt 0.956010 0.695725
vt 0.956029 0.695785
vt 0.899084 0.888502
vt 0.899084 0.888691
vt 0.899049 0.888517
vt 0.884312 0.866160
vt 0.884354 0.866203
vt 0.884301 0.866213
vt 0.899022 0.888733
vt 0.931762 0.689027
vt 0.931804 0.688985
vt 0.931815 0.689038
vt 0.924887 0.690118
vt 0.924923 0.689945
vt 0.924922 0.690134
vt 0.924861 0.689903
vt 0.884312 0.901884
vt 0.884354 0.901843
vt 0.884365 0.901896
vt 0.884301 0.901832
vt 0.931762 0.724668
vt 0.931804 0.724709
vt 0.931751 0.724720
vt 0.931815 0.724656
vt 0.904533 0.885090
vt 0.904580 0.885127
vt 0.904527 0.885143
vt 0.904586 0.885074
vt 0.930418 0.693509
vt 0.930371 0.693546
vt 0.930365 0.693493
vt 0.930424 0.693562
vt 0.925878 0.693497
vt 0.925910 0.693546
vt 0.925857 0.693550
vt 0.925930 0.693493
vt 0.900039 0.885139
vt 0.900072 0.885090
vt 0.900092 0.885143
vt 0.900019 0.885086
vt 0.883419 0.907231
vt 0.883419 0.870774
vt 0.883499 0.907178
vt 0.883499 0.870775
vt 0.909337 0.693519
vt 0.931673 0.693515
vt 0.931752 0.730051
vt 0.931706 0.730078
vt 0.909303 0.730081
vt 0.912222 0.692225
vt 0.929824 0.692122
vt 0.929849 0.728835
vt 0.929850 0.692186
vt 0.929815 0.728899
vt 0.912240 0.728796
vt 0.912010 0.906199
vt 0.929580 0.906177
vt 0.911957 0.906279
vt 0.929581 0.906098
vt 0.937769 0.706465
vt 0.937769 0.729039
vt 0.921611 0.925889
vt 0.904036 0.925991
vt 0.904001 0.889278
vt 0.904002 0.925927
vt 0.921868 0.722116
vt 0.896110 0.899312
vt 0.908138 0.895368
vt 0.916333 0.718188
vt 0.890575 0.895955
vt 0.891387 0.899263
vt 0.917303 0.722104
vt 0.928449 0.739829
vt 0.949861 0.739830
vt 0.902610 0.881444
vt 0.902531 0.881391
vt 0.928414 0.704188
vt 0.949896 0.704189
vt 0.949940 0.739751
vt 0.949940 0.704216
vt 0.938805 0.695706
vt 0.955950 0.695706
vt 0.955926 0.731351
vt 0.938815 0.731351
vt 0.938777 0.731340
vt 0.938776 0.695717
vt 0.898134 0.906915
vt 0.915290 0.906915
vt 0.898185 0.906994
vt 0.915289 0.906994
vt 0.923944 0.751298
vt 0.923944 0.729749
vt 0.926465 0.906922
vt 0.909355 0.906922
vt 0.926504 0.871288
vt 0.926503 0.906911
vt 0.904665 0.885053
vt 0.916238 0.888542
vt 0.930424 0.707898
vt 0.899128 0.887961
vt 0.899940 0.885101
vt 0.924887 0.711341
vt 0.925857 0.707910
vt 0.884371 0.901974
vt 0.884016 0.902329
vt 0.907136 0.695044
vt 0.906675 0.695044
vt 0.881298 0.886587
vt 0.880890 0.886508
vt 0.881245 0.886508
vt 0.880837 0.886587
vt 0.912417 0.732294
vt 0.912877 0.732294
vt 0.881863 0.872220
vt 0.882323 0.872220
vt 0.881916 0.872299
vt 0.882271 0.872299
vt 0.921710 0.925861
vt 0.883465 0.907257
vt 0.912142 0.728769
vt 0.921629 0.889317
vt 0.929639 0.906176
vt 0.929659 0.906097
vt 0.883419 0.870714
vt 0.883499 0.870695
vt 0.955497 0.706524
vt 0.955498 0.706583
vt 0.955419 0.706504
vt 0.912144 0.692245
vt 0.912143 0.692305
vt 0.890528 0.895110
vt 0.884043 0.865636
vt 0.884016 0.865715
vt 0.932073 0.688461
vt 0.916367 0.740635
vt 0.904027 0.889215
vt 0.911931 0.906216
vt 0.937795 0.706401
vt 0.896001 0.899356
vt 0.895896 0.899250
vt 0.921734 0.736494
vt 0.921840 0.736389
vt 0.917327 0.736389
vt 0.917433 0.736494
vt 0.891594 0.899250
vt 0.891489 0.899356
vt 0.902575 0.881365
vt 0.909250 0.906896
vt 0.956030 0.731325
vt 0.902610 0.917005
vt 0.915370 0.906935
vt 0.915369 0.906994
vt 0.909250 0.871297
vt 0.909330 0.871277
vt 0.909251 0.871356
vt 0.941188 0.751309
vt 0.941128 0.751309
vt 0.941208 0.751230
vt 0.949940 0.739810
vt 0.884371 0.866070
vt 0.884528 0.866150
vt 0.884327 0.866283
vt 0.931788 0.689107
vt 0.931588 0.688974
vt 0.884327 0.901765
vt 0.884433 0.901871
vt 0.931683 0.724695
vt 0.931788 0.724590
vt 0.904558 0.885011
vt 0.904453 0.885116
vt 0.930291 0.693520
vt 0.930397 0.693625
vt 0.925883 0.693625
vt 0.925988 0.693520
vt 0.900150 0.885116
vt 0.900044 0.885011
vt 0.955498 0.728920
vt 0.934054 0.718082
vt 0.909690 0.725232
vt 0.906650 0.695059
vt 0.906650 0.709396
vt 0.912391 0.732312
vt 0.912390 0.736741
vt 0.909881 0.688460
vt 0.907676 0.695047
vt 0.907676 0.709407
vt 0.888091 0.909488
vt 0.888092 0.913917
vt 0.941208 0.729818
vt 0.942156 0.711471
vt 0.923972 0.751309
vt 0.926475 0.871277
vt 0.910203 0.724719
vt 0.907163 0.709395
vt 0.907163 0.695060
vt 0.912903 0.732311
vt 0.912903 0.736742
vt 0.910366 0.688973
vt 0.908189 0.709407
vt 0.908189 0.695047
vt 0.887578 0.909488
vt 0.887578 0.913918
vt 0.912877 0.736751
vt 0.912417 0.736751
vt 0.887605 0.913927
vt 0.888065 0.913927
vt 0.908162 0.709411
vt 0.907701 0.709411
vt 0.887605 0.909470
vt 0.888065 0.909470
s 1
f 2/1/1 27/2/2 4/3/3
f 27/2/2 32/4/4 4/3/3
f 6/5/5 34/6/6 48/7/7
f 34/6/6 6/5/5 28/8/8
f 45/9/9 8/10/10 33/11/11
f 45/9/9 33/11/11 31/12/12
f 7/13/13 26/14/14 38/15/15
f 26/14/14 7/13/13 3/16/16
f 1/17/17 30/18/18 54/19/19
f 1/17/17 54/19/19 9/20/20
f 42/21/21 10/22/22 29/23/23
f 10/22/22 42/21/21 57/24/24
f 35/25/25 11/26/26 41/27/27
f 11/26/26 35/25/25 60/28/28
f 25/29/29 51/30/30 5/31/31
f 12/32/32 5/31/31 51/30/30
f 15/33/33 13/34/34 70/35/35
f 70/35/35 13/34/34 66/36/36
f 16/37/37 65/38/38 83/39/39
f 75/40/40 83/39/39 65/38/38
f 82/41/41 80/42/42 69/43/43
f 80/42/42 67/44/44 69/43/43
f 61/45/45 68/46/46 73/47/47
f 79/48/48 73/47/47 68/46/46
f 14/49/49 63/50/50 89/51/51
f 89/51/51 63/50/50 85/52/52
f 76/53/53 88/54/54 92/55/55
f 88/54/54 76/53/53 64/56/56
f 77/57/57 95/58/58 71/59/59
f 95/58/58 77/57/57 91/60/58
f 62/61/60 72/62/61 86/63/62
f 72/62/61 94/64/63 86/63/62
f 39/65/64 47/66/65 84/67/66
f 39/65/64 84/67/66 18/68/67
f 46/69/68 44/70/69 81/71/70
f 46/69/68 81/71/70 20/72/71
f 43/73/72 37/74/73 74/75/74
f 43/73/72 74/75/74 19/76/75
f 90/77/76 21/78/77 49/79/78
f 90/77/76 49/79/78 53/80/79
f 93/81/80 52/82/81 56/83/82
f 52/82/81 93/81/80 22/84/83
f 36/85/84 40/86/85 78/87/86
f 36/85/84 78/87/86 17/88/87
f 55/89/88 59/90/89 96/91/90
f 55/89/88 96/91/90 23/92/91
f 87/93/92 24/94/93 58/95/94
f 58/95/94 50/96/95 87/93/92
f 98/97/96 99/98/97 97/99/98
f 97/99/98 99/98/97 100/100/99
f 103/101/100 101/102/101 102/103/102
f 101/102/101 103/101/100 104/104/103
f 3/16/16 193/105/104 107/106/105
f 4/3/3 194/107/106 110/108/107
f 112/109/108 113/110/109 111/111/110
f 115/112/111 113/113/109 114/114/112
f 113/113/109 115/112/111 111/115/110
f 119/116/113 117/117/109 118/118/114
f 120/119/115 117/120/109 119/121/113
f 117/120/109 120/119/115 116/122/116
f 124/123/117 122/124/118 123/125/119
f 122/124/118 124/123/117 121/126/120
f 128/127/121 126/128/122 127/129/123
f 126/128/122 128/127/121 125/130/124
f 132/131/125 130/132/126 131/133/127
f 130/132/126 132/131/125 129/134/128
f 134/135/129 136/136/130 133/137/131
f 136/136/130 134/135/129 135/138/132
f 140/139/133 138/140/134 139/141/135
f 138/140/134 140/139/133 137/142/136
f 144/143/137 142/144/138 143/145/139
f 142/144/138 144/143/137 141/146/140
f 146/147/141 148/148/142 145/149/143
f 148/148/142 146/147/141 147/150/144
f 150/151/145 152/152/146 149/153/147
f 152/152/146 150/151/145 151/154/148
f 15/155/33 195/156/149 155/157/150
f 16/37/37 196/158/151 158/159/152
f 160/160/153 161/161/154 159/162/155
f 163/163/156 161/164/154 162/165/157
f 161/161/154 163/166/156 159/162/155
f 165/167/158 168/168/118 164/169/159
f 167/170/160 165/171/158 166/172/153
f 168/173/118 165/171/158 167/170/160
f 172/174/161 170/175/162 171/176/163
f 170/175/162 172/174/161 169/177/164
f 174/178/165 176/179/166 173/180/167
f 176/179/166 174/178/165 175/181/168
f 180/182/169 178/183/170 179/184/171
f 178/183/170 180/182/169 177/185/172
f 182/186/173 184/187/174 181/188/175
f 184/187/174 182/186/173 183/189/176
f 186/190/177 188/191/178 185/192/179
f 188/191/178 186/190/177 187/193/180
f 190/194/177 192/195/181 189/196/182
f 192/195/181 190/194/177 191/197/183
f 99/198/97 107/199/105 27/200/2
f 27/200/2 107/199/105 32/201/4
f 106/202/184 108/203/185 32/4/4
f 4/3/3 32/4/4 108/203/185
f 2/1/1 110/108/107 101/204/101
f 110/108/107 2/1/1 4/3/3
f 104/205/103 100/206/99 2/1/1
f 2/1/1 100/206/99 27/2/2
f 48/7/7 109/207/186 128/208/121
f 109/207/186 48/7/7 34/6/6
f 116/209/116 48/7/7 127/210/123
f 48/7/7 116/209/116 6/5/5
f 120/211/115 102/212/102 6/5/5
f 6/5/5 102/212/102 28/8/8
f 45/213/9 105/214/187 124/215/117
f 105/214/187 45/213/9 31/216/12
f 125/217/124 45/9/9 123/218/119
f 45/9/9 125/217/124 8/10/10
f 38/15/15 98/219/96 115/220/111
f 98/219/96 38/15/15 26/14/14
f 121/221/120 38/15/15 114/222/112
f 38/15/15 121/221/120 7/13/13
f 103/101/100 54/19/19 30/18/18
f 54/19/19 103/101/100 136/136/130
f 129/223/128 54/19/19 135/138/132
f 54/19/19 129/223/128 9/20/20
f 132/131/125 97/99/98 9/224/20
f 9/224/20 97/99/98 1/225/17
f 57/24/24 119/116/113 140/139/133
f 119/116/113 57/24/24 42/21/21
f 139/141/135 133/137/131 57/24/24
f 57/24/24 133/137/131 10/22/22
f 112/226/108 41/27/27 118/118/114
f 41/27/27 112/226/108 35/25/25
f 111/111/110 144/143/137 35/227/25
f 60/228/28 35/227/25 144/143/137
f 143/229/139 137/142/136 60/28/28
f 11/26/26 60/28/28 137/142/136
f 12/32/32 131/133/127 141/146/140
f 131/133/127 12/32/32 51/30/30
f 153/230/188 70/35/35 157/231/189
f 70/35/35 153/230/188 15/33/33
f 155/157/150 13/232/34 15/155/33
f 13/232/34 155/157/150 145/233/143
f 148/234/142 152/235/146 13/34/34
f 13/34/34 152/235/146 66/36/36
f 70/35/35 66/36/36 158/236/152
f 158/236/152 66/36/36 151/237/148
f 174/238/165 156/239/190 83/39/39
f 83/39/39 156/239/190 16/37/37
f 75/40/40 150/240/145 165/241/158
f 150/240/145 75/40/40 65/38/38
f 164/242/159 175/243/168 75/40/40
f 75/40/40 175/243/168 83/39/39
f 170/244/162 154/245/191 80/246/42
f 80/246/42 154/245/191 67/247/44
f 173/248/167 171/249/163 82/41/41
f 82/41/41 171/249/163 80/42/42
f 161/250/154 146/251/141 73/47/47
f 61/45/45 73/47/47 146/251/141
f 169/252/164 162/253/157 79/48/48
f 79/48/48 162/253/157 73/47/47
f 182/186/173 149/153/147 89/51/51
f 89/51/51 149/153/147 14/49/49
f 147/150/144 85/254/52 63/255/50
f 85/254/52 147/150/144 178/183/170
f 183/189/176 85/52/52 177/256/172
f 85/52/52 183/189/176 89/51/51
f 186/190/177 166/172/153 92/55/55
f 76/53/53 92/55/55 166/172/153
f 92/55/55 181/188/175 187/193/180
f 181/188/175 92/55/55 88/54/54
f 190/194/177 71/257/59 95/258/58
f 190/194/177 160/160/153 71/257/59
f 167/170/160 71/59/59 159/259/155
f 71/59/59 167/170/160 77/57/57
f 185/192/179 191/260/183 91/60/58
f 95/58/58 91/60/58 191/260/183
f 189/196/182 179/184/171 94/64/63
f 94/64/63 179/184/171 86/63/62
f 126/128/122 176/179/166 47/66/65
f 84/67/66 47/66/65 176/179/166
f 168/168/118 39/65/64 18/68/67
f 39/65/64 168/168/118 117/120/109
f 81/261/70 44/262/69 172/174/161
f 122/124/118 172/174/161 44/262/69
f 113/113/109 163/163/156 37/74/73
f 37/74/73 163/163/156 74/75/74
f 90/77/76 53/80/79 184/263/174
f 184/263/174 53/80/79 134/264/129
f 180/265/169 49/266/78 21/267/77
f 49/266/78 180/265/169 130/268/126
f 138/269/134 188/270/178 56/83/82
f 56/83/82 188/270/178 93/81/80
f 142/271/138 192/272/181 59/273/89
f 59/273/89 192/272/181 96/274/90
f 100/100/99 1/225/17 97/99/98
f 97/99/98 25/29/29 98/97/96
f 98/219/96 26/14/14 99/275/97
f 99/198/97 27/200/2 100/276/99
f 104/205/103 2/1/1 101/204/101
f 101/277/101 28/8/8 102/212/102
f 102/103/102 29/23/23 103/101/100
f 103/101/100 30/18/18 104/104/103
f 3/16/16 105/278/187 193/105/104
f 31/216/12 193/279/104 105/214/187
f 193/279/104 31/216/12 106/280/184
f 32/201/4 107/199/105 193/281/104
f 32/201/4 193/281/104 106/282/184
f 4/3/3 108/203/185 194/107/106
f 33/11/11 194/283/106 108/284/185
f 194/283/106 33/11/11 109/285/186
f 34/6/6 194/286/106 109/207/186
f 194/286/106 34/6/6 110/287/107
f 115/288/111 5/31/31 111/111/110
f 111/111/110 35/227/25 112/109/108
f 112/289/108 36/290/84 113/113/109
f 113/113/109 37/74/73 114/114/112
f 114/222/112 38/15/15 115/220/111
f 120/211/115 6/5/5 116/209/116
f 116/122/116 39/65/64 117/120/109
f 117/120/109 40/86/85 118/291/114
f 118/118/114 41/27/27 119/116/113
f 119/116/113 42/21/21 120/292/115
f 124/293/117 7/13/13 121/221/120
f 121/126/120 43/73/72 122/124/118
f 122/124/118 44/262/69 123/125/119
f 123/294/119 45/213/9 124/215/117
f 128/295/121 8/10/10 125/217/124
f 125/130/124 46/69/68 126/128/122
f 126/128/122 47/66/65 127/129/123
f 127/210/123 48/7/7 128/208/121
f 132/131/125 9/224/20 129/134/128
f 129/134/128 49/296/78 130/132/126
f 130/132/126 50/297/95 131/133/127
f 131/133/127 51/30/30 132/131/125
f 136/136/130 10/22/22 133/137/131
f 133/137/131 52/298/81 134/135/129
f 134/135/129 53/299/79 135/138/132
f 135/138/132 54/19/19 136/136/130
f 140/139/133 11/26/26 137/142/136
f 137/142/136 55/300/88 138/140/134
f 138/140/134 56/301/82 139/141/135
f 139/141/135 57/24/24 140/139/133
f 144/143/137 12/32/32 141/146/140
f 141/146/140 58/302/94 142/144/138
f 142/144/138 59/303/89 143/145/139
f 143/145/139 60/228/28 144/143/137
f 148/304/142 13/232/34 145/233/143
f 145/305/143 61/45/45 146/251/141
f 146/147/141 62/61/60 147/150/144
f 147/150/144 63/255/50 148/148/142
f 152/152/146 14/49/49 149/153/147
f 149/153/147 64/56/56 150/151/145
f 150/240/145 65/38/38 151/306/148
f 151/237/148 66/36/36 152/235/146
f 15/155/33 153/307/188 195/156/149
f 67/247/44 195/308/149 153/309/188
f 195/308/149 67/247/44 154/245/191
f 68/46/46 195/310/149 154/311/191
f 195/310/149 68/46/46 155/312/150
f 16/37/37 156/239/190 196/158/151
f 69/43/43 196/313/151 156/314/190
f 196/313/151 69/43/43 157/315/189
f 157/231/189 70/35/35 196/316/151
f 196/316/151 70/35/35 158/236/152
f 163/163/156 17/317/87 159/318/155
f 159/162/155 71/257/59 160/160/153
f 160/160/153 72/62/61 161/161/154
f 161/164/154 73/319/47 162/165/157
f 162/165/157 74/75/74 163/163/156
f 168/168/118 18/68/67 164/169/159
f 164/169/159 75/320/40 165/167/158
f 165/171/158 76/53/53 166/172/153
f 166/172/153 77/57/57 167/170/160
f 167/321/160 78/87/86 168/168/118
f 172/174/161 19/76/75 169/177/164
f 169/177/164 79/322/48 170/175/162
f 170/175/162 80/323/42 171/176/163
f 171/176/163 81/261/70 172/174/161
f 176/179/166 20/72/71 173/180/167
f 173/180/167 82/324/41 174/178/165
f 174/178/165 83/325/39 175/181/168
f 175/181/168 84/67/66 176/179/166
f 180/182/169 21/326/77 177/185/172
f 177/185/172 85/254/52 178/183/170
f 178/183/170 86/63/62 179/184/171
f 179/184/171 87/327/92 180/182/169
f 184/187/174 22/328/83 181/188/175
f 181/188/175 88/54/54 182/186/173
f 182/186/173 89/51/51 183/189/176
f 183/189/176 90/329/76 184/187/174
f 188/191/178 23/330/91 185/192/179
f 185/192/179 91/60/58 186/190/177
f 186/190/177 92/55/55 187/193/180
f 187/193/180 93/331/80 188/191/178
f 192/195/181 24/332/93 189/196/182
f 189/196/182 94/64/63 190/194/177
f 190/194/177 95/258/58 191/197/183
f 191/197/183 96/333/90 192/195/181
f 107/106/105 26/14/14 3/16/16
f 26/14/14 107/106/105 99/275/97
f 31/12/12 108/284/185 106/334/184
f 108/284/185 31/12/12 33/11/11
f 28/8/8 110/287/107 34/6/6
f 110/287/107 28/8/8 101/277/101
f 1/17/17 104/104/103 30/18/18
f 100/335/99 104/104/103 1/17/17
f 33/11/11 8/10/10 109/285/186
f 128/295/121 109/285/186 8/10/10
f 39/65/64 127/129/123 47/66/65
f 116/122/116 127/129/123 39/65/64
f 29/23/23 120/292/115 42/21/21
f 102/103/102 120/292/115 29/23/23
f 3/16/16 7/13/13 105/278/187
f 124/293/117 105/278/187 7/13/13
f 123/336/119 46/69/68 125/130/124
f 46/69/68 123/336/119 44/70/69
f 115/288/111 98/97/96 25/29/29
f 115/288/111 25/29/29 5/31/31
f 121/126/120 114/114/112 43/73/72
f 43/73/72 114/114/112 37/74/73
f 136/136/130 103/101/100 29/23/23
f 136/136/130 29/23/23 10/22/22
f 135/337/132 49/79/78 129/338/128
f 49/79/78 135/337/132 53/80/79
f 51/30/30 25/29/29 132/131/125
f 97/99/98 132/131/125 25/29/29
f 140/139/133 41/27/27 11/26/26
f 140/139/133 119/116/113 41/27/27
f 52/82/81 139/339/135 56/83/82
f 133/340/131 139/339/135 52/82/81
f 36/85/84 118/291/114 40/86/85
f 118/291/114 36/85/84 112/341/108
f 5/31/31 12/32/32 111/111/110
f 144/143/137 111/111/110 12/32/32
f 55/89/88 143/342/139 59/90/89
f 137/343/136 143/342/139 55/89/88
f 141/344/140 50/96/95 58/95/94
f 50/96/95 141/344/140 131/345/127
f 67/44/44 157/315/189 69/43/43
f 157/315/189 67/44/44 153/346/188
f 61/45/45 155/312/150 68/46/46
f 155/312/150 61/45/45 145/305/143
f 14/49/49 148/347/142 63/50/50
f 152/152/146 148/347/142 14/49/49
f 158/159/152 65/38/38 16/37/37
f 65/38/38 158/159/152 151/306/148
f 82/41/41 156/314/190 174/348/165
f 156/314/190 82/41/41 69/43/43
f 165/171/158 64/56/56 76/53/53
f 165/171/158 150/151/145 64/56/56
f 175/181/168 164/169/159 84/67/66
f 84/67/66 164/169/159 18/68/67
f 79/48/48 154/311/191 170/349/162
f 154/311/191 79/48/48 68/46/46
f 81/71/70 173/180/167 20/72/71
f 173/180/167 81/71/70 171/350/163
f 62/61/60 161/161/154 72/62/61
f 146/147/141 161/161/154 62/61/60
f 74/75/74 169/177/164 19/76/75
f 169/177/164 74/75/74 162/165/157
f 88/54/54 64/56/56 182/186/173
f 149/153/147 182/186/173 64/56/56
f 178/183/170 147/150/144 62/61/60
f 178/183/170 62/61/60 86/63/62
f 90/77/76 177/351/172 21/78/77
f 183/352/176 177/351/172 90/77/76
f 77/57/57 186/190/177 91/60/58
f 166/172/153 186/190/177 77/57/57
f 187/353/180 22/84/83 93/81/80
f 22/84/83 187/353/180 181/354/175
f 94/64/63 160/160/153 190/194/177
f 160/160/153 94/64/63 72/62/61
f 17/88/87 78/87/86 159/355/155
f 159/355/155 78/87/86 167/321/160
f 185/356/179 96/91/90 191/357/183
f 96/91/90 185/356/179 23/92/91
f 87/93/92 189/358/182 24/94/93
f 179/359/171 189/358/182 87/93/92
f 46/69/68 176/179/166 126/128/122
f 176/179/166 46/69/68 20/72/71
f 117/120/109 168/168/118 40/86/85
f 40/86/85 168/168/118 78/87/86
f 172/174/161 43/73/72 19/76/75
f 43/73/72 172/174/161 122/124/118
f 163/163/156 36/290/84 17/317/87
f 36/290/84 163/163/156 113/113/109
f 184/360/174 52/82/81 22/84/83
f 52/82/81 184/360/174 134/361/129
f 180/362/169 50/96/95 130/363/126
f 50/96/95 180/362/169 87/93/92
f 55/89/88 188/364/178 138/365/134
f 188/364/178 55/89/88 23/92/91
f 58/95/94 192/366/181 142/367/138
f 192/366/181 58/95/94 24/94/93
