# Blender 4.0.0
# www.blender.org
o fridge_door_Clear
v 0.40029800 -0.30315100 0.62528150
v 0.01550100 -0.20866300 0.62527650
v 0.40796300 -0.20279600 0.61978050
v 0.00834700 -0.20279600 0.61977850
v 0.40033000 -0.20866100 0.69552850
v 0.00835600 -0.30803300 0.61978450
v 0.00834500 -0.20279600 0.69552850
v 0.40032800 -0.30315200 0.69553350
v 0.01548000 -0.20866400 0.69552850
v 0.40796300 -0.30803200 0.61978550
v 0.01548000 -0.30315200 0.69553350
v 0.40796100 -0.30803300 0.69553250
v 0.40029800 -0.20866300 0.62527550
v 0.01550100 -0.30315000 0.62528050
v 0.00834500 -0.30803000 0.69553250
v 0.40796100 -0.20279600 0.69552650
v 0.40029800 -0.30315100 0.25579450
v 0.01550100 -0.20866300 0.25578950
v 0.40796300 -0.20279600 0.25029350
v 0.00834700 -0.20279600 0.25029250
v 0.40033000 -0.20866100 0.32604250
v 0.00835600 -0.30803300 0.25029850
v 0.00834500 -0.20279600 0.32604250
v 0.40032800 -0.30315200 0.32604750
v 0.01548000 -0.20866500 0.32604250
v 0.40796300 -0.30803300 0.25029850
v 0.01548000 -0.30315200 0.32604750
v 0.40796100 -0.30803300 0.32604650
v 0.40029800 -0.20866300 0.25578950
v 0.01550100 -0.30315100 0.25579450
v 0.00834500 -0.30803100 0.32604650
v 0.40796100 -0.20279600 0.32604050
vn -0.0000 -1.0000 -0.0000
vn -0.0000 -0.0001 -1.0000
vn -0.0000 -0.0000 1.0000
vn 1.0000 0.0001 -0.0000
vn -0.0000 1.0000 -0.0000
vn -1.0000 -0.0000 -0.0003
vn -0.0000 -0.0000 -1.0000
vn -0.0002 -0.0001 -1.0000
vn 1.0000 -0.0000 -0.0004
vn -0.0000 0.0001 -1.0000
vn -1.0000 -0.0000 -0.0000
vn -0.0000 -0.0003 -1.0000
vn -0.0000 0.0001 1.0000
vn 1.0000 -0.0000 0.0001
vn 0.0001 -0.0000 -1.0000
vn -0.0001 -0.0000 -1.0000
vt 0.749182 0.986165
vt 0.749275 0.986166
vt 0.749182 0.986544
vt 0.747022 0.984244
vt 0.746904 0.983896
vt 0.747022 0.983896
vt 0.748909 0.982143
vt 0.748917 0.982518
vt 0.748909 0.982525
vt 0.747925 0.983111
vt 0.748058 0.982733
vt 0.748057 0.983109
vt 0.749037 0.985978
vt 0.749129 0.985844
vt 0.749129 0.985977
vt 0.747300 0.986212
vt 0.747214 0.986569
vt 0.747214 0.986222
vt 0.756180 0.981702
vt 0.756965 0.982770
vt 0.756180 0.982782
vt 0.747943 0.986182
vt 0.748029 0.986537
vt 0.747943 0.986547
vt 0.748399 0.986537
vt 0.748491 0.986156
vt 0.747908 0.986313
vt 0.747300 0.986578
vt 0.749802 0.983835
vt 0.749275 0.986544
vt 0.746904 0.984244
vt 0.749004 0.983666
vt 0.747925 0.982732
vt 0.749037 0.985846
vt 0.756965 0.981688
vt 0.748029 0.986191
vt 0.748398 0.986160
s 0
f 3/1/1 16/2/1 4/3/1
f 14/4/2 13/5/2 1/6/2
f 16/7/2 9/8/2 7/9/2
f 3/10/3 6/11/3 10/12/3
f 7/13/4 6/14/4 4/15/4
f 9/16/5 13/17/5 2/18/5
f 9/19/6 14/20/6 11/21/6
f 11/22/1 1/23/1 8/24/1
f 10/25/5 15/26/5 12/27/5
f 9/8/7 15/26/7 7/13/7
f 12/27/8 5/28/8 16/7/8
f 8/24/9 13/5/9 5/28/9
f 8/24/10 12/27/10 11/29/10
f 12/27/11 16/7/11 10/12/11
f 16/2/1 7/30/1 4/3/1
f 14/4/2 2/31/2 13/5/2
f 16/7/12 5/32/12 9/8/12
f 3/10/13 4/33/13 6/11/13
f 7/13/14 15/34/14 6/14/14
f 9/16/5 5/28/5 13/17/5
f 9/19/6 2/35/6 14/20/6
f 11/22/1 14/36/1 1/23/1
f 10/25/5 6/37/5 15/26/5
f 9/8/15 11/29/15 15/26/15
f 12/27/16 8/24/16 5/28/16
f 8/24/9 1/23/9 13/5/9
f 12/27/10 15/26/10 11/29/10
f 16/7/11 3/1/11 10/12/11
f 19/1/1 32/2/1 20/3/1
f 30/4/2 29/5/2 17/6/2
f 32/7/2 25/8/2 23/9/2
f 19/10/3 22/11/3 26/12/3
f 23/13/4 22/14/4 20/15/4
f 25/16/5 29/17/5 18/18/5
f 25/19/6 30/20/6 27/21/6
f 27/22/1 17/23/1 24/24/1
f 26/25/5 31/26/5 28/27/5
f 25/8/7 31/26/7 23/13/7
f 28/27/8 21/28/8 32/7/8
f 24/24/9 29/5/9 21/28/9
f 24/24/10 28/27/10 27/29/10
f 28/27/11 32/7/11 26/12/11
f 32/2/1 23/30/1 20/3/1
f 30/4/2 18/31/2 29/5/2
f 32/7/12 21/32/12 25/8/12
f 19/10/13 20/33/13 22/11/13
f 23/13/14 31/34/14 22/14/14
f 25/16/5 21/28/5 29/17/5
f 25/19/6 18/35/6 30/20/6
f 27/22/1 30/36/1 17/23/1
f 26/25/5 22/37/5 31/26/5
f 25/8/15 27/29/15 31/26/15
f 28/27/16 24/24/16 21/28/16
f 24/24/9 17/23/9 29/5/9
f 28/27/10 31/26/10 27/29/10
f 32/7/11 19/1/11 26/12/11
