# Blender 4.0.0
# www.blender.org
o fridge_drawer2
v -0.02008700 -0.21231800 -0.19525550
v 0.40771800 -0.21069500 -0.19685450
v -0.02284400 0.31233200 -0.19525550
v 0.40771800 0.31231700 -0.19685450
v -0.02278500 -0.21386500 0.08011350
v 0.41087700 -0.21225500 0.08055850
v -0.02438900 0.31387700 0.08055850
v 0.40927800 0.31547600 0.08055850
v 0.03970500 -0.21384600 -0.00338750
v 0.34931500 -0.21386100 -0.00136750
v 0.34752300 -0.21386900 0.06824450
v 0.03717300 -0.21384800 0.06539050
v -0.01422400 -0.20369000 -0.18984850
v 0.39964000 -0.20528900 -0.18824950
v -0.01422400 0.30531100 -0.18984850
v 0.40231100 0.30531100 -0.18824950
v -0.01516100 -0.20688800 0.08215750
v 0.40391100 -0.20462600 0.08215750
v -0.01742200 0.30624800 0.08215750
v 0.40164900 0.30851000 0.08215750
v 0.04037100 -0.20688800 -0.00178850
v 0.34771600 -0.20688800 -0.00018950
v 0.34611700 -0.20688800 0.06664450
v 0.03877200 -0.20688800 0.06504550
v -0.02128600 -0.21235000 -0.19087950
v -0.02284400 -0.21071000 -0.19525550
v -0.02123000 -0.21069500 -0.19685450
v 0.40933200 -0.21071000 -0.19525550
v 0.40777400 -0.21235000 -0.19087950
v 0.40657500 -0.21231800 -0.19525550
v -0.02124500 0.31393100 -0.19525550
v -0.02123000 0.31231700 -0.19685450
v 0.40773300 0.31393100 -0.19525550
v 0.40933200 0.31233200 -0.19525550
v -0.01118500 -0.21386900 0.08055850
v -0.02054300 -0.21227000 0.08215750
v -0.02280400 -0.21000800 0.08215750
v -0.02438900 -0.21225500 0.08055850
v 0.40929300 -0.21000800 0.08215750
v 0.40703100 -0.21227000 0.08215750
v 0.39767300 -0.21386900 0.08055850
v 0.40927300 -0.21386500 0.08011350
v -0.02280400 0.31163000 0.08215750
v -0.02054300 0.31389200 0.08215750
v -0.02278900 0.31547600 0.08055850
v 0.40703100 0.31389200 0.08215750
v 0.40929300 0.31163000 0.08215750
v 0.41087700 0.31387700 0.08055850
v 0.04037100 -0.21227000 -0.00178850
v 0.03877200 -0.21227000 -0.00018950
v 0.03717300 -0.21386100 -0.00136750
v 0.34771600 -0.21227000 -0.00018950
v 0.34611700 -0.21227000 -0.00178850
v 0.34678300 -0.21384600 -0.00338750
v 0.34611700 -0.21227000 0.06664450
v 0.34771600 -0.21227000 0.06504550
v 0.34931500 -0.21384800 0.06539050
v 0.03877200 -0.21227000 0.06504550
v 0.04037100 -0.21227000 0.06664450
v 0.03896600 -0.21386900 0.06824450
v -0.01582300 -0.20369000 -0.18824950
v -0.01422400 -0.20528900 -0.18347850
v -0.01315200 -0.20528900 -0.18824950
v 0.40071200 -0.20528900 -0.18347850
v 0.40231100 -0.20369000 -0.18824950
v 0.40071200 -0.20369000 -0.18984850
v -0.01422400 0.30691100 -0.18824950
v -0.01582300 0.30531100 -0.18824950
v 0.40071200 0.30691100 -0.18824950
v 0.40071200 0.30531100 -0.18984850
v -0.00434400 -0.20528900 0.08055850
v -0.01422400 -0.20528900 0.08004150
v -0.01582300 -0.20369000 0.08055850
v -0.01742200 -0.20462600 0.08215750
v 0.40231100 -0.20369000 0.08055850
v 0.40071200 -0.20528900 0.08004150
v 0.39083300 -0.20528900 0.08055850
v 0.40164900 -0.20688800 0.08215750
v -0.01582300 0.30531100 0.08055850
v -0.01422400 0.30691100 0.08055850
v -0.01516100 0.30851000 0.08215750
v 0.40071200 0.30691100 0.08055850
v 0.40231100 0.30531100 0.08055850
v 0.40391100 0.30624800 0.08215750
v 0.03973000 -0.20528900 -0.00338750
v 0.03717300 -0.20528900 -0.00138750
v 0.03877200 -0.20688800 -0.00018950
v 0.34931500 -0.20528900 -0.00138750
v 0.34675900 -0.20528900 -0.00338750
v 0.34611700 -0.20688800 -0.00178850
v 0.34749300 -0.20528900 0.06824450
v 0.34931500 -0.20528900 0.06543650
v 0.34771600 -0.20688800 0.06504550
v 0.03717300 -0.20528900 0.06543650
v 0.03899500 -0.20528900 0.06824450
v 0.04037100 -0.20688800 0.06664450
v -0.02175800 -0.21231400 -0.19496150
v -0.02244700 -0.21191200 -0.19496150
v -0.02243300 -0.21149900 -0.19645550
v -0.02174400 -0.21190100 -0.19645550
v 0.40892100 -0.21149900 -0.19645550
v 0.40893500 -0.21191200 -0.19496150
v 0.40824600 -0.21231400 -0.19496150
v 0.40823200 -0.21190100 -0.19645550
v -0.02244400 0.31353200 -0.19525550
v -0.02123400 0.31352000 -0.19645550
v -0.02243300 0.31232100 -0.19645550
v 0.40772200 0.31352000 -0.19645550
v 0.40893200 0.31353200 -0.19525550
v 0.40892100 0.31232100 -0.19645550
v -0.02069400 -0.21386800 0.08124750
v -0.02013400 -0.21346900 0.08175850
v -0.02303900 -0.21250400 0.08215750
v -0.02400000 -0.21250000 0.08175850
v -0.02399500 -0.21346500 0.08124750
v 0.41048800 -0.21250000 0.08175850
v 0.40952700 -0.21250400 0.08215750
v 0.40662200 -0.21346900 0.08175850
v 0.40718300 -0.21386800 0.08124750
v 0.41048300 -0.21346500 0.08124750
v -0.02400000 0.31412200 0.08175850
v -0.02303900 0.31412600 0.08215750
v -0.02303500 0.31508700 0.08175850
v -0.02399600 0.31508400 0.08135850
v 0.40952300 0.31508700 0.08175850
v 0.40952700 0.31412600 0.08215750
v 0.41048800 0.31412200 0.08175850
v 0.41048400 0.31508400 0.08135850
v 0.03940500 -0.21346300 -0.00218850
v 0.03917200 -0.21306900 -0.00138850
v 0.03837200 -0.21346700 -0.00128350
v 0.03860600 -0.21386100 -0.00208350
v 0.34811600 -0.21346700 -0.00128350
v 0.34731600 -0.21306900 -0.00138850
v 0.34708300 -0.21346300 -0.00218850
v 0.34788300 -0.21386100 -0.00208350
v 0.34726800 -0.21346900 0.06704450
v 0.34731600 -0.21306900 0.06624550
v 0.34811600 -0.21346400 0.06593150
v 0.34806800 -0.21386400 0.06673150
v 0.03837200 -0.21346400 0.06593150
v 0.03917200 -0.21306900 0.06624550
v 0.03922000 -0.21346900 0.06704450
v 0.03842100 -0.21386400 0.06673150
v -0.01542300 -0.20448900 -0.18944950
v -0.01542300 -0.20488900 -0.18785650
v -0.01475600 -0.20528900 -0.18785650
v -0.01475600 -0.20488900 -0.18944950
v 0.40124400 -0.20528900 -0.18785650
v 0.40191200 -0.20488900 -0.18785650
v 0.40191200 -0.20448900 -0.18944950
v 0.40124400 -0.20488900 -0.18944950
v -0.01422400 0.30651100 -0.18944950
v -0.01542300 0.30651100 -0.18824950
v -0.01542300 0.30531100 -0.18944950
v 0.40191200 0.30651100 -0.18824950
v 0.40071200 0.30651100 -0.18944950
v 0.40191200 0.30531100 -0.18944950
v -0.01278800 -0.20568900 0.08175850
v -0.01255400 -0.20528900 0.08122850
v -0.01542300 -0.20488900 0.08122850
v -0.01622300 -0.20472300 0.08175850
v -0.01605700 -0.20552300 0.08215750
v 0.40271100 -0.20472300 0.08175850
v 0.40191200 -0.20488900 0.08122850
v 0.39904200 -0.20528900 0.08122850
v 0.39927600 -0.20568900 0.08175850
v 0.40254600 -0.20552300 0.08215750
v -0.01622300 0.30634500 0.08175850
v -0.01542300 0.30651100 0.08135850
v -0.01525800 0.30731000 0.08175850
v -0.01605700 0.30714500 0.08215750
v 0.40174600 0.30731000 0.08175850
v 0.40191200 0.30651100 0.08135850
v 0.40271100 0.30634500 0.08175850
v 0.40254600 0.30714500 0.08215750
v 0.03941100 -0.20568900 -0.00218850
v 0.03861200 -0.20528900 -0.00208850
v 0.03837200 -0.20568900 -0.00128850
v 0.03917200 -0.20608800 -0.00138850
v 0.34811600 -0.20568900 -0.00128850
v 0.34787700 -0.20528900 -0.00208850
v 0.34707700 -0.20568900 -0.00218850
v 0.34731600 -0.20608800 -0.00138850
v 0.34726100 -0.20568900 0.06704450
v 0.34806000 -0.20528900 0.06674250
v 0.34811600 -0.20568900 0.06594350
v 0.34731600 -0.20608800 0.06624550
v 0.03837200 -0.20568900 0.06594350
v 0.03842800 -0.20528900 0.06674250
v 0.03922800 -0.20568900 0.06704450
v 0.03917200 -0.20608800 0.06624550
v -0.02243600 0.31322300 -0.19615550
v 0.40862100 0.31322000 -0.19645550
v -0.01512400 0.30621100 -0.18944950
v 0.40191200 0.30621100 -0.18914950
vn 0.0015 -0.0010 -1.0000
vn 0.0110 -0.0146 -0.9998
vn 0.0014 0.0009 -1.0000
vn -0.0015 0.0010 -1.0000
vn 0.9997 -0.0144 -0.0174
vn 1.0000 0.0004 -0.0099
vn 1.0000 -0.0001 -0.0043
vn 1.0000 -0.0009 -0.0097
vn -0.0003 1.0000 -0.0043
vn 0.0008 1.0000 -0.0047
vn 0.0064 1.0000 -0.0048
vn -0.0011 0.9999 -0.0100
vn -0.9998 0.0140 -0.0172
vn -0.9999 -0.0003 -0.0101
vn -1.0000 -0.0000 -0.0043
vn -1.0000 0.0010 -0.0095
vn 0.0003 -0.9999 -0.0170
vn 0.0256 -0.9995 -0.0178
vn -0.0046 -0.9999 -0.0099
vn 0.0227 -0.9996 -0.0138
vn 0.0416 -0.9982 -0.0434
vn -0.0057 -0.9998 -0.0215
vn 0.0183 -0.9998 -0.0065
vn 0.0042 -1.0000 -0.0075
vn 0.0032 -0.9993 0.0367
vn -0.0001 -0.9998 -0.0222
vn -0.0000 -0.9993 0.0366
vn 0.0001 -0.9998 -0.0222
vn -0.0204 -0.9996 0.0185
vn -0.0142 -0.9996 0.0257
vn -0.0158 -0.9999 -0.0052
vn -0.0042 -1.0000 -0.0075
vn 0.0015 -0.0010 1.0000
vn -0.0114 0.0154 0.9998
vn -0.0016 -0.0011 1.0000
vn -0.0015 0.0010 1.0000
vn -1.0000 -0.0010 0.0025
vn -0.9998 0.0161 -0.0117
vn -1.0000 -0.0005 0.0020
vn -1.0000 0.0010 0.0025
vn -0.0015 -1.0000 0.0025
vn -0.0034 -1.0000 0.0070
vn -0.0016 -1.0000 0.0026
vn 0.0016 -1.0000 0.0025
vn 1.0000 0.0010 0.0025
vn 0.9997 -0.0195 -0.0138
vn 1.0000 0.0005 0.0020
vn 1.0000 -0.0010 0.0025
vn -0.0000 1.0000 0.0017
vn -0.0035 1.0000 0.0019
vn -0.0214 0.9998 -0.0039
vn -0.0000 1.0000 0.0009
vn -0.0228 0.9988 0.0436
vn -0.0008 1.0000 0.0003
vn -0.0003 1.0000 -0.0000
vn -0.0019 0.9996 -0.0265
vn -0.0043 1.0000 0.0016
vn -0.0000 1.0000 -0.0009
vn -0.0000 1.0000 0.0015
vn 0.0001 1.0000 -0.0000
vn 0.0228 0.9988 0.0436
vn 0.0102 0.9998 -0.0155
vn 0.0003 1.0000 -0.0000
vn 0.0110 -0.0000 0.9999
vn 0.0109 -0.0000 0.9999
vn -0.0105 -0.0003 0.9999
vn -0.0106 -0.0000 0.9999
vn -0.0000 0.0074 1.0000
vn -0.0000 0.0073 1.0000
vn 0.0008 -0.0067 1.0000
vn -0.0000 -0.0069 1.0000
vn -0.0110 -0.0000 0.9999
vn 0.0105 0.0003 0.9999
vn 0.0106 -0.0000 0.9999
vn -0.0029 0.0610 0.9981
vn 0.0029 0.0609 0.9981
vn 0.0051 -0.0581 0.9983
vn -0.0029 -0.0610 0.9981
vn -0.9987 0.0461 -0.0234
vn -0.9980 -0.0621 0.0107
vn -0.9980 -0.0616 -0.0103
vn -0.9980 0.0618 0.0104
vn -0.0000 -0.0073 1.0000
vn -0.0000 -0.0072 1.0000
vn -0.0003 0.0067 1.0000
vn -0.0000 0.0069 1.0000
vn -0.0029 -0.0611 -0.9981
vn 0.0028 -0.0610 -0.9981
vn 0.0051 0.0582 -0.9983
vn -0.0029 0.0610 -0.9981
vn 0.9980 0.0621 0.0107
vn 0.9980 0.0616 -0.0103
vn 0.9987 -0.0460 -0.0234
vn 0.9980 -0.0619 0.0104
vn -0.7113 -0.7027 -0.0122
vn -0.7041 -0.0015 -0.7101
vn -0.0106 -0.9999 -0.0121
vn -0.0012 -0.7023 -0.7119
vn 0.0106 -0.9999 -0.0120
vn 0.7041 -0.0016 -0.7101
vn 0.7114 -0.7027 -0.0121
vn 0.0012 -0.7023 -0.7119
vn -0.5737 0.5737 -0.5845
vn -0.7035 0.0005 -0.7107
vn 0.5737 0.5737 -0.5845
vn 0.7040 0.0005 -0.7102
vn -0.0006 -0.7003 0.7138
vn -0.0000 -0.0002 1.0000
vn -0.0041 -0.9997 0.0239
vn -0.7070 -0.7072 -0.0012
vn -0.7099 -0.0028 0.7043
vn 0.0041 -0.9997 0.0239
vn 0.0006 -0.7003 0.7138
vn 0.7070 -0.7072 -0.0012
vn 0.7099 -0.0028 0.7043
vn -0.7071 0.7070 -0.0077
vn -0.0001 0.0001 1.0000
vn -0.0007 0.7112 0.7030
vn -0.7109 0.0005 0.7033
vn 0.7069 0.7073 -0.0077
vn 0.0001 0.0001 1.0000
vn 0.7109 0.0005 0.7033
vn 0.0007 0.7112 0.7030
vn -0.0023 -1.0000 -0.0060
vn 0.7007 -0.0966 0.7069
vn 0.6965 -0.7174 0.0115
vn 0.0030 -0.7138 0.7004
vn -0.7007 -0.0966 0.7069
vn 0.0024 -1.0000 -0.0060
vn -0.6966 -0.7174 0.0115
vn -0.0030 -0.7138 0.7004
vn -0.0044 -1.0000 -0.0076
vn -0.7104 -0.0968 -0.6972
vn -0.6983 -0.7157 -0.0106
vn -0.0033 -0.7100 -0.7042
vn 0.0045 -1.0000 -0.0076
vn 0.7104 -0.0968 -0.6971
vn 0.0034 -0.7101 -0.7041
vn 0.6983 -0.7157 -0.0106
vn 0.7094 0.7048 0.0007
vn 0.0013 0.7076 0.7067
vn 0.7075 0.0017 0.7067
vn -0.0027 1.0000 -0.0009
vn -0.7094 0.7048 0.0007
vn -0.0013 0.7075 0.7067
vn 0.0027 1.0000 -0.0009
vn -0.7075 0.0017 0.7067
vn 0.5773 -0.5774 0.5774
vn 0.7074 -0.0005 0.7068
vn -0.5773 -0.5774 0.5773
vn -0.7068 -0.0006 0.7074
vn -0.0000 1.0000 0.0001
vn 0.7055 0.7087 0.0059
vn 0.0017 0.6986 0.7155
vn -0.0000 0.0002 1.0000
vn 0.7057 0.0033 0.7085
vn -0.7055 0.7087 0.0059
vn -0.7057 0.0033 0.7085
vn -0.0016 0.6986 0.7155
vn -0.0000 -0.0000 1.0000
vn 0.7071 -0.7071 0.0042
vn 0.0018 -0.7059 0.7083
vn 0.7063 -0.0012 0.7079
vn -0.7070 -0.7072 0.0042
vn -0.0018 -0.7059 0.7083
vn -0.7063 -0.0012 0.7079
vn 0.7002 0.0965 0.7073
vn 0.0008 1.0000 0.0009
vn 0.6996 0.7144 0.0116
vn 0.0030 0.7086 0.7056
vn -0.0008 1.0000 0.0010
vn -0.7002 0.0965 0.7073
vn -0.6996 0.7144 0.0116
vn -0.0030 0.7086 0.7056
vn -0.0000 1.0000 -0.0000
vn -0.7101 0.0967 -0.6974
vn -0.0034 0.7100 -0.7042
vn -0.7013 0.7127 -0.0107
vn 0.7101 0.0967 -0.6975
vn 0.7014 0.7127 -0.0107
vn 0.0033 0.7100 -0.7042
vn -0.0014 0.7032 -0.7110
vn 0.0007 0.7043 -0.7099
vn 0.7070 0.7071 -0.0127
vn -0.7064 0.7077 -0.0118
vn 0.0007 -0.7076 0.7066
vn -0.0014 -0.7070 0.7072
vn -0.7062 -0.7080 0.0012
vn 0.7074 -0.7068 0.0022
vt 0.968861 0.723710
vt 0.941321 0.723714
vt 0.968861 0.678824
vt 0.941321 0.678828
vt 0.949222 0.726673
vt 0.926820 0.681650
vt 0.949224 0.681524
vt 0.926819 0.726548
vt 0.911690 0.751740
vt 0.911690 0.723945
vt 0.934120 0.724071
vt 0.934120 0.751614
vt 0.890524 0.878839
vt 0.912929 0.923862
vt 0.890526 0.923988
vt 0.912928 0.878965
vt 0.944730 0.681160
vt 0.944730 0.708515
vt 0.929134 0.703652
vt 0.929134 0.686024
vt 0.922345 0.708735
vt 0.928970 0.703858
vt 0.944374 0.708613
vt 0.923542 0.703858
vt 0.922309 0.681884
vt 0.923310 0.703712
vt 0.922309 0.707791
vt 0.923310 0.685964
vt 0.918536 0.858239
vt 0.903131 0.862994
vt 0.896507 0.858117
vt 0.897704 0.862994
vt 0.931692 0.723291
vt 0.931692 0.679541
vt 0.958093 0.723292
vt 0.958093 0.679542
vt 0.941337 0.696169
vt 0.941338 0.739925
vt 0.919497 0.696169
vt 0.919498 0.739925
vt 0.954679 0.701068
vt 0.954679 0.727470
vt 0.932824 0.701068
vt 0.932824 0.727470
vt 0.915698 0.917101
vt 0.915700 0.873346
vt 0.937538 0.917101
vt 0.937540 0.873346
vt 0.970634 0.722841
vt 0.970634 0.749068
vt 0.955599 0.727143
vt 0.955599 0.744767
vt 0.948814 0.722754
vt 0.955436 0.726935
vt 0.950001 0.726935
vt 0.970246 0.722754
vt 0.948772 0.723558
vt 0.949773 0.744827
vt 0.948772 0.748352
vt 0.949773 0.727083
vt 0.944408 0.926332
vt 0.922975 0.926332
vt 0.929598 0.922151
vt 0.924163 0.922151
vt 0.969827 0.672774
vt 0.969827 0.717552
vt 0.969389 0.717114
vt 0.969389 0.673212
vt 0.969643 0.717736
vt 0.942214 0.717735
vt 0.942651 0.717297
vt 0.969205 0.717298
vt 0.916191 0.894727
vt 0.916191 0.849950
vt 0.916629 0.850387
vt 0.916629 0.894290
vt 0.911438 0.680708
vt 0.911438 0.698228
vt 0.911000 0.698228
vt 0.911000 0.680708
vt 0.918517 0.726636
vt 0.918079 0.731936
vt 0.918079 0.726636
vt 0.918517 0.731936
vt 0.942214 0.672589
vt 0.969643 0.672590
vt 0.969205 0.673028
vt 0.942651 0.673027
vt 0.912266 0.698227
vt 0.912266 0.680708
vt 0.912703 0.680708
vt 0.912703 0.698227
vt 0.893506 0.909112
vt 0.893506 0.903812
vt 0.893944 0.903812
vt 0.893944 0.909112
vt 0.918866 0.858145
vt 0.918987 0.858146
vt 0.918867 0.858201
vt 0.918988 0.858202
vt 0.944706 0.708651
vt 0.944825 0.708706
vt 0.944705 0.708707
vt 0.944826 0.708650
vt 0.913000 0.878892
vt 0.913024 0.878966
vt 0.968934 0.678750
vt 0.968959 0.678823
vt 0.896372 0.858333
vt 0.896337 0.858096
vt 0.896415 0.858287
vt 0.916094 0.849670
vt 0.916172 0.849747
vt 0.916094 0.849748
vt 0.916363 0.849637
vt 0.922253 0.708565
vt 0.922175 0.708755
vt 0.922210 0.708519
vt 0.969923 0.672494
vt 0.969846 0.672571
vt 0.969655 0.672462
vt 0.969924 0.672572
vt 0.916094 0.895009
vt 0.916172 0.894930
vt 0.916173 0.895009
vt 0.916094 0.894931
vt 0.969924 0.717834
vt 0.969846 0.717755
vt 0.969924 0.717755
vt 0.969845 0.717834
vt 0.903190 0.863111
vt 0.903131 0.863157
vt 0.903124 0.863092
vt 0.903197 0.863176
vt 0.928969 0.703695
vt 0.929028 0.703741
vt 0.928962 0.703760
vt 0.929035 0.703676
vt 0.923433 0.703756
vt 0.923470 0.703695
vt 0.923497 0.703760
vt 0.923406 0.703691
vt 0.897595 0.863096
vt 0.897632 0.863157
vt 0.897568 0.863161
vt 0.897659 0.863092
vt 0.944764 0.926430
vt 0.944894 0.926375
vt 0.944894 0.926430
vt 0.944764 0.926375
vt 0.970602 0.722657
vt 0.970732 0.722711
vt 0.970602 0.722711
vt 0.970732 0.722657
vt 0.905854 0.900467
vt 0.905781 0.900540
vt 0.905756 0.900467
vt 0.941412 0.696096
vt 0.941436 0.696169
vt 0.922879 0.926196
vt 0.922879 0.926430
vt 0.922835 0.926215
vt 0.916740 0.850314
vt 0.916792 0.850367
vt 0.916727 0.850380
vt 0.922803 0.926481
vt 0.969226 0.673192
vt 0.969278 0.673139
vt 0.969291 0.673205
vt 0.948673 0.722871
vt 0.948717 0.722657
vt 0.948717 0.722890
vt 0.948641 0.722605
vt 0.916740 0.894363
vt 0.916792 0.894312
vt 0.916805 0.894377
vt 0.916727 0.894298
vt 0.969226 0.717137
vt 0.969278 0.717187
vt 0.969213 0.717201
vt 0.969291 0.717123
vt 0.929597 0.921989
vt 0.929655 0.922034
vt 0.929590 0.922054
vt 0.929663 0.921969
vt 0.955493 0.727052
vt 0.955435 0.727097
vt 0.955428 0.727032
vt 0.955501 0.727117
vt 0.949895 0.727037
vt 0.949935 0.727097
vt 0.949870 0.727102
vt 0.949960 0.727032
vt 0.924057 0.922049
vt 0.924096 0.921989
vt 0.924121 0.922054
vt 0.924032 0.921984
vt 0.915384 0.900955
vt 0.915385 0.856004
vt 0.915482 0.900890
vt 0.915483 0.856004
vt 0.941320 0.678730
vt 0.968861 0.678726
vt 0.968958 0.723775
vt 0.968902 0.723807
vt 0.941278 0.723811
vt 0.926822 0.681553
vt 0.949290 0.681426
vt 0.949321 0.726693
vt 0.949323 0.681504
vt 0.949279 0.726772
vt 0.926844 0.726646
vt 0.885852 0.928916
vt 0.908282 0.928888
vt 0.885787 0.929015
vt 0.908282 0.928791
vt 0.911592 0.723925
vt 0.911592 0.751760
vt 0.912904 0.923960
vt 0.890468 0.924086
vt 0.890425 0.878819
vt 0.890427 0.924008
vt 0.929035 0.685999
vt 0.903296 0.863200
vt 0.918891 0.858337
vt 0.922210 0.681156
vt 0.896470 0.859061
vt 0.897472 0.863140
vt 0.923406 0.685984
vt 0.931692 0.723388
vt 0.958093 0.723389
vt 0.905854 0.856717
vt 0.905756 0.856652
vt 0.931649 0.679443
vt 0.958136 0.679444
vt 0.958191 0.723291
vt 0.958191 0.679476
vt 0.919433 0.696072
vt 0.941338 0.696072
vt 0.941308 0.740022
vt 0.919445 0.740022
vt 0.919399 0.740009
vt 0.919398 0.696085
vt 0.928905 0.904744
vt 0.906985 0.904744
vt 0.928841 0.904646
vt 0.906986 0.904646
vt 0.954778 0.700984
vt 0.954778 0.727554
vt 0.937591 0.917199
vt 0.915729 0.917199
vt 0.937639 0.873261
vt 0.937637 0.917185
vt 0.929761 0.921943
vt 0.944796 0.926245
vt 0.955501 0.744793
vt 0.922933 0.925528
vt 0.923935 0.922003
vt 0.948673 0.749039
vt 0.949870 0.744808
vt 0.916813 0.894474
vt 0.916375 0.894911
vt 0.911502 0.680610
vt 0.910935 0.680610
vt 0.885664 0.875502
vt 0.885162 0.875404
vt 0.885600 0.875404
vt 0.885096 0.875502
vt 0.918014 0.726540
vt 0.918582 0.726540
vt 0.886362 0.857787
vt 0.886929 0.857787
vt 0.886427 0.857884
vt 0.886865 0.857884
vt 0.913025 0.923927
vt 0.915440 0.900988
vt 0.926723 0.726612
vt 0.912926 0.878867
vt 0.908355 0.928888
vt 0.908379 0.928790
vt 0.915384 0.855930
vt 0.915482 0.855906
vt 0.934217 0.723999
vt 0.934218 0.724072
vt 0.934120 0.723973
vt 0.926726 0.681578
vt 0.926724 0.681651
vt 0.896414 0.858019
vt 0.916409 0.849669
vt 0.916375 0.849766
vt 0.969609 0.672493
vt 0.922252 0.708833
vt 0.890458 0.878741
vt 0.885754 0.928936
vt 0.911625 0.723847
vt 0.903162 0.863254
vt 0.903032 0.863124
vt 0.928870 0.703728
vt 0.929000 0.703598
vt 0.923436 0.703598
vt 0.923566 0.703728
vt 0.897728 0.863124
vt 0.897598 0.863254
vt 0.905811 0.856619
vt 0.915599 0.917166
vt 0.941437 0.739990
vt 0.905854 0.900564
vt 0.906887 0.904719
vt 0.906888 0.904646
vt 0.915600 0.873272
vt 0.915698 0.873248
vt 0.915601 0.873346
vt 0.932749 0.700971
vt 0.932823 0.700971
vt 0.932726 0.701068
vt 0.958191 0.723364
vt 0.916813 0.850203
vt 0.917006 0.850302
vt 0.916759 0.850466
vt 0.969259 0.673290
vt 0.969012 0.673126
vt 0.916759 0.894216
vt 0.916889 0.894346
vt 0.969129 0.717170
vt 0.969259 0.717040
vt 0.929629 0.921891
vt 0.929499 0.922021
vt 0.955337 0.727065
vt 0.955467 0.727195
vt 0.949901 0.727195
vt 0.950031 0.727065
vt 0.924193 0.922021
vt 0.924063 0.921891
vt 0.934218 0.751613
vt 0.944826 0.681025
vt 0.942011 0.717833
vt 0.910904 0.680629
vt 0.910904 0.698306
vt 0.917982 0.726562
vt 0.917982 0.732023
vt 0.942247 0.672492
vt 0.912169 0.680614
vt 0.912169 0.698320
vt 0.894041 0.903739
vt 0.894042 0.909200
vt 0.932726 0.727470
vt 0.970732 0.749199
vt 0.954743 0.700971
vt 0.937603 0.873248
vt 0.942643 0.717200
vt 0.911536 0.698306
vt 0.911536 0.680630
vt 0.918614 0.726561
vt 0.918614 0.732024
vt 0.942844 0.673125
vt 0.912802 0.698320
vt 0.912802 0.680614
vt 0.893409 0.903738
vt 0.893409 0.909200
vt 0.918582 0.732035
vt 0.918014 0.732035
vt 0.893441 0.909211
vt 0.894009 0.909211
vt 0.912768 0.698325
vt 0.912200 0.698325
vt 0.893441 0.903716
vt 0.894009 0.903716
s 1
f 2/1/1 27/2/2 4/3/3
f 27/2/2 32/4/4 4/3/3
f 6/5/5 34/6/6 48/7/7
f 34/6/6 6/5/5 28/8/8
f 45/9/9 8/10/10 33/11/11
f 45/9/9 33/11/11 31/12/12
f 7/13/13 26/14/14 38/15/15
f 26/14/14 7/13/13 3/16/16
f 1/17/17 30/18/18 54/19/19
f 1/17/17 54/19/19 9/20/20
f 42/21/21 10/22/22 29/23/23
f 10/22/22 42/21/21 57/24/24
f 35/25/25 11/26/26 41/27/27
f 11/26/26 35/25/25 60/28/28
f 25/29/29 51/30/30 5/31/31
f 12/32/32 5/31/31 51/30/30
f 15/33/33 13/34/34 70/35/35
f 70/35/35 13/34/34 66/36/36
f 16/37/37 65/38/38 83/39/39
f 75/40/40 83/39/39 65/38/38
f 82/41/41 80/42/42 69/43/43
f 80/42/42 67/44/44 69/43/43
f 61/45/45 68/46/46 73/47/47
f 79/48/48 73/47/47 68/46/46
f 14/49/49 63/50/50 89/51/51
f 89/51/51 63/50/50 85/52/52
f 76/53/53 88/54/54 92/55/55
f 88/54/54 76/53/53 64/56/56
f 77/57/57 95/58/58 71/59/59
f 95/58/58 77/57/57 91/60/58
f 62/61/60 72/62/61 86/63/62
f 72/62/61 94/64/63 86/63/62
f 39/65/64 47/66/65 84/67/66
f 39/65/64 84/67/66 18/68/67
f 46/69/68 44/70/69 81/71/70
f 46/69/68 81/71/70 20/72/71
f 43/73/72 37/74/72 74/75/73
f 43/73/72 74/75/73 19/76/74
f 90/77/75 21/78/76 49/79/77
f 90/77/75 49/79/77 53/80/78
f 93/81/79 52/82/80 56/83/81
f 52/82/80 93/81/79 22/84/82
f 36/85/83 40/86/84 78/87/85
f 36/85/83 78/87/85 17/88/86
f 55/89/87 59/90/88 96/91/89
f 55/89/87 96/91/89 23/92/90
f 87/93/91 24/94/92 58/95/93
f 58/95/93 50/96/94 87/93/91
f 98/97/95 99/98/96 97/99/97
f 97/99/97 99/98/96 100/100/98
f 103/101/99 101/102/100 102/103/101
f 101/102/100 103/101/99 104/104/102
f 3/16/16 193/105/103 107/106/104
f 4/3/3 194/107/105 110/108/106
f 112/109/107 113/110/108 111/111/109
f 115/112/110 113/113/108 114/114/111
f 113/113/108 115/112/110 111/115/109
f 119/116/112 117/117/108 118/118/113
f 120/119/114 117/120/108 119/121/112
f 117/120/108 120/119/114 116/122/115
f 124/123/116 122/124/117 123/125/118
f 122/124/117 124/123/116 121/126/119
f 128/127/120 126/128/121 127/129/122
f 126/128/121 128/127/120 125/130/123
f 132/131/124 130/132/125 131/133/126
f 130/132/125 132/131/124 129/134/127
f 134/135/128 136/136/129 133/137/130
f 136/136/129 134/135/128 135/138/131
f 140/139/132 138/140/133 139/141/134
f 138/140/133 140/139/132 137/142/135
f 144/143/136 142/144/137 143/145/138
f 142/144/137 144/143/136 141/146/139
f 146/147/140 148/148/141 145/149/142
f 148/148/141 146/147/140 147/150/143
f 150/151/144 152/152/145 149/153/146
f 152/152/145 150/151/144 151/154/147
f 15/155/33 195/156/148 155/157/149
f 16/37/37 196/158/150 158/159/151
f 160/160/152 161/161/153 159/162/154
f 163/163/155 161/164/153 162/165/156
f 161/161/153 163/166/155 159/162/154
f 165/167/157 168/168/117 164/169/158
f 167/170/159 165/171/157 166/172/152
f 168/173/117 165/171/157 167/170/159
f 172/174/160 170/175/161 171/176/162
f 170/175/161 172/174/160 169/177/163
f 174/178/164 176/179/160 173/180/165
f 176/179/160 174/178/164 175/181/166
f 180/182/167 178/183/168 179/184/169
f 178/183/168 180/182/167 177/185/170
f 182/186/171 184/187/172 181/188/173
f 184/187/172 182/186/171 183/189/174
f 186/190/175 188/191/176 185/192/177
f 188/191/176 186/190/175 187/193/178
f 190/194/175 192/195/179 189/196/180
f 192/195/179 190/194/175 191/197/181
f 99/198/96 107/199/104 27/200/2
f 27/200/2 107/199/104 32/201/4
f 106/202/182 108/203/183 32/4/4
f 4/3/3 32/4/4 108/203/183
f 2/1/1 110/108/106 101/204/100
f 110/108/106 2/1/1 4/3/3
f 104/205/102 100/206/98 2/1/1
f 2/1/1 100/206/98 27/2/2
f 48/7/7 109/207/184 128/208/120
f 109/207/184 48/7/7 34/6/6
f 116/209/115 48/7/7 127/210/122
f 48/7/7 116/209/115 6/5/5
f 120/211/114 102/212/101 6/5/5
f 6/5/5 102/212/101 28/8/8
f 45/213/9 105/214/185 124/215/116
f 105/214/185 45/213/9 31/216/12
f 125/217/123 45/9/9 123/218/118
f 45/9/9 125/217/123 8/10/10
f 38/15/15 98/219/95 115/220/110
f 98/219/95 38/15/15 26/14/14
f 121/221/119 38/15/15 114/222/111
f 38/15/15 121/221/119 7/13/13
f 103/101/99 54/19/19 30/18/18
f 54/19/19 103/101/99 136/136/129
f 129/223/127 54/19/19 135/138/131
f 54/19/19 129/223/127 9/20/20
f 132/131/124 97/99/97 9/224/20
f 9/224/20 97/99/97 1/225/17
f 57/24/24 119/116/112 140/139/132
f 119/116/112 57/24/24 42/21/21
f 139/141/134 133/137/130 57/24/24
f 57/24/24 133/137/130 10/22/22
f 112/226/107 41/27/27 118/118/113
f 41/27/27 112/226/107 35/25/25
f 111/111/109 144/143/136 35/227/25
f 60/228/28 35/227/25 144/143/136
f 143/229/138 137/142/135 60/28/28
f 11/26/26 60/28/28 137/142/135
f 12/32/32 131/133/126 141/146/139
f 131/133/126 12/32/32 51/30/30
f 153/230/186 70/35/35 157/231/187
f 70/35/35 153/230/186 15/33/33
f 155/157/149 13/232/34 15/155/33
f 13/232/34 155/157/149 145/233/142
f 148/234/141 152/235/145 13/34/34
f 13/34/34 152/235/145 66/36/36
f 70/35/35 66/36/36 158/236/151
f 158/236/151 66/36/36 151/237/147
f 174/238/164 156/239/188 83/39/39
f 83/39/39 156/239/188 16/37/37
f 75/40/40 150/240/144 165/241/157
f 150/240/144 75/40/40 65/38/38
f 164/242/158 175/243/166 75/40/40
f 75/40/40 175/243/166 83/39/39
f 170/244/161 154/245/189 80/246/42
f 80/246/42 154/245/189 67/247/44
f 173/248/165 171/249/162 82/41/41
f 82/41/41 171/249/162 80/42/42
f 161/250/153 146/251/140 73/47/47
f 61/45/45 73/47/47 146/251/140
f 169/252/163 162/253/156 79/48/48
f 79/48/48 162/253/156 73/47/47
f 182/186/171 149/153/146 89/51/51
f 89/51/51 149/153/146 14/49/49
f 147/150/143 85/254/52 63/255/50
f 85/254/52 147/150/143 178/183/168
f 183/189/174 85/52/52 177/256/170
f 85/52/52 183/189/174 89/51/51
f 186/190/175 166/172/152 92/55/55
f 76/53/53 92/55/55 166/172/152
f 92/55/55 181/188/173 187/193/178
f 181/188/173 92/55/55 88/54/54
f 190/194/175 71/257/59 95/258/58
f 190/194/175 160/160/152 71/257/59
f 167/170/159 71/59/59 159/259/154
f 71/59/59 167/170/159 77/57/57
f 185/192/177 191/260/181 91/60/58
f 95/58/58 91/60/58 191/260/181
f 189/196/180 179/184/169 94/64/63
f 94/64/63 179/184/169 86/63/62
f 126/128/121 176/179/160 47/66/65
f 84/67/66 47/66/65 176/179/160
f 168/168/117 39/65/64 18/68/67
f 39/65/64 168/168/117 117/120/108
f 81/261/70 44/262/69 172/174/160
f 122/124/117 172/174/160 44/262/69
f 113/113/108 163/163/155 37/74/72
f 37/74/72 163/163/155 74/75/73
f 90/77/75 53/80/78 184/263/172
f 184/263/172 53/80/78 134/264/128
f 180/265/167 49/266/77 21/267/76
f 49/266/77 180/265/167 130/268/125
f 138/269/133 188/270/176 56/83/81
f 56/83/81 188/270/176 93/81/79
f 142/271/137 192/272/179 59/273/88
f 59/273/88 192/272/179 96/274/89
f 100/100/98 1/225/17 97/99/97
f 97/99/97 25/29/29 98/97/95
f 98/219/95 26/14/14 99/275/96
f 99/198/96 27/200/2 100/276/98
f 104/205/102 2/1/1 101/204/100
f 101/277/100 28/8/8 102/212/101
f 102/103/101 29/23/23 103/101/99
f 103/101/99 30/18/18 104/104/102
f 3/16/16 105/278/185 193/105/103
f 31/216/12 193/279/103 105/214/185
f 193/279/103 31/216/12 106/280/182
f 32/201/4 107/199/104 193/281/103
f 32/201/4 193/281/103 106/282/182
f 4/3/3 108/203/183 194/107/105
f 33/11/11 194/283/105 108/284/183
f 194/283/105 33/11/11 109/285/184
f 34/6/6 194/286/105 109/207/184
f 194/286/105 34/6/6 110/287/106
f 115/288/110 5/31/31 111/111/109
f 111/111/109 35/227/25 112/109/107
f 112/289/107 36/290/83 113/113/108
f 113/113/108 37/74/72 114/114/111
f 114/222/111 38/15/15 115/220/110
f 120/211/114 6/5/5 116/209/115
f 116/122/115 39/65/64 117/120/108
f 117/120/108 40/86/84 118/291/113
f 118/118/113 41/27/27 119/116/112
f 119/116/112 42/21/21 120/292/114
f 124/293/116 7/13/13 121/221/119
f 121/126/119 43/73/72 122/124/117
f 122/124/117 44/262/69 123/125/118
f 123/294/118 45/213/9 124/215/116
f 128/295/120 8/10/10 125/217/123
f 125/130/123 46/69/68 126/128/121
f 126/128/121 47/66/65 127/129/122
f 127/210/122 48/7/7 128/208/120
f 132/131/124 9/224/20 129/134/127
f 129/134/127 49/296/77 130/132/125
f 130/132/125 50/297/94 131/133/126
f 131/133/126 51/30/30 132/131/124
f 136/136/129 10/22/22 133/137/130
f 133/137/130 52/298/80 134/135/128
f 134/135/128 53/299/78 135/138/131
f 135/138/131 54/19/19 136/136/129
f 140/139/132 11/26/26 137/142/135
f 137/142/135 55/300/87 138/140/133
f 138/140/133 56/301/81 139/141/134
f 139/141/134 57/24/24 140/139/132
f 144/143/136 12/32/32 141/146/139
f 141/146/139 58/302/93 142/144/137
f 142/144/137 59/303/88 143/145/138
f 143/145/138 60/228/28 144/143/136
f 148/304/141 13/232/34 145/233/142
f 145/305/142 61/45/45 146/251/140
f 146/147/140 62/61/60 147/150/143
f 147/150/143 63/255/50 148/148/141
f 152/152/145 14/49/49 149/153/146
f 149/153/146 64/56/56 150/151/144
f 150/240/144 65/38/38 151/306/147
f 151/237/147 66/36/36 152/235/145
f 15/155/33 153/307/186 195/156/148
f 67/247/44 195/308/148 153/309/186
f 195/308/148 67/247/44 154/245/189
f 68/46/46 195/310/148 154/311/189
f 195/310/148 68/46/46 155/312/149
f 16/37/37 156/239/188 196/158/150
f 69/43/43 196/313/150 156/314/188
f 196/313/150 69/43/43 157/315/187
f 157/231/187 70/35/35 196/316/150
f 196/316/150 70/35/35 158/236/151
f 163/163/155 17/317/86 159/318/154
f 159/162/154 71/257/59 160/160/152
f 160/160/152 72/62/61 161/161/153
f 161/164/153 73/319/47 162/165/156
f 162/165/156 74/75/73 163/163/155
f 168/168/117 18/68/67 164/169/158
f 164/169/158 75/320/40 165/167/157
f 165/171/157 76/53/53 166/172/152
f 166/172/152 77/57/57 167/170/159
f 167/321/159 78/87/85 168/168/117
f 172/174/160 19/76/74 169/177/163
f 169/177/163 79/322/48 170/175/161
f 170/175/161 80/323/42 171/176/162
f 171/176/162 81/261/70 172/174/160
f 176/179/160 20/72/71 173/180/165
f 173/180/165 82/324/41 174/178/164
f 174/178/164 83/325/39 175/181/166
f 175/181/166 84/67/66 176/179/160
f 180/182/167 21/326/76 177/185/170
f 177/185/170 85/254/52 178/183/168
f 178/183/168 86/63/62 179/184/169
f 179/184/169 87/327/91 180/182/167
f 184/187/172 22/328/82 181/188/173
f 181/188/173 88/54/54 182/186/171
f 182/186/171 89/51/51 183/189/174
f 183/189/174 90/329/75 184/187/172
f 188/191/176 23/330/90 185/192/177
f 185/192/177 91/60/58 186/190/175
f 186/190/175 92/55/55 187/193/178
f 187/193/178 93/331/79 188/191/176
f 192/195/179 24/332/92 189/196/180
f 189/196/180 94/64/63 190/194/175
f 190/194/175 95/258/58 191/197/181
f 191/197/181 96/333/89 192/195/179
f 107/106/104 26/14/14 3/16/16
f 26/14/14 107/106/104 99/275/96
f 31/12/12 108/284/183 106/334/182
f 108/284/183 31/12/12 33/11/11
f 28/8/8 110/287/106 34/6/6
f 110/287/106 28/8/8 101/277/100
f 1/17/17 104/104/102 30/18/18
f 100/335/98 104/104/102 1/17/17
f 33/11/11 8/10/10 109/285/184
f 128/295/120 109/285/184 8/10/10
f 39/65/64 127/129/122 47/66/65
f 116/122/115 127/129/122 39/65/64
f 29/23/23 120/292/114 42/21/21
f 102/103/101 120/292/114 29/23/23
f 3/16/16 7/13/13 105/278/185
f 124/293/116 105/278/185 7/13/13
f 123/336/118 46/69/68 125/130/123
f 46/69/68 123/336/118 44/70/69
f 115/288/110 98/97/95 25/29/29
f 115/288/110 25/29/29 5/31/31
f 121/126/119 114/114/111 43/73/72
f 43/73/72 114/114/111 37/74/72
f 136/136/129 103/101/99 29/23/23
f 136/136/129 29/23/23 10/22/22
f 135/337/131 49/79/77 129/338/127
f 49/79/77 135/337/131 53/80/78
f 51/30/30 25/29/29 132/131/124
f 97/99/97 132/131/124 25/29/29
f 140/139/132 41/27/27 11/26/26
f 140/139/132 119/116/112 41/27/27
f 52/82/80 139/339/134 56/83/81
f 133/340/130 139/339/134 52/82/80
f 36/85/83 118/291/113 40/86/84
f 118/291/113 36/85/83 112/341/107
f 5/31/31 12/32/32 111/111/109
f 144/143/136 111/111/109 12/32/32
f 55/89/87 143/342/138 59/90/88
f 137/343/135 143/342/138 55/89/87
f 141/344/139 50/96/94 58/95/93
f 50/96/94 141/344/139 131/345/126
f 67/44/44 157/315/187 69/43/43
f 157/315/187 67/44/44 153/346/186
f 61/45/45 155/312/149 68/46/46
f 155/312/149 61/45/45 145/305/142
f 14/49/49 148/347/141 63/50/50
f 152/152/145 148/347/141 14/49/49
f 158/159/151 65/38/38 16/37/37
f 65/38/38 158/159/151 151/306/147
f 82/41/41 156/314/188 174/348/164
f 156/314/188 82/41/41 69/43/43
f 165/171/157 64/56/56 76/53/53
f 165/171/157 150/151/144 64/56/56
f 175/181/166 164/169/158 84/67/66
f 84/67/66 164/169/158 18/68/67
f 79/48/48 154/311/189 170/349/161
f 154/311/189 79/48/48 68/46/46
f 81/71/70 173/180/165 20/72/71
f 173/180/165 81/71/70 171/350/162
f 62/61/60 161/161/153 72/62/61
f 146/147/140 161/161/153 62/61/60
f 74/75/73 169/177/163 19/76/74
f 169/177/163 74/75/73 162/165/156
f 88/54/54 64/56/56 182/186/171
f 149/153/146 182/186/171 64/56/56
f 178/183/168 147/150/143 62/61/60
f 178/183/168 62/61/60 86/63/62
f 90/77/75 177/351/170 21/78/76
f 183/352/174 177/351/170 90/77/75
f 77/57/57 186/190/175 91/60/58
f 166/172/152 186/190/175 77/57/57
f 187/353/178 22/84/82 93/81/79
f 22/84/82 187/353/178 181/354/173
f 94/64/63 160/160/152 190/194/175
f 160/160/152 94/64/63 72/62/61
f 17/88/86 78/87/85 159/355/154
f 159/355/154 78/87/85 167/321/159
f 185/356/177 96/91/89 191/357/181
f 96/91/89 185/356/177 23/92/90
f 87/93/91 189/358/180 24/94/92
f 179/359/169 189/358/180 87/93/91
f 46/69/68 176/179/160 126/128/121
f 176/179/160 46/69/68 20/72/71
f 117/120/108 168/168/117 40/86/84
f 40/86/84 168/168/117 78/87/85
f 172/174/160 43/73/72 19/76/74
f 43/73/72 172/174/160 122/124/117
f 163/163/155 36/290/83 17/317/86
f 36/290/83 163/163/155 113/113/108
f 184/360/172 52/82/80 22/84/82
f 52/82/80 184/360/172 134/361/128
f 180/362/167 50/96/94 130/363/125
f 50/96/94 180/362/167 87/93/91
f 55/89/87 188/364/176 138/365/133
f 188/364/176 55/89/87 23/92/90
f 58/95/93 192/366/179 142/367/137
f 192/366/179 58/95/93 24/94/92
